<?xml version="1.0" standalone="no"?>
<!DOCTYPE svg PUBLIC "-//W3C//DTD SVG 1.1//EN" "http://www.w3.org/Graphics/SVG/1.1/DTD/svg11.dtd" >
<svg xmlns="http://www.w3.org/2000/svg" xmlns:xlink="http://www.w3.org/1999/xlink" version="1.1">
<metadata>
Created by FontForge 20170731 at Sun Dec  8 22:45:34 2019
 By Aleksey,,,
Copyright 2019 The Space Grotesk Project Authors (https://github.com/floriankarsten/space-grotesk)
</metadata>
<defs>
<font id="SpaceGrotesk-Light" horiz-adv-x="620" >
  <font-face 
    font-family="Space Grotesk Light"
    font-weight="300"
    font-stretch="normal"
    units-per-em="1000"
    panose-1="0 0 4 0 0 0 0 0 0 0"
    ascent="800"
    descent="-200"
    x-height="484"
    cap-height="700"
    bbox="-660 -248 1006 1000"
    underline-thickness="50"
    underline-position="-150"
    unicode-range="U+000D-E133"
  />
<missing-glyph horiz-adv-x="840" 
d="M271 790h298q181 0 181 -187v-516q0 -187 -181 -187h-298q-181 0 -181 187v516q0 187 181 187zM170 -20q30 -34 94 -34h313q64 0 93.5 34t29.5 103v524q0 69 -29.5 103t-93.5 34h-313q-64 0 -94 -34t-30 -103v-524q0 -69 30 -103zM300.5 562.5q46.5 38.5 121.5 38.5
q45 0 83 -16.5t60.5 -47t22.5 -69.5v-6q0 -49 -28 -78.5t-79 -52.5l-18 -8q-14 -6 -19.5 -16.5t-5.5 -28.5v-48h-48v47q0 31 10.5 50t41.5 33l18 8q42 19 61 39t19 58q0 44 -33.5 68t-84.5 24q-52 0 -86 -26t-34 -76v-30h-48v31q0 68 46.5 106.5zM384 172.5q12 12.5 31 12.5
t31 -12.5t12 -30.5t-12 -30t-31 -12t-31 12t-12 30t12 30.5z" />
    <glyph glyph-name="f_f.liga" unicode="ff" horiz-adv-x="730" 
d="M698 484v-44h-168v-440h-50v440h-240v-440h-50v440h-166v44h166v150q0 31 17 48.5t47 17.5h128v-44h-114q-28 0 -28 -30v-142h240v150q0 31 17 48.5t47 17.5h128v-44h-114q-28 0 -28 -30v-142h168z" />
    <glyph glyph-name="f_f_i.liga" unicode="ffi" horiz-adv-x="902" 
d="M820 484v-484h-50v440h-240v-440h-50v440h-240v-440h-50v440h-166v44h166v150q0 31 17 48.5t47 17.5h128v-44h-114q-28 0 -28 -30v-142h240v150q0 31 17 48.5t47 17.5h122v-44h-108q-28 0 -28 -30v-142h290zM831.5 677.5q14.5 -14.5 14.5 -36.5t-14.5 -36.5t-36.5 -14.5
t-36.5 14.5t-14.5 36.5t14.5 36.5t36.5 14.5t36.5 -14.5z" />
    <glyph glyph-name="f_f_j.liga" unicode="ffj" horiz-adv-x="902" 
d="M820 484v-618q0 -31 -17 -48.5t-47 -17.5h-116v44h102q28 0 28 30v566h-240v-440h-50v440h-240v-440h-50v440h-166v44h166v150q0 31 17 48.5t47 17.5h128v-44h-114q-28 0 -28 -30v-142h240v150q0 31 17 48.5t47 17.5h122v-44h-108q-28 0 -28 -30v-142h290zM831.5 677.5
q14.5 -14.5 14.5 -36.5t-14.5 -36.5t-36.5 -14.5t-36.5 14.5t-14.5 36.5t14.5 36.5t36.5 14.5t36.5 -14.5z" />
    <glyph glyph-name="f_i.liga" unicode="fi" horiz-adv-x="612" 
d="M530 484v-484h-50v440h-240v-440h-50v440h-166v44h166v150q0 31 17 48.5t47 17.5h122v-44h-108q-28 0 -28 -30v-142h290zM541.5 677.5q14.5 -14.5 14.5 -36.5t-14.5 -36.5t-36.5 -14.5t-36.5 14.5t-14.5 36.5t14.5 36.5t36.5 14.5t36.5 -14.5z" />
    <glyph glyph-name="f_j.liga" unicode="fj" horiz-adv-x="612" 
d="M530 484v-618q0 -31 -17 -48.5t-47 -17.5h-116v44h102q28 0 28 30v566h-240v-440h-50v440h-166v44h166v150q0 31 17 48.5t47 17.5h122v-44h-108q-28 0 -28 -30v-142h290zM541.5 677.5q14.5 -14.5 14.5 -36.5t-14.5 -36.5t-36.5 -14.5t-36.5 14.5t-14.5 36.5t14.5 36.5
t36.5 14.5t36.5 -14.5z" />
    <glyph glyph-name="f_l.liga" unicode="fl" horiz-adv-x="612" 
d="M190 634q0 31 17 48.5t47 17.5h118v-44h-104q-28 0 -28 -30v-142h154v-44h-154v-440h-50v440h-166v44h166v150zM530 700v-700h-50v700h50z" />
    <glyph glyph-name="f_lcaron.liga" unicode="f&#x13e;" horiz-adv-x="644" 
d="M190 634q0 31 17 48.5t47 17.5h118v-44h-104q-28 0 -28 -30v-142h154v-44h-154v-440h-50v440h-166v44h166v150zM480 0v700h50v-700h-50zM669 700l-44 -174h-26l11 174h59z" />
    <glyph glyph-name="t_t.liga" unicode="tt" horiz-adv-x="734" 
d="M520 440v-366q0 -30 28 -30h118v-44h-132q-30 0 -47 17.5t-17 48.5v374h-240v-366q0 -30 28 -30h114v-44h-128q-30 0 -47 17.5t-17 48.5v374h-166v44h166v186h50v-186h240v186h50v-186h174v-44h-174z" />
    <glyph glyph-name=".notdef" horiz-adv-x="840" 
d="M271 790h298q181 0 181 -187v-516q0 -187 -181 -187h-298q-181 0 -181 187v516q0 187 181 187zM170 -20q30 -34 94 -34h313q64 0 93.5 34t29.5 103v524q0 69 -29.5 103t-93.5 34h-313q-64 0 -94 -34t-30 -103v-524q0 -69 30 -103zM300.5 562.5q46.5 38.5 121.5 38.5
q45 0 83 -16.5t60.5 -47t22.5 -69.5v-6q0 -49 -28 -78.5t-79 -52.5l-18 -8q-14 -6 -19.5 -16.5t-5.5 -28.5v-48h-48v47q0 31 10.5 50t41.5 33l18 8q42 19 61 39t19 58q0 44 -33.5 68t-84.5 24q-52 0 -86 -26t-34 -76v-30h-48v31q0 68 46.5 106.5zM384 172.5q12 12.5 31 12.5
t31 -12.5t12 -30.5t-12 -30t-31 -12t-31 12t-12 30t12 30.5z" />
    <glyph glyph-name=".null" horiz-adv-x="0" 
 />
    <glyph glyph-name="nonmarkingreturn" unicode="&#xd;" horiz-adv-x="600" 
 />
    <glyph glyph-name="space" unicode=" " horiz-adv-x="330" 
 />
    <glyph glyph-name="exclam" unicode="!" horiz-adv-x="222" 
d="M138 700l-6 -530h-42l-6 530h54zM71.5 80q15.5 16 39.5 16t39.5 -16t15.5 -39t-15.5 -39t-39.5 -16t-39.5 16t-15.5 39t15.5 39z" />
    <glyph glyph-name="quotedbl" unicode="&#x22;" horiz-adv-x="362" 
d="M71.5 700.5q15.5 15.5 39.5 15.5t39.5 -15.5t15.5 -39.5v-55q0 -45 -23 -67.5t-66 -22.5h-11v40h11q24 0 33.5 10t9.5 33v9h-11q-22 0 -37.5 15.5t-15.5 37.5q0 24 15.5 39.5zM211.5 700.5q15.5 15.5 39.5 15.5t39.5 -15.5t15.5 -39.5v-55q0 -45 -23 -67.5t-66 -22.5h-11
v40h11q24 0 33.5 10t9.5 33v9h-11q-22 0 -37.5 15.5t-15.5 37.5q0 24 15.5 39.5z" />
    <glyph glyph-name="numbersign" unicode="#" 
d="M178 487v213h50v-213h164v213h50v-213h134v-44h-134v-186h134v-44h-134v-213h-50v213h-164v-213h-50v213h-134v44h134v186h-134v44h134zM228 257h164v186h-164v-186z" />
    <glyph glyph-name="dollar" unicode="$" horiz-adv-x="616" 
d="M504 462v43q0 71 -46 111.5t-117 47.5v-283l24 -6q92 -24 141.5 -68t49.5 -119v-8q0 -82 -60 -134.5t-155 -58.5v-103h-50v103q-116 7 -178.5 73.5t-62.5 184.5v27h54v-24q0 -101 49 -154t138 -59v307l-20 5q-94 24 -141.5 64.5t-47.5 117.5v6q0 49 27 88.5t74.5 63
t107.5 26.5v103h50v-103q97 -8 157 -61.5t60 -143.5v-46h-54zM154 464.5q18 -25.5 50.5 -41t86.5 -29.5v271q-66 -5 -110.5 -40.5t-44.5 -93.5q0 -41 18 -66.5zM460.5 275q-41.5 34 -119.5 54v-294q75 7 118 48t43 101q0 57 -41.5 91z" />
    <glyph glyph-name="percent" unicode="%" horiz-adv-x="794" 
d="M102.5 671.5q42.5 42.5 117.5 42.5q74 0 117 -43t43 -117v-19q0 -74 -42 -116.5t-118 -42.5q-75 0 -117.5 42.5t-42.5 116.5v19q0 75 42.5 117.5zM639 708l43 -32l-196 -243l-32 24zM137 448.5q29 -30.5 83 -30.5t83 30.5t29 82.5v28q0 52 -29 82.5t-83 30.5t-83 -30.5
t-29 -82.5v-28q0 -52 29 -82.5zM456.5 281.5q42.5 42.5 117.5 42.5q74 0 117 -43t43 -117v-19q0 -74 -42 -116.5t-118 -42.5q-75 0 -117.5 42.5t-42.5 116.5v19q0 75 42.5 117.5zM491 58.5q29 -30.5 83 -30.5t83 30.5t29 82.5v28q0 52 -29 82.5t-83 30.5t-83 -30.5
t-29 -82.5v-28q0 -52 29 -82.5zM155 -8l-43 32l196 243l32 -24z" />
    <glyph glyph-name="ampersand" unicode="&#x26;" horiz-adv-x="612" 
d="M265 654q-66 0 -108.5 -35.5t-42.5 -103.5t42.5 -103.5t108.5 -35.5h164v120h50v-120h101v-46h-101v-330h-220q-57 0 -103.5 21.5t-74 63t-27.5 98.5q0 63 35 105.5t86 61.5v10q-49 16 -81 54.5t-32 101.5q0 58 27.5 99.5t73.5 63t100 21.5h136v-46h-134zM149 294
q-43 -36 -43 -106t43 -106t112 -36h168v284h-168q-69 0 -112 -36z" />
    <glyph glyph-name="quotesingle" unicode="'" horiz-adv-x="222" 
d="M71.5 700.5q15.5 15.5 39.5 15.5t39.5 -15.5t15.5 -39.5v-55q0 -45 -23 -67.5t-66 -22.5h-11v40h11q24 0 33.5 10t9.5 33v9h-11q-22 0 -37.5 15.5t-15.5 37.5q0 24 15.5 39.5z" />
    <glyph glyph-name="parenleft" unicode="(" horiz-adv-x="390" 
d="M209 748q59 60 161 60v-44q-86 -2 -128 -52.5t-42 -155.5v-552q0 -105 42 -155.5t128 -52.5v-44q-102 0 -161 60t-59 188v560q0 128 59 188z" />
    <glyph glyph-name="parenright" unicode=")" horiz-adv-x="390" 
d="M181 -188q-59 -60 -161 -60v44q86 2 128 52.5t42 155.5v552q0 105 -42 155.5t-128 52.5v44q102 0 161 -60t59 -188v-560q0 -128 -59 -188z" />
    <glyph glyph-name="asterisk" unicode="*" horiz-adv-x="508" 
d="M302 480q-1 -3 -2 -5.5t-2 -4.5l54 -45l63 -62l-30 -30l-62 63l-45 54q-2 -1 -4.5 -2t-5.5 -2l7 -70v-88h-42v88l7 70q-3 1 -5.5 2t-4.5 2l-45 -54l-62 -63l-30 30l63 62l54 45q-1 2 -2 4.5t-2 5.5l-70 -7h-88v42h88l70 -7q2 6 4 10l-54 45l-63 62l30 30l62 -63l45 -54
q4 2 10 4l-7 70v88h42v-88l-7 -70q6 -2 10 -4l45 54l62 63l30 -30l-63 -62l-54 -45q2 -4 4 -10l70 7h88v-42h-88z" />
    <glyph glyph-name="plus" unicode="+" 
d="M285 374v185h50v-185h184v-48h-184v-185h-50v185h-184v48h184z" />
    <glyph glyph-name="comma" unicode="," horiz-adv-x="222" 
d="M71.5 80.5q15.5 15.5 39.5 15.5t39.5 -15.5t15.5 -39.5v-55q0 -45 -23 -67.5t-66 -22.5h-11v40h11q24 0 33.5 10t9.5 33v9h-11q-22 0 -37.5 15.5t-15.5 37.5q0 24 15.5 39.5z" />
    <glyph glyph-name="hyphen" unicode="-" horiz-adv-x="460" 
d="M82 281h296v-48h-296v48z" />
    <glyph glyph-name="period" unicode="." horiz-adv-x="222" 
d="M71.5 80q15.5 16 39.5 16t39.5 -16t15.5 -39t-15.5 -39t-39.5 -16t-39.5 16t-15.5 39t15.5 39z" />
    <glyph glyph-name="slash" unicode="/" horiz-adv-x="456" 
d="M398 700l-294 -900h-50l294 900h50z" />
    <glyph glyph-name="zero" unicode="0" horiz-adv-x="624" 
d="M128.5 641q64.5 73 183.5 73t183.5 -73t64.5 -213v-156q0 -140 -64.5 -213t-183.5 -73t-183.5 73t-64.5 213v156q0 140 64.5 213zM167 95q49 -61 145 -61t145 61t49 173v164q0 112 -49 173t-145 61t-145 -61t-49 -173v-164q0 -112 49 -173z" />
    <glyph glyph-name="one" unicode="1" horiz-adv-x="387" 
d="M305 700l-2 -700h-54v640h-12l-161 -236h-66l205 296h90z" />
    <glyph glyph-name="two" unicode="2" horiz-adv-x="586" 
d="M86 603q32 54 88.5 82.5t126.5 28.5t124.5 -28t84.5 -78.5t30 -116.5q0 -91 -58 -147.5t-168 -85.5q-78 -21 -120.5 -39.5t-66 -52.5t-23.5 -93v-25h438v-48h-494v67q0 73 29 119t80 72t130 45q97 23 147 68.5t50 119.5q0 81 -50.5 128t-132.5 47q-88 0 -140.5 -51
t-52.5 -143v-20h-54v24q0 73 32 127z" />
    <glyph glyph-name="three" unicode="3" horiz-adv-x="580" 
d="M532 651l-254 -219v-10h24q66 0 117.5 -26t81 -75t29.5 -115q0 -63 -30.5 -113.5t-84 -78.5t-119.5 -28q-115 0 -182.5 62.5t-67.5 177.5v35h54v-37q0 -95 52 -142.5t144 -47.5q54 0 95 23t63 62.5t22 88.5q0 80 -52.5 123t-132.5 43h-86v54l255 222h-400v50h472v-49z
" />
    <glyph glyph-name="four" unicode="4" horiz-adv-x="592" 
d="M456 700v-508h124v-48h-124v-144h-54v144h-382v46l343 510h93zM80 192h322v456h-12z" />
    <glyph glyph-name="five" unicode="5" horiz-adv-x="580" 
d="M520 652h-394v-286h12q19 43 62.5 73.5t117.5 30.5q61 0 110 -29t77.5 -83t28.5 -125t-29.5 -127t-84.5 -88t-128 -32q-72 0 -127 29t-85 81.5t-30 121.5v28h52v-24q0 -92 52 -140t138 -48q88 0 137 53t49 146q0 88 -46 139.5t-126 51.5q-61 0 -95.5 -27t-54.5 -67h-84
v370h448v-48z" />
    <glyph glyph-name="six" unicode="6" horiz-adv-x="598" 
d="M516 102q-32 -55 -87 -85.5t-123 -30.5t-123 30t-87 85t-32 127v242q0 72 29.5 127.5t85.5 86t133 30.5q74 0 126 -29t78 -77.5t26 -107.5h-54q0 78 -44.5 122t-131.5 44q-91 0 -142.5 -50t-51.5 -139v-108h12q22 42 68.5 71.5t119.5 29.5q64 0 116.5 -30.5t83 -85.5
t30.5 -126t-32 -126zM208 401q-43 -25 -66.5 -70t-23.5 -103q0 -88 52 -141t136 -53t136 53t52 141q0 58 -23.5 103t-66.5 70t-98 25t-98 -25z" />
    <glyph glyph-name="seven" unicode="7" horiz-adv-x="548" 
d="M528 700v-46l-316 -654h-62l316 650h-448v50h510z" />
    <glyph glyph-name="eight" unicode="8" horiz-adv-x="584" 
d="M86.5 624q28.5 42 81.5 66t124 24t124 -24t81.5 -66t28.5 -96q0 -65 -39 -104.5t-89 -54.5v-12q31 -5 63.5 -25t55.5 -57.5t23 -90.5q0 -58 -31 -103t-87.5 -70t-129.5 -25t-129.5 25t-87.5 70t-31 103q0 53 23 90.5t55.5 57.5t63.5 25v12q-50 15 -89 54.5t-39 104.5
q0 54 28.5 96zM162.5 423q50.5 -37 129.5 -37t129.5 37t50.5 103t-50.5 103t-129.5 37t-129.5 -37t-50.5 -103t50.5 -103zM151.5 73q53.5 -39 140.5 -39t140.5 39t53.5 113t-53.5 113t-140.5 39t-140.5 -39t-53.5 -113t53.5 -113z" />
    <glyph glyph-name="nine" unicode="9" horiz-adv-x="598" 
d="M82 598q32 55 87 85.5t123 30.5t123 -30t87 -85t32 -127v-242q0 -72 -29.5 -127.5t-85.5 -86t-133 -30.5q-74 0 -126 29t-78 77.5t-26 107.5h54q0 -78 44.5 -122t131.5 -44q91 0 142.5 50t51.5 139v108h-12q-22 -42 -68.5 -71.5t-119.5 -29.5q-64 0 -116.5 30.5t-83 85.5
t-30.5 126t32 126zM390 299q43 25 66.5 70t23.5 103q0 88 -52 141t-136 53t-136 -53t-52 -141q0 -58 23.5 -103t66.5 -70t98 -25t98 25z" />
    <glyph glyph-name="colon" unicode=":" horiz-adv-x="222" 
d="M71.5 80q15.5 16 39.5 16t39.5 -16t15.5 -39t-15.5 -39t-39.5 -16t-39.5 16t-15.5 39t15.5 39zM71.5 494q15.5 16 39.5 16t39.5 -16t15.5 -39t-15.5 -39t-39.5 -16t-39.5 16t-15.5 39t15.5 39z" />
    <glyph glyph-name="semicolon" unicode=";" horiz-adv-x="222" 
d="M71.5 494q15.5 16 39.5 16t39.5 -16t15.5 -39t-15.5 -39t-39.5 -16t-39.5 16t-15.5 39t15.5 39zM71.5 80.5q15.5 15.5 39.5 15.5t39.5 -15.5t15.5 -39.5v-55q0 -45 -23 -67.5t-66 -22.5h-11v40h11q24 0 33.5 10t9.5 33v9h-11q-22 0 -37.5 15.5t-15.5 37.5q0 24 15.5 39.5
z" />
    <glyph glyph-name="less" unicode="&#x3c;" 
d="M100 384l420 186v-63l-364 -153v-8l364 -153v-63l-420 186v68z" />
    <glyph glyph-name="equal" unicode="=" 
d="M101 437h418v-47h-418v47zM101 311h418v-48h-418v48z" />
    <glyph glyph-name="greater" unicode="&#x3e;" 
d="M100 130v63l365 153v8l-365 153v63l420 -186v-68z" />
    <glyph glyph-name="question" unicode="?" 
d="M134.5 659.5q66.5 54.5 176.5 54.5q70 0 124.5 -25t84.5 -68.5t30 -97.5v-8q0 -73 -40.5 -119t-112.5 -76l-34 -14q-21 -9 -29 -23t-8 -41v-72h-54v70q0 46 13 69t56 41l34 14q62 26 91.5 60t29.5 95q0 69 -53 108t-132 39q-82 0 -135.5 -41t-53.5 -120v-43h-54v45
q0 98 66.5 152.5zM259.5 80q15.5 16 39.5 16t39.5 -16t15.5 -39t-15.5 -39t-39.5 -16t-39.5 16t-15.5 39t15.5 39z" />
    <glyph glyph-name="at" unicode="@" horiz-adv-x="1020" 
d="M129.5 652.5q47.5 47.5 140.5 47.5h480q93 0 140.5 -47.5t47.5 -140.5v-424q0 -88 -88 -88h-115q-34 0 -51 17.5t-17 48.5v25h-10q-15 -40 -54.5 -72.5t-108.5 -32.5q-58 0 -105.5 31t-75.5 86.5t-28 125.5v18q0 70 28 125.5t75.5 86.5t105.5 31q69 0 108.5 -33t54.5 -74
h10v93h48v-410q0 -12 5.5 -17t17.5 -5h104q25 0 35.5 10.5t10.5 35.5v428q0 136 -136 136h-484q-136 0 -136 -136v-536q0 -136 136 -136h650v-46h-648q-93 0 -140.5 47.5t-47.5 140.5v524q0 93 47.5 140.5zM358 126.5q21 -45.5 58 -70t85 -24.5q73 0 118.5 54t45.5 147v10
q0 93 -45.5 147t-118.5 54q-48 0 -85 -24.5t-58 -70t-21 -105.5v-12q0 -60 21 -105.5z" />
    <glyph glyph-name="A" unicode="A" horiz-adv-x="608" 
d="M344 700l244 -700h-59l-65 190h-320l-65 -190h-59l244 700h80zM448 238l-139 405h-10l-139 -405h288z" />
    <glyph glyph-name="B" unicode="B" horiz-adv-x="622" 
d="M463.5 678q46.5 -22 73.5 -63t27 -96q0 -66 -36 -106t-85 -56v-10q48 -13 84.5 -54t36.5 -108q0 -86 -58.5 -135.5t-151.5 -49.5h-272v700h276q59 0 105.5 -22zM356 376q72 0 113 39t41 102q0 60 -42.5 97.5t-113.5 37.5h-218v-276h220zM356 48q73 0 113.5 39.5
t40.5 101.5q0 65 -41 102t-119 37h-214v-280h220z" />
    <glyph glyph-name="C" unicode="C" horiz-adv-x="638" 
d="M136 635.5q72 78.5 198 78.5q121 0 185.5 -66.5t64.5 -183.5v-14h-54v14q0 95 -51 148.5t-145 53.5q-103 0 -159.5 -65t-56.5 -182v-138q0 -117 57 -182t159 -65q99 0 147.5 51t48.5 148v17h54v-17q0 -115 -67 -181t-183 -66q-128 0 -199 78t-71 219v134q0 140 72 218.5z
" />
    <glyph glyph-name="D" unicode="D" horiz-adv-x="628" 
d="M489 629q75 -71 75 -216v-126q0 -145 -75 -216t-215 -71h-192v700h192q140 0 215 -71zM274 48q118 0 177 57t59 179v132q0 122 -60 179t-176 57h-138v-604h138z" />
    <glyph glyph-name="E" unicode="E" horiz-adv-x="562" 
d="M510 700v-48h-374v-277h346v-48h-346v-279h378v-48h-432v700h428z" />
    <glyph glyph-name="F" unicode="F" horiz-adv-x="538" 
d="M502 700v-48h-366v-277h346v-48h-346v-327h-54v700h420z" />
    <glyph glyph-name="G" unicode="G" horiz-adv-x="644" 
d="M136 635.5q72 78.5 197 78.5q120 0 181.5 -65.5t61.5 -180.5v-7h-54v7q0 93 -48 145.5t-140 52.5q-103 0 -159.5 -65t-56.5 -182v-138q0 -117 56 -182t158 -65q98 0 146 51t48 148v38h-232v48h286v-86q0 -115 -66.5 -181t-181.5 -66q-127 0 -197.5 78t-70.5 218v135
q0 140 72 218.5z" />
    <glyph glyph-name="H" unicode="H" horiz-adv-x="640" 
d="M136 700v-325h368v325h54v-700h-54v327h-368v-327h-54v700h54z" />
    <glyph glyph-name="I" unicode="I" horiz-adv-x="218" 
d="M136 700v-700h-54v700h54z" />
    <glyph glyph-name="J" unicode="J" horiz-adv-x="538" 
d="M409 43q-51 -57 -153 -57q-101 0 -157.5 57.5t-56.5 166.5v47h54v-47q0 -80 41 -128t121 -48t114 46.5t34 129.5v490h54v-490q0 -110 -51 -167z" />
    <glyph glyph-name="K" unicode="K" horiz-adv-x="617" 
d="M615 700l-302 -282l297 -418h-69l-267 382l-138 -130v-252h-54v700h54v-370h10l390 370h79z" />
    <glyph glyph-name="L" unicode="L" horiz-adv-x="540" 
d="M136 700v-652h382v-48h-436v700h54z" />
    <glyph glyph-name="M" unicode="M" horiz-adv-x="864" 
d="M179 700l248 -644h10l248 644h97v-700h-54v641h-10l-247 -641h-78l-247 641h-10v-641h-54v700h97z" />
    <glyph glyph-name="N" unicode="N" horiz-adv-x="650" 
d="M173 700l331 -639h10v639h54v-700h-91l-331 639h-10v-639h-54v700h91z" />
    <glyph glyph-name="O" unicode="O" horiz-adv-x="660" 
d="M135 640.5q71 73.5 195 73.5t195 -73.5t71 -212.5v-156q0 -139 -71 -212.5t-195 -73.5t-195 73.5t-71 212.5v156q0 139 71 212.5zM174 96q56 -62 156 -62t156 62t56 172v164q0 110 -56 172t-156 62t-156 -62t-56 -172v-164q0 -110 56 -172z" />
    <glyph glyph-name="P" unicode="P" horiz-adv-x="588" 
d="M447.5 676q49.5 -24 78 -69.5t28.5 -107.5t-28.5 -107.5t-78 -69.5t-111.5 -24h-200v-298h-54v700h254q62 0 111.5 -24zM330 346q81 0 125.5 40t44.5 113t-44.5 113t-125.5 40h-194v-306h194z" />
    <glyph glyph-name="Q" unicode="Q" horiz-adv-x="660" 
d="M525 640.5q71 -73.5 71 -212.5v-156q0 -130 -63.5 -203.5t-175.5 -81.5v-59q0 -30 28 -30h70v-48h-88q-30 0 -47 17.5t-17 48.5v71q-112 8 -175.5 81.5t-63.5 203.5v156q0 139 71 212.5t195 73.5t195 -73.5zM542 432q0 110 -56 172t-156 62t-156 -62t-56 -172v-164
q0 -110 56 -172t156 -62t156 62t56 172v164z" />
    <glyph glyph-name="R" unicode="R" horiz-adv-x="614" 
d="M521.5 367.5q-52.5 -51.5 -136.5 -60.5l169 -307h-64l-164 306h-190v-306h-54v700h274q62 0 111.5 -23.5t78 -68t28.5 -105.5q0 -84 -52.5 -135.5zM136 354h214q81 0 125.5 39t44.5 110t-44.5 110t-125.5 39h-214v-298z" />
    <glyph glyph-name="S" unicode="S" horiz-adv-x="614" 
d="M434.5 690q55.5 -24 87.5 -71t32 -114v-43h-54v43q0 81 -52.5 121t-137.5 40q-79 0 -128.5 -35.5t-49.5 -99.5q0 -43 18.5 -70t52 -42.5t88.5 -28.5l70 -17q92 -23 143.5 -64.5t51.5 -124.5q0 -59 -30.5 -104t-86.5 -69.5t-129 -24.5q-117 0 -188.5 63.5t-71.5 188.5v6
h54v-6q0 -102 56 -153t150 -51q89 0 140.5 41.5t51.5 108.5q0 61 -41.5 92t-123.5 51l-70 17q-90 22 -139.5 65t-49.5 122q0 55 29.5 96.5t82 64t120.5 22.5q69 0 124.5 -24z" />
    <glyph glyph-name="T" unicode="T" horiz-adv-x="588" 
d="M566 700v-48h-245v-652h-54v652h-245v48h544z" />
    <glyph glyph-name="U" unicode="U" horiz-adv-x="652" 
d="M132 227q0 -96 50.5 -144.5t143.5 -48.5t143.5 48.5t50.5 144.5v473h54v-473q0 -120 -67 -180.5t-181 -60.5t-181 60.5t-67 180.5v473h54v-473z" />
    <glyph glyph-name="V" unicode="V" horiz-adv-x="608" 
d="M79 700l220 -643h10l220 643h59l-244 -700h-80l-244 700h59z" />
    <glyph glyph-name="W" unicode="W" horiz-adv-x="872" 
d="M96 700l122 -641h10l166 641h84l166 -641h10l122 641h57l-138 -700h-87l-167 642h-10l-167 -642h-87l-138 700h57z" />
    <glyph glyph-name="X" unicode="X" 
d="M103 700l202 -310h10l202 310h67l-234 -347l238 -353h-67l-206 316h-10l-206 -316h-67l238 353l-234 347h67z" />
    <glyph glyph-name="Y" unicode="Y" 
d="M93 700l212 -359h10l212 359h65l-255 -419v-281h-54v281l-255 419h65z" />
    <glyph glyph-name="Z" unicode="Z" horiz-adv-x="586" 
d="M533 700v-44l-417 -608h428v-48h-496v44l417 608h-405v48h473z" />
    <glyph glyph-name="bracketleft" unicode="[" horiz-adv-x="350" 
d="M168 787.5q18 18.5 45 18.5h97v-44h-83q-27 0 -27 -30v-904q0 -30 27 -30h83v-44h-97q-27 0 -45 18.5t-18 45.5v924q0 27 18 45.5z" />
    <glyph glyph-name="backslash" unicode="\" horiz-adv-x="458" 
d="M404 -200h-50l-294 900h50z" />
    <glyph glyph-name="bracketright" unicode="]" horiz-adv-x="350" 
d="M182 -227.5q-18 -18.5 -45 -18.5h-97v44h83q27 0 27 30v904q0 30 -27 30h-83v44h97q27 0 45 -18.5t18 -45.5v-924q0 -27 -18 -45.5z" />
    <glyph glyph-name="asciicircum" unicode="^" 
d="M544 424h-67l-163 237h-8l-162 -237h-68l191 276h86z" />
    <glyph glyph-name="underscore" unicode="_" 
d="M84 -48h452v-48h-452v48z" />
    <glyph glyph-name="grave" unicode="`" horiz-adv-x="257" 
d="M197 570h-56l-81 130h65z" />
    <glyph glyph-name="a" unicode="a" horiz-adv-x="536" 
d="M133.5 455.5q52.5 42.5 137.5 42.5q90 0 139.5 -48t49.5 -132v-318h-48v77h-10q-25 -42 -65.5 -66.5t-108.5 -24.5q-79 0 -129.5 40t-50.5 110q0 69 49.5 105.5t128.5 36.5h184v42q0 63 -36 97.5t-103 34.5q-65 0 -105.5 -32.5t-54.5 -89.5l-49 14q19 69 71.5 111.5z
M135 58.5q37 -28.5 95 -28.5q82 0 131 50.5t49 139.5v14h-184q-57 0 -92.5 -25t-35.5 -73q0 -49 37 -77.5z" />
    <glyph glyph-name="b" unicode="b" 
d="M132 393h10q25 46 71.5 75.5t122.5 29.5q66 0 119.5 -32t84 -90t30.5 -134t-30.5 -134t-84 -90t-119.5 -32q-137 0 -196 108h-10v-94h-48v700h50v-307zM226 426q-44 -26 -69 -73.5t-25 -110.5t25 -110.5t69 -73.5t101 -26q86 0 138.5 57t52.5 153t-52.5 153t-138.5 57
q-57 0 -101 -26z" />
    <glyph glyph-name="c" unicode="c" horiz-adv-x="574" 
d="M83 374q33 58 90.5 91t126.5 33q61 0 109.5 -25t78.5 -66.5t37 -91.5l-50 -10q-8 66 -55.5 106.5t-119.5 40.5q-56 0 -101 -27t-71 -75t-26 -108t26 -107.5t71.5 -75t101.5 -27.5q75 0 120 40.5t57 107.5l50 -10q-15 -80 -74.5 -132t-152.5 -52q-70 0 -127.5 33t-90.5 91
t-33 132t33 132z" />
    <glyph glyph-name="d" unicode="d" 
d="M490 0v94h-10q-59 -108 -196 -108q-66 0 -119.5 32t-84 90t-30.5 134t30.5 134t84 90t119.5 32q76 0 122.5 -29.5t71.5 -75.5h10v307h50v-700h-48zM154.5 395q-52.5 -57 -52.5 -153t52.5 -153t138.5 -57q57 0 101 26t69 73.5t25 110.5t-25 110.5t-69 73.5t-101 26
q-86 0 -138.5 -57z" />
    <glyph glyph-name="e" unicode="e" horiz-adv-x="569" 
d="M81.5 374.5q31.5 57.5 87 90.5t123.5 33q67 0 119.5 -28t82 -81.5t29.5 -125.5v-32h-421q5 -92 58.5 -145.5t138.5 -53.5q66 0 106 30t63 82l48 -19q-30 -62 -79.5 -100.5t-137.5 -38.5q-74 0 -130.5 34t-87.5 93.5t-31 132.5q0 71 31.5 128.5zM419.5 406
q-48.5 46 -127.5 46q-77 0 -129 -47.5t-61 -129.5h369q-3 85 -51.5 131z" />
    <glyph glyph-name="f" unicode="f" horiz-adv-x="440" 
d="M190 634q0 31 17 48.5t47 17.5h128v-44h-114q-28 0 -28 -30v-142h168v-44h-168v-440h-50v440h-166v44h166v150z" />
    <glyph glyph-name="g" unicode="g" 
d="M538 484v-461q0 -72 -30 -125.5t-83.5 -82.5t-124.5 -29q-66 0 -115 24t-78 60.5t-41 74.5l46 16q17 -53 63 -91t124 -38q87 0 138 51t51 145v70h-10q-25 -44 -72 -74t-122 -30q-66 0 -119.5 31.5t-84 88.5t-30.5 132t30.5 132t84 88.5t119.5 31.5q137 0 196 -108h10v94
h48zM394 65.5q44 25.5 69 72t25 108.5t-25 108.5t-69 72t-101 25.5q-86 0 -138.5 -55.5t-52.5 -150.5t52.5 -150.5t138.5 -55.5q57 0 101 25.5z" />
    <glyph glyph-name="h" unicode="h" horiz-adv-x="594" 
d="M132 402h10q55 92 182 92q53 0 97 -22t70.5 -66.5t26.5 -109.5v-296h-50v292q0 80 -40.5 118t-113.5 38q-81 0 -131.5 -53t-50.5 -153v-242h-50v700h50v-298z" />
    <glyph glyph-name="i" unicode="i" horiz-adv-x="214" 
d="M132 0h-50v484h50v-484zM70.5 677.5q14.5 14.5 36.5 14.5t36.5 -14.5t14.5 -36.5t-14.5 -36.5t-36.5 -14.5t-36.5 14.5t-14.5 36.5t14.5 36.5z" />
    <glyph glyph-name="j" unicode="j" horiz-adv-x="222" 
d="M123 -182.5q-17 -17.5 -47 -17.5h-116v44h102q28 0 28 30v610h50v-618q0 -31 -17 -48.5zM78.5 677.5q14.5 14.5 36.5 14.5t36.5 -14.5t14.5 -36.5t-14.5 -36.5t-36.5 -14.5t-36.5 14.5t-14.5 36.5t14.5 36.5z" />
    <glyph glyph-name="k" unicode="k" horiz-adv-x="542" 
d="M516 484l-226 -196l222 -288h-61l-197 256l-122 -106v-150h-50v700h50v-487l307 271h77z" />
    <glyph glyph-name="l" unicode="l" horiz-adv-x="214" 
d="M132 0h-50v700h50v-700z" />
    <glyph glyph-name="m" unicode="m" horiz-adv-x="844" 
d="M130 419h10q42 75 146 75q56 0 94 -26t55 -68h10q45 94 158 94q74 0 119.5 -44.5t45.5 -115.5v-334h-50v328q0 54 -33.5 87t-92.5 33q-62 0 -102 -40.5t-40 -112.5v-295h-50v328q0 54 -33.5 87t-92.5 33q-62 0 -102 -40.5t-40 -112.5v-295h-50v484h48v-65z" />
    <glyph glyph-name="n" unicode="n" horiz-adv-x="594" 
d="M130 398h10q52 96 184 96q53 0 97 -22t70.5 -66.5t26.5 -109.5v-296h-50v292q0 80 -40.5 118t-113.5 38q-81 0 -131.5 -53t-50.5 -153v-242h-50v484h48v-86z" />
    <glyph glyph-name="o" unicode="o" horiz-adv-x="588" 
d="M80 374.5q30 58.5 85.5 91t128.5 32.5t128.5 -32.5t85.5 -91t30 -132.5t-30 -132.5t-85.5 -91t-128.5 -32.5t-128.5 32.5t-85.5 91t-30 132.5t30 132.5zM152.5 89q52.5 -57 141.5 -57q58 0 102 27t68 74.5t24 108.5q0 62 -24 109.5t-68 74t-102 26.5t-102 -27.5t-68 -75
t-24 -107.5q0 -96 52.5 -153z" />
    <glyph glyph-name="p" unicode="p" 
d="M130 484v-94h10q59 108 196 108q66 0 119.5 -32t84 -90t30.5 -134t-30.5 -134t-84 -90t-119.5 -32q-76 0 -122.5 29.5t-71.5 75.5h-10v-291h-50v684h48zM465.5 89q52.5 57 52.5 153t-52.5 153t-138.5 57q-57 0 -101 -26t-69 -73.5t-25 -110.5t25 -110.5t69 -73.5t101 -26
q86 0 138.5 57z" />
    <glyph glyph-name="q" unicode="q" 
d="M488 91h-10q-25 -46 -71.5 -75.5t-122.5 -29.5q-66 0 -119.5 32t-84 90t-30.5 134t30.5 134t84 90t119.5 32q137 0 196 -108h10v94h48v-684h-50v291zM394 58q44 26 69 73.5t25 110.5t-25 110.5t-69 73.5t-101 26q-86 0 -138.5 -57t-52.5 -153t52.5 -153t138.5 -57
q57 0 101 26z" />
    <glyph glyph-name="r" unicode="r" horiz-adv-x="360" 
d="M140 423q15 33 43.5 48t78.5 15h74v-46h-81q-59 0 -91 -33t-32 -100v-307h-50v484h48v-61h10z" />
    <glyph glyph-name="s" unicode="s" horiz-adv-x="504" 
d="M118 462q48 36 130 36t132.5 -38t63.5 -109l-48 -11q-11 59 -49.5 86.5t-98.5 27.5q-58 0 -93 -23.5t-35 -66.5q0 -72 112 -88l63 -9q78 -11 121.5 -42t43.5 -95q0 -67 -52 -105.5t-140 -38.5q-91 0 -150.5 45t-73.5 139l50 10q22 -150 174 -150q64 0 103 27t39 73
q0 41 -32 62t-94 30l-63 9q-69 10 -110 42.5t-41 90.5q0 62 48 98z" />
    <glyph glyph-name="t" unicode="t" horiz-adv-x="444" 
d="M180 484v186h50v-186h174v-44h-174v-366q0 -30 28 -30h118v-44h-132q-30 0 -47 17.5t-17 48.5v374h-166v44h166z" />
    <glyph glyph-name="u" unicode="u" horiz-adv-x="594" 
d="M464 86h-10q-52 -96 -184 -96q-53 0 -97 22t-70.5 66.5t-26.5 109.5v296h50v-292q0 -80 40.5 -118t113.5 -38q81 0 131.5 53t50.5 153v242h50v-484h-48v86z" />
    <glyph glyph-name="v" unicode="v" horiz-adv-x="524" 
d="M88 484l169 -433h10l169 433h56l-196 -484h-68l-196 484h56z" />
    <glyph glyph-name="w" unicode="w" horiz-adv-x="796" 
d="M106 484l109 -430h10l137 430h72l137 -430h10l109 430h54l-130 -484h-74l-137 429h-10l-137 -429h-74l-130 484h54z" />
    <glyph glyph-name="x" unicode="x" horiz-adv-x="578" 
d="M119 484l165 -203h10l165 203h65l-198 -237l206 -247h-66l-172 213h-10l-172 -213h-66l206 247l-198 237h65z" />
    <glyph glyph-name="y" unicode="y" horiz-adv-x="548" 
d="M459 484h57l-304 -684h-56l92 197l-216 487h57l180 -420h10z" />
    <glyph glyph-name="z" unicode="z" horiz-adv-x="530" 
d="M478 484v-40l-358 -400h366v-44h-432v40l358 400h-349v44h415z" />
    <glyph glyph-name="braceleft" unicode="{" horiz-adv-x="369" 
d="M169 346v396q0 27 18 45.5t45 18.5h97v-44h-83q-27 0 -27 -30v-374q0 -34 -17.5 -53.5t-50.5 -19.5h-5v-10h5q33 0 50.5 -19.5t17.5 -53.5v-374q0 -30 27 -30h83v-44h-97q-27 0 -45 18.5t-18 45.5v396q0 29 -27 29h-52v74h52q27 0 27 29z" />
    <glyph glyph-name="bar" unicode="|" horiz-adv-x="214" 
d="M132 -246h-50v1052h50v-1052z" />
    <glyph glyph-name="braceright" unicode="}" horiz-adv-x="369" 
d="M227 243q-27 0 -27 -29v-396q0 -27 -18 -45.5t-45 -18.5h-97v44h83q27 0 27 30v374q0 34 17.5 53.5t50.5 19.5h5v10h-5q-33 0 -50.5 19.5t-17.5 53.5v374q0 30 -27 30h-83v44h97q27 0 45 -18.5t18 -45.5v-396q0 -29 27 -29h52v-74h-52z" />
    <glyph glyph-name="asciitilde" unicode="~" 
d="M340.5 335q6.5 -11 13 -15.5t14.5 -4.5q9 0 14 3t15 11l83 71l32 -35l-77 -64q-3 -3 -16.5 -14t-26.5 -16.5t-25 -5.5q-27 0 -42.5 14.5t-35.5 46.5q-2 4 -8.5 15t-13 15.5t-14.5 4.5q-9 0 -14 -3t-15 -11l-83 -71l-32 35l77 64q3 3 16.5 14t26.5 16.5t25 5.5
q27 0 42.5 -14.5t35.5 -46.5q2 -4 8.5 -15z" />
    <glyph glyph-name="uni00A0" unicode="&#xa0;" horiz-adv-x="330" 
 />
    <glyph glyph-name="exclamdown" unicode="&#xa1;" horiz-adv-x="222" 
d="M150.5 404q-15.5 -16 -39.5 -16t-39.5 16t-15.5 39t15.5 39t39.5 16t39.5 -16t15.5 -39t-15.5 -39zM84 -200l6 514h42l6 -514h-54z" />
    <glyph glyph-name="cent" unicode="&#xa2;" horiz-adv-x="624" 
d="M516 455v9q0 88 -43 141t-122 60v-630q83 7 124 57.5t41 140.5v18h54v-18q0 -108 -58.5 -173t-160.5 -73v-103h-50v103q-112 8 -174.5 85.5t-62.5 210.5v134q0 132 63 210t174 86v103h50v-103q106 -7 162.5 -72.5t56.5 -176.5v-9h-54zM166.5 108q48.5 -65 134.5 -73v630
q-87 -8 -135 -73t-48 -175v-134q0 -110 48.5 -175z" />
    <glyph glyph-name="sterling" unicode="&#xa3;" horiz-adv-x="622" 
d="M136 502q0 103 55 157.5t150 54.5t150 -54.5t55 -157.5v-59h-54v57q0 78 -39 122t-112 44t-112 -44t-39 -122v-130h140v-48h-140v-274h360v-48h-488v48h74v274h-70v48h70v132z" />
    <glyph glyph-name="currency" unicode="&#xa4;" 
d="M153 544q32 26 73 41t84 15t84 -15t73 -41l58 58l37 -37l-58 -58q26 -32 41 -73t15 -84t-15 -84t-41 -73l58 -58l-37 -37l-58 58q-31 -27 -71.5 -41.5t-85.5 -14.5t-85.5 14.5t-71.5 41.5l-58 -58l-37 37l58 58q-27 31 -41.5 71.5t-14.5 85.5t14.5 85.5t41.5 71.5l-58 58
l37 37zM138 245q26 -46 71.5 -71.5t100.5 -25.5q56 0 101 26t71 72t26 104q0 59 -26 105t-71.5 71.5t-100.5 25.5q-56 0 -101 -26t-71 -72t-26 -104q0 -59 26 -105z" />
    <glyph glyph-name="yen" unicode="&#xa5;" 
d="M592 700l-224 -371h130v-44h-161v-62h161v-44h-161v-179h-54v179h-161v44h161v62h-161v44h130l-224 371h64l213 -358h10l213 358h64z" />
    <glyph glyph-name="brokenbar" unicode="&#xa6;" horiz-adv-x="214" 
d="M82 366v440h50v-440h-50zM132 194v-440h-50v440h50z" />
    <glyph glyph-name="section" unicode="&#xa7;" horiz-adv-x="512" 
d="M126.5 675q51.5 39 127.5 39q87 0 139.5 -41.5t52.5 -118.5v-37h-54v34q0 56 -40.5 85.5t-97.5 29.5q-54 0 -89.5 -24.5t-35.5 -72.5q0 -37 17 -59t48.5 -34.5t85.5 -24.5q88 -20 130 -49t42 -85q0 -50 -28 -82q26 -40 26 -84v-6q0 -72 -47.5 -115.5t-136.5 -43.5
q-100 0 -158 52.5t-58 145.5v24h54v-19q0 -73 43 -114t120 -41q60 0 94.5 31t34.5 81q0 49 -33 72t-112 36q-93 16 -134.5 49.5t-41.5 93.5q0 25 6.5 44t23.5 37q-30 36 -30 88v4q0 66 51.5 105zM338 287q24 -8 46 -19q14 22 14 45q0 38 -33.5 58t-110.5 35q-61 12 -111 38
q-14 -19 -14 -47q0 -40 31.5 -61t115.5 -35q38 -6 62 -14z" />
    <glyph glyph-name="dieresis" unicode="&#xa8;" horiz-adv-x="382" 
d="M74.5 677.5q14.5 14.5 36.5 14.5t36.5 -14.5t14.5 -36.5t-14.5 -36.5t-36.5 -14.5t-36.5 14.5t-14.5 36.5t14.5 36.5zM234.5 677.5q14.5 14.5 36.5 14.5t36.5 -14.5t14.5 -36.5t-14.5 -36.5t-36.5 -14.5t-36.5 14.5t-14.5 36.5t14.5 36.5z" />
    <glyph glyph-name="copyright" unicode="&#xa9;" horiz-adv-x="724" 
d="M263 700h198q181 0 181 -187v-326q0 -187 -181 -187h-198q-181 0 -181 187v326q0 187 181 187zM162 80q30 -34 94 -34h213q64 0 93.5 34t29.5 103v334q0 69 -29.5 103t-93.5 34h-213q-64 0 -94 -34t-30 -103v-334q0 -69 30 -103zM259 538.5q41 43.5 108 43.5
q66 0 104.5 -41t38.5 -108v-22h-54v28q0 42 -21.5 68.5t-66.5 26.5q-42 0 -69 -28t-27 -80v-157q0 -48 28.5 -74.5t67.5 -26.5q42 0 65 24t23 74v22h54v-21q0 -66 -37 -106.5t-104 -40.5q-71 0 -111 41t-40 121v131q0 82 41 125.5z" />
    <glyph glyph-name="ordfeminine" unicode="&#xaa;" horiz-adv-x="417" 
d="M85 523.5q37 26.5 95 26.5h127v33q0 42 -24 64.5t-71 22.5q-88 0 -110 -80l-43 10q13 49 52 79.5t101 30.5q65 0 102 -34.5t37 -94.5v-231l-42 1v46h-9q-12 -24 -40.5 -40.5t-76.5 -16.5q-59 0 -97 27t-38 79q0 51 37 77.5zM117.5 397.5q25.5 -17.5 67.5 -17.5
q58 0 90 32t32 91v9h-126q-41 0 -65 -16t-24 -48q0 -33 25.5 -50.5z" />
    <glyph glyph-name="guillemotleft" unicode="&#xab;" horiz-adv-x="780" 
d="M388 459h6v-60l-271 -153v-8l271 -153v-60h-6l-314 186v62zM696 459h6v-60l-271 -153v-8l271 -153v-60h-6l-314 186v62z" />
    <glyph glyph-name="logicalnot" unicode="&#xac;" 
d="M101 374h418v-104h-47v56h-371v48z" />
    <glyph glyph-name="uni00AD" unicode="&#xad;" horiz-adv-x="460" 
d="M82 281h296v-48h-296v48z" />
    <glyph glyph-name="registered" unicode="&#xae;" 
d="M127.5 613.5q27.5 47.5 75.5 74t107 26.5t107 -26.5t75.5 -74t27.5 -107.5t-27.5 -107.5t-75.5 -74t-107 -26.5t-107 26.5t-75.5 74t-27.5 107.5t27.5 107.5zM186.5 382.5q46.5 -46.5 123.5 -46.5t123.5 46.5t46.5 123.5t-46.5 123.5t-123.5 46.5t-123.5 -46.5
t-46.5 -123.5t46.5 -123.5zM378 601q20 -18 20 -44q0 -42 -40 -56v-6q16 -1 24 -11t8 -23v-64h-38v62q0 10 -5.5 15.5t-15.5 5.5h-55v-83h-38v222h85q35 0 55 -18zM325 514q16 0 25.5 10.5t9.5 25.5t-9.5 25t-25.5 10h-49v-71h49z" />
    <glyph glyph-name="macron" unicode="&#xaf;" horiz-adv-x="395" 
d="M335 570h-275v44h275v-44z" />
    <glyph glyph-name="degree" unicode="&#xb0;" horiz-adv-x="372" 
d="M94 679q38 37 92 37q56 0 93 -35.5t37 -92.5q0 -38 -18 -67t-48 -45t-64 -16t-64 17t-48 46.5t-18 64.5q0 54 38 91zM128.5 530q22.5 -22 57.5 -22t57.5 22t22.5 58t-22.5 58t-57.5 22t-57.5 -22t-22.5 -58t22.5 -58z" />
    <glyph glyph-name="plusminus" unicode="&#xb1;" 
d="M101 374h185v185h48v-185h185v-48h-185v-197h-48v197h-185v48zM101 48h418v-48h-418v48z" />
    <glyph glyph-name="uni00B2" unicode="&#xb2;" horiz-adv-x="362" 
d="M294 681.5q42 -32.5 42 -86.5q0 -52 -32.5 -79t-99.5 -43q-63 -15 -92.5 -33.5t-35.5 -47.5h258v-42h-308v22q0 103 144 136q64 15 91 33.5t27 53.5q0 34 -28 55.5t-74 21.5q-52 0 -81.5 -26t-30.5 -74h-48q1 66 45.5 104t114.5 38q66 0 108 -32.5z" />
    <glyph glyph-name="uni00B3" unicode="&#xb3;" horiz-adv-x="368" 
d="M340 666l-132 -92v-10q59 -2 96.5 -29t37.5 -78q0 -53 -45.5 -87t-111.5 -34q-73 0 -117 35.5t-44 96.5h48q0 -43 30.5 -66.5t81.5 -23.5q49 0 79.5 21.5t30.5 57.5q0 33 -28.5 52t-81.5 19h-58v36l130 94h-224v42h308v-34z" />
    <glyph glyph-name="acute" unicode="&#xb4;" horiz-adv-x="257" 
d="M193 700l-71 -130h-56l58 130h69z" />
    <glyph glyph-name="uni00B5" unicode="&#xb5;" horiz-adv-x="594" 
d="M132 496v-289q0 -175 154 -175q85 0 133.5 54t48.5 152v258h50v-496h-48v96h-10q-25 -56 -66 -83t-110 -27q-48 0 -85 19.5t-57 50.5h-10v-256h-50v696h50z" />
    <glyph glyph-name="paragraph" unicode="&#xb6;" horiz-adv-x="549" 
d="M95 645q61 49 161 49h211v-694h-54v646h-95v-646h-54v312h-8q-100 0 -161 49t-61 137v10q0 88 61 137zM130.5 398.5q42.5 -38.5 127.5 -38.5h6v286h-6q-84 0 -127 -38.5t-43 -101.5v-6q0 -63 42.5 -101.5z" />
    <glyph glyph-name="periodcentered" unicode="&#xb7;" horiz-adv-x="222" 
d="M71.5 389q15.5 16 39.5 16t39.5 -16t15.5 -39t-15.5 -39t-39.5 -16t-39.5 16t-15.5 39t15.5 39z" />
    <glyph glyph-name="cedilla" unicode="&#xb8;" horiz-adv-x="300" 
d="M109 -63h3q18 20 49 20q34 0 56.5 -23t22.5 -61q0 -39 -24.5 -62t-63.5 -23q-72 0 -92 65l44 21q2 -21 14.5 -33.5t33.5 -12.5q19 0 31.5 12.5t12.5 33.5q0 20 -12.5 32t-31.5 12q-18 0 -34 -13h-58v3l26 124h42z" />
    <glyph glyph-name="uni00B9" unicode="&#xb9;" horiz-adv-x="250" 
d="M192 700v-350h-48v280h-10l-66 -86h-50v10l115 146h59z" />
    <glyph glyph-name="ordmasculine" unicode="&#xba;" horiz-adv-x="428" 
d="M88.5 659.5q46.5 50.5 125.5 50.5t125.5 -50.5t46.5 -134.5t-46.5 -134.5t-125.5 -50.5t-125.5 50.5t-46.5 134.5t46.5 134.5zM121 420q35 -40 93 -40t93 40t35 105t-35 105t-93 40t-93 -40t-35 -105t35 -105z" />
    <glyph glyph-name="guillemotright" unicode="&#xbb;" horiz-adv-x="780" 
d="M394 211l-314 -186h-6v60l271 153v8l-271 153v60h6l314 -186v-62zM702 211l-314 -186h-6v60l271 153v8l-271 153v60h6l314 -186v-62z" />
    <glyph glyph-name="onequarter" unicode="&#xbc;" horiz-adv-x="754" 
d="M192 700v-350h-48v280h-10l-66 -86h-50v10l115 146h59zM552 708l43 -32l-196 -243l-32 24zM68 -8l-43 32l196 243l32 -24zM609 350v-218h87v-42h-87v-90h-48v90h-225v38l203 222h70zM396 132h165v168h-10z" />
    <glyph glyph-name="onehalf" unicode="&#xbd;" horiz-adv-x="744" 
d="M192 700v-350h-48v280h-10l-66 -86h-50v10l115 146h59zM552 708l43 -32l-196 -243l-32 24zM68 -8l-43 32l196 243l32 -24zM644 331.5q42 -32.5 42 -86.5q0 -52 -32.5 -79t-99.5 -43q-63 -15 -92.5 -33.5t-35.5 -47.5h258v-42h-308v22q0 103 144 136q64 15 91 33.5
t27 53.5q0 34 -28 55.5t-74 21.5q-52 0 -81.5 -26t-30.5 -74h-48q1 66 45.5 104t114.5 38q66 0 108 -32.5z" />
    <glyph glyph-name="threequarters" unicode="&#xbe;" horiz-adv-x="820" 
d="M340 666l-132 -92v-10q59 -2 96.5 -29t37.5 -78q0 -53 -45.5 -87t-111.5 -34q-73 0 -117 35.5t-44 96.5h48q0 -43 30.5 -66.5t81.5 -23.5q49 0 79.5 21.5t30.5 57.5q0 33 -28.5 52t-81.5 19h-58v36l130 94h-224v42h308v-34zM650 708l43 -32l-196 -243l-32 24zM166 -8
l-43 32l196 243l32 -24zM707 350v-218h87v-42h-87v-90h-48v90h-225v38l203 222h70zM494 132h165v168h-10z" />
    <glyph glyph-name="questiondown" unicode="&#xbf;" 
d="M279.5 494q15.5 16 39.5 16t39.5 -16t15.5 -39t-15.5 -39t-39.5 -16t-39.5 16t-15.5 39t15.5 39zM483.5 -159.5q-66.5 -54.5 -176.5 -54.5q-70 0 -124.5 25t-84.5 68.5t-30 97.5v8q0 73 40.5 119t112.5 76l34 14q21 9 29 23t8 41v68h54v-66q0 -46 -13 -69t-56 -41
l-34 -14q-62 -26 -91.5 -60t-29.5 -95q0 -69 53 -108t132 -39q82 0 135.5 41t53.5 120v43h54v-45q0 -98 -66.5 -152.5z" />
    <glyph glyph-name="Agrave" unicode="&#xc0;" horiz-adv-x="608" 
d="M344 700l244 -700h-59l-65 190h-320l-65 -190h-59l244 700h80zM448 238l-139 405h-10l-139 -405h288zM352 770h-57l-80 110h68z" />
    <glyph glyph-name="Aacute" unicode="&#xc1;" horiz-adv-x="608" 
d="M344 700l244 -700h-59l-65 190h-320l-65 -190h-59l244 700h80zM448 238l-139 405h-10l-139 -405h288zM391 880l-74 -110h-57l59 110h72z" />
    <glyph glyph-name="Acircumflex" unicode="&#xc2;" horiz-adv-x="608" 
d="M344 700l244 -700h-59l-65 190h-320l-65 -190h-59l244 700h80zM448 238l-139 405h-10l-139 -405h288zM309 842h-10l-65 -72h-65l103 110h64l103 -110h-65z" />
    <glyph glyph-name="Atilde" unicode="&#xc3;" horiz-adv-x="608" 
d="M344 700l244 -700h-59l-65 190h-320l-65 -190h-59l244 700h80zM448 238l-139 405h-10l-139 -405h288zM217 875q14 11 37 11q22 0 37.5 -11.5t32.5 -36.5q13 -19 18.5 -24.5t14.5 -5.5t14.5 4.5t12.5 15.5l25 38l36 -24l-24 -37q-12 -19 -26 -30t-37 -11q-22 0 -37.5 11.5
t-32.5 36.5q-13 19 -18.5 24.5t-14.5 5.5t-14.5 -4.5t-12.5 -15.5l-25 -38l-36 24l24 37q12 19 26 30z" />
    <glyph glyph-name="Adieresis" unicode="&#xc4;" horiz-adv-x="608" 
d="M344 700l244 -700h-59l-65 190h-320l-65 -190h-59l244 700h80zM448 238l-139 405h-10l-139 -405h288zM184.5 852.5q14.5 14.5 36.5 14.5t36.5 -14.5t14.5 -36.5t-14.5 -36.5t-36.5 -14.5t-36.5 14.5t-14.5 36.5t14.5 36.5zM350.5 852.5q14.5 14.5 36.5 14.5t36.5 -14.5
t14.5 -36.5t-14.5 -36.5t-36.5 -14.5t-36.5 14.5t-14.5 36.5t14.5 36.5z" />
    <glyph glyph-name="Aring" unicode="&#xc5;" horiz-adv-x="608" 
d="M344 700l244 -700h-59l-65 190h-320l-65 -190h-59l244 700h80zM448 238l-139 405h-10l-139 -405h288zM235.5 903.5q27.5 26.5 68.5 26.5t68.5 -26.5t27.5 -66.5t-27.5 -66.5t-68.5 -26.5t-68.5 26.5t-27.5 66.5t27.5 66.5zM267 800.5q14 -14.5 37 -14.5q22 0 36.5 14.5
t14.5 36.5q0 23 -14.5 37t-36.5 14q-23 0 -37 -14t-14 -37q0 -22 14 -36.5z" />
    <glyph glyph-name="AE" unicode="&#xc6;" horiz-adv-x="688" 
d="M400 48h240v-48h-294v190h-191l-75 -190h-60l280 700h336v-48h-236v-277h212v-48h-212v-279zM346 238v414h-10l-163 -414h173z" />
    <glyph glyph-name="Ccedilla" unicode="&#xc7;" horiz-adv-x="638" 
d="M530 450v14q0 95 -51 148.5t-145 53.5q-103 0 -159.5 -65t-56.5 -182v-138q0 -117 57 -182t159 -65q99 0 147.5 51t48.5 148v17h54v-17q0 -111 -63 -176.5t-173 -70.5l-10 -49h3q18 20 49 20q34 0 56.5 -23t22.5 -61q0 -39 -24.5 -62t-63.5 -23q-72 0 -92 65l44 21
q2 -21 14.5 -33.5t33.5 -12.5q19 0 31.5 12.5t12.5 33.5q0 20 -12.5 32t-31.5 12q-18 0 -34 -13h-58v3l17 79q-115 9 -178.5 86.5t-63.5 209.5v134q0 140 72 218.5t198 78.5q121 0 185.5 -66.5t64.5 -183.5v-14h-54z" />
    <glyph glyph-name="Egrave" unicode="&#xc8;" horiz-adv-x="562" 
d="M510 700v-48h-374v-277h346v-48h-346v-279h378v-48h-432v700h428zM351 770h-57l-80 110h68z" />
    <glyph glyph-name="Eacute" unicode="&#xc9;" horiz-adv-x="562" 
d="M510 700v-48h-374v-277h346v-48h-346v-279h378v-48h-432v700h428zM390 880l-74 -110h-57l59 110h72z" />
    <glyph glyph-name="Ecircumflex" unicode="&#xca;" horiz-adv-x="562" 
d="M510 700v-48h-374v-277h346v-48h-346v-279h378v-48h-432v700h428zM308 842h-10l-65 -72h-65l103 110h64l103 -110h-65z" />
    <glyph glyph-name="Edieresis" unicode="&#xcb;" horiz-adv-x="562" 
d="M510 700v-48h-374v-277h346v-48h-346v-279h378v-48h-432v700h428zM183.5 852.5q14.5 14.5 36.5 14.5t36.5 -14.5t14.5 -36.5t-14.5 -36.5t-36.5 -14.5t-36.5 14.5t-14.5 36.5t14.5 36.5zM349.5 852.5q14.5 14.5 36.5 14.5t36.5 -14.5t14.5 -36.5t-14.5 -36.5t-36.5 -14.5
t-36.5 14.5t-14.5 36.5t14.5 36.5z" />
    <glyph glyph-name="Igrave" unicode="&#xcc;" horiz-adv-x="218" 
d="M136 700v-700h-54v700h54zM157 770h-57l-80 110h68z" />
    <glyph glyph-name="Iacute" unicode="&#xcd;" horiz-adv-x="218" 
d="M136 700v-700h-54v700h54zM196 880l-74 -110h-57l59 110h72z" />
    <glyph glyph-name="Icircumflex" unicode="&#xce;" horiz-adv-x="218" 
d="M136 700v-700h-54v700h54zM114 842h-10l-65 -72h-65l103 110h64l103 -110h-65z" />
    <glyph glyph-name="Idieresis" unicode="&#xcf;" horiz-adv-x="218" 
d="M136 700v-700h-54v700h54zM-10.5 852.5q14.5 14.5 36.5 14.5t36.5 -14.5t14.5 -36.5t-14.5 -36.5t-36.5 -14.5t-36.5 14.5t-14.5 36.5t14.5 36.5zM155.5 852.5q14.5 14.5 36.5 14.5t36.5 -14.5t14.5 -36.5t-14.5 -36.5t-36.5 -14.5t-36.5 14.5t-14.5 36.5t14.5 36.5z" />
    <glyph glyph-name="Eth" unicode="&#xd0;" horiz-adv-x="628" 
d="M489 629q75 -71 75 -216v-126q0 -145 -75 -216t-215 -71h-192v332h-82v44h82v324h192q140 0 215 -71zM510 416q0 122 -60 179t-176 57h-138v-276h144v-44h-144v-284h138q118 0 177 57t59 179v132z" />
    <glyph glyph-name="Ntilde" unicode="&#xd1;" horiz-adv-x="650" 
d="M173 700l331 -639h10v639h54v-700h-91l-331 639h-10v-639h-54v700h91zM243 875q14 11 37 11q22 0 37.5 -11.5t32.5 -36.5q13 -19 18.5 -24.5t14.5 -5.5t14.5 4.5t12.5 15.5l25 38l36 -24l-24 -37q-12 -19 -26 -30t-37 -11q-22 0 -37.5 11.5t-32.5 36.5q-13 19 -18.5 24.5
t-14.5 5.5t-14.5 -4.5t-12.5 -15.5l-25 -38l-36 24l24 37q12 19 26 30z" />
    <glyph glyph-name="Ograve" unicode="&#xd2;" horiz-adv-x="660" 
d="M135 640.5q71 73.5 195 73.5t195 -73.5t71 -212.5v-156q0 -139 -71 -212.5t-195 -73.5t-195 73.5t-71 212.5v156q0 139 71 212.5zM174 96q56 -62 156 -62t156 62t56 172v164q0 110 -56 172t-156 62t-156 -62t-56 -172v-164q0 -110 56 -172zM378 770h-57l-80 110h68z" />
    <glyph glyph-name="Oacute" unicode="&#xd3;" horiz-adv-x="660" 
d="M135 640.5q71 73.5 195 73.5t195 -73.5t71 -212.5v-156q0 -139 -71 -212.5t-195 -73.5t-195 73.5t-71 212.5v156q0 139 71 212.5zM174 96q56 -62 156 -62t156 62t56 172v164q0 110 -56 172t-156 62t-156 -62t-56 -172v-164q0 -110 56 -172zM417 880l-74 -110h-57l59 110
h72z" />
    <glyph glyph-name="Ocircumflex" unicode="&#xd4;" horiz-adv-x="660" 
d="M135 640.5q71 73.5 195 73.5t195 -73.5t71 -212.5v-156q0 -139 -71 -212.5t-195 -73.5t-195 73.5t-71 212.5v156q0 139 71 212.5zM174 96q56 -62 156 -62t156 62t56 172v164q0 110 -56 172t-156 62t-156 -62t-56 -172v-164q0 -110 56 -172zM335 842h-10l-65 -72h-65
l103 110h64l103 -110h-65z" />
    <glyph glyph-name="Otilde" unicode="&#xd5;" horiz-adv-x="660" 
d="M135 640.5q71 73.5 195 73.5t195 -73.5t71 -212.5v-156q0 -139 -71 -212.5t-195 -73.5t-195 73.5t-71 212.5v156q0 139 71 212.5zM174 96q56 -62 156 -62t156 62t56 172v164q0 110 -56 172t-156 62t-156 -62t-56 -172v-164q0 -110 56 -172zM243 875q14 11 37 11
q22 0 37.5 -11.5t32.5 -36.5q13 -19 18.5 -24.5t14.5 -5.5t14.5 4.5t12.5 15.5l25 38l36 -24l-24 -37q-12 -19 -26 -30t-37 -11q-22 0 -37.5 11.5t-32.5 36.5q-13 19 -18.5 24.5t-14.5 5.5t-14.5 -4.5t-12.5 -15.5l-25 -38l-36 24l24 37q12 19 26 30z" />
    <glyph glyph-name="Odieresis" unicode="&#xd6;" horiz-adv-x="660" 
d="M135 640.5q71 73.5 195 73.5t195 -73.5t71 -212.5v-156q0 -139 -71 -212.5t-195 -73.5t-195 73.5t-71 212.5v156q0 139 71 212.5zM174 96q56 -62 156 -62t156 62t56 172v164q0 110 -56 172t-156 62t-156 -62t-56 -172v-164q0 -110 56 -172zM210.5 852.5
q14.5 14.5 36.5 14.5t36.5 -14.5t14.5 -36.5t-14.5 -36.5t-36.5 -14.5t-36.5 14.5t-14.5 36.5t14.5 36.5zM376.5 852.5q14.5 14.5 36.5 14.5t36.5 -14.5t14.5 -36.5t-14.5 -36.5t-36.5 -14.5t-36.5 14.5t-14.5 36.5t14.5 36.5z" />
    <glyph glyph-name="multiply" unicode="&#xd7;" 
d="M155 540l155 -156l155 156l34 -34l-156 -156l156 -156l-34 -34l-155 157l-155 -157l-34 34l156 156l-156 156z" />
    <glyph glyph-name="Oslash" unicode="&#xd8;" horiz-adv-x="660" 
d="M563 586.5q33 -64.5 33 -158.5v-156q0 -139 -71 -212.5t-195 -73.5q-46 0 -88 11l-26 -79l-48 15l27 82q-63 32 -97 97t-34 160v156q0 139 71 212.5t195 73.5q50 0 92 -12l23 68l47 -15l-24 -72q62 -32 95 -96.5zM142 145q24 -52 70 -80l195 590q-36 11 -77 11
q-100 0 -156 -62t-56 -172v-164q0 -71 24 -123zM542 432q0 69 -23 120.5t-67 80.5l-194 -589q30 -10 72 -10q100 0 156 62t56 172v164z" />
    <glyph glyph-name="Ugrave" unicode="&#xd9;" horiz-adv-x="652" 
d="M132 227q0 -96 50.5 -144.5t143.5 -48.5t143.5 48.5t50.5 144.5v473h54v-473q0 -120 -67 -180.5t-181 -60.5t-181 60.5t-67 180.5v473h54v-473zM374 770h-57l-80 110h68z" />
    <glyph glyph-name="Uacute" unicode="&#xda;" horiz-adv-x="652" 
d="M132 227q0 -96 50.5 -144.5t143.5 -48.5t143.5 48.5t50.5 144.5v473h54v-473q0 -120 -67 -180.5t-181 -60.5t-181 60.5t-67 180.5v473h54v-473zM413 880l-74 -110h-57l59 110h72z" />
    <glyph glyph-name="Ucircumflex" unicode="&#xdb;" horiz-adv-x="652" 
d="M132 227q0 -96 50.5 -144.5t143.5 -48.5t143.5 48.5t50.5 144.5v473h54v-473q0 -120 -67 -180.5t-181 -60.5t-181 60.5t-67 180.5v473h54v-473zM331 842h-10l-65 -72h-65l103 110h64l103 -110h-65z" />
    <glyph glyph-name="Udieresis" unicode="&#xdc;" horiz-adv-x="652" 
d="M132 227q0 -96 50.5 -144.5t143.5 -48.5t143.5 48.5t50.5 144.5v473h54v-473q0 -120 -67 -180.5t-181 -60.5t-181 60.5t-67 180.5v473h54v-473zM206.5 852.5q14.5 14.5 36.5 14.5t36.5 -14.5t14.5 -36.5t-14.5 -36.5t-36.5 -14.5t-36.5 14.5t-14.5 36.5t14.5 36.5z
M372.5 852.5q14.5 14.5 36.5 14.5t36.5 -14.5t14.5 -36.5t-14.5 -36.5t-36.5 -14.5t-36.5 14.5t-14.5 36.5t14.5 36.5z" />
    <glyph glyph-name="Yacute" unicode="&#xdd;" 
d="M93 700l212 -359h10l212 359h65l-255 -419v-281h-54v281l-255 419h65zM397 880l-74 -110h-57l59 110h72z" />
    <glyph glyph-name="Thorn" unicode="&#xde;" horiz-adv-x="588" 
d="M136 561h200q62 0 111.5 -24t78 -69.5t28.5 -107.5t-28.5 -107.5t-78 -69.5t-111.5 -24h-200v-159h-54v700h54v-139zM330 207q81 0 125.5 40t44.5 113t-44.5 113t-125.5 40h-194v-306h194z" />
    <glyph glyph-name="germandbls" unicode="&#xdf;" horiz-adv-x="599" 
d="M106.5 590q30.5 60 85 92t124.5 32q54 0 95.5 -20t64 -53.5t22.5 -73.5q0 -58 -33 -94t-95 -69q-18 -10 -25.5 -19.5t-7.5 -21.5q0 -24 34 -39l46 -22q51 -24 80 -42.5t49.5 -48.5t20.5 -74q0 -70 -50 -110.5t-133 -40.5t-139 42.5t-70 122.5l49 10q11 -66 53 -97.5
t107 -31.5q63 0 98 27t35 78q0 32 -17.5 54.5t-42.5 37.5t-69 36l-35 17q-66 32 -66 81q0 30 17 48.5t51 36.5q44 23 68.5 50.5t24.5 68.5q0 47 -37.5 74t-94.5 27q-47 0 -90.5 -22.5t-71.5 -71t-28 -122.5v-452h-50v448q0 82 30.5 142z" />
    <glyph glyph-name="agrave" unicode="&#xe0;" horiz-adv-x="536" 
d="M133.5 455.5q52.5 42.5 137.5 42.5q90 0 139.5 -48t49.5 -132v-318h-48v77h-10q-25 -42 -65.5 -66.5t-108.5 -24.5q-79 0 -129.5 40t-50.5 110q0 69 49.5 105.5t128.5 36.5h184v42q0 63 -36 97.5t-103 34.5q-65 0 -105.5 -32.5t-54.5 -89.5l-49 14q19 69 71.5 111.5z
M135 58.5q37 -28.5 95 -28.5q82 0 131 50.5t49 139.5v14h-184q-57 0 -92.5 -25t-35.5 -73q0 -49 37 -77.5zM309 570h-56l-81 130h65z" />
    <glyph glyph-name="aacute" unicode="&#xe1;" horiz-adv-x="536" 
d="M133.5 455.5q52.5 42.5 137.5 42.5q90 0 139.5 -48t49.5 -132v-318h-48v77h-10q-25 -42 -65.5 -66.5t-108.5 -24.5q-79 0 -129.5 40t-50.5 110q0 69 49.5 105.5t128.5 36.5h184v42q0 63 -36 97.5t-103 34.5q-65 0 -105.5 -32.5t-54.5 -89.5l-49 14q19 69 71.5 111.5z
M135 58.5q37 -28.5 95 -28.5q82 0 131 50.5t49 139.5v14h-184q-57 0 -92.5 -25t-35.5 -73q0 -49 37 -77.5zM348 700l-71 -130h-56l58 130h69z" />
    <glyph glyph-name="acircumflex" unicode="&#xe2;" horiz-adv-x="536" 
d="M133.5 455.5q52.5 42.5 137.5 42.5q90 0 139.5 -48t49.5 -132v-318h-48v77h-10q-25 -42 -65.5 -66.5t-108.5 -24.5q-79 0 -129.5 40t-50.5 110q0 69 49.5 105.5t128.5 36.5h184v42q0 63 -36 97.5t-103 34.5q-65 0 -105.5 -32.5t-54.5 -89.5l-49 14q19 69 71.5 111.5z
M135 58.5q37 -28.5 95 -28.5q82 0 131 50.5t49 139.5v14h-184q-57 0 -92.5 -25t-35.5 -73q0 -49 37 -77.5zM267 660h-10l-69 -90h-61l102 130h66l102 -130h-61z" />
    <glyph glyph-name="atilde" unicode="&#xe3;" horiz-adv-x="536" 
d="M133.5 455.5q52.5 42.5 137.5 42.5q90 0 139.5 -48t49.5 -132v-318h-48v77h-10q-25 -42 -65.5 -66.5t-108.5 -24.5q-79 0 -129.5 40t-50.5 110q0 69 49.5 105.5t128.5 36.5h184v42q0 63 -36 97.5t-103 34.5q-65 0 -105.5 -32.5t-54.5 -89.5l-49 14q19 69 71.5 111.5z
M135 58.5q37 -28.5 95 -28.5q82 0 131 50.5t49 139.5v14h-184q-57 0 -92.5 -25t-35.5 -73q0 -49 37 -77.5zM172.5 689q15.5 11 39.5 11q22 0 36 -11.5t32 -40.5q13 -21 19.5 -27.5t15.5 -6.5t14 4.5t13 15.5l33 48l36 -24l-32 -47q-12 -19 -27.5 -30t-39.5 -11
q-22 0 -36 11.5t-32 40.5q-13 21 -19.5 27.5t-15.5 6.5t-14 -4.5t-13 -15.5l-33 -48l-36 24l32 47q12 19 27.5 30z" />
    <glyph glyph-name="adieresis" unicode="&#xe4;" horiz-adv-x="536" 
d="M133.5 455.5q52.5 42.5 137.5 42.5q90 0 139.5 -48t49.5 -132v-318h-48v77h-10q-25 -42 -65.5 -66.5t-108.5 -24.5q-79 0 -129.5 40t-50.5 110q0 69 49.5 105.5t128.5 36.5h184v42q0 63 -36 97.5t-103 34.5q-65 0 -105.5 -32.5t-54.5 -89.5l-49 14q19 69 71.5 111.5z
M135 58.5q37 -28.5 95 -28.5q82 0 131 50.5t49 139.5v14h-184q-57 0 -92.5 -25t-35.5 -73q0 -49 37 -77.5zM145.5 677.5q14.5 14.5 36.5 14.5t36.5 -14.5t14.5 -36.5t-14.5 -36.5t-36.5 -14.5t-36.5 14.5t-14.5 36.5t14.5 36.5zM305.5 677.5q14.5 14.5 36.5 14.5t36.5 -14.5
t14.5 -36.5t-14.5 -36.5t-36.5 -14.5t-36.5 14.5t-14.5 36.5t14.5 36.5z" />
    <glyph glyph-name="aring" unicode="&#xe5;" horiz-adv-x="536" 
d="M133.5 455.5q52.5 42.5 137.5 42.5q90 0 139.5 -48t49.5 -132v-318h-48v77h-10q-25 -42 -65.5 -66.5t-108.5 -24.5q-79 0 -129.5 40t-50.5 110q0 69 49.5 105.5t128.5 36.5h184v42q0 63 -36 97.5t-103 34.5q-65 0 -105.5 -32.5t-54.5 -89.5l-49 14q19 69 71.5 111.5z
M135 58.5q37 -28.5 95 -28.5q82 0 131 50.5t49 139.5v14h-184q-57 0 -92.5 -25t-35.5 -73q0 -49 37 -77.5zM193.5 705.5q27.5 26.5 68.5 26.5t68.5 -26.5t27.5 -66.5t-27.5 -66.5t-68.5 -26.5t-68.5 26.5t-27.5 66.5t27.5 66.5zM225 602.5q14 -14.5 37 -14.5q22 0 36.5 14.5
t14.5 36.5q0 23 -14.5 37t-36.5 14q-23 0 -37 -14t-14 -37q0 -22 14 -36.5z" />
    <glyph glyph-name="ae" unicode="&#xe6;" horiz-adv-x="931" 
d="M885 231h-409q5 -93 57 -146t136 -53q62 0 99.5 30t60.5 82l46 -22q-31 -63 -78 -99.5t-128 -36.5q-73 0 -127.5 34.5t-83.5 94.5h-11q-22 -58 -72.5 -93.5t-132.5 -35.5q-87 0 -140.5 39t-53.5 109q0 69 51.5 105t134.5 36h190v45q0 62 -39 97t-107 35q-67 0 -109.5 -32
t-57.5 -88l-49 14q18 67 73.5 109.5t142.5 42.5q68 0 115 -28.5t65 -79.5h9q31 50 81 79t112 29q66 0 117 -28t79.5 -81t28.5 -126v-32zM833 275q-3 85 -49.5 131t-123.5 46q-75 0 -125 -47.5t-59 -129.5h357zM424 231h-190q-60 0 -98 -25t-38 -72q0 -48 40.5 -76t103.5 -28
q82 0 132 50.5t50 139.5v11z" />
    <glyph glyph-name="ccedilla" unicode="&#xe7;" horiz-adv-x="574" 
d="M459 42.5q-55 -51.5 -141 -56.5l-10 -49h3q18 20 49 20q34 0 56.5 -23t22.5 -61q0 -39 -24.5 -62t-63.5 -23q-72 0 -92 65l44 21q2 -21 14.5 -33.5t33.5 -12.5q19 0 31.5 12.5t12.5 33.5q0 20 -12.5 32t-31.5 12q-18 0 -34 -13h-58v3l17 79q-64 6 -115.5 40t-81 90
t-29.5 125q0 74 33 132t90.5 91t126.5 33q61 0 109.5 -25t78.5 -66.5t37 -91.5l-50 -10q-8 66 -55.5 106.5t-119.5 40.5q-56 0 -101 -27t-71 -75t-26 -108t26 -107.5t71.5 -75t101.5 -27.5q75 0 120 40.5t57 107.5l50 -10q-14 -76 -69 -127.5z" />
    <glyph glyph-name="egrave" unicode="&#xe8;" horiz-adv-x="569" 
d="M81.5 374.5q31.5 57.5 87 90.5t123.5 33q67 0 119.5 -28t82 -81.5t29.5 -125.5v-32h-421q5 -92 58.5 -145.5t138.5 -53.5q66 0 106 30t63 82l48 -19q-30 -62 -79.5 -100.5t-137.5 -38.5q-74 0 -130.5 34t-87.5 93.5t-31 132.5q0 71 31.5 128.5zM419.5 406
q-48.5 46 -127.5 46q-77 0 -129 -47.5t-61 -129.5h369q-3 85 -51.5 131zM339 570h-56l-81 130h65z" />
    <glyph glyph-name="eacute" unicode="&#xe9;" horiz-adv-x="569" 
d="M81.5 374.5q31.5 57.5 87 90.5t123.5 33q67 0 119.5 -28t82 -81.5t29.5 -125.5v-32h-421q5 -92 58.5 -145.5t138.5 -53.5q66 0 106 30t63 82l48 -19q-30 -62 -79.5 -100.5t-137.5 -38.5q-74 0 -130.5 34t-87.5 93.5t-31 132.5q0 71 31.5 128.5zM419.5 406
q-48.5 46 -127.5 46q-77 0 -129 -47.5t-61 -129.5h369q-3 85 -51.5 131zM378 700l-71 -130h-56l58 130h69z" />
    <glyph glyph-name="ecircumflex" unicode="&#xea;" horiz-adv-x="569" 
d="M81.5 374.5q31.5 57.5 87 90.5t123.5 33q67 0 119.5 -28t82 -81.5t29.5 -125.5v-32h-421q5 -92 58.5 -145.5t138.5 -53.5q66 0 106 30t63 82l48 -19q-30 -62 -79.5 -100.5t-137.5 -38.5q-74 0 -130.5 34t-87.5 93.5t-31 132.5q0 71 31.5 128.5zM419.5 406
q-48.5 46 -127.5 46q-77 0 -129 -47.5t-61 -129.5h369q-3 85 -51.5 131zM297 660h-10l-69 -90h-61l102 130h66l102 -130h-61z" />
    <glyph glyph-name="edieresis" unicode="&#xeb;" horiz-adv-x="569" 
d="M81.5 374.5q31.5 57.5 87 90.5t123.5 33q67 0 119.5 -28t82 -81.5t29.5 -125.5v-32h-421q5 -92 58.5 -145.5t138.5 -53.5q66 0 106 30t63 82l48 -19q-30 -62 -79.5 -100.5t-137.5 -38.5q-74 0 -130.5 34t-87.5 93.5t-31 132.5q0 71 31.5 128.5zM419.5 406
q-48.5 46 -127.5 46q-77 0 -129 -47.5t-61 -129.5h369q-3 85 -51.5 131zM175.5 677.5q14.5 14.5 36.5 14.5t36.5 -14.5t14.5 -36.5t-14.5 -36.5t-36.5 -14.5t-36.5 14.5t-14.5 36.5t14.5 36.5zM335.5 677.5q14.5 14.5 36.5 14.5t36.5 -14.5t14.5 -36.5t-14.5 -36.5
t-36.5 -14.5t-36.5 14.5t-14.5 36.5t14.5 36.5z" />
    <glyph glyph-name="igrave" unicode="&#xec;" horiz-adv-x="214" 
d="M132 0h-50v484h50v-484zM154 570h-56l-81 130h65z" />
    <glyph glyph-name="iacute" unicode="&#xed;" horiz-adv-x="214" 
d="M132 0h-50v484h50v-484zM193 700l-71 -130h-56l58 130h69z" />
    <glyph glyph-name="icircumflex" unicode="&#xee;" horiz-adv-x="214" 
d="M132 0h-50v484h50v-484zM112 660h-10l-69 -90h-61l102 130h66l102 -130h-61z" />
    <glyph glyph-name="idieresis" unicode="&#xef;" horiz-adv-x="214" 
d="M132 0h-50v484h50v-484zM-9.5 677.5q14.5 14.5 36.5 14.5t36.5 -14.5t14.5 -36.5t-14.5 -36.5t-36.5 -14.5t-36.5 14.5t-14.5 36.5t14.5 36.5zM150.5 677.5q14.5 14.5 36.5 14.5t36.5 -14.5t14.5 -36.5t-14.5 -36.5t-36.5 -14.5t-36.5 14.5t-14.5 36.5t14.5 36.5z" />
    <glyph glyph-name="eth" unicode="&#xf0;" horiz-adv-x="593" 
d="M538 247q0 -78 -30 -137t-85.5 -91.5t-128.5 -32.5t-128.5 32.5t-85.5 91t-30 132.5t30 132t84 91t124 33q110 0 168 -80h10q-31 125 -149 191l-32 -60l-37 19l32 60q-55 23 -119 34l8 43q71 -12 131 -38l32 59l37 -19l-31 -59q200 -111 200 -401zM396 59q44 27 68 74.5
t24 108.5q0 62 -24 109.5t-68 74t-102 26.5t-102 -27.5t-68 -75t-24 -107.5q0 -96 52.5 -153t141.5 -57q58 0 102 27z" />
    <glyph glyph-name="ntilde" unicode="&#xf1;" horiz-adv-x="594" 
d="M130 398h10q52 96 184 96q53 0 97 -22t70.5 -66.5t26.5 -109.5v-296h-50v292q0 80 -40.5 118t-113.5 38q-81 0 -131.5 -53t-50.5 -153v-242h-50v484h48v-86zM211.5 689q15.5 11 39.5 11q22 0 36 -11.5t32 -40.5q13 -21 19.5 -27.5t15.5 -6.5t14 4.5t13 15.5l33 48l36 -24
l-32 -47q-12 -19 -27.5 -30t-39.5 -11q-22 0 -36 11.5t-32 40.5q-13 21 -19.5 27.5t-15.5 6.5t-14 -4.5t-13 -15.5l-33 -48l-36 24l32 47q12 19 27.5 30z" />
    <glyph glyph-name="ograve" unicode="&#xf2;" horiz-adv-x="588" 
d="M80 374.5q30 58.5 85.5 91t128.5 32.5t128.5 -32.5t85.5 -91t30 -132.5t-30 -132.5t-85.5 -91t-128.5 -32.5t-128.5 32.5t-85.5 91t-30 132.5t30 132.5zM152.5 89q52.5 -57 141.5 -57q58 0 102 27t68 74.5t24 108.5q0 62 -24 109.5t-68 74t-102 26.5t-102 -27.5t-68 -75
t-24 -107.5q0 -96 52.5 -153zM341 570h-56l-81 130h65z" />
    <glyph glyph-name="oacute" unicode="&#xf3;" horiz-adv-x="588" 
d="M80 374.5q30 58.5 85.5 91t128.5 32.5t128.5 -32.5t85.5 -91t30 -132.5t-30 -132.5t-85.5 -91t-128.5 -32.5t-128.5 32.5t-85.5 91t-30 132.5t30 132.5zM152.5 89q52.5 -57 141.5 -57q58 0 102 27t68 74.5t24 108.5q0 62 -24 109.5t-68 74t-102 26.5t-102 -27.5t-68 -75
t-24 -107.5q0 -96 52.5 -153zM380 700l-71 -130h-56l58 130h69z" />
    <glyph glyph-name="ocircumflex" unicode="&#xf4;" horiz-adv-x="588" 
d="M80 374.5q30 58.5 85.5 91t128.5 32.5t128.5 -32.5t85.5 -91t30 -132.5t-30 -132.5t-85.5 -91t-128.5 -32.5t-128.5 32.5t-85.5 91t-30 132.5t30 132.5zM152.5 89q52.5 -57 141.5 -57q58 0 102 27t68 74.5t24 108.5q0 62 -24 109.5t-68 74t-102 26.5t-102 -27.5t-68 -75
t-24 -107.5q0 -96 52.5 -153zM299 660h-10l-69 -90h-61l102 130h66l102 -130h-61z" />
    <glyph glyph-name="otilde" unicode="&#xf5;" horiz-adv-x="588" 
d="M80 374.5q30 58.5 85.5 91t128.5 32.5t128.5 -32.5t85.5 -91t30 -132.5t-30 -132.5t-85.5 -91t-128.5 -32.5t-128.5 32.5t-85.5 91t-30 132.5t30 132.5zM152.5 89q52.5 -57 141.5 -57q58 0 102 27t68 74.5t24 108.5q0 62 -24 109.5t-68 74t-102 26.5t-102 -27.5t-68 -75
t-24 -107.5q0 -96 52.5 -153zM204.5 689q15.5 11 39.5 11q22 0 36 -11.5t32 -40.5q13 -21 19.5 -27.5t15.5 -6.5t14 4.5t13 15.5l33 48l36 -24l-32 -47q-12 -19 -27.5 -30t-39.5 -11q-22 0 -36 11.5t-32 40.5q-13 21 -19.5 27.5t-15.5 6.5t-14 -4.5t-13 -15.5l-33 -48
l-36 24l32 47q12 19 27.5 30z" />
    <glyph glyph-name="odieresis" unicode="&#xf6;" horiz-adv-x="588" 
d="M80 374.5q30 58.5 85.5 91t128.5 32.5t128.5 -32.5t85.5 -91t30 -132.5t-30 -132.5t-85.5 -91t-128.5 -32.5t-128.5 32.5t-85.5 91t-30 132.5t30 132.5zM152.5 89q52.5 -57 141.5 -57q58 0 102 27t68 74.5t24 108.5q0 62 -24 109.5t-68 74t-102 26.5t-102 -27.5t-68 -75
t-24 -107.5q0 -96 52.5 -153zM177.5 677.5q14.5 14.5 36.5 14.5t36.5 -14.5t14.5 -36.5t-14.5 -36.5t-36.5 -14.5t-36.5 14.5t-14.5 36.5t14.5 36.5zM337.5 677.5q14.5 14.5 36.5 14.5t36.5 -14.5t14.5 -36.5t-14.5 -36.5t-36.5 -14.5t-36.5 14.5t-14.5 36.5t14.5 36.5z" />
    <glyph glyph-name="divide" unicode="&#xf7;" 
d="M266.5 544.5q17.5 17.5 43.5 17.5q25 0 43 -17.5t18 -43.5q0 -25 -17.5 -42.5t-43.5 -17.5q-25 0 -43 17t-18 43t17.5 43.5zM519 374v-48h-418v48h418zM266.5 242q17.5 17 43.5 17q25 0 43 -17t18 -43t-17.5 -43.5t-43.5 -17.5q-25 0 -43 17t-18 44q0 26 17.5 43z" />
    <glyph glyph-name="oslash" unicode="&#xf8;" horiz-adv-x="588" 
d="M511 367q27 -56 27 -125q0 -74 -30 -132.5t-85.5 -91t-128.5 -32.5q-52 0 -100 19l-28 -52l-42 21l29 53q-49 33 -76 89t-27 126q0 74 30 132.5t85.5 91t128.5 32.5q53 0 102 -19l24 45l41 -21l-25 -47q48 -33 75 -89zM119.5 140.5q19.5 -44.5 55.5 -71.5l198 368
q-34 15 -79 15q-58 0 -102 -27.5t-68 -75t-24 -107.5q0 -57 19.5 -101.5zM396 59q44 27 68 74.5t24 108.5q0 55 -19.5 99.5t-55.5 72.5l-197 -368q36 -14 78 -14q58 0 102 27z" />
    <glyph glyph-name="ugrave" unicode="&#xf9;" horiz-adv-x="594" 
d="M464 86h-10q-52 -96 -184 -96q-53 0 -97 22t-70.5 66.5t-26.5 109.5v296h50v-292q0 -80 40.5 -118t113.5 -38q81 0 131.5 53t50.5 153v242h50v-484h-48v86zM343 570h-56l-81 130h65z" />
    <glyph glyph-name="uacute" unicode="&#xfa;" horiz-adv-x="594" 
d="M464 86h-10q-52 -96 -184 -96q-53 0 -97 22t-70.5 66.5t-26.5 109.5v296h50v-292q0 -80 40.5 -118t113.5 -38q81 0 131.5 53t50.5 153v242h50v-484h-48v86zM382 700l-71 -130h-56l58 130h69z" />
    <glyph glyph-name="ucircumflex" unicode="&#xfb;" horiz-adv-x="594" 
d="M464 86h-10q-52 -96 -184 -96q-53 0 -97 22t-70.5 66.5t-26.5 109.5v296h50v-292q0 -80 40.5 -118t113.5 -38q81 0 131.5 53t50.5 153v242h50v-484h-48v86zM301 660h-10l-69 -90h-61l102 130h66l102 -130h-61z" />
    <glyph glyph-name="udieresis" unicode="&#xfc;" horiz-adv-x="594" 
d="M464 86h-10q-52 -96 -184 -96q-53 0 -97 22t-70.5 66.5t-26.5 109.5v296h50v-292q0 -80 40.5 -118t113.5 -38q81 0 131.5 53t50.5 153v242h50v-484h-48v86zM179.5 677.5q14.5 14.5 36.5 14.5t36.5 -14.5t14.5 -36.5t-14.5 -36.5t-36.5 -14.5t-36.5 14.5t-14.5 36.5
t14.5 36.5zM339.5 677.5q14.5 14.5 36.5 14.5t36.5 -14.5t14.5 -36.5t-14.5 -36.5t-36.5 -14.5t-36.5 14.5t-14.5 36.5t14.5 36.5z" />
    <glyph glyph-name="yacute" unicode="&#xfd;" horiz-adv-x="548" 
d="M459 484h57l-304 -684h-56l92 197l-216 487h57l180 -420h10zM360 700l-71 -130h-56l58 130h69z" />
    <glyph glyph-name="thorn" unicode="&#xfe;" 
d="M132 700v-307h10q25 46 71.5 75.5t122.5 29.5q66 0 119.5 -32t84 -90t30.5 -134t-30.5 -134t-84 -90t-119.5 -32q-76 0 -122.5 29.5t-71.5 75.5h-10v-291h-50v900h50zM465.5 89q52.5 57 52.5 153t-52.5 153t-138.5 57q-57 0 -101 -26t-69 -73.5t-25 -110.5t25 -110.5
t69 -73.5t101 -26q86 0 138.5 57z" />
    <glyph glyph-name="ydieresis" unicode="&#xff;" horiz-adv-x="548" 
d="M459 484h57l-304 -684h-56l92 197l-216 487h57l180 -420h10zM157.5 677.5q14.5 14.5 36.5 14.5t36.5 -14.5t14.5 -36.5t-14.5 -36.5t-36.5 -14.5t-36.5 14.5t-14.5 36.5t14.5 36.5zM317.5 677.5q14.5 14.5 36.5 14.5t36.5 -14.5t14.5 -36.5t-14.5 -36.5t-36.5 -14.5
t-36.5 14.5t-14.5 36.5t14.5 36.5z" />
    <glyph glyph-name="Amacron" unicode="&#x100;" horiz-adv-x="608" 
d="M344 700l244 -700h-59l-65 190h-320l-65 -190h-59l244 700h80zM448 238l-139 405h-10l-139 -405h288zM442 770h-275v44h275v-44z" />
    <glyph glyph-name="amacron" unicode="&#x101;" horiz-adv-x="536" 
d="M133.5 455.5q52.5 42.5 137.5 42.5q90 0 139.5 -48t49.5 -132v-318h-48v77h-10q-25 -42 -65.5 -66.5t-108.5 -24.5q-79 0 -129.5 40t-50.5 110q0 69 49.5 105.5t128.5 36.5h184v42q0 63 -36 97.5t-103 34.5q-65 0 -105.5 -32.5t-54.5 -89.5l-49 14q19 69 71.5 111.5z
M135 58.5q37 -28.5 95 -28.5q82 0 131 50.5t49 139.5v14h-184q-57 0 -92.5 -25t-35.5 -73q0 -49 37 -77.5zM400 570h-275v44h275v-44z" />
    <glyph glyph-name="Abreve" unicode="&#x102;" horiz-adv-x="608" 
d="M344 700l244 -700h-59l-65 190h-320l-65 -190h-59l244 700h80zM448 238l-139 405h-10l-139 -405h288zM413 868q0 -48 -30.5 -76t-78.5 -28t-78.5 28t-30.5 76v12h48v-6q0 -28 16 -45t45 -17t45 17t16 45v6h48v-12z" />
    <glyph glyph-name="abreve" unicode="&#x103;" horiz-adv-x="536" 
d="M133.5 455.5q52.5 42.5 137.5 42.5q90 0 139.5 -48t49.5 -132v-318h-48v77h-10q-25 -42 -65.5 -66.5t-108.5 -24.5q-79 0 -129.5 40t-50.5 110q0 69 49.5 105.5t128.5 36.5h184v42q0 63 -36 97.5t-103 34.5q-65 0 -105.5 -32.5t-54.5 -89.5l-49 14q19 69 71.5 111.5z
M135 58.5q37 -28.5 95 -28.5q82 0 131 50.5t49 139.5v14h-184q-57 0 -92.5 -25t-35.5 -73q0 -49 37 -77.5zM371 672q0 -50 -30 -79t-79 -29t-79 29t-30 79v28h48v-24q0 -29 16 -46.5t45 -17.5t45 17.5t16 46.5v24h48v-28z" />
    <glyph glyph-name="Aogonek" unicode="&#x104;" horiz-adv-x="608" 
d="M627 -115v-46h-44q-32 0 -49 16t-17 47q0 16 3.5 33.5l4.5 22.5l8 42h-4l-65 190h-320l-65 -190h-59l244 700h80l244 -700h-7l-13 -70q-3 -20 -3 -26q0 -19 21 -19h41zM160 238h288l-139 405h-10z" />
    <glyph glyph-name="aogonek" unicode="&#x105;" horiz-adv-x="536" 
d="M506 -115v-46h-44q-32 0 -49 16t-17 47q0 16 3.5 33.5l4.5 22.5l8 43v76h-10q-25 -42 -65.5 -66.5t-108.5 -24.5q-79 0 -129.5 40t-50.5 110q0 69 49.5 105.5t128.5 36.5h184v42q0 63 -36 97.5t-103 34.5q-65 0 -105.5 -32.5t-54.5 -89.5l-49 14q19 69 71.5 111.5
t137.5 42.5q90 0 139.5 -48t49.5 -132v-318l-13 -70q-3 -20 -3 -26q0 -19 21 -19h41zM410 234h-184q-57 0 -92.5 -25t-35.5 -73q0 -49 37 -77.5t95 -28.5q82 0 131 50.5t49 139.5v14z" />
    <glyph glyph-name="Cacute" unicode="&#x106;" horiz-adv-x="638" 
d="M136 635.5q72 78.5 198 78.5q121 0 185.5 -66.5t64.5 -183.5v-14h-54v14q0 95 -51 148.5t-145 53.5q-103 0 -159.5 -65t-56.5 -182v-138q0 -117 57 -182t159 -65q99 0 147.5 51t48.5 148v17h54v-17q0 -115 -67 -181t-183 -66q-128 0 -199 78t-71 219v134q0 140 72 218.5z
M421 880l-74 -110h-57l59 110h72z" />
    <glyph glyph-name="cacute" unicode="&#x107;" horiz-adv-x="574" 
d="M83 374q33 58 90.5 91t126.5 33q61 0 109.5 -25t78.5 -66.5t37 -91.5l-50 -10q-8 66 -55.5 106.5t-119.5 40.5q-56 0 -101 -27t-71 -75t-26 -108t26 -107.5t71.5 -75t101.5 -27.5q75 0 120 40.5t57 107.5l50 -10q-15 -80 -74.5 -132t-152.5 -52q-70 0 -127.5 33t-90.5 91
t-33 132t33 132zM386 700l-71 -130h-56l58 130h69z" />
    <glyph glyph-name="Cdotaccent" unicode="&#x10a;" horiz-adv-x="638" 
d="M136 635.5q72 78.5 198 78.5q121 0 185.5 -66.5t64.5 -183.5v-14h-54v14q0 95 -51 148.5t-145 53.5q-103 0 -159.5 -65t-56.5 -182v-138q0 -117 57 -182t159 -65q99 0 147.5 51t48.5 148v17h54v-17q0 -115 -67 -181t-183 -66q-128 0 -199 78t-71 219v134q0 140 72 218.5z
M297.5 852.5q14.5 14.5 36.5 14.5t36.5 -14.5t14.5 -36.5t-14.5 -36.5t-36.5 -14.5t-36.5 14.5t-14.5 36.5t14.5 36.5z" />
    <glyph glyph-name="cdotaccent" unicode="&#x10b;" horiz-adv-x="574" 
d="M83 374q33 58 90.5 91t126.5 33q61 0 109.5 -25t78.5 -66.5t37 -91.5l-50 -10q-8 66 -55.5 106.5t-119.5 40.5q-56 0 -101 -27t-71 -75t-26 -108t26 -107.5t71.5 -75t101.5 -27.5q75 0 120 40.5t57 107.5l50 -10q-15 -80 -74.5 -132t-152.5 -52q-70 0 -127.5 33t-90.5 91
t-33 132t33 132zM263.5 677.5q14.5 14.5 36.5 14.5t36.5 -14.5t14.5 -36.5t-14.5 -36.5t-36.5 -14.5t-36.5 14.5t-14.5 36.5t14.5 36.5z" />
    <glyph glyph-name="Ccaron" unicode="&#x10c;" horiz-adv-x="638" 
d="M136 635.5q72 78.5 198 78.5q121 0 185.5 -66.5t64.5 -183.5v-14h-54v14q0 95 -51 148.5t-145 53.5q-103 0 -159.5 -65t-56.5 -182v-138q0 -117 57 -182t159 -65q99 0 147.5 51t48.5 148v17h54v-17q0 -115 -67 -181t-183 -66q-128 0 -199 78t-71 219v134q0 140 72 218.5z
M469 880l-103 -110h-64l-103 110h65l65 -72h10l65 72h65z" />
    <glyph glyph-name="ccaron" unicode="&#x10d;" horiz-adv-x="574" 
d="M83 374q33 58 90.5 91t126.5 33q61 0 109.5 -25t78.5 -66.5t37 -91.5l-50 -10q-8 66 -55.5 106.5t-119.5 40.5q-56 0 -101 -27t-71 -75t-26 -108t26 -107.5t71.5 -75t101.5 -27.5q75 0 120 40.5t57 107.5l50 -10q-15 -80 -74.5 -132t-152.5 -52q-70 0 -127.5 33t-90.5 91
t-33 132t33 132zM435 700l-102 -130h-66l-102 130h61l69 -90h10l69 90h61z" />
    <glyph glyph-name="Dcaron" unicode="&#x10e;" horiz-adv-x="628" 
d="M489 629q75 -71 75 -216v-126q0 -145 -75 -216t-215 -71h-192v700h192q140 0 215 -71zM274 48q118 0 177 57t59 179v132q0 122 -60 179t-176 57h-138v-604h138zM430 880l-103 -110h-64l-103 110h65l65 -72h10l65 72h65z" />
    <glyph glyph-name="dcaron" unicode="&#x10f;" horiz-adv-x="653" 
d="M490 94h-10q-59 -108 -196 -108q-66 0 -119.5 32t-84 90t-30.5 134t30.5 134t84 90t119.5 32q76 0 122.5 -29.5t71.5 -75.5h10v307h50v-700h-48v94zM678 700l-44 -174h-26l11 174h59zM154.5 395q-52.5 -57 -52.5 -153t52.5 -153t138.5 -57q57 0 101 26t69 73.5t25 110.5
t-25 110.5t-69 73.5t-101 26q-86 0 -138.5 -57z" />
    <glyph glyph-name="Dcroat" unicode="&#x110;" horiz-adv-x="628" 
d="M489 629q75 -71 75 -216v-126q0 -145 -75 -216t-215 -71h-192v332h-82v44h82v324h192q140 0 215 -71zM510 416q0 122 -60 179t-176 57h-138v-276h144v-44h-144v-284h138q118 0 177 57t59 179v132z" />
    <glyph glyph-name="dcroat" unicode="&#x111;" 
d="M614 580h-76v-580h-48v94h-10q-59 -108 -196 -108q-66 0 -119.5 32t-84 90t-30.5 134t30.5 134t84 90t119.5 32q76 0 122.5 -29.5t71.5 -75.5h10v187h-150v42h150v78h50v-78h76v-42zM394 58q44 26 69 73.5t25 110.5t-25 110.5t-69 73.5t-101 26q-86 0 -138.5 -57
t-52.5 -153t52.5 -153t138.5 -57q57 0 101 26z" />
    <glyph glyph-name="Emacron" unicode="&#x112;" horiz-adv-x="562" 
d="M510 700v-48h-374v-277h346v-48h-346v-279h378v-48h-432v700h428zM441 770h-275v44h275v-44z" />
    <glyph glyph-name="emacron" unicode="&#x113;" horiz-adv-x="569" 
d="M81.5 374.5q31.5 57.5 87 90.5t123.5 33q67 0 119.5 -28t82 -81.5t29.5 -125.5v-32h-421q5 -92 58.5 -145.5t138.5 -53.5q66 0 106 30t63 82l48 -19q-30 -62 -79.5 -100.5t-137.5 -38.5q-74 0 -130.5 34t-87.5 93.5t-31 132.5q0 71 31.5 128.5zM419.5 406
q-48.5 46 -127.5 46q-77 0 -129 -47.5t-61 -129.5h369q-3 85 -51.5 131zM430 570h-275v44h275v-44z" />
    <glyph glyph-name="Edotaccent" unicode="&#x116;" horiz-adv-x="562" 
d="M510 700v-48h-374v-277h346v-48h-346v-279h378v-48h-432v700h428zM266.5 852.5q14.5 14.5 36.5 14.5t36.5 -14.5t14.5 -36.5t-14.5 -36.5t-36.5 -14.5t-36.5 14.5t-14.5 36.5t14.5 36.5z" />
    <glyph glyph-name="edotaccent" unicode="&#x117;" horiz-adv-x="569" 
d="M81.5 374.5q31.5 57.5 87 90.5t123.5 33q67 0 119.5 -28t82 -81.5t29.5 -125.5v-32h-421q5 -92 58.5 -145.5t138.5 -53.5q66 0 106 30t63 82l48 -19q-30 -62 -79.5 -100.5t-137.5 -38.5q-74 0 -130.5 34t-87.5 93.5t-31 132.5q0 71 31.5 128.5zM419.5 406
q-48.5 46 -127.5 46q-77 0 -129 -47.5t-61 -129.5h369q-3 85 -51.5 131zM255.5 677.5q14.5 14.5 36.5 14.5t36.5 -14.5t14.5 -36.5t-14.5 -36.5t-36.5 -14.5t-36.5 14.5t-14.5 36.5t14.5 36.5z" />
    <glyph glyph-name="Eogonek" unicode="&#x118;" horiz-adv-x="562" 
d="M316 -70q-3 -20 -3 -26q0 -19 21 -19h41v-46h-44q-32 0 -49 16t-17 47q0 16 3.5 33.5l4.5 22.5l8 42h-199v700h428v-48h-374v-277h346v-48h-346v-279h378v-48h-185z" />
    <glyph glyph-name="eogonek" unicode="&#x119;" horiz-adv-x="569" 
d="M523 231h-421q5 -92 58.5 -145.5t138.5 -53.5q66 0 106 30t63 82l48 -19q-29 -60 -75 -97.5t-126 -41.5l-10 -56q-3 -20 -3 -26q0 -19 21 -19h41v-46h-44q-32 0 -49 16t-17 47q0 16 3.5 33.5l4.5 22.5l6 30q-65 7 -114.5 42t-76.5 91.5t-27 124.5q0 71 31.5 128.5
t87 90.5t123.5 33q67 0 119.5 -28t82 -81.5t29.5 -125.5v-32zM471 275q-3 85 -51.5 131t-127.5 46q-77 0 -129 -47.5t-61 -129.5h369z" />
    <glyph glyph-name="Ecaron" unicode="&#x11a;" horiz-adv-x="562" 
d="M510 700v-48h-374v-277h346v-48h-346v-279h378v-48h-432v700h428zM438 880l-103 -110h-64l-103 110h65l65 -72h10l65 72h65z" />
    <glyph glyph-name="ecaron" unicode="&#x11b;" horiz-adv-x="569" 
d="M81.5 374.5q31.5 57.5 87 90.5t123.5 33q67 0 119.5 -28t82 -81.5t29.5 -125.5v-32h-421q5 -92 58.5 -145.5t138.5 -53.5q66 0 106 30t63 82l48 -19q-30 -62 -79.5 -100.5t-137.5 -38.5q-74 0 -130.5 34t-87.5 93.5t-31 132.5q0 71 31.5 128.5zM419.5 406
q-48.5 46 -127.5 46q-77 0 -129 -47.5t-61 -129.5h369q-3 85 -51.5 131zM427 700l-102 -130h-66l-102 130h61l69 -90h10l69 90h61z" />
    <glyph glyph-name="Gbreve" unicode="&#x11e;" horiz-adv-x="644" 
d="M136 635.5q72 78.5 197 78.5q120 0 181.5 -65.5t61.5 -180.5v-7h-54v7q0 93 -48 145.5t-140 52.5q-103 0 -159.5 -65t-56.5 -182v-138q0 -117 56 -182t158 -65q98 0 146 51t48 148v38h-232v48h286v-86q0 -115 -66.5 -181t-181.5 -66q-127 0 -197.5 78t-70.5 218v135
q0 140 72 218.5zM437 868q0 -48 -30.5 -76t-78.5 -28t-78.5 28t-30.5 76v12h48v-6q0 -28 16 -45t45 -17t45 17t16 45v6h48v-12z" />
    <glyph glyph-name="gbreve" unicode="&#x11f;" 
d="M538 484v-461q0 -72 -30 -125.5t-83.5 -82.5t-124.5 -29q-66 0 -115 24t-78 60.5t-41 74.5l46 16q17 -53 63 -91t124 -38q87 0 138 51t51 145v70h-10q-25 -44 -72 -74t-122 -30q-66 0 -119.5 31.5t-84 88.5t-30.5 132t30.5 132t84 88.5t119.5 31.5q137 0 196 -108h10v94
h48zM394 65.5q44 25.5 69 72t25 108.5t-25 108.5t-69 72t-101 25.5q-86 0 -138.5 -55.5t-52.5 -150.5t52.5 -150.5t138.5 -55.5q57 0 101 25.5zM411 672q0 -50 -30 -79t-79 -29t-79 29t-30 79v28h48v-24q0 -29 16 -46.5t45 -17.5t45 17.5t16 46.5v24h48v-28z" />
    <glyph glyph-name="Gdotaccent" unicode="&#x120;" horiz-adv-x="644" 
d="M136 635.5q72 78.5 197 78.5q120 0 181.5 -65.5t61.5 -180.5v-7h-54v7q0 93 -48 145.5t-140 52.5q-103 0 -159.5 -65t-56.5 -182v-138q0 -117 56 -182t158 -65q98 0 146 51t48 148v38h-232v48h286v-86q0 -115 -66.5 -181t-181.5 -66q-127 0 -197.5 78t-70.5 218v135
q0 140 72 218.5zM291.5 852.5q14.5 14.5 36.5 14.5t36.5 -14.5t14.5 -36.5t-14.5 -36.5t-36.5 -14.5t-36.5 14.5t-14.5 36.5t14.5 36.5z" />
    <glyph glyph-name="gdotaccent" unicode="&#x121;" 
d="M538 484v-461q0 -72 -30 -125.5t-83.5 -82.5t-124.5 -29q-66 0 -115 24t-78 60.5t-41 74.5l46 16q17 -53 63 -91t124 -38q87 0 138 51t51 145v70h-10q-25 -44 -72 -74t-122 -30q-66 0 -119.5 31.5t-84 88.5t-30.5 132t30.5 132t84 88.5t119.5 31.5q137 0 196 -108h10v94
h48zM394 65.5q44 25.5 69 72t25 108.5t-25 108.5t-69 72t-101 25.5q-86 0 -138.5 -55.5t-52.5 -150.5t52.5 -150.5t138.5 -55.5q57 0 101 25.5zM265.5 677.5q14.5 14.5 36.5 14.5t36.5 -14.5t14.5 -36.5t-14.5 -36.5t-36.5 -14.5t-36.5 14.5t-14.5 36.5t14.5 36.5z" />
    <glyph glyph-name="uni0122" unicode="&#x122;" horiz-adv-x="644" 
d="M136 635.5q72 78.5 197 78.5q120 0 181.5 -65.5t61.5 -180.5v-7h-54v7q0 93 -48 145.5t-140 52.5q-103 0 -159.5 -65t-56.5 -182v-138q0 -117 56 -182t158 -65q98 0 146 51t48 148v38h-232v48h286v-86q0 -115 -66.5 -181t-181.5 -66q-127 0 -197.5 78t-70.5 218v135
q0 140 72 218.5zM291.5 -65.5q15.5 15.5 39.5 15.5t39.5 -15.5t15.5 -39.5v-76q0 -32 -18.5 -48.5t-50.5 -16.5h-39v36h41q27 0 27 26v28q-6 -2 -17 -2q-23 0 -38 15t-15 38q0 24 15.5 39.5z" />
    <glyph glyph-name="uni0123" unicode="&#x123;" 
d="M538 484v-461q0 -72 -30 -125.5t-83.5 -82.5t-124.5 -29q-66 0 -115 24t-78 60.5t-41 74.5l46 16q17 -53 63 -91t124 -38q87 0 138 51t51 145v70h-10q-25 -44 -72 -74t-122 -30q-66 0 -119.5 31.5t-84 88.5t-30.5 132t30.5 132t84 88.5t119.5 31.5q137 0 196 -108h10v94
h48zM394 65.5q44 25.5 69 72t25 108.5t-25 108.5t-69 72t-101 25.5q-86 0 -138.5 -55.5t-52.5 -150.5t52.5 -150.5t138.5 -55.5q57 0 101 25.5zM341.5 601.5q-15.5 -15.5 -39.5 -15.5t-39.5 15.5t-15.5 39.5v76q0 32 18.5 48.5t50.5 16.5h39v-36h-41q-27 0 -27 -26v-28
q6 2 17 2q22 0 37.5 -15t15.5 -38q0 -24 -15.5 -39.5z" />
    <glyph glyph-name="Hbar" unicode="&#x126;" horiz-adv-x="640" 
d="M620 566v-44h-62v-522h-54v327h-368v-327h-54v522h-62v44h62v134h54v-134h368v134h54v-134h62zM504 375v147h-368v-147h368z" />
    <glyph glyph-name="hbar" unicode="&#x127;" horiz-adv-x="594" 
d="M421 472q44 -22 70.5 -66.5t26.5 -109.5v-296h-50v292q0 80 -40.5 118t-113.5 38q-81 0 -131.5 -53t-50.5 -153v-242h-50v580h-76v42h76v78h50v-78h150v-42h-150v-178h10q55 92 182 92q53 0 97 -22z" />
    <glyph glyph-name="Imacron" unicode="&#x12a;" horiz-adv-x="218" 
d="M136 700v-700h-54v700h54zM247 770h-275v44h275v-44z" />
    <glyph glyph-name="imacron" unicode="&#x12b;" horiz-adv-x="214" 
d="M132 0h-50v484h50v-484zM245 570h-275v44h275v-44z" />
    <glyph glyph-name="Iogonek" unicode="&#x12e;" horiz-adv-x="218" 
d="M179 -115v-46h-44q-32 0 -49 16t-17 47q0 16 3.5 33.5l4.5 22.5l8 42h-3v700h54v-700h-3l-13 -70q-3 -20 -3 -26q0 -19 21 -19h41z" />
    <glyph glyph-name="iogonek" unicode="&#x12f;" horiz-adv-x="214" 
d="M70.5 604.5q-14.5 14.5 -14.5 36.5t14.5 36.5t36.5 14.5t36.5 -14.5t14.5 -36.5t-14.5 -36.5t-36.5 -14.5t-36.5 14.5zM177 -115v-46h-44q-32 0 -49 16t-17 47q0 16 3.5 33.5l4.5 22.5l8 42h-1v484h50v-484h-1l-13 -70q-3 -20 -3 -26q0 -19 21 -19h41z" />
    <glyph glyph-name="Idotaccent" unicode="&#x130;" horiz-adv-x="218" 
d="M136 700v-700h-54v700h54zM72.5 852.5q14.5 14.5 36.5 14.5t36.5 -14.5t14.5 -36.5t-14.5 -36.5t-36.5 -14.5t-36.5 14.5t-14.5 36.5t14.5 36.5z" />
    <glyph glyph-name="dotlessi" unicode="&#x131;" horiz-adv-x="214" 
d="M132 0h-50v484h50v-484z" />
    <glyph glyph-name="IJ" unicode="&#x132;" horiz-adv-x="574" 
d="M132 700v-326h-54v326h54zM496 210q0 -110 -51 -167t-153 -57q-101 0 -157.5 57.5t-56.5 166.5v17h54v-17q0 -80 41 -128t121 -48t114 46.5t34 129.5v490h54v-490z" />
    <glyph glyph-name="ij" unicode="&#x133;" horiz-adv-x="436" 
d="M132 0h-50v484h50v-484zM70.5 677.5q14.5 14.5 36.5 14.5t36.5 -14.5t14.5 -36.5t-14.5 -36.5t-36.5 -14.5t-36.5 14.5t-14.5 36.5t14.5 36.5zM337 -182.5q-17 -17.5 -47 -17.5h-116v44h102q28 0 28 30v610h50v-618q0 -31 -17 -48.5zM292.5 677.5q14.5 14.5 36.5 14.5
t36.5 -14.5t14.5 -36.5t-14.5 -36.5t-36.5 -14.5t-36.5 14.5t-14.5 36.5t14.5 36.5z" />
    <glyph glyph-name="uni0136" unicode="&#x136;" horiz-adv-x="617" 
d="M615 700l-302 -282l297 -418h-69l-267 382l-138 -130v-252h-54v700h54v-370h10l390 370h79zM283.5 -65.5q15.5 15.5 39.5 15.5t39.5 -15.5t15.5 -39.5v-76q0 -32 -18.5 -48.5t-50.5 -16.5h-39v36h41q27 0 27 26v28q-6 -2 -17 -2q-23 0 -38 15t-15 38q0 24 15.5 39.5z" />
    <glyph glyph-name="uni0137" unicode="&#x137;" horiz-adv-x="542" 
d="M516 484l-226 -196l222 -288h-61l-197 256l-122 -106v-150h-50v700h50v-487l307 271h77zM256.5 -65.5q15.5 15.5 39.5 15.5t39.5 -15.5t15.5 -39.5v-76q0 -32 -18.5 -48.5t-50.5 -16.5h-39v36h41q27 0 27 26v28q-6 -2 -17 -2q-23 0 -38 15t-15 38q0 24 15.5 39.5z" />
    <glyph glyph-name="Lacute" unicode="&#x139;" horiz-adv-x="540" 
d="M136 700v-652h382v-48h-436v700h54zM195 880l-74 -110h-57l59 110h72z" />
    <glyph glyph-name="lacute" unicode="&#x13a;" horiz-adv-x="214" 
d="M132 0h-50v700h50v-700zM194 880l-74 -110h-57l59 110h72z" />
    <glyph glyph-name="uni013B" unicode="&#x13b;" horiz-adv-x="540" 
d="M136 700v-652h382v-48h-436v700h54zM272.5 -65.5q15.5 15.5 39.5 15.5t39.5 -15.5t15.5 -39.5v-76q0 -32 -18.5 -48.5t-50.5 -16.5h-39v36h41q27 0 27 26v28q-6 -2 -17 -2q-23 0 -38 15t-15 38q0 24 15.5 39.5z" />
    <glyph glyph-name="uni013C" unicode="&#x13c;" horiz-adv-x="214" 
d="M132 0h-50v700h50v-700zM67.5 -65.5q15.5 15.5 39.5 15.5t39.5 -15.5t15.5 -39.5v-76q0 -32 -18.5 -48.5t-50.5 -16.5h-39v36h41q27 0 27 26v28q-6 -2 -17 -2q-23 0 -38 15t-15 38q0 24 15.5 39.5z" />
    <glyph glyph-name="Lcaron" unicode="&#x13d;" horiz-adv-x="540" 
d="M136 48h382v-48h-436v700h54v-652zM275 700l-44 -174h-26l11 174h59z" />
    <glyph glyph-name="lcaron" unicode="&#x13e;" horiz-adv-x="246" 
d="M82 0v700h50v-700h-50zM271 700l-44 -174h-26l11 174h59z" />
    <glyph glyph-name="Ldot" unicode="&#x13f;" horiz-adv-x="540" 
d="M136 700v-652h382v-48h-436v700h54zM333.5 389q15.5 16 39.5 16t39.5 -16t15.5 -39t-15.5 -39t-39.5 -16t-39.5 16t-15.5 39t15.5 39z" />
    <glyph glyph-name="ldot" unicode="&#x140;" horiz-adv-x="324" 
d="M132 0h-50v700h50v-700zM229.5 303q15.5 16 39.5 16t39.5 -16t15.5 -39t-15.5 -39t-39.5 -16t-39.5 16t-15.5 39t15.5 39z" />
    <glyph glyph-name="Lslash" unicode="&#x141;" 
d="M196 700v-317l66 33l22 -44l-88 -46v-276h364v-50h-420v297l-74 -38l-24 46l98 49v346h56z" />
    <glyph glyph-name="lslash" unicode="&#x142;" horiz-adv-x="292" 
d="M266 354l-95 -48v-306h-50v281l-75 -38l-20 38l95 48v371h50v-346l75 38z" />
    <glyph glyph-name="Nacute" unicode="&#x143;" horiz-adv-x="650" 
d="M173 700l331 -639h10v639h54v-700h-91l-331 639h-10v-639h-54v700h91zM417 880l-74 -110h-57l59 110h72z" />
    <glyph glyph-name="nacute" unicode="&#x144;" horiz-adv-x="594" 
d="M130 398h10q52 96 184 96q53 0 97 -22t70.5 -66.5t26.5 -109.5v-296h-50v292q0 80 -40.5 118t-113.5 38q-81 0 -131.5 -53t-50.5 -153v-242h-50v484h48v-86zM387 700l-71 -130h-56l58 130h69z" />
    <glyph glyph-name="uni0145" unicode="&#x145;" horiz-adv-x="650" 
d="M173 700l331 -639h10v639h54v-700h-91l-331 639h-10v-639h-54v700h91zM288.5 -65.5q15.5 15.5 39.5 15.5t39.5 -15.5t15.5 -39.5v-76q0 -32 -18.5 -48.5t-50.5 -16.5h-39v36h41q27 0 27 26v28q-6 -2 -17 -2q-23 0 -38 15t-15 38q0 24 15.5 39.5z" />
    <glyph glyph-name="uni0146" unicode="&#x146;" horiz-adv-x="594" 
d="M130 398h10q52 96 184 96q53 0 97 -22t70.5 -66.5t26.5 -109.5v-296h-50v292q0 80 -40.5 118t-113.5 38q-81 0 -131.5 -53t-50.5 -153v-242h-50v484h48v-86zM260.5 -65.5q15.5 15.5 39.5 15.5t39.5 -15.5t15.5 -39.5v-76q0 -32 -18.5 -48.5t-50.5 -16.5h-39v36h41
q27 0 27 26v28q-6 -2 -17 -2q-23 0 -38 15t-15 38q0 24 15.5 39.5z" />
    <glyph glyph-name="Ncaron" unicode="&#x147;" horiz-adv-x="650" 
d="M173 700l331 -639h10v639h54v-700h-91l-331 639h-10v-639h-54v700h91zM465 880l-103 -110h-64l-103 110h65l65 -72h10l65 72h65z" />
    <glyph glyph-name="ncaron" unicode="&#x148;" horiz-adv-x="594" 
d="M130 398h10q52 96 184 96q53 0 97 -22t70.5 -66.5t26.5 -109.5v-296h-50v292q0 80 -40.5 118t-113.5 38q-81 0 -131.5 -53t-50.5 -153v-242h-50v484h48v-86zM436 700l-102 -130h-66l-102 130h61l69 -90h10l69 90h61z" />
    <glyph glyph-name="Eng" unicode="&#x14a;" horiz-adv-x="650" 
d="M568 700v-770q0 -65 -30.5 -97.5t-96.5 -32.5h-115v46h122q35 0 50.5 16.5t15.5 49.5v88h-37l-331 639h-10v-639h-54v700h91l331 -639h10v639h54z" />
    <glyph glyph-name="eng" unicode="&#x14b;" horiz-adv-x="594" 
d="M421 472q44 -22 70.5 -66.5t26.5 -109.5v-430q0 -31 -17 -48.5t-47 -17.5h-116v44h102q28 0 28 30v418q0 80 -40.5 118t-113.5 38q-81 0 -131.5 -53t-50.5 -153v-242h-50v484h48v-86h10q52 96 184 96q53 0 97 -22z" />
    <glyph glyph-name="Omacron" unicode="&#x14c;" horiz-adv-x="660" 
d="M135 640.5q71 73.5 195 73.5t195 -73.5t71 -212.5v-156q0 -139 -71 -212.5t-195 -73.5t-195 73.5t-71 212.5v156q0 139 71 212.5zM174 96q56 -62 156 -62t156 62t56 172v164q0 110 -56 172t-156 62t-156 -62t-56 -172v-164q0 -110 56 -172zM468 770h-275v44h275v-44z" />
    <glyph glyph-name="omacron" unicode="&#x14d;" horiz-adv-x="588" 
d="M80 374.5q30 58.5 85.5 91t128.5 32.5t128.5 -32.5t85.5 -91t30 -132.5t-30 -132.5t-85.5 -91t-128.5 -32.5t-128.5 32.5t-85.5 91t-30 132.5t30 132.5zM152.5 89q52.5 -57 141.5 -57q58 0 102 27t68 74.5t24 108.5q0 62 -24 109.5t-68 74t-102 26.5t-102 -27.5t-68 -75
t-24 -107.5q0 -96 52.5 -153zM432 570h-275v44h275v-44z" />
    <glyph glyph-name="Ohungarumlaut" unicode="&#x150;" horiz-adv-x="660" 
d="M135 640.5q71 73.5 195 73.5t195 -73.5t71 -212.5v-156q0 -139 -71 -212.5t-195 -73.5t-195 73.5t-71 212.5v156q0 139 71 212.5zM174 96q56 -62 156 -62t156 62t56 172v164q0 110 -56 172t-156 62t-156 -62t-56 -172v-164q0 -110 56 -172zM360 880l-80 -110h-57l69 110
h68zM470 880l-80 -110h-57l69 110h68z" />
    <glyph glyph-name="ohungarumlaut" unicode="&#x151;" horiz-adv-x="588" 
d="M80 374.5q30 58.5 85.5 91t128.5 32.5t128.5 -32.5t85.5 -91t30 -132.5t-30 -132.5t-85.5 -91t-128.5 -32.5t-128.5 32.5t-85.5 91t-30 132.5t30 132.5zM152.5 89q52.5 -57 141.5 -57q58 0 102 27t68 74.5t24 108.5q0 62 -24 109.5t-68 74t-102 26.5t-102 -27.5t-68 -75
t-24 -107.5q0 -96 52.5 -153zM326 700l-81 -130h-56l72 130h65zM436 700l-81 -130h-56l72 130h65z" />
    <glyph glyph-name="OE" unicode="&#x152;" horiz-adv-x="654" 
d="M606 48v-48h-294q-117 0 -182.5 73.5t-65.5 212.5v128q0 139 65.5 212.5t182.5 73.5h290v-48h-236v-277h212v-48h-212v-279h240zM312 654q-94 0 -144 -61.5t-50 -172.5v-140q0 -111 50 -172.5t144 -61.5v608z" />
    <glyph glyph-name="oe" unicode="&#x153;" horiz-adv-x="1011" 
d="M80 374.5q30 58.5 85.5 91t128.5 32.5q76 0 131.5 -36.5t83.5 -105.5h12q28 69 84.5 105.5t128.5 36.5q67 0 119.5 -28t82 -81.5t29.5 -125.5v-32h-421q5 -92 58.5 -145.5t138.5 -53.5q66 0 106 30t63 82l48 -19q-30 -62 -79.5 -100.5t-137.5 -38.5q-76 0 -133 37
t-87 106h-12q-29 -70 -84.5 -106.5t-130.5 -36.5q-73 0 -128.5 32.5t-85.5 91t-30 132.5t30 132.5zM152.5 89q52.5 -57 141.5 -57q58 0 102 27t68 74.5t24 108.5q0 62 -24 109.5t-68 74t-102 26.5t-102 -27.5t-68 -75t-24 -107.5q0 -96 52.5 -153zM861.5 406
q-48.5 46 -127.5 46q-77 0 -129 -47.5t-61 -129.5h369q-3 85 -51.5 131z" />
    <glyph glyph-name="Racute" unicode="&#x154;" horiz-adv-x="614" 
d="M521.5 367.5q-52.5 -51.5 -136.5 -60.5l169 -307h-64l-164 306h-190v-306h-54v700h274q62 0 111.5 -23.5t78 -68t28.5 -105.5q0 -84 -52.5 -135.5zM136 354h214q81 0 125.5 39t44.5 110t-44.5 110t-125.5 39h-214v-298zM401 880l-74 -110h-57l59 110h72z" />
    <glyph glyph-name="racute" unicode="&#x155;" horiz-adv-x="360" 
d="M140 423q15 33 43.5 48t78.5 15h74v-46h-81q-59 0 -91 -33t-32 -100v-307h-50v484h48v-61h10zM297 700l-71 -130h-56l58 130h69z" />
    <glyph glyph-name="uni0156" unicode="&#x156;" horiz-adv-x="614" 
d="M521.5 367.5q-52.5 -51.5 -136.5 -60.5l169 -307h-64l-164 306h-190v-306h-54v700h274q62 0 111.5 -23.5t78 -68t28.5 -105.5q0 -84 -52.5 -135.5zM136 354h214q81 0 125.5 39t44.5 110t-44.5 110t-125.5 39h-214v-298zM273.5 -65.5q15.5 15.5 39.5 15.5t39.5 -15.5
t15.5 -39.5v-76q0 -32 -18.5 -48.5t-50.5 -16.5h-39v36h41q27 0 27 26v28q-6 -2 -17 -2q-23 0 -38 15t-15 38q0 24 15.5 39.5z" />
    <glyph glyph-name="uni0157" unicode="&#x157;" horiz-adv-x="360" 
d="M140 423q15 33 43.5 48t78.5 15h74v-46h-81q-59 0 -91 -33t-32 -100v-307h-50v484h48v-61h10zM66.5 -65.5q15.5 15.5 39.5 15.5t39.5 -15.5t15.5 -39.5v-76q0 -32 -18.5 -48.5t-50.5 -16.5h-39v36h41q27 0 27 26v28q-6 -2 -17 -2q-23 0 -38 15t-15 38q0 24 15.5 39.5z
" />
    <glyph glyph-name="Rcaron" unicode="&#x158;" horiz-adv-x="614" 
d="M521.5 367.5q-52.5 -51.5 -136.5 -60.5l169 -307h-64l-164 306h-190v-306h-54v700h274q62 0 111.5 -23.5t78 -68t28.5 -105.5q0 -84 -52.5 -135.5zM136 354h214q81 0 125.5 39t44.5 110t-44.5 110t-125.5 39h-214v-298zM449 880l-103 -110h-64l-103 110h65l65 -72h10
l65 72h65z" />
    <glyph glyph-name="rcaron" unicode="&#x159;" horiz-adv-x="360" 
d="M140 423q15 33 43.5 48t78.5 15h74v-46h-81q-59 0 -91 -33t-32 -100v-307h-50v484h48v-61h10zM346 700l-102 -130h-66l-102 130h61l69 -90h10l69 90h61z" />
    <glyph glyph-name="Sacute" unicode="&#x15a;" horiz-adv-x="614" 
d="M434.5 690q55.5 -24 87.5 -71t32 -114v-43h-54v43q0 81 -52.5 121t-137.5 40q-79 0 -128.5 -35.5t-49.5 -99.5q0 -43 18.5 -70t52 -42.5t88.5 -28.5l70 -17q92 -23 143.5 -64.5t51.5 -124.5q0 -59 -30.5 -104t-86.5 -69.5t-129 -24.5q-117 0 -188.5 63.5t-71.5 188.5v6
h54v-6q0 -102 56 -153t150 -51q89 0 140.5 41.5t51.5 108.5q0 61 -41.5 92t-123.5 51l-70 17q-90 22 -139.5 65t-49.5 122q0 55 29.5 96.5t82 64t120.5 22.5q69 0 124.5 -24zM395 880l-74 -110h-57l59 110h72z" />
    <glyph glyph-name="sacute" unicode="&#x15b;" horiz-adv-x="504" 
d="M118 462q48 36 130 36t132.5 -38t63.5 -109l-48 -11q-11 59 -49.5 86.5t-98.5 27.5q-58 0 -93 -23.5t-35 -66.5q0 -72 112 -88l63 -9q78 -11 121.5 -42t43.5 -95q0 -67 -52 -105.5t-140 -38.5q-91 0 -150.5 45t-73.5 139l50 10q22 -150 174 -150q64 0 103 27t39 73
q0 41 -32 62t-94 30l-63 9q-69 10 -110 42.5t-41 90.5q0 62 48 98zM335 700l-71 -130h-56l58 130h69z" />
    <glyph glyph-name="Scedilla" unicode="&#x15e;" horiz-adv-x="614" 
d="M496.5 47q-59.5 -53 -159.5 -60l-10 -50h3q18 20 49 20q34 0 56.5 -23t22.5 -61q0 -39 -24.5 -62t-63.5 -23q-72 0 -92 65l44 21q2 -21 14.5 -33.5t33.5 -12.5q19 0 31.5 12.5t12.5 33.5q0 20 -12.5 32t-31.5 12q-18 0 -34 -13h-58v3l16 78q-111 5 -177.5 68t-66.5 184v6
h54v-6q0 -102 56 -153t150 -51q89 0 140.5 41.5t51.5 108.5q0 61 -41.5 92t-123.5 51l-70 17q-90 22 -139.5 65t-49.5 122q0 55 29.5 96.5t82 64t120.5 22.5q69 0 124.5 -24t87.5 -71t32 -114v-43h-54v43q0 81 -52.5 121t-137.5 40q-79 0 -128.5 -35.5t-49.5 -99.5
q0 -43 18.5 -70t52 -42.5t88.5 -28.5l70 -17q92 -23 143.5 -64.5t51.5 -124.5q0 -84 -59.5 -137z" />
    <glyph glyph-name="scedilla" unicode="&#x15f;" horiz-adv-x="504" 
d="M410.5 26.5q-49.5 -38.5 -133.5 -40.5l-10 -49h3q18 20 49 20q34 0 56.5 -23t22.5 -61q0 -39 -24.5 -62t-63.5 -23q-72 0 -92 65l44 21q2 -21 14.5 -33.5t33.5 -12.5q19 0 31.5 12.5t12.5 33.5q0 20 -12.5 32t-31.5 12q-18 0 -34 -13h-58v3l17 80q-78 7 -128.5 52
t-62.5 130l50 10q20 -137 150 -149v1h42v-1q56 4 90 30t34 69q0 41 -32 62t-94 30l-63 9q-69 10 -110 42.5t-41 90.5q0 62 48 98t130 36t132.5 -38t63.5 -109l-48 -11q-11 59 -49.5 86.5t-98.5 27.5q-58 0 -93 -23.5t-35 -66.5q0 -72 112 -88l63 -9q78 -11 121.5 -42
t43.5 -95q0 -65 -49.5 -103.5z" />
    <glyph glyph-name="Scaron" unicode="&#x160;" horiz-adv-x="614" 
d="M434.5 690q55.5 -24 87.5 -71t32 -114v-43h-54v43q0 81 -52.5 121t-137.5 40q-79 0 -128.5 -35.5t-49.5 -99.5q0 -43 18.5 -70t52 -42.5t88.5 -28.5l70 -17q92 -23 143.5 -64.5t51.5 -124.5q0 -59 -30.5 -104t-86.5 -69.5t-129 -24.5q-117 0 -188.5 63.5t-71.5 188.5v6
h54v-6q0 -102 56 -153t150 -51q89 0 140.5 41.5t51.5 108.5q0 61 -41.5 92t-123.5 51l-70 17q-90 22 -139.5 65t-49.5 122q0 55 29.5 96.5t82 64t120.5 22.5q69 0 124.5 -24zM443 880l-103 -110h-64l-103 110h65l65 -72h10l65 72h65z" />
    <glyph glyph-name="scaron" unicode="&#x161;" horiz-adv-x="504" 
d="M118 462q48 36 130 36t132.5 -38t63.5 -109l-48 -11q-11 59 -49.5 86.5t-98.5 27.5q-58 0 -93 -23.5t-35 -66.5q0 -72 112 -88l63 -9q78 -11 121.5 -42t43.5 -95q0 -67 -52 -105.5t-140 -38.5q-91 0 -150.5 45t-73.5 139l50 10q22 -150 174 -150q64 0 103 27t39 73
q0 41 -32 62t-94 30l-63 9q-69 10 -110 42.5t-41 90.5q0 62 48 98zM384 700l-102 -130h-66l-102 130h61l69 -90h10l69 90h61z" />
    <glyph glyph-name="uni0162" unicode="&#x162;" horiz-adv-x="588" 
d="M315 0l-13 -63h3q18 20 49 20q34 0 56.5 -23t22.5 -61q0 -39 -24.5 -62t-63.5 -23q-72 0 -92 65l44 21q2 -21 14.5 -33.5t33.5 -12.5q19 0 31.5 12.5t12.5 33.5q0 20 -12.5 32t-31.5 12q-18 0 -34 -13h-58v3l19 92h-5v652h-245v48h544v-48h-245v-652h-6z" />
    <glyph glyph-name="uni0163" unicode="&#x163;" horiz-adv-x="444" 
d="M230 440v-366q0 -30 28 -30h118v-44h-103l-13 -63h3q18 20 49 20q34 0 56.5 -23t22.5 -61q0 -39 -24.5 -62t-63.5 -23q-72 0 -92 65l44 21q2 -21 14.5 -33.5t33.5 -12.5q19 0 31.5 12.5t12.5 33.5q0 20 -12.5 32t-31.5 12q-18 0 -34 -13h-58v3l19 93q-24 4 -37 21t-13 44
v374h-166v44h166v186h50v-186h174v-44h-174z" />
    <glyph glyph-name="Tcaron" unicode="&#x164;" horiz-adv-x="588" 
d="M566 700v-48h-245v-652h-54v652h-245v48h544zM429 880l-103 -110h-64l-103 110h65l65 -72h10l65 72h65z" />
    <glyph glyph-name="tcaron" unicode="&#x165;" horiz-adv-x="444" 
d="M379 748l-44 -174h-26l11 174h59zM180 670h50v-186h174v-44h-174v-366q0 -30 28 -30h118v-44h-132q-30 0 -47 17.5t-17 48.5v374h-166v44h166v186z" />
    <glyph glyph-name="Tbar" unicode="&#x166;" horiz-adv-x="588" 
d="M566 652h-245v-276h113v-44h-113v-332h-54v332h-113v44h113v276h-245v48h544v-48z" />
    <glyph glyph-name="tbar" unicode="&#x167;" horiz-adv-x="444" 
d="M230 440v-154h174v-44h-174v-168q0 -30 28 -30h118v-44h-132q-30 0 -47 17.5t-17 48.5v176h-166v44h166v154h-166v44h166v216h50v-216h174v-44h-174z" />
    <glyph glyph-name="Umacron" unicode="&#x16a;" horiz-adv-x="652" 
d="M132 227q0 -96 50.5 -144.5t143.5 -48.5t143.5 48.5t50.5 144.5v473h54v-473q0 -120 -67 -180.5t-181 -60.5t-181 60.5t-67 180.5v473h54v-473zM464 770h-275v44h275v-44z" />
    <glyph glyph-name="umacron" unicode="&#x16b;" horiz-adv-x="594" 
d="M464 86h-10q-52 -96 -184 -96q-53 0 -97 22t-70.5 66.5t-26.5 109.5v296h50v-292q0 -80 40.5 -118t113.5 -38q81 0 131.5 53t50.5 153v242h50v-484h-48v86zM434 570h-275v44h275v-44z" />
    <glyph glyph-name="Ubreve" unicode="&#x16c;" horiz-adv-x="652" 
d="M132 227q0 -96 50.5 -144.5t143.5 -48.5t143.5 48.5t50.5 144.5v473h54v-473q0 -120 -67 -180.5t-181 -60.5t-181 60.5t-67 180.5v473h54v-473zM435 868q0 -48 -30.5 -76t-78.5 -28t-78.5 28t-30.5 76v12h48v-6q0 -28 16 -45t45 -17t45 17t16 45v6h48v-12z" />
    <glyph glyph-name="ubreve" unicode="&#x16d;" horiz-adv-x="594" 
d="M464 86h-10q-52 -96 -184 -96q-53 0 -97 22t-70.5 66.5t-26.5 109.5v296h50v-292q0 -80 40.5 -118t113.5 -38q81 0 131.5 53t50.5 153v242h50v-484h-48v86zM405 672q0 -50 -30 -79t-79 -29t-79 29t-30 79v28h48v-24q0 -29 16 -46.5t45 -17.5t45 17.5t16 46.5v24h48v-28z
" />
    <glyph glyph-name="Uring" unicode="&#x16e;" horiz-adv-x="652" 
d="M132 227q0 -96 50.5 -144.5t143.5 -48.5t143.5 48.5t50.5 144.5v473h54v-473q0 -120 -67 -180.5t-181 -60.5t-181 60.5t-67 180.5v473h54v-473zM257.5 903.5q27.5 26.5 68.5 26.5t68.5 -26.5t27.5 -66.5t-27.5 -66.5t-68.5 -26.5t-68.5 26.5t-27.5 66.5t27.5 66.5z
M289 800.5q14 -14.5 37 -14.5q22 0 36.5 14.5t14.5 36.5q0 23 -14.5 37t-36.5 14q-23 0 -37 -14t-14 -37q0 -22 14 -36.5z" />
    <glyph glyph-name="uring" unicode="&#x16f;" horiz-adv-x="594" 
d="M464 86h-10q-52 -96 -184 -96q-53 0 -97 22t-70.5 66.5t-26.5 109.5v296h50v-292q0 -80 40.5 -118t113.5 -38q81 0 131.5 53t50.5 153v242h50v-484h-48v86zM227.5 705.5q27.5 26.5 68.5 26.5t68.5 -26.5t27.5 -66.5t-27.5 -66.5t-68.5 -26.5t-68.5 26.5t-27.5 66.5
t27.5 66.5zM259 602.5q14 -14.5 37 -14.5q22 0 36.5 14.5t14.5 36.5q0 23 -14.5 37t-36.5 14q-23 0 -37 -14t-14 -37q0 -22 14 -36.5z" />
    <glyph glyph-name="Uhungarumlaut" unicode="&#x170;" horiz-adv-x="652" 
d="M132 227q0 -96 50.5 -144.5t143.5 -48.5t143.5 48.5t50.5 144.5v473h54v-473q0 -120 -67 -180.5t-181 -60.5t-181 60.5t-67 180.5v473h54v-473zM356 880l-80 -110h-57l69 110h68zM466 880l-80 -110h-57l69 110h68z" />
    <glyph glyph-name="uhungarumlaut" unicode="&#x171;" horiz-adv-x="594" 
d="M464 86h-10q-52 -96 -184 -96q-53 0 -97 22t-70.5 66.5t-26.5 109.5v296h50v-292q0 -80 40.5 -118t113.5 -38q81 0 131.5 53t50.5 153v242h50v-484h-48v86zM328 700l-81 -130h-56l72 130h65zM438 700l-81 -130h-56l72 130h65z" />
    <glyph glyph-name="Uogonek" unicode="&#x172;" horiz-adv-x="652" 
d="M574 700v-473q0 -113 -60 -173.5t-163 -66.5l-11 -57q-3 -20 -3 -26q0 -19 21 -19h41v-46h-44q-32 0 -49 16t-17 47q0 16 3.5 33.5l4.5 22.5l5 29q-104 6 -164 66.5t-60 173.5v473h54v-473q0 -96 50.5 -144.5t143.5 -48.5t143.5 48.5t50.5 144.5v473h54z" />
    <glyph glyph-name="uogonek" unicode="&#x173;" horiz-adv-x="594" 
d="M558 -115v-46h-44q-32 0 -49 16t-17 47q0 16 3.5 33.5l4.5 22.5l8 43v85h-10q-52 -96 -184 -96q-53 0 -97 22t-70.5 66.5t-26.5 109.5v296h50v-292q0 -80 40.5 -118t113.5 -38q81 0 131.5 53t50.5 153v242h50v-484l-13 -70q-3 -20 -3 -26q0 -19 21 -19h41z" />
    <glyph glyph-name="Wcircumflex" unicode="&#x174;" horiz-adv-x="872" 
d="M96 700l122 -641h10l166 641h84l166 -641h10l122 641h57l-138 -700h-87l-167 642h-10l-167 -642h-87l-138 700h57zM441 842h-10l-65 -72h-65l103 110h64l103 -110h-65z" />
    <glyph glyph-name="wcircumflex" unicode="&#x175;" horiz-adv-x="796" 
d="M106 484l109 -430h10l137 430h72l137 -430h10l109 430h54l-130 -484h-74l-137 429h-10l-137 -429h-74l-130 484h54zM403 660h-10l-69 -90h-61l102 130h66l102 -130h-61z" />
    <glyph glyph-name="Ycircumflex" unicode="&#x176;" 
d="M93 700l212 -359h10l212 359h65l-255 -419v-281h-54v281l-255 419h65zM315 842h-10l-65 -72h-65l103 110h64l103 -110h-65z" />
    <glyph glyph-name="ycircumflex" unicode="&#x177;" horiz-adv-x="548" 
d="M459 484h57l-304 -684h-56l92 197l-216 487h57l180 -420h10zM279 660h-10l-69 -90h-61l102 130h66l102 -130h-61z" />
    <glyph glyph-name="Ydieresis" unicode="&#x178;" 
d="M93 700l212 -359h10l212 359h65l-255 -419v-281h-54v281l-255 419h65zM190.5 852.5q14.5 14.5 36.5 14.5t36.5 -14.5t14.5 -36.5t-14.5 -36.5t-36.5 -14.5t-36.5 14.5t-14.5 36.5t14.5 36.5zM356.5 852.5q14.5 14.5 36.5 14.5t36.5 -14.5t14.5 -36.5t-14.5 -36.5
t-36.5 -14.5t-36.5 14.5t-14.5 36.5t14.5 36.5z" />
    <glyph glyph-name="Zacute" unicode="&#x179;" horiz-adv-x="586" 
d="M533 700v-44l-417 -608h428v-48h-496v44l417 608h-405v48h473zM373 880l-74 -110h-57l59 110h72z" />
    <glyph glyph-name="zacute" unicode="&#x17a;" horiz-adv-x="530" 
d="M478 484v-40l-358 -400h366v-44h-432v40l358 400h-349v44h415zM346 700l-71 -130h-56l58 130h69z" />
    <glyph glyph-name="Zdotaccent" unicode="&#x17b;" horiz-adv-x="586" 
d="M533 700v-44l-417 -608h428v-48h-496v44l417 608h-405v48h473zM249.5 852.5q14.5 14.5 36.5 14.5t36.5 -14.5t14.5 -36.5t-14.5 -36.5t-36.5 -14.5t-36.5 14.5t-14.5 36.5t14.5 36.5z" />
    <glyph glyph-name="zdotaccent" unicode="&#x17c;" horiz-adv-x="530" 
d="M478 484v-40l-358 -400h366v-44h-432v40l358 400h-349v44h415zM223.5 677.5q14.5 14.5 36.5 14.5t36.5 -14.5t14.5 -36.5t-14.5 -36.5t-36.5 -14.5t-36.5 14.5t-14.5 36.5t14.5 36.5z" />
    <glyph glyph-name="Zcaron" unicode="&#x17d;" horiz-adv-x="586" 
d="M533 700v-44l-417 -608h428v-48h-496v44l417 608h-405v48h473zM421 880l-103 -110h-64l-103 110h65l65 -72h10l65 72h65z" />
    <glyph glyph-name="zcaron" unicode="&#x17e;" horiz-adv-x="530" 
d="M478 484v-40l-358 -400h366v-44h-432v40l358 400h-349v44h415zM395 700l-102 -130h-66l-102 130h61l69 -90h10l69 90h61z" />
    <glyph glyph-name="florin" unicode="&#x192;" 
d="M281 636q0 29 17.5 46.5t45.5 17.5h152v-44h-138q-27 0 -27 -30v-202h139v-44h-139v-316q0 -29 -17.5 -46.5t-45.5 -17.5h-152v44h138q27 0 27 30v306h-132v44h132v212z" />
    <glyph glyph-name="Aringacute" unicode="&#x1fa;" horiz-adv-x="608" 
d="M235.5 770.5q-27.5 26.5 -27.5 66.5t27.5 66.5t68.5 26.5q8 0 12 -1l38 71h72l-61 -90q35 -27 35 -73q0 -40 -27.5 -66.5t-68.5 -26.5t-68.5 26.5zM267.5 874q-14.5 -14 -14.5 -37q0 -22 14.5 -36.5t36.5 -14.5q23 0 37 14.5t14 36.5q0 23 -14 37t-37 14q-22 0 -36.5 -14
zM344 700l244 -700h-59l-65 190h-320l-65 -190h-59l244 700h80zM160 238h288l-139 405h-10z" />
    <glyph glyph-name="aringacute" unicode="&#x1fb;" horiz-adv-x="536" 
d="M133.5 455.5q52.5 42.5 137.5 42.5q90 0 139.5 -48t49.5 -132v-318h-48v77h-10q-25 -42 -65.5 -66.5t-108.5 -24.5q-79 0 -129.5 40t-50.5 110q0 69 49.5 105.5t128.5 36.5h184v42q0 63 -36 97.5t-103 34.5q-65 0 -105.5 -32.5t-54.5 -89.5l-49 14q19 69 71.5 111.5z
M135 58.5q37 -28.5 95 -28.5q82 0 131 50.5t49 139.5v14h-184q-57 0 -92.5 -25t-35.5 -73q0 -49 37 -77.5zM348.5 681q9.5 -19 9.5 -42q0 -40 -27.5 -66.5t-68.5 -26.5t-68.5 26.5t-27.5 66.5t27.5 66.5t68.5 26.5q7 0 11 -1l44 99h69l-64 -117q17 -13 26.5 -32zM299 602.5
q14 14.5 14 36.5q0 23 -14 37t-37 14q-22 0 -36.5 -14t-14.5 -37q0 -22 14.5 -36.5t36.5 -14.5q23 0 37 14.5z" />
    <glyph glyph-name="AEacute" unicode="&#x1fc;" horiz-adv-x="688" 
d="M400 48h240v-48h-294v190h-191l-75 -190h-60l280 700h336v-48h-236v-277h212v-48h-212v-279zM346 238v414h-10l-163 -414h173zM467 880l-74 -110h-57l59 110h72z" />
    <glyph glyph-name="aeacute" unicode="&#x1fd;" horiz-adv-x="931" 
d="M885 231h-409q5 -93 57 -146t136 -53q62 0 99.5 30t60.5 82l46 -22q-31 -63 -78 -99.5t-128 -36.5q-73 0 -127.5 34.5t-83.5 94.5h-11q-22 -58 -72.5 -93.5t-132.5 -35.5q-87 0 -140.5 39t-53.5 109q0 69 51.5 105t134.5 36h190v45q0 62 -39 97t-107 35q-67 0 -109.5 -32
t-57.5 -88l-49 14q18 67 73.5 109.5t142.5 42.5q68 0 115 -28.5t65 -79.5h9q31 50 81 79t112 29q66 0 117 -28t79.5 -81t28.5 -126v-32zM833 275q-3 85 -49.5 131t-123.5 46q-75 0 -125 -47.5t-59 -129.5h357zM424 231h-190q-60 0 -98 -25t-38 -72q0 -48 40.5 -76t103.5 -28
q82 0 132 50.5t50 139.5v11zM562 700l-71 -130h-56l58 130h69z" />
    <glyph glyph-name="Oslashacute" unicode="&#x1fe;" horiz-adv-x="660" 
d="M563 586.5q33 -64.5 33 -158.5v-156q0 -139 -71 -212.5t-195 -73.5q-46 0 -88 11l-26 -79l-48 15l27 82q-63 32 -97 97t-34 160v156q0 139 71 212.5t195 73.5q50 0 92 -12l23 68l47 -15l-24 -72q62 -32 95 -96.5zM142 145q24 -52 70 -80l195 590q-36 11 -77 11
q-100 0 -156 -62t-56 -172v-164q0 -71 24 -123zM542 432q0 69 -23 120.5t-67 80.5l-194 -589q30 -10 72 -10q100 0 156 62t56 172v164zM417 880l-74 -110h-57l59 110h72z" />
    <glyph glyph-name="oslashacute" unicode="&#x1ff;" horiz-adv-x="588" 
d="M511 367q27 -56 27 -125q0 -74 -30 -132.5t-85.5 -91t-128.5 -32.5q-52 0 -100 19l-28 -52l-42 21l29 53q-49 33 -76 89t-27 126q0 74 30 132.5t85.5 91t128.5 32.5q53 0 102 -19l24 45l41 -21l-25 -47q48 -33 75 -89zM119.5 140.5q19.5 -44.5 55.5 -71.5l198 368
q-34 15 -79 15q-58 0 -102 -27.5t-68 -75t-24 -107.5q0 -57 19.5 -101.5zM396 59q44 27 68 74.5t24 108.5q0 55 -19.5 99.5t-55.5 72.5l-197 -368q36 -14 78 -14q58 0 102 27zM380 700l-71 -130h-56l58 130h69z" />
    <glyph glyph-name="uni0218" unicode="&#x218;" horiz-adv-x="614" 
d="M434.5 690q55.5 -24 87.5 -71t32 -114v-43h-54v43q0 81 -52.5 121t-137.5 40q-79 0 -128.5 -35.5t-49.5 -99.5q0 -43 18.5 -70t52 -42.5t88.5 -28.5l70 -17q92 -23 143.5 -64.5t51.5 -124.5q0 -59 -30.5 -104t-86.5 -69.5t-129 -24.5q-117 0 -188.5 63.5t-71.5 188.5v6
h54v-6q0 -102 56 -153t150 -51q89 0 140.5 41.5t51.5 108.5q0 61 -41.5 92t-123.5 51l-70 17q-90 22 -139.5 65t-49.5 122q0 55 29.5 96.5t82 64t120.5 22.5q69 0 124.5 -24zM280.5 -65.5q15.5 15.5 39.5 15.5t39.5 -15.5t15.5 -39.5v-76q0 -32 -18.5 -48.5t-50.5 -16.5h-39
v36h41q27 0 27 26v28q-6 -2 -17 -2q-23 0 -38 15t-15 38q0 24 15.5 39.5z" />
    <glyph glyph-name="uni0219" unicode="&#x219;" horiz-adv-x="504" 
d="M118 462q48 36 130 36t132.5 -38t63.5 -109l-48 -11q-11 59 -49.5 86.5t-98.5 27.5q-58 0 -93 -23.5t-35 -66.5q0 -72 112 -88l63 -9q78 -11 121.5 -42t43.5 -95q0 -67 -52 -105.5t-140 -38.5q-91 0 -150.5 45t-73.5 139l50 10q22 -150 174 -150q64 0 103 27t39 73
q0 41 -32 62t-94 30l-63 9q-69 10 -110 42.5t-41 90.5q0 62 48 98zM220.5 -65.5q15.5 15.5 39.5 15.5t39.5 -15.5t15.5 -39.5v-76q0 -32 -18.5 -48.5t-50.5 -16.5h-39v36h41q27 0 27 26v28q-6 -2 -17 -2q-23 0 -38 15t-15 38q0 24 15.5 39.5z" />
    <glyph glyph-name="uni021A" unicode="&#x21a;" horiz-adv-x="588" 
d="M566 700v-48h-245v-652h-54v652h-245v48h544zM255.5 -65.5q15.5 15.5 39.5 15.5t39.5 -15.5t15.5 -39.5v-76q0 -32 -18.5 -48.5t-50.5 -16.5h-39v36h41q27 0 27 26v28q-6 -2 -17 -2q-23 0 -38 15t-15 38q0 24 15.5 39.5z" />
    <glyph glyph-name="uni021B" unicode="&#x21b;" horiz-adv-x="444" 
d="M180 484v186h50v-186h174v-44h-174v-366q0 -30 28 -30h118v-44h-132q-30 0 -47 17.5t-17 48.5v374h-166v44h166zM213.5 -65.5q15.5 15.5 39.5 15.5t39.5 -15.5t15.5 -39.5v-76q0 -32 -18.5 -48.5t-50.5 -16.5h-39v36h41q27 0 27 26v28q-6 -2 -17 -2q-23 0 -38 15t-15 38
q0 24 15.5 39.5z" />
    <glyph glyph-name="uni0237" unicode="&#x237;" horiz-adv-x="222" 
d="M123 -182.5q-17 -17.5 -47 -17.5h-116v44h102q28 0 28 30v610h50v-618q0 -31 -17 -48.5z" />
    <glyph glyph-name="circumflex" unicode="&#x2c6;" horiz-adv-x="390" 
d="M200 660h-10l-69 -90h-61l102 130h66l102 -130h-61z" />
    <glyph glyph-name="caron" unicode="&#x2c7;" horiz-adv-x="390" 
d="M330 700l-102 -130h-66l-102 130h61l69 -90h10l69 90h61z" />
    <glyph glyph-name="breve" unicode="&#x2d8;" horiz-adv-x="338" 
d="M278 672q0 -50 -30 -79t-79 -29t-79 29t-30 79v28h48v-24q0 -29 16 -46.5t45 -17.5t45 17.5t16 46.5v24h48v-28z" />
    <glyph glyph-name="dotaccent" unicode="&#x2d9;" horiz-adv-x="222" 
d="M74.5 677.5q14.5 14.5 36.5 14.5t36.5 -14.5t14.5 -36.5t-14.5 -36.5t-36.5 -14.5t-36.5 14.5t-14.5 36.5t14.5 36.5z" />
    <glyph glyph-name="ring" unicode="&#x2da;" horiz-adv-x="312" 
d="M87.5 705.5q27.5 26.5 68.5 26.5t68.5 -26.5t27.5 -66.5t-27.5 -66.5t-68.5 -26.5t-68.5 26.5t-27.5 66.5t27.5 66.5zM119 602.5q14 -14.5 37 -14.5q22 0 36.5 14.5t14.5 36.5q0 23 -14.5 37t-36.5 14q-23 0 -37 -14t-14 -37q0 -22 14 -36.5z" />
    <glyph glyph-name="ogonek" unicode="&#x2db;" horiz-adv-x="230" 
d="M111 -70q-3 -20 -3 -26q0 -19 21 -19h41v-46h-44q-32 0 -49 16t-17 47q0 16 3.5 33.5l4.5 22.5l11 59l45 -17z" />
    <glyph glyph-name="tilde" unicode="&#x2dc;" horiz-adv-x="418" 
d="M119.5 689q15.5 11 39.5 11q22 0 36 -11.5t32 -40.5q13 -21 19.5 -27.5t15.5 -6.5t14 4.5t13 15.5l33 48l36 -24l-32 -47q-12 -19 -27.5 -30t-39.5 -11q-22 0 -36 11.5t-32 40.5q-13 21 -19.5 27.5t-15.5 6.5t-14 -4.5t-13 -15.5l-33 -48l-36 24l32 47q12 19 27.5 30z
" />
    <glyph glyph-name="hungarumlaut" unicode="&#x2dd;" horiz-adv-x="367" 
d="M197 700l-81 -130h-56l72 130h65zM307 700l-81 -130h-56l72 130h65z" />
    <glyph glyph-name="gravecomb" unicode="&#x300;" horiz-adv-x="0" 
d="M-60 570h-56l-81 130h65z" />
    <glyph glyph-name="acutecomb" unicode="&#x301;" horiz-adv-x="0" 
d="M-64 700l-71 -130h-56l58 130h69z" />
    <glyph glyph-name="uni0302" unicode="&#x302;" horiz-adv-x="0" 
d="M-190 660h-10l-69 -90h-61l102 130h66l102 -130h-61z" />
    <glyph glyph-name="tildecomb" unicode="&#x303;" horiz-adv-x="0" 
d="M-298.5 689q15.5 11 39.5 11q22 0 36 -11.5t32 -40.5q13 -21 19.5 -27.5t15.5 -6.5t14 4.5t13 15.5l33 48l36 -24l-32 -47q-12 -19 -27.5 -30t-39.5 -11q-22 0 -36 11.5t-32 40.5q-13 21 -19.5 27.5t-15.5 6.5t-14 -4.5t-13 -15.5l-33 -48l-36 24l32 47q12 19 27.5 30z
" />
    <glyph glyph-name="uni0304" unicode="&#x304;" horiz-adv-x="0" 
d="M-60 570h-275v44h275v-44z" />
    <glyph glyph-name="uni0306" unicode="&#x306;" horiz-adv-x="0" 
d="M-60 672q0 -50 -30 -79t-79 -29t-79 29t-30 79v28h48v-24q0 -29 16 -46.5t45 -17.5t45 17.5t16 46.5v24h48v-28z" />
    <glyph glyph-name="uni0307" unicode="&#x307;" horiz-adv-x="0" 
d="M-147.5 677.5q14.5 14.5 36.5 14.5t36.5 -14.5t14.5 -36.5t-14.5 -36.5t-36.5 -14.5t-36.5 14.5t-14.5 36.5t14.5 36.5z" />
    <glyph glyph-name="uni0308" unicode="&#x308;" horiz-adv-x="0" 
d="M-307.5 677.5q14.5 14.5 36.5 14.5t36.5 -14.5t14.5 -36.5t-14.5 -36.5t-36.5 -14.5t-36.5 14.5t-14.5 36.5t14.5 36.5zM-147.5 677.5q14.5 14.5 36.5 14.5t36.5 -14.5t14.5 -36.5t-14.5 -36.5t-36.5 -14.5t-36.5 14.5t-14.5 36.5t14.5 36.5z" />
    <glyph glyph-name="uni030A" unicode="&#x30a;" horiz-adv-x="0" 
d="M-224.5 705.5q27.5 26.5 68.5 26.5t68.5 -26.5t27.5 -66.5t-27.5 -66.5t-68.5 -26.5t-68.5 26.5t-27.5 66.5t27.5 66.5zM-193 602.5q14 -14.5 37 -14.5q22 0 36.5 14.5t14.5 36.5q0 23 -14.5 37t-36.5 14q-23 0 -37 -14t-14 -37q0 -22 14 -36.5z" />
    <glyph glyph-name="uni030B" unicode="&#x30b;" horiz-adv-x="0" 
d="M-170 700l-81 -130h-56l72 130h65zM-60 700l-81 -130h-56l72 130h65z" />
    <glyph glyph-name="uni030C" unicode="&#x30c;" horiz-adv-x="0" 
d="M-60 700l-102 -130h-66l-102 130h61l69 -90h10l69 90h61z" />
    <glyph glyph-name="uni0312" unicode="&#x312;" horiz-adv-x="0" 
d="M-75.5 601.5q-15.5 -15.5 -39.5 -15.5t-39.5 15.5t-15.5 39.5v76q0 32 18.5 48.5t50.5 16.5h39v-36h-41q-27 0 -27 -26v-28q6 2 17 2q22 0 37.5 -15t15.5 -38q0 -24 -15.5 -39.5z" />
    <glyph glyph-name="uni0326" unicode="&#x326;" horiz-adv-x="0" 
d="M-154.5 -65.5q15.5 15.5 39.5 15.5t39.5 -15.5t15.5 -39.5v-76q0 -32 -18.5 -48.5t-50.5 -16.5h-39v36h41q27 0 27 26v28q-6 -2 -17 -2q-23 0 -38 15t-15 38q0 24 15.5 39.5z" />
    <glyph glyph-name="uni0327" unicode="&#x327;" horiz-adv-x="0" 
d="M-191 -63h3q18 20 49 20q34 0 56.5 -23t22.5 -61q0 -39 -24.5 -62t-63.5 -23q-72 0 -92 65l44 21q2 -21 14.5 -33.5t33.5 -12.5q19 0 31.5 12.5t12.5 33.5q0 20 -12.5 32t-31.5 12q-18 0 -34 -13h-58v3l26 124h42z" />
    <glyph glyph-name="uni0328" unicode="&#x328;" horiz-adv-x="0" 
d="M-119 -70q-3 -20 -3 -26q0 -19 21 -19h41v-46h-44q-32 0 -49 16t-17 47q0 16 3.5 33.5l4.5 22.5l11 59l45 -17z" />
    <glyph glyph-name="uni0335" unicode="&#x335;" horiz-adv-x="0" 
d="M-60 622v-42h-276v42h276z" />
    <glyph glyph-name="uni0336" unicode="&#x336;" horiz-adv-x="0" 
d="M-60 510h-600v44h600v-44z" />
    <glyph glyph-name="uni0337" unicode="&#x337;" horiz-adv-x="0" 
d="M-12 503l-295 -550l-42 21l296 550z" />
    <glyph glyph-name="uni0338" unicode="&#x338;" horiz-adv-x="0" 
d="M-60 755l-276 -837l-48 15l277 837z" />
    <glyph glyph-name="pi" unicode="&#x3c0;" 
d="M151 452h-68v44h457v-44h-69v-378q0 -30 27 -30h42v-44h-53q-29 0 -47.5 19.5t-18.5 48.5v384h-220v-452h-50v452z" />
    <glyph glyph-name="Wgrave" unicode="&#x1e80;" horiz-adv-x="872" 
d="M96 700l122 -641h10l166 641h84l166 -641h10l122 641h57l-138 -700h-87l-167 642h-10l-167 -642h-87l-138 700h57zM484 770h-57l-80 110h68z" />
    <glyph glyph-name="wgrave" unicode="&#x1e81;" horiz-adv-x="796" 
d="M106 484l109 -430h10l137 430h72l137 -430h10l109 430h54l-130 -484h-74l-137 429h-10l-137 -429h-74l-130 484h54zM445 570h-56l-81 130h65z" />
    <glyph glyph-name="Wacute" unicode="&#x1e82;" horiz-adv-x="872" 
d="M96 700l122 -641h10l166 641h84l166 -641h10l122 641h57l-138 -700h-87l-167 642h-10l-167 -642h-87l-138 700h57zM523 880l-74 -110h-57l59 110h72z" />
    <glyph glyph-name="wacute" unicode="&#x1e83;" horiz-adv-x="796" 
d="M106 484l109 -430h10l137 430h72l137 -430h10l109 430h54l-130 -484h-74l-137 429h-10l-137 -429h-74l-130 484h54zM484 700l-71 -130h-56l58 130h69z" />
    <glyph glyph-name="Wdieresis" unicode="&#x1e84;" horiz-adv-x="872" 
d="M96 700l122 -641h10l166 641h84l166 -641h10l122 641h57l-138 -700h-87l-167 642h-10l-167 -642h-87l-138 700h57zM316.5 852.5q14.5 14.5 36.5 14.5t36.5 -14.5t14.5 -36.5t-14.5 -36.5t-36.5 -14.5t-36.5 14.5t-14.5 36.5t14.5 36.5zM482.5 852.5q14.5 14.5 36.5 14.5
t36.5 -14.5t14.5 -36.5t-14.5 -36.5t-36.5 -14.5t-36.5 14.5t-14.5 36.5t14.5 36.5z" />
    <glyph glyph-name="wdieresis" unicode="&#x1e85;" horiz-adv-x="796" 
d="M106 484l109 -430h10l137 430h72l137 -430h10l109 430h54l-130 -484h-74l-137 429h-10l-137 -429h-74l-130 484h54zM281.5 677.5q14.5 14.5 36.5 14.5t36.5 -14.5t14.5 -36.5t-14.5 -36.5t-36.5 -14.5t-36.5 14.5t-14.5 36.5t14.5 36.5zM441.5 677.5q14.5 14.5 36.5 14.5
t36.5 -14.5t14.5 -36.5t-14.5 -36.5t-36.5 -14.5t-36.5 14.5t-14.5 36.5t14.5 36.5z" />
    <glyph glyph-name="uni1E9E" unicode="&#x1e9e;" horiz-adv-x="602" 
d="M141 637.5q63 62.5 173 62.5h236v-42l-182 -213q-28 -32 -28 -59q0 -19 14 -32.5t41 -26.5l45 -21q64 -30 98 -66.5t34 -94.5q0 -44 -21 -80t-60 -57.5t-91 -21.5q-88 0 -140 50t-52 132h54q0 -59 35 -96.5t103 -37.5q54 0 88 32.5t34 78.5q0 42 -25.5 66.5t-75.5 48.5
l-47 22q-45 21 -64.5 44.5t-19.5 57.5q0 28 14.5 53t43.5 59l134 156h-168q-85 0 -133.5 -47.5t-48.5 -148.5v-456h-54v452q0 123 63 185.5z" />
    <glyph glyph-name="Ygrave" unicode="&#x1ef2;" 
d="M93 700l212 -359h10l212 359h65l-255 -419v-281h-54v281l-255 419h65zM358 770h-57l-80 110h68z" />
    <glyph glyph-name="ygrave" unicode="&#x1ef3;" horiz-adv-x="548" 
d="M459 484h57l-304 -684h-56l92 197l-216 487h57l180 -420h10zM321 570h-56l-81 130h65z" />
    <glyph glyph-name="endash" unicode="&#x2013;" horiz-adv-x="612" 
d="M82 281h448v-48h-448v48z" />
    <glyph glyph-name="emdash" unicode="&#x2014;" horiz-adv-x="916" 
d="M82 281h752v-48h-752v48z" />
    <glyph glyph-name="quoteleft" unicode="&#x2018;" horiz-adv-x="222" 
d="M150.5 525.5q-15.5 -15.5 -39.5 -15.5t-39.5 15.5t-15.5 39.5v55q0 45 23 67.5t66 22.5h11v-40h-11q-24 0 -33.5 -10t-9.5 -33v-9h11q23 0 38 -15t15 -38q0 -24 -15.5 -39.5z" />
    <glyph glyph-name="quoteright" unicode="&#x2019;" horiz-adv-x="222" 
d="M71.5 700.5q15.5 15.5 39.5 15.5t39.5 -15.5t15.5 -39.5v-55q0 -45 -23 -67.5t-66 -22.5h-11v40h11q24 0 33.5 10t9.5 33v9h-11q-22 0 -37.5 15.5t-15.5 37.5q0 24 15.5 39.5z" />
    <glyph glyph-name="quotesinglbase" unicode="&#x201a;" horiz-adv-x="222" 
d="M71.5 80.5q15.5 15.5 39.5 15.5t39.5 -15.5t15.5 -39.5v-55q0 -45 -23 -67.5t-66 -22.5h-11v40h11q24 0 33.5 10t9.5 33v9h-11q-22 0 -37.5 15.5t-15.5 37.5q0 24 15.5 39.5z" />
    <glyph glyph-name="quotedblleft" unicode="&#x201c;" horiz-adv-x="362" 
d="M150.5 525.5q-15.5 -15.5 -39.5 -15.5t-39.5 15.5t-15.5 39.5v55q0 45 23 67.5t66 22.5h11v-40h-11q-24 0 -33.5 -10t-9.5 -33v-9h11q23 0 38 -15t15 -38q0 -24 -15.5 -39.5zM290.5 525.5q-15.5 -15.5 -39.5 -15.5t-39.5 15.5t-15.5 39.5v55q0 45 23 67.5t66 22.5h11v-40
h-11q-24 0 -33.5 -10t-9.5 -33v-9h11q23 0 38 -15t15 -38q0 -24 -15.5 -39.5z" />
    <glyph glyph-name="quotedblright" unicode="&#x201d;" horiz-adv-x="362" 
d="M71.5 700.5q15.5 15.5 39.5 15.5t39.5 -15.5t15.5 -39.5v-55q0 -45 -23 -67.5t-66 -22.5h-11v40h11q24 0 33.5 10t9.5 33v9h-11q-22 0 -37.5 15.5t-15.5 37.5q0 24 15.5 39.5zM211.5 700.5q15.5 15.5 39.5 15.5t39.5 -15.5t15.5 -39.5v-55q0 -45 -23 -67.5t-66 -22.5h-11
v40h11q24 0 33.5 10t9.5 33v9h-11q-22 0 -37.5 15.5t-15.5 37.5q0 24 15.5 39.5z" />
    <glyph glyph-name="quotedblbase" unicode="&#x201e;" horiz-adv-x="362" 
d="M71.5 80.5q15.5 15.5 39.5 15.5t39.5 -15.5t15.5 -39.5v-55q0 -45 -23 -67.5t-66 -22.5h-11v40h11q24 0 33.5 10t9.5 33v9h-11q-22 0 -37.5 15.5t-15.5 37.5q0 24 15.5 39.5zM211.5 80.5q15.5 15.5 39.5 15.5t39.5 -15.5t15.5 -39.5v-55q0 -45 -23 -67.5t-66 -22.5h-11
v40h11q24 0 33.5 10t9.5 33v9h-11q-22 0 -37.5 15.5t-15.5 37.5q0 24 15.5 39.5z" />
    <glyph glyph-name="dagger" unicode="&#x2020;" 
d="M107 500h176v200h54v-200h176v-48h-176v-452h-54v452h-176v48z" />
    <glyph glyph-name="daggerdbl" unicode="&#x2021;" 
d="M107 254h176v198h-176v48h176v200h54v-200h176v-48h-176v-198h176v-54h-176v-200h-54v200h-176v54z" />
    <glyph glyph-name="bullet" unicode="&#x2022;" horiz-adv-x="310" 
d="M83 422.5q31 30.5 72 30.5t72 -31t31 -72t-30 -72t-73 -31q-42 0 -72.5 30.5t-30.5 72.5t31 72.5z" />
    <glyph glyph-name="ellipsis" unicode="&#x2026;" horiz-adv-x="542" 
d="M71.5 80q15.5 16 39.5 16t39.5 -16t15.5 -39t-15.5 -39t-39.5 -16t-39.5 16t-15.5 39t15.5 39zM231.5 80q15.5 16 39.5 16t39.5 -16t15.5 -39t-15.5 -39t-39.5 -16t-39.5 16t-15.5 39t15.5 39zM391.5 80q15.5 16 39.5 16t39.5 -16t15.5 -39t-15.5 -39t-39.5 -16t-39.5 16
t-15.5 39t15.5 39z" />
    <glyph glyph-name="perthousand" unicode="&#x2030;" horiz-adv-x="1066" 
d="M337 671q43 -43 43 -117v-19q0 -74 -42 -116.5t-118 -42.5q-75 0 -117.5 42.5t-42.5 116.5v19q0 75 42.5 117.5t117.5 42.5q74 0 117 -43zM682 676l-196 -243l-32 24l185 251zM332 559q0 52 -29 82.5t-83 30.5t-83 -30.5t-29 -82.5v-28q0 -52 29 -82.5t83 -30.5t83 30.5
t29 82.5v28zM963.5 281q42.5 -43 42.5 -117v-19q0 -74 -42 -116.5t-115 -42.5q-49 0 -85 19.5t-54 56.5q-18 -37 -54 -56.5t-85 -19.5q-73 0 -115 42.5t-42 116.5v19q0 74 42 117t115 43q48 0 84 -20t55 -57q18 37 54 57t85 20q72 0 114.5 -43zM686 169q0 52 -29 82.5
t-83 30.5t-83 -30.5t-29 -82.5v-28q0 -52 29 -82.5t83 -30.5t83 30.5t29 82.5v28zM958 169q0 52 -29 82.5t-83 30.5t-83 -30.5t-29 -82.5v-28q0 -52 29 -82.5t83 -30.5t83 30.5t29 82.5v28zM112 24l196 243l32 -24l-185 -251z" />
    <glyph glyph-name="prime" unicode="&#x2032;" horiz-adv-x="310" 
d="M198 700l-49 -240h-32l10 240h71z" />
    <glyph glyph-name="primedbl" unicode="&#x2033;" horiz-adv-x="440" 
d="M199 700l-49 -240h-32l10 240h71zM328 700l-49 -240h-33l10 240h72z" />
    <glyph glyph-name="guilsinglleft" unicode="&#x2039;" horiz-adv-x="480" 
d="M396 459h6v-60l-284 -153v-8l284 -153v-60h-6l-322 186v62z" />
    <glyph glyph-name="guilsinglright" unicode="&#x203a;" horiz-adv-x="480" 
d="M406 211l-322 -186h-6v60l285 153v8l-285 153v60h6l322 -186v-62z" />
    <glyph glyph-name="fraction" unicode="&#x2044;" 
d="M552 708l43 -32l-196 -243l-32 24zM68 -8l-43 32l196 243l32 -24z" />
    <glyph glyph-name="uni2074" unicode="&#x2074;" horiz-adv-x="382" 
d="M289 700v-218h87v-42h-87v-90h-48v90h-225v38l203 222h70zM76 482h165v168h-10z" />
    <glyph glyph-name="uni20A8" unicode="&#x20a8;" horiz-adv-x="676" 
d="M437 652v-10q29 -18 50.5 -50.5t27.5 -74.5h113v-48h-113q-8 -82 -67 -130.5t-146 -52.5l194 -286h-68l-189 286h-161v48h204q79 0 125 35t54 100h-383v48h383q-8 65 -54 100t-125 35h-204v48h550v-48h-191z" />
    <glyph glyph-name="Euro" unicode="&#x20ac;" horiz-adv-x="670" 
d="M562 455v9q0 95 -50 148.5t-140 53.5q-96 0 -150.5 -62t-57.5 -175h208v-44h-208v-62h208v-44h-208q1 -116 56.5 -180.5t151.5 -64.5t143 51.5t47 147.5v18h54v-18q0 -115 -66 -181t-178 -66q-122 0 -191.5 77t-70.5 216h-78v44h78v62h-78v44h78q3 135 73 210t189 75
q117 0 180.5 -66.5t63.5 -183.5v-9h-54z" />
    <glyph glyph-name="uni20BF" unicode="&#x20bf;" horiz-adv-x="622" 
d="M527.5 293q36.5 -41 36.5 -108q0 -77 -47 -124.5t-124 -58.5v-118h-50v116h-80v-116h-50v116h-131v700h131v116h50v-116h80v116h50v-118q76 -10 123.5 -57.5t47.5 -121.5q0 -66 -36 -106t-85 -56v-10q48 -13 84.5 -54zM136 376h220q72 0 113 39t41 102q0 60 -42.5 97.5
t-113.5 37.5h-218v-276zM469.5 87.5q40.5 39.5 40.5 101.5q0 65 -41 102t-119 37h-214v-280h220q73 0 113.5 39.5z" />
    <glyph glyph-name="trademark" unicode="&#x2122;" 
d="M256 700v-34h-76v-188h-38v188h-76v34h190zM355 700l56 -188h4l56 188h69v-222h-38v188h-4l-56 -188h-58l-56 188h-4v-188h-38v222h69z" />
    <glyph glyph-name="oneeighth" unicode="&#x215b;" horiz-adv-x="754" 
d="M192 700v-350h-48v280h-10l-66 -86h-50v10l115 146h59zM552 708l43 -32l-196 -243l-32 24zM68 -8l-43 32l196 243l32 -24zM425 337q43 27 111 27t111 -27t43 -70v-3q0 -33 -20.5 -53.5t-46.5 -26.5v-10q29 -7 51 -27t22 -56v-2q0 -45 -43.5 -74t-116.5 -29t-116.5 29
t-43.5 74v2q0 36 22 56.5t52 26.5v10q-27 6 -47.5 26.5t-20.5 53.5v3q0 43 43 70zM459 217.5q29 -17.5 77 -17.5t77 17.5t29 44.5t-28.5 43.5t-77.5 16.5t-77.5 -16.5t-28.5 -43.5t29 -44.5zM454 45q30 -17 82 -17t82 17t30 48t-30 48t-82 17t-82 -17t-30 -48t30 -48z" />
    <glyph glyph-name="threeeighths" unicode="&#x215c;" horiz-adv-x="820" 
d="M340 666l-132 -92v-10q59 -2 96.5 -29t37.5 -78q0 -53 -45.5 -87t-111.5 -34q-73 0 -117 35.5t-44 96.5h48q0 -43 30.5 -66.5t81.5 -23.5q49 0 79.5 21.5t30.5 57.5q0 33 -28.5 52t-81.5 19h-58v36l130 94h-224v42h308v-34zM650 708l43 -32l-196 -243l-32 24zM166 -8
l-43 32l196 243l32 -24zM523 337q43 27 111 27t111 -27t43 -70v-3q0 -33 -20.5 -53.5t-46.5 -26.5v-10q29 -7 51 -27t22 -56v-2q0 -45 -43.5 -74t-116.5 -29t-116.5 29t-43.5 74v2q0 36 22 56.5t52 26.5v10q-27 6 -47.5 26.5t-20.5 53.5v3q0 43 43 70zM557 217.5
q29 -17.5 77 -17.5t77 17.5t29 44.5t-28.5 43.5t-77.5 16.5t-77.5 -16.5t-28.5 -43.5t29 -44.5zM552 45q30 -17 82 -17t82 17t30 48t-30 48t-82 17t-82 -17t-30 -48t30 -48z" />
    <glyph glyph-name="fiveeighths" unicode="&#x215d;" horiz-adv-x="808" 
d="M330 658h-246v-109h10q21 17 44.5 28t64.5 11q60 0 99.5 -33t39.5 -88v-3q0 -56 -42 -92t-112 -36q-69 0 -111.5 34.5t-50.5 88.5h50q6 -34 35.5 -57.5t76.5 -23.5q49 0 77.5 24.5t28.5 62.5q0 36 -27.5 58.5t-71.5 22.5q-58 0 -96 -41h-61v195h292v-42zM644 708l43 -32
l-196 -243l-32 24zM160 -8l-43 32l196 243l32 -24zM517 337q43 27 111 27t111 -27t43 -70v-3q0 -33 -20.5 -53.5t-46.5 -26.5v-10q29 -7 51 -27t22 -56v-2q0 -45 -43.5 -74t-116.5 -29t-116.5 29t-43.5 74v2q0 36 22 56.5t52 26.5v10q-27 6 -47.5 26.5t-20.5 53.5v3
q0 43 43 70zM551 217.5q29 -17.5 77 -17.5t77 17.5t29 44.5t-28.5 43.5t-77.5 16.5t-77.5 -16.5t-28.5 -43.5t29 -44.5zM546 45q30 -17 82 -17t82 17t30 48t-30 48t-82 17t-82 -17t-30 -48t30 -48z" />
    <glyph glyph-name="seveneighths" unicode="&#x215e;" horiz-adv-x="724" 
d="M308 700v-38l-162 -312h-54l160 308h-242v42h298zM570 708l43 -32l-196 -243l-32 24zM86 -8l-43 32l196 243l32 -24zM443 337q43 27 111 27t111 -27t43 -70v-3q0 -33 -20.5 -53.5t-46.5 -26.5v-10q29 -7 51 -27t22 -56v-2q0 -45 -43.5 -74t-116.5 -29t-116.5 29t-43.5 74
v2q0 36 22 56.5t52 26.5v10q-27 6 -47.5 26.5t-20.5 53.5v3q0 43 43 70zM477 217.5q29 -17.5 77 -17.5t77 17.5t29 44.5t-28.5 43.5t-77.5 16.5t-77.5 -16.5t-28.5 -43.5t29 -44.5zM472 45q30 -17 82 -17t82 17t30 48t-30 48t-82 17t-82 -17t-30 -48t30 -48z" />
    <glyph glyph-name="arrowleft" unicode="&#x2190;" horiz-adv-x="800" 
d="M328 477l-174 -174l-29 -21l3 -9l36 3h586v-50h-586l-36 3l-3 -9l29 -21l174 -174l-36 -36l-242 242v40l242 242z" />
    <glyph glyph-name="arrowup" unicode="&#x2191;" 
d="M292 706h40l242 -242l-36 -36l-173 173l-21 29l-9 -3l3 -36v-591h-52v591l3 36l-9 3l-21 -29l-173 -173l-36 36z" />
    <glyph glyph-name="arrowright" unicode="&#x2192;" horiz-adv-x="800" 
d="M750 271v-40l-242 -242l-36 36l174 174l29 21l-3 9l-36 -3h-586v50h586l36 -3l3 9l-29 21l-174 174l36 36z" />
    <glyph glyph-name="arrowdown" unicode="&#x2193;" 
d="M86 272l173 -173l21 -29l9 3l-3 36v591h52v-591l-3 -36l9 -3l21 29l173 173l36 -36l-242 -242h-40l-242 242z" />
    <glyph glyph-name="arrowboth" unicode="&#x2194;" horiz-adv-x="800" 
d="M508 507l242 -242v-40l-242 -242l-36 36l174 174l29 21l-3 9l-36 -3h-472l-36 3l-3 -9l29 -21l174 -174l-36 -36l-242 242v40l242 242l36 -36l-174 -174l-29 -21l3 -9l36 3h472l36 -3l3 9l-29 21l-174 174z" />
    <glyph glyph-name="arrowupdn" unicode="&#x2195;" 
d="M365 99l173 173l36 -36l-242 -242h-40l-242 242l36 36l173 -173l21 -29l9 3l-3 36v482l3 36l-9 3l-21 -29l-173 -173l-36 36l242 242h40l242 -242l-36 -36l-173 173l-21 29l-9 -3l3 -36v-482l-3 -36l9 -3z" />
    <glyph glyph-name="uni2196" unicode="&#x2196;" horiz-adv-x="608" 
d="M450 434h-245l-35 5l-4 -8l27 -23l383 -383l-37 -37l-383 383l-23 27l-8 -4l5 -35v-245l-50 -1v342l29 29h342z" />
    <glyph glyph-name="uni2197" unicode="&#x2197;" horiz-adv-x="608" 
d="M499 484l29 -29v-342l-50 1v245l5 35l-8 4l-23 -27l-383 -383l-37 37l383 383l27 23l-4 8l-35 -5h-245l-1 50h342z" />
    <glyph glyph-name="uni2198" unicode="&#x2198;" horiz-adv-x="608" 
d="M158 50h245l35 -5l4 8l-27 23l-383 383l37 37l383 -383l23 -27l8 4l-5 35v245l50 1v-342l-29 -29h-342z" />
    <glyph glyph-name="uni2199" unicode="&#x2199;" horiz-adv-x="608" 
d="M109 0l-29 29v342l50 -1v-245l-5 -35l8 -4l23 27l383 383l37 -37l-383 -383l-27 -23l4 -8l35 5h245l1 -50h-342z" />
    <glyph glyph-name="partialdiff" unicode="&#x2202;" 
d="M100 384.5q33 58.5 89.5 92t124.5 33.5q51 0 93 -24.5t59 -59.5h9q-13 63 -59 112.5t-110.5 79t-133.5 37.5l16 51q177 -28 271 -143t94 -297q0 -84 -28.5 -147t-82.5 -98t-129 -35q-72 0 -128 33t-87 91.5t-31 131.5v12q0 72 33 130.5zM413.5 62.5q43.5 29.5 67 80
t23.5 111.5q0 58 -26 106t-70 75.5t-96 27.5q-54 0 -98 -28t-69 -75.5t-25 -103.5v-16q0 -59 25 -106t68.5 -74t98.5 -27q58 0 101.5 29.5z" />
    <glyph glyph-name="emptyset" unicode="&#x2205;" horiz-adv-x="640" 
d="M546.5 388.5q35.5 -59.5 35.5 -135.5v-10q0 -74 -33.5 -132.5t-93.5 -91.5t-135 -33q-42 0 -81 11l-39 -91l-48 20l39 90q-62 32 -97.5 91.5t-35.5 135.5v10q0 74 33.5 132.5t93.5 91.5t135 33q42 0 81 -11l39 91l48 -20l-39 -90q62 -32 97.5 -91.5zM135 133.5
q27 -47.5 75 -74.5l172 397q-32 8 -62 8q-59 0 -107.5 -27.5t-76.5 -76t-28 -107.5v-10q0 -62 27 -109.5zM532 253q0 61 -27 108.5t-75 74.5l-172 -396q32 -8 62 -8q59 0 107.5 27t76.5 75.5t28 108.5v10z" />
    <glyph glyph-name="product" unicode="&#x220f;" 
d="M84 700h452v-700h-56v650h-340v-650h-56v700z" />
    <glyph glyph-name="summation" unicode="&#x2211;" 
d="M83 700h454v-48h-384v-8l225 -276v-35l-225 -276v-9h384v-48h-454v46l243 300v8l-243 300v46z" />
    <glyph glyph-name="minus" unicode="&#x2212;" 
d="M519 374v-48h-418v48h418z" />
    <glyph glyph-name="uni2215" unicode="&#x2215;" horiz-adv-x="460" 
d="M408 797l-306 -934h-50l306 934h50z" />
    <glyph glyph-name="radical" unicode="&#x221a;" 
d="M60 371h131l96 -323h8l225 808h56l-239 -856h-93l-96 323h-88v48z" />
    <glyph glyph-name="infinity" unicode="&#x221e;" 
d="M84.5 416q17.5 31 48 50t66.5 19q34 0 60.5 -16.5t41.5 -41.5h18q15 25 41.5 41.5t60.5 16.5q36 0 66.5 -18.5t48.5 -49.5t18 -67q0 -37 -19 -67.5t-50 -48.5t-64 -18q-34 0 -60.5 16t-41.5 41h-18q-15 -25 -41.5 -41t-60.5 -16q-35 0 -65.5 18.5t-48.5 49.5t-18 66
t17.5 66zM260 409q-25 25 -59 25t-58.5 -25t-24.5 -59t24.5 -58.5t58.5 -24.5t59 24.5t25 58.5t-25 59zM360.5 291.5q24.5 -24.5 58.5 -24.5t59 24.5t25 58.5t-25 59t-59 25t-58.5 -25t-24.5 -59t24.5 -58.5z" />
    <glyph glyph-name="integral" unicode="&#x222b;" 
d="M317.5 -182.5q-17.5 -17.5 -45.5 -17.5h-110v44h96q27 0 27 30v762q0 29 17.5 46.5t45.5 17.5h111v-44h-97q-27 0 -27 -30v-762q0 -29 -17.5 -46.5z" />
    <glyph glyph-name="approxequal" unicode="&#x2248;" 
d="M351 402.5q7 -7.5 19 -7.5q9 0 14 3t15 11l81 71l32 -35l-75 -64q-20 -18 -36 -27t-34 -9q-27 0 -42.5 14.5t-35.5 46.5q-12 20 -19 27.5t-19 7.5q-9 0 -14 -3t-15 -11l-81 -71l-32 35l75 64q20 18 36 27t34 9q27 0 42.5 -14.5t35.5 -46.5q12 -20 19 -27.5zM351 252.5
q7 -7.5 19 -7.5q9 0 14 3t15 11l81 71l32 -35l-75 -64q-20 -18 -36 -27t-34 -9q-27 0 -42.5 14.5t-35.5 46.5q-12 20 -19 27.5t-19 7.5q-9 0 -14 -3t-15 -11l-81 -71l-32 35l75 64q20 18 36 27t34 9q27 0 42.5 -14.5t35.5 -46.5q12 -20 19 -27.5z" />
    <glyph glyph-name="notequal" unicode="&#x2260;" 
d="M101 437h213l36 110l45 -14l-32 -96h156v-47h-170l-27 -79h197v-48h-211l-41 -126l-47 15l37 111h-156v48h171l26 79h-197v47z" />
    <glyph glyph-name="lessequal" unicode="&#x2264;" 
d="M100 384l420 186v-63l-364 -153v-8l364 -153v-63l-420 186v68zM99 51h422v-51h-422v51z" />
    <glyph glyph-name="greaterequal" unicode="&#x2265;" 
d="M100 130v63l365 153v8l-365 153v63l420 -186v-68zM99 0v51h422v-51h-422z" />
    <glyph glyph-name="lozenge" unicode="&#x25ca;" 
d="M271 700h78l204 -350l-204 -350h-78l-204 350zM306 38h8l179 312l-179 312h-8l-179 -312z" />
    <glyph glyph-name="uniE132" unicode="&#xe132;" horiz-adv-x="436" 
d="M132 0h-50v484h50v-484zM193 700l-71 -130h-56l58 130h69zM337 -182.5q-17 -17.5 -47 -17.5h-116v44h102q28 0 28 30v610h50v-618q0 -31 -17 -48.5zM415 700l-71 -130h-56l58 130h69z" />
    <glyph glyph-name="uniE133" unicode="&#xe133;" horiz-adv-x="588" 
d="M203 880l-80 -110h-57l69 110h68zM567 880l-80 -110h-57l69 110h68zM141 700v-326h-54v326h54zM505 210q0 -110 -51 -167t-153 -57q-101 0 -157.5 57.5t-56.5 166.5v17h54v-17q0 -80 41 -128t121 -48t114 46.5t34 129.5v490h54v-490z" />
    <glyph glyph-name="NULL" horiz-adv-x="600" 
 />
    <glyph glyph-name="i.loclTRK" horiz-adv-x="214" 
d="M132 0h-50v484h50v-484zM70.5 677.5q14.5 14.5 36.5 14.5t36.5 -14.5t14.5 -36.5t-14.5 -36.5t-36.5 -14.5t-36.5 14.5t-14.5 36.5t14.5 36.5z" />
    <glyph glyph-name="zero.lf" horiz-adv-x="624" 
d="M128.5 641q64.5 73 183.5 73t183.5 -73t64.5 -213v-156q0 -140 -64.5 -213t-183.5 -73t-183.5 73t-64.5 213v156q0 140 64.5 213zM167 95q49 -61 145 -61t145 61t49 173v164q0 112 -49 173t-145 61t-145 -61t-49 -173v-164q0 -112 49 -173z" />
    <glyph glyph-name="one.lf" horiz-adv-x="387" 
d="M305 700l-2 -700h-54v640h-12l-161 -236h-66l205 296h90z" />
    <glyph glyph-name="two.lf" horiz-adv-x="586" 
d="M86 603q32 54 88.5 82.5t126.5 28.5t124.5 -28t84.5 -78.5t30 -116.5q0 -91 -58 -147.5t-168 -85.5q-78 -21 -120.5 -39.5t-66 -52.5t-23.5 -93v-25h438v-48h-494v67q0 73 29 119t80 72t130 45q97 23 147 68.5t50 119.5q0 81 -50.5 128t-132.5 47q-88 0 -140.5 -51
t-52.5 -143v-20h-54v24q0 73 32 127z" />
    <glyph glyph-name="three.lf" horiz-adv-x="580" 
d="M532 651l-254 -219v-10h24q66 0 117.5 -26t81 -75t29.5 -115q0 -63 -30.5 -113.5t-84 -78.5t-119.5 -28q-115 0 -182.5 62.5t-67.5 177.5v35h54v-37q0 -95 52 -142.5t144 -47.5q54 0 95 23t63 62.5t22 88.5q0 80 -52.5 123t-132.5 43h-86v54l255 222h-400v50h472v-49z
" />
    <glyph glyph-name="four.lf" horiz-adv-x="592" 
d="M456 700v-508h124v-48h-124v-144h-54v144h-382v46l343 510h93zM80 192h322v456h-12z" />
    <glyph glyph-name="five.lf" horiz-adv-x="580" 
d="M520 652h-394v-286h12q19 43 62.5 73.5t117.5 30.5q61 0 110 -29t77.5 -83t28.5 -125t-29.5 -127t-84.5 -88t-128 -32q-72 0 -127 29t-85 81.5t-30 121.5v28h52v-24q0 -92 52 -140t138 -48q88 0 137 53t49 146q0 88 -46 139.5t-126 51.5q-61 0 -95.5 -27t-54.5 -67h-84
v370h448v-48z" />
    <glyph glyph-name="six.lf" horiz-adv-x="598" 
d="M516 102q-32 -55 -87 -85.5t-123 -30.5t-123 30t-87 85t-32 127v242q0 72 29.5 127.5t85.5 86t133 30.5q74 0 126 -29t78 -77.5t26 -107.5h-54q0 78 -44.5 122t-131.5 44q-91 0 -142.5 -50t-51.5 -139v-108h12q22 42 68.5 71.5t119.5 29.5q64 0 116.5 -30.5t83 -85.5
t30.5 -126t-32 -126zM208 401q-43 -25 -66.5 -70t-23.5 -103q0 -88 52 -141t136 -53t136 53t52 141q0 58 -23.5 103t-66.5 70t-98 25t-98 -25z" />
    <glyph glyph-name="seven.lf" horiz-adv-x="548" 
d="M528 700v-46l-316 -654h-62l316 650h-448v50h510z" />
    <glyph glyph-name="eight.lf" horiz-adv-x="584" 
d="M86.5 624q28.5 42 81.5 66t124 24t124 -24t81.5 -66t28.5 -96q0 -65 -39 -104.5t-89 -54.5v-12q31 -5 63.5 -25t55.5 -57.5t23 -90.5q0 -58 -31 -103t-87.5 -70t-129.5 -25t-129.5 25t-87.5 70t-31 103q0 53 23 90.5t55.5 57.5t63.5 25v12q-50 15 -89 54.5t-39 104.5
q0 54 28.5 96zM162.5 423q50.5 -37 129.5 -37t129.5 37t50.5 103t-50.5 103t-129.5 37t-129.5 -37t-50.5 -103t50.5 -103zM151.5 73q53.5 -39 140.5 -39t140.5 39t53.5 113t-53.5 113t-140.5 39t-140.5 -39t-53.5 -113t53.5 -113z" />
    <glyph glyph-name="nine.lf" horiz-adv-x="598" 
d="M82 598q32 55 87 85.5t123 30.5t123 -30t87 -85t32 -127v-242q0 -72 -29.5 -127.5t-85.5 -86t-133 -30.5q-74 0 -126 29t-78 77.5t-26 107.5h54q0 -78 44.5 -122t131.5 -44q91 0 142.5 50t51.5 139v108h-12q-22 -42 -68.5 -71.5t-119.5 -29.5q-64 0 -116.5 30.5t-83 85.5
t-30.5 126t32 126zM390 299q43 25 66.5 70t23.5 103q0 88 -52 141t-136 53t-136 -53t-52 -141q0 -58 23.5 -103t66.5 -70t98 -25t98 25z" />
    <glyph glyph-name="gravecomb.case" horiz-adv-x="0" 
d="M-60 770h-57l-80 110h68z" />
    <glyph glyph-name="acutecomb.case" horiz-adv-x="0" 
d="M-62 880l-74 -110h-57l59 110h72z" />
    <glyph glyph-name="uni0302.case" horiz-adv-x="0" 
d="M-190 842h-10l-65 -72h-65l103 110h64l103 -110h-65z" />
    <glyph glyph-name="tildecomb.case" horiz-adv-x="0" 
d="M-288 875q14 11 37 11q22 0 37.5 -11.5t32.5 -36.5q13 -19 18.5 -24.5t14.5 -5.5t14.5 4.5t12.5 15.5l25 38l36 -24l-24 -37q-12 -19 -26 -30t-37 -11q-22 0 -37.5 11.5t-32.5 36.5q-13 19 -18.5 24.5t-14.5 5.5t-14.5 -4.5t-12.5 -15.5l-25 -38l-36 24l24 37
q12 19 26 30z" />
    <glyph glyph-name="uni0304.case" horiz-adv-x="0" 
d="M-60 770h-275v44h275v-44z" />
    <glyph glyph-name="uni0306.case" horiz-adv-x="0" 
d="M-60 868q0 -48 -30.5 -76t-78.5 -28t-78.5 28t-30.5 76v12h48v-6q0 -28 16 -45t45 -17t45 17t16 45v6h48v-12z" />
    <glyph glyph-name="uni0307.case" horiz-adv-x="0" 
d="M-147.5 852.5q14.5 14.5 36.5 14.5t36.5 -14.5t14.5 -36.5t-14.5 -36.5t-36.5 -14.5t-36.5 14.5t-14.5 36.5t14.5 36.5z" />
    <glyph glyph-name="uni0308.case" horiz-adv-x="0" 
d="M-313.5 852.5q14.5 14.5 36.5 14.5t36.5 -14.5t14.5 -36.5t-14.5 -36.5t-36.5 -14.5t-36.5 14.5t-14.5 36.5t14.5 36.5zM-147.5 852.5q14.5 14.5 36.5 14.5t36.5 -14.5t14.5 -36.5t-14.5 -36.5t-36.5 -14.5t-36.5 14.5t-14.5 36.5t14.5 36.5z" />
    <glyph glyph-name="uni030A.case" horiz-adv-x="0" 
d="M-224.5 903.5q27.5 26.5 68.5 26.5t68.5 -26.5t27.5 -66.5t-27.5 -66.5t-68.5 -26.5t-68.5 26.5t-27.5 66.5t27.5 66.5zM-193 800.5q14 -14.5 37 -14.5q22 0 36.5 14.5t14.5 36.5q0 23 -14.5 37t-36.5 14q-23 0 -37 -14t-14 -37q0 -22 14 -36.5z" />
    <glyph glyph-name="uni030B.case" horiz-adv-x="0" 
d="M-170 880l-80 -110h-57l69 110h68zM-60 880l-80 -110h-57l69 110h68z" />
    <glyph glyph-name="uni030C.case" horiz-adv-x="0" 
d="M-60 880l-103 -110h-64l-103 110h65l65 -72h10l65 72h65z" />
    <glyph glyph-name="zero.zero" horiz-adv-x="624" 
d="M495.5 641q64.5 -73 64.5 -213v-156q0 -140 -64.5 -213t-183.5 -73t-183.5 73t-64.5 213v156q0 140 64.5 213t183.5 73t183.5 -73zM118 268q0 -18 1 -27l380 267q-14 76 -61.5 117t-125.5 41q-96 0 -145 -61t-49 -173v-164zM506 432q0 18 -1 27l-380 -267
q14 -76 61.5 -117t125.5 -41q96 0 145 61t49 173v164z" />
    <glyph glyph-name="zero.dnom" horiz-adv-x="376" 
d="M70.5 321.5q42.5 42.5 117.5 42.5q74 0 117 -43t43 -117v-59q0 -74 -42 -116.5t-118 -42.5q-75 0 -117.5 42.5t-42.5 116.5v59q0 75 42.5 117.5zM105 58.5q29 -30.5 83 -30.5t83 30.5t29 82.5v68q0 52 -29 82.5t-83 30.5t-83 -30.5t-29 -82.5v-68q0 -52 29 -82.5z" />
    <glyph glyph-name="one.dnom" horiz-adv-x="250" 
d="M192 350v-350h-48v280h-10l-66 -86h-50v10l115 146h59z" />
    <glyph glyph-name="two.dnom" horiz-adv-x="362" 
d="M294 331.5q42 -32.5 42 -86.5q0 -52 -32.5 -79t-99.5 -43q-63 -15 -92.5 -33.5t-35.5 -47.5h258v-42h-308v22q0 103 144 136q64 15 91 33.5t27 53.5q0 34 -28 55.5t-74 21.5q-52 0 -81.5 -26t-30.5 -74h-48q1 66 45.5 104t114.5 38q66 0 108 -32.5z" />
    <glyph glyph-name="three.dnom" horiz-adv-x="368" 
d="M340 316l-132 -92v-10q59 -2 96.5 -29t37.5 -78q0 -53 -45.5 -87t-111.5 -34q-73 0 -117 35.5t-44 96.5h48q0 -43 30.5 -66.5t81.5 -23.5q49 0 79.5 21.5t30.5 57.5q0 33 -28.5 52t-81.5 19h-58v36l130 94h-224v42h308v-34z" />
    <glyph glyph-name="four.dnom" horiz-adv-x="382" 
d="M289 350v-218h87v-42h-87v-90h-48v90h-225v38l203 222h70zM76 132h165v168h-10z" />
    <glyph glyph-name="five.dnom" horiz-adv-x="362" 
d="M330 308h-246v-109h10q21 17 44.5 28t64.5 11q60 0 99.5 -33t39.5 -88v-3q0 -56 -42 -92t-112 -36q-69 0 -111.5 34.5t-50.5 88.5h50q6 -34 35.5 -57.5t76.5 -23.5q49 0 77.5 24.5t28.5 62.5q0 36 -27.5 58.5t-71.5 22.5q-58 0 -96 -41h-61v195h292v-42z" />
    <glyph glyph-name="six.dnom" horiz-adv-x="370" 
d="M74.5 326.5q46.5 37.5 116.5 37.5q67 0 107.5 -30t43.5 -79h-48q-3 29 -29.5 48t-73.5 19q-52 0 -83.5 -26t-31.5 -66v-32h10q19 15 43 26.5t70 11.5q62 0 104.5 -33.5t42.5 -89.5q0 -57 -44.5 -92t-114.5 -35t-114.5 34.5t-44.5 90.5v119q0 59 46.5 96.5zM106.5 52
q30.5 -24 80.5 -24t80.5 24t30.5 60t-30.5 59t-80.5 23t-80.5 -23t-30.5 -59t30.5 -60z" />
    <glyph glyph-name="seven.dnom" horiz-adv-x="318" 
d="M308 350v-38l-162 -312h-54l160 308h-242v42h298z" />
    <glyph glyph-name="eight.dnom" horiz-adv-x="372" 
d="M75 337q43 27 111 27t111 -27t43 -70v-3q0 -33 -20.5 -53.5t-46.5 -26.5v-10q29 -7 51 -27t22 -56v-2q0 -45 -43.5 -74t-116.5 -29t-116.5 29t-43.5 74v2q0 36 22 56.5t52 26.5v10q-27 6 -47.5 26.5t-20.5 53.5v3q0 43 43 70zM109 217.5q29 -17.5 77 -17.5t77 17.5
t29 44.5t-28.5 43.5t-77.5 16.5t-77.5 -16.5t-28.5 -43.5t29 -44.5zM104 45q30 -17 82 -17t82 17t30 48t-30 48t-82 17t-82 -17t-30 -48t30 -48z" />
    <glyph glyph-name="nine.dnom" horiz-adv-x="370" 
d="M297 23.5q-45 -37.5 -114 -37.5q-64 0 -104 28t-48 76h50q7 -27 32 -44.5t70 -17.5q50 0 80.5 26t30.5 66v32h-10q-19 -15 -43 -26.5t-70 -11.5q-62 0 -104.5 33.5t-42.5 89.5q0 57 44.5 92t114.5 35t114.5 -34.5t44.5 -90.5v-119q0 -59 -45 -96.5zM263.5 298
q-30.5 24 -80.5 24t-80.5 -24t-30.5 -60t30.5 -59t80.5 -23t80.5 23t30.5 59t-30.5 60z" />
    <glyph glyph-name="zero.numr" horiz-adv-x="376" 
d="M70.5 671.5q42.5 42.5 117.5 42.5q74 0 117 -43t43 -117v-59q0 -74 -42 -116.5t-118 -42.5q-75 0 -117.5 42.5t-42.5 116.5v59q0 75 42.5 117.5zM105 408.5q29 -30.5 83 -30.5t83 30.5t29 82.5v68q0 52 -29 82.5t-83 30.5t-83 -30.5t-29 -82.5v-68q0 -52 29 -82.5z" />
    <glyph glyph-name="one.numr" horiz-adv-x="250" 
d="M192 700v-350h-48v280h-10l-66 -86h-50v10l115 146h59z" />
    <glyph glyph-name="two.numr" horiz-adv-x="362" 
d="M294 681.5q42 -32.5 42 -86.5q0 -52 -32.5 -79t-99.5 -43q-63 -15 -92.5 -33.5t-35.5 -47.5h258v-42h-308v22q0 103 144 136q64 15 91 33.5t27 53.5q0 34 -28 55.5t-74 21.5q-52 0 -81.5 -26t-30.5 -74h-48q1 66 45.5 104t114.5 38q66 0 108 -32.5z" />
    <glyph glyph-name="three.numr" horiz-adv-x="368" 
d="M340 666l-132 -92v-10q59 -2 96.5 -29t37.5 -78q0 -53 -45.5 -87t-111.5 -34q-73 0 -117 35.5t-44 96.5h48q0 -43 30.5 -66.5t81.5 -23.5q49 0 79.5 21.5t30.5 57.5q0 33 -28.5 52t-81.5 19h-58v36l130 94h-224v42h308v-34z" />
    <glyph glyph-name="four.numr" horiz-adv-x="382" 
d="M289 700v-218h87v-42h-87v-90h-48v90h-225v38l203 222h70zM76 482h165v168h-10z" />
    <glyph glyph-name="five.numr" horiz-adv-x="362" 
d="M330 658h-246v-109h10q21 17 44.5 28t64.5 11q60 0 99.5 -33t39.5 -88v-3q0 -56 -42 -92t-112 -36q-69 0 -111.5 34.5t-50.5 88.5h50q6 -34 35.5 -57.5t76.5 -23.5q49 0 77.5 24.5t28.5 62.5q0 36 -27.5 58.5t-71.5 22.5q-58 0 -96 -41h-61v195h292v-42z" />
    <glyph glyph-name="six.numr" horiz-adv-x="370" 
d="M74.5 676.5q46.5 37.5 116.5 37.5q67 0 107.5 -30t43.5 -79h-48q-3 29 -29.5 48t-73.5 19q-52 0 -83.5 -26t-31.5 -66v-32h10q19 15 43 26.5t70 11.5q62 0 104.5 -33.5t42.5 -89.5q0 -57 -44.5 -92t-114.5 -35t-114.5 34.5t-44.5 90.5v119q0 59 46.5 96.5zM106.5 402
q30.5 -24 80.5 -24t80.5 24t30.5 60t-30.5 59t-80.5 23t-80.5 -23t-30.5 -59t30.5 -60z" />
    <glyph glyph-name="seven.numr" horiz-adv-x="318" 
d="M308 700v-38l-162 -312h-54l160 308h-242v42h298z" />
    <glyph glyph-name="eight.numr" horiz-adv-x="372" 
d="M75 687q43 27 111 27t111 -27t43 -70v-3q0 -33 -20.5 -53.5t-46.5 -26.5v-10q29 -7 51 -27t22 -56v-2q0 -45 -43.5 -74t-116.5 -29t-116.5 29t-43.5 74v2q0 36 22 56.5t52 26.5v10q-27 6 -47.5 26.5t-20.5 53.5v3q0 43 43 70zM109 567.5q29 -17.5 77 -17.5t77 17.5
t29 44.5t-28.5 43.5t-77.5 16.5t-77.5 -16.5t-28.5 -43.5t29 -44.5zM104 395q30 -17 82 -17t82 17t30 48t-30 48t-82 17t-82 -17t-30 -48t30 -48z" />
    <glyph glyph-name="nine.numr" horiz-adv-x="380" 
d="M303 373.5q-45 -37.5 -114 -37.5q-64 0 -104 28t-48 76h50q7 -27 32 -44.5t70 -17.5q50 0 80.5 26t30.5 66v32h-10q-19 -15 -43 -26.5t-70 -11.5q-62 0 -104.5 33.5t-42.5 89.5q0 57 44.5 92t114.5 35t114.5 -34.5t44.5 -90.5v-119q0 -59 -45 -96.5zM269.5 648
q-30.5 24 -80.5 24t-80.5 -24t-30.5 -60t30.5 -59t80.5 -23t80.5 23t30.5 59t-30.5 60z" />
    <glyph glyph-name="zero.subs" horiz-adv-x="376" 
d="M70.5 121.5q42.5 42.5 117.5 42.5q74 0 117 -43t43 -117v-59q0 -74 -42 -116.5t-118 -42.5q-75 0 -117.5 42.5t-42.5 116.5v59q0 75 42.5 117.5zM105 -141.5q29 -30.5 83 -30.5t83 30.5t29 82.5v68q0 52 -29 82.5t-83 30.5t-83 -30.5t-29 -82.5v-68q0 -52 29 -82.5z" />
    <glyph glyph-name="one.subs" horiz-adv-x="250" 
d="M192 150v-350h-48v280h-10l-66 -86h-50v10l115 146h59z" />
    <glyph glyph-name="two.subs" horiz-adv-x="362" 
d="M294 131.5q42 -32.5 42 -86.5q0 -52 -32.5 -79t-99.5 -43q-63 -15 -92.5 -33.5t-35.5 -47.5h258v-42h-308v22q0 103 144 136q64 15 91 33.5t27 53.5q0 34 -28 55.5t-74 21.5q-52 0 -81.5 -26t-30.5 -74h-48q1 66 45.5 104t114.5 38q66 0 108 -32.5z" />
    <glyph glyph-name="three.subs" horiz-adv-x="368" 
d="M340 116l-132 -92v-10q59 -2 96.5 -29t37.5 -78q0 -53 -45.5 -87t-111.5 -34q-73 0 -117 35.5t-44 96.5h48q0 -43 30.5 -66.5t81.5 -23.5q49 0 79.5 21.5t30.5 57.5q0 33 -28.5 52t-81.5 19h-58v36l130 94h-224v42h308v-34z" />
    <glyph glyph-name="four.subs" horiz-adv-x="382" 
d="M289 150v-218h87v-42h-87v-90h-48v90h-225v38l203 222h70zM76 -68h165v168h-10z" />
    <glyph glyph-name="five.subs" horiz-adv-x="362" 
d="M330 108h-246v-109h10q21 17 44.5 28t64.5 11q60 0 99.5 -33t39.5 -88v-3q0 -56 -42 -92t-112 -36q-69 0 -111.5 34.5t-50.5 88.5h50q6 -34 35.5 -57.5t76.5 -23.5q49 0 77.5 24.5t28.5 62.5q0 36 -27.5 58.5t-71.5 22.5q-58 0 -96 -41h-61v195h292v-42z" />
    <glyph glyph-name="six.subs" horiz-adv-x="370" 
d="M74.5 126.5q46.5 37.5 116.5 37.5q67 0 107.5 -30t43.5 -79h-48q-3 29 -29.5 48t-73.5 19q-52 0 -83.5 -26t-31.5 -66v-32h10q19 15 43 26.5t70 11.5q62 0 104.5 -33.5t42.5 -89.5q0 -57 -44.5 -92t-114.5 -35t-114.5 34.5t-44.5 90.5v119q0 59 46.5 96.5zM106.5 -148
q30.5 -24 80.5 -24t80.5 24t30.5 60t-30.5 59t-80.5 23t-80.5 -23t-30.5 -59t30.5 -60z" />
    <glyph glyph-name="seven.subs" horiz-adv-x="318" 
d="M308 150v-38l-162 -312h-54l160 308h-242v42h298z" />
    <glyph glyph-name="eight.subs" horiz-adv-x="372" 
d="M75 137q43 27 111 27t111 -27t43 -70v-3q0 -33 -20.5 -53.5t-46.5 -26.5v-10q29 -7 51 -27t22 -56v-2q0 -45 -43.5 -74t-116.5 -29t-116.5 29t-43.5 74v2q0 36 22 56.5t52 26.5v10q-27 6 -47.5 26.5t-20.5 53.5v3q0 43 43 70zM109 17.5q29 -17.5 77 -17.5t77 17.5
t29 44.5t-28.5 43.5t-77.5 16.5t-77.5 -16.5t-28.5 -43.5t29 -44.5zM104 -155q30 -17 82 -17t82 17t30 48t-30 48t-82 17t-82 -17t-30 -48t30 -48z" />
    <glyph glyph-name="nine.subs" horiz-adv-x="370" 
d="M297 -176.5q-45 -37.5 -114 -37.5q-64 0 -104 28t-48 76h50q7 -27 32 -44.5t70 -17.5q50 0 80.5 26t30.5 66v32h-10q-19 -15 -43 -26.5t-70 -11.5q-62 0 -104.5 33.5t-42.5 89.5q0 57 44.5 92t114.5 35t114.5 -34.5t44.5 -90.5v-119q0 -59 -45 -96.5zM263.5 98
q-30.5 24 -80.5 24t-80.5 -24t-30.5 -60t30.5 -59t80.5 -23t80.5 23t30.5 59t-30.5 60z" />
    <glyph glyph-name="at.case" horiz-adv-x="1000" 
d="M143.5 722.5q47.5 47.5 140.5 47.5h436q93 0 140.5 -47.5t47.5 -140.5v-380q0 -88 -88 -88h-93q-34 0 -51 17.5t-17 48.5v25h-10q-15 -40 -54.5 -72.5t-108.5 -32.5q-58 0 -105.5 31t-75.5 86.5t-28 125.5v18q0 70 28 125.5t75.5 86.5t105.5 31q69 0 108.5 -33t54.5 -74
h10v93h48v-410q0 -12 5.5 -17t17.5 -5h82q25 0 35.5 10.5t10.5 35.5v384q0 136 -136 136h-440q-136 0 -136 -136v-476q0 -136 136 -136h606v-46h-604q-93 0 -140.5 47.5t-47.5 140.5v464q0 93 47.5 140.5zM408 533.5q-37 -24.5 -58 -70t-21 -105.5v-12q0 -60 21 -105.5
t58 -70t85 -24.5q73 0 118.5 54t45.5 147v10q0 93 -45.5 147t-118.5 54q-48 0 -85 -24.5z" />
    <glyph glyph-name="hyphen.case" horiz-adv-x="460" 
d="M82 371h296v-48h-296v48z" />
    <glyph glyph-name="endash.case" horiz-adv-x="612" 
d="M82 371h448v-48h-448v48z" />
    <glyph glyph-name="emdash.case" horiz-adv-x="916" 
d="M82 371h752v-48h-752v48z" />
    <glyph glyph-name="slash.case" horiz-adv-x="420" 
d="M368 737l-260 -778h-56l260 778h56z" />
    <glyph glyph-name="backslash.case" horiz-adv-x="420" 
d="M368 -41h-56l-260 778h56z" />
    <glyph glyph-name="parenright.case" horiz-adv-x="390" 
d="M181 -104q-59 -60 -161 -60v48q84 2 125 51.5t41 152.5v512q0 103 -41 152.5t-125 51.5v48q102 0 161 -60t59 -188v-520q0 -128 -59 -188z" />
    <glyph glyph-name="bracketleft.case" horiz-adv-x="350" 
d="M168 831.5q18 18.5 45 18.5h97v-48h-79q-27 0 -27 -30v-856q0 -30 27 -30h79v-48h-97q-27 0 -45 18.5t-18 45.5v884q0 27 18 45.5z" />
    <glyph glyph-name="bracketright.case" horiz-adv-x="350" 
d="M182 -143.5q-18 -18.5 -45 -18.5h-97v48h79q27 0 27 30v856q0 30 -27 30h-79v48h97q27 0 45 -18.5t18 -45.5v-884q0 -27 -18 -45.5z" />
    <glyph glyph-name="braceleft.case" horiz-adv-x="369" 
d="M169 410v376q0 27 18 45.5t45 18.5h97v-48h-79q-27 0 -27 -30v-350q0 -34 -17.5 -53.5t-50.5 -19.5h-5v-10h5q33 0 50.5 -19.5t17.5 -53.5v-350q0 -30 27 -30h79v-48h-97q-27 0 -45 18.5t-18 45.5v376q0 29 -27 29h-52v74h52q27 0 27 29z" />
    <glyph glyph-name="braceright.case" horiz-adv-x="369" 
d="M227 307q-27 0 -27 -29v-376q0 -27 -18 -45.5t-45 -18.5h-97v48h79q27 0 27 30v350q0 34 17.5 53.5t50.5 19.5h5v10h-5q-33 0 -50.5 19.5t-17.5 53.5v350q0 30 -27 30h-79v48h97q27 0 45 -18.5t18 -45.5v-376q0 -29 27 -29h52v-74h-52z" />
    <glyph glyph-name="guilsinglleft.case" horiz-adv-x="480" 
d="M396 555h6v-60l-284 -153v-8l284 -153v-60h-6l-322 186v62z" />
    <glyph glyph-name="guilsinglright.case" horiz-adv-x="480" 
d="M406 307l-322 -186h-6v60l285 153v8l-285 153v60h6l322 -186v-62z" />
    <glyph glyph-name="zero.sups" horiz-adv-x="376" 
d="M70.5 671.5q42.5 42.5 117.5 42.5q74 0 117 -43t43 -117v-59q0 -74 -42 -116.5t-118 -42.5q-75 0 -117.5 42.5t-42.5 116.5v59q0 75 42.5 117.5zM105 408.5q29 -30.5 83 -30.5t83 30.5t29 82.5v68q0 52 -29 82.5t-83 30.5t-83 -30.5t-29 -82.5v-68q0 -52 29 -82.5z" />
    <glyph glyph-name="one.sups" horiz-adv-x="250" 
d="M192 700v-350h-48v280h-10l-66 -86h-50v10l115 146h59z" />
    <glyph glyph-name="two.sups" horiz-adv-x="362" 
d="M294 681.5q42 -32.5 42 -86.5q0 -52 -32.5 -79t-99.5 -43q-63 -15 -92.5 -33.5t-35.5 -47.5h258v-42h-308v22q0 103 144 136q64 15 91 33.5t27 53.5q0 34 -28 55.5t-74 21.5q-52 0 -81.5 -26t-30.5 -74h-48q1 66 45.5 104t114.5 38q66 0 108 -32.5z" />
    <glyph glyph-name="three.sups" horiz-adv-x="368" 
d="M340 666l-132 -92v-10q59 -2 96.5 -29t37.5 -78q0 -53 -45.5 -87t-111.5 -34q-73 0 -117 35.5t-44 96.5h48q0 -43 30.5 -66.5t81.5 -23.5q49 0 79.5 21.5t30.5 57.5q0 33 -28.5 52t-81.5 19h-58v36l130 94h-224v42h308v-34z" />
    <glyph glyph-name="four.sups" horiz-adv-x="382" 
d="M289 700v-218h87v-42h-87v-90h-48v90h-225v38l203 222h70zM76 482h165v168h-10z" />
    <glyph glyph-name="five.sups" horiz-adv-x="362" 
d="M330 658h-246v-109h10q21 17 44.5 28t64.5 11q60 0 99.5 -33t39.5 -88v-3q0 -56 -42 -92t-112 -36q-69 0 -111.5 34.5t-50.5 88.5h50q6 -34 35.5 -57.5t76.5 -23.5q49 0 77.5 24.5t28.5 62.5q0 36 -27.5 58.5t-71.5 22.5q-58 0 -96 -41h-61v195h292v-42z" />
    <glyph glyph-name="six.sups" horiz-adv-x="370" 
d="M74.5 676.5q46.5 37.5 116.5 37.5q67 0 107.5 -30t43.5 -79h-48q-3 29 -29.5 48t-73.5 19q-52 0 -83.5 -26t-31.5 -66v-32h10q19 15 43 26.5t70 11.5q62 0 104.5 -33.5t42.5 -89.5q0 -57 -44.5 -92t-114.5 -35t-114.5 34.5t-44.5 90.5v119q0 59 46.5 96.5zM106.5 402
q30.5 -24 80.5 -24t80.5 24t30.5 60t-30.5 59t-80.5 23t-80.5 -23t-30.5 -59t30.5 -60z" />
    <glyph glyph-name="seven.sups" horiz-adv-x="318" 
d="M308 700v-38l-162 -312h-54l160 308h-242v42h298z" />
    <glyph glyph-name="eight.sups" horiz-adv-x="372" 
d="M75 687q43 27 111 27t111 -27t43 -70v-3q0 -33 -20.5 -53.5t-46.5 -26.5v-10q29 -7 51 -27t22 -56v-2q0 -45 -43.5 -74t-116.5 -29t-116.5 29t-43.5 74v2q0 36 22 56.5t52 26.5v10q-27 6 -47.5 26.5t-20.5 53.5v3q0 43 43 70zM109 567.5q29 -17.5 77 -17.5t77 17.5
t29 44.5t-28.5 43.5t-77.5 16.5t-77.5 -16.5t-28.5 -43.5t29 -44.5zM104 395q30 -17 82 -17t82 17t30 48t-30 48t-82 17t-82 -17t-30 -48t30 -48z" />
    <glyph glyph-name="nine.sups" horiz-adv-x="380" 
d="M303 373.5q-45 -37.5 -114 -37.5q-64 0 -104 28t-48 76h50q7 -27 32 -44.5t70 -17.5q50 0 80.5 26t30.5 66v32h-10q-19 -15 -43 -26.5t-70 -11.5q-62 0 -104.5 33.5t-42.5 89.5q0 57 44.5 92t114.5 35t114.5 -34.5t44.5 -90.5v-119q0 -59 -45 -96.5zM269.5 648
q-30.5 24 -80.5 24t-80.5 -24t-30.5 -60t30.5 -59t80.5 -23t80.5 23t30.5 59t-30.5 60z" />
    <glyph glyph-name="A.ss03" horiz-adv-x="608" 
d="M352 700l236 -700h-59l-62 190h-326l-62 -190h-59l236 700h96zM451 238l-142 432h-10l-142 -432h294z" />
    <glyph glyph-name="Aacute.ss03" horiz-adv-x="608" 
d="M352 700l236 -700h-59l-62 190h-326l-62 -190h-59l236 700h96zM451 238l-142 432h-10l-142 -432h294zM391 880l-74 -110h-57l59 110h72z" />
    <glyph glyph-name="Abreve.ss03" horiz-adv-x="608" 
d="M352 700l236 -700h-59l-62 190h-326l-62 -190h-59l236 700h96zM451 238l-142 432h-10l-142 -432h294zM413 868q0 -48 -30.5 -76t-78.5 -28t-78.5 28t-30.5 76v12h48v-6q0 -28 16 -45t45 -17t45 17t16 45v6h48v-12z" />
    <glyph glyph-name="Acircumflex.ss03" horiz-adv-x="608" 
d="M352 700l236 -700h-59l-62 190h-326l-62 -190h-59l236 700h96zM451 238l-142 432h-10l-142 -432h294zM309 842h-10l-65 -72h-65l103 110h64l103 -110h-65z" />
    <glyph glyph-name="Adieresis.ss03" horiz-adv-x="608" 
d="M352 700l236 -700h-59l-62 190h-326l-62 -190h-59l236 700h96zM451 238l-142 432h-10l-142 -432h294zM184.5 852.5q14.5 14.5 36.5 14.5t36.5 -14.5t14.5 -36.5t-14.5 -36.5t-36.5 -14.5t-36.5 14.5t-14.5 36.5t14.5 36.5zM350.5 852.5q14.5 14.5 36.5 14.5t36.5 -14.5
t14.5 -36.5t-14.5 -36.5t-36.5 -14.5t-36.5 14.5t-14.5 36.5t14.5 36.5z" />
    <glyph glyph-name="Agrave.ss03" horiz-adv-x="608" 
d="M352 700l236 -700h-59l-62 190h-326l-62 -190h-59l236 700h96zM451 238l-142 432h-10l-142 -432h294zM352 770h-57l-80 110h68z" />
    <glyph glyph-name="Amacron.ss03" horiz-adv-x="608" 
d="M352 700l236 -700h-59l-62 190h-326l-62 -190h-59l236 700h96zM451 238l-142 432h-10l-142 -432h294zM442 770h-275v44h275v-44z" />
    <glyph glyph-name="Aogonek.ss03" horiz-adv-x="608" 
d="M627 -115v-46h-44q-32 0 -49 16t-17 47q0 16 3.5 33.5l4.5 22.5l8 42h-4l-62 190h-326l-62 -190h-59l236 700h96l236 -700h-7l-13 -70q-3 -20 -3 -26q0 -19 21 -19h41zM157 238h294l-142 432h-10z" />
    <glyph glyph-name="Aring.ss03" horiz-adv-x="608" 
d="M352 700l236 -700h-59l-62 190h-326l-62 -190h-59l236 700h96zM451 238l-142 432h-10l-142 -432h294zM235.5 903.5q27.5 26.5 68.5 26.5t68.5 -26.5t27.5 -66.5t-27.5 -66.5t-68.5 -26.5t-68.5 26.5t-27.5 66.5t27.5 66.5zM267 800.5q14 -14.5 37 -14.5q22 0 36.5 14.5
t14.5 36.5q0 23 -14.5 37t-36.5 14q-23 0 -37 -14t-14 -37q0 -22 14 -36.5z" />
    <glyph glyph-name="Aringacute.ss03" horiz-adv-x="608" 
d="M235.5 770.5q-27.5 26.5 -27.5 66.5t27.5 66.5t68.5 26.5q8 0 12 -1l38 71h72l-61 -90q35 -27 35 -73q0 -40 -27.5 -66.5t-68.5 -26.5t-68.5 26.5zM267.5 874q-14.5 -14 -14.5 -37q0 -22 14.5 -36.5t36.5 -14.5q23 0 37 14.5t14 36.5q0 23 -14 37t-37 14q-22 0 -36.5 -14
zM352 700l236 -700h-59l-62 190h-326l-62 -190h-59l236 700h96zM157 238h294l-142 432h-10z" />
    <glyph glyph-name="Atilde.ss03" horiz-adv-x="608" 
d="M352 700l236 -700h-59l-62 190h-326l-62 -190h-59l236 700h96zM451 238l-142 432h-10l-142 -432h294zM217 875q14 11 37 11q22 0 37.5 -11.5t32.5 -36.5q13 -19 18.5 -24.5t14.5 -5.5t14.5 4.5t12.5 15.5l25 38l36 -24l-24 -37q-12 -19 -26 -30t-37 -11q-22 0 -37.5 11.5
t-32.5 36.5q-13 19 -18.5 24.5t-14.5 5.5t-14.5 -4.5t-12.5 -15.5l-25 -38l-36 24l24 37q12 19 26 30z" />
    <glyph glyph-name="AE.ss03" horiz-adv-x="688" 
d="M400 48h240v-48h-294v190h-193l-73 -190h-60l272 700h344v-48h-236v-277h212v-48h-212v-279zM346 238v432h-10l-165 -432h175z" />
    <glyph glyph-name="AEacute.ss03" horiz-adv-x="688" 
d="M400 48h240v-48h-294v190h-193l-73 -190h-60l272 700h344v-48h-236v-277h212v-48h-212v-279zM346 238v432h-10l-165 -432h175zM467 880l-74 -110h-57l59 110h72z" />
    <glyph glyph-name="M.ss03" horiz-adv-x="864" 
d="M191 700l236 -670h10l236 670h109v-700h-54v670h-10l-236 -670h-100l-236 670h-10v-670h-54v700h109z" />
    <glyph glyph-name="N.ss03" horiz-adv-x="650" 
d="M190 700l314 -670h10v670h54v-700h-108l-314 670h-10v-670h-54v700h108z" />
    <glyph glyph-name="Nacute.ss03" horiz-adv-x="650" 
d="M190 700l314 -670h10v670h54v-700h-108l-314 670h-10v-670h-54v700h108zM417 880l-74 -110h-57l59 110h72z" />
    <glyph glyph-name="Ncaron.ss03" horiz-adv-x="650" 
d="M190 700l314 -670h10v670h54v-700h-108l-314 670h-10v-670h-54v700h108zM465 880l-103 -110h-64l-103 110h65l65 -72h10l65 72h65z" />
    <glyph glyph-name="uni0145.ss03" horiz-adv-x="650" 
d="M190 700l314 -670h10v670h54v-700h-108l-314 670h-10v-670h-54v700h108zM288.5 -65.5q15.5 15.5 39.5 15.5t39.5 -15.5t15.5 -39.5v-76q0 -32 -18.5 -48.5t-50.5 -16.5h-39v36h41q27 0 27 26v28q-6 -2 -17 -2q-23 0 -38 15t-15 38q0 24 15.5 39.5z" />
    <glyph glyph-name="Eng.ss03" horiz-adv-x="650" 
d="M568 700v-770q0 -130 -131 -130h-111v50h118q37 0 52.5 16.5t15.5 49.5v84h-52l-314 670h-10v-670h-54v700h108l314 -670h10v670h54z" />
    <glyph glyph-name="Ntilde.ss03" horiz-adv-x="650" 
d="M190 700l314 -670h10v670h54v-700h-108l-314 670h-10v-670h-54v700h108zM243 875q14 11 37 11q22 0 37.5 -11.5t32.5 -36.5q13 -19 18.5 -24.5t14.5 -5.5t14.5 4.5t12.5 15.5l25 38l36 -24l-24 -37q-12 -19 -26 -30t-37 -11q-22 0 -37.5 11.5t-32.5 36.5
q-13 19 -18.5 24.5t-14.5 5.5t-14.5 -4.5t-12.5 -15.5l-25 -38l-36 24l24 37q12 19 26 30z" />
    <glyph glyph-name="V.ss03" horiz-adv-x="608" 
d="M79 700l220 -670h10l220 670h59l-234 -700h-100l-234 700h59z" />
    <glyph glyph-name="W.ss03" horiz-adv-x="872" 
d="M96 700l122 -670h10l156 670h104l156 -670h10l122 670h57l-131 -700h-105l-156 670h-10l-156 -670h-105l-131 700h57z" />
    <glyph glyph-name="Wacute.ss03" horiz-adv-x="872" 
d="M96 700l122 -670h10l156 670h104l156 -670h10l122 670h57l-131 -700h-105l-156 670h-10l-156 -670h-105l-131 700h57zM523 880l-74 -110h-57l59 110h72z" />
    <glyph glyph-name="Wcircumflex.ss03" horiz-adv-x="872" 
d="M96 700l122 -670h10l156 670h104l156 -670h10l122 670h57l-131 -700h-105l-156 670h-10l-156 -670h-105l-131 700h57zM441 842h-10l-65 -72h-65l103 110h64l103 -110h-65z" />
    <glyph glyph-name="Wdieresis.ss03" horiz-adv-x="872" 
d="M96 700l122 -670h10l156 670h104l156 -670h10l122 670h57l-131 -700h-105l-156 670h-10l-156 -670h-105l-131 700h57zM316.5 852.5q14.5 14.5 36.5 14.5t36.5 -14.5t14.5 -36.5t-14.5 -36.5t-36.5 -14.5t-36.5 14.5t-14.5 36.5t14.5 36.5zM482.5 852.5
q14.5 14.5 36.5 14.5t36.5 -14.5t14.5 -36.5t-14.5 -36.5t-36.5 -14.5t-36.5 14.5t-14.5 36.5t14.5 36.5z" />
    <glyph glyph-name="Wgrave.ss03" horiz-adv-x="872" 
d="M96 700l122 -670h10l156 670h104l156 -670h10l122 670h57l-131 -700h-105l-156 670h-10l-156 -670h-105l-131 700h57zM484 770h-57l-80 110h68z" />
    <glyph glyph-name="I.ss04" horiz-adv-x="402" 
d="M357 700v-48h-129v-604h129v-48h-312v48h129v604h-129v48h312z" />
    <glyph glyph-name="IJ.ss04" horiz-adv-x="673" 
d="M279 700v-48h-90v-309h-54v309h-90v48h234zM643 652h-90v-442q0 -110 -51 -167t-153 -57q-101 0 -157.5 57.5t-56.5 166.5v17h54v-17q0 -80 41 -128t121 -48t114 46.5t34 129.5v442h-110v48h254v-48z" />
    <glyph glyph-name="Iacute.ss04" horiz-adv-x="402" 
d="M357 700v-48h-129v-604h129v-48h-312v48h129v604h-129v48h312zM288 880l-74 -110h-57l59 110h72z" />
    <glyph glyph-name="Icircumflex.ss04" horiz-adv-x="402" 
d="M357 700v-48h-129v-604h129v-48h-312v48h129v604h-129v48h312zM206 842h-10l-65 -72h-65l103 110h64l103 -110h-65z" />
    <glyph glyph-name="Idieresis.ss04" horiz-adv-x="402" 
d="M357 700v-48h-129v-604h129v-48h-312v48h129v604h-129v48h312zM81.5 852.5q14.5 14.5 36.5 14.5t36.5 -14.5t14.5 -36.5t-14.5 -36.5t-36.5 -14.5t-36.5 14.5t-14.5 36.5t14.5 36.5zM247.5 852.5q14.5 14.5 36.5 14.5t36.5 -14.5t14.5 -36.5t-14.5 -36.5t-36.5 -14.5
t-36.5 14.5t-14.5 36.5t14.5 36.5z" />
    <glyph glyph-name="Idotaccent.ss04" horiz-adv-x="402" 
d="M357 700v-48h-129v-604h129v-48h-312v48h129v604h-129v48h312zM164.5 852.5q14.5 14.5 36.5 14.5t36.5 -14.5t14.5 -36.5t-14.5 -36.5t-36.5 -14.5t-36.5 14.5t-14.5 36.5t14.5 36.5z" />
    <glyph glyph-name="Igrave.ss04" horiz-adv-x="402" 
d="M357 700v-48h-129v-604h129v-48h-312v48h129v604h-129v48h312zM249 770h-57l-80 110h68z" />
    <glyph glyph-name="Imacron.ss04" horiz-adv-x="402" 
d="M357 700v-48h-129v-604h129v-48h-312v48h129v604h-129v48h312zM339 770h-275v44h275v-44z" />
    <glyph glyph-name="Iogonek.ss04" horiz-adv-x="402" 
d="M228 652v-604h129v-48h-132l-13 -70q-3 -20 -3 -26q0 -19 21 -19h41v-46h-44q-32 0 -49 16t-17 47q0 16 3.5 33.5l4.5 22.5l8 42h-132v48h129v604h-129v48h312v-48h-129z" />
    <glyph glyph-name="J.ss04" horiz-adv-x="560" 
d="M530 652h-70v-442q0 -110 -51 -167t-153 -57q-101 0 -157.5 57.5t-56.5 166.5v47h54v-47q0 -80 41 -128t121 -48t114 46.5t34 129.5v442h-124v48h248v-48z" />
    <glyph glyph-name="R.ss05" horiz-adv-x="622" 
d="M515 647.5q61 -52.5 61 -141.5q0 -67 -34 -110t-85 -57v-12q36 -1 60.5 -22.5t24.5 -64.5v-240h-54v234q0 68 -72 68h-280v-302h-54v700h273q99 0 160 -52.5zM349 350q83 0 127 39.5t44 111.5t-44 111.5t-127 39.5h-213v-302h213z" />
    <glyph glyph-name="Racute.ss05" horiz-adv-x="622" 
d="M515 647.5q61 -52.5 61 -141.5q0 -67 -34 -110t-85 -57v-12q36 -1 60.5 -22.5t24.5 -64.5v-240h-54v234q0 68 -72 68h-280v-302h-54v700h273q99 0 160 -52.5zM349 350q83 0 127 39.5t44 111.5t-44 111.5t-127 39.5h-213v-302h213zM398 880l-74 -110h-57l59 110h72z" />
    <glyph glyph-name="Rcaron.ss05" horiz-adv-x="622" 
d="M515 647.5q61 -52.5 61 -141.5q0 -67 -34 -110t-85 -57v-12q36 -1 60.5 -22.5t24.5 -64.5v-240h-54v234q0 68 -72 68h-280v-302h-54v700h273q99 0 160 -52.5zM349 350q83 0 127 39.5t44 111.5t-44 111.5t-127 39.5h-213v-302h213zM446 880l-103 -110h-64l-103 110h65
l65 -72h10l65 72h65z" />
    <glyph glyph-name="uni0156.ss05" horiz-adv-x="622" 
d="M515 647.5q61 -52.5 61 -141.5q0 -67 -34 -110t-85 -57v-12q36 -1 60.5 -22.5t24.5 -64.5v-240h-54v234q0 68 -72 68h-280v-302h-54v700h273q99 0 160 -52.5zM349 350q83 0 127 39.5t44 111.5t-44 111.5t-127 39.5h-213v-302h213zM273.5 -65.5q15.5 15.5 39.5 15.5
t39.5 -15.5t15.5 -39.5v-76q0 -32 -18.5 -48.5t-50.5 -16.5h-39v36h41q27 0 27 26v28q-6 -2 -17 -2q-23 0 -38 15t-15 38q0 24 15.5 39.5z" />
    <glyph glyph-name="uni006A0301" horiz-adv-x="222" 
d="M123 -182.5q-17 -17.5 -47 -17.5h-116v44h102q28 0 28 30v610h50v-618q0 -31 -17 -48.5zM201 700l-71 -130h-56l58 130h69z" />
    <glyph glyph-name="a.ss01" 
d="M490 94h-10q-59 -108 -196 -108q-66 0 -119.5 32t-84 90t-30.5 134t30.5 134t84 90t119.5 32q137 0 196 -108h10v94h48v-484h-48v94zM394 58q44 26 69 73.5t25 110.5t-25 110.5t-69 73.5t-101 26q-86 0 -138.5 -57t-52.5 -153t52.5 -153t138.5 -57q57 0 101 26z" />
    <glyph glyph-name="aacute.ss01" 
d="M490 94h-10q-59 -108 -196 -108q-66 0 -119.5 32t-84 90t-30.5 134t30.5 134t84 90t119.5 32q137 0 196 -108h10v94h48v-484h-48v94zM394 58q44 26 69 73.5t25 110.5t-25 110.5t-69 73.5t-101 26q-86 0 -138.5 -57t-52.5 -153t52.5 -153t138.5 -57q57 0 101 26zM398 700
l-71 -130h-56l58 130h69z" />
    <glyph glyph-name="abreve.ss01" 
d="M490 94h-10q-59 -108 -196 -108q-66 0 -119.5 32t-84 90t-30.5 134t30.5 134t84 90t119.5 32q137 0 196 -108h10v94h48v-484h-48v94zM394 58q44 26 69 73.5t25 110.5t-25 110.5t-69 73.5t-101 26q-86 0 -138.5 -57t-52.5 -153t52.5 -153t138.5 -57q57 0 101 26zM421 672
q0 -50 -30 -79t-79 -29t-79 29t-30 79v28h48v-24q0 -29 16 -46.5t45 -17.5t45 17.5t16 46.5v24h48v-28z" />
    <glyph glyph-name="acircumflex.ss01" 
d="M490 94h-10q-59 -108 -196 -108q-66 0 -119.5 32t-84 90t-30.5 134t30.5 134t84 90t119.5 32q137 0 196 -108h10v94h48v-484h-48v94zM394 58q44 26 69 73.5t25 110.5t-25 110.5t-69 73.5t-101 26q-86 0 -138.5 -57t-52.5 -153t52.5 -153t138.5 -57q57 0 101 26zM317 660
h-10l-69 -90h-61l102 130h66l102 -130h-61z" />
    <glyph glyph-name="adieresis.ss01" 
d="M490 94h-10q-59 -108 -196 -108q-66 0 -119.5 32t-84 90t-30.5 134t30.5 134t84 90t119.5 32q137 0 196 -108h10v94h48v-484h-48v94zM394 58q44 26 69 73.5t25 110.5t-25 110.5t-69 73.5t-101 26q-86 0 -138.5 -57t-52.5 -153t52.5 -153t138.5 -57q57 0 101 26z
M195.5 677.5q14.5 14.5 36.5 14.5t36.5 -14.5t14.5 -36.5t-14.5 -36.5t-36.5 -14.5t-36.5 14.5t-14.5 36.5t14.5 36.5zM355.5 677.5q14.5 14.5 36.5 14.5t36.5 -14.5t14.5 -36.5t-14.5 -36.5t-36.5 -14.5t-36.5 14.5t-14.5 36.5t14.5 36.5z" />
    <glyph glyph-name="agrave.ss01" 
d="M490 94h-10q-59 -108 -196 -108q-66 0 -119.5 32t-84 90t-30.5 134t30.5 134t84 90t119.5 32q137 0 196 -108h10v94h48v-484h-48v94zM394 58q44 26 69 73.5t25 110.5t-25 110.5t-69 73.5t-101 26q-86 0 -138.5 -57t-52.5 -153t52.5 -153t138.5 -57q57 0 101 26zM359 570
h-56l-81 130h65z" />
    <glyph glyph-name="amacron.ss01" 
d="M490 94h-10q-59 -108 -196 -108q-66 0 -119.5 32t-84 90t-30.5 134t30.5 134t84 90t119.5 32q137 0 196 -108h10v94h48v-484h-48v94zM394 58q44 26 69 73.5t25 110.5t-25 110.5t-69 73.5t-101 26q-86 0 -138.5 -57t-52.5 -153t52.5 -153t138.5 -57q57 0 101 26zM450 570
h-275v44h275v-44z" />
    <glyph glyph-name="aogonek.ss01" 
d="M584 -115v-46h-44q-32 0 -49 16t-17 47q0 16 3.5 33.5l4.5 22.5l8 43v93h-10q-59 -108 -196 -108q-66 0 -119.5 32t-84 90t-30.5 134t30.5 134t84 90t119.5 32q137 0 196 -108h10v94h48v-484l-13 -70q-3 -20 -3 -26q0 -19 21 -19h41zM394 58q44 26 69 73.5t25 110.5
t-25 110.5t-69 73.5t-101 26q-86 0 -138.5 -57t-52.5 -153t52.5 -153t138.5 -57q57 0 101 26z" />
    <glyph glyph-name="aring.ss01" 
d="M490 94h-10q-59 -108 -196 -108q-66 0 -119.5 32t-84 90t-30.5 134t30.5 134t84 90t119.5 32q137 0 196 -108h10v94h48v-484h-48v94zM394 58q44 26 69 73.5t25 110.5t-25 110.5t-69 73.5t-101 26q-86 0 -138.5 -57t-52.5 -153t52.5 -153t138.5 -57q57 0 101 26z
M243.5 705.5q27.5 26.5 68.5 26.5t68.5 -26.5t27.5 -66.5t-27.5 -66.5t-68.5 -26.5t-68.5 26.5t-27.5 66.5t27.5 66.5zM275 602.5q14 -14.5 37 -14.5q22 0 36.5 14.5t14.5 36.5q0 23 -14.5 37t-36.5 14q-23 0 -37 -14t-14 -37q0 -22 14 -36.5z" />
    <glyph glyph-name="aringacute.ss01" 
d="M490 94h-10q-59 -108 -196 -108q-66 0 -119.5 32t-84 90t-30.5 134t30.5 134t84 90t119.5 32q137 0 196 -108h10v94h48v-484h-48v94zM394 58q44 26 69 73.5t25 110.5t-25 110.5t-69 73.5t-101 26q-86 0 -138.5 -57t-52.5 -153t52.5 -153t138.5 -57q57 0 101 26z
M398.5 681q9.5 -19 9.5 -42q0 -40 -27.5 -66.5t-68.5 -26.5t-68.5 26.5t-27.5 66.5t27.5 66.5t68.5 26.5q7 0 11 -1l44 99h69l-64 -117q17 -13 26.5 -32zM349 602.5q14 14.5 14 36.5q0 23 -14 37t-37 14q-22 0 -36.5 -14t-14.5 -37q0 -22 14.5 -36.5t36.5 -14.5
q23 0 37 14.5z" />
    <glyph glyph-name="atilde.ss01" 
d="M490 94h-10q-59 -108 -196 -108q-66 0 -119.5 32t-84 90t-30.5 134t30.5 134t84 90t119.5 32q137 0 196 -108h10v94h48v-484h-48v94zM394 58q44 26 69 73.5t25 110.5t-25 110.5t-69 73.5t-101 26q-86 0 -138.5 -57t-52.5 -153t52.5 -153t138.5 -57q57 0 101 26z
M222.5 689q15.5 11 39.5 11q22 0 36 -11.5t32 -40.5q13 -21 19.5 -27.5t15.5 -6.5t14 4.5t13 15.5l33 48l36 -24l-32 -47q-12 -19 -27.5 -30t-39.5 -11q-22 0 -36 11.5t-32 40.5q-13 21 -19.5 27.5t-15.5 6.5t-14 -4.5t-13 -15.5l-33 -48l-36 24l32 47q12 19 27.5 30z" />
    <glyph glyph-name="g.ss02" 
d="M538 484v-618q0 -31 -17 -48.5t-47 -17.5h-378v46h364q28 0 28 30v222h-10q-25 -44 -72 -74t-122 -30q-66 0 -119.5 31.5t-84 88.5t-30.5 132t30.5 132t84 88.5t119.5 31.5q137 0 196 -108h10v94h48zM394 65.5q44 25.5 69 72t25 108.5t-25 108.5t-69 72t-101 25.5
q-86 0 -138.5 -55.5t-52.5 -150.5t52.5 -150.5t138.5 -55.5q57 0 101 25.5z" />
    <glyph glyph-name="gbreve.ss02" 
d="M538 484v-618q0 -31 -17 -48.5t-47 -17.5h-378v46h364q28 0 28 30v222h-10q-25 -44 -72 -74t-122 -30q-66 0 -119.5 31.5t-84 88.5t-30.5 132t30.5 132t84 88.5t119.5 31.5q137 0 196 -108h10v94h48zM394 65.5q44 25.5 69 72t25 108.5t-25 108.5t-69 72t-101 25.5
q-86 0 -138.5 -55.5t-52.5 -150.5t52.5 -150.5t138.5 -55.5q57 0 101 25.5zM421 672q0 -50 -30 -79t-79 -29t-79 29t-30 79v28h48v-24q0 -29 16 -46.5t45 -17.5t45 17.5t16 46.5v24h48v-28z" />
    <glyph glyph-name="uni0123.ss02" 
d="M538 484v-618q0 -31 -17 -48.5t-47 -17.5h-378v46h364q28 0 28 30v222h-10q-25 -44 -72 -74t-122 -30q-66 0 -119.5 31.5t-84 88.5t-30.5 132t30.5 132t84 88.5t119.5 31.5q137 0 196 -108h10v94h48zM394 65.5q44 25.5 69 72t25 108.5t-25 108.5t-69 72t-101 25.5
q-86 0 -138.5 -55.5t-52.5 -150.5t52.5 -150.5t138.5 -55.5q57 0 101 25.5zM351.5 601.5q-15.5 -15.5 -39.5 -15.5t-39.5 15.5t-15.5 39.5v76q0 32 18.5 48.5t50.5 16.5h39v-36h-41q-27 0 -27 -26v-28q6 2 17 2q22 0 37.5 -15t15.5 -38q0 -24 -15.5 -39.5z" />
    <glyph glyph-name="gdotaccent.ss02" 
d="M538 484v-618q0 -31 -17 -48.5t-47 -17.5h-378v46h364q28 0 28 30v222h-10q-25 -44 -72 -74t-122 -30q-66 0 -119.5 31.5t-84 88.5t-30.5 132t30.5 132t84 88.5t119.5 31.5q137 0 196 -108h10v94h48zM394 65.5q44 25.5 69 72t25 108.5t-25 108.5t-69 72t-101 25.5
q-86 0 -138.5 -55.5t-52.5 -150.5t52.5 -150.5t138.5 -55.5q57 0 101 25.5zM275.5 677.5q14.5 14.5 36.5 14.5t36.5 -14.5t14.5 -36.5t-14.5 -36.5t-36.5 -14.5t-36.5 14.5t-14.5 36.5t14.5 36.5z" />
    <glyph glyph-name="v.ss03" horiz-adv-x="524" 
d="M89 484l168 -454h10l168 454h55l-185 -484h-86l-185 484h55z" />
    <glyph glyph-name="w.ss03" horiz-adv-x="796" 
d="M105 484l103 -454h12l133 454h90l133 -454h12l103 454h53l-115 -484h-92l-133 454h-12l-133 -454h-92l-115 484h53z" />
    <glyph glyph-name="wacute.ss03" horiz-adv-x="796" 
d="M105 484l103 -454h12l133 454h90l133 -454h12l103 454h53l-115 -484h-92l-133 454h-12l-133 -454h-92l-115 484h53zM484 700l-71 -130h-56l58 130h69z" />
    <glyph glyph-name="wcircumflex.ss03" horiz-adv-x="796" 
d="M105 484l103 -454h12l133 454h90l133 -454h12l103 454h53l-115 -484h-92l-133 454h-12l-133 -454h-92l-115 484h53zM403 660h-10l-69 -90h-61l102 130h66l102 -130h-61z" />
    <glyph glyph-name="wdieresis.ss03" horiz-adv-x="796" 
d="M105 484l103 -454h12l133 454h90l133 -454h12l103 454h53l-115 -484h-92l-133 454h-12l-133 -454h-92l-115 484h53zM281.5 677.5q14.5 14.5 36.5 14.5t36.5 -14.5t14.5 -36.5t-14.5 -36.5t-36.5 -14.5t-36.5 14.5t-14.5 36.5t14.5 36.5zM441.5 677.5q14.5 14.5 36.5 14.5
t36.5 -14.5t14.5 -36.5t-14.5 -36.5t-36.5 -14.5t-36.5 14.5t-14.5 36.5t14.5 36.5z" />
    <glyph glyph-name="wgrave.ss03" horiz-adv-x="796" 
d="M105 484l103 -454h12l133 454h90l133 -454h12l103 454h53l-115 -484h-92l-133 454h-12l-133 -454h-92l-115 484h53zM445 570h-56l-81 130h65z" />
    <glyph glyph-name="y.ss03" horiz-adv-x="548" 
d="M458 484h56l-278 -684h-56l88 200h-37l-197 484h56l179 -454h10z" />
    <glyph glyph-name="yacute.ss03" horiz-adv-x="548" 
d="M458 484h56l-278 -684h-56l88 200h-37l-197 484h56l179 -454h10zM360 700l-71 -130h-56l58 130h69z" />
    <glyph glyph-name="ycircumflex.ss03" horiz-adv-x="548" 
d="M458 484h56l-278 -684h-56l88 200h-37l-197 484h56l179 -454h10zM279 660h-10l-69 -90h-61l102 130h66l102 -130h-61z" />
    <glyph glyph-name="ydieresis.ss03" horiz-adv-x="548" 
d="M458 484h56l-278 -684h-56l88 200h-37l-197 484h56l179 -454h10zM157.5 677.5q14.5 14.5 36.5 14.5t36.5 -14.5t14.5 -36.5t-14.5 -36.5t-36.5 -14.5t-36.5 14.5t-14.5 36.5t14.5 36.5zM317.5 677.5q14.5 14.5 36.5 14.5t36.5 -14.5t14.5 -36.5t-14.5 -36.5t-36.5 -14.5
t-36.5 14.5t-14.5 36.5t14.5 36.5z" />
    <glyph glyph-name="ygrave.ss03" horiz-adv-x="548" 
d="M458 484h56l-278 -684h-56l88 200h-37l-197 484h56l179 -454h10zM321 570h-56l-81 130h65z" />
    <glyph glyph-name="one.lf.ss03" horiz-adv-x="387" 
d="M305 700l-2 -700h-54v670h-12l-161 -266h-66l185 296h110z" />
    <glyph glyph-name="zero.lf.zero" horiz-adv-x="624" 
d="M495.5 641q64.5 -73 64.5 -213v-156q0 -140 -64.5 -213t-183.5 -73t-183.5 73t-64.5 213v156q0 140 64.5 213t183.5 73t183.5 -73zM118 268q0 -18 1 -27l380 267q-14 76 -61.5 117t-125.5 41q-96 0 -145 -61t-49 -173v-164zM506 432q0 18 -1 27l-380 -267
q14 -76 61.5 -117t125.5 -41q96 0 145 61t49 173v164z" />
    <glyph glyph-name="zero.osf" horiz-adv-x="600" 
d="M81 382.5q31 59.5 87.5 93.5t131.5 34t131.5 -34t87.5 -93.5t31 -134.5t-31 -134.5t-87.5 -93.5t-131.5 -34t-131.5 34t-87.5 93.5t-31 134.5t31 134.5zM128.5 136.5q24.5 -48.5 69 -75.5t102.5 -27t102.5 27.5t69 76.5t24.5 110q0 62 -24.5 110.5t-69 76t-102.5 27.5
t-102.5 -28t-69 -77t-24.5 -109q0 -63 24.5 -111.5z" />
    <glyph glyph-name="one.osf" horiz-adv-x="412" 
d="M330 484v-484h-56v440h-12l-159 -168h-71v2l200 210h98z" />
    <glyph glyph-name="two.osf" horiz-adv-x="582" 
d="M329 498q90 0 145.5 -41t55.5 -110q0 -57 -30.5 -90t-88 -50.5t-154.5 -30.5q-60 -8 -93.5 -23t-47.5 -40t-14 -65h432v-48h-488v42q0 81 47.5 123t157.5 59q81 13 126.5 25.5t71 36t25.5 63.5q0 49 -41.5 75t-107.5 26q-73 0 -134.5 -34.5t-102.5 -95.5l-44 33
q113 145 285 145z" />
    <glyph glyph-name="three.osf" horiz-adv-x="574" 
d="M148 -117q52 -45 142 -45q54 0 94.5 23t63 62t22.5 86q0 78 -52.5 120.5t-132.5 42.5h-88v50l253 212h-396v50h472v-49l-247 -203v-12h17q66 0 117.5 -25.5t81 -73.5t29.5 -113q0 -63 -30.5 -112.5t-84 -77.5t-119.5 -28q-111 0 -177.5 56.5t-72.5 163.5l54 9
q2 -91 54 -136z" />
    <glyph glyph-name="four.osf" horiz-adv-x="598" 
d="M458 484v-436h124v-48h-124v-200h-54v200h-382v46l343 438h93zM83 48h321v392h-12z" />
    <glyph glyph-name="five.osf" horiz-adv-x="580" 
d="M157 -119q52 -47 137 -47q88 0 137 52.5t49 143.5q0 86 -46.5 137t-125.5 51q-61 0 -95.5 -27t-54.5 -67h-84v360h448v-48h-394v-276h12q19 43 62.5 73.5t117.5 30.5q61 0 110 -29t77.5 -82t28.5 -123t-29.5 -125.5t-84.5 -87t-128 -31.5q-71 0 -125 28t-85 79.5
t-32 118.5l52 5q1 -89 53 -136z" />
    <glyph glyph-name="six.osf" horiz-adv-x="590" 
d="M504.5 619q-27.5 44 -78.5 69.5t-120 25.5q-77 0 -133.5 -31t-86.5 -86t-30 -127v-242q0 -72 32 -127t87 -85t123 -30t123 30.5t87 85.5t32 126t-30.5 126t-83 85.5t-116.5 30.5q-73 0 -119.5 -29.5t-68.5 -71.5h-12v108q0 88 52 138.5t144 50.5q82 0 127.5 -40
t50.5 -110l53 6q-5 53 -32.5 97zM396 401q43 -25 66.5 -70t23.5 -103q0 -88 -52 -141t-136 -53t-136 53t-52 141q0 58 23.5 103t66.5 70t98 25t98 -25z" />
    <glyph glyph-name="seven.osf" horiz-adv-x="550" 
d="M530 484v-46l-316 -638h-62l316 634h-448v50h510z" />
    <glyph glyph-name="eight.osf" horiz-adv-x="592" 
d="M90.5 624q28.5 42 81.5 66t124 24t124 -24t81.5 -66t28.5 -96q0 -65 -39 -104.5t-89 -54.5v-12q31 -5 63.5 -25t55.5 -57.5t23 -90.5q0 -58 -31 -103t-87.5 -70t-129.5 -25t-129.5 25t-87.5 70t-31 103q0 53 23 90.5t55.5 57.5t63.5 25v12q-50 15 -89 54.5t-39 104.5
q0 54 28.5 96zM166.5 423q50.5 -37 129.5 -37t129.5 37t50.5 103t-50.5 103t-129.5 37t-129.5 -37t-50.5 -103t50.5 -103zM155.5 73q53.5 -39 140.5 -39t140.5 39t53.5 113t-53.5 113t-140.5 39t-140.5 -39t-53.5 -113t53.5 -113z" />
    <glyph glyph-name="nine.osf" horiz-adv-x="590" 
d="M163 -129q44 -37 123 -37q91 0 142.5 50t51.5 139v92h-12q-22 -42 -68.5 -71.5t-119.5 -29.5q-64 0 -116.5 30.5t-83 85.5t-30.5 126t32 126t87 85.5t123 30.5t123 -30t87 -85t32 -127v-226q0 -72 -29.5 -127.5t-85.5 -86t-133 -30.5q-100 0 -158.5 50.5t-69.5 130.5
l53 7q8 -66 52 -103zM390 83q43 25 66.5 70t23.5 103q0 88 -52 141t-136 53t-136 -53t-52 -141q0 -58 23.5 -103t66.5 -70t98 -25t98 25z" />
    <glyph glyph-name="one.osf.ss03" horiz-adv-x="412" 
d="M330 484v-484h-56v454h-12l-159 -182h-71l190 212h108z" />
    <glyph glyph-name="zero.osf.zero" horiz-adv-x="600" 
d="M431.5 465q56.5 -33 87.5 -91.5t31 -131.5t-31 -131.5t-87.5 -91.5t-131.5 -33t-131.5 33t-87.5 91.5t-31 131.5t31 131.5t87.5 91.5t131.5 33t131.5 -33zM197.5 422.5q-44.5 -27.5 -69 -75t-24.5 -105.5q0 -54 18 -95l334 228q-26 36 -66 55.5t-90 19.5
q-58 0 -102.5 -27.5zM402.5 61q44.5 27 69 74t24.5 107q0 53 -18 95l-334 -229q26 -36 66 -55t90 -19q58 0 102.5 27z" />
    <glyph glyph-name="one.ss03" horiz-adv-x="387" 
d="M305 700l-2 -700h-54v670h-12l-161 -266h-66l185 296h110z" />
    <glyph glyph-name="zero.tf" 
d="M132 641q62 73 178 73t178 -73t62 -213v-156q0 -140 -62 -213t-178 -73t-178 73t-62 213v156q0 140 62 213zM170.5 95q46.5 -61 139.5 -61t139.5 61t46.5 173v164q0 112 -46.5 173t-139.5 61t-139.5 -61t-46.5 -173v-164q0 -112 46.5 -173z" />
    <glyph glyph-name="one.tf" 
d="M382 48h204v-48h-524v48h266v592h-12l-151 -236h-66l193 296h92z" />
    <glyph glyph-name="two.tf" 
d="M112 603q32 54 88.5 82.5t126.5 28.5q69 0 123 -28t84 -78.5t30 -116.5q0 -91 -57.5 -147.5t-166.5 -85.5q-78 -21 -120.5 -39.5t-66 -52.5t-23.5 -93v-25h438v-48h-492v67q0 73 28.5 119t79.5 72t129 45q97 23 147 68.5t50 119.5q0 81 -50.5 128t-132.5 47
q-88 0 -140.5 -51t-52.5 -143v-20h-54v24q0 73 32 127z" />
    <glyph glyph-name="three.tf" 
d="M552 651l-254 -219v-10h24q66 0 117.5 -26t81 -75t29.5 -115q0 -63 -30.5 -113.5t-84 -78.5t-119.5 -28q-115 0 -182.5 62.5t-67.5 177.5v35h54v-37q0 -95 52 -142.5t144 -47.5q54 0 95 23t63 62.5t22 88.5q0 80 -52.5 123t-132.5 43h-86v54l255 222h-400v50h472v-49z
" />
    <glyph glyph-name="four.tf" 
d="M468 700v-508h124v-48h-124v-144h-54v144h-374v46l335 510h93zM100 192h314v456h-12z" />
    <glyph glyph-name="five.tf" 
d="M542 652h-394v-286h12q19 43 62.5 73.5t117.5 30.5q61 0 110 -29t77.5 -83t28.5 -125t-29.5 -127t-84.5 -88t-128 -32q-72 0 -127 29t-85 81.5t-30 121.5v28h52v-24q0 -92 52 -140t138 -48q88 0 137 53t49 146q0 88 -46 139.5t-126 51.5q-61 0 -95.5 -27t-54.5 -67h-84
v370h448v-48z" />
    <glyph glyph-name="six.tf" 
d="M522 102q-32 -55 -87 -85.5t-123 -30.5t-123 30t-87 85t-32 127v242q0 72 29.5 127.5t85.5 86t133 30.5q74 0 126 -29t78 -77.5t26 -107.5h-54q0 78 -44.5 122t-131.5 44q-91 0 -142.5 -50t-51.5 -139v-108h12q22 42 68.5 71.5t119.5 29.5q64 0 116.5 -30.5t83 -85.5
t30.5 -126t-32 -126zM214 401q-43 -25 -66.5 -70t-23.5 -103q0 -88 52 -141t136 -53t136 53t52 141q0 58 -23.5 103t-66.5 70t-98 25t-98 -25z" />
    <glyph glyph-name="seven.tf" 
d="M578 700v-46l-336 -654h-62l336 650h-478v50h540z" />
    <glyph glyph-name="eight.tf" 
d="M104.5 624q28.5 42 81.5 66t124 24t124 -24t81.5 -66t28.5 -96q0 -65 -39 -104.5t-89 -54.5v-12q31 -5 63.5 -25t55.5 -57.5t23 -90.5q0 -58 -31 -103t-87.5 -70t-129.5 -25t-129.5 25t-87.5 70t-31 103q0 53 23 90.5t55.5 57.5t63.5 25v12q-50 15 -89 54.5t-39 104.5
q0 54 28.5 96zM180.5 423q50.5 -37 129.5 -37t129.5 37t50.5 103t-50.5 103t-129.5 37t-129.5 -37t-50.5 -103t50.5 -103zM169.5 73q53.5 -39 140.5 -39t140.5 39t53.5 113t-53.5 113t-140.5 39t-140.5 -39t-53.5 -113t53.5 -113z" />
    <glyph glyph-name="nine.tf" 
d="M106 598q32 55 87 85.5t123 30.5t123 -30t87 -85t32 -127v-242q0 -72 -29.5 -127.5t-85.5 -86t-133 -30.5q-74 0 -126 29t-78 77.5t-26 107.5h54q0 -78 44.5 -122t131.5 -44q91 0 142.5 50t51.5 139v108h-12q-22 -42 -68.5 -71.5t-119.5 -29.5q-64 0 -116.5 30.5
t-83 85.5t-30.5 126t32 126zM414 299q43 25 66.5 70t23.5 103q0 88 -52 141t-136 53t-136 -53t-52 -141q0 -58 23.5 -103t66.5 -70t98 -25t98 25z" />
    <glyph glyph-name="one.tf.ss03" 
d="M382 48h204v-48h-524v48h266v622h-12l-151 -266h-66l175 296h110z" />
    <glyph glyph-name="zero.tf.zero" 
d="M488 641q62 -73 62 -213v-156q0 -140 -62 -213t-178 -73t-178 73t-62 213v156q0 140 62 213t178 73t178 -73zM124 268v-21l366 256q-13 79 -58 121t-122 42q-93 0 -139.5 -61t-46.5 -173v-164zM496 432v21l-366 -256q13 -79 58 -121t122 -42q93 0 139.5 61t46.5 173v164z
" />
    <glyph glyph-name="zero.tosf" 
d="M91 386q31 58 87.5 91t131.5 33t131.5 -33t87.5 -91t31 -133v-10q0 -75 -31 -133t-87.5 -91t-131.5 -33t-131.5 33t-87.5 91t-31 133v10q0 75 31 133zM167.5 90.5q53.5 -56.5 142.5 -56.5q58 0 102.5 26.5t69 74t24.5 108.5v10q0 62 -24.5 109.5t-69 73.5t-102.5 26
t-102.5 -27t-69 -74.5t-24.5 -107.5v-10q0 -96 53.5 -152.5z" />
    <glyph glyph-name="one.tosf" 
d="M390 484v-436h196v-48h-526v48h274v390h-9l-142 -166h-69v2l181 210h95z" />
    <glyph glyph-name="two.tosf" 
d="M353 498q90 0 145.5 -41t55.5 -110q0 -57 -30.5 -90t-88 -50.5t-154.5 -30.5q-60 -8 -93.5 -23t-47.5 -40t-14 -65h432v-48h-488v42q0 81 47.5 123t157.5 59q81 13 126.5 25.5t71 36t25.5 63.5q0 49 -41.5 75t-107.5 26q-73 0 -134.5 -34.5t-102.5 -95.5l-44 33
q113 145 285 145z" />
    <glyph glyph-name="three.tosf" 
d="M169 -117q52 -45 142 -45q54 0 94.5 23t63 62t22.5 86q0 78 -52.5 120.5t-132.5 42.5h-88v50l253 212h-396v50h472v-49l-247 -203v-12h17q66 0 117.5 -25.5t81 -73.5t29.5 -113q0 -63 -30.5 -112.5t-84 -77.5t-119.5 -28q-111 0 -177.5 56.5t-72.5 163.5l54 9
q2 -91 54 -136z" />
    <glyph glyph-name="four.tosf" 
d="M468 484v-436h124v-48h-124v-200h-54v200h-382v46l343 438h93zM93 48h321v392h-12z" />
    <glyph glyph-name="five.tosf" 
d="M179 -119q52 -47 137 -47q88 0 137 52.5t49 143.5q0 86 -46.5 137t-125.5 51q-61 0 -95.5 -27t-54.5 -67h-84v360h448v-48h-394v-276h12q19 43 62.5 73.5t117.5 30.5q61 0 110 -29t77.5 -82t28.5 -123t-29.5 -125.5t-84.5 -87t-128 -31.5q-71 0 -125 28t-85 79.5
t-32 118.5l52 5q1 -89 53 -136z" />
    <glyph glyph-name="six.tosf" 
d="M516.5 619q-27.5 44 -78.5 69.5t-120 25.5q-77 0 -133.5 -31t-86.5 -86t-30 -127v-242q0 -72 32 -127t87 -85t123 -30t123 30.5t87 85.5t32 126t-30.5 126t-83 85.5t-116.5 30.5q-73 0 -119.5 -29.5t-68.5 -71.5h-12v108q0 88 52 138.5t144 50.5q82 0 127.5 -40
t50.5 -110l53 6q-5 53 -32.5 97zM408 401q43 -25 66.5 -70t23.5 -103q0 -88 -52 -141t-136 -53t-136 53t-52 141q0 58 23.5 103t66.5 70t98 25t98 -25z" />
    <glyph glyph-name="seven.tosf" 
d="M572 484v-46l-336 -638h-62l336 634h-478v50h540z" />
    <glyph glyph-name="eight.tosf" 
d="M104.5 624q28.5 42 81.5 66t124 24t124 -24t81.5 -66t28.5 -96q0 -65 -39 -104.5t-89 -54.5v-12q31 -5 63.5 -25t55.5 -57.5t23 -90.5q0 -58 -31 -103t-87.5 -70t-129.5 -25t-129.5 25t-87.5 70t-31 103q0 53 23 90.5t55.5 57.5t63.5 25v12q-50 15 -89 54.5t-39 104.5
q0 54 28.5 96zM180.5 423q50.5 -37 129.5 -37t129.5 37t50.5 103t-50.5 103t-129.5 37t-129.5 -37t-50.5 -103t50.5 -103zM169.5 73q53.5 -39 140.5 -39t140.5 39t53.5 113t-53.5 113t-140.5 39t-140.5 -39t-53.5 -113t53.5 -113z" />
    <glyph glyph-name="nine.tosf" 
d="M179 -129q44 -37 123 -37q91 0 142.5 50t51.5 139v92h-12q-22 -42 -68.5 -71.5t-119.5 -29.5q-64 0 -116.5 30.5t-83 85.5t-30.5 126t32 126t87 85.5t123 30.5t123 -30t87 -85t32 -127v-226q0 -72 -29.5 -127.5t-85.5 -86t-133 -30.5q-100 0 -158.5 50.5t-69.5 130.5
l53 7q8 -66 52 -103zM406 83q43 25 66.5 70t23.5 103q0 88 -52 141t-136 53t-136 -53t-52 -141q0 -58 23.5 -103t66.5 -70t98 -25t98 25z" />
    <glyph glyph-name="one.tosf.ss03" 
d="M390 484v-436h196v-48h-526v48h274v406h-12l-139 -182h-69l165 212h111z" />
    <glyph glyph-name="zero.tosf.zero" 
d="M441.5 465q56.5 -33 87.5 -91.5t31 -131.5t-31 -131.5t-87.5 -91.5t-131.5 -33t-131.5 33t-87.5 91.5t-31 131.5t31 131.5t87.5 91.5t131.5 33t131.5 -33zM207.5 422.5q-44.5 -27.5 -69 -75t-24.5 -105.5q0 -54 18 -95l334 228q-26 36 -66 55.5t-90 19.5
q-58 0 -102.5 -27.5zM412.5 61q44.5 27 69 74t24.5 107q0 53 -18 95l-334 -229q26 -36 66 -55t90 -19q58 0 102.5 27z" />
    <glyph glyph-name="zero.subs.zero" horiz-adv-x="376" 
d="M305 121q43 -43 43 -117v-59q0 -74 -42 -116.5t-118 -42.5q-75 0 -117.5 42.5t-42.5 116.5v59q0 75 42.5 117.5t117.5 42.5q74 0 117 -43zM76 -59v-12l212 138q-13 26 -38.5 40.5t-61.5 14.5q-54 0 -83 -30.5t-29 -82.5v-68zM300 9q0 11 -1 16l-212 -139q12 -28 38 -43
t63 -15q54 0 83 30.5t29 82.5v68z" />
    <glyph glyph-name="zero.dnom.zero" horiz-adv-x="376" 
d="M305 321q43 -43 43 -117v-59q0 -74 -42 -116.5t-118 -42.5q-75 0 -117.5 42.5t-42.5 116.5v59q0 75 42.5 117.5t117.5 42.5q74 0 117 -43zM76 141v-12l212 138q-13 26 -38.5 40.5t-61.5 14.5q-54 0 -83 -30.5t-29 -82.5v-68zM300 209q0 11 -1 16l-212 -139q12 -28 38 -43
t63 -15q54 0 83 30.5t29 82.5v68z" />
    <glyph glyph-name="zero.numr.zero" horiz-adv-x="376" 
d="M305 671q43 -43 43 -117v-59q0 -74 -42 -116.5t-118 -42.5q-75 0 -117.5 42.5t-42.5 116.5v59q0 75 42.5 117.5t117.5 42.5q74 0 117 -43zM76 491v-12l212 138q-13 26 -38.5 40.5t-61.5 14.5q-54 0 -83 -30.5t-29 -82.5v-68zM300 559q0 11 -1 16l-212 -139q12 -28 38 -43
t63 -15q54 0 83 30.5t29 82.5v68z" />
    <glyph glyph-name="zero.sups.zero" horiz-adv-x="376" 
d="M305 671q43 -43 43 -117v-59q0 -74 -42 -116.5t-118 -42.5q-75 0 -117.5 42.5t-42.5 116.5v59q0 75 42.5 117.5t117.5 42.5q74 0 117 -43zM76 491v-12l212 138q-13 26 -38.5 40.5t-61.5 14.5q-54 0 -83 -30.5t-29 -82.5v-68zM300 559q0 11 -1 16l-212 -139q12 -28 38 -43
t63 -15q54 0 83 30.5t29 82.5v68z" />
    <glyph glyph-name="exclamdown.case" horiz-adv-x="222" 
d="M71.5 698q15.5 16 39.5 16t39.5 -16t15.5 -39t-15.5 -39t-39.5 -16t-39.5 16t-15.5 39t15.5 39zM84 0l6 530h42l6 -530h-54z" />
    <glyph glyph-name="questiondown.case" 
d="M358.5 620q-15.5 -16 -39.5 -16t-39.5 16t-15.5 39t15.5 39t39.5 16t39.5 -16t15.5 -39t-15.5 -39zM483.5 40.5q-66.5 -54.5 -176.5 -54.5q-70 0 -124.5 25t-84.5 68.5t-30 97.5v8q0 73 40.5 119t112.5 76l34 14q21 9 29 23t8 41v72h54v-70q0 -46 -13 -69t-56 -41
l-34 -14q-62 -26 -91.5 -60t-29.5 -95q0 -69 53 -108t132 -39q82 0 135.5 41t53.5 120v43h54v-45q0 -98 -66.5 -152.5z" />
    <glyph glyph-name="parenleft.case" horiz-adv-x="390" 
d="M209 792q59 60 161 60v-48q-84 -2 -125 -51.5t-41 -152.5v-512q0 -103 41 -152.5t125 -51.5v-48q-102 0 -161 60t-59 188v520q0 128 59 188z" />
    <glyph glyph-name="guillemotleft.case" horiz-adv-x="780" 
d="M388 555h6v-60l-271 -153v-8l271 -153v-60h-6l-314 186v62zM696 555h6v-60l-271 -153v-8l271 -153v-60h-6l-314 186v62z" />
    <glyph glyph-name="guillemotright.case" horiz-adv-x="780" 
d="M394 307l-314 -186h-6v60l271 153v8l-271 153v60h6l314 -186v-62zM702 307l-314 -186h-6v60l271 153v8l-271 153v60h6l314 -186v-62z" />
    <glyph glyph-name="uni2197.case" 
d="M511 700l29 -29v-342l-50 1v245l5 35l-8 4l-23 -27l-395 -395l-37 37l395 395l27 23l-4 8l-35 -5h-245l-1 50h342z" />
    <glyph glyph-name="arrowright.case" horiz-adv-x="800" 
d="M750 367v-40l-242 -242l-36 36l174 174l29 21l-3 9l-36 -3h-586v50h586l36 -3l3 9l-29 21l-174 174l36 36z" />
    <glyph glyph-name="arrowleft.case" horiz-adv-x="800" 
d="M328 573l-174 -174l-29 -21l3 -9l36 3h586v-50h-586l-36 3l-3 -9l29 -21l174 -174l-36 -36l-242 242v40l242 242z" />
    <glyph glyph-name="uni2196.case" horiz-adv-x="600" 
d="M450 650h-245l-35 5l-4 -8l27 -23l395 -395l-37 -37l-395 395l-23 27l-8 -4l5 -35v-245l-50 -1v342l29 29h342z" />
    <glyph glyph-name="arrowboth.case" horiz-adv-x="800" 
d="M508 609l242 -242v-40l-242 -242l-36 36l174 174l29 21l-3 9l-36 -3h-472l-36 3l-3 -9l29 -21l174 -174l-36 -36l-242 242v40l242 242l36 -36l-174 -174l-29 -21l3 -9l36 3h472l36 -3l3 9l-29 21l-174 174z" />
    <glyph glyph-name="bar.case" horiz-adv-x="214" 
d="M132 -156h-50v1012h50v-1012z" />
    <glyph glyph-name="brokenbar.case" horiz-adv-x="214" 
d="M82 436v420h50v-420h-50zM132 264v-420h-50v420h50z" />
    <glyph glyph-name="ringacutecomb" horiz-adv-x="312" 
d="M242.5 681q9.5 -19 9.5 -42q0 -40 -27.5 -66.5t-68.5 -26.5t-68.5 26.5t-27.5 66.5t27.5 66.5t68.5 26.5q7 0 11 -1l44 99h69l-64 -117q17 -13 26.5 -32zM193 602.5q14 14.5 14 36.5q0 23 -14 37t-37 14q-22 0 -36.5 -14t-14.5 -37q0 -22 14.5 -36.5t36.5 -14.5
q23 0 37 14.5z" />
    <glyph glyph-name="Omega" 
d="M100 580.5q29 63.5 83.5 98.5t126.5 35q74 0 128 -35.5t82.5 -98.5t28.5 -146v-174q0 -77 -21.5 -129t-60.5 -72v-9h94v-50h-205v53q71 23 104 74.5t33 131.5v167q0 105 -46.5 171.5t-136.5 66.5t-136.5 -68.5t-46.5 -169.5v-167q0 -163 138 -206v-53h-206v50h95v9
q-37 20 -60 70t-23 131v174q0 83 29 146.5z" />
    <glyph glyph-name="Delta" 
d="M259 700h102l241 -700h-584zM520 50l-206 612h-8l-205 -612h419z" />
    </font>
</defs>
</svg>
