<?xml version="1.0" standalone="no"?>
<!DOCTYPE svg PUBLIC "-//W3C//DTD SVG 1.1//EN" "http://www.w3.org/Graphics/SVG/1.1/DTD/svg11.dtd" >
<svg xmlns="http://www.w3.org/2000/svg" xmlns:xlink="http://www.w3.org/1999/xlink" version="1.1">
<metadata>
Created by FontForge 20170731 at Sun Dec  8 22:45:34 2019
 By Aleksey,,,
Copyright 2019 The Space Grotesk Project Authors (https://github.com/floriankarsten/space-grotesk)
</metadata>
<defs>
<font id="SpaceGrotesk-Bold" horiz-adv-x="620" >
  <font-face 
    font-family="Space Grotesk"
    font-weight="700"
    font-stretch="normal"
    units-per-em="1000"
    panose-1="0 0 8 0 0 0 0 0 0 0"
    ascent="800"
    descent="-200"
    x-height="496"
    cap-height="700"
    bbox="-680 -350 958 1000"
    underline-thickness="50"
    underline-position="-150"
    unicode-range="U+000D-E133"
  />
<missing-glyph horiz-adv-x="910" 
d="M146.5 768.5q51.5 51.5 142.5 51.5h332q91 0 142.5 -51.5t51.5 -148.5v-550q0 -97 -51.5 -148.5t-142.5 -51.5h-332q-91 0 -142.5 51.5t-51.5 148.5v550q0 97 51.5 148.5zM311 -34h288q114 0 114 124v510q0 124 -114 124h-288q-114 0 -114 -124v-510q0 -124 114 -124z
M335.5 552.5q49.5 40.5 124.5 40.5q73 0 120.5 -38.5t47.5 -100.5v-3q0 -53 -27.5 -82.5t-72.5 -48.5l-12 -5q-11 -4 -15.5 -12.5t-4.5 -23.5v-15h-92v22q0 34 14 57t46 36l12 5q32 14 47 28.5t15 37.5q0 27 -21.5 43.5t-56.5 16.5q-37 0 -60.5 -18t-23.5 -51v-16h-90v20
q0 67 49.5 107.5zM405.5 216.5q18.5 17.5 46.5 17.5t46.5 -17.5t18.5 -45.5t-18.5 -45.5t-46.5 -17.5t-46.5 17.5t-18.5 45.5t18.5 45.5z" />
    <glyph glyph-name="f_f.liga" unicode="ff" horiz-adv-x="722" 
d="M704 496v-106h-130v-390h-126v390h-180v-390h-126v390h-126v106h126v102q0 44 28.5 73t71.5 29h130v-104h-76q-28 0 -28 -30v-70h180v102q0 44 28.5 73t71.5 29h130v-104h-76q-28 0 -28 -30v-70h130z" />
    <glyph glyph-name="f_f_i.liga" unicode="ffi" horiz-adv-x="936" 
d="M880.5 702q25.5 -24 25.5 -62t-25.5 -62t-63.5 -24t-63.5 24t-25.5 62t25.5 62t63.5 24t63.5 -24zM880 496v-496h-126v390h-180v-390h-126v390h-180v-390h-126v390h-126v106h126v102q0 44 28.5 73t71.5 29h130v-104h-76q-28 0 -28 -30v-70h180v102q0 44 28.5 73t71.5 29
h116v-104h-62q-28 0 -28 -30v-70h306z" />
    <glyph glyph-name="f_f_j.liga" unicode="ffj" horiz-adv-x="936" 
d="M880.5 702q25.5 -24 25.5 -62t-25.5 -62t-63.5 -24t-63.5 24t-25.5 62t25.5 62t63.5 24t63.5 -24zM880 496v-584q0 -51 -30 -81.5t-80 -30.5h-130v102h86q28 0 28 30v458h-180v-390h-126v390h-180v-390h-126v390h-126v106h126v102q0 44 28.5 73t71.5 29h130v-104h-76
q-28 0 -28 -30v-70h180v102q0 44 28.5 73t71.5 29h116v-104h-62q-28 0 -28 -30v-70h306z" />
    <glyph glyph-name="f_i.liga" unicode="fi" horiz-adv-x="630" 
d="M574.5 702q25.5 -24 25.5 -62t-25.5 -62t-63.5 -24t-63.5 24t-25.5 62t25.5 62t63.5 24t63.5 -24zM574 496v-496h-126v390h-180v-390h-126v390h-126v106h126v102q0 44 28.5 73t71.5 29h116v-104h-62q-28 0 -28 -30v-70h306z" />
    <glyph glyph-name="f_j.liga" unicode="fj" horiz-adv-x="630" 
d="M574.5 702q25.5 -24 25.5 -62t-25.5 -62t-63.5 -24t-63.5 24t-25.5 62t25.5 62t63.5 24t63.5 -24zM574 496v-584q0 -51 -30 -81.5t-80 -30.5h-130v102h86q28 0 28 30v458h-180v-390h-126v390h-126v106h126v102q0 44 28.5 73t71.5 29h116v-104h-62q-28 0 -28 -30v-70h306z
" />
    <glyph glyph-name="f_l.liga" unicode="fl" horiz-adv-x="630" 
d="M142 598q0 44 28.5 73t71.5 29h120v-108h-66q-28 0 -28 -30v-66h116v-108h-116v-388h-126v388h-126v108h126v102zM574 700v-700h-126v700h126z" />
    <glyph glyph-name="f_lcaron.liga" unicode="f&#x13e;" horiz-adv-x="732" 
d="M142 598q0 44 28.5 73t71.5 29h120v-108h-66q-28 0 -28 -30v-66h116v-108h-116v-388h-126v388h-126v108h126v102zM448 0v700h126v-700h-126zM757 700l-58 -182h-80l10 182h128z" />
    <glyph glyph-name="t_t.liga" unicode="tt" horiz-adv-x="724" 
d="M560 394v-262q0 -30 28 -30h96v-102h-140q-50 0 -80 30.5t-30 81.5v282h-180v-262q0 -30 28 -30h86v-102h-130q-50 0 -80 30.5t-30 81.5v282h-124v102h124v154h126v-154h180v154h126v-154h136v-102h-136z" />
    <glyph glyph-name=".notdef" horiz-adv-x="910" 
d="M146.5 768.5q51.5 51.5 142.5 51.5h332q91 0 142.5 -51.5t51.5 -148.5v-550q0 -97 -51.5 -148.5t-142.5 -51.5h-332q-91 0 -142.5 51.5t-51.5 148.5v550q0 97 51.5 148.5zM311 -34h288q114 0 114 124v510q0 124 -114 124h-288q-114 0 -114 -124v-510q0 -124 114 -124z
M335.5 552.5q49.5 40.5 124.5 40.5q73 0 120.5 -38.5t47.5 -100.5v-3q0 -53 -27.5 -82.5t-72.5 -48.5l-12 -5q-11 -4 -15.5 -12.5t-4.5 -23.5v-15h-92v22q0 34 14 57t46 36l12 5q32 14 47 28.5t15 37.5q0 27 -21.5 43.5t-56.5 16.5q-37 0 -60.5 -18t-23.5 -51v-16h-90v20
q0 67 49.5 107.5zM405.5 216.5q18.5 17.5 46.5 17.5t46.5 -17.5t18.5 -45.5t-18.5 -45.5t-46.5 -17.5t-46.5 17.5t-18.5 45.5t18.5 45.5z" />
    <glyph glyph-name=".null" horiz-adv-x="0" 
 />
    <glyph glyph-name="nonmarkingreturn" unicode="&#xd;" horiz-adv-x="600" 
 />
    <glyph glyph-name="space" unicode=" " horiz-adv-x="270" 
 />
    <glyph glyph-name="exclam" unicode="!" horiz-adv-x="282" 
d="M209 700l-14 -482h-108l-14 482h136zM73 149.5q27 26.5 68 26.5t68 -26.5t27 -68.5t-27 -68.5t-68 -26.5t-68 26.5t-27 68.5t27 68.5z" />
    <glyph glyph-name="quotedbl" unicode="&#x22;" horiz-adv-x="488" 
d="M72 689.5q26 25.5 67 25.5t67 -26t26 -70v-81q0 -61 -33.5 -97.5t-100.5 -36.5h-37v68h42q24 0 37.5 14t13.5 38v12h-15q-41 0 -67 24.5t-26 62.5q0 41 26 66.5zM282 689.5q26 25.5 67 25.5t67 -26t26 -70v-81q0 -61 -33.5 -97.5t-100.5 -36.5h-37v68h42q24 0 37.5 14
t13.5 38v12h-15q-41 0 -67 24.5t-26 62.5q0 41 26 66.5z" />
    <glyph glyph-name="numbersign" unicode="#" 
d="M140 516v184h116v-184h108v184h116v-184h108v-112h-108v-108h108v-112h-108v-184h-116v184h-108v-184h-116v184h-108v112h108v108h-108v112h108zM256 296h108v108h-108v-108z" />
    <glyph glyph-name="dollar" unicode="$" horiz-adv-x="590" 
d="M516.5 340.5q49.5 -46.5 49.5 -128.5v-10q0 -87 -54.5 -142t-145.5 -69v-107h-120v106q-105 14 -164.5 79.5t-59.5 172.5v22h132v-16q0 -50 23 -83.5t69 -46.5v190q-100 24 -149 70.5t-49 129.5v6q0 80 55 132.5t143 64.5v105h120v-109q87 -17 138.5 -73.5t51.5 -141.5
v-30h-132v20q0 71 -58 96v-167q101 -24 150.5 -70.5zM198 466q16 -17 48 -28v146q-30 -9 -47 -28t-17 -44q0 -29 16 -46zM415 151.5q17 22.5 17 50.5q0 29 -16.5 47t-49.5 30v-161q32 11 49 33.5z" />
    <glyph glyph-name="percent" unicode="%" horiz-adv-x="757" 
d="M574 717l103 -77l-203 -226l-64 48zM79.5 670q43.5 42 120.5 42q75 0 119.5 -42.5t44.5 -115.5v-19q0 -74 -43.5 -115.5t-120.5 -41.5t-120.5 41.5t-43.5 115.5v19q0 74 43.5 116zM155.5 482q15.5 -18 44.5 -18t44.5 18t15.5 49v28q0 31 -15.5 49t-44.5 18t-44.5 -18
t-15.5 -49v-28q0 -31 15.5 -49zM436.5 280q43.5 42 120.5 42q75 0 119.5 -42.5t44.5 -115.5v-19q0 -74 -43.5 -115.5t-120.5 -41.5t-120.5 41.5t-43.5 115.5v19q0 74 43.5 116zM178 -15l-103 77l203 226l64 -48zM512.5 92q15.5 -18 44.5 -18t44.5 18t15.5 49v28
q0 31 -15.5 49t-44.5 18t-44.5 -18t-15.5 -49v-28q0 -31 15.5 -49z" />
    <glyph glyph-name="ampersand" unicode="&#x26;" horiz-adv-x="591" 
d="M262 596q-47 0 -75.5 -24.5t-28.5 -70.5q0 -48 29.5 -71.5t74.5 -23.5h97v90h126v-90h92v-104h-92v-302h-250q-94 0 -150.5 50.5t-56.5 138.5q0 61 32.5 102t85.5 57v14q-53 16 -83.5 53.5t-30.5 96.5q0 89 57 138.5t150 49.5h109v-104h-86zM183 276q-29 -26 -29 -73
q0 -48 30 -73.5t74 -25.5h101v198h-101q-46 0 -75 -26z" />
    <glyph glyph-name="quotesingle" unicode="'" horiz-adv-x="278" 
d="M72 689.5q26 25.5 67 25.5t67 -26t26 -70v-81q0 -61 -33.5 -97.5t-100.5 -36.5h-37v68h42q24 0 37.5 14t13.5 38v12h-15q-41 0 -67 24.5t-26 62.5q0 41 26 66.5z" />
    <glyph glyph-name="parenleft" unicode="(" horiz-adv-x="422" 
d="M187.5 735q77.5 73 214.5 73v-116q-84 -2 -125 -49.5t-41 -144.5v-436q0 -97 41 -144.5t125 -49.5v-116q-137 0 -214.5 73t-77.5 225v460q0 152 77.5 225z" />
    <glyph glyph-name="parenright" unicode=")" horiz-adv-x="422" 
d="M234.5 -175q-77.5 -73 -214.5 -73v116q84 2 125 49.5t41 144.5v436q0 97 -41 144.5t-125 49.5v116q137 0 214.5 -73t77.5 -225v-460q0 -152 -77.5 -225z" />
    <glyph glyph-name="asterisk" unicode="*" horiz-adv-x="516" 
d="M334 450q-1 -6 -5 -13l60 -41l55 -56l-52 -52l-56 55l-41 60q-7 -3 -13 -5l13 -72v-78h-74v78l13 72q-6 2 -13 5l-41 -60l-56 -55l-52 52l55 56l60 41q-3 7 -5 13l-72 -13h-78v74h78l72 -13q2 6 5 13l-60 41l-55 56l52 52l56 -55l41 -60q7 4 13 5l-13 72v78h74v-78
l-13 -72q6 -1 13 -5l41 60l56 55l52 -52l-55 -56l-60 -41q4 -7 5 -13l72 13h78v-74h-78z" />
    <glyph glyph-name="plus" unicode="+" 
d="M251 407v152h118v-152h150v-114h-150v-152h-118v152h-150v114h150z" />
    <glyph glyph-name="comma" unicode="," horiz-adv-x="278" 
d="M72 150.5q26 25.5 67 25.5t67 -26t26 -70v-81q0 -61 -33.5 -97.5t-100.5 -36.5h-37v68h42q24 0 37.5 14t13.5 38v12h-15q-41 0 -67 24.5t-26 62.5q0 41 26 66.5z" />
    <glyph glyph-name="hyphen" unicode="-" horiz-adv-x="460" 
d="M82 312h296v-114h-296v114z" />
    <glyph glyph-name="period" unicode="." horiz-adv-x="282" 
d="M73 149.5q27 26.5 68 26.5t68 -26.5t27 -68.5t-27 -68.5t-68 -26.5t-68 26.5t-27 68.5t27 68.5z" />
    <glyph glyph-name="slash" unicode="/" horiz-adv-x="504" 
d="M460 700l-294 -900h-126l294 900h126z" />
    <glyph glyph-name="zero" unicode="0" horiz-adv-x="596" 
d="M63.5 583.5q33.5 63.5 94 97t140.5 33.5t140.5 -33.5t94 -97t33.5 -151.5v-164q0 -135 -72.5 -208.5t-195.5 -73.5t-195.5 73.5t-72.5 208.5v164q0 88 33.5 151.5zM196.5 145q34.5 -41 101.5 -41q68 0 102 42t34 116v176q0 73 -37 115.5t-99 42.5q-63 0 -99.5 -43.5
t-36.5 -114.5v-176q0 -76 34.5 -117z" />
    <glyph glyph-name="one" unicode="1" horiz-adv-x="438" 
d="M380 700v-700h-132v560h-12l-98 -176h-138l180 316h200z" />
    <glyph glyph-name="two" unicode="2" horiz-adv-x="568" 
d="M63.5 601q35.5 56 95 84.5t132.5 28.5q69 0 126.5 -28.5t92 -81t34.5 -122.5q0 -99 -57 -154.5t-173 -84.5q-82 -21 -116 -43t-34 -68v-12h376v-120h-508v120q0 90 57.5 142.5t162.5 81.5q82 22 121 53t39 89q0 51 -32.5 80.5t-86.5 29.5q-58 0 -95.5 -33.5t-37.5 -98.5
v-22h-132v24q0 79 35.5 135z" />
    <glyph glyph-name="three" unicode="3" horiz-adv-x="572" 
d="M534 584l-194 -158v-12h26q50 0 92 -22.5t67 -66.5t25 -105q0 -70 -33.5 -123t-93 -82t-137.5 -29q-82 0 -142.5 30.5t-93 84t-32.5 123.5v28h132v-24q0 -53 36 -88.5t100 -35.5q61 0 96.5 32.5t35.5 83.5q0 49 -31 74.5t-83 25.5h-122v118l173 142h-317v120h496v-116z
" />
    <glyph glyph-name="four" unicode="4" horiz-adv-x="606" 
d="M486 700v-442h114v-120h-114v-138h-132v138h-348v116l274 446h206zM144 258h210v328h-12z" />
    <glyph glyph-name="five" unicode="5" horiz-adv-x="568" 
d="M522 580h-344v-182h12q22 31 55.5 52.5t95.5 21.5q55 0 102.5 -27t76 -77.5t28.5 -118.5q0 -78 -32.5 -137.5t-91.5 -92.5t-136 -33q-78 0 -138.5 30t-94 85.5t-33.5 128.5v18h132v-10q0 -61 34 -97.5t96 -36.5q61 0 96.5 37.5t35.5 101.5q0 54 -30.5 85.5t-78.5 31.5
q-35 0 -56.5 -14t-31.5 -34h-173v388h476v-120z" />
    <glyph glyph-name="six" unicode="6" horiz-adv-x="566" 
d="M512.5 103q-33.5 -55 -94 -85.5t-136.5 -30.5q-72 0 -129.5 29.5t-90 82.5t-32.5 120v245q0 80 34 136.5t93 85t135 28.5q73 0 129 -26.5t87.5 -76.5t31.5 -119h-134q0 47 -29.5 75.5t-84.5 28.5q-62 0 -96 -32t-34 -92v-80h12q47 66 150 66q63 0 113.5 -29.5t79.5 -81.5
t29 -117q0 -72 -33.5 -127zM196.5 321q-34.5 -34 -34.5 -91q0 -58 35 -91.5t91 -33.5q55 0 90.5 34.5t35.5 90.5q0 57 -34.5 91t-91.5 34t-91.5 -34z" />
    <glyph glyph-name="seven" unicode="7" horiz-adv-x="528" 
d="M524 700v-116l-272 -584h-146l268 580h-370v120h520z" />
    <glyph glyph-name="eight" unicode="8" horiz-adv-x="568" 
d="M64 621.5q32 43.5 89 68t131 24.5t131 -24.5t89 -68t32 -98.5q0 -109 -112 -156v-12q49 -14 85.5 -57.5t36.5 -108.5q0 -60 -33.5 -106t-93 -71.5t-135.5 -25.5t-135.5 25.5t-93 71.5t-33.5 106q0 65 36.5 108.5t85.5 57.5v12q-112 47 -112 156q0 55 32 98.5zM197 442
q33 -24 87 -24t87 24t33 65t-33 65t-87 24t-87 -24t-33 -65t33 -65zM188 131q34 -27 96 -27t96 27t34 71t-34 71t-96 27t-96 -27t-34 -71t34 -71z" />
    <glyph glyph-name="nine" unicode="9" horiz-adv-x="568" 
d="M55.5 598q33.5 55 94 85.5t136.5 30.5q72 0 129.5 -29.5t90 -82.5t32.5 -120v-245q0 -80 -34 -136.5t-93 -85t-135 -28.5q-73 0 -129 26.5t-87.5 76.5t-31.5 119h134q0 -46 29.5 -75t84.5 -29q62 0 96 32t34 92v80h-12q-47 -66 -150 -66q-63 0 -113.5 29.5t-79.5 81.5
t-29 117q0 72 33.5 127zM371.5 380q34.5 34 34.5 91q0 58 -35 91.5t-91 33.5q-55 0 -90.5 -34.5t-35.5 -90.5q0 -57 34.5 -91t91.5 -34t91.5 34z" />
    <glyph glyph-name="colon" unicode=":" horiz-adv-x="282" 
d="M73 149.5q27 26.5 68 26.5t68 -26.5t27 -68.5t-27 -68.5t-68 -26.5t-68 26.5t-27 68.5t27 68.5zM73 483.5q27 26.5 68 26.5t68 -26.5t27 -68.5t-27 -68.5t-68 -26.5t-68 26.5t-27 68.5t27 68.5z" />
    <glyph glyph-name="semicolon" unicode=";" horiz-adv-x="282" 
d="M73 483.5q27 26.5 68 26.5t68 -26.5t27 -68.5t-27 -68.5t-68 -26.5t-68 26.5t-27 68.5t27 68.5zM72 150.5q26 25.5 67 25.5t67 -26t26 -70v-81q0 -61 -33.5 -97.5t-100.5 -36.5h-37v68h42q24 0 37.5 14t13.5 38v12h-15q-41 0 -67 24.5t-26 62.5q0 41 26 66.5z" />
    <glyph glyph-name="less" unicode="&#x3c;" 
d="M100 428l420 142v-120l-298 -91v-18l298 -91v-120l-420 142v156z" />
    <glyph glyph-name="equal" unicode="=" 
d="M101 494h418v-114h-418v114zM101 320h418v-114h-418v114z" />
    <glyph glyph-name="greater" unicode="&#x3e;" 
d="M100 130v120l298 91v18l-298 91v120l420 -142v-156z" />
    <glyph glyph-name="question" unicode="?" horiz-adv-x="592" 
d="M74 609.5q34 50.5 93 77.5t131 27q71 0 127.5 -26t88.5 -73.5t32 -108.5v-4q0 -80 -40 -124t-107 -73l-18 -8q-18 -8 -25 -19.5t-7 -33.5v-26h-132v36q0 52 20.5 85t66.5 54l18 8q49 22 70.5 43t21.5 56q0 41 -32 65.5t-84 24.5q-56 0 -91 -27t-35 -77v-24h-132v30
q0 67 34 117.5zM215 149.5q27 26.5 68 26.5t68 -26.5t27 -68.5t-27 -68.5t-68 -26.5t-68 26.5t-27 68.5t27 68.5z" />
    <glyph glyph-name="at" unicode="@" horiz-adv-x="1040" 
d="M137.5 645q55.5 55 152.5 55h480q92 0 140 -47.5t48 -138.5v-422q0 -41 -25 -66.5t-67 -25.5h-158q-34 0 -55.5 19t-21.5 51v2h-18q-31 -86 -124 -86q-61 0 -107 33.5t-71 91.5t-25 127v16q0 70 24 127.5t67.5 91t101.5 33.5q51 0 78.5 -19.5t46.5 -54.5h18v60h122v-350
q0 -30 27 -30h36q27 0 27 30v372q0 35 -18.5 53.5t-53.5 18.5h-444q-112 0 -112 -112v-448q0 -112 112 -112h630v-114h-658q-97 0 -152.5 55t-55.5 153v484q0 98 55.5 153zM438 139.5q28 -37.5 77 -37.5t78 37.5t29 100.5v12q0 63 -29 100.5t-78 37.5t-77 -37.5t-28 -100.5
v-12q0 -63 28 -100.5z" />
    <glyph glyph-name="A" unicode="A" horiz-adv-x="602" 
d="M404 700l196 -700h-135l-42 156h-244l-42 -156h-135l196 700h206zM391 276l-85 316h-10l-85 -316h180z" />
    <glyph glyph-name="B" unicode="B" horiz-adv-x="614" 
d="M523 649.5q57 -50.5 57 -135.5q0 -69 -33.5 -105.5t-80.5 -50.5v-10q48 -13 83 -50.5t35 -107.5q0 -87 -57.5 -138.5t-148.5 -51.5h-320v700h316q92 0 149 -50.5zM360 412q42 0 68 22.5t26 61.5t-26 61.5t-68 22.5h-170v-168h170zM362 120q44 0 70 23t26 63t-26 63
t-70 23h-172v-172h172z" />
    <glyph glyph-name="C" unicode="C" horiz-adv-x="622" 
d="M107 640.5q77 73.5 211 73.5q87 0 149.5 -31t95.5 -88t33 -133v-18h-132v20q0 56 -38.5 94t-107.5 38q-72 0 -114 -43t-42 -117v-172q0 -74 42 -117t114 -43q69 0 107.5 38t38.5 94v28h132v-26q0 -76 -33 -133t-95.5 -88t-149.5 -31q-134 0 -211 73.5t-77 206.5v168
q0 133 77 206.5z" />
    <glyph glyph-name="D" unicode="D" horiz-adv-x="616" 
d="M512.5 628.5q73.5 -71.5 73.5 -212.5v-132q0 -141 -73.5 -212.5t-214.5 -71.5h-240v700h240q141 0 214.5 -71.5zM300 120q154 0 154 160v140q0 160 -154 160h-110v-460h110z" />
    <glyph glyph-name="E" unicode="E" horiz-adv-x="552" 
d="M518 700v-120h-328v-167h300v-120h-300v-173h334v-120h-466v700h460z" />
    <glyph glyph-name="F" unicode="F" horiz-adv-x="524" 
d="M504 700v-120h-314v-169h294v-120h-294v-291h-132v700h446z" />
    <glyph glyph-name="G" unicode="G" horiz-adv-x="626" 
d="M108 640.5q78 73.5 212 73.5q130 0 201 -67.5t71 -180.5v-12h-132v14q0 57 -35.5 92.5t-104.5 35.5q-72 0 -115 -43.5t-43 -116.5v-172q0 -73 43 -116.5t115 -43.5q71 0 108.5 35.5t37.5 96.5v6h-170v112h300v-102q0 -125 -72.5 -195.5t-203.5 -70.5q-134 0 -212 73.5
t-78 206.5v168q0 133 78 206.5z" />
    <glyph glyph-name="H" unicode="H" horiz-adv-x="644" 
d="M190 700v-289h264v289h132v-700h-132v291h-264v-291h-132v700h132z" />
    <glyph glyph-name="I" unicode="I" horiz-adv-x="248" 
d="M190 700v-700h-132v700h132z" />
    <glyph glyph-name="J" unicode="J" horiz-adv-x="536" 
d="M423.5 44q-58.5 -58 -162.5 -58q-109 0 -172 59.5t-63 164.5v66h132v-66q0 -49 26 -76.5t73 -27.5q44 0 68.5 27.5t24.5 76.5v490h132v-490q0 -108 -58.5 -166z" />
    <glyph glyph-name="K" unicode="K" horiz-adv-x="649" 
d="M667 700l-309 -293l294 -407h-163l-223 320l-76 -72v-248h-132v700h132v-280h10l281 280h186z" />
    <glyph glyph-name="L" unicode="L" horiz-adv-x="526" 
d="M190 700v-580h324v-120h-456v700h132z" />
    <glyph glyph-name="M" unicode="M" horiz-adv-x="880" 
d="M284 700l151 -566h10l151 566h226v-700h-128v564h-10l-151 -564h-186l-151 564h-10v-564h-128v700h226z" />
    <glyph glyph-name="N" unicode="N" horiz-adv-x="654" 
d="M285 700l169 -566h10v566h132v-700h-227l-169 566h-10v-566h-132v700h227z" />
    <glyph glyph-name="O" unicode="O" horiz-adv-x="636" 
d="M107 640.5q77 73.5 211 73.5t211 -73.5t77 -206.5v-168q0 -133 -77 -206.5t-211 -73.5t-211 73.5t-77 206.5v168q0 133 77 206.5zM203.5 146.5q41.5 -42.5 114.5 -42.5t114.5 42.5t41.5 115.5v176q0 73 -41.5 115.5t-114.5 42.5t-114.5 -42.5t-41.5 -115.5v-176
q0 -73 41.5 -115.5z" />
    <glyph glyph-name="P" unicode="P" horiz-adv-x="582" 
d="M462.5 672.5q50.5 -27.5 79 -78t28.5 -116.5t-29 -116.5t-80 -78t-115 -27.5h-156v-256h-132v700h288q66 0 116.5 -27.5zM333 376q47 0 76 28t29 74t-29 74t-76 28h-143v-204h143z" />
    <glyph glyph-name="Q" unicode="Q" horiz-adv-x="636" 
d="M529 640.5q77 -73.5 77 -206.5v-168q0 -116 -59 -187t-165 -88v-39q0 -30 28 -30h59v-102h-105q-50 0 -80 30.5t-30 81.5v59q-106 17 -165 88t-59 187v168q0 133 77 206.5t211 73.5t211 -73.5zM474 438q0 73 -41.5 115.5t-114.5 42.5t-114.5 -42.5t-41.5 -115.5v-176
q0 -73 41.5 -115.5t114.5 -42.5t114.5 42.5t41.5 115.5v176z" />
    <glyph glyph-name="R" unicode="R" horiz-adv-x="616" 
d="M548.5 345.5q-41.5 -55.5 -110.5 -75.5l144 -270h-149l-128 260h-115v-260h-132v700h308q66 0 116.5 -27.5t79 -77t28.5 -115.5q0 -79 -41.5 -134.5zM190 379h163q47 0 76 27.5t29 73.5t-29 73t-76 27h-163v-201z" />
    <glyph glyph-name="S" unicode="S" horiz-adv-x="586" 
d="M477 655q71 -59 71 -169v-16h-130v16q0 112 -129 112q-59 0 -88 -22t-29 -62q0 -38 28.5 -59t94.5 -36l23 -5q121 -26 182.5 -73.5t61.5 -138.5q0 -64 -32.5 -113t-92.5 -76t-140 -27q-81 0 -143.5 29t-97 83.5t-34.5 129.5v10h130v-10q0 -62 38 -94t107 -32
q66 0 100.5 26.5t34.5 69.5q0 41 -31.5 61.5t-105.5 36.5l-23 5q-118 26 -174 72t-56 137q0 95 67 149.5t180 54.5q117 0 188 -59z" />
    <glyph glyph-name="T" unicode="T" horiz-adv-x="572" 
d="M564 700v-120h-212v-580h-132v580h-212v120h556z" />
    <glyph glyph-name="U" unicode="U" horiz-adv-x="656" 
d="M186 242q0 -65 37 -101.5t105 -36.5t105 36.5t37 101.5v458h132v-454q0 -121 -73 -190.5t-201 -69.5t-201 69.5t-73 190.5v454h132v-458z" />
    <glyph glyph-name="V" unicode="V" horiz-adv-x="602" 
d="M137 700l159 -592h10l159 592h135l-195 -700h-208l-195 700h135z" />
    <glyph glyph-name="W" unicode="W" horiz-adv-x="896" 
d="M142 700l85 -572h10l108 572h206l108 -572h10l85 572h132l-112 -700h-213l-108 572h-10l-108 -572h-213l-112 700h132z" />
    <glyph glyph-name="X" unicode="X" horiz-adv-x="624" 
d="M164 700l143 -260h10l143 260h150l-203 -347l205 -353h-150l-145 266h-10l-145 -266h-150l205 353l-203 347h150z" />
    <glyph glyph-name="Y" unicode="Y" horiz-adv-x="612" 
d="M142 700l159 -310h10l159 310h148l-246 -453v-247h-132v247l-246 453h148z" />
    <glyph glyph-name="Z" unicode="Z" horiz-adv-x="570" 
d="M540 700v-114l-347 -468h349v-118h-514v114l347 468h-337v118h502z" />
    <glyph glyph-name="bracketleft" unicode="[" horiz-adv-x="358" 
d="M138.5 777.5q28.5 28.5 73.5 28.5h126v-116h-75q-27 0 -27 -30v-760q0 -30 27 -30h75v-116h-126q-45 0 -73.5 28.5t-28.5 73.5v848q0 45 28.5 73.5z" />
    <glyph glyph-name="backslash" unicode="\" horiz-adv-x="506" 
d="M466 -200h-126l-294 900h126z" />
    <glyph glyph-name="bracketright" unicode="]" horiz-adv-x="358" 
d="M219.5 -217.5q-28.5 -28.5 -73.5 -28.5h-126v116h75q27 0 27 30v760q0 30 -27 30h-75v116h126q45 0 73.5 -28.5t28.5 -73.5v-848q0 -45 -28.5 -73.5z" />
    <glyph glyph-name="asciicircum" unicode="^" 
d="M550 424h-140l-91 196h-18l-91 -196h-140l146 276h188z" />
    <glyph glyph-name="underscore" unicode="_" 
d="M65 -48h490v-114h-490v114z" />
    <glyph glyph-name="grave" unicode="`" horiz-adv-x="276" 
d="M236 570h-108l-88 130h142z" />
    <glyph glyph-name="a" unicode="a" horiz-adv-x="532" 
d="M124.5 471q54.5 39 145.5 39q99 0 155.5 -49.5t56.5 -141.5v-319h-120v58h-14q-11 -26 -42.5 -49t-91.5 -23q-79 0 -130.5 42.5t-51.5 116.5t52.5 114.5t139.5 40.5h136v28q0 37 -23 59.5t-69 22.5q-45 0 -70 -21.5t-32 -57.5l-116 39q20 62 74.5 101zM179.5 104.5
q21.5 -16.5 60.5 -16.5q53 0 86.5 30.5t33.5 79.5v8h-127q-35 0 -55 -16t-20 -42q0 -27 21.5 -43.5z" />
    <glyph glyph-name="b" unicode="b" horiz-adv-x="604" 
d="M182 432h10q55 78 162 78q60 0 111 -32t82 -92t31 -138t-31 -138t-82 -92t-111 -32q-107 0 -164 81h-10v-67h-124v700h126v-268zM218 361q-38 -41 -38 -113t38 -113t98 -41t98 41t38 113t-38 113t-98 41t-98 -41z" />
    <glyph glyph-name="c" unicode="c" horiz-adv-x="554" 
d="M60 383q34 60 93 93.5t131 33.5q100 0 163.5 -52.5t80.5 -139.5l-122 -26q-6 48 -36 78t-84 30q-59 0 -96.5 -41t-37.5 -111t37.5 -111t96.5 -41q54 0 84.5 29t39.5 80l122 -29q-22 -86 -85 -138t-163 -52q-72 0 -131 33.5t-93 93.5t-34 135t34 135z" />
    <glyph glyph-name="d" unicode="d" horiz-adv-x="604" 
d="M424 0v67h-10q-57 -81 -164 -81q-60 0 -111 32t-82 92t-31 138t31 138t82 92t111 32q107 0 162 -78h10v268h126v-700h-124zM190 361q-38 -41 -38 -113t38 -113t98 -41t98 41t38 113t-38 113t-98 41t-98 -41z" />
    <glyph glyph-name="e" unicode="e" horiz-adv-x="538" 
d="M57.5 385.5q31.5 59.5 88 92t129.5 32.5q72 0 126.5 -32t84.5 -90.5t30 -133.5v-43h-361q2 -51 37.5 -84t88.5 -33q48 0 74.5 21t41.5 55l103 -54q-69 -130 -223 -130q-73 0 -130 32.5t-89 92t-32 137.5t31.5 137.5zM352.5 375q-30.5 27 -78.5 27q-49 0 -80.5 -27
t-37.5 -70h232q-5 43 -35.5 70z" />
    <glyph glyph-name="f" unicode="f" horiz-adv-x="416" 
d="M142 588q0 51 30 81.5t80 30.5h130v-102h-86q-28 0 -28 -30v-72h130v-102h-130v-394h-126v394h-126v102h126v92z" />
    <glyph glyph-name="g" unicode="g" horiz-adv-x="604" 
d="M548 496v-467q0 -118 -70.5 -180.5t-191.5 -62.5q-106 0 -169.5 46t-86.5 112l113 49q14 -46 48.5 -73.5t92.5 -27.5q64 0 101 35t37 105v48h-10q-56 -78 -162 -78q-59 0 -110.5 32t-82.5 89.5t-31 132.5t31 132.5t82.5 89.5t110.5 32q107 0 164 -81h10v67h124zM386 150
q38 40 38 106t-38 106t-98 40t-98 -40t-38 -106t38 -106t98 -40t98 40z" />
    <glyph glyph-name="h" unicode="h" horiz-adv-x="586" 
d="M182 426h10q39 78 151 78q57 0 101 -26.5t68 -73.5t24 -108v-296h-126v290q0 56 -27 84t-79 28q-58 0 -90 -38.5t-32 -107.5v-256h-126v700h126v-274z" />
    <glyph glyph-name="i" unicode="i" horiz-adv-x="238" 
d="M182 0h-126v496h126v-496zM55.5 702q25.5 24 63.5 24t63.5 -24t25.5 -62t-25.5 -62t-63.5 -24t-63.5 24t-25.5 62t25.5 62z" />
    <glyph glyph-name="j" unicode="j" horiz-adv-x="242" 
d="M156 -169.5q-30 -30.5 -80 -30.5h-130v102h86q28 0 28 30v564h126v-584q0 -51 -30 -81.5zM59.5 702q25.5 24 63.5 24t63.5 -24t25.5 -62t-25.5 -62t-63.5 -24t-63.5 24t-25.5 62t25.5 62z" />
    <glyph glyph-name="k" unicode="k" horiz-adv-x="580" 
d="M574 496l-233 -199l229 -297h-155l-164 220l-69 -59v-161h-126v700h126v-386l206 182h186z" />
    <glyph glyph-name="l" unicode="l" horiz-adv-x="238" 
d="M182 0h-126v700h126v-700z" />
    <glyph glyph-name="m" unicode="m" horiz-adv-x="824" 
d="M180 434h10q16 32 48 51t82 19q98 0 136 -78h10q21 36 53.5 57t88.5 21q73 0 119.5 -46t46.5 -132v-326h-126v320q0 40 -21 61t-59 21q-43 0 -66.5 -27.5t-23.5 -78.5v-296h-126v320q0 40 -21 61t-59 21q-43 0 -66.5 -27.5t-23.5 -78.5v-296h-126v496h124v-62z" />
    <glyph glyph-name="n" unicode="n" horiz-adv-x="586" 
d="M180 422h10q39 82 153 82q57 0 101 -26.5t68 -73.5t24 -108v-296h-126v290q0 56 -27 84t-79 28q-58 0 -90 -38.5t-32 -107.5v-256h-126v496h124v-74z" />
    <glyph glyph-name="o" unicode="o" horiz-adv-x="572" 
d="M60 386.5q34 59.5 93 91.5t133 32t133 -32t93 -91.5t34 -138.5t-34 -138.5t-93 -91.5t-133 -32t-133 32t-93 91.5t-34 138.5t34 138.5zM189 136.5q37 -40.5 97 -40.5t97 40.5t37 111.5t-37 111.5t-97 40.5t-97 -40.5t-37 -111.5t37 -111.5z" />
    <glyph glyph-name="p" unicode="p" horiz-adv-x="604" 
d="M180 496v-67h10q57 81 164 81q60 0 111 -32t82 -92t31 -138t-31 -138t-82 -92t-111 -32q-107 0 -162 78h-10v-264h-126v696h124zM414 135q38 41 38 113t-38 113t-98 41t-98 -41t-38 -113t38 -113t98 -41t98 41z" />
    <glyph glyph-name="q" unicode="q" horiz-adv-x="604" 
d="M422 64h-10q-55 -78 -162 -78q-60 0 -111 32t-82 92t-31 138t31 138t82 92t111 32q107 0 164 -81h10v67h124v-696h-126v264zM386 135q38 41 38 113t-38 113t-98 41t-98 -41t-38 -113t38 -113t98 -41t98 41z" />
    <glyph glyph-name="r" unicode="r" horiz-adv-x="374" 
d="M190 426q14 38 44.5 55t79.5 17h52v-106h-74q-50 0 -80 -26.5t-30 -77.5v-288h-126v496h124v-70h10z" />
    <glyph glyph-name="s" unicode="s" horiz-adv-x="500" 
d="M101 469.5q53 40.5 143 40.5q81 0 135 -36.5t73 -98.5l-114 -35q-16 74 -94 74q-36 0 -55 -13t-19 -36q0 -24 19.5 -36.5t60.5 -20.5l26 -5q65 -13 106 -29t65.5 -46t24.5 -79q0 -77 -56 -120t-152 -43q-98 0 -159.5 42t-74.5 120l116 30q17 -96 118 -96q42 0 64 16
t22 41q0 23 -21 36.5t-69 22.5l-26 5q-89 17 -137.5 51.5t-48.5 102.5q0 72 53 112.5z" />
    <glyph glyph-name="t" unicode="t" horiz-adv-x="418" 
d="M128 496v154h126v-154h136v-102h-136v-262q0 -30 28 -30h96v-102h-140q-50 0 -80 30.5t-30 81.5v282h-124v102h124z" />
    <glyph glyph-name="u" unicode="u" horiz-adv-x="594" 
d="M414 74h-10q-39 -82 -153 -82q-57 0 -101 26.5t-68 73.5t-24 108v296h126v-290q0 -56 27 -84t79 -28q58 0 90 38.5t32 107.5v256h126v-496h-124v74z" />
    <glyph glyph-name="v" unicode="v" horiz-adv-x="532" 
d="M138 496l123 -390h10l123 390h136l-171 -496h-186l-171 496h136z" />
    <glyph glyph-name="w" unicode="w" horiz-adv-x="744" 
d="M136 496l60 -392h10l79 392h174l79 -392h10l60 392h126l-98 -496h-180l-79 392h-10l-79 -392h-180l-98 496h126z" />
    <glyph glyph-name="x" unicode="x" horiz-adv-x="568" 
d="M162 496l117 -171h10l117 171h146l-174 -246l176 -250h-149l-116 173h-10l-116 -173h-149l176 250l-174 246h146z" />
    <glyph glyph-name="y" unicode="y" horiz-adv-x="548" 
d="M410 496h136l-272 -696h-136l70 168l-206 528h136l131 -358h10z" />
    <glyph glyph-name="z" unicode="z" horiz-adv-x="528" 
d="M484 496v-92l-272 -302h280v-102h-450v92l272 302h-262v102h432z" />
    <glyph glyph-name="braceleft" unicode="{" horiz-adv-x="404" 
d="M156 377v327q0 45 28.5 73.5t73.5 28.5h126v-116h-75q-27 0 -27 -30v-293q0 -34 -21.5 -57t-56.5 -23h-16v-14h16q35 0 56.5 -23t21.5 -57v-293q0 -30 27 -30h75v-116h-126q-45 0 -73.5 28.5t-28.5 73.5v327q0 29 -27 29h-69v136h69q27 0 27 29z" />
    <glyph glyph-name="bar" unicode="|" horiz-adv-x="242" 
d="M184 -246h-126v1052h126v-1052z" />
    <glyph glyph-name="braceright" unicode="}" horiz-adv-x="404" 
d="M275 212q-27 0 -27 -29v-327q0 -45 -28.5 -73.5t-73.5 -28.5h-126v116h75q27 0 27 30v293q0 34 21.5 57t56.5 23h16v14h-16q-35 0 -56.5 23t-21.5 57v293q0 30 -27 30h-75v116h126q45 0 73.5 -28.5t28.5 -73.5v-327q0 -29 27 -29h69v-136h-69z" />
    <glyph glyph-name="asciitilde" unicode="~" 
d="M359.5 348q7.5 -7 21.5 -7q17 0 39 19l86 63l70 -93l-121 -92q-42 -35 -89 -35q-62 0 -86 41q-13 21 -20.5 28t-21.5 7q-17 0 -39 -19l-86 -63l-70 93l121 92q42 35 89 35q62 0 86 -41q13 -21 20.5 -28z" />
    <glyph glyph-name="uni00A0" unicode="&#xa0;" horiz-adv-x="270" 
 />
    <glyph glyph-name="exclamdown" unicode="&#xa1;" horiz-adv-x="282" 
d="M209 346.5q-27 -26.5 -68 -26.5t-68 26.5t-27 68.5t27 68.5t68 26.5t68 -26.5t27 -68.5t-27 -68.5zM73 -200l14 478h108l14 -478h-136z" />
    <glyph glyph-name="cent" unicode="&#xa2;" horiz-adv-x="586" 
d="M428 436v18q0 46 -17 79t-50 49v-465q67 27 67 129v18h132v-24q0 -104 -50 -169.5t-149 -80.5v-106h-120v107q-100 16 -155.5 88t-55.5 193v156q0 116 55 190t156 91v107h120v-107q95 -16 147 -81t52 -168v-24h-132zM241 116v467q-39 -18 -59 -56.5t-20 -88.5v-176
q0 -116 79 -146z" />
    <glyph glyph-name="sterling" unicode="&#xa3;" horiz-adv-x="638" 
d="M126 490q0 108 58.5 166t162.5 58q110 0 172.5 -60t62.5 -164v-58h-126v62q0 47 -28.5 73.5t-76.5 26.5q-45 0 -72 -26.5t-27 -73.5v-102h100v-110h-100v-162h334v-120h-534v120h74v162h-70v110h70v98z" />
    <glyph glyph-name="currency" unicode="&#xa4;" 
d="M176 561q63 39 134 39t134 -39l61 61l77 -77l-61 -61q39 -63 39 -134t-39 -134l61 -61l-77 -77l-61 61q-61 -39 -134 -39t-134 39l-61 -61l-77 77l61 61q-39 61 -39 134t39 134l-61 61l77 77zM187 278.5q19 -32.5 51.5 -51.5t71.5 -19t71.5 19t51.5 51.5t19 71.5
t-19 71.5t-51.5 51.5t-71.5 19t-71.5 -19t-51.5 -51.5t-19 -71.5t19 -71.5z" />
    <glyph glyph-name="yen" unicode="&#xa5;" 
d="M622 700l-179 -336h94v-104h-161v-50h161v-104h-161v-106h-132v106h-161v104h161v50h-161v104h94l-179 336h150l153 -298h18l153 298h150z" />
    <glyph glyph-name="brokenbar" unicode="&#xa6;" horiz-adv-x="242" 
d="M58 366v440h126v-440h-126zM184 194v-440h-126v440h126z" />
    <glyph glyph-name="section" unicode="&#xa7;" horiz-adv-x="474" 
d="M102 671.5q50 42.5 130 42.5q86 0 140 -45t54 -121v-22h-108v12q0 33 -20.5 53.5t-62.5 20.5q-34 0 -53.5 -15t-19.5 -41q0 -30 26 -45t75 -24q89 -16 130 -56t41 -107q0 -50 -18 -86q18 -31 18 -74v-8q0 -77 -51.5 -123.5t-142.5 -46.5q-97 0 -153.5 54t-56.5 144v14
h108v-12q0 -46 25.5 -72t75.5 -26q85 0 85 64q0 31 -20.5 47t-72.5 26q-87 16 -133 55.5t-46 109.5q0 45 21 82q-21 33 -21 78v6q0 73 50 115.5zM320 309q1 2 1 11q0 28 -19.5 44t-70.5 25q-29 5 -65 17q-3 -6 -3 -16q0 -29 26 -43.5t74 -23.5q36 -6 57 -14z" />
    <glyph glyph-name="dieresis" unicode="&#xa8;" horiz-adv-x="468" 
d="M65.5 702q25.5 24 63.5 24t63.5 -24t25.5 -62t-25.5 -62t-63.5 -24t-63.5 24t-25.5 62t25.5 62zM275.5 702q25.5 24 63.5 24t63.5 -24t25.5 -62t-25.5 -62t-63.5 -24t-63.5 24t-25.5 62t25.5 62z" />
    <glyph glyph-name="copyright" unicode="&#xa9;" horiz-adv-x="724" 
d="M109.5 648.5q51.5 51.5 142.5 51.5h220q91 0 142.5 -51.5t51.5 -148.5v-300q0 -97 -51.5 -148.5t-142.5 -51.5h-220q-91 0 -142.5 51.5t-51.5 148.5v300q0 97 51.5 148.5zM274 96h176q114 0 114 124v260q0 124 -114 124h-176q-114 0 -114 -124v-260q0 -124 114 -124z
M261.5 508.5q37.5 39.5 102.5 39.5q69 0 103.5 -37.5t34.5 -102.5v-14h-94v20q0 21 -11 32.5t-33 11.5t-33 -11.5t-11 -32.5v-126q0 -21 11 -32.5t33 -11.5t33 11.5t11 32.5v20h94v-14q0 -65 -34.5 -102.5t-103.5 -37.5q-65 0 -102.5 39.5t-37.5 110.5v94q0 71 37.5 110.5z
" />
    <glyph glyph-name="ordfeminine" unicode="&#xaa;" horiz-adv-x="377" 
d="M65 532.5q37 28.5 97 28.5h89v17q0 27 -14.5 42.5t-44.5 15.5q-29 0 -46 -14t-22 -36l-87 27q14 41 55 69t103 28q68 0 109 -35.5t41 -100.5v-224h-88v43h-10q-5 -20 -28 -36.5t-68 -16.5q-53 0 -88 29.5t-35 82.5q0 52 37 80.5zM136 425q14 -11 39 -11q35 0 55.5 19.5
t20.5 51.5v6h-80q-23 0 -36 -10t-13 -27q0 -18 14 -29z" />
    <glyph glyph-name="guillemotleft" unicode="&#xab;" horiz-adv-x="780" 
d="M372 490h6v-136l-192 -97v-18l192 -97v-136h-6l-314 176v132zM712 490h6v-136l-192 -97v-18l192 -97v-136h-6l-314 176v132z" />
    <glyph glyph-name="logicalnot" unicode="&#xac;" 
d="M101 407h418v-245h-114v131h-304v114z" />
    <glyph glyph-name="uni00AD" unicode="&#xad;" horiz-adv-x="460" 
d="M82 312h296v-114h-296v114z" />
    <glyph glyph-name="registered" unicode="&#xae;" 
d="M127.5 613.5q27.5 47.5 75.5 74t107 26.5t107 -26.5t75.5 -74t27.5 -107.5t-27.5 -107.5t-75.5 -74t-107 -26.5t-107 26.5t-75.5 74t-27.5 107.5t27.5 107.5zM189.5 385.5q45.5 -45.5 120.5 -45.5t120.5 45.5t45.5 120.5t-45.5 120.5t-120.5 45.5t-120.5 -45.5
t-45.5 -120.5t45.5 -120.5zM378 601q20 -18 20 -44q0 -42 -40 -56v-6q16 -1 24 -11t8 -23v-64h-42v60q0 10 -5.5 15.5t-15.5 5.5h-47v-81h-42v222h85q35 0 55 -18zM323 516q16 0 24.5 9.5t8.5 23.5t-8.5 23t-24.5 9h-43v-65h43z" />
    <glyph glyph-name="macron" unicode="&#xaf;" horiz-adv-x="374" 
d="M334 570h-294v102h294v-102z" />
    <glyph glyph-name="degree" unicode="&#xb0;" horiz-adv-x="398" 
d="M64.5 643q20.5 34 56 53.5t78.5 19.5t78.5 -19.5t56 -53.5t20.5 -77t-20.5 -77t-56 -53.5t-78.5 -19.5t-78.5 19.5t-56 53.5t-20.5 77t20.5 77zM159.5 527q15.5 -15 39.5 -15t39.5 15t15.5 39t-15.5 39t-39.5 15t-39.5 -15t-15.5 -39t15.5 -39z" />
    <glyph glyph-name="plusminus" unicode="&#xb1;" 
d="M101 407h152v152h114v-152h152v-114h-152v-131h-114v131h-152v114zM101 114h418v-114h-418v114z" />
    <glyph glyph-name="uni00B2" unicode="&#xb2;" horiz-adv-x="348" 
d="M286 679q42 -33 42 -88q0 -53 -34.5 -80t-104.5 -42q-36 -7 -53 -15.5t-18 -23.5h208v-80h-308v44q0 60 31.5 94t99.5 50q43 10 61 22t18 32q0 19 -14 29.5t-36 10.5q-25 0 -41.5 -14t-16.5 -40h-98q1 64 44.5 99t112.5 35q65 0 107 -33z" />
    <glyph glyph-name="uni00B3" unicode="&#xb3;" horiz-adv-x="348" 
d="M328 632l-102 -61v-10q45 -2 74.5 -27t29.5 -71q0 -54 -44 -89.5t-111 -35.5q-71 0 -114.5 35.5t-46.5 99.5h98q2 -23 18.5 -38t41.5 -15q26 0 42 14t16 33q0 43 -58 43h-66v62l82 48h-168v80h308v-68z" />
    <glyph glyph-name="acute" unicode="&#xb4;" horiz-adv-x="276" 
d="M236 700l-88 -130h-108l54 130h142z" />
    <glyph glyph-name="uni00B5" unicode="&#xb5;" horiz-adv-x="594" 
d="M182 496v-288q0 -52 29 -81t83 -29q60 0 92 36t32 102v260h126v-496h-124v74h-14q-12 -38 -42 -63t-75 -25q-36 0 -55.5 9t-37.5 25h-14v-220h-126v696h126z" />
    <glyph glyph-name="paragraph" unicode="&#xb6;" horiz-adv-x="606" 
d="M44 603q28 46 77.5 71.5t112.5 25.5h314v-700h-108v598h-78v-598h-108v284h-26q-61 0 -109.5 26t-75.5 72.5t-27 103.5v12q0 59 28 105zM152 414.5q28 -28.5 70 -28.5h32v212h-32q-43 0 -70.5 -28.5t-27.5 -74.5v-6q0 -46 28 -74.5z" />
    <glyph glyph-name="periodcentered" unicode="&#xb7;" horiz-adv-x="282" 
d="M73 418.5q27 26.5 68 26.5t68 -26.5t27 -68.5t-27 -68.5t-68 -26.5t-68 26.5t-27 68.5t27 68.5z" />
    <glyph glyph-name="cedilla" unicode="&#xb8;" horiz-adv-x="301" 
d="M120 -58h12q7 9 20.5 15.5t31.5 6.5q31 0 54 -20.5t23 -59.5q0 -45 -31 -71.5t-79 -26.5q-27 0 -46 5t-38 15l26 68q23 -14 50 -14q15 0 24.5 7t9.5 19q0 9 -5.5 15.5t-14.5 6.5q-17 0 -20 -14h-97v12l27 126h70z" />
    <glyph glyph-name="uni00B9" unicode="&#xb9;" horiz-adv-x="250" 
d="M220 700v-350h-100v246h-10l-18 -52h-88v10l65 146h151z" />
    <glyph glyph-name="ordmasculine" unicode="&#xba;" horiz-adv-x="408" 
d="M73.5 661q49.5 49 130.5 49t130.5 -49t49.5 -136t-49.5 -136t-130.5 -49t-130.5 49t-49.5 136t49.5 136zM141.5 444.5q23.5 -28.5 62.5 -28.5t62.5 28.5t23.5 80.5t-23.5 80.5t-62.5 28.5t-62.5 -28.5t-23.5 -80.5t23.5 -80.5z" />
    <glyph glyph-name="guillemotright" unicode="&#xbb;" horiz-adv-x="780" 
d="M378 182l-314 -176h-6v136l192 97v18l-192 97v136h6l314 -176v-132zM718 182l-314 -176h-6v136l192 97v18l-192 97v136h6l314 -176v-132z" />
    <glyph glyph-name="onequarter" unicode="&#xbc;" horiz-adv-x="732" 
d="M220 700v-350h-100v246h-10l-18 -52h-88v10l65 146h151zM514 716l103 -77l-203 -226l-64 48zM118 -16l-103 77l203 226l64 -48zM642 350v-203h60v-76h-60v-71h-100v71h-200v70l138 209h162zM446 147h96v131h-9z" />
    <glyph glyph-name="onehalf" unicode="&#xbd;" horiz-adv-x="720" 
d="M220 700v-350h-100v246h-10l-18 -52h-88v10l65 146h151zM514 716l103 -77l-203 -226l-64 48zM118 -16l-103 77l203 226l64 -48zM648 329q42 -33 42 -88q0 -53 -34.5 -80t-104.5 -42q-36 -7 -53 -15.5t-18 -23.5h208v-80h-308v44q0 60 31.5 94t99.5 50q43 10 61 22t18 32
q0 19 -14 29.5t-36 10.5q-25 0 -41.5 -14t-16.5 -40h-98q1 64 44.5 99t112.5 35q65 0 107 -33z" />
    <glyph glyph-name="threequarters" unicode="&#xbe;" horiz-adv-x="798" 
d="M328 632l-102 -61v-10q45 -2 74.5 -27t29.5 -71q0 -54 -44 -89.5t-111 -35.5q-71 0 -114.5 35.5t-46.5 99.5h98q2 -23 18.5 -38t41.5 -15q26 0 42 14t16 33q0 43 -58 43h-66v62l82 48h-168v80h308v-68zM592 716l103 -77l-203 -226l-64 48zM196 -16l-103 77l203 226
l64 -48zM720 350v-203h60v-76h-60v-71h-100v71h-200v70l138 209h162zM524 147h96v131h-9z" />
    <glyph glyph-name="questiondown" unicode="&#xbf;" horiz-adv-x="592" 
d="M241 483.5q27 26.5 68 26.5t68 -26.5t27 -68.5t-27 -68.5t-68 -26.5t-68 26.5t-27 68.5t27 68.5zM518 -111.5q-34 -50.5 -93 -77.5t-131 -27q-71 0 -127.5 26t-88.5 73.5t-32 108.5v4q0 80 40 124t107 73l18 8q18 8 25 19.5t7 33.5v24h132v-34q0 -52 -20.5 -85t-66.5 -54
l-18 -8q-49 -22 -70.5 -43t-21.5 -56q0 -41 32 -65.5t84 -24.5q56 0 91 27t35 77v24h132v-30q0 -67 -34 -117.5z" />
    <glyph glyph-name="Agrave" unicode="&#xc0;" horiz-adv-x="602" 
d="M404 700l196 -700h-135l-42 156h-244l-42 -156h-135l196 700h206zM391 276l-85 316h-10l-85 -316h180zM375 760h-108l-88 120h142z" />
    <glyph glyph-name="Aacute" unicode="&#xc1;" horiz-adv-x="602" 
d="M404 700l196 -700h-135l-42 156h-244l-42 -156h-135l196 700h206zM391 276l-85 316h-10l-85 -316h180zM419 880l-88 -120h-108l54 120h142z" />
    <glyph glyph-name="Acircumflex" unicode="&#xc2;" horiz-adv-x="602" 
d="M404 700l196 -700h-135l-42 156h-244l-42 -156h-135l196 700h206zM391 276l-85 316h-10l-85 -316h180zM305 820h-12l-43 -60h-123l94 120h156l94 -120h-123z" />
    <glyph glyph-name="Atilde" unicode="&#xc3;" horiz-adv-x="602" 
d="M404 700l196 -700h-135l-42 156h-244l-42 -156h-135l196 700h206zM391 276l-85 316h-10l-85 -316h180zM193 900.5q20 10.5 44 10.5q44 0 78 -38q2 -2 8.5 -9.5t13.5 -11t16 -3.5q13 0 21.5 5.5t17.5 18.5l30 38l77 -61l-56 -72q-18 -23 -37.5 -33.5t-44.5 -10.5
q-44 0 -78 38q-2 2 -8.5 9.5t-13.5 11t-16 3.5q-13 0 -21.5 -5.5t-17.5 -18.5l-30 -38l-77 61l56 72q18 23 38 33.5z" />
    <glyph glyph-name="Adieresis" unicode="&#xc4;" horiz-adv-x="602" 
d="M404 700l196 -700h-135l-42 156h-244l-42 -156h-135l196 700h206zM391 276l-85 316h-10l-85 -316h180zM127.5 884q25.5 24 63.5 24t63.5 -24t25.5 -62t-25.5 -62t-63.5 -24t-63.5 24t-25.5 62t25.5 62zM343.5 884q25.5 24 63.5 24t63.5 -24t25.5 -62t-25.5 -62t-63.5 -24
t-63.5 24t-25.5 62t25.5 62z" />
    <glyph glyph-name="Aring" unicode="&#xc5;" horiz-adv-x="602" 
d="M404 700l196 -700h-135l-42 156h-244l-42 -156h-135l196 700h206zM391 276l-85 316h-10l-85 -316h180zM222 914q31 30 77 30t77 -29.5t31 -74.5q0 -46 -32 -75t-76 -29q-45 0 -76.5 30t-31.5 74t31 74zM277.5 818.5q8.5 -8.5 21.5 -8.5t21.5 8.5t8.5 21.5t-8.5 21.5
t-21.5 8.5t-21.5 -8.5t-8.5 -21.5t8.5 -21.5z" />
    <glyph glyph-name="AE" unicode="&#xc6;" horiz-adv-x="547" 
d="M397 124h122v-124h-254v154h-98l-32 -154h-133l158 700h353v-124h-116v-163h90v-124h-90v-165zM265 276v300h-10l-63 -300h73z" />
    <glyph glyph-name="Ccedilla" unicode="&#xc7;" horiz-adv-x="622" 
d="M464 444v20q0 56 -38.5 94t-107.5 38q-72 0 -114 -43t-42 -117v-172q0 -74 42 -117t114 -43q69 0 107.5 38t38.5 94v28h132v-26q0 -108 -65 -175.5t-181 -75.5l-9 -45h12q7 9 20.5 15.5t31.5 6.5q31 0 54 -20.5t23 -59.5q0 -45 -31 -71.5t-79 -26.5q-27 0 -46 5t-38 15
l26 68q23 -14 50 -14q15 0 24.5 7t9.5 19q0 9 -5.5 15.5t-14.5 6.5q-17 0 -20 -14h-97v12l18 82q-117 11 -183 83t-66 195v168q0 133 77 206.5t211 73.5q87 0 149.5 -31t95.5 -88t33 -133v-18h-132z" />
    <glyph glyph-name="Egrave" unicode="&#xc8;" horiz-adv-x="552" 
d="M518 700v-120h-328v-167h300v-120h-300v-173h334v-120h-466v700h460zM369 760h-108l-88 120h142z" />
    <glyph glyph-name="Eacute" unicode="&#xc9;" horiz-adv-x="552" 
d="M518 700v-120h-328v-167h300v-120h-300v-173h334v-120h-466v700h460zM413 880l-88 -120h-108l54 120h142z" />
    <glyph glyph-name="Ecircumflex" unicode="&#xca;" horiz-adv-x="552" 
d="M518 700v-120h-328v-167h300v-120h-300v-173h334v-120h-466v700h460zM299 820h-12l-43 -60h-123l94 120h156l94 -120h-123z" />
    <glyph glyph-name="Edieresis" unicode="&#xcb;" horiz-adv-x="552" 
d="M518 700v-120h-328v-167h300v-120h-300v-173h334v-120h-466v700h460zM121.5 884q25.5 24 63.5 24t63.5 -24t25.5 -62t-25.5 -62t-63.5 -24t-63.5 24t-25.5 62t25.5 62zM337.5 884q25.5 24 63.5 24t63.5 -24t25.5 -62t-25.5 -62t-63.5 -24t-63.5 24t-25.5 62t25.5 62z" />
    <glyph glyph-name="Igrave" unicode="&#xcc;" horiz-adv-x="248" 
d="M190 700v-700h-132v700h132zM200 760h-108l-88 120h142z" />
    <glyph glyph-name="Iacute" unicode="&#xcd;" horiz-adv-x="248" 
d="M190 700v-700h-132v700h132zM244 880l-88 -120h-108l54 120h142z" />
    <glyph glyph-name="Icircumflex" unicode="&#xce;" horiz-adv-x="248" 
d="M190 700v-700h-132v700h132zM130 820h-12l-43 -60h-123l94 120h156l94 -120h-123z" />
    <glyph glyph-name="Idieresis" unicode="&#xcf;" horiz-adv-x="248" 
d="M190 700v-700h-132v700h132zM-47.5 884q25.5 24 63.5 24t63.5 -24t25.5 -62t-25.5 -62t-63.5 -24t-63.5 24t-25.5 62t25.5 62zM168.5 884q25.5 24 63.5 24t63.5 -24t25.5 -62t-25.5 -62t-63.5 -24t-63.5 24t-25.5 62t25.5 62z" />
    <glyph glyph-name="Eth" unicode="&#xd0;" horiz-adv-x="616" 
d="M512.5 628.5q73.5 -71.5 73.5 -212.5v-132q0 -141 -73.5 -212.5t-214.5 -71.5h-240v296h-82v110h82v294h240q141 0 214.5 -71.5zM454 420q0 160 -154 160h-110v-174h134v-110h-134v-176h110q154 0 154 160v140z" />
    <glyph glyph-name="Ntilde" unicode="&#xd1;" horiz-adv-x="654" 
d="M285 700l169 -566h10v566h132v-700h-227l-169 566h-10v-566h-132v700h227zM220 900.5q20 10.5 44 10.5q44 0 78 -38q2 -2 8.5 -9.5t13.5 -11t16 -3.5q13 0 21.5 5.5t17.5 18.5l30 38l77 -61l-56 -72q-18 -23 -37.5 -33.5t-44.5 -10.5q-44 0 -78 38q-2 2 -8.5 9.5
t-13.5 11t-16 3.5q-13 0 -21.5 -5.5t-17.5 -18.5l-30 -38l-77 61l56 72q18 23 38 33.5z" />
    <glyph glyph-name="Ograve" unicode="&#xd2;" horiz-adv-x="636" 
d="M107 640.5q77 73.5 211 73.5t211 -73.5t77 -206.5v-168q0 -133 -77 -206.5t-211 -73.5t-211 73.5t-77 206.5v168q0 133 77 206.5zM203.5 146.5q41.5 -42.5 114.5 -42.5t114.5 42.5t41.5 115.5v176q0 73 -41.5 115.5t-114.5 42.5t-114.5 -42.5t-41.5 -115.5v-176
q0 -73 41.5 -115.5zM394 760h-108l-88 120h142z" />
    <glyph glyph-name="Oacute" unicode="&#xd3;" horiz-adv-x="636" 
d="M107 640.5q77 73.5 211 73.5t211 -73.5t77 -206.5v-168q0 -133 -77 -206.5t-211 -73.5t-211 73.5t-77 206.5v168q0 133 77 206.5zM203.5 146.5q41.5 -42.5 114.5 -42.5t114.5 42.5t41.5 115.5v176q0 73 -41.5 115.5t-114.5 42.5t-114.5 -42.5t-41.5 -115.5v-176
q0 -73 41.5 -115.5zM438 880l-88 -120h-108l54 120h142z" />
    <glyph glyph-name="Ocircumflex" unicode="&#xd4;" horiz-adv-x="636" 
d="M107 640.5q77 73.5 211 73.5t211 -73.5t77 -206.5v-168q0 -133 -77 -206.5t-211 -73.5t-211 73.5t-77 206.5v168q0 133 77 206.5zM203.5 146.5q41.5 -42.5 114.5 -42.5t114.5 42.5t41.5 115.5v176q0 73 -41.5 115.5t-114.5 42.5t-114.5 -42.5t-41.5 -115.5v-176
q0 -73 41.5 -115.5zM324 820h-12l-43 -60h-123l94 120h156l94 -120h-123z" />
    <glyph glyph-name="Otilde" unicode="&#xd5;" horiz-adv-x="636" 
d="M107 640.5q77 73.5 211 73.5t211 -73.5t77 -206.5v-168q0 -133 -77 -206.5t-211 -73.5t-211 73.5t-77 206.5v168q0 133 77 206.5zM203.5 146.5q41.5 -42.5 114.5 -42.5t114.5 42.5t41.5 115.5v176q0 73 -41.5 115.5t-114.5 42.5t-114.5 -42.5t-41.5 -115.5v-176
q0 -73 41.5 -115.5zM212 900.5q20 10.5 44 10.5q44 0 78 -38q2 -2 8.5 -9.5t13.5 -11t16 -3.5q13 0 21.5 5.5t17.5 18.5l30 38l77 -61l-56 -72q-18 -23 -37.5 -33.5t-44.5 -10.5q-44 0 -78 38q-2 2 -8.5 9.5t-13.5 11t-16 3.5q-13 0 -21.5 -5.5t-17.5 -18.5l-30 -38l-77 61
l56 72q18 23 38 33.5z" />
    <glyph glyph-name="Odieresis" unicode="&#xd6;" horiz-adv-x="636" 
d="M107 640.5q77 73.5 211 73.5t211 -73.5t77 -206.5v-168q0 -133 -77 -206.5t-211 -73.5t-211 73.5t-77 206.5v168q0 133 77 206.5zM203.5 146.5q41.5 -42.5 114.5 -42.5t114.5 42.5t41.5 115.5v176q0 73 -41.5 115.5t-114.5 42.5t-114.5 -42.5t-41.5 -115.5v-176
q0 -73 41.5 -115.5zM146.5 884q25.5 24 63.5 24t63.5 -24t25.5 -62t-25.5 -62t-63.5 -24t-63.5 24t-25.5 62t25.5 62zM362.5 884q25.5 24 63.5 24t63.5 -24t25.5 -62t-25.5 -62t-63.5 -24t-63.5 24t-25.5 62t25.5 62z" />
    <glyph glyph-name="multiply" unicode="&#xd7;" 
d="M177 562l133 -131l133 131l81 -81l-132 -131l132 -131l-81 -81l-133 131l-133 -131l-81 81l132 131l-132 131z" />
    <glyph glyph-name="Oslash" unicode="&#xd8;" horiz-adv-x="636" 
d="M575.5 577.5q30.5 -60.5 30.5 -143.5v-168q0 -133 -77 -206.5t-211 -73.5q-33 0 -57 4l-27 -83l-110 34l28 85q-59 34 -90.5 95t-31.5 145v168q0 133 77 206.5t211 73.5q36 0 61 -4l24 71l109 -34l-25 -75q58 -34 88.5 -94.5zM195 156l146 439q-7 1 -23 1
q-73 0 -114.5 -42.5t-41.5 -115.5v-176q0 -64 33 -106zM474 438q0 61 -30 102l-145 -435q6 -1 19 -1q73 0 114.5 42.5t41.5 115.5v176z" />
    <glyph glyph-name="Ugrave" unicode="&#xd9;" horiz-adv-x="656" 
d="M186 242q0 -65 37 -101.5t105 -36.5t105 36.5t37 101.5v458h132v-454q0 -121 -73 -190.5t-201 -69.5t-201 69.5t-73 190.5v454h132v-458zM404 760h-108l-88 120h142z" />
    <glyph glyph-name="Uacute" unicode="&#xda;" horiz-adv-x="656" 
d="M186 242q0 -65 37 -101.5t105 -36.5t105 36.5t37 101.5v458h132v-454q0 -121 -73 -190.5t-201 -69.5t-201 69.5t-73 190.5v454h132v-458zM448 880l-88 -120h-108l54 120h142z" />
    <glyph glyph-name="Ucircumflex" unicode="&#xdb;" horiz-adv-x="656" 
d="M186 242q0 -65 37 -101.5t105 -36.5t105 36.5t37 101.5v458h132v-454q0 -121 -73 -190.5t-201 -69.5t-201 69.5t-73 190.5v454h132v-458zM334 820h-12l-43 -60h-123l94 120h156l94 -120h-123z" />
    <glyph glyph-name="Udieresis" unicode="&#xdc;" horiz-adv-x="656" 
d="M186 242q0 -65 37 -101.5t105 -36.5t105 36.5t37 101.5v458h132v-454q0 -121 -73 -190.5t-201 -69.5t-201 69.5t-73 190.5v454h132v-458zM156.5 884q25.5 24 63.5 24t63.5 -24t25.5 -62t-25.5 -62t-63.5 -24t-63.5 24t-25.5 62t25.5 62zM372.5 884q25.5 24 63.5 24
t63.5 -24t25.5 -62t-25.5 -62t-63.5 -24t-63.5 24t-25.5 62t25.5 62z" />
    <glyph glyph-name="Yacute" unicode="&#xdd;" horiz-adv-x="612" 
d="M142 700l159 -310h10l159 310h148l-246 -453v-247h-132v247l-246 453h148zM426 880l-88 -120h-108l54 120h142z" />
    <glyph glyph-name="Thorn" unicode="&#xde;" horiz-adv-x="582" 
d="M190 582h156q66 0 116.5 -27.5t79 -78t28.5 -116.5t-29 -116.5t-80 -78t-115 -27.5h-156v-138h-132v700h132v-118zM333 262q47 0 76 26.5t29 71.5t-29 71.5t-76 26.5h-143v-196h143z" />
    <glyph glyph-name="germandbls" unicode="&#xdf;" horiz-adv-x="621" 
d="M83.5 582.5q33.5 64.5 93.5 98t139 33.5q61 0 110.5 -21.5t77.5 -60t28 -85.5q0 -59 -28 -96t-78 -69q-17 -11 -17 -22q0 -14 26 -23l25 -9q71 -25 109 -63.5t38 -106.5q0 -49 -24 -88t-69.5 -61.5t-107.5 -22.5q-87 0 -139 41.5t-68 99.5l114 37q8 -35 31 -55.5
t62 -20.5q35 0 56 20t21 51q0 28 -18.5 44t-57.5 30l-42 15q-85 30 -85 99q0 33 15.5 55.5t49.5 47.5q29 21 46 42.5t17 50.5t-26 48t-66 19q-57 0 -98.5 -43t-41.5 -133v-434h-126v430q0 88 33.5 152.5z" />
    <glyph glyph-name="agrave" unicode="&#xe0;" horiz-adv-x="532" 
d="M124.5 471q54.5 39 145.5 39q99 0 155.5 -49.5t56.5 -141.5v-319h-120v58h-14q-11 -26 -42.5 -49t-91.5 -23q-79 0 -130.5 42.5t-51.5 116.5t52.5 114.5t139.5 40.5h136v28q0 37 -23 59.5t-69 22.5q-45 0 -70 -21.5t-32 -57.5l-116 39q20 62 74.5 101zM179.5 104.5
q21.5 -16.5 60.5 -16.5q53 0 86.5 30.5t33.5 79.5v8h-127q-35 0 -55 -16t-20 -42q0 -27 21.5 -43.5zM349 570h-108l-88 130h142z" />
    <glyph glyph-name="aacute" unicode="&#xe1;" horiz-adv-x="532" 
d="M124.5 471q54.5 39 145.5 39q99 0 155.5 -49.5t56.5 -141.5v-319h-120v58h-14q-11 -26 -42.5 -49t-91.5 -23q-79 0 -130.5 42.5t-51.5 116.5t52.5 114.5t139.5 40.5h136v28q0 37 -23 59.5t-69 22.5q-45 0 -70 -21.5t-32 -57.5l-116 39q20 62 74.5 101zM179.5 104.5
q21.5 -16.5 60.5 -16.5q53 0 86.5 30.5t33.5 79.5v8h-127q-35 0 -55 -16t-20 -42q0 -27 21.5 -43.5zM393 700l-88 -130h-108l54 130h142z" />
    <glyph glyph-name="acircumflex" unicode="&#xe2;" horiz-adv-x="532" 
d="M124.5 471q54.5 39 145.5 39q99 0 155.5 -49.5t56.5 -141.5v-319h-120v58h-14q-11 -26 -42.5 -49t-91.5 -23q-79 0 -130.5 42.5t-51.5 116.5t52.5 114.5t139.5 40.5h136v28q0 37 -23 59.5t-69 22.5q-45 0 -70 -21.5t-32 -57.5l-116 39q20 62 74.5 101zM179.5 104.5
q21.5 -16.5 60.5 -16.5q53 0 86.5 30.5t33.5 79.5v8h-127q-35 0 -55 -16t-20 -42q0 -27 21.5 -43.5zM279 634h-12l-43 -64h-123l94 130h156l94 -130h-123z" />
    <glyph glyph-name="atilde" unicode="&#xe3;" horiz-adv-x="532" 
d="M124.5 471q54.5 39 145.5 39q99 0 155.5 -49.5t56.5 -141.5v-319h-120v58h-14q-11 -26 -42.5 -49t-91.5 -23q-79 0 -130.5 42.5t-51.5 116.5t52.5 114.5t139.5 40.5h136v28q0 37 -23 59.5t-69 22.5q-45 0 -70 -21.5t-32 -57.5l-116 39q20 62 74.5 101zM179.5 104.5
q21.5 -16.5 60.5 -16.5q53 0 86.5 30.5t33.5 79.5v8h-127q-35 0 -55 -16t-20 -42q0 -27 21.5 -43.5zM215 733q39 0 74 -38q2 -2 8.5 -9.5t13.5 -11t16 -3.5q13 0 21.5 5.5t17.5 18.5l30 38l77 -61l-56 -72q-34 -44 -86 -44q-39 0 -74 38q-2 2 -8.5 9.5t-13.5 11t-16 3.5
q-13 0 -21.5 -5.5t-17.5 -18.5l-30 -38l-77 61l56 72q34 44 86 44z" />
    <glyph glyph-name="adieresis" unicode="&#xe4;" horiz-adv-x="532" 
d="M124.5 471q54.5 39 145.5 39q99 0 155.5 -49.5t56.5 -141.5v-319h-120v58h-14q-11 -26 -42.5 -49t-91.5 -23q-79 0 -130.5 42.5t-51.5 116.5t52.5 114.5t139.5 40.5h136v28q0 37 -23 59.5t-69 22.5q-45 0 -70 -21.5t-32 -57.5l-116 39q20 62 74.5 101zM179.5 104.5
q21.5 -16.5 60.5 -16.5q53 0 86.5 30.5t33.5 79.5v8h-127q-35 0 -55 -16t-20 -42q0 -27 21.5 -43.5zM104.5 702q25.5 24 63.5 24t63.5 -24t25.5 -62t-25.5 -62t-63.5 -24t-63.5 24t-25.5 62t25.5 62zM314.5 702q25.5 24 63.5 24t63.5 -24t25.5 -62t-25.5 -62t-63.5 -24
t-63.5 24t-25.5 62t25.5 62z" />
    <glyph glyph-name="aring" unicode="&#xe5;" horiz-adv-x="532" 
d="M124.5 471q54.5 39 145.5 39q99 0 155.5 -49.5t56.5 -141.5v-319h-120v58h-14q-11 -26 -42.5 -49t-91.5 -23q-79 0 -130.5 42.5t-51.5 116.5t52.5 114.5t139.5 40.5h136v28q0 37 -23 59.5t-69 22.5q-45 0 -70 -21.5t-32 -57.5l-116 39q20 62 74.5 101zM179.5 104.5
q21.5 -16.5 60.5 -16.5q53 0 86.5 30.5t33.5 79.5v8h-127q-35 0 -55 -16t-20 -42q0 -27 21.5 -43.5zM196 713q31 30 77 30t77 -29.5t31 -74.5q0 -46 -32 -75t-76 -29q-45 0 -76.5 30t-31.5 74t31 74zM251.5 617.5q8.5 -8.5 21.5 -8.5t21.5 8.5t8.5 21.5t-8.5 21.5t-21.5 8.5
t-21.5 -8.5t-8.5 -21.5t8.5 -21.5z" />
    <glyph glyph-name="ae" unicode="&#xe6;" horiz-adv-x="848" 
d="M826 205h-341q2 -48 34.5 -79.5t83.5 -31.5q45 0 72 19t45 48l93 -67q-35 -50 -81.5 -79t-122.5 -29q-57 0 -104 24.5t-79 67.5h-13q-21 -35 -63.5 -63.5t-119.5 -28.5q-89 0 -143.5 41.5t-54.5 116.5t53.5 115t142.5 40h134v29q0 36 -26 59t-72 23q-43 0 -69.5 -21.5
t-36.5 -57.5l-112 39q22 62 76 101t142 39q107 0 162 -70h14q30 34 71.5 52t89.5 18q70 0 121 -32.5t77.5 -88t26.5 -123.5v-61zM702 299q-2 47 -30.5 75t-75.5 28q-50 0 -79 -28.5t-31 -74.5h216zM362 205h-125q-38 0 -59.5 -14.5t-21.5 -41.5q0 -28 23 -44.5t65 -16.5
q53 0 85.5 30.5t32.5 79.5v7z" />
    <glyph glyph-name="ccedilla" unicode="&#xe7;" horiz-adv-x="554" 
d="M459 47.5q-53 -50.5 -137 -59.5l-9 -46h12q7 9 20.5 15.5t31.5 6.5q31 0 54 -20.5t23 -59.5q0 -45 -31 -71.5t-79 -26.5q-27 0 -46 5t-38 15l26 68q23 -14 50 -14q15 0 24.5 7t9.5 19q0 9 -5.5 15.5t-14.5 6.5q-17 0 -20 -14h-97v12l18 82q-64 7 -115 42t-80.5 91.5
t-29.5 126.5q0 75 34 135t93 93.5t131 33.5q100 0 163.5 -52.5t80.5 -139.5l-122 -26q-6 48 -36 78t-84 30q-59 0 -96.5 -41t-37.5 -111t37.5 -111t96.5 -41q54 0 84.5 29t39.5 80l122 -29q-20 -78 -73 -128.5z" />
    <glyph glyph-name="egrave" unicode="&#xe8;" horiz-adv-x="538" 
d="M57.5 385.5q31.5 59.5 88 92t129.5 32.5q72 0 126.5 -32t84.5 -90.5t30 -133.5v-43h-361q2 -51 37.5 -84t88.5 -33q48 0 74.5 21t41.5 55l103 -54q-69 -130 -223 -130q-73 0 -130 32.5t-89 92t-32 137.5t31.5 137.5zM352.5 375q-30.5 27 -78.5 27q-49 0 -80.5 -27
t-37.5 -70h232q-5 43 -35.5 70zM351 570h-108l-88 130h142z" />
    <glyph glyph-name="eacute" unicode="&#xe9;" horiz-adv-x="538" 
d="M57.5 385.5q31.5 59.5 88 92t129.5 32.5q72 0 126.5 -32t84.5 -90.5t30 -133.5v-43h-361q2 -51 37.5 -84t88.5 -33q48 0 74.5 21t41.5 55l103 -54q-69 -130 -223 -130q-73 0 -130 32.5t-89 92t-32 137.5t31.5 137.5zM352.5 375q-30.5 27 -78.5 27q-49 0 -80.5 -27
t-37.5 -70h232q-5 43 -35.5 70zM395 700l-88 -130h-108l54 130h142z" />
    <glyph glyph-name="ecircumflex" unicode="&#xea;" horiz-adv-x="538" 
d="M57.5 385.5q31.5 59.5 88 92t129.5 32.5q72 0 126.5 -32t84.5 -90.5t30 -133.5v-43h-361q2 -51 37.5 -84t88.5 -33q48 0 74.5 21t41.5 55l103 -54q-69 -130 -223 -130q-73 0 -130 32.5t-89 92t-32 137.5t31.5 137.5zM352.5 375q-30.5 27 -78.5 27q-49 0 -80.5 -27
t-37.5 -70h232q-5 43 -35.5 70zM281 634h-12l-43 -64h-123l94 130h156l94 -130h-123z" />
    <glyph glyph-name="edieresis" unicode="&#xeb;" horiz-adv-x="538" 
d="M57.5 385.5q31.5 59.5 88 92t129.5 32.5q72 0 126.5 -32t84.5 -90.5t30 -133.5v-43h-361q2 -51 37.5 -84t88.5 -33q48 0 74.5 21t41.5 55l103 -54q-69 -130 -223 -130q-73 0 -130 32.5t-89 92t-32 137.5t31.5 137.5zM352.5 375q-30.5 27 -78.5 27q-49 0 -80.5 -27
t-37.5 -70h232q-5 43 -35.5 70zM106.5 702q25.5 24 63.5 24t63.5 -24t25.5 -62t-25.5 -62t-63.5 -24t-63.5 24t-25.5 62t25.5 62zM316.5 702q25.5 24 63.5 24t63.5 -24t25.5 -62t-25.5 -62t-63.5 -24t-63.5 24t-25.5 62t25.5 62z" />
    <glyph glyph-name="igrave" unicode="&#xec;" horiz-adv-x="238" 
d="M182 0h-126v496h126v-496zM195 570h-108l-88 130h142z" />
    <glyph glyph-name="iacute" unicode="&#xed;" horiz-adv-x="238" 
d="M182 0h-126v496h126v-496zM239 700l-88 -130h-108l54 130h142z" />
    <glyph glyph-name="icircumflex" unicode="&#xee;" horiz-adv-x="238" 
d="M182 0h-126v496h126v-496zM125 634h-12l-43 -64h-123l94 130h156l94 -130h-123z" />
    <glyph glyph-name="idieresis" unicode="&#xef;" horiz-adv-x="238" 
d="M182 0h-126v496h126v-496zM-49.5 702q25.5 24 63.5 24t63.5 -24t25.5 -62t-25.5 -62t-63.5 -24t-63.5 24t-25.5 62t25.5 62zM160.5 702q25.5 24 63.5 24t63.5 -24t25.5 -62t-25.5 -62t-63.5 -24t-63.5 24t-25.5 62t25.5 62z" />
    <glyph glyph-name="eth" unicode="&#xf0;" horiz-adv-x="578" 
d="M490 528.5q58 -108.5 58 -253.5q0 -90 -33 -155t-92 -99.5t-136 -34.5q-76 0 -135.5 33t-92.5 92.5t-33 136.5q0 76 31.5 134.5t84 91t113.5 32.5q89 0 140 -54h12q-30 94 -128 144l-15 -55l-81 20l17 64q-46 12 -90 17l19 105q41 -6 98 -21l15 56l81 -20l-18 -66
q127 -59 185 -167.5zM383 142q37 40 37 106t-37 106t-97 40t-97 -40t-37 -106t37 -106t97 -40t97 40z" />
    <glyph glyph-name="ntilde" unicode="&#xf1;" horiz-adv-x="586" 
d="M180 422h10q39 82 153 82q57 0 101 -26.5t68 -73.5t24 -108v-296h-126v290q0 56 -27 84t-79 28q-58 0 -90 -38.5t-32 -107.5v-256h-126v496h124v-74zM231 733q39 0 74 -38q2 -2 8.5 -9.5t13.5 -11t16 -3.5q13 0 21.5 5.5t17.5 18.5l30 38l77 -61l-56 -72q-34 -44 -86 -44
q-39 0 -74 38q-2 2 -8.5 9.5t-13.5 11t-16 3.5q-13 0 -21.5 -5.5t-17.5 -18.5l-30 -38l-77 61l56 72q34 44 86 44z" />
    <glyph glyph-name="ograve" unicode="&#xf2;" horiz-adv-x="572" 
d="M60 386.5q34 59.5 93 91.5t133 32t133 -32t93 -91.5t34 -138.5t-34 -138.5t-93 -91.5t-133 -32t-133 32t-93 91.5t-34 138.5t34 138.5zM189 136.5q37 -40.5 97 -40.5t97 40.5t37 111.5t-37 111.5t-97 40.5t-97 -40.5t-37 -111.5t37 -111.5zM362 570h-108l-88 130h142z
" />
    <glyph glyph-name="oacute" unicode="&#xf3;" horiz-adv-x="572" 
d="M60 386.5q34 59.5 93 91.5t133 32t133 -32t93 -91.5t34 -138.5t-34 -138.5t-93 -91.5t-133 -32t-133 32t-93 91.5t-34 138.5t34 138.5zM189 136.5q37 -40.5 97 -40.5t97 40.5t37 111.5t-37 111.5t-97 40.5t-97 -40.5t-37 -111.5t37 -111.5zM406 700l-88 -130h-108l54 130
h142z" />
    <glyph glyph-name="ocircumflex" unicode="&#xf4;" horiz-adv-x="572" 
d="M60 386.5q34 59.5 93 91.5t133 32t133 -32t93 -91.5t34 -138.5t-34 -138.5t-93 -91.5t-133 -32t-133 32t-93 91.5t-34 138.5t34 138.5zM189 136.5q37 -40.5 97 -40.5t97 40.5t37 111.5t-37 111.5t-97 40.5t-97 -40.5t-37 -111.5t37 -111.5zM292 634h-12l-43 -64h-123
l94 130h156l94 -130h-123z" />
    <glyph glyph-name="otilde" unicode="&#xf5;" horiz-adv-x="572" 
d="M60 386.5q34 59.5 93 91.5t133 32t133 -32t93 -91.5t34 -138.5t-34 -138.5t-93 -91.5t-133 -32t-133 32t-93 91.5t-34 138.5t34 138.5zM189 136.5q37 -40.5 97 -40.5t97 40.5t37 111.5t-37 111.5t-97 40.5t-97 -40.5t-37 -111.5t37 -111.5zM228 733q39 0 74 -38
q2 -2 8.5 -9.5t13.5 -11t16 -3.5q13 0 21.5 5.5t17.5 18.5l30 38l77 -61l-56 -72q-34 -44 -86 -44q-39 0 -74 38q-2 2 -8.5 9.5t-13.5 11t-16 3.5q-13 0 -21.5 -5.5t-17.5 -18.5l-30 -38l-77 61l56 72q34 44 86 44z" />
    <glyph glyph-name="odieresis" unicode="&#xf6;" horiz-adv-x="572" 
d="M60 386.5q34 59.5 93 91.5t133 32t133 -32t93 -91.5t34 -138.5t-34 -138.5t-93 -91.5t-133 -32t-133 32t-93 91.5t-34 138.5t34 138.5zM189 136.5q37 -40.5 97 -40.5t97 40.5t37 111.5t-37 111.5t-97 40.5t-97 -40.5t-37 -111.5t37 -111.5zM117.5 702q25.5 24 63.5 24
t63.5 -24t25.5 -62t-25.5 -62t-63.5 -24t-63.5 24t-25.5 62t25.5 62zM327.5 702q25.5 24 63.5 24t63.5 -24t25.5 -62t-25.5 -62t-63.5 -24t-63.5 24t-25.5 62t25.5 62z" />
    <glyph glyph-name="divide" unicode="&#xf7;" 
d="M249 601.5q25 25.5 61 25.5t61 -25.5t25 -60.5t-25 -60.5t-61 -25.5t-61 25.5t-25 60.5t25 60.5zM519 407v-114h-418v114h418zM249 219.5q25 25.5 61 25.5t61 -25.5t25 -60.5t-25 -60.5t-61 -25.5t-61 25.5t-25 60.5t25 60.5z" />
    <glyph glyph-name="oslash" unicode="&#xf8;" horiz-adv-x="572" 
d="M526.5 357q19.5 -49 19.5 -109q0 -79 -34 -138.5t-93 -91.5t-133 -32q-53 0 -99 17l-45 -70l-84 52l45 69q-37 34 -57 84t-20 110q0 79 34 138.5t93 91.5t133 32q56 0 102 -18l43 67l83 -52l-43 -67q36 -34 55.5 -83zM172 161l152 234q-20 5 -38 5q-60 0 -97 -40.5
t-37 -111.5q0 -52 20 -87zM383 136.5q37 40.5 37 111.5q0 49 -19 85l-151 -233q16 -4 36 -4q60 0 97 40.5z" />
    <glyph glyph-name="ugrave" unicode="&#xf9;" horiz-adv-x="594" 
d="M414 74h-10q-39 -82 -153 -82q-57 0 -101 26.5t-68 73.5t-24 108v296h126v-290q0 -56 27 -84t79 -28q58 0 90 38.5t32 107.5v256h126v-496h-124v74zM374 570h-108l-88 130h142z" />
    <glyph glyph-name="uacute" unicode="&#xfa;" horiz-adv-x="594" 
d="M414 74h-10q-39 -82 -153 -82q-57 0 -101 26.5t-68 73.5t-24 108v296h126v-290q0 -56 27 -84t79 -28q58 0 90 38.5t32 107.5v256h126v-496h-124v74zM418 700l-88 -130h-108l54 130h142z" />
    <glyph glyph-name="ucircumflex" unicode="&#xfb;" horiz-adv-x="594" 
d="M414 74h-10q-39 -82 -153 -82q-57 0 -101 26.5t-68 73.5t-24 108v296h126v-290q0 -56 27 -84t79 -28q58 0 90 38.5t32 107.5v256h126v-496h-124v74zM304 634h-12l-43 -64h-123l94 130h156l94 -130h-123z" />
    <glyph glyph-name="udieresis" unicode="&#xfc;" horiz-adv-x="594" 
d="M414 74h-10q-39 -82 -153 -82q-57 0 -101 26.5t-68 73.5t-24 108v296h126v-290q0 -56 27 -84t79 -28q58 0 90 38.5t32 107.5v256h126v-496h-124v74zM129.5 702q25.5 24 63.5 24t63.5 -24t25.5 -62t-25.5 -62t-63.5 -24t-63.5 24t-25.5 62t25.5 62zM339.5 702
q25.5 24 63.5 24t63.5 -24t25.5 -62t-25.5 -62t-63.5 -24t-63.5 24t-25.5 62t25.5 62z" />
    <glyph glyph-name="yacute" unicode="&#xfd;" horiz-adv-x="548" 
d="M410 496h136l-272 -696h-136l70 168l-206 528h136l131 -358h10zM394 700l-88 -130h-108l54 130h142z" />
    <glyph glyph-name="thorn" unicode="&#xfe;" horiz-adv-x="606" 
d="M182 700v-274h12q52 84 158 84q62 0 114 -34t83 -94t31 -134t-31 -134t-83 -94t-114 -34q-106 0 -158 84h-12v-270h-126v900h126zM415.5 138q38.5 40 38.5 110t-38.5 110t-97.5 40q-60 0 -98 -40.5t-38 -109.5t38 -109.5t98 -40.5q59 0 97.5 40z" />
    <glyph glyph-name="ydieresis" unicode="&#xff;" horiz-adv-x="548" 
d="M410 496h136l-272 -696h-136l70 168l-206 528h136l131 -358h10zM105.5 702q25.5 24 63.5 24t63.5 -24t25.5 -62t-25.5 -62t-63.5 -24t-63.5 24t-25.5 62t25.5 62zM315.5 702q25.5 24 63.5 24t63.5 -24t25.5 -62t-25.5 -62t-63.5 -24t-63.5 24t-25.5 62t25.5 62z" />
    <glyph glyph-name="Amacron" unicode="&#x100;" horiz-adv-x="602" 
d="M404 700l196 -700h-135l-42 156h-244l-42 -156h-135l196 700h206zM391 276l-85 316h-10l-85 -316h180zM446 760h-294v102h294v-102z" />
    <glyph glyph-name="amacron" unicode="&#x101;" horiz-adv-x="532" 
d="M124.5 471q54.5 39 145.5 39q99 0 155.5 -49.5t56.5 -141.5v-319h-120v58h-14q-11 -26 -42.5 -49t-91.5 -23q-79 0 -130.5 42.5t-51.5 116.5t52.5 114.5t139.5 40.5h136v28q0 37 -23 59.5t-69 22.5q-45 0 -70 -21.5t-32 -57.5l-116 39q20 62 74.5 101zM179.5 104.5
q21.5 -16.5 60.5 -16.5q53 0 86.5 30.5t33.5 79.5v8h-127q-35 0 -55 -16t-20 -42q0 -27 21.5 -43.5zM420 570h-294v102h294v-102z" />
    <glyph glyph-name="Abreve" unicode="&#x102;" horiz-adv-x="602" 
d="M404 700l196 -700h-135l-42 156h-244l-42 -156h-135l196 700h206zM391 276l-85 316h-10l-85 -316h180zM431 872q0 -56 -36 -89t-96 -33t-96 33t-36 89v8h90v-2q0 -18 10.5 -29t31.5 -11q20 0 31 11t11 29v2h90v-8z" />
    <glyph glyph-name="abreve" unicode="&#x103;" horiz-adv-x="532" 
d="M124.5 471q54.5 39 145.5 39q99 0 155.5 -49.5t56.5 -141.5v-319h-120v58h-14q-11 -26 -42.5 -49t-91.5 -23q-79 0 -130.5 42.5t-51.5 116.5t52.5 114.5t139.5 40.5h136v28q0 37 -23 59.5t-69 22.5q-45 0 -70 -21.5t-32 -57.5l-116 39q20 62 74.5 101zM179.5 104.5
q21.5 -16.5 60.5 -16.5q53 0 86.5 30.5t33.5 79.5v8h-127q-35 0 -55 -16t-20 -42q0 -27 21.5 -43.5zM405 680q0 -56 -36 -89t-96 -33t-96 33t-36 89v20h90v-12q0 -19 11 -30.5t31 -11.5t31 11.5t11 30.5v12h90v-20z" />
    <glyph glyph-name="Aogonek" unicode="&#x104;" horiz-adv-x="602" 
d="M636 -86v-84h-80q-32 0 -56 20t-24 55q0 9 3 23l16 72h-30l-42 156h-244l-42 -156h-135l196 700h206l196 -700h-19l-13 -56q-1 -3 -1 -8q0 -22 23 -22h46zM211 276h180l-85 316h-10z" />
    <glyph glyph-name="aogonek" unicode="&#x105;" horiz-adv-x="532" 
d="M516 -86v-84h-80q-32 0 -56 20t-24 55q0 9 3 23l16 72h-13v58h-14q-11 -26 -42.5 -49t-91.5 -23q-79 0 -130.5 42.5t-51.5 116.5t52.5 114.5t139.5 40.5h136v28q0 37 -23 59.5t-69 22.5q-45 0 -70 -21.5t-32 -57.5l-116 39q20 62 74.5 101t145.5 39q99 0 155.5 -49.5
t56.5 -141.5v-319h-21l-13 -56q-1 -3 -1 -8q0 -22 23 -22h46zM360 206h-127q-35 0 -55 -16t-20 -42q0 -27 21.5 -43.5t60.5 -16.5q53 0 86.5 30.5t33.5 79.5v8z" />
    <glyph glyph-name="Cacute" unicode="&#x106;" horiz-adv-x="622" 
d="M107 640.5q77 73.5 211 73.5q87 0 149.5 -31t95.5 -88t33 -133v-18h-132v20q0 56 -38.5 94t-107.5 38q-72 0 -114 -43t-42 -117v-172q0 -74 42 -117t114 -43q69 0 107.5 38t38.5 94v28h132v-26q0 -76 -33 -133t-95.5 -88t-149.5 -31q-134 0 -211 73.5t-77 206.5v168
q0 133 77 206.5zM438 880l-88 -120h-108l54 120h142z" />
    <glyph glyph-name="cacute" unicode="&#x107;" horiz-adv-x="554" 
d="M60 383q34 60 93 93.5t131 33.5q100 0 163.5 -52.5t80.5 -139.5l-122 -26q-6 48 -36 78t-84 30q-59 0 -96.5 -41t-37.5 -111t37.5 -111t96.5 -41q54 0 84.5 29t39.5 80l122 -29q-22 -86 -85 -138t-163 -52q-72 0 -131 33.5t-93 93.5t-34 135t34 135zM408 700l-88 -130
h-108l54 130h142z" />
    <glyph glyph-name="Cdotaccent" unicode="&#x10a;" horiz-adv-x="622" 
d="M107 640.5q77 73.5 211 73.5q87 0 149.5 -31t95.5 -88t33 -133v-18h-132v20q0 56 -38.5 94t-107.5 38q-72 0 -114 -43t-42 -117v-172q0 -74 42 -117t114 -43q69 0 107.5 38t38.5 94v28h132v-26q0 -76 -33 -133t-95.5 -88t-149.5 -31q-134 0 -211 73.5t-77 206.5v168
q0 133 77 206.5zM254.5 884q25.5 24 63.5 24t63.5 -24t25.5 -62t-25.5 -62t-63.5 -24t-63.5 24t-25.5 62t25.5 62z" />
    <glyph glyph-name="cdotaccent" unicode="&#x10b;" horiz-adv-x="554" 
d="M60 383q34 60 93 93.5t131 33.5q100 0 163.5 -52.5t80.5 -139.5l-122 -26q-6 48 -36 78t-84 30q-59 0 -96.5 -41t-37.5 -111t37.5 -111t96.5 -41q54 0 84.5 29t39.5 80l122 -29q-22 -86 -85 -138t-163 -52q-72 0 -131 33.5t-93 93.5t-34 135t34 135zM224.5 702
q25.5 24 63.5 24t63.5 -24t25.5 -62t-25.5 -62t-63.5 -24t-63.5 24t-25.5 62t25.5 62z" />
    <glyph glyph-name="Ccaron" unicode="&#x10c;" horiz-adv-x="622" 
d="M107 640.5q77 73.5 211 73.5q87 0 149.5 -31t95.5 -88t33 -133v-18h-132v20q0 56 -38.5 94t-107.5 38q-72 0 -114 -43t-42 -117v-172q0 -74 42 -117t114 -43q69 0 107.5 38t38.5 94v28h132v-26q0 -76 -33 -133t-95.5 -88t-149.5 -31q-134 0 -211 73.5t-77 206.5v168
q0 133 77 206.5zM490 884l-94 -120h-156l-94 120h123l43 -60h12l43 60h123z" />
    <glyph glyph-name="ccaron" unicode="&#x10d;" horiz-adv-x="554" 
d="M60 383q34 60 93 93.5t131 33.5q100 0 163.5 -52.5t80.5 -139.5l-122 -26q-6 48 -36 78t-84 30q-59 0 -96.5 -41t-37.5 -111t37.5 -111t96.5 -41q54 0 84.5 29t39.5 80l122 -29q-22 -86 -85 -138t-163 -52q-72 0 -131 33.5t-93 93.5t-34 135t34 135zM460 700l-94 -130
h-156l-94 130h123l43 -64h12l43 64h123z" />
    <glyph glyph-name="Dcaron" unicode="&#x10e;" horiz-adv-x="616" 
d="M512.5 628.5q73.5 -71.5 73.5 -212.5v-132q0 -141 -73.5 -212.5t-214.5 -71.5h-240v700h240q141 0 214.5 -71.5zM300 120q154 0 154 160v140q0 160 -154 160h-110v-460h110zM475 884l-94 -120h-156l-94 120h123l43 -60h12l43 60h123z" />
    <glyph glyph-name="dcaron" unicode="&#x10f;" horiz-adv-x="709" 
d="M424 67h-10q-57 -81 -164 -81q-60 0 -111 32t-82 92t-31 138t31 138t82 92t111 32q107 0 162 -78h10v268h126v-700h-124v67zM734 700l-58 -182h-80l10 182h128zM190 361q-38 -41 -38 -113t38 -113t98 -41t98 41t38 113t-38 113t-98 41t-98 -41z" />
    <glyph glyph-name="Dcroat" unicode="&#x110;" horiz-adv-x="616" 
d="M512.5 628.5q73.5 -71.5 73.5 -212.5v-132q0 -141 -73.5 -212.5t-214.5 -71.5h-240v296h-82v110h82v294h240q141 0 214.5 -71.5zM454 420q0 160 -154 160h-110v-174h134v-110h-134v-176h110q154 0 154 160v140z" />
    <glyph glyph-name="dcroat" unicode="&#x111;" horiz-adv-x="604" 
d="M610 552h-62v-552h-124v67h-10q-57 -81 -164 -81q-60 0 -111 32t-82 92t-31 138t31 138t82 92t111 32q107 0 162 -78h10v120h-108v84h108v64h126v-64h62v-84zM386 135q38 41 38 113t-38 113t-98 41t-98 -41t-38 -113t38 -113t98 -41t98 41z" />
    <glyph glyph-name="Emacron" unicode="&#x112;" horiz-adv-x="552" 
d="M518 700v-120h-328v-167h300v-120h-300v-173h334v-120h-466v700h460zM440 760h-294v102h294v-102z" />
    <glyph glyph-name="emacron" unicode="&#x113;" horiz-adv-x="538" 
d="M57.5 385.5q31.5 59.5 88 92t129.5 32.5q72 0 126.5 -32t84.5 -90.5t30 -133.5v-43h-361q2 -51 37.5 -84t88.5 -33q48 0 74.5 21t41.5 55l103 -54q-69 -130 -223 -130q-73 0 -130 32.5t-89 92t-32 137.5t31.5 137.5zM352.5 375q-30.5 27 -78.5 27q-49 0 -80.5 -27
t-37.5 -70h232q-5 43 -35.5 70zM422 570h-294v102h294v-102z" />
    <glyph glyph-name="Edotaccent" unicode="&#x116;" horiz-adv-x="552" 
d="M518 700v-120h-328v-167h300v-120h-300v-173h334v-120h-466v700h460zM229.5 884q25.5 24 63.5 24t63.5 -24t25.5 -62t-25.5 -62t-63.5 -24t-63.5 24t-25.5 62t25.5 62z" />
    <glyph glyph-name="edotaccent" unicode="&#x117;" horiz-adv-x="538" 
d="M57.5 385.5q31.5 59.5 88 92t129.5 32.5q72 0 126.5 -32t84.5 -90.5t30 -133.5v-43h-361q2 -51 37.5 -84t88.5 -33q48 0 74.5 21t41.5 55l103 -54q-69 -130 -223 -130q-73 0 -130 32.5t-89 92t-32 137.5t31.5 137.5zM352.5 375q-30.5 27 -78.5 27q-49 0 -80.5 -27
t-37.5 -70h232q-5 43 -35.5 70zM211.5 702q25.5 24 63.5 24t63.5 -24t25.5 -62t-25.5 -62t-63.5 -24t-63.5 24t-25.5 62t25.5 62z" />
    <glyph glyph-name="Eogonek" unicode="&#x118;" horiz-adv-x="552" 
d="M330 -56q-1 -3 -1 -8q0 -22 23 -22h46v-84h-80q-32 0 -56 20t-24 55q0 9 3 23l16 72h-199v700h460v-120h-328v-167h300v-120h-300v-173h334v-120h-181z" />
    <glyph glyph-name="eogonek" unicode="&#x119;" horiz-adv-x="538" 
d="M516 211h-361q2 -51 37.5 -84t88.5 -33q48 0 74.5 21t41.5 55l103 -54q-59 -113 -185 -128l-10 -44q-1 -3 -1 -8q0 -22 23 -22h46v-84h-80q-32 0 -56 20t-24 55q0 9 3 23l14 62q-93 15 -148.5 84t-55.5 174q0 78 31.5 137.5t88 92t129.5 32.5q72 0 126.5 -32t84.5 -90.5
t30 -133.5v-43zM388 305q-5 43 -35.5 70t-78.5 27q-49 0 -80.5 -27t-37.5 -70h232z" />
    <glyph glyph-name="Ecaron" unicode="&#x11a;" horiz-adv-x="552" 
d="M518 700v-120h-328v-167h300v-120h-300v-173h334v-120h-466v700h460zM465 884l-94 -120h-156l-94 120h123l43 -60h12l43 60h123z" />
    <glyph glyph-name="ecaron" unicode="&#x11b;" horiz-adv-x="538" 
d="M57.5 385.5q31.5 59.5 88 92t129.5 32.5q72 0 126.5 -32t84.5 -90.5t30 -133.5v-43h-361q2 -51 37.5 -84t88.5 -33q48 0 74.5 21t41.5 55l103 -54q-69 -130 -223 -130q-73 0 -130 32.5t-89 92t-32 137.5t31.5 137.5zM352.5 375q-30.5 27 -78.5 27q-49 0 -80.5 -27
t-37.5 -70h232q-5 43 -35.5 70zM447 700l-94 -130h-156l-94 130h123l43 -64h12l43 64h123z" />
    <glyph glyph-name="Gbreve" unicode="&#x11e;" horiz-adv-x="626" 
d="M108 640.5q78 73.5 212 73.5q130 0 201 -67.5t71 -180.5v-12h-132v14q0 57 -35.5 92.5t-104.5 35.5q-72 0 -115 -43.5t-43 -116.5v-172q0 -73 43 -116.5t115 -43.5q71 0 108.5 35.5t37.5 96.5v6h-170v112h300v-102q0 -125 -72.5 -195.5t-203.5 -70.5q-134 0 -212 73.5
t-78 206.5v168q0 133 78 206.5zM452 872q0 -56 -36 -89t-96 -33t-96 33t-36 89v8h90v-2q0 -18 10.5 -29t31.5 -11q20 0 31 11t11 29v2h90v-8z" />
    <glyph glyph-name="gbreve" unicode="&#x11f;" horiz-adv-x="604" 
d="M548 496v-467q0 -118 -70.5 -180.5t-191.5 -62.5q-106 0 -169.5 46t-86.5 112l113 49q14 -46 48.5 -73.5t92.5 -27.5q64 0 101 35t37 105v48h-10q-56 -78 -162 -78q-59 0 -110.5 32t-82.5 89.5t-31 132.5t31 132.5t82.5 89.5t110.5 32q107 0 164 -81h10v67h124zM386 150
q38 40 38 106t-38 106t-98 40t-98 -40t-38 -106t38 -106t98 -40t98 40zM436 680q0 -56 -36 -89t-96 -33t-96 33t-36 89v20h90v-12q0 -19 11 -30.5t31 -11.5t31 11.5t11 30.5v12h90v-20z" />
    <glyph glyph-name="Gdotaccent" unicode="&#x120;" horiz-adv-x="626" 
d="M108 640.5q78 73.5 212 73.5q130 0 201 -67.5t71 -180.5v-12h-132v14q0 57 -35.5 92.5t-104.5 35.5q-72 0 -115 -43.5t-43 -116.5v-172q0 -73 43 -116.5t115 -43.5q71 0 108.5 35.5t37.5 96.5v6h-170v112h300v-102q0 -125 -72.5 -195.5t-203.5 -70.5q-134 0 -212 73.5
t-78 206.5v168q0 133 78 206.5zM256.5 884q25.5 24 63.5 24t63.5 -24t25.5 -62t-25.5 -62t-63.5 -24t-63.5 24t-25.5 62t25.5 62z" />
    <glyph glyph-name="gdotaccent" unicode="&#x121;" horiz-adv-x="604" 
d="M548 496v-467q0 -118 -70.5 -180.5t-191.5 -62.5q-106 0 -169.5 46t-86.5 112l113 49q14 -46 48.5 -73.5t92.5 -27.5q64 0 101 35t37 105v48h-10q-56 -78 -162 -78q-59 0 -110.5 32t-82.5 89.5t-31 132.5t31 132.5t82.5 89.5t110.5 32q107 0 164 -81h10v67h124zM386 150
q38 40 38 106t-38 106t-98 40t-98 -40t-38 -106t38 -106t98 -40t98 40zM240.5 702q25.5 24 63.5 24t63.5 -24t25.5 -62t-25.5 -62t-63.5 -24t-63.5 24t-25.5 62t25.5 62z" />
    <glyph glyph-name="uni0122" unicode="&#x122;" horiz-adv-x="626" 
d="M108 640.5q78 73.5 212 73.5q130 0 201 -67.5t71 -180.5v-12h-132v14q0 57 -35.5 92.5t-104.5 35.5q-72 0 -115 -43.5t-43 -116.5v-172q0 -73 43 -116.5t115 -43.5q71 0 108.5 35.5t37.5 96.5v6h-170v112h300v-102q0 -125 -72.5 -195.5t-203.5 -70.5q-134 0 -212 73.5
t-78 206.5v168q0 133 78 206.5zM252 -77q27 27 68 27t68 -26.5t27 -67.5v-116q0 -38 -25.5 -64t-63.5 -26h-95v68h77q15 0 22 6.5t7 21.5v19q-8 -2 -19 -2q-39 0 -66 26t-27 65q0 42 27 69z" />
    <glyph glyph-name="uni0123" unicode="&#x123;" horiz-adv-x="604" 
d="M548 496v-467q0 -118 -70.5 -180.5t-191.5 -62.5q-106 0 -169.5 46t-86.5 112l113 49q14 -46 48.5 -73.5t92.5 -27.5q64 0 101 35t37 105v48h-10q-56 -78 -162 -78q-59 0 -110.5 32t-82.5 89.5t-31 132.5t31 132.5t82.5 89.5t110.5 32q107 0 164 -81h10v67h124zM386 150
q38 40 38 106t-38 106t-98 40t-98 -40t-38 -106t38 -106t98 -40t98 40zM372 572q-27 -27 -68 -27t-68 26.5t-27 67.5v117q0 38 25.5 64t63.5 26h95v-68h-77q-16 0 -22.5 -6.5t-6.5 -21.5v-20q8 2 19 2q39 0 66 -26t27 -65q0 -42 -27 -69z" />
    <glyph glyph-name="Hbar" unicode="&#x126;" horiz-adv-x="644" 
d="M642 606v-110h-56v-496h-132v291h-264v-291h-132v496h-56v110h56v94h132v-94h264v94h132v-94h56zM454 411v85h-264v-85h264z" />
    <glyph glyph-name="hbar" unicode="&#x127;" horiz-adv-x="586" 
d="M444 477.5q44 -26.5 68 -73.5t24 -108v-296h-126v290q0 56 -27 84t-79 28q-58 0 -90 -38.5t-32 -107.5v-256h-126v552h-62v84h62v64h126v-64h108v-84h-108v-126h10q39 78 151 78q57 0 101 -26.5z" />
    <glyph glyph-name="Imacron" unicode="&#x12a;" horiz-adv-x="248" 
d="M190 700v-700h-132v700h132zM271 760h-294v102h294v-102z" />
    <glyph glyph-name="imacron" unicode="&#x12b;" horiz-adv-x="238" 
d="M182 0h-126v496h126v-496zM266 570h-294v102h294v-102z" />
    <glyph glyph-name="Iogonek" unicode="&#x12e;" horiz-adv-x="248" 
d="M220 -86v-84h-80q-32 0 -56 20t-24 55q0 9 3 23l16 72h-21v700h132v-700h-25l-13 -56q-1 -3 -1 -8q0 -22 23 -22h46z" />
    <glyph glyph-name="iogonek" unicode="&#x12f;" horiz-adv-x="238" 
d="M182.5 578q-25.5 -24 -63.5 -24t-63.5 24t-25.5 62t25.5 62t63.5 24t63.5 -24t25.5 -62t-25.5 -62zM215 -86v-84h-80q-32 0 -56 20t-24 55q0 9 3 23l16 72h-18v496h126v-496h-22l-13 -56q-1 -3 -1 -8q0 -22 23 -22h46z" />
    <glyph glyph-name="Idotaccent" unicode="&#x130;" horiz-adv-x="248" 
d="M190 700v-700h-132v700h132zM60.5 884q25.5 24 63.5 24t63.5 -24t25.5 -62t-25.5 -62t-63.5 -24t-63.5 24t-25.5 62t25.5 62z" />
    <glyph glyph-name="dotlessi" unicode="&#x131;" horiz-adv-x="238" 
d="M182 0h-126v496h126v-496z" />
    <glyph glyph-name="IJ" unicode="&#x132;" horiz-adv-x="568" 
d="M186 700v-358h-132v358h132zM514 210q0 -108 -59 -166t-164 -58q-110 0 -173.5 59.5t-63.5 164.5v36h132v-36q0 -47 26.5 -73.5t74.5 -26.5q46 0 70.5 26t24.5 74v490h132v-490z" />
    <glyph glyph-name="ij" unicode="&#x133;" horiz-adv-x="480" 
d="M182 0h-126v496h126v-496zM55.5 702q25.5 24 63.5 24t63.5 -24t25.5 -62t-25.5 -62t-63.5 -24t-63.5 24t-25.5 62t25.5 62zM394 -169.5q-30 -30.5 -80 -30.5h-130v102h86q28 0 28 30v564h126v-584q0 -51 -30 -81.5zM297.5 702q25.5 24 63.5 24t63.5 -24t25.5 -62
t-25.5 -62t-63.5 -24t-63.5 24t-25.5 62t25.5 62z" />
    <glyph glyph-name="uni0136" unicode="&#x136;" horiz-adv-x="649" 
d="M667 700l-309 -293l294 -407h-163l-223 320l-76 -72v-248h-132v700h132v-280h10l281 280h186zM259 -77q27 27 68 27t68 -26.5t27 -67.5v-116q0 -38 -25.5 -64t-63.5 -26h-95v68h77q15 0 22 6.5t7 21.5v19q-8 -2 -19 -2q-39 0 -66 26t-27 65q0 42 27 69z" />
    <glyph glyph-name="uni0137" unicode="&#x137;" horiz-adv-x="580" 
d="M574 496l-233 -199l229 -297h-155l-164 220l-69 -59v-161h-126v700h126v-386l206 182h186zM229 -77q27 27 68 27t68 -26.5t27 -67.5v-116q0 -38 -25.5 -64t-63.5 -26h-95v68h77q15 0 22 6.5t7 21.5v19q-8 -2 -19 -2q-39 0 -66 26t-27 65q0 42 27 69z" />
    <glyph glyph-name="Lacute" unicode="&#x139;" horiz-adv-x="526" 
d="M190 700v-580h324v-120h-456v700h132zM244 880l-88 -120h-108l54 120h142z" />
    <glyph glyph-name="lacute" unicode="&#x13a;" horiz-adv-x="238" 
d="M182 0h-126v700h126v-700zM239 880l-88 -120h-108l54 120h142z" />
    <glyph glyph-name="uni013B" unicode="&#x13b;" horiz-adv-x="526" 
d="M190 700v-580h324v-120h-456v700h132zM218 -77q27 27 68 27t68 -26.5t27 -67.5v-116q0 -38 -25.5 -64t-63.5 -26h-95v68h77q15 0 22 6.5t7 21.5v19q-8 -2 -19 -2q-39 0 -66 26t-27 65q0 42 27 69z" />
    <glyph glyph-name="uni013C" unicode="&#x13c;" horiz-adv-x="238" 
d="M182 0h-126v700h126v-700zM51 -77q27 27 68 27t68 -26.5t27 -67.5v-116q0 -38 -25.5 -64t-63.5 -26h-95v68h77q15 0 22 6.5t7 21.5v19q-8 -2 -19 -2q-39 0 -66 26t-27 65q0 42 27 69z" />
    <glyph glyph-name="Lcaron" unicode="&#x13d;" horiz-adv-x="526" 
d="M190 120h324v-120h-456v700h132v-580zM383 700l-58 -182h-80l10 182h128z" />
    <glyph glyph-name="lcaron" unicode="&#x13e;" horiz-adv-x="340" 
d="M56 0v700h126v-700h-126zM365 700l-58 -182h-80l10 182h128z" />
    <glyph glyph-name="Ldot" unicode="&#x13f;" horiz-adv-x="526" 
d="M190 700v-580h324v-120h-456v700h132zM326 418.5q27 26.5 68 26.5t68 -26.5t27 -68.5t-27 -68.5t-68 -26.5t-68 26.5t-27 68.5t27 68.5z" />
    <glyph glyph-name="ldot" unicode="&#x140;" horiz-adv-x="436" 
d="M182 0h-126v700h126v-700zM273 328.5q27 26.5 68 26.5t68 -26.5t27 -68.5t-27 -68.5t-68 -26.5t-68 26.5t-27 68.5t27 68.5z" />
    <glyph glyph-name="Lslash" unicode="&#x141;" 
d="M228 700v-265l53 27l54 -107l-107 -54v-175h318v-126h-450v234l-38 -19l-54 107l92 46v332h132z" />
    <glyph glyph-name="lslash" unicode="&#x142;" horiz-adv-x="348" 
d="M338 365l-101 -44v-321h-126v265l-60 -26l-41 85l101 44v332h126v-276l60 26z" />
    <glyph glyph-name="Nacute" unicode="&#x143;" horiz-adv-x="654" 
d="M285 700l169 -566h10v566h132v-700h-227l-169 566h-10v-566h-132v700h227zM446 880l-88 -120h-108l54 120h142z" />
    <glyph glyph-name="nacute" unicode="&#x144;" horiz-adv-x="586" 
d="M180 422h10q39 82 153 82q57 0 101 -26.5t68 -73.5t24 -108v-296h-126v290q0 56 -27 84t-79 28q-58 0 -90 -38.5t-32 -107.5v-256h-126v496h124v-74zM409 700l-88 -130h-108l54 130h142z" />
    <glyph glyph-name="uni0145" unicode="&#x145;" horiz-adv-x="654" 
d="M285 700l169 -566h10v566h132v-700h-227l-169 566h-10v-566h-132v700h227zM260 -77q27 27 68 27t68 -26.5t27 -67.5v-116q0 -38 -25.5 -64t-63.5 -26h-95v68h77q15 0 22 6.5t7 21.5v19q-8 -2 -19 -2q-39 0 -66 26t-27 65q0 42 27 69z" />
    <glyph glyph-name="uni0146" unicode="&#x146;" horiz-adv-x="586" 
d="M180 422h10q39 82 153 82q57 0 101 -26.5t68 -73.5t24 -108v-296h-126v290q0 56 -27 84t-79 28q-58 0 -90 -38.5t-32 -107.5v-256h-126v496h124v-74zM228 -77q27 27 68 27t68 -26.5t27 -67.5v-116q0 -38 -25.5 -64t-63.5 -26h-95v68h77q15 0 22 6.5t7 21.5v19
q-8 -2 -19 -2q-39 0 -66 26t-27 65q0 42 27 69z" />
    <glyph glyph-name="Ncaron" unicode="&#x147;" horiz-adv-x="654" 
d="M285 700l169 -566h10v566h132v-700h-227l-169 566h-10v-566h-132v700h227zM498 884l-94 -120h-156l-94 120h123l43 -60h12l43 60h123z" />
    <glyph glyph-name="ncaron" unicode="&#x148;" horiz-adv-x="586" 
d="M180 422h10q39 82 153 82q57 0 101 -26.5t68 -73.5t24 -108v-296h-126v290q0 56 -27 84t-79 28q-58 0 -90 -38.5t-32 -107.5v-256h-126v496h124v-74zM461 700l-94 -130h-156l-94 130h123l43 -64h12l43 64h123z" />
    <glyph glyph-name="Eng" unicode="&#x14a;" horiz-adv-x="654" 
d="M596 700v-798q0 -50 -27 -76t-74 -26h-206v112h145q30 0 30 33v55h-95l-169 566h-10v-566h-132v700h227l169 -566h10v566h132z" />
    <glyph glyph-name="eng" unicode="&#x14b;" horiz-adv-x="594" 
d="M491 457q53 -53 53 -147v-414q0 -42 -28 -69t-70 -27h-142v106h86q28 0 28 30v356q0 52 -29 79t-83 27q-61 0 -92.5 -36.5t-31.5 -101.5v-260h-126v496h124v-74h14q17 39 55.5 63.5t101.5 24.5q87 0 140 -53z" />
    <glyph glyph-name="Omacron" unicode="&#x14c;" horiz-adv-x="636" 
d="M107 640.5q77 73.5 211 73.5t211 -73.5t77 -206.5v-168q0 -133 -77 -206.5t-211 -73.5t-211 73.5t-77 206.5v168q0 133 77 206.5zM203.5 146.5q41.5 -42.5 114.5 -42.5t114.5 42.5t41.5 115.5v176q0 73 -41.5 115.5t-114.5 42.5t-114.5 -42.5t-41.5 -115.5v-176
q0 -73 41.5 -115.5zM465 760h-294v102h294v-102z" />
    <glyph glyph-name="omacron" unicode="&#x14d;" horiz-adv-x="572" 
d="M60 386.5q34 59.5 93 91.5t133 32t133 -32t93 -91.5t34 -138.5t-34 -138.5t-93 -91.5t-133 -32t-133 32t-93 91.5t-34 138.5t34 138.5zM189 136.5q37 -40.5 97 -40.5t97 40.5t37 111.5t-37 111.5t-97 40.5t-97 -40.5t-37 -111.5t37 -111.5zM433 570h-294v102h294v-102z
" />
    <glyph glyph-name="Ohungarumlaut" unicode="&#x150;" horiz-adv-x="636" 
d="M107 640.5q77 73.5 211 73.5t211 -73.5t77 -206.5v-168q0 -133 -77 -206.5t-211 -73.5t-211 73.5t-77 206.5v168q0 133 77 206.5zM203.5 146.5q41.5 -42.5 114.5 -42.5t114.5 42.5t41.5 115.5v176q0 73 -41.5 115.5t-114.5 42.5t-114.5 -42.5t-41.5 -115.5v-176
q0 -73 41.5 -115.5zM361 880l-88 -120h-104l54 120h138zM527 880l-87 -120h-104l53 120h138z" />
    <glyph glyph-name="ohungarumlaut" unicode="&#x151;" horiz-adv-x="572" 
d="M60 386.5q34 59.5 93 91.5t133 32t133 -32t93 -91.5t34 -138.5t-34 -138.5t-93 -91.5t-133 -32t-133 32t-93 91.5t-34 138.5t34 138.5zM189 136.5q37 -40.5 97 -40.5t97 40.5t37 111.5t-37 111.5t-97 40.5t-97 -40.5t-37 -111.5t37 -111.5zM325 700l-88 -130h-104l54 130
h138zM492 700l-88 -130h-104l54 130h138z" />
    <glyph glyph-name="OE" unicode="&#x152;" horiz-adv-x="552" 
d="M524 120v-120h-254q-114 0 -177 73.5t-63 212.5v128q0 136 63.5 211t176.5 75h248v-120h-116v-169h90v-120h-90v-171h122zM270 582q-55 0 -81.5 -42t-26.5 -116v-148q0 -78 24.5 -118t83.5 -40v464z" />
    <glyph glyph-name="oe" unicode="&#x153;" horiz-adv-x="944" 
d="M60 384q34 60 92.5 93t129.5 33q67 0 117.5 -26.5t80.5 -75.5h12q31 49 80 75.5t109 26.5q72 0 126.5 -32t84.5 -90.5t30 -133.5v-43h-361q2 -51 37.5 -84t88.5 -33q48 0 74.5 21t41.5 55l103 -54q-69 -130 -219 -130q-67 0 -118 27.5t-77 74.5h-12q-30 -49 -80.5 -75.5
t-117.5 -26.5q-71 0 -129.5 33t-92.5 93t-34 136t34 136zM758.5 375q-30.5 27 -78.5 27q-49 0 -80.5 -27t-37.5 -70h232q-5 43 -35.5 70zM189 139.5q37 -41.5 97 -41.5t97 41.5t37 108.5t-37 108.5t-97 41.5t-97 -41.5t-37 -108.5t37 -108.5z" />
    <glyph glyph-name="Racute" unicode="&#x154;" horiz-adv-x="616" 
d="M548.5 345.5q-41.5 -55.5 -110.5 -75.5l144 -270h-149l-128 260h-115v-260h-132v700h308q66 0 116.5 -27.5t79 -77t28.5 -115.5q0 -79 -41.5 -134.5zM190 379h163q47 0 76 27.5t29 73.5t-29 73t-76 27h-163v-201zM417 880l-88 -120h-108l54 120h142z" />
    <glyph glyph-name="racute" unicode="&#x155;" horiz-adv-x="374" 
d="M190 426q14 38 44.5 55t79.5 17h52v-106h-74q-50 0 -80 -26.5t-30 -77.5v-288h-126v496h124v-70h10zM322 700l-88 -130h-108l54 130h142z" />
    <glyph glyph-name="uni0156" unicode="&#x156;" horiz-adv-x="616" 
d="M548.5 345.5q-41.5 -55.5 -110.5 -75.5l144 -270h-149l-128 260h-115v-260h-132v700h308q66 0 116.5 -27.5t79 -77t28.5 -115.5q0 -79 -41.5 -134.5zM190 379h163q47 0 76 27.5t29 73.5t-29 73t-76 27h-163v-201zM239 -77q27 27 68 27t68 -26.5t27 -67.5v-116
q0 -38 -25.5 -64t-63.5 -26h-95v68h77q15 0 22 6.5t7 21.5v19q-8 -2 -19 -2q-39 0 -66 26t-27 65q0 42 27 69z" />
    <glyph glyph-name="uni0157" unicode="&#x157;" horiz-adv-x="374" 
d="M190 426q14 38 44.5 55t79.5 17h52v-106h-74q-50 0 -80 -26.5t-30 -77.5v-288h-126v496h124v-70h10zM53 -77q27 27 68 27t68 -26.5t27 -67.5v-116q0 -38 -25.5 -64t-63.5 -26h-95v68h77q15 0 22 6.5t7 21.5v19q-8 -2 -19 -2q-39 0 -66 26t-27 65q0 42 27 69z" />
    <glyph glyph-name="Rcaron" unicode="&#x158;" horiz-adv-x="616" 
d="M548.5 345.5q-41.5 -55.5 -110.5 -75.5l144 -270h-149l-128 260h-115v-260h-132v700h308q66 0 116.5 -27.5t79 -77t28.5 -115.5q0 -79 -41.5 -134.5zM190 379h163q47 0 76 27.5t29 73.5t-29 73t-76 27h-163v-201zM469 884l-94 -120h-156l-94 120h123l43 -60h12l43 60h123
z" />
    <glyph glyph-name="rcaron" unicode="&#x159;" horiz-adv-x="374" 
d="M190 426q14 38 44.5 55t79.5 17h52v-106h-74q-50 0 -80 -26.5t-30 -77.5v-288h-126v496h124v-70h10zM374 700l-94 -130h-156l-94 130h123l43 -64h12l43 64h123z" />
    <glyph glyph-name="Sacute" unicode="&#x15a;" horiz-adv-x="586" 
d="M477 655q71 -59 71 -169v-16h-130v16q0 112 -129 112q-59 0 -88 -22t-29 -62q0 -38 28.5 -59t94.5 -36l23 -5q121 -26 182.5 -73.5t61.5 -138.5q0 -64 -32.5 -113t-92.5 -76t-140 -27q-81 0 -143.5 29t-97 83.5t-34.5 129.5v10h130v-10q0 -62 38 -94t107 -32
q66 0 100.5 26.5t34.5 69.5q0 41 -31.5 61.5t-105.5 36.5l-23 5q-118 26 -174 72t-56 137q0 95 67 149.5t180 54.5q117 0 188 -59zM411 880l-88 -120h-108l54 120h142z" />
    <glyph glyph-name="sacute" unicode="&#x15b;" horiz-adv-x="500" 
d="M101 469.5q53 40.5 143 40.5q81 0 135 -36.5t73 -98.5l-114 -35q-16 74 -94 74q-36 0 -55 -13t-19 -36q0 -24 19.5 -36.5t60.5 -20.5l26 -5q65 -13 106 -29t65.5 -46t24.5 -79q0 -77 -56 -120t-152 -43q-98 0 -159.5 42t-74.5 120l116 30q17 -96 118 -96q42 0 64 16
t22 41q0 23 -21 36.5t-69 22.5l-26 5q-89 17 -137.5 51.5t-48.5 102.5q0 72 53 112.5zM369 700l-88 -130h-108l54 130h142z" />
    <glyph glyph-name="Scedilla" unicode="&#x15e;" horiz-adv-x="586" 
d="M501.5 56q-60.5 -58 -164.5 -68l-9 -46h12q7 9 20.5 15.5t31.5 6.5q31 0 54 -20.5t23 -59.5q0 -45 -31 -71.5t-79 -26.5q-27 0 -46 5t-38 15l26 68q23 -14 50 -14q15 0 24.5 7t9.5 19q0 9 -5.5 15.5t-14.5 6.5q-17 0 -20 -14h-97v12l17 81q-111 8 -177 72t-66 169v10h130
v-10q0 -62 38 -94t107 -32q66 0 100.5 26.5t34.5 69.5q0 41 -31.5 61.5t-105.5 36.5l-23 5q-118 26 -174 72t-56 137q0 95 67 149.5t180 54.5q117 0 188 -59t71 -169v-16h-130v16q0 112 -129 112q-59 0 -88 -22t-29 -62q0 -38 28.5 -59t94.5 -36l23 -5q121 -26 182.5 -73.5
t61.5 -138.5q0 -88 -60.5 -146z" />
    <glyph glyph-name="scedilla" unicode="&#x15f;" horiz-adv-x="500" 
d="M420 32.5q-52 -42.5 -142 -46.5l-8 -44h12q7 9 20.5 15.5t31.5 6.5q31 0 54 -20.5t23 -59.5q0 -45 -31 -71.5t-79 -26.5q-27 0 -46 5t-38 15l26 68q23 -14 50 -14q15 0 24.5 7t9.5 19q0 9 -5.5 15.5t-14.5 6.5q-17 0 -20 -14h-97v12l18 84q-75 11 -121.5 52t-56.5 106
l116 30q17 -96 118 -96q42 0 64 16t22 41q0 23 -21 36.5t-69 22.5l-26 5q-89 17 -137.5 51.5t-48.5 102.5q0 72 53 112.5t143 40.5q81 0 135 -36.5t73 -98.5l-114 -35q-16 74 -94 74q-36 0 -55 -13t-19 -36q0 -24 19.5 -36.5t60.5 -20.5l26 -5q65 -13 106 -29t65.5 -46
t24.5 -79q0 -74 -52 -116.5z" />
    <glyph glyph-name="Scaron" unicode="&#x160;" horiz-adv-x="586" 
d="M477 655q71 -59 71 -169v-16h-130v16q0 112 -129 112q-59 0 -88 -22t-29 -62q0 -38 28.5 -59t94.5 -36l23 -5q121 -26 182.5 -73.5t61.5 -138.5q0 -64 -32.5 -113t-92.5 -76t-140 -27q-81 0 -143.5 29t-97 83.5t-34.5 129.5v10h130v-10q0 -62 38 -94t107 -32
q66 0 100.5 26.5t34.5 69.5q0 41 -31.5 61.5t-105.5 36.5l-23 5q-118 26 -174 72t-56 137q0 95 67 149.5t180 54.5q117 0 188 -59zM463 884l-94 -120h-156l-94 120h123l43 -60h12l43 60h123z" />
    <glyph glyph-name="scaron" unicode="&#x161;" horiz-adv-x="500" 
d="M101 469.5q53 40.5 143 40.5q81 0 135 -36.5t73 -98.5l-114 -35q-16 74 -94 74q-36 0 -55 -13t-19 -36q0 -24 19.5 -36.5t60.5 -20.5l26 -5q65 -13 106 -29t65.5 -46t24.5 -79q0 -77 -56 -120t-152 -43q-98 0 -159.5 42t-74.5 120l116 30q17 -96 118 -96q42 0 64 16
t22 41q0 23 -21 36.5t-69 22.5l-26 5q-89 17 -137.5 51.5t-48.5 102.5q0 72 53 112.5zM421 700l-94 -130h-156l-94 130h123l43 -64h12l43 64h123z" />
    <glyph glyph-name="uni0162" unicode="&#x162;" horiz-adv-x="572" 
d="M320 0l-11 -58h12q7 9 20.5 15.5t31.5 6.5q31 0 54 -20.5t23 -59.5q0 -45 -31 -71.5t-79 -26.5q-27 0 -46 5t-38 15l26 68q23 -14 50 -14q15 0 24.5 7t9.5 19q0 9 -5.5 15.5t-14.5 6.5q-17 0 -20 -14h-97v12l20 94h-29v580h-212v120h556v-120h-212v-580h-32z" />
    <glyph glyph-name="uni0163" unicode="&#x163;" horiz-adv-x="418" 
d="M254 394v-262q0 -30 28 -30h96v-102h-134l-11 -58h12q7 9 20.5 15.5t31.5 6.5q31 0 54 -20.5t23 -59.5q0 -45 -31 -71.5t-79 -26.5q-27 0 -46 5t-38 15l26 68q23 -14 50 -14q15 0 24.5 7t9.5 19q0 9 -5.5 15.5t-14.5 6.5q-17 0 -20 -14h-97v12l24 110q-24 14 -36.5 38.5
t-12.5 57.5v282h-124v102h124v154h126v-154h136v-102h-136z" />
    <glyph glyph-name="Tcaron" unicode="&#x164;" horiz-adv-x="572" 
d="M564 700v-120h-212v-580h-132v580h-212v120h556zM458 884l-94 -120h-156l-94 120h123l43 -60h12l43 60h123z" />
    <glyph glyph-name="tcaron" unicode="&#x165;" horiz-adv-x="418" 
d="M457 745l-58 -182h-80l10 182h128zM128 650h126v-154h136v-102h-136v-262q0 -30 28 -30h96v-102h-140q-50 0 -80 30.5t-30 81.5v282h-124v102h124v154z" />
    <glyph glyph-name="Tbar" unicode="&#x166;" horiz-adv-x="572" 
d="M564 580h-212v-174h108v-110h-108v-296h-132v296h-108v110h108v174h-212v120h556v-120z" />
    <glyph glyph-name="tbar" unicode="&#x167;" horiz-adv-x="420" 
d="M256 390v-84h136v-106h-136v-64q0 -30 28 -30h80v-106h-136q-42 0 -70 27t-28 69v104h-126v106h126v84h-126v106h126v154h126v-154h136v-106h-136z" />
    <glyph glyph-name="Umacron" unicode="&#x16a;" horiz-adv-x="656" 
d="M186 242q0 -65 37 -101.5t105 -36.5t105 36.5t37 101.5v458h132v-454q0 -121 -73 -190.5t-201 -69.5t-201 69.5t-73 190.5v454h132v-458zM475 760h-294v102h294v-102z" />
    <glyph glyph-name="umacron" unicode="&#x16b;" horiz-adv-x="594" 
d="M414 74h-10q-39 -82 -153 -82q-57 0 -101 26.5t-68 73.5t-24 108v296h126v-290q0 -56 27 -84t79 -28q58 0 90 38.5t32 107.5v256h126v-496h-124v74zM445 570h-294v102h294v-102z" />
    <glyph glyph-name="Ubreve" unicode="&#x16c;" horiz-adv-x="656" 
d="M186 242q0 -65 37 -101.5t105 -36.5t105 36.5t37 101.5v458h132v-454q0 -121 -73 -190.5t-201 -69.5t-201 69.5t-73 190.5v454h132v-458zM460 872q0 -56 -36 -89t-96 -33t-96 33t-36 89v8h90v-2q0 -18 10.5 -29t31.5 -11q20 0 31 11t11 29v2h90v-8z" />
    <glyph glyph-name="ubreve" unicode="&#x16d;" horiz-adv-x="594" 
d="M414 74h-10q-39 -82 -153 -82q-57 0 -101 26.5t-68 73.5t-24 108v296h126v-290q0 -56 27 -84t79 -28q58 0 90 38.5t32 107.5v256h126v-496h-124v74zM430 680q0 -56 -36 -89t-96 -33t-96 33t-36 89v20h90v-12q0 -19 11 -30.5t31 -11.5t31 11.5t11 30.5v12h90v-20z" />
    <glyph glyph-name="Uring" unicode="&#x16e;" horiz-adv-x="656" 
d="M186 242q0 -65 37 -101.5t105 -36.5t105 36.5t37 101.5v458h132v-454q0 -121 -73 -190.5t-201 -69.5t-201 69.5t-73 190.5v454h132v-458zM251 914q31 30 77 30t77 -29.5t31 -74.5q0 -46 -32 -75t-76 -29q-45 0 -76.5 30t-31.5 74t31 74zM306.5 818.5q8.5 -8.5 21.5 -8.5
t21.5 8.5t8.5 21.5t-8.5 21.5t-21.5 8.5t-21.5 -8.5t-8.5 -21.5t8.5 -21.5z" />
    <glyph glyph-name="uring" unicode="&#x16f;" horiz-adv-x="594" 
d="M414 74h-10q-39 -82 -153 -82q-57 0 -101 26.5t-68 73.5t-24 108v296h126v-290q0 -56 27 -84t79 -28q58 0 90 38.5t32 107.5v256h126v-496h-124v74zM221 713q31 30 77 30t77 -29.5t31 -74.5q0 -46 -32 -75t-76 -29q-45 0 -76.5 30t-31.5 74t31 74zM276.5 617.5
q8.5 -8.5 21.5 -8.5t21.5 8.5t8.5 21.5t-8.5 21.5t-21.5 8.5t-21.5 -8.5t-8.5 -21.5t8.5 -21.5z" />
    <glyph glyph-name="Uhungarumlaut" unicode="&#x170;" horiz-adv-x="656" 
d="M186 242q0 -65 37 -101.5t105 -36.5t105 36.5t37 101.5v458h132v-454q0 -121 -73 -190.5t-201 -69.5t-201 69.5t-73 190.5v454h132v-458zM371 880l-88 -120h-104l54 120h138zM537 880l-87 -120h-104l53 120h138z" />
    <glyph glyph-name="uhungarumlaut" unicode="&#x171;" horiz-adv-x="594" 
d="M414 74h-10q-39 -82 -153 -82q-57 0 -101 26.5t-68 73.5t-24 108v296h126v-290q0 -56 27 -84t79 -28q58 0 90 38.5t32 107.5v256h126v-496h-124v74zM337 700l-88 -130h-104l54 130h138zM504 700l-88 -130h-104l54 130h138z" />
    <glyph glyph-name="Uogonek" unicode="&#x172;" horiz-adv-x="656" 
d="M602 700v-454q0 -111 -62 -179.5t-174 -78.5l-10 -44q-1 -3 -1 -8q0 -22 23 -22h46v-84h-80q-32 0 -56 20t-24 55q0 9 3 23l14 61q-108 13 -167.5 80.5t-59.5 176.5v454h132v-458q0 -65 37 -101.5t105 -36.5t105 36.5t37 101.5v458h132z" />
    <glyph glyph-name="uogonek" unicode="&#x173;" horiz-adv-x="594" 
d="M572 -86v-84h-80q-32 0 -56 20t-24 55q0 9 3 23l16 72h-17v74h-10q-39 -82 -153 -82q-57 0 -101 26.5t-68 73.5t-24 108v296h126v-290q0 -56 27 -84t79 -28q58 0 90 38.5t32 107.5v256h126v-496h-21l-13 -56q-1 -3 -1 -8q0 -22 23 -22h46z" />
    <glyph glyph-name="Wcircumflex" unicode="&#x174;" horiz-adv-x="896" 
d="M142 700l85 -572h10l108 572h206l108 -572h10l85 572h132l-112 -700h-213l-108 572h-10l-108 -572h-213l-112 700h132zM454 820h-12l-43 -60h-123l94 120h156l94 -120h-123z" />
    <glyph glyph-name="wcircumflex" unicode="&#x175;" horiz-adv-x="744" 
d="M136 496l60 -392h10l79 392h174l79 -392h10l60 392h126l-98 -496h-180l-79 392h-10l-79 -392h-180l-98 496h126zM378 634h-12l-43 -64h-123l94 130h156l94 -130h-123z" />
    <glyph glyph-name="Ycircumflex" unicode="&#x176;" horiz-adv-x="612" 
d="M142 700l159 -310h10l159 310h148l-246 -453v-247h-132v247l-246 453h148zM312 820h-12l-43 -60h-123l94 120h156l94 -120h-123z" />
    <glyph glyph-name="ycircumflex" unicode="&#x177;" horiz-adv-x="548" 
d="M410 496h136l-272 -696h-136l70 168l-206 528h136l131 -358h10zM280 634h-12l-43 -64h-123l94 130h156l94 -130h-123z" />
    <glyph glyph-name="Ydieresis" unicode="&#x178;" horiz-adv-x="612" 
d="M142 700l159 -310h10l159 310h148l-246 -453v-247h-132v247l-246 453h148zM134.5 884q25.5 24 63.5 24t63.5 -24t25.5 -62t-25.5 -62t-63.5 -24t-63.5 24t-25.5 62t25.5 62zM350.5 884q25.5 24 63.5 24t63.5 -24t25.5 -62t-25.5 -62t-63.5 -24t-63.5 24t-25.5 62t25.5 62
z" />
    <glyph glyph-name="Zacute" unicode="&#x179;" horiz-adv-x="570" 
d="M540 700v-114l-347 -468h349v-118h-514v114l347 468h-337v118h502zM416 880l-88 -120h-108l54 120h142z" />
    <glyph glyph-name="zacute" unicode="&#x17a;" horiz-adv-x="528" 
d="M484 496v-92l-272 -302h280v-102h-450v92l272 302h-262v102h432zM385 700l-88 -130h-108l54 130h142z" />
    <glyph glyph-name="Zdotaccent" unicode="&#x17b;" horiz-adv-x="570" 
d="M540 700v-114l-347 -468h349v-118h-514v114l347 468h-337v118h502zM232.5 884q25.5 24 63.5 24t63.5 -24t25.5 -62t-25.5 -62t-63.5 -24t-63.5 24t-25.5 62t25.5 62z" />
    <glyph glyph-name="zdotaccent" unicode="&#x17c;" horiz-adv-x="528" 
d="M484 496v-92l-272 -302h280v-102h-450v92l272 302h-262v102h432zM201.5 702q25.5 24 63.5 24t63.5 -24t25.5 -62t-25.5 -62t-63.5 -24t-63.5 24t-25.5 62t25.5 62z" />
    <glyph glyph-name="Zcaron" unicode="&#x17d;" horiz-adv-x="570" 
d="M540 700v-114l-347 -468h349v-118h-514v114l347 468h-337v118h502zM468 884l-94 -120h-156l-94 120h123l43 -60h12l43 60h123z" />
    <glyph glyph-name="zcaron" unicode="&#x17e;" horiz-adv-x="528" 
d="M484 496v-92l-272 -302h280v-102h-450v92l272 302h-262v102h432zM437 700l-94 -130h-156l-94 130h123l43 -64h12l43 64h123z" />
    <glyph glyph-name="florin" unicode="&#x192;" 
d="M246 598q0 43 29 72.5t72 29.5h222v-120h-170q-27 0 -27 -30v-88h145v-120h-145v-240q0 -43 -29 -72.5t-72 -29.5h-207v120h155q27 0 27 30v192h-141v120h141v136z" />
    <glyph glyph-name="Aringacute" unicode="&#x1fa;" horiz-adv-x="602" 
d="M222.5 766q-31.5 30 -31.5 74q0 43 28.5 72t72.5 32l25 56h142l-72 -98q20 -26 20 -62q0 -46 -32 -75t-76 -29q-45 0 -76.5 30zM320.5 818.5q8.5 8.5 8.5 21.5t-8.5 21.5t-21.5 8.5t-21.5 -8.5t-8.5 -21.5t8.5 -21.5t21.5 -8.5t21.5 8.5zM404 700l196 -700h-135l-42 156
h-244l-42 -156h-135l196 700h206zM211 276h180l-85 316h-10z" />
    <glyph glyph-name="aringacute" unicode="&#x1fb;" horiz-adv-x="532" 
d="M124.5 471q54.5 39 145.5 39q99 0 155.5 -49.5t56.5 -141.5v-319h-120v58h-14q-11 -26 -42.5 -49t-91.5 -23q-79 0 -130.5 42.5t-51.5 116.5t52.5 114.5t139.5 40.5h136v28q0 37 -23 59.5t-69 22.5q-45 0 -70 -21.5t-32 -57.5l-116 39q20 62 74.5 101zM179.5 104.5
q21.5 -16.5 60.5 -16.5q53 0 86.5 30.5t33.5 79.5v8h-127q-35 0 -55 -16t-20 -42q0 -27 21.5 -43.5zM356 707q25 -27 25 -68q0 -46 -32 -75t-76 -29q-45 0 -76.5 30t-31.5 74q0 41 27.5 70t68.5 33l36 88h142zM294.5 617.5q8.5 8.5 8.5 21.5t-8.5 21.5t-21.5 8.5t-21.5 -8.5
t-8.5 -21.5t8.5 -21.5t21.5 -8.5t21.5 8.5z" />
    <glyph glyph-name="AEacute" unicode="&#x1fc;" horiz-adv-x="547" 
d="M397 124h122v-124h-254v154h-98l-32 -154h-133l158 700h353v-124h-116v-163h90v-124h-90v-165zM265 276v300h-10l-63 -300h73zM435 880l-88 -120h-108l54 120h142z" />
    <glyph glyph-name="aeacute" unicode="&#x1fd;" horiz-adv-x="848" 
d="M826 205h-341q2 -48 34.5 -79.5t83.5 -31.5q45 0 72 19t45 48l93 -67q-35 -50 -81.5 -79t-122.5 -29q-57 0 -104 24.5t-79 67.5h-13q-21 -35 -63.5 -63.5t-119.5 -28.5q-89 0 -143.5 41.5t-54.5 116.5t53.5 115t142.5 40h134v29q0 36 -26 59t-72 23q-43 0 -69.5 -21.5
t-36.5 -57.5l-112 39q22 62 76 101t142 39q107 0 162 -70h14q30 34 71.5 52t89.5 18q70 0 121 -32.5t77.5 -88t26.5 -123.5v-61zM702 299q-2 47 -30.5 75t-75.5 28q-50 0 -79 -28.5t-31 -74.5h216zM362 205h-125q-38 0 -59.5 -14.5t-21.5 -41.5q0 -28 23 -44.5t65 -16.5
q53 0 85.5 30.5t32.5 79.5v7zM558 700l-88 -130h-108l54 130h142z" />
    <glyph glyph-name="Oslashacute" unicode="&#x1fe;" horiz-adv-x="636" 
d="M575.5 577.5q30.5 -60.5 30.5 -143.5v-168q0 -133 -77 -206.5t-211 -73.5q-33 0 -57 4l-27 -83l-110 34l28 85q-59 34 -90.5 95t-31.5 145v168q0 133 77 206.5t211 73.5q36 0 61 -4l24 71l109 -34l-25 -75q58 -34 88.5 -94.5zM195 156l146 439q-7 1 -23 1
q-73 0 -114.5 -42.5t-41.5 -115.5v-176q0 -64 33 -106zM474 438q0 61 -30 102l-145 -435q6 -1 19 -1q73 0 114.5 42.5t41.5 115.5v176zM438 880l-88 -120h-108l54 120h142z" />
    <glyph glyph-name="oslashacute" unicode="&#x1ff;" horiz-adv-x="572" 
d="M526.5 357q19.5 -49 19.5 -109q0 -79 -34 -138.5t-93 -91.5t-133 -32q-53 0 -99 17l-45 -70l-84 52l45 69q-37 34 -57 84t-20 110q0 79 34 138.5t93 91.5t133 32q56 0 102 -18l43 67l83 -52l-43 -67q36 -34 55.5 -83zM172 161l152 234q-20 5 -38 5q-60 0 -97 -40.5
t-37 -111.5q0 -52 20 -87zM383 136.5q37 40.5 37 111.5q0 49 -19 85l-151 -233q16 -4 36 -4q60 0 97 40.5zM406 700l-88 -130h-108l54 130h142z" />
    <glyph glyph-name="uni0218" unicode="&#x218;" horiz-adv-x="586" 
d="M477 655q71 -59 71 -169v-16h-130v16q0 112 -129 112q-59 0 -88 -22t-29 -62q0 -38 28.5 -59t94.5 -36l23 -5q121 -26 182.5 -73.5t61.5 -138.5q0 -64 -32.5 -113t-92.5 -76t-140 -27q-81 0 -143.5 29t-97 83.5t-34.5 129.5v10h130v-10q0 -62 38 -94t107 -32
q66 0 100.5 26.5t34.5 69.5q0 41 -31.5 61.5t-105.5 36.5l-23 5q-118 26 -174 72t-56 137q0 95 67 149.5t180 54.5q117 0 188 -59zM237 -77q27 27 68 27t68 -26.5t27 -67.5v-116q0 -38 -25.5 -64t-63.5 -26h-95v68h77q15 0 22 6.5t7 21.5v19q-8 -2 -19 -2q-39 0 -66 26
t-27 65q0 42 27 69z" />
    <glyph glyph-name="uni0219" unicode="&#x219;" horiz-adv-x="500" 
d="M101 469.5q53 40.5 143 40.5q81 0 135 -36.5t73 -98.5l-114 -35q-16 74 -94 74q-36 0 -55 -13t-19 -36q0 -24 19.5 -36.5t60.5 -20.5l26 -5q65 -13 106 -29t65.5 -46t24.5 -79q0 -77 -56 -120t-152 -43q-98 0 -159.5 42t-74.5 120l116 30q17 -96 118 -96q42 0 64 16
t22 41q0 23 -21 36.5t-69 22.5l-26 5q-89 17 -137.5 51.5t-48.5 102.5q0 72 53 112.5zM179 -77q27 27 68 27t68 -26.5t27 -67.5v-116q0 -38 -25.5 -64t-63.5 -26h-95v68h77q15 0 22 6.5t7 21.5v19q-8 -2 -19 -2q-39 0 -66 26t-27 65q0 42 27 69z" />
    <glyph glyph-name="uni021A" unicode="&#x21a;" horiz-adv-x="572" 
d="M564 700v-120h-212v-580h-132v580h-212v120h556zM218 -77q27 27 68 27t68 -26.5t27 -67.5v-116q0 -38 -25.5 -64t-63.5 -26h-95v68h77q15 0 22 6.5t7 21.5v19q-8 -2 -19 -2q-39 0 -66 26t-27 65q0 42 27 69z" />
    <glyph glyph-name="uni021B" unicode="&#x21b;" horiz-adv-x="418" 
d="M128 496v154h126v-154h136v-102h-136v-262q0 -30 28 -30h96v-102h-140q-50 0 -80 30.5t-30 81.5v282h-124v102h124zM142 -77q27 27 68 27t68 -26.5t27 -67.5v-116q0 -38 -25.5 -64t-63.5 -26h-95v68h77q15 0 22 6.5t7 21.5v19q-8 -2 -19 -2q-39 0 -66 26t-27 65
q0 42 27 69z" />
    <glyph glyph-name="uni0237" unicode="&#x237;" horiz-adv-x="242" 
d="M156 -169.5q-30 -30.5 -80 -30.5h-130v102h86q28 0 28 30v564h126v-584q0 -51 -30 -81.5z" />
    <glyph glyph-name="circumflex" unicode="&#x2c6;" horiz-adv-x="424" 
d="M218 634h-12l-43 -64h-123l94 130h156l94 -130h-123z" />
    <glyph glyph-name="caron" unicode="&#x2c7;" horiz-adv-x="424" 
d="M384 700l-94 -130h-156l-94 130h123l43 -64h12l43 64h123z" />
    <glyph glyph-name="breve" unicode="&#x2d8;" horiz-adv-x="344" 
d="M304 680q0 -56 -36 -89t-96 -33t-96 33t-36 89v20h90v-12q0 -19 11 -30.5t31 -11.5t31 11.5t11 30.5v12h90v-20z" />
    <glyph glyph-name="dotaccent" unicode="&#x2d9;" horiz-adv-x="258" 
d="M65.5 702q25.5 24 63.5 24t63.5 -24t25.5 -62t-25.5 -62t-63.5 -24t-63.5 24t-25.5 62t25.5 62z" />
    <glyph glyph-name="ring" unicode="&#x2da;" horiz-adv-x="296" 
d="M71 713q31 30 77 30t77 -29.5t31 -74.5q0 -46 -32 -75t-76 -29q-45 0 -76.5 30t-31.5 74t31 74zM126.5 617.5q8.5 -8.5 21.5 -8.5t21.5 8.5t8.5 21.5t-8.5 21.5t-21.5 8.5t-21.5 -8.5t-8.5 -21.5t8.5 -21.5z" />
    <glyph glyph-name="ogonek" unicode="&#x2db;" horiz-adv-x="240" 
d="M132 -56q-1 -3 -1 -8q0 -22 23 -22h46v-84h-80q-32 0 -56 20t-24 55q0 9 3 23l23 102h86z" />
    <glyph glyph-name="tilde" unicode="&#x2dc;" horiz-adv-x="480" 
d="M182 733q39 0 74 -38q2 -2 8.5 -9.5t13.5 -11t16 -3.5q13 0 21.5 5.5t17.5 18.5l30 38l77 -61l-56 -72q-34 -44 -86 -44q-39 0 -74 38q-2 2 -8.5 9.5t-13.5 11t-16 3.5q-13 0 -21.5 -5.5t-17.5 -18.5l-30 -38l-77 61l56 72q34 44 86 44z" />
    <glyph glyph-name="hungarumlaut" unicode="&#x2dd;" horiz-adv-x="439" 
d="M232 700l-88 -130h-104l54 130h138zM399 700l-88 -130h-104l54 130h138z" />
    <glyph glyph-name="gravecomb" unicode="&#x300;" horiz-adv-x="0" 
d="M-40 570h-108l-88 130h142z" />
    <glyph glyph-name="acutecomb" unicode="&#x301;" horiz-adv-x="0" 
d="M-40 700l-88 -130h-108l54 130h142z" />
    <glyph glyph-name="uni0302" unicode="&#x302;" horiz-adv-x="0" 
d="M-206 634h-12l-43 -64h-123l94 130h156l94 -130h-123z" />
    <glyph glyph-name="tildecomb" unicode="&#x303;" horiz-adv-x="0" 
d="M-298 733q39 0 74 -38q2 -2 8.5 -9.5t13.5 -11t16 -3.5q13 0 21.5 5.5t17.5 18.5l30 38l77 -61l-56 -72q-34 -44 -86 -44q-39 0 -74 38q-2 2 -8.5 9.5t-13.5 11t-16 3.5q-13 0 -21.5 -5.5t-17.5 -18.5l-30 -38l-77 61l56 72q34 44 86 44z" />
    <glyph glyph-name="uni0304" unicode="&#x304;" horiz-adv-x="0" 
d="M-40 570h-294v102h294v-102z" />
    <glyph glyph-name="uni0306" unicode="&#x306;" horiz-adv-x="0" 
d="M-40 680q0 -56 -36 -89t-96 -33t-96 33t-36 89v20h90v-12q0 -19 11 -30.5t31 -11.5t31 11.5t11 30.5v12h90v-20z" />
    <glyph glyph-name="uni0307" unicode="&#x307;" horiz-adv-x="0" 
d="M-192.5 702q25.5 24 63.5 24t63.5 -24t25.5 -62t-25.5 -62t-63.5 -24t-63.5 24t-25.5 62t25.5 62z" />
    <glyph glyph-name="uni0308" unicode="&#x308;" horiz-adv-x="0" 
d="M-402.5 702q25.5 24 63.5 24t63.5 -24t25.5 -62t-25.5 -62t-63.5 -24t-63.5 24t-25.5 62t25.5 62zM-192.5 702q25.5 24 63.5 24t63.5 -24t25.5 -62t-25.5 -62t-63.5 -24t-63.5 24t-25.5 62t25.5 62z" />
    <glyph glyph-name="uni030A" unicode="&#x30a;" horiz-adv-x="0" 
d="M-225 713q31 30 77 30t77 -29.5t31 -74.5q0 -46 -32 -75t-76 -29q-45 0 -76.5 30t-31.5 74t31 74zM-169.5 617.5q8.5 -8.5 21.5 -8.5t21.5 8.5t8.5 21.5t-8.5 21.5t-21.5 8.5t-21.5 -8.5t-8.5 -21.5t8.5 -21.5z" />
    <glyph glyph-name="uni030B" unicode="&#x30b;" horiz-adv-x="0" 
d="M-207 700l-88 -130h-104l54 130h138zM-40 700l-88 -130h-104l54 130h138z" />
    <glyph glyph-name="uni030C" unicode="&#x30c;" horiz-adv-x="0" 
d="M-40 700l-94 -130h-156l-94 130h123l43 -64h12l43 64h123z" />
    <glyph glyph-name="uni0312" unicode="&#x312;" horiz-adv-x="0" 
d="M-67 572q-27 -27 -68 -27t-68 26.5t-27 67.5v117q0 38 25.5 64t63.5 26h95v-68h-77q-16 0 -22.5 -6.5t-6.5 -21.5v-20q8 2 19 2q39 0 66 -26t27 -65q0 -42 -27 -69z" />
    <glyph glyph-name="uni0326" unicode="&#x326;" horiz-adv-x="0" 
d="M-203 -77q27 27 68 27t68 -26.5t27 -67.5v-116q0 -38 -25.5 -64t-63.5 -26h-95v68h77q15 0 22 6.5t7 21.5v19q-8 -2 -19 -2q-39 0 -66 26t-27 65q0 42 27 69z" />
    <glyph glyph-name="uni0327" unicode="&#x327;" horiz-adv-x="0" 
d="M-181 -58h12q7 9 20.5 15.5t31.5 6.5q31 0 54 -20.5t23 -59.5q0 -45 -31 -71.5t-79 -26.5q-27 0 -46 5t-38 15l26 68q23 -14 50 -14q15 0 24.5 7t9.5 19q0 9 -5.5 15.5t-14.5 6.5q-17 0 -20 -14h-97v12l27 126h70z" />
    <glyph glyph-name="uni0328" unicode="&#x328;" horiz-adv-x="0" 
d="M-108 -56q-1 -3 -1 -8q0 -22 23 -22h46v-84h-80q-32 0 -56 20t-24 55q0 9 3 23l23 102h86z" />
    <glyph glyph-name="uni0335" unicode="&#x335;" horiz-adv-x="0" 
d="M-40 636v-84h-296v84h296z" />
    <glyph glyph-name="uni0336" unicode="&#x336;" horiz-adv-x="0" 
d="M-40 496h-640v110h640v-110z" />
    <glyph glyph-name="uni0337" unicode="&#x337;" horiz-adv-x="0" 
d="M9 507l-372 -574l-84 52l373 574z" />
    <glyph glyph-name="uni0338" unicode="&#x338;" horiz-adv-x="0" 
d="M-40 747l-278 -840l-110 34l279 840z" />
    <glyph glyph-name="pi" unicode="&#x3c0;" 
d="M132 376h-78v120h514v-120h-78v-226q0 -30 27 -30h51v-120h-108q-42 0 -69 27t-27 69v280h-106v-376h-126v376z" />
    <glyph glyph-name="Wgrave" unicode="&#x1e80;" horiz-adv-x="896" 
d="M142 700l85 -572h10l108 572h206l108 -572h10l85 572h132l-112 -700h-213l-108 572h-10l-108 -572h-213l-112 700h132zM524 760h-108l-88 120h142z" />
    <glyph glyph-name="wgrave" unicode="&#x1e81;" horiz-adv-x="744" 
d="M136 496l60 -392h10l79 392h174l79 -392h10l60 392h126l-98 -496h-180l-79 392h-10l-79 -392h-180l-98 496h126zM448 570h-108l-88 130h142z" />
    <glyph glyph-name="Wacute" unicode="&#x1e82;" horiz-adv-x="896" 
d="M142 700l85 -572h10l108 572h206l108 -572h10l85 572h132l-112 -700h-213l-108 572h-10l-108 -572h-213l-112 700h132zM568 880l-88 -120h-108l54 120h142z" />
    <glyph glyph-name="wacute" unicode="&#x1e83;" horiz-adv-x="744" 
d="M136 496l60 -392h10l79 392h174l79 -392h10l60 392h126l-98 -496h-180l-79 392h-10l-79 -392h-180l-98 496h126zM492 700l-88 -130h-108l54 130h142z" />
    <glyph glyph-name="Wdieresis" unicode="&#x1e84;" horiz-adv-x="896" 
d="M142 700l85 -572h10l108 572h206l108 -572h10l85 572h132l-112 -700h-213l-108 572h-10l-108 -572h-213l-112 700h132zM276.5 884q25.5 24 63.5 24t63.5 -24t25.5 -62t-25.5 -62t-63.5 -24t-63.5 24t-25.5 62t25.5 62zM492.5 884q25.5 24 63.5 24t63.5 -24t25.5 -62
t-25.5 -62t-63.5 -24t-63.5 24t-25.5 62t25.5 62z" />
    <glyph glyph-name="wdieresis" unicode="&#x1e85;" horiz-adv-x="744" 
d="M136 496l60 -392h10l79 392h174l79 -392h10l60 392h126l-98 -496h-180l-79 392h-10l-79 -392h-180l-98 496h126zM203.5 702q25.5 24 63.5 24t63.5 -24t25.5 -62t-25.5 -62t-63.5 -24t-63.5 24t-25.5 62t25.5 62zM413.5 702q25.5 24 63.5 24t63.5 -24t25.5 -62t-25.5 -62
t-63.5 -24t-63.5 24t-25.5 62t25.5 62z" />
    <glyph glyph-name="uni1E9E" unicode="&#x1e9e;" horiz-adv-x="637" 
d="M88 568.5q34 64.5 95.5 98t142.5 33.5h260v-104l-150 -202q-5 -6 -8 -11.5t-3 -11.5q0 -7 6 -12.5t20 -11.5l37 -16q61 -27 94 -65.5t33 -104.5q0 -77 -51 -126t-144 -49q-63 0 -109 23.5t-70.5 64.5t-24.5 94h134q0 -29 20 -46.5t50 -17.5t47.5 15.5t17.5 39.5t-16.5 38
t-47.5 27l-48 20q-41 17 -60.5 45.5t-19.5 65.5q0 31 14.5 58t45.5 66l80 101h-107q-58 0 -99 -37.5t-41 -122.5v-420h-132v416q0 88 34 152.5z" />
    <glyph glyph-name="Ygrave" unicode="&#x1ef2;" horiz-adv-x="612" 
d="M142 700l159 -310h10l159 310h148l-246 -453v-247h-132v247l-246 453h148zM382 760h-108l-88 120h142z" />
    <glyph glyph-name="ygrave" unicode="&#x1ef3;" horiz-adv-x="548" 
d="M410 496h136l-272 -696h-136l70 168l-206 528h136l131 -358h10zM350 570h-108l-88 130h142z" />
    <glyph glyph-name="endash" unicode="&#x2013;" horiz-adv-x="612" 
d="M82 312h448v-114h-448v114z" />
    <glyph glyph-name="emdash" unicode="&#x2014;" horiz-adv-x="916" 
d="M82 312h752v-114h-752v114z" />
    <glyph glyph-name="quoteleft" unicode="&#x2018;" horiz-adv-x="278" 
d="M206 429.5q-26 -25.5 -67 -25.5t-67 26t-26 70v81q0 61 33.5 97.5t100.5 36.5h37v-68h-42q-24 0 -37.5 -14t-13.5 -38v-12h15q41 0 67 -24.5t26 -62.5q0 -41 -26 -66.5z" />
    <glyph glyph-name="quoteright" unicode="&#x2019;" horiz-adv-x="278" 
d="M72 689.5q26 25.5 67 25.5t67 -26t26 -70v-81q0 -61 -33.5 -97.5t-100.5 -36.5h-37v68h42q24 0 37.5 14t13.5 38v12h-15q-41 0 -67 24.5t-26 62.5q0 41 26 66.5z" />
    <glyph glyph-name="quotesinglbase" unicode="&#x201a;" horiz-adv-x="278" 
d="M72 150.5q26 25.5 67 25.5t67 -26t26 -70v-81q0 -61 -33.5 -97.5t-100.5 -36.5h-37v68h42q24 0 37.5 14t13.5 38v12h-15q-41 0 -67 24.5t-26 62.5q0 41 26 66.5z" />
    <glyph glyph-name="quotedblleft" unicode="&#x201c;" horiz-adv-x="488" 
d="M206 429.5q-26 -25.5 -67 -25.5t-67 26t-26 70v81q0 61 33.5 97.5t100.5 36.5h37v-68h-42q-24 0 -37.5 -14t-13.5 -38v-12h15q41 0 67 -24.5t26 -62.5q0 -41 -26 -66.5zM416 429.5q-26 -25.5 -67 -25.5t-67 26t-26 70v81q0 61 33.5 97.5t100.5 36.5h37v-68h-42
q-24 0 -37.5 -14t-13.5 -38v-12h15q41 0 67 -24.5t26 -62.5q0 -41 -26 -66.5z" />
    <glyph glyph-name="quotedblright" unicode="&#x201d;" horiz-adv-x="488" 
d="M72 689.5q26 25.5 67 25.5t67 -26t26 -70v-81q0 -61 -33.5 -97.5t-100.5 -36.5h-37v68h42q24 0 37.5 14t13.5 38v12h-15q-41 0 -67 24.5t-26 62.5q0 41 26 66.5zM282 689.5q26 25.5 67 25.5t67 -26t26 -70v-81q0 -61 -33.5 -97.5t-100.5 -36.5h-37v68h42q24 0 37.5 14
t13.5 38v12h-15q-41 0 -67 24.5t-26 62.5q0 41 26 66.5z" />
    <glyph glyph-name="quotedblbase" unicode="&#x201e;" horiz-adv-x="488" 
d="M72 150.5q26 25.5 67 25.5t67 -26t26 -70v-81q0 -61 -33.5 -97.5t-100.5 -36.5h-37v68h42q24 0 37.5 14t13.5 38v12h-15q-41 0 -67 24.5t-26 62.5q0 41 26 66.5zM282 150.5q26 25.5 67 25.5t67 -26t26 -70v-81q0 -61 -33.5 -97.5t-100.5 -36.5h-37v68h42q24 0 37.5 14
t13.5 38v12h-15q-41 0 -67 24.5t-26 62.5q0 41 26 66.5z" />
    <glyph glyph-name="dagger" unicode="&#x2020;" 
d="M84 532h160v168h132v-168h160v-124h-160v-408h-132v408h-160v124z" />
    <glyph glyph-name="daggerdbl" unicode="&#x2021;" 
d="M84 292h160v116h-160v124h160v168h132v-168h160v-124h-160v-116h160v-124h-160v-168h-132v168h-160v124z" />
    <glyph glyph-name="bullet" unicode="&#x2022;" horiz-adv-x="310" 
d="M30.5 421.5q19.5 33.5 52.5 53t72 19.5t72 -19.5t52.5 -52.5t19.5 -72q0 -40 -20 -73t-53.5 -52t-70.5 -19q-38 0 -71 19.5t-53 53t-20 71.5t19.5 71.5z" />
    <glyph glyph-name="ellipsis" unicode="&#x2026;" horiz-adv-x="682" 
d="M73 149.5q27 26.5 68 26.5t68 -26.5t27 -68.5t-27 -68.5t-68 -26.5t-68 26.5t-27 68.5t27 68.5zM273 149.5q27 26.5 68 26.5t68 -26.5t27 -68.5t-27 -68.5t-68 -26.5t-68 26.5t-27 68.5t27 68.5zM473 149.5q27 26.5 68 26.5t68 -26.5t27 -68.5t-27 -68.5t-68 -26.5
t-68 26.5t-27 68.5t27 68.5z" />
    <glyph glyph-name="perthousand" unicode="&#x2030;" horiz-adv-x="981" 
d="M677 640l-203 -226l-64 48l164 255zM319.5 669.5q44.5 -42.5 44.5 -115.5v-19q0 -74 -43.5 -115.5t-120.5 -41.5t-120.5 41.5t-43.5 115.5v19q0 74 43.5 116t120.5 42q75 0 119.5 -42.5zM260 559q0 31 -15.5 49t-44.5 18t-44.5 -18t-15.5 -49v-28q0 -31 15.5 -49
t44.5 -18t44.5 18t15.5 49v28zM901.5 279.5q43.5 -42.5 43.5 -115.5v-19q0 -73 -42.5 -115t-116.5 -42q-76 0 -117 47q-41 -47 -117 -47q-74 0 -116.5 42t-42.5 115v19q0 73 42.5 115.5t116.5 42.5q76 0 116 -48q40 48 118 48q72 0 115.5 -42.5zM75 62l203 226l64 -48
l-164 -255zM617 169q0 31 -15.5 49t-44.5 18q-30 0 -46 -18t-16 -49v-28q0 -31 16 -49t46 -18q29 0 44.5 18t15.5 49v28zM841 169q0 31 -15.5 49t-44.5 18t-44.5 -18t-15.5 -49v-28q0 -31 15.5 -49t44.5 -18t44.5 18t15.5 49v28z" />
    <glyph glyph-name="prime" unicode="&#x2032;" horiz-adv-x="310" 
d="M230 700l-57 -280h-88l10 280h135z" />
    <glyph glyph-name="primedbl" unicode="&#x2033;" horiz-adv-x="440" 
d="M215 700l-57 -280h-88l10 280h135zM375 700l-57 -280h-88l10 280h135z" />
    <glyph glyph-name="guilsinglleft" unicode="&#x2039;" horiz-adv-x="480" 
d="M412 490h6v-136l-234 -97v-18l234 -97v-136h-6l-354 170v144z" />
    <glyph glyph-name="guilsinglright" unicode="&#x203a;" horiz-adv-x="480" 
d="M422 176l-354 -170h-6v136l234 97v18l-234 97v136h6l354 -170v-144z" />
    <glyph glyph-name="fraction" unicode="&#x2044;" horiz-adv-x="632" 
d="M514 716l103 -77l-203 -226l-64 48zM118 -16l-103 77l203 226l64 -48z" />
    <glyph glyph-name="uni2074" unicode="&#x2074;" horiz-adv-x="372" 
d="M310 700v-203h60v-76h-60v-71h-100v71h-200v70l138 209h162zM114 497h96v131h-9z" />
    <glyph glyph-name="uni20A8" unicode="&#x20a8;" horiz-adv-x="622" 
d="M422 596v-10q36 -24 52 -64h120v-104h-109q-10 -62 -51 -105.5t-104 -61.5l166 -251h-156l-149 240h-137v112h179q39 0 67.5 17.5t41.5 48.5h-288v104h288q-13 31 -41.5 48.5t-67.5 17.5h-179v112h540v-104h-172z" />
    <glyph glyph-name="Euro" unicode="&#x20ac;" horiz-adv-x="662" 
d="M504 436v18q0 65 -32.5 102.5t-95.5 37.5q-55 0 -89 -30t-44 -80h133v-104h-138v-50h138v-104h-136q8 -57 41.5 -88.5t94.5 -31.5q128 0 128 140v18h132v-24q0 -119 -66 -186.5t-194 -67.5q-115 0 -185.5 62t-82.5 178h-66v104h64v50h-64v104h68q14 108 83.5 169
t182.5 61q124 0 192 -68t68 -186v-24h-132z" />
    <glyph glyph-name="uni20BF" unicode="&#x20bf;" horiz-adv-x="614" 
d="M545 70.5q-39 -48.5 -106 -63.5v-123h-108v116h-60v-116h-108v116h-105v700h105v116h108v-116h60v116h108v-124q65 -16 103 -63t38 -115q0 -69 -33.5 -105.5t-80.5 -50.5v-10q48 -13 83 -50.5t35 -107.5q0 -71 -39 -119.5zM190 412h170q42 0 68 22.5t26 61.5t-26 61.5
t-68 22.5h-170v-168zM432 143q26 23 26 63t-26 63t-70 23h-172v-172h172q44 0 70 23z" />
    <glyph glyph-name="trademark" unicode="&#x2122;" 
d="M256 700v-38h-74v-184h-42v184h-74v38h190zM361 700l50 -184h4l50 184h75v-222h-42v184h-4l-50 -184h-62l-50 184h-4v-184h-42v222h75z" />
    <glyph glyph-name="oneeighth" unicode="&#x215b;" horiz-adv-x="728" 
d="M220 700v-350h-100v246h-10l-18 -52h-88v10l65 146h151zM514 716l103 -77l-203 -226l-64 48zM118 -16l-103 77l203 226l64 -48zM427 334.5q43 27.5 111 27.5t111 -27.5t43 -70.5v-3q0 -31 -17.5 -48.5t-39.5 -25.5v-10q22 -5 42.5 -26.5t20.5 -57.5v-2q0 -45 -43.5 -74
t-116.5 -29t-116.5 29t-43.5 74v2q0 38 20 58.5t43 25.5v10q-22 8 -39.5 25.5t-17.5 48.5v3q0 43 43 70.5zM498.5 227.5q14.5 -9.5 39.5 -9.5t39.5 9.5t14.5 24.5t-14.5 23.5t-39.5 8.5t-39.5 -8.5t-14.5 -23.5t14.5 -24.5zM494 76q16 -10 44 -10t44 10t16 28t-16 28t-44 10
t-44 -10t-16 -28t16 -28z" />
    <glyph glyph-name="threeeighths" unicode="&#x215c;" horiz-adv-x="794" 
d="M328 632l-102 -61v-10q45 -2 74.5 -27t29.5 -71q0 -54 -44 -89.5t-111 -35.5q-71 0 -114.5 35.5t-46.5 99.5h98q2 -23 18.5 -38t41.5 -15q26 0 42 14t16 33q0 43 -58 43h-66v62l82 48h-168v80h308v-68zM592 716l103 -77l-203 -226l-64 48zM196 -16l-103 77l203 226
l64 -48zM505 334.5q43 27.5 111 27.5t111 -27.5t43 -70.5v-3q0 -31 -17.5 -48.5t-39.5 -25.5v-10q22 -5 42.5 -26.5t20.5 -57.5v-2q0 -45 -43.5 -74t-116.5 -29t-116.5 29t-43.5 74v2q0 38 20 58.5t43 25.5v10q-22 8 -39.5 25.5t-17.5 48.5v3q0 43 43 70.5zM576.5 227.5
q14.5 -9.5 39.5 -9.5t39.5 9.5t14.5 24.5t-14.5 23.5t-39.5 8.5t-39.5 -8.5t-14.5 -23.5t14.5 -24.5zM572 76q16 -10 44 -10t44 10t16 28t-16 28t-44 10t-44 -10t-16 -28t16 -28z" />
    <glyph glyph-name="fiveeighths" unicode="&#x215d;" horiz-adv-x="796" 
d="M324 620h-196v-61h10q17 11 33.5 17t46.5 6q50 0 84 -30.5t34 -80.5v-7q0 -35 -19.5 -64t-55.5 -45.5t-83 -16.5q-65 0 -107 33t-53 91h98q6 -20 21.5 -32t40.5 -12q26 0 42 13t16 34t-13.5 32.5t-33.5 11.5q-16 0 -25.5 -5t-18.5 -13h-115v209h294v-80zM596 716l103 -77
l-203 -226l-64 48zM200 -16l-103 77l203 226l64 -48zM509 334.5q43 27.5 111 27.5t111 -27.5t43 -70.5v-3q0 -31 -17.5 -48.5t-39.5 -25.5v-10q22 -5 42.5 -26.5t20.5 -57.5v-2q0 -45 -43.5 -74t-116.5 -29t-116.5 29t-43.5 74v2q0 38 20 58.5t43 25.5v10q-22 8 -39.5 25.5
t-17.5 48.5v3q0 43 43 70.5zM580.5 227.5q14.5 -9.5 39.5 -9.5t39.5 9.5t14.5 24.5t-14.5 23.5t-39.5 8.5t-39.5 -8.5t-14.5 -23.5t14.5 -24.5zM576 76q16 -10 44 -10t44 10t16 28t-16 28t-44 10t-44 -10t-16 -28t16 -28z" />
    <glyph glyph-name="seveneighths" unicode="&#x215e;" horiz-adv-x="714" 
d="M312 700v-76l-139 -274h-108l139 270h-202v80h310zM528 716l103 -77l-203 -226l-64 48zM132 -16l-103 77l203 226l64 -48zM441 334.5q43 27.5 111 27.5t111 -27.5t43 -70.5v-3q0 -31 -17.5 -48.5t-39.5 -25.5v-10q22 -5 42.5 -26.5t20.5 -57.5v-2q0 -45 -43.5 -74
t-116.5 -29t-116.5 29t-43.5 74v2q0 38 20 58.5t43 25.5v10q-22 8 -39.5 25.5t-17.5 48.5v3q0 43 43 70.5zM512.5 227.5q14.5 -9.5 39.5 -9.5t39.5 9.5t14.5 24.5t-14.5 23.5t-39.5 8.5t-39.5 -8.5t-14.5 -23.5t14.5 -24.5zM508 76q16 -10 44 -10t44 10t16 28t-16 28t-44 10
t-44 -10t-16 -28t16 -28z" />
    <glyph glyph-name="arrowleft" unicode="&#x2190;" horiz-adv-x="800" 
d="M363 451l-108 -108l-33 -22l3 -9l40 4h485v-122h-485l-40 4l-3 -9l33 -22l108 -108l-84 -84l-229 229v102l229 229z" />
    <glyph glyph-name="arrowup" unicode="&#x2191;" 
d="M259 706h102l229 -229l-84 -84l-106 106l-22 33l-9 -3l4 -40v-489h-126v489l4 40l-9 3l-22 -33l-106 -106l-84 84z" />
    <glyph glyph-name="arrowright" unicode="&#x2192;" horiz-adv-x="800" 
d="M750 306v-102l-229 -229l-84 84l108 108l33 22l-3 9l-40 -4h-485v122h485l40 -4l3 9l-33 22l-108 108l84 84z" />
    <glyph glyph-name="arrowdown" unicode="&#x2193;" 
d="M114 307l106 -106l22 -33l9 3l-4 40v489h126v-489l-4 -40l9 -3l22 33l106 106l84 -84l-229 -229h-102l-229 229z" />
    <glyph glyph-name="arrowboth" unicode="&#x2194;" horiz-adv-x="800" 
d="M531 525l219 -219v-102l-219 -219l-84 84l98 98l33 22l-3 9l-40 -4h-270l-40 4l-3 -9l33 -22l98 -98l-84 -84l-219 219v102l219 219l84 -84l-98 -98l-33 -22l3 -9l40 4h270l40 -4l3 9l-33 22l-98 98z" />
    <glyph glyph-name="arrowupdn" unicode="&#x2195;" 
d="M400 201l106 106l84 -84l-229 -229h-102l-229 229l84 84l106 -106l22 -33l9 3l-4 40v278l4 40l-9 3l-22 -33l-106 -106l-84 84l229 229h102l229 -229l-84 -84l-106 106l-22 33l-9 -3l4 -40v-278l-4 -40l9 -3z" />
    <glyph glyph-name="uni2196" unicode="&#x2196;" 
d="M463 380h-149l-39 8l-5 -9l32 -25l278 -280l-89 -89l-279 279l-25 32l-9 -5l8 -39v-149h-116v324l69 69h324v-116z" />
    <glyph glyph-name="uni2197" unicode="&#x2197;" 
d="M481 496l69 -69v-324h-116v149l8 39l-9 5l-25 -32l-279 -279l-89 89l278 280l32 25l-5 9l-39 -8h-149v116h324z" />
    <glyph glyph-name="uni2198" unicode="&#x2198;" 
d="M157 116h149l39 -8l5 9l-32 25l-278 280l89 89l279 -279l25 -32l9 5l-8 39v149h116v-324l-69 -69h-324v116z" />
    <glyph glyph-name="uni2199" unicode="&#x2199;" 
d="M139 0l-69 69v324h116v-149l-8 -39l9 -5l25 32l279 279l89 -89l-278 -280l-32 -25l5 -9l39 8h149v-116h-324z" />
    <glyph glyph-name="partialdiff" unicode="&#x2202;" 
d="M79 384.5q28 58.5 78 92t114 33.5q47 0 75 -11t49 -35h18q-49 125 -262 150l20 114q194 -20 296 -131.5t102 -305.5q0 -92 -31 -160.5t-90.5 -106.5t-142.5 -38q-73 0 -131 33t-90.5 91.5t-32.5 131.5v12q0 72 28 130.5zM401 143.5q35 37.5 35 110.5q0 62 -36 99t-94 37
t-93.5 -38t-35.5 -101v-6q0 -65 35 -102t94 -37q60 0 95 37.5z" />
    <glyph glyph-name="emptyset" unicode="&#x2205;" horiz-adv-x="640" 
d="M560 376q30 -55 30 -124v-8q0 -75 -35.5 -134t-97 -91.5t-137.5 -32.5q-28 0 -48 4l-42 -97l-108 46l40 92q-52 34 -82 89t-30 124v8q0 75 35.5 134t97 91.5t137.5 32.5q28 0 48 -4l42 97l108 -46l-40 -92q52 -34 82 -89zM213 148l105 242q-61 -1 -101.5 -39t-40.5 -96
v-14q0 -54 37 -93zM464 255q0 54 -37 93l-105 -242q61 1 101.5 39t40.5 96v14z" />
    <glyph glyph-name="product" unicode="&#x220f;" 
d="M65 700h490v-700h-132v574h-226v-574h-132v700z" />
    <glyph glyph-name="summation" unicode="&#x2211;" 
d="M64 700h492v-124h-292v-18l152 -158v-100l-152 -158v-18h292v-124h-492v120l214 221v18l-214 221v120z" />
    <glyph glyph-name="minus" unicode="&#x2212;" 
d="M519 407v-114h-418v114h418z" />
    <glyph glyph-name="uni2215" unicode="&#x2215;" horiz-adv-x="537" 
d="M489 806l-316 -963h-125l316 963h125z" />
    <glyph glyph-name="radical" unicode="&#x221a;" 
d="M28 412h210l63 -298h18l147 742h126l-175 -856h-216l-63 298h-110v114z" />
    <glyph glyph-name="infinity" unicode="&#x221e;" 
d="M60 431.5q22 37.5 58 59.5t78 22q72 0 105 -48h18q33 48 105 48q43 0 79 -22t57.5 -59.5t21.5 -81.5q0 -45 -21.5 -82.5t-58 -59t-78.5 -21.5q-72 0 -105 48h-18q-33 -48 -105 -48q-43 0 -79 22.5t-57.5 60t-21.5 80.5q0 44 22 81.5zM240 389q-16 16 -39 16t-39 -16
t-16 -39t16 -39t39 -16t39 16t16 39t-16 39zM380 311q16 -16 39 -16t39 16t16 39t-16 39t-39 16t-39 -16t-16 -39t16 -39z" />
    <glyph glyph-name="integral" unicode="&#x222b;" 
d="M344 -170.5q-29 -29.5 -72 -29.5h-139v120h87q27 0 27 30v648q0 43 29 72.5t72 29.5h139v-120h-87q-27 0 -27 -30v-648q0 -43 -29 -72.5z" />
    <glyph glyph-name="approxequal" unicode="&#x2248;" 
d="M361.5 482q7.5 -7 21.5 -7q17 0 39 19l70 51l70 -93l-105 -80q-42 -35 -89 -35q-62 0 -86 41q-13 21 -20.5 28t-21.5 7q-17 0 -39 -19l-70 -51l-70 93l105 80q42 35 89 35q62 0 86 -41q13 -21 20.5 -28zM361.5 256q7.5 -7 21.5 -7q17 0 39 19l70 51l70 -93l-105 -80
q-42 -35 -89 -35q-62 0 -86 41q-13 21 -20.5 28t-21.5 7q-17 0 -39 -19l-73 -53l-70 93l108 82q42 35 89 35q62 0 86 -41q13 -21 20.5 -28z" />
    <glyph glyph-name="notequal" unicode="&#x2260;" 
d="M101 494h194l33 99l113 -35l-21 -64h99v-114h-137l-20 -60h157v-114h-195l-32 -99l-113 35l21 64h-99v114h136l20 60h-156v114z" />
    <glyph glyph-name="lessequal" unicode="&#x2264;" 
d="M100 428l420 142v-120l-298 -91v-18l298 -91v-120l-420 142v156zM101 108h418v-108h-418v108z" />
    <glyph glyph-name="greaterequal" unicode="&#x2265;" 
d="M100 130v120l298 91v18l-298 91v120l420 -142v-156zM101 0v108h418v-108h-418z" />
    <glyph glyph-name="lozenge" unicode="&#x25ca;" 
d="M209 700h202l166 -350l-166 -350h-202l-166 350zM301 98h18l117 252l-117 252h-18l-117 -252z" />
    <glyph glyph-name="uniE132" unicode="&#xe132;" horiz-adv-x="480" 
d="M182 0h-126v496h126v-496zM239 700l-88 -130h-108l54 130h142zM394 -169.5q-30 -30.5 -80 -30.5h-130v102h86q28 0 28 30v564h126v-584q0 -51 -30 -81.5zM481 700l-88 -130h-108l54 130h142z" />
    <glyph glyph-name="uniE133" unicode="&#xe133;" horiz-adv-x="566" 
d="M239 880l-88 -120h-108l54 120h142zM567 880l-88 -120h-108l54 120h142zM185 700v-358h-132v358h132zM513 210q0 -108 -59 -166t-164 -58q-110 0 -173.5 59.5t-63.5 164.5v36h132v-36q0 -47 26.5 -73.5t74.5 -26.5q46 0 70.5 26t24.5 74v490h132v-490z" />
    <glyph glyph-name="NULL" horiz-adv-x="600" 
 />
    <glyph glyph-name="i.loclTRK" horiz-adv-x="238" 
d="M182 0h-126v496h126v-496zM55.5 702q25.5 24 63.5 24t63.5 -24t25.5 -62t-25.5 -62t-63.5 -24t-63.5 24t-25.5 62t25.5 62z" />
    <glyph glyph-name="zero.lf" horiz-adv-x="596" 
d="M63.5 583.5q33.5 63.5 94 97t140.5 33.5t140.5 -33.5t94 -97t33.5 -151.5v-164q0 -135 -72.5 -208.5t-195.5 -73.5t-195.5 73.5t-72.5 208.5v164q0 88 33.5 151.5zM196.5 145q34.5 -41 101.5 -41q68 0 102 42t34 116v176q0 73 -37 115.5t-99 42.5q-63 0 -99.5 -43.5
t-36.5 -114.5v-176q0 -76 34.5 -117z" />
    <glyph glyph-name="one.lf" horiz-adv-x="438" 
d="M380 700v-700h-132v560h-12l-98 -176h-138l180 316h200z" />
    <glyph glyph-name="two.lf" horiz-adv-x="568" 
d="M63.5 601q35.5 56 95 84.5t132.5 28.5q69 0 126.5 -28.5t92 -81t34.5 -122.5q0 -99 -57 -154.5t-173 -84.5q-82 -21 -116 -43t-34 -68v-12h376v-120h-508v120q0 90 57.5 142.5t162.5 81.5q82 22 121 53t39 89q0 51 -32.5 80.5t-86.5 29.5q-58 0 -95.5 -33.5t-37.5 -98.5
v-22h-132v24q0 79 35.5 135z" />
    <glyph glyph-name="three.lf" horiz-adv-x="572" 
d="M534 584l-194 -158v-12h26q50 0 92 -22.5t67 -66.5t25 -105q0 -70 -33.5 -123t-93 -82t-137.5 -29q-82 0 -142.5 30.5t-93 84t-32.5 123.5v28h132v-24q0 -53 36 -88.5t100 -35.5q61 0 96.5 32.5t35.5 83.5q0 49 -31 74.5t-83 25.5h-122v118l173 142h-317v120h496v-116z
" />
    <glyph glyph-name="four.lf" horiz-adv-x="606" 
d="M486 700v-442h114v-120h-114v-138h-132v138h-348v116l274 446h206zM144 258h210v328h-12z" />
    <glyph glyph-name="five.lf" horiz-adv-x="568" 
d="M522 580h-344v-182h12q22 31 55.5 52.5t95.5 21.5q55 0 102.5 -27t76 -77.5t28.5 -118.5q0 -78 -32.5 -137.5t-91.5 -92.5t-136 -33q-78 0 -138.5 30t-94 85.5t-33.5 128.5v18h132v-10q0 -61 34 -97.5t96 -36.5q61 0 96.5 37.5t35.5 101.5q0 54 -30.5 85.5t-78.5 31.5
q-35 0 -56.5 -14t-31.5 -34h-173v388h476v-120z" />
    <glyph glyph-name="six.lf" horiz-adv-x="566" 
d="M512.5 103q-33.5 -55 -94 -85.5t-136.5 -30.5q-72 0 -129.5 29.5t-90 82.5t-32.5 120v245q0 80 34 136.5t93 85t135 28.5q73 0 129 -26.5t87.5 -76.5t31.5 -119h-134q0 47 -29.5 75.5t-84.5 28.5q-62 0 -96 -32t-34 -92v-80h12q47 66 150 66q63 0 113.5 -29.5t79.5 -81.5
t29 -117q0 -72 -33.5 -127zM196.5 321q-34.5 -34 -34.5 -91q0 -58 35 -91.5t91 -33.5q55 0 90.5 34.5t35.5 90.5q0 57 -34.5 91t-91.5 34t-91.5 -34z" />
    <glyph glyph-name="seven.lf" horiz-adv-x="528" 
d="M524 700v-116l-272 -584h-146l268 580h-370v120h520z" />
    <glyph glyph-name="eight.lf" horiz-adv-x="568" 
d="M64 621.5q32 43.5 89 68t131 24.5t131 -24.5t89 -68t32 -98.5q0 -109 -112 -156v-12q49 -14 85.5 -57.5t36.5 -108.5q0 -60 -33.5 -106t-93 -71.5t-135.5 -25.5t-135.5 25.5t-93 71.5t-33.5 106q0 65 36.5 108.5t85.5 57.5v12q-112 47 -112 156q0 55 32 98.5zM197 442
q33 -24 87 -24t87 24t33 65t-33 65t-87 24t-87 -24t-33 -65t33 -65zM188 131q34 -27 96 -27t96 27t34 71t-34 71t-96 27t-96 -27t-34 -71t34 -71z" />
    <glyph glyph-name="nine.lf" horiz-adv-x="568" 
d="M55.5 598q33.5 55 94 85.5t136.5 30.5q72 0 129.5 -29.5t90 -82.5t32.5 -120v-245q0 -80 -34 -136.5t-93 -85t-135 -28.5q-73 0 -129 26.5t-87.5 76.5t-31.5 119h134q0 -46 29.5 -75t84.5 -29q62 0 96 32t34 92v80h-12q-47 -66 -150 -66q-63 0 -113.5 29.5t-79.5 81.5
t-29 117q0 72 33.5 127zM371.5 380q34.5 34 34.5 91q0 58 -35 91.5t-91 33.5q-55 0 -90.5 -34.5t-35.5 -90.5q0 -57 34.5 -91t91.5 -34t91.5 34z" />
    <glyph glyph-name="gravecomb.case" horiz-adv-x="0" 
d="M-40 760h-108l-88 120h142z" />
    <glyph glyph-name="acutecomb.case" horiz-adv-x="0" 
d="M-40 880l-88 -120h-108l54 120h142z" />
    <glyph glyph-name="uni0302.case" horiz-adv-x="0" 
d="M-206 820h-12l-43 -60h-123l94 120h156l94 -120h-123z" />
    <glyph glyph-name="tildecomb.case" horiz-adv-x="0" 
d="M-346 900.5q20 10.5 44 10.5q44 0 78 -38q2 -2 8.5 -9.5t13.5 -11t16 -3.5q13 0 21.5 5.5t17.5 18.5l30 38l77 -61l-56 -72q-18 -23 -37.5 -33.5t-44.5 -10.5q-44 0 -78 38q-2 2 -8.5 9.5t-13.5 11t-16 3.5q-13 0 -21.5 -5.5t-17.5 -18.5l-30 -38l-77 61l56 72
q18 23 38 33.5z" />
    <glyph glyph-name="uni0304.case" horiz-adv-x="0" 
d="M-40 760h-294v102h294v-102z" />
    <glyph glyph-name="uni0306.case" horiz-adv-x="0" 
d="M-40 872q0 -56 -36 -89t-96 -33t-96 33t-36 89v8h90v-2q0 -18 10.5 -29t31.5 -11q20 0 31 11t11 29v2h90v-8z" />
    <glyph glyph-name="uni0307.case" horiz-adv-x="0" 
d="M-192.5 884q25.5 24 63.5 24t63.5 -24t25.5 -62t-25.5 -62t-63.5 -24t-63.5 24t-25.5 62t25.5 62z" />
    <glyph glyph-name="uni0308.case" horiz-adv-x="0" 
d="M-408.5 884q25.5 24 63.5 24t63.5 -24t25.5 -62t-25.5 -62t-63.5 -24t-63.5 24t-25.5 62t25.5 62zM-192.5 884q25.5 24 63.5 24t63.5 -24t25.5 -62t-25.5 -62t-63.5 -24t-63.5 24t-25.5 62t25.5 62z" />
    <glyph glyph-name="uni030A.case" horiz-adv-x="0" 
d="M-225 914q31 30 77 30t77 -29.5t31 -74.5q0 -46 -32 -75t-76 -29q-45 0 -76.5 30t-31.5 74t31 74zM-169.5 818.5q8.5 -8.5 21.5 -8.5t21.5 8.5t8.5 21.5t-8.5 21.5t-21.5 8.5t-21.5 -8.5t-8.5 -21.5t8.5 -21.5z" />
    <glyph glyph-name="uni030B.case" horiz-adv-x="0" 
d="M-206 880l-88 -120h-104l54 120h138zM-40 880l-87 -120h-104l53 120h138z" />
    <glyph glyph-name="uni030C.case" horiz-adv-x="0" 
d="M-40 884l-94 -120h-156l-94 120h123l43 -60h12l43 60h123z" />
    <glyph glyph-name="zero.zero" horiz-adv-x="596" 
d="M438.5 680.5q60.5 -33.5 94 -97t33.5 -151.5v-164q0 -135 -72.5 -208.5t-195.5 -73.5t-195.5 73.5t-72.5 208.5v164q0 88 33.5 151.5t94 97t140.5 33.5t140.5 -33.5zM198.5 552.5q-36.5 -43.5 -36.5 -114.5v-128l265 186q-13 47 -46.5 73.5t-82.5 26.5q-63 0 -99.5 -43.5
zM400 146q34 42 34 116v128l-266 -187q12 -48 45 -73.5t85 -25.5q68 0 102 42z" />
    <glyph glyph-name="zero.dnom" horiz-adv-x="360" 
d="M62.5 320q42.5 42 117.5 42q74 0 117 -42.5t43 -115.5v-59q0 -74 -42 -115.5t-118 -41.5t-118 41.5t-42 115.5v59q0 74 42.5 116zM135.5 90q15.5 -18 44.5 -18t44.5 18t15.5 49v72q0 31 -15.5 49t-44.5 18t-44.5 -18t-15.5 -49v-72q0 -31 15.5 -49z" />
    <glyph glyph-name="one.dnom" horiz-adv-x="250" 
d="M220 350v-350h-100v246h-10l-18 -52h-88v10l65 146h151z" />
    <glyph glyph-name="two.dnom" horiz-adv-x="348" 
d="M286 329q42 -33 42 -88q0 -53 -34.5 -80t-104.5 -42q-36 -7 -53 -15.5t-18 -23.5h208v-80h-308v44q0 60 31.5 94t99.5 50q43 10 61 22t18 32q0 19 -14 29.5t-36 10.5q-25 0 -41.5 -14t-16.5 -40h-98q1 64 44.5 99t112.5 35q65 0 107 -33z" />
    <glyph glyph-name="three.dnom" horiz-adv-x="348" 
d="M328 282l-102 -61v-10q45 -2 74.5 -27t29.5 -71q0 -54 -44 -89.5t-111 -35.5q-71 0 -114.5 35.5t-46.5 99.5h98q2 -23 18.5 -38t41.5 -15q26 0 42 14t16 33q0 43 -58 43h-66v62l82 48h-168v80h308v-68z" />
    <glyph glyph-name="four.dnom" horiz-adv-x="372" 
d="M310 350v-203h60v-76h-60v-71h-100v71h-200v70l138 209h162zM114 147h96v131h-9z" />
    <glyph glyph-name="five.dnom" horiz-adv-x="352" 
d="M324 270h-196v-61h10q17 11 33.5 17t46.5 6q50 0 84 -30.5t34 -80.5v-7q0 -35 -19.5 -64t-55.5 -45.5t-83 -16.5q-65 0 -107 33t-53 91h98q6 -20 21.5 -32t40.5 -12q26 0 42 13t16 34t-13.5 32.5t-33.5 11.5q-16 0 -25.5 -5t-18.5 -13h-115v209h294v-80z" />
    <glyph glyph-name="six.dnom" horiz-adv-x="354" 
d="M65.5 324q45.5 38 114.5 38q63 0 104 -31t46 -81h-98q-8 32 -51 32q-28 0 -44.5 -15t-16.5 -39v-29h10q31 25 75 25q56 0 94.5 -28.5t38.5 -81.5q0 -57 -44.5 -91.5t-114.5 -34.5t-114.5 36t-44.5 93v109q0 60 45.5 98zM136 79q16 -13 43 -13t43 13t16 34q0 20 -16 32.5
t-43 12.5t-43 -12.5t-16 -32.5q0 -21 16 -34z" />
    <glyph glyph-name="seven.dnom" horiz-adv-x="314" 
d="M312 350v-76l-139 -274h-108l139 270h-202v80h310z" />
    <glyph glyph-name="eight.dnom" horiz-adv-x="352" 
d="M65 334.5q43 27.5 111 27.5t111 -27.5t43 -70.5v-3q0 -31 -17.5 -48.5t-39.5 -25.5v-10q22 -5 42.5 -26.5t20.5 -57.5v-2q0 -45 -43.5 -74t-116.5 -29t-116.5 29t-43.5 74v2q0 38 20 58.5t43 25.5v10q-22 8 -39.5 25.5t-17.5 48.5v3q0 43 43 70.5zM136.5 227.5
q14.5 -9.5 39.5 -9.5t39.5 9.5t14.5 24.5t-14.5 23.5t-39.5 8.5t-39.5 -8.5t-14.5 -23.5t14.5 -24.5zM132 76q16 -10 44 -10t44 10t16 28t-16 28t-44 10t-44 -10t-16 -28t16 -28z" />
    <glyph glyph-name="nine.dnom" horiz-adv-x="354" 
d="M289.5 26q-44.5 -38 -112.5 -38q-60 0 -102.5 30t-54.5 78h104q10 -28 54 -28q26 0 41 15t15 39v29h-10q-31 -25 -75 -25q-56 0 -94.5 28.5t-38.5 81.5q0 57 44.5 91.5t114.5 34.5t114.5 -36t44.5 -93v-109q0 -60 -44.5 -98zM218 271q-16 13 -43 13t-43 -13t-16 -34
q0 -20 16 -32.5t43 -12.5t43 12.5t16 32.5q0 21 -16 34z" />
    <glyph glyph-name="zero.numr" horiz-adv-x="360" 
d="M62.5 670q42.5 42 117.5 42q74 0 117 -42.5t43 -115.5v-59q0 -74 -42 -115.5t-118 -41.5t-118 41.5t-42 115.5v59q0 74 42.5 116zM135.5 440q15.5 -18 44.5 -18t44.5 18t15.5 49v72q0 31 -15.5 49t-44.5 18t-44.5 -18t-15.5 -49v-72q0 -31 15.5 -49z" />
    <glyph glyph-name="one.numr" horiz-adv-x="250" 
d="M220 700v-350h-100v246h-10l-18 -52h-88v10l65 146h151z" />
    <glyph glyph-name="two.numr" horiz-adv-x="348" 
d="M286 679q42 -33 42 -88q0 -53 -34.5 -80t-104.5 -42q-36 -7 -53 -15.5t-18 -23.5h208v-80h-308v44q0 60 31.5 94t99.5 50q43 10 61 22t18 32q0 19 -14 29.5t-36 10.5q-25 0 -41.5 -14t-16.5 -40h-98q1 64 44.5 99t112.5 35q65 0 107 -33z" />
    <glyph glyph-name="three.numr" horiz-adv-x="348" 
d="M328 632l-102 -61v-10q45 -2 74.5 -27t29.5 -71q0 -54 -44 -89.5t-111 -35.5q-71 0 -114.5 35.5t-46.5 99.5h98q2 -23 18.5 -38t41.5 -15q26 0 42 14t16 33q0 43 -58 43h-66v62l82 48h-168v80h308v-68z" />
    <glyph glyph-name="four.numr" horiz-adv-x="372" 
d="M310 700v-203h60v-76h-60v-71h-100v71h-200v70l138 209h162zM114 497h96v131h-9z" />
    <glyph glyph-name="five.numr" horiz-adv-x="352" 
d="M324 620h-196v-61h10q17 11 33.5 17t46.5 6q50 0 84 -30.5t34 -80.5v-7q0 -35 -19.5 -64t-55.5 -45.5t-83 -16.5q-65 0 -107 33t-53 91h98q6 -20 21.5 -32t40.5 -12q26 0 42 13t16 34t-13.5 32.5t-33.5 11.5q-16 0 -25.5 -5t-18.5 -13h-115v209h294v-80z" />
    <glyph glyph-name="six.numr" horiz-adv-x="354" 
d="M65.5 674q45.5 38 114.5 38q63 0 104 -31t46 -81h-98q-8 32 -51 32q-28 0 -44.5 -15t-16.5 -39v-29h10q31 25 75 25q56 0 94.5 -28.5t38.5 -81.5q0 -57 -44.5 -91.5t-114.5 -34.5t-114.5 36t-44.5 93v109q0 60 45.5 98zM136 429q16 -13 43 -13t43 13t16 34q0 20 -16 32.5
t-43 12.5t-43 -12.5t-16 -32.5q0 -21 16 -34z" />
    <glyph glyph-name="seven.numr" horiz-adv-x="314" 
d="M312 700v-76l-139 -274h-108l139 270h-202v80h310z" />
    <glyph glyph-name="eight.numr" horiz-adv-x="352" 
d="M65 684.5q43 27.5 111 27.5t111 -27.5t43 -70.5v-3q0 -31 -17.5 -48.5t-39.5 -25.5v-10q22 -5 42.5 -26.5t20.5 -57.5v-2q0 -45 -43.5 -74t-116.5 -29t-116.5 29t-43.5 74v2q0 38 20 58.5t43 25.5v10q-22 8 -39.5 25.5t-17.5 48.5v3q0 43 43 70.5zM136.5 577.5
q14.5 -9.5 39.5 -9.5t39.5 9.5t14.5 24.5t-14.5 23.5t-39.5 8.5t-39.5 -8.5t-14.5 -23.5t14.5 -24.5zM132 426q16 -10 44 -10t44 10t16 28t-16 28t-44 10t-44 -10t-16 -28t16 -28z" />
    <glyph glyph-name="nine.numr" horiz-adv-x="380" 
d="M304.5 376q-44.5 -38 -112.5 -38q-60 0 -102.5 30t-54.5 78h104q10 -28 54 -28q26 0 41 15t15 39v29h-10q-31 -25 -75 -25q-56 0 -94.5 28.5t-38.5 81.5q0 57 44.5 91.5t114.5 34.5t114.5 -36t44.5 -93v-109q0 -60 -44.5 -98zM233 621q-16 13 -43 13t-43 -13t-16 -34
q0 -20 16 -32.5t43 -12.5t43 12.5t16 32.5q0 21 -16 34z" />
    <glyph glyph-name="zero.subs" horiz-adv-x="360" 
d="M62.5 120q42.5 42 117.5 42q74 0 117 -42.5t43 -115.5v-59q0 -74 -42 -115.5t-118 -41.5t-118 41.5t-42 115.5v59q0 74 42.5 116zM135.5 -110q15.5 -18 44.5 -18t44.5 18t15.5 49v72q0 31 -15.5 49t-44.5 18t-44.5 -18t-15.5 -49v-72q0 -31 15.5 -49z" />
    <glyph glyph-name="one.subs" horiz-adv-x="250" 
d="M220 150v-350h-100v246h-10l-18 -52h-88v10l65 146h151z" />
    <glyph glyph-name="two.subs" horiz-adv-x="348" 
d="M286 129q42 -33 42 -88q0 -53 -34.5 -80t-104.5 -42q-36 -7 -53 -15.5t-18 -23.5h208v-80h-308v44q0 60 31.5 94t99.5 50q43 10 61 22t18 32q0 19 -14 29.5t-36 10.5q-25 0 -41.5 -14t-16.5 -40h-98q1 64 44.5 99t112.5 35q65 0 107 -33z" />
    <glyph glyph-name="three.subs" horiz-adv-x="348" 
d="M328 82l-102 -61v-10q45 -2 74.5 -27t29.5 -71q0 -54 -44 -89.5t-111 -35.5q-71 0 -114.5 35.5t-46.5 99.5h98q2 -23 18.5 -38t41.5 -15q26 0 42 14t16 33q0 43 -58 43h-66v62l82 48h-168v80h308v-68z" />
    <glyph glyph-name="four.subs" horiz-adv-x="372" 
d="M310 150v-203h60v-76h-60v-71h-100v71h-200v70l138 209h162zM114 -53h96v131h-9z" />
    <glyph glyph-name="five.subs" horiz-adv-x="352" 
d="M324 70h-196v-61h10q17 11 33.5 17t46.5 6q50 0 84 -30.5t34 -80.5v-7q0 -35 -19.5 -64t-55.5 -45.5t-83 -16.5q-65 0 -107 33t-53 91h98q6 -20 21.5 -32t40.5 -12q26 0 42 13t16 34t-13.5 32.5t-33.5 11.5q-16 0 -25.5 -5t-18.5 -13h-115v209h294v-80z" />
    <glyph glyph-name="six.subs" horiz-adv-x="354" 
d="M65.5 124q45.5 38 114.5 38q63 0 104 -31t46 -81h-98q-8 32 -51 32q-28 0 -44.5 -15t-16.5 -39v-29h10q31 25 75 25q56 0 94.5 -28.5t38.5 -81.5q0 -57 -44.5 -91.5t-114.5 -34.5t-114.5 36t-44.5 93v109q0 60 45.5 98zM136 -121q16 -13 43 -13t43 13t16 34
q0 20 -16 32.5t-43 12.5t-43 -12.5t-16 -32.5q0 -21 16 -34z" />
    <glyph glyph-name="seven.subs" horiz-adv-x="314" 
d="M312 150v-76l-139 -274h-108l139 270h-202v80h310z" />
    <glyph glyph-name="eight.subs" horiz-adv-x="352" 
d="M65 134.5q43 27.5 111 27.5t111 -27.5t43 -70.5v-3q0 -31 -17.5 -48.5t-39.5 -25.5v-10q22 -5 42.5 -26.5t20.5 -57.5v-2q0 -45 -43.5 -74t-116.5 -29t-116.5 29t-43.5 74v2q0 38 20 58.5t43 25.5v10q-22 8 -39.5 25.5t-17.5 48.5v3q0 43 43 70.5zM136.5 27.5
q14.5 -9.5 39.5 -9.5t39.5 9.5t14.5 24.5t-14.5 23.5t-39.5 8.5t-39.5 -8.5t-14.5 -23.5t14.5 -24.5zM132 -124q16 -10 44 -10t44 10t16 28t-16 28t-44 10t-44 -10t-16 -28t16 -28z" />
    <glyph glyph-name="nine.subs" horiz-adv-x="354" 
d="M289.5 -174q-44.5 -38 -112.5 -38q-60 0 -102.5 30t-54.5 78h104q10 -28 54 -28q26 0 41 15t15 39v29h-10q-31 -25 -75 -25q-56 0 -94.5 28.5t-38.5 81.5q0 57 44.5 91.5t114.5 34.5t114.5 -36t44.5 -93v-109q0 -60 -44.5 -98zM218 71q-16 13 -43 13t-43 -13t-16 -34
q0 -20 16 -32.5t43 -12.5t43 12.5t16 32.5q0 21 -16 34z" />
    <glyph glyph-name="at.case" horiz-adv-x="1020" 
d="M131.5 721q55.5 55 152.5 55h472q92 0 140 -47.5t48 -138.5v-386q0 -41 -25 -66.5t-67 -25.5h-158q-34 0 -55.5 19.5t-21.5 50.5v2h-18q-31 -86 -124 -86q-61 0 -107 33t-71 88t-25 121v16q0 66 24 121.5t68 88t101 32.5q51 0 78.5 -19.5t46.5 -54.5h18v60h122v-330
q0 -30 27 -30h36q27 0 27 30v336q0 35 -18.5 53.5t-53.5 18.5h-436q-112 0 -112 -112v-400q0 -112 112 -112h622v-114h-650q-97 0 -152.5 55.5t-55.5 152.5v436q0 98 55.5 153zM424.5 447q-28.5 -35 -28.5 -93v-12q0 -58 28.5 -93t76.5 -35t77.5 35.5t29.5 92.5v12
q0 57 -29.5 92.5t-77.5 35.5t-76.5 -35z" />
    <glyph glyph-name="hyphen.case" horiz-adv-x="460" 
d="M82 412h296v-114h-296v114z" />
    <glyph glyph-name="endash.case" horiz-adv-x="612" 
d="M82 412h448v-114h-448v114z" />
    <glyph glyph-name="emdash.case" horiz-adv-x="916" 
d="M82 412h752v-114h-752v114z" />
    <glyph glyph-name="slash.case" horiz-adv-x="476" 
d="M434 737l-260 -778h-132l260 778h132z" />
    <glyph glyph-name="backslash.case" horiz-adv-x="476" 
d="M434 -41h-132l-260 778h132z" />
    <glyph glyph-name="parenright.case" horiz-adv-x="422" 
d="M234.5 -83q-77.5 -73 -214.5 -73v120q83 2 122.5 48.5t39.5 141.5v388q0 95 -39.5 141.5t-122.5 48.5v120q137 0 214.5 -73t77.5 -225v-412q0 -152 -77.5 -225z" />
    <glyph glyph-name="bracketleft.case" horiz-adv-x="358" 
d="M138.5 821.5q28.5 28.5 73.5 28.5h126v-120h-71q-27 0 -27 -30v-704q0 -30 27 -30h71v-120h-126q-45 0 -73.5 28.5t-28.5 73.5v800q0 45 28.5 73.5z" />
    <glyph glyph-name="bracketright.case" horiz-adv-x="358" 
d="M219.5 -125.5q-28.5 -28.5 -73.5 -28.5h-126v120h71q27 0 27 30v704q0 30 -27 30h-71v120h126q45 0 73.5 -28.5t28.5 -73.5v-800q0 -45 -28.5 -73.5z" />
    <glyph glyph-name="braceleft.case" horiz-adv-x="404" 
d="M156 445v303q0 45 28.5 73.5t73.5 28.5h126v-120h-71q-27 0 -27 -30v-265q0 -34 -21.5 -57t-56.5 -23h-16v-14h16q35 0 56.5 -23t21.5 -57v-265q0 -30 27 -30h71v-120h-126q-45 0 -73.5 28.5t-28.5 73.5v303q0 29 -27 29h-69v136h69q27 0 27 29z" />
    <glyph glyph-name="braceright.case" horiz-adv-x="404" 
d="M275 280q-27 0 -27 -29v-303q0 -45 -28.5 -73.5t-73.5 -28.5h-126v120h71q27 0 27 30v265q0 34 21.5 57t56.5 23h16v14h-16q-35 0 -56.5 23t-21.5 57v265q0 30 -27 30h-71v120h126q45 0 73.5 -28.5t28.5 -73.5v-303q0 -29 27 -29h69v-136h-69z" />
    <glyph glyph-name="guilsinglleft.case" horiz-adv-x="480" 
d="M412 580h6v-136l-234 -97v-18l234 -97v-136h-6l-354 170v144z" />
    <glyph glyph-name="guilsinglright.case" horiz-adv-x="480" 
d="M422 266l-354 -170h-6v136l234 97v18l-234 97v136h6l354 -170v-144z" />
    <glyph glyph-name="zero.sups" horiz-adv-x="360" 
d="M62.5 670q42.5 42 117.5 42q74 0 117 -42.5t43 -115.5v-59q0 -74 -42 -115.5t-118 -41.5t-118 41.5t-42 115.5v59q0 74 42.5 116zM135.5 440q15.5 -18 44.5 -18t44.5 18t15.5 49v72q0 31 -15.5 49t-44.5 18t-44.5 -18t-15.5 -49v-72q0 -31 15.5 -49z" />
    <glyph glyph-name="one.sups" horiz-adv-x="250" 
d="M220 700v-350h-100v246h-10l-18 -52h-88v10l65 146h151z" />
    <glyph glyph-name="two.sups" horiz-adv-x="348" 
d="M286 679q42 -33 42 -88q0 -53 -34.5 -80t-104.5 -42q-36 -7 -53 -15.5t-18 -23.5h208v-80h-308v44q0 60 31.5 94t99.5 50q43 10 61 22t18 32q0 19 -14 29.5t-36 10.5q-25 0 -41.5 -14t-16.5 -40h-98q1 64 44.5 99t112.5 35q65 0 107 -33z" />
    <glyph glyph-name="three.sups" horiz-adv-x="348" 
d="M328 632l-102 -61v-10q45 -2 74.5 -27t29.5 -71q0 -54 -44 -89.5t-111 -35.5q-71 0 -114.5 35.5t-46.5 99.5h98q2 -23 18.5 -38t41.5 -15q26 0 42 14t16 33q0 43 -58 43h-66v62l82 48h-168v80h308v-68z" />
    <glyph glyph-name="four.sups" horiz-adv-x="372" 
d="M310 700v-203h60v-76h-60v-71h-100v71h-200v70l138 209h162zM114 497h96v131h-9z" />
    <glyph glyph-name="five.sups" horiz-adv-x="352" 
d="M324 620h-196v-61h10q17 11 33.5 17t46.5 6q50 0 84 -30.5t34 -80.5v-7q0 -35 -19.5 -64t-55.5 -45.5t-83 -16.5q-65 0 -107 33t-53 91h98q6 -20 21.5 -32t40.5 -12q26 0 42 13t16 34t-13.5 32.5t-33.5 11.5q-16 0 -25.5 -5t-18.5 -13h-115v209h294v-80z" />
    <glyph glyph-name="six.sups" horiz-adv-x="354" 
d="M65.5 674q45.5 38 114.5 38q63 0 104 -31t46 -81h-98q-8 32 -51 32q-28 0 -44.5 -15t-16.5 -39v-29h10q31 25 75 25q56 0 94.5 -28.5t38.5 -81.5q0 -57 -44.5 -91.5t-114.5 -34.5t-114.5 36t-44.5 93v109q0 60 45.5 98zM136 429q16 -13 43 -13t43 13t16 34q0 20 -16 32.5
t-43 12.5t-43 -12.5t-16 -32.5q0 -21 16 -34z" />
    <glyph glyph-name="seven.sups" horiz-adv-x="314" 
d="M312 700v-76l-139 -274h-108l139 270h-202v80h310z" />
    <glyph glyph-name="eight.sups" horiz-adv-x="352" 
d="M65 684.5q43 27.5 111 27.5t111 -27.5t43 -70.5v-3q0 -31 -17.5 -48.5t-39.5 -25.5v-10q22 -5 42.5 -26.5t20.5 -57.5v-2q0 -45 -43.5 -74t-116.5 -29t-116.5 29t-43.5 74v2q0 38 20 58.5t43 25.5v10q-22 8 -39.5 25.5t-17.5 48.5v3q0 43 43 70.5zM136.5 577.5
q14.5 -9.5 39.5 -9.5t39.5 9.5t14.5 24.5t-14.5 23.5t-39.5 8.5t-39.5 -8.5t-14.5 -23.5t14.5 -24.5zM132 426q16 -10 44 -10t44 10t16 28t-16 28t-44 10t-44 -10t-16 -28t16 -28z" />
    <glyph glyph-name="nine.sups" horiz-adv-x="380" 
d="M304.5 376q-44.5 -38 -112.5 -38q-60 0 -102.5 30t-54.5 78h104q10 -28 54 -28q26 0 41 15t15 39v29h-10q-31 -25 -75 -25q-56 0 -94.5 28.5t-38.5 81.5q0 57 44.5 91.5t114.5 34.5t114.5 -36t44.5 -93v-109q0 -60 -44.5 -98zM233 621q-16 13 -43 13t-43 -13t-16 -34
q0 -20 16 -32.5t43 -12.5t43 12.5t16 32.5q0 21 -16 34z" />
    <glyph glyph-name="A.ss03" horiz-adv-x="604" 
d="M425 700l175 -700h-136l-36 154h-252l-36 -154h-136l175 700h246zM399 276l-91 384h-12l-91 -384h194z" />
    <glyph glyph-name="Aacute.ss03" horiz-adv-x="604" 
d="M425 700l175 -700h-136l-36 154h-252l-36 -154h-136l175 700h246zM399 276l-91 384h-12l-91 -384h194zM422 880l-88 -120h-108l54 120h142z" />
    <glyph glyph-name="Abreve.ss03" horiz-adv-x="604" 
d="M425 700l175 -700h-136l-36 154h-252l-36 -154h-136l175 700h246zM399 276l-91 384h-12l-91 -384h194zM434 872q0 -56 -36 -89t-96 -33t-96 33t-36 89v8h90v-2q0 -18 10.5 -29t31.5 -11q20 0 31 11t11 29v2h90v-8z" />
    <glyph glyph-name="Acircumflex.ss03" horiz-adv-x="604" 
d="M425 700l175 -700h-136l-36 154h-252l-36 -154h-136l175 700h246zM399 276l-91 384h-12l-91 -384h194zM308 820h-12l-43 -60h-123l94 120h156l94 -120h-123z" />
    <glyph glyph-name="Adieresis.ss03" horiz-adv-x="604" 
d="M425 700l175 -700h-136l-36 154h-252l-36 -154h-136l175 700h246zM399 276l-91 384h-12l-91 -384h194zM130.5 884q25.5 24 63.5 24t63.5 -24t25.5 -62t-25.5 -62t-63.5 -24t-63.5 24t-25.5 62t25.5 62zM346.5 884q25.5 24 63.5 24t63.5 -24t25.5 -62t-25.5 -62t-63.5 -24
t-63.5 24t-25.5 62t25.5 62z" />
    <glyph glyph-name="Agrave.ss03" horiz-adv-x="604" 
d="M425 700l175 -700h-136l-36 154h-252l-36 -154h-136l175 700h246zM399 276l-91 384h-12l-91 -384h194zM378 760h-108l-88 120h142z" />
    <glyph glyph-name="Amacron.ss03" horiz-adv-x="604" 
d="M425 700l175 -700h-136l-36 154h-252l-36 -154h-136l175 700h246zM399 276l-91 384h-12l-91 -384h194zM449 760h-294v102h294v-102z" />
    <glyph glyph-name="Aogonek.ss03" horiz-adv-x="604" 
d="M639 -86v-84h-80q-32 0 -56 20t-24 55q0 9 3 23l16 72h-34l-36 154h-252l-36 -154h-136l175 700h246l175 -700h-16l-13 -56q-1 -3 -1 -8q0 -22 23 -22h46zM205 276h194l-91 384h-12z" />
    <glyph glyph-name="Aring.ss03" horiz-adv-x="604" 
d="M425 700l175 -700h-136l-36 154h-252l-36 -154h-136l175 700h246zM399 276l-91 384h-12l-91 -384h194zM225 914q31 30 77 30t77 -29.5t31 -74.5q0 -46 -32 -75t-76 -29q-45 0 -76.5 30t-31.5 74t31 74zM280.5 818.5q8.5 -8.5 21.5 -8.5t21.5 8.5t8.5 21.5t-8.5 21.5
t-21.5 8.5t-21.5 -8.5t-8.5 -21.5t8.5 -21.5z" />
    <glyph glyph-name="Aringacute.ss03" horiz-adv-x="604" 
d="M225.5 766q-31.5 30 -31.5 74q0 43 28.5 72t72.5 32l25 56h142l-72 -98q20 -26 20 -62q0 -46 -32 -75t-76 -29q-45 0 -76.5 30zM323.5 818.5q8.5 8.5 8.5 21.5t-8.5 21.5t-21.5 8.5t-21.5 -8.5t-8.5 -21.5t8.5 -21.5t21.5 -8.5t21.5 8.5zM425 700l175 -700h-136l-36 154
h-252l-36 -154h-136l175 700h246zM205 276h194l-91 384h-12z" />
    <glyph glyph-name="Atilde.ss03" horiz-adv-x="604" 
d="M425 700l175 -700h-136l-36 154h-252l-36 -154h-136l175 700h246zM399 276l-91 384h-12l-91 -384h194zM196 900.5q20 10.5 44 10.5q44 0 78 -38q2 -2 8.5 -9.5t13.5 -11t16 -3.5q13 0 21.5 5.5t17.5 18.5l30 38l77 -61l-56 -72q-18 -23 -37.5 -33.5t-44.5 -10.5
q-44 0 -78 38q-2 2 -8.5 9.5t-13.5 11t-16 3.5q-13 0 -21.5 -5.5t-17.5 -18.5l-30 -38l-77 61l56 72q18 23 38 33.5z" />
    <glyph glyph-name="AE.ss03" horiz-adv-x="548" 
d="M398 120h122v-120h-254v156h-102l-28 -156h-134l137 700h375v-120h-116v-169h90v-120h-90v-171zM266 276v384h-12l-69 -384h81z" />
    <glyph glyph-name="AEacute.ss03" horiz-adv-x="548" 
d="M398 120h122v-120h-254v156h-102l-28 -156h-134l137 700h375v-120h-116v-169h90v-120h-90v-171zM266 276v384h-12l-69 -384h81zM436 880l-88 -120h-108l54 120h142z" />
    <glyph glyph-name="M.ss03" horiz-adv-x="880" 
d="M310 700l124 -660h12l124 660h252v-700h-128v660h-12l-124 -660h-236l-124 660h-12v-660h-128v700h252z" />
    <glyph glyph-name="N.ss03" horiz-adv-x="654" 
d="M318 700l134 -660h12v660h132v-700h-260l-134 660h-12v-660h-132v700h260z" />
    <glyph glyph-name="Nacute.ss03" horiz-adv-x="654" 
d="M318 700l134 -660h12v660h132v-700h-260l-134 660h-12v-660h-132v700h260zM446 880l-88 -120h-108l54 120h142z" />
    <glyph glyph-name="Ncaron.ss03" horiz-adv-x="654" 
d="M318 700l134 -660h12v660h132v-700h-260l-134 660h-12v-660h-132v700h260zM498 884l-94 -120h-156l-94 120h123l43 -60h12l43 60h123z" />
    <glyph glyph-name="uni0145.ss03" horiz-adv-x="654" 
d="M318 700l134 -660h12v660h132v-700h-260l-134 660h-12v-660h-132v700h260zM260 -77q27 27 68 27t68 -26.5t27 -67.5v-116q0 -38 -25.5 -64t-63.5 -26h-95v68h77q15 0 22 6.5t7 21.5v19q-8 -2 -19 -2q-39 0 -66 26t-27 65q0 42 27 69z" />
    <glyph glyph-name="Eng.ss03" horiz-adv-x="654" 
d="M596 700v-798q0 -50 -27 -76t-74 -26h-206v114h145q30 0 30 33v53h-124l-138 640h-12v-640h-132v700h256l138 -640h12v640h132z" />
    <glyph glyph-name="Ntilde.ss03" horiz-adv-x="654" 
d="M318 700l134 -660h12v660h132v-700h-260l-134 660h-12v-660h-132v700h260zM220 900.5q20 10.5 44 10.5q44 0 78 -38q2 -2 8.5 -9.5t13.5 -11t16 -3.5q13 0 21.5 5.5t17.5 18.5l30 38l77 -61l-56 -72q-18 -23 -37.5 -33.5t-44.5 -10.5q-44 0 -78 38q-2 2 -8.5 9.5
t-13.5 11t-16 3.5q-13 0 -21.5 -5.5t-17.5 -18.5l-30 -38l-77 61l56 72q18 23 38 33.5z" />
    <glyph glyph-name="V.ss03" horiz-adv-x="600" 
d="M140 700l154 -660h12l154 660h136l-173 -700h-246l-173 700h136z" />
    <glyph glyph-name="W.ss03" horiz-adv-x="896" 
d="M146 700l74 -660h12l97 660h238l97 -660h12l74 660h132l-91 -700h-240l-97 660h-12l-97 -660h-240l-91 700h132z" />
    <glyph glyph-name="Wacute.ss03" horiz-adv-x="896" 
d="M146 700l74 -660h12l97 660h238l97 -660h12l74 660h132l-91 -700h-240l-97 660h-12l-97 -660h-240l-91 700h132zM568 880l-88 -120h-108l54 120h142z" />
    <glyph glyph-name="Wcircumflex.ss03" horiz-adv-x="896" 
d="M146 700l74 -660h12l97 660h238l97 -660h12l74 660h132l-91 -700h-240l-97 660h-12l-97 -660h-240l-91 700h132zM454 820h-12l-43 -60h-123l94 120h156l94 -120h-123z" />
    <glyph glyph-name="Wdieresis.ss03" horiz-adv-x="896" 
d="M146 700l74 -660h12l97 660h238l97 -660h12l74 660h132l-91 -700h-240l-97 660h-12l-97 -660h-240l-91 700h132zM276.5 884q25.5 24 63.5 24t63.5 -24t25.5 -62t-25.5 -62t-63.5 -24t-63.5 24t-25.5 62t25.5 62zM492.5 884q25.5 24 63.5 24t63.5 -24t25.5 -62t-25.5 -62
t-63.5 -24t-63.5 24t-25.5 62t25.5 62z" />
    <glyph glyph-name="Wgrave.ss03" horiz-adv-x="896" 
d="M146 700l74 -660h12l97 660h238l97 -660h12l74 660h132l-91 -700h-240l-97 660h-12l-97 -660h-240l-91 700h132zM524 760h-108l-88 120h142z" />
    <glyph glyph-name="I.ss04" horiz-adv-x="420" 
d="M390 700v-116h-114v-468h114v-116h-360v116h114v468h-114v116h360z" />
    <glyph glyph-name="IJ.ss04" horiz-adv-x="697" 
d="M322 700v-120h-80v-238h-132v238h-80v120h292zM682 580h-80v-370q0 -108 -63 -166t-176 -58q-118 0 -185.5 59.5t-67.5 164.5v50h132v-50q0 -47 30.5 -73.5t86.5 -26.5q53 0 82 26t29 74v370h-80v120h292v-120z" />
    <glyph glyph-name="Iacute.ss04" horiz-adv-x="420" 
d="M390 700v-116h-114v-468h114v-116h-360v116h114v468h-114v116h360zM330 880l-88 -120h-108l54 120h142z" />
    <glyph glyph-name="Icircumflex.ss04" horiz-adv-x="420" 
d="M390 700v-116h-114v-468h114v-116h-360v116h114v468h-114v116h360zM216 820h-12l-43 -60h-123l94 120h156l94 -120h-123z" />
    <glyph glyph-name="Idieresis.ss04" horiz-adv-x="420" 
d="M390 700v-116h-114v-468h114v-116h-360v116h114v468h-114v116h360zM38.5 884q25.5 24 63.5 24t63.5 -24t25.5 -62t-25.5 -62t-63.5 -24t-63.5 24t-25.5 62t25.5 62zM254.5 884q25.5 24 63.5 24t63.5 -24t25.5 -62t-25.5 -62t-63.5 -24t-63.5 24t-25.5 62t25.5 62z" />
    <glyph glyph-name="Idotaccent.ss04" horiz-adv-x="420" 
d="M390 700v-116h-114v-468h114v-116h-360v116h114v468h-114v116h360zM146.5 884q25.5 24 63.5 24t63.5 -24t25.5 -62t-25.5 -62t-63.5 -24t-63.5 24t-25.5 62t25.5 62z" />
    <glyph glyph-name="Igrave.ss04" horiz-adv-x="420" 
d="M390 700v-116h-114v-468h114v-116h-360v116h114v468h-114v116h360zM286 760h-108l-88 120h142z" />
    <glyph glyph-name="Imacron.ss04" horiz-adv-x="420" 
d="M390 700v-116h-114v-468h114v-116h-360v116h114v468h-114v116h360zM357 760h-294v102h294v-102z" />
    <glyph glyph-name="Iogonek.ss04" horiz-adv-x="420" 
d="M276 584v-468h114v-116h-139l-13 -56q-1 -3 -1 -8q0 -22 23 -22h46v-84h-80q-32 0 -56 20t-24 55q0 9 3 23l16 72h-135v116h114v468h-114v116h360v-116h-114z" />
    <glyph glyph-name="J.ss04" horiz-adv-x="577" 
d="M562 584h-80v-374q0 -108 -58.5 -166t-162.5 -58q-109 0 -172 59.5t-63 164.5v66h132v-66q0 -47 26 -73.5t73 -26.5q44 0 68.5 26t24.5 74v374h-128v116h340v-116z" />
    <glyph glyph-name="R.ss05" horiz-adv-x="616" 
d="M476.5 675q49.5 -25 76.5 -70t27 -104q0 -61 -29 -101.5t-79 -62.5v-10q41 -2 64.5 -27.5t23.5 -67.5v-232h-132v210q0 54 -54 54h-184v-264h-132v700h304q65 0 114.5 -25zM348 384q47 0 73.5 27t26.5 71t-26.5 71t-73.5 27h-158v-196h158z" />
    <glyph glyph-name="Racute.ss05" horiz-adv-x="616" 
d="M476.5 675q49.5 -25 76.5 -70t27 -104q0 -61 -29 -101.5t-79 -62.5v-10q41 -2 64.5 -27.5t23.5 -67.5v-232h-132v210q0 54 -54 54h-184v-264h-132v700h304q65 0 114.5 -25zM348 384q47 0 73.5 27t26.5 71t-26.5 71t-73.5 27h-158v-196h158zM417 880l-88 -120h-108l54 120
h142z" />
    <glyph glyph-name="Rcaron.ss05" horiz-adv-x="616" 
d="M476.5 675q49.5 -25 76.5 -70t27 -104q0 -61 -29 -101.5t-79 -62.5v-10q41 -2 64.5 -27.5t23.5 -67.5v-232h-132v210q0 54 -54 54h-184v-264h-132v700h304q65 0 114.5 -25zM348 384q47 0 73.5 27t26.5 71t-26.5 71t-73.5 27h-158v-196h158zM469 884l-94 -120h-156
l-94 120h123l43 -60h12l43 60h123z" />
    <glyph glyph-name="uni0156.ss05" horiz-adv-x="616" 
d="M476.5 675q49.5 -25 76.5 -70t27 -104q0 -61 -29 -101.5t-79 -62.5v-10q41 -2 64.5 -27.5t23.5 -67.5v-232h-132v210q0 54 -54 54h-184v-264h-132v700h304q65 0 114.5 -25zM348 384q47 0 73.5 27t26.5 71t-26.5 71t-73.5 27h-158v-196h158zM239 -77q27 27 68 27t68 -26.5
t27 -67.5v-116q0 -38 -25.5 -64t-63.5 -26h-95v68h77q15 0 22 6.5t7 21.5v19q-8 -2 -19 -2q-39 0 -66 26t-27 65q0 42 27 69z" />
    <glyph glyph-name="uni006A0301" horiz-adv-x="242" 
d="M156 -169.5q-30 -30.5 -80 -30.5h-130v102h86q28 0 28 30v564h126v-584q0 -51 -30 -81.5zM243 700l-88 -130h-108l54 130h142z" />
    <glyph glyph-name="a.ss01" horiz-adv-x="604" 
d="M424 67h-10q-57 -81 -164 -81q-60 0 -111 32t-82 92t-31 138t31 138t82 92t111 32q107 0 164 -81h10v67h124v-496h-124v67zM386 135q38 41 38 113t-38 113t-98 41t-98 -41t-38 -113t38 -113t98 -41t98 41z" />
    <glyph glyph-name="aacute.ss01" horiz-adv-x="604" 
d="M424 67h-10q-57 -81 -164 -81q-60 0 -111 32t-82 92t-31 138t31 138t82 92t111 32q107 0 164 -81h10v67h124v-496h-124v67zM386 135q38 41 38 113t-38 113t-98 41t-98 -41t-38 -113t38 -113t98 -41t98 41zM420 700l-88 -130h-108l54 130h142z" />
    <glyph glyph-name="abreve.ss01" horiz-adv-x="604" 
d="M424 67h-10q-57 -81 -164 -81q-60 0 -111 32t-82 92t-31 138t31 138t82 92t111 32q107 0 164 -81h10v67h124v-496h-124v67zM386 135q38 41 38 113t-38 113t-98 41t-98 -41t-38 -113t38 -113t98 -41t98 41zM432 680q0 -56 -36 -89t-96 -33t-96 33t-36 89v20h90v-12
q0 -19 11 -30.5t31 -11.5t31 11.5t11 30.5v12h90v-20z" />
    <glyph glyph-name="acircumflex.ss01" horiz-adv-x="604" 
d="M424 67h-10q-57 -81 -164 -81q-60 0 -111 32t-82 92t-31 138t31 138t82 92t111 32q107 0 164 -81h10v67h124v-496h-124v67zM386 135q38 41 38 113t-38 113t-98 41t-98 -41t-38 -113t38 -113t98 -41t98 41zM306 634h-12l-43 -64h-123l94 130h156l94 -130h-123z" />
    <glyph glyph-name="adieresis.ss01" horiz-adv-x="604" 
d="M424 67h-10q-57 -81 -164 -81q-60 0 -111 32t-82 92t-31 138t31 138t82 92t111 32q107 0 164 -81h10v67h124v-496h-124v67zM386 135q38 41 38 113t-38 113t-98 41t-98 -41t-38 -113t38 -113t98 -41t98 41zM131.5 702q25.5 24 63.5 24t63.5 -24t25.5 -62t-25.5 -62
t-63.5 -24t-63.5 24t-25.5 62t25.5 62zM341.5 702q25.5 24 63.5 24t63.5 -24t25.5 -62t-25.5 -62t-63.5 -24t-63.5 24t-25.5 62t25.5 62z" />
    <glyph glyph-name="agrave.ss01" horiz-adv-x="604" 
d="M424 67h-10q-57 -81 -164 -81q-60 0 -111 32t-82 92t-31 138t31 138t82 92t111 32q107 0 164 -81h10v67h124v-496h-124v67zM386 135q38 41 38 113t-38 113t-98 41t-98 -41t-38 -113t38 -113t98 -41t98 41zM376 570h-108l-88 130h142z" />
    <glyph glyph-name="amacron.ss01" horiz-adv-x="604" 
d="M424 67h-10q-57 -81 -164 -81q-60 0 -111 32t-82 92t-31 138t31 138t82 92t111 32q107 0 164 -81h10v67h124v-496h-124v67zM386 135q38 41 38 113t-38 113t-98 41t-98 -41t-38 -113t38 -113t98 -41t98 41zM447 570h-294v102h294v-102z" />
    <glyph glyph-name="aogonek.ss01" horiz-adv-x="604" 
d="M582 -86v-84h-80q-32 0 -56 20t-24 55q0 9 3 23l16 72h-17v67h-10q-57 -81 -164 -81q-60 0 -111 32t-82 92t-31 138t31 138t82 92t111 32q107 0 164 -81h10v67h124v-496h-21l-13 -56q-1 -3 -1 -8q0 -22 23 -22h46zM386 135q38 41 38 113t-38 113t-98 41t-98 -41t-38 -113
t38 -113t98 -41t98 41z" />
    <glyph glyph-name="aring.ss01" horiz-adv-x="604" 
d="M424 67h-10q-57 -81 -164 -81q-60 0 -111 32t-82 92t-31 138t31 138t82 92t111 32q107 0 164 -81h10v67h124v-496h-124v67zM386 135q38 41 38 113t-38 113t-98 41t-98 -41t-38 -113t38 -113t98 -41t98 41zM223 713q31 30 77 30t77 -29.5t31 -74.5q0 -46 -32 -75t-76 -29
q-45 0 -76.5 30t-31.5 74t31 74zM278.5 617.5q8.5 -8.5 21.5 -8.5t21.5 8.5t8.5 21.5t-8.5 21.5t-21.5 8.5t-21.5 -8.5t-8.5 -21.5t8.5 -21.5z" />
    <glyph glyph-name="aringacute.ss01" horiz-adv-x="604" 
d="M424 67h-10q-57 -81 -164 -81q-60 0 -111 32t-82 92t-31 138t31 138t82 92t111 32q107 0 164 -81h10v67h124v-496h-124v67zM386 135q38 41 38 113t-38 113t-98 41t-98 -41t-38 -113t38 -113t98 -41t98 41zM383 707q25 -27 25 -68q0 -46 -32 -75t-76 -29q-45 0 -76.5 30
t-31.5 74q0 41 27.5 70t68.5 33l36 88h142zM321.5 617.5q8.5 8.5 8.5 21.5t-8.5 21.5t-21.5 8.5t-21.5 -8.5t-8.5 -21.5t8.5 -21.5t21.5 -8.5t21.5 8.5z" />
    <glyph glyph-name="atilde.ss01" horiz-adv-x="604" 
d="M424 67h-10q-57 -81 -164 -81q-60 0 -111 32t-82 92t-31 138t31 138t82 92t111 32q107 0 164 -81h10v67h124v-496h-124v67zM386 135q38 41 38 113t-38 113t-98 41t-98 -41t-38 -113t38 -113t98 -41t98 41zM242 733q39 0 74 -38q2 -2 8.5 -9.5t13.5 -11t16 -3.5
q13 0 21.5 5.5t17.5 18.5l30 38l77 -61l-56 -72q-34 -44 -86 -44q-39 0 -74 38q-2 2 -8.5 9.5t-13.5 11t-16 3.5q-13 0 -21.5 -5.5t-17.5 -18.5l-30 -38l-77 61l56 72q34 44 86 44z" />
    <glyph glyph-name="g.ss02" horiz-adv-x="604" 
d="M548 496v-584q0 -51 -30 -81.5t-80 -30.5h-362v108h318q28 0 28 30v142h-10q-56 -78 -162 -78q-59 0 -110.5 32t-82.5 89.5t-31 132.5t31 132.5t82.5 89.5t110.5 32q107 0 164 -81h10v67h124zM386 150q38 40 38 106t-38 106t-98 40t-98 -40t-38 -106t38 -106t98 -40
t98 40z" />
    <glyph glyph-name="gbreve.ss02" horiz-adv-x="604" 
d="M548 496v-584q0 -51 -30 -81.5t-80 -30.5h-362v108h318q28 0 28 30v142h-10q-56 -78 -162 -78q-59 0 -110.5 32t-82.5 89.5t-31 132.5t31 132.5t82.5 89.5t110.5 32q107 0 164 -81h10v67h124zM386 150q38 40 38 106t-38 106t-98 40t-98 -40t-38 -106t38 -106t98 -40
t98 40zM436 680q0 -56 -36 -89t-96 -33t-96 33t-36 89v20h90v-12q0 -19 11 -30.5t31 -11.5t31 11.5t11 30.5v12h90v-20z" />
    <glyph glyph-name="uni0123.ss02" horiz-adv-x="604" 
d="M548 496v-584q0 -51 -30 -81.5t-80 -30.5h-362v108h318q28 0 28 30v142h-10q-56 -78 -162 -78q-59 0 -110.5 32t-82.5 89.5t-31 132.5t31 132.5t82.5 89.5t110.5 32q107 0 164 -81h10v67h124zM386 150q38 40 38 106t-38 106t-98 40t-98 -40t-38 -106t38 -106t98 -40
t98 40zM372 572q-27 -27 -68 -27t-68 26.5t-27 67.5v117q0 38 25.5 64t63.5 26h95v-68h-77q-16 0 -22.5 -6.5t-6.5 -21.5v-20q8 2 19 2q39 0 66 -26t27 -65q0 -42 -27 -69z" />
    <glyph glyph-name="gdotaccent.ss02" horiz-adv-x="604" 
d="M548 496v-584q0 -51 -30 -81.5t-80 -30.5h-362v108h318q28 0 28 30v142h-10q-56 -78 -162 -78q-59 0 -110.5 32t-82.5 89.5t-31 132.5t31 132.5t82.5 89.5t110.5 32q107 0 164 -81h10v67h124zM386 150q38 40 38 106t-38 106t-98 40t-98 -40t-38 -106t38 -106t98 -40
t98 40zM240.5 702q25.5 24 63.5 24t63.5 -24t25.5 -62t-25.5 -62t-63.5 -24t-63.5 24t-25.5 62t25.5 62z" />
    <glyph glyph-name="v.ss03" horiz-adv-x="536" 
d="M140 496l122 -456h12l122 456h136l-150 -496h-228l-150 496h136z" />
    <glyph glyph-name="w.ss03" horiz-adv-x="752" 
d="M144 496l47 -456h12l63 456h220l63 -456h12l47 456h126l-65 -496h-224l-63 456h-12l-63 -456h-224l-65 496h126z" />
    <glyph glyph-name="wacute.ss03" horiz-adv-x="752" 
d="M144 496l47 -456h12l63 456h220l63 -456h12l47 456h126l-65 -496h-224l-63 456h-12l-63 -456h-224l-65 496h126zM496 700l-88 -130h-108l54 130h142z" />
    <glyph glyph-name="wcircumflex.ss03" horiz-adv-x="752" 
d="M144 496l47 -456h12l63 456h220l63 -456h12l47 456h126l-65 -496h-224l-63 456h-12l-63 -456h-224l-65 496h126zM382 634h-12l-43 -64h-123l94 130h156l94 -130h-123z" />
    <glyph glyph-name="wdieresis.ss03" horiz-adv-x="752" 
d="M144 496l47 -456h12l63 456h220l63 -456h12l47 456h126l-65 -496h-224l-63 456h-12l-63 -456h-224l-65 496h126zM207.5 702q25.5 24 63.5 24t63.5 -24t25.5 -62t-25.5 -62t-63.5 -24t-63.5 24t-25.5 62t25.5 62zM417.5 702q25.5 24 63.5 24t63.5 -24t25.5 -62t-25.5 -62
t-63.5 -24t-63.5 24t-25.5 62t25.5 62z" />
    <glyph glyph-name="wgrave.ss03" horiz-adv-x="752" 
d="M144 496l47 -456h12l63 456h220l63 -456h12l47 456h126l-65 -496h-224l-63 456h-12l-63 -456h-224l-65 496h126zM452 570h-108l-88 130h142z" />
    <glyph glyph-name="y.ss03" horiz-adv-x="548" 
d="M408 496h136l-213 -696h-136l69 200h-108l-152 496h136l128 -456h12z" />
    <glyph glyph-name="yacute.ss03" horiz-adv-x="548" 
d="M408 496h136l-213 -696h-136l69 200h-108l-152 496h136l128 -456h12zM394 700l-88 -130h-108l54 130h142z" />
    <glyph glyph-name="ycircumflex.ss03" horiz-adv-x="548" 
d="M408 496h136l-213 -696h-136l69 200h-108l-152 496h136l128 -456h12zM280 634h-12l-43 -64h-123l94 130h156l94 -130h-123z" />
    <glyph glyph-name="ydieresis.ss03" horiz-adv-x="548" 
d="M408 496h136l-213 -696h-136l69 200h-108l-152 496h136l128 -456h12zM105.5 702q25.5 24 63.5 24t63.5 -24t25.5 -62t-25.5 -62t-63.5 -24t-63.5 24t-25.5 62t25.5 62zM315.5 702q25.5 24 63.5 24t63.5 -24t25.5 -62t-25.5 -62t-63.5 -24t-63.5 24t-25.5 62t25.5 62z" />
    <glyph glyph-name="ygrave.ss03" horiz-adv-x="548" 
d="M408 496h136l-213 -696h-136l69 200h-108l-152 496h136l128 -456h12zM350 570h-108l-88 130h142z" />
    <glyph glyph-name="one.lf.ss03" horiz-adv-x="438" 
d="M380 700v-700h-132v640h-12l-98 -256h-138l132 316h248z" />
    <glyph glyph-name="zero.lf.zero" horiz-adv-x="596" 
d="M438.5 680.5q60.5 -33.5 94 -97t33.5 -151.5v-164q0 -135 -72.5 -208.5t-195.5 -73.5t-195.5 73.5t-72.5 208.5v164q0 88 33.5 151.5t94 97t140.5 33.5t140.5 -33.5zM198.5 552.5q-36.5 -43.5 -36.5 -114.5v-128l265 186q-13 47 -46.5 73.5t-82.5 26.5q-63 0 -99.5 -43.5
zM400 146q34 42 34 116v128l-266 -187q12 -48 45 -73.5t85 -25.5q68 0 102 42z" />
    <glyph glyph-name="zero.osf" horiz-adv-x="584" 
d="M61 385q35 60 95.5 92.5t135.5 32.5t135.5 -32.5t95.5 -92.5t35 -137t-35 -137t-95.5 -92.5t-135.5 -32.5t-135.5 32.5t-95.5 92.5t-35 137t35 137zM196 145.5q38 -41.5 96 -41.5t96 41.5t38 102.5t-38 102.5t-96 41.5t-96 -41.5t-38 -102.5t38 -102.5z" />
    <glyph glyph-name="one.osf" horiz-adv-x="400" 
d="M344 496v-496h-132v402h-12l-60 -128h-128v12l104 210h228z" />
    <glyph glyph-name="two.osf" horiz-adv-x="564" 
d="M164 475.5q70 34.5 159 34.5q103 0 157 -47t54 -122q0 -79 -52.5 -117.5t-148.5 -49.5l-27 -3q-57 -5 -82.5 -9.5t-40.5 -13.5t-19 -28h366v-120h-500v44q0 109 61.5 160.5t194.5 64.5q63 6 89.5 19.5t26.5 42.5q0 28 -23.5 43.5t-70.5 15.5q-50 0 -98.5 -26t-81.5 -71
l-100 74q66 74 136 108.5z" />
    <glyph glyph-name="three.osf" horiz-adv-x="580" 
d="M188 -56.5q36 -33.5 98 -33.5q61 0 96.5 31.5t35.5 80.5q0 48 -31 74t-83 26h-122v110l168 144h-312v120h496v-112l-186 -156v-12h15q50 0 92.5 -22.5t68.5 -66t26 -103.5q0 -69 -33.5 -121.5t-93.5 -81.5t-137 -29q-78 0 -137 27.5t-92.5 77.5t-38.5 115l132 18
q2 -53 38 -86.5z" />
    <glyph glyph-name="four.osf" horiz-adv-x="596" 
d="M480 496v-376h114v-120h-114v-200h-132v200h-328v112l246 384h214zM162 120h186v272h-12z" />
    <glyph glyph-name="five.osf" horiz-adv-x="580" 
d="M195 -62.5q34 -33.5 93 -33.5q61 0 96.5 37.5t35.5 101.5q0 54 -30.5 85.5t-78.5 31.5q-35 0 -56.5 -14t-31.5 -34h-173v384h476v-120h-344v-178h12q22 31 55.5 52.5t95.5 21.5q55 0 102.5 -27t76 -77.5t28.5 -118.5q0 -78 -32.5 -137.5t-91.5 -92.5t-136 -33
q-75 0 -133.5 28t-93 79t-38.5 119l131 16q3 -57 37 -90.5z" />
    <glyph glyph-name="six.osf" horiz-adv-x="582" 
d="M468 664.5q-67 49.5 -168 49.5q-76 0 -135.5 -28.5t-94 -85t-34.5 -136.5v-245q0 -67 32.5 -120t90 -82.5t129.5 -29.5q76 0 136.5 30.5t94 85.5t33.5 127q0 65 -29 117t-79.5 81.5t-113.5 29.5q-103 0 -150 -66h-12v80q0 60 34.5 92t97.5 32q50 0 79.5 -23t35.5 -62
l133 17q-13 87 -80 136.5zM385.5 321q34.5 -34 34.5 -91q0 -56 -35.5 -90.5t-90.5 -34.5q-56 0 -91 33.5t-35 91.5q0 57 34.5 91t91.5 34t91.5 -34z" />
    <glyph glyph-name="seven.osf" horiz-adv-x="552" 
d="M536 496v-116l-272 -580h-146l268 576h-370v120h520z" />
    <glyph glyph-name="eight.osf" horiz-adv-x="580" 
d="M70 621.5q32 43.5 89 68t131 24.5t131 -24.5t89 -68t32 -98.5q0 -109 -112 -156v-12q49 -14 85.5 -57.5t36.5 -108.5q0 -60 -33.5 -106t-93 -71.5t-135.5 -25.5t-135.5 25.5t-93 71.5t-33.5 106q0 65 36.5 108.5t85.5 57.5v12q-112 47 -112 156q0 55 32 98.5zM203 442
q33 -24 87 -24t87 24t33 65t-33 65t-87 24t-87 -24t-33 -65t33 -65zM194 131q34 -27 96 -27t96 27t34 71t-34 71t-96 27t-96 -27t-34 -71t34 -71z" />
    <glyph glyph-name="nine.osf" horiz-adv-x="582" 
d="M207 -73.5q29 -22.5 77 -22.5q62 0 96 32t34 92v77h-12q-47 -66 -150 -66q-63 0 -113.5 29.5t-79.5 81.5t-29 117q0 72 33.5 127t94 85.5t136.5 30.5q72 0 129.5 -29.5t90 -82.5t32.5 -120v-242q0 -80 -34 -136.5t-93 -85t-135 -28.5q-100 0 -166.5 49t-78.5 136l133 16
q6 -38 35 -60.5zM379.5 176q34.5 34 34.5 91q0 58 -35 91.5t-91 33.5q-55 0 -90.5 -34.5t-35.5 -90.5q0 -57 34.5 -91t91.5 -34t91.5 34z" />
    <glyph glyph-name="one.osf.ss03" horiz-adv-x="400" 
d="M344 496v-496h-132v436h-12l-60 -162h-128l86 222h246z" />
    <glyph glyph-name="zero.osf.zero" horiz-adv-x="584" 
d="M427.5 477.5q60.5 -32.5 95.5 -92.5t35 -137t-35 -137t-95.5 -92.5t-135.5 -32.5t-135.5 32.5t-95.5 92.5t-35 137t35 137t95.5 92.5t135.5 32.5t135.5 -32.5zM196 350.5q-38 -41.5 -38 -102.5q0 -20 4 -36l213 150q-35 30 -83 30q-58 0 -96 -41.5zM388 145.5
q38 41.5 38 102.5q0 20 -4 36l-213 -150q35 -30 83 -30q58 0 96 41.5z" />
    <glyph glyph-name="one.ss03" horiz-adv-x="438" 
d="M380 700v-700h-132v640h-12l-98 -256h-138l132 316h248z" />
    <glyph glyph-name="zero.tf" 
d="M85.5 583.5q31.5 63.5 89.5 97t135 33.5t135 -33.5t89.5 -97t31.5 -151.5v-164q0 -135 -69 -208.5t-187 -73.5t-187 73.5t-69 208.5v164q0 88 31.5 151.5zM217 147q31 -41 93 -41q64 0 94 41.5t30 116.5v172q0 73 -33 115.5t-91 42.5q-59 0 -91.5 -43.5t-32.5 -114.5
v-172q0 -76 31 -117z" />
    <glyph glyph-name="one.tf" 
d="M410 120h162v-120h-504v120h210v440h-12l-58 -176h-134l124 316h212v-580z" />
    <glyph glyph-name="two.tf" 
d="M89.5 601q35.5 56 95 84.5t132.5 28.5q69 0 126.5 -28.5t92 -81t34.5 -122.5q0 -99 -57 -154.5t-173 -84.5q-82 -21 -116 -43t-34 -68v-12h376v-120h-508v120q0 90 57.5 142.5t162.5 81.5q82 22 121 53t39 89q0 50 -32 78t-87 28q-58 0 -95.5 -32.5t-37.5 -95.5v-22h-132
v24q0 79 35.5 135z" />
    <glyph glyph-name="three.tf" 
d="M556 580l-194 -154v-12h26q50 0 92 -22.5t67 -66.5t25 -105q0 -70 -33.5 -123t-93 -82t-137.5 -29q-82 0 -142.5 30.5t-93 84t-32.5 123.5v28h132v-22q0 -53 36 -87.5t100 -34.5q61 0 96.5 31t35.5 81q0 49 -31 74.5t-83 25.5h-122v118l171 138h-315v124h496v-120z" />
    <glyph glyph-name="four.tf" 
d="M494 700v-442h114v-120h-114v-138h-132v138h-330v116l256 446h206zM168 258h194v328h-12z" />
    <glyph glyph-name="five.tf" 
d="M544 576h-344v-178h12q22 31 55.5 52.5t95.5 21.5q55 0 102.5 -27t76 -77.5t28.5 -118.5q0 -78 -32.5 -137.5t-91.5 -92.5t-136 -33q-78 0 -138.5 30t-94 85.5t-33.5 128.5v18h132v-10q0 -60 34 -95t96 -35q61 0 96.5 36.5t35.5 98.5q0 54 -30.5 85.5t-78.5 31.5
q-35 0 -56.5 -14t-31.5 -34h-173v388h476v-124z" />
    <glyph glyph-name="six.tf" 
d="M538.5 103q-33.5 -55 -94 -85.5t-136.5 -30.5q-72 0 -129.5 29.5t-90 82.5t-32.5 120v245q0 80 34 136.5t93 85t135 28.5q73 0 129 -26.5t87.5 -76.5t31.5 -119h-134q0 45 -29.5 73.5t-84.5 28.5q-62 0 -96 -32t-34 -90v-80h12q47 66 150 66q63 0 113.5 -29.5t79.5 -81.5
t29 -117q0 -72 -33.5 -127zM222.5 318q-34.5 -33 -34.5 -88q0 -56 35 -88.5t91 -32.5q55 0 90.5 33t35.5 88t-34.5 88t-91.5 33t-91.5 -33z" />
    <glyph glyph-name="seven.tf" 
d="M584 700v-118l-286 -582h-146l282 578h-398v122h548z" />
    <glyph glyph-name="eight.tf" 
d="M90 621.5q32 43.5 89 68t131 24.5t131 -24.5t89 -68t32 -98.5q0 -109 -112 -156v-12q49 -14 85.5 -57.5t36.5 -108.5q0 -60 -33.5 -106t-93 -71.5t-135.5 -25.5t-135.5 25.5t-93 71.5t-33.5 106q0 65 36.5 108.5t85.5 57.5v12q-112 47 -112 156q0 55 32 98.5zM223 443
q33 -23 87 -23t87 23t33 63t-33 63t-87 23t-87 -23t-33 -63t33 -63zM214 134q34 -26 96 -26t96 26t34 69t-34 69t-96 26t-96 -26t-34 -69t34 -69z" />
    <glyph glyph-name="nine.tf" 
d="M81.5 598q33.5 55 94 85.5t136.5 30.5q72 0 129.5 -29.5t90 -82.5t32.5 -120v-245q0 -80 -34 -136.5t-93 -85t-135 -28.5q-73 0 -129 26.5t-87.5 76.5t-31.5 119h134q0 -45 29.5 -73.5t84.5 -28.5q62 0 96 32t34 90v80h-12q-47 -66 -150 -66q-63 0 -113.5 29.5
t-79.5 81.5t-29 117q0 72 33.5 127zM397.5 383q34.5 33 34.5 88q0 56 -35 88.5t-91 32.5q-55 0 -90.5 -33t-35.5 -88t34.5 -88t91.5 -33t91.5 33z" />
    <glyph glyph-name="one.tf.ss03" 
d="M410 120h162v-120h-504v120h210v520h-12l-58 -256h-134l88 316h248v-580z" />
    <glyph glyph-name="zero.tf.zero" 
d="M445 680.5q58 -33.5 89.5 -97t31.5 -151.5v-164q0 -135 -69 -208.5t-187 -73.5t-187 73.5t-69 208.5v164q0 88 31.5 151.5t89.5 97t135 33.5t135 -33.5zM218.5 550.5q-32.5 -43.5 -32.5 -114.5v-117l243 170q-11 50 -42 77.5t-77 27.5q-59 0 -91.5 -43.5zM404 147.5
q30 41.5 30 116.5v117l-243 -170q9 -51 39 -78t80 -27q64 0 94 41.5z" />
    <glyph glyph-name="zero.tosf" 
d="M79 386q35 59 95.5 91.5t135.5 32.5t135.5 -32.5t95.5 -91.5t35 -134v-8q0 -75 -35 -134t-95.5 -91.5t-135.5 -32.5t-135.5 32.5t-95.5 91.5t-35 134v8q0 75 35 134zM214 144.5q38 -38.5 96 -38.5t96 38.5t38 96.5v14q0 58 -38 96.5t-96 38.5t-96 -38.5t-38 -96.5v-14
q0 -58 38 -96.5z" />
    <glyph glyph-name="one.tosf" 
d="M418 496v-376h158v-120h-530v120h240v286h-18l-54 -132h-128v12l98 210h234z" />
    <glyph glyph-name="two.tosf" 
d="M190 475.5q70 34.5 159 34.5q103 0 157 -47t54 -122q0 -79 -52.5 -117.5t-148.5 -49.5l-27 -3q-57 -5 -82.5 -9.5t-40.5 -13.5t-19 -28h366v-120h-500v44q0 109 61.5 160.5t194.5 64.5q63 6 89.5 19.5t26.5 42.5q0 28 -23.5 43.5t-70.5 15.5q-50 0 -98.5 -26t-81.5 -71
l-100 74q66 74 136 108.5z" />
    <glyph glyph-name="three.tosf" 
d="M205 -56.5q36 -33.5 98 -33.5q61 0 96.5 31.5t35.5 80.5q0 48 -31 74t-83 26h-122v110l168 144h-312v120h496v-112l-186 -156v-12h15q50 0 92.5 -22.5t68.5 -66t26 -103.5q0 -69 -33.5 -121.5t-93.5 -81.5t-137 -29q-78 0 -137 27.5t-92.5 77.5t-38.5 115l132 18
q2 -53 38 -86.5z" />
    <glyph glyph-name="four.tosf" 
d="M485 496v-376h114v-120h-114v-200h-132v200h-328v112l246 384h214zM165 120h188v272h-12z" />
    <glyph glyph-name="five.tosf" 
d="M217 -62.5q34 -33.5 93 -33.5q61 0 96.5 37.5t35.5 101.5q0 54 -30.5 85.5t-78.5 31.5q-35 0 -56.5 -14t-31.5 -34h-173v384h476v-120h-344v-178h12q22 31 55.5 52.5t95.5 21.5q55 0 102.5 -27t76 -77.5t28.5 -118.5q0 -78 -32.5 -137.5t-91.5 -92.5t-136 -33
q-75 0 -133.5 28t-93 79t-38.5 119l131 16q3 -57 37 -90.5z" />
    <glyph glyph-name="six.tosf" 
d="M488 664.5q-67 49.5 -168 49.5q-76 0 -135.5 -28.5t-94 -85t-34.5 -136.5v-245q0 -67 32.5 -120t90 -82.5t129.5 -29.5q76 0 136.5 30.5t94 85.5t33.5 127q0 65 -29 117t-79.5 81.5t-113.5 29.5q-103 0 -150 -66h-12v80q0 60 34.5 92t97.5 32q50 0 79.5 -23t35.5 -62
l133 17q-13 87 -80 136.5zM405.5 321q34.5 -34 34.5 -91q0 -56 -35.5 -90.5t-90.5 -34.5q-56 0 -91 33.5t-35 91.5q0 57 34.5 91t91.5 34t91.5 -34z" />
    <glyph glyph-name="seven.tosf" 
d="M580 496v-116l-286 -580h-146l282 576h-398v120h548z" />
    <glyph glyph-name="eight.tosf" 
d="M90 621.5q32 43.5 89 68t131 24.5t131 -24.5t89 -68t32 -98.5q0 -109 -112 -156v-12q49 -14 85.5 -57.5t36.5 -108.5q0 -60 -33.5 -106t-93 -71.5t-135.5 -25.5t-135.5 25.5t-93 71.5t-33.5 106q0 65 36.5 108.5t85.5 57.5v12q-112 47 -112 156q0 55 32 98.5zM223 442
q33 -24 87 -24t87 24t33 65t-33 65t-87 24t-87 -24t-33 -65t33 -65zM214 131q34 -27 96 -27t96 27t34 71t-34 71t-96 27t-96 -27t-34 -71t34 -71z" />
    <glyph glyph-name="nine.tosf" 
d="M227 -73.5q29 -22.5 77 -22.5q62 0 96 32t34 92v77h-12q-47 -66 -150 -66q-63 0 -113.5 29.5t-79.5 81.5t-29 117q0 72 33.5 127t94 85.5t136.5 30.5q72 0 129.5 -29.5t90 -82.5t32.5 -120v-242q0 -80 -34 -136.5t-93 -85t-135 -28.5q-100 0 -166.5 49t-78.5 136l133 16
q6 -38 35 -60.5zM399.5 176q34.5 34 34.5 91q0 58 -35 91.5t-91 33.5q-55 0 -90.5 -34.5t-35.5 -90.5q0 -57 34.5 -91t91.5 -34t91.5 34z" />
    <glyph glyph-name="one.tosf.ss03" 
d="M418 496v-376h158v-120h-530v120h240v316h-12l-60 -162h-128l92 222h240z" />
    <glyph glyph-name="zero.tosf.zero" 
d="M445.5 477.5q60.5 -32.5 95.5 -92.5t35 -137t-35 -137t-95.5 -92.5t-135.5 -32.5t-135.5 32.5t-95.5 92.5t-35 137t35 137t95.5 92.5t135.5 32.5t135.5 -32.5zM214 350.5q-38 -41.5 -38 -102.5q0 -20 4 -36l213 150q-35 30 -83 30q-58 0 -96 -41.5zM406 145.5
q38 41.5 38 102.5q0 20 -4 36l-213 -150q35 -30 83 -30q58 0 96 41.5z" />
    <glyph glyph-name="zero.subs.zero" horiz-adv-x="360" 
d="M297 119.5q43 -42.5 43 -115.5v-59q0 -74 -42 -115.5t-118 -41.5t-118 41.5t-42 115.5v59q0 74 42.5 116t117.5 42q74 0 117 -42.5zM135.5 60q-15.5 -18 -15.5 -49v-40l114 73q-13 34 -54 34q-29 0 -44.5 -18zM224.5 -110q15.5 18 15.5 49v44l-116 -74q13 -37 56 -37
q29 0 44.5 18z" />
    <glyph glyph-name="zero.dnom.zero" horiz-adv-x="360" 
d="M297 319.5q43 -42.5 43 -115.5v-59q0 -74 -42 -115.5t-118 -41.5t-118 41.5t-42 115.5v59q0 74 42.5 116t117.5 42q74 0 117 -42.5zM135.5 260q-15.5 -18 -15.5 -49v-40l114 73q-13 34 -54 34q-29 0 -44.5 -18zM224.5 90q15.5 18 15.5 49v44l-116 -74q13 -37 56 -37
q29 0 44.5 18z" />
    <glyph glyph-name="zero.numr.zero" horiz-adv-x="360" 
d="M297 669.5q43 -42.5 43 -115.5v-59q0 -74 -42 -115.5t-118 -41.5t-118 41.5t-42 115.5v59q0 74 42.5 116t117.5 42q74 0 117 -42.5zM135.5 610q-15.5 -18 -15.5 -49v-40l114 73q-13 34 -54 34q-29 0 -44.5 -18zM224.5 440q15.5 18 15.5 49v44l-116 -74q13 -37 56 -37
q29 0 44.5 18z" />
    <glyph glyph-name="zero.sups.zero" horiz-adv-x="360" 
d="M297 669.5q43 -42.5 43 -115.5v-59q0 -74 -42 -115.5t-118 -41.5t-118 41.5t-42 115.5v59q0 74 42.5 116t117.5 42q74 0 117 -42.5zM135.5 610q-15.5 -18 -15.5 -49v-40l114 73q-13 34 -54 34q-29 0 -44.5 -18zM224.5 440q15.5 18 15.5 49v44l-116 -74q13 -37 56 -37
q29 0 44.5 18z" />
    <glyph glyph-name="exclamdown.case" horiz-adv-x="282" 
d="M73 687.5q27 26.5 68 26.5t68 -26.5t27 -68.5t-27 -68.5t-68 -26.5t-68 26.5t-27 68.5t27 68.5zM73 0l14 482h108l14 -482h-136z" />
    <glyph glyph-name="questiondown.case" horiz-adv-x="592" 
d="M383 550.5q-27 -26.5 -68 -26.5t-68 26.5t-27 68.5t27 68.5t68 26.5t68 -26.5t27 -68.5t-27 -68.5zM524 90.5q-34 -50.5 -93 -77.5t-131 -27q-71 0 -127.5 26t-88.5 73.5t-32 108.5v4q0 80 40 124t107 73l18 8q18 8 25 19.5t7 33.5v26h132v-36q0 -52 -20.5 -85t-66.5 -54
l-18 -8q-49 -22 -70.5 -43t-21.5 -56q0 -41 32 -65.5t84 -24.5q56 0 91 27.5t35 76.5v24h132v-30q0 -67 -34 -117.5z" />
    <glyph glyph-name="parenleft.case" horiz-adv-x="422" 
d="M187.5 779q77.5 73 214.5 73v-120q-83 -2 -122.5 -48.5t-39.5 -141.5v-388q0 -95 39.5 -141.5t122.5 -48.5v-120q-137 0 -214.5 73t-77.5 225v412q0 152 77.5 225z" />
    <glyph glyph-name="guillemotleft.case" horiz-adv-x="780" 
d="M372 580h6v-136l-192 -97v-18l192 -97v-136h-6l-314 176v132zM712 580h6v-136l-192 -97v-18l192 -97v-136h-6l-314 176v132z" />
    <glyph glyph-name="guillemotright.case" horiz-adv-x="780" 
d="M378 272l-314 -176h-6v136l192 97v18l-192 97v136h6l314 -176v-132zM718 272l-314 -176h-6v136l192 97v18l-192 97v136h6l314 -176v-132z" />
    <glyph glyph-name="uni2197.case" horiz-adv-x="600" 
d="M481 700l69 -69v-324h-116v149l8 39l-9 5l-25 -32l-279 -279l-89 89l278 280l32 25l-5 9l-39 -8h-149v116h324z" />
    <glyph glyph-name="arrowright.case" horiz-adv-x="800" 
d="M750 406v-102l-229 -229l-84 84l108 108l33 22l-3 9l-40 -4h-485v122h485l40 -4l3 9l-33 22l-108 108l84 84z" />
    <glyph glyph-name="arrowleft.case" horiz-adv-x="800" 
d="M363 551l-108 -108l-33 -22l3 -9l40 4h485v-122h-485l-40 4l-3 -9l33 -22l108 -108l-84 -84l-229 229v102l229 229z" />
    <glyph glyph-name="uni2196.case" 
d="M463 584h-149l-39 8l-5 -9l32 -25l278 -280l-89 -89l-279 279l-25 32l-9 -5l8 -39v-149h-116v324l69 69h324v-116z" />
    <glyph glyph-name="arrowboth.case" horiz-adv-x="800" 
d="M531 625l219 -219v-102l-219 -219l-84 84l98 98l33 22l-3 9l-40 -4h-270l-40 4l-3 -9l33 -22l98 -98l-84 -84l-219 219v102l219 219l84 -84l-98 -98l-33 -22l3 -9l40 4h270l40 -4l3 9l-33 22l-98 98z" />
    <glyph glyph-name="bar.case" horiz-adv-x="242" 
d="M184 -156h-126v1012h126v-1012z" />
    <glyph glyph-name="brokenbar.case" horiz-adv-x="242" 
d="M58 436v420h126v-420h-126zM184 264v-420h-126v420h126z" />
    <glyph glyph-name="ringacutecomb" horiz-adv-x="296" 
d="M231 707q25 -27 25 -68q0 -46 -32 -75t-76 -29q-45 0 -76.5 30t-31.5 74q0 41 27.5 70t68.5 33l36 88h142zM169.5 617.5q8.5 8.5 8.5 21.5t-8.5 21.5t-21.5 8.5t-21.5 -8.5t-8.5 -21.5t8.5 -21.5t21.5 -8.5t21.5 8.5z" />
    <glyph glyph-name="Omega" 
d="M82.5 581.5q30.5 63.5 88.5 98t139 34.5t139 -34.5t88.5 -98t30.5 -147.5v-108q0 -73 -24.5 -116t-67.5 -66v-18h104v-126h-234v138q40 13 59.5 38.5t25 63.5t5.5 104v82q0 82 -32.5 122t-93.5 40t-93.5 -40t-32.5 -122v-82q0 -67 5.5 -105t25 -63t59.5 -38v-138h-234
v126h104v18q-47 23 -69.5 70.5t-22.5 111.5v108q0 84 30.5 147.5z" />
    <glyph glyph-name="Delta" 
d="M197 700h226l179 -700h-584zM434 126l-115 476h-18l-116 -476h249z" />
    </font>
</defs>
</svg>
