<?xml version="1.0" standalone="no"?>
<!DOCTYPE svg PUBLIC "-//W3C//DTD SVG 1.1//EN" "http://www.w3.org/Graphics/SVG/1.1/DTD/svg11.dtd" >
<svg xmlns="http://www.w3.org/2000/svg" xmlns:xlink="http://www.w3.org/1999/xlink" version="1.1">
<metadata>
Created by FontForge 20170731 at Sun Dec  8 22:45:34 2019
 By Aleksey,,,
Copyright 2019 The Space Grotesk Project Authors (https://github.com/floriankarsten/space-grotesk)
</metadata>
<defs>
<font id="SpaceGrotesk-Medium" horiz-adv-x="620" >
  <font-face 
    font-family="Space Grotesk Medium"
    font-weight="500"
    font-stretch="normal"
    units-per-em="1000"
    panose-1="0 0 6 0 0 0 0 0 0 0"
    ascent="800"
    descent="-200"
    x-height="491"
    cap-height="700"
    bbox="-671 -306 971 1000"
    underline-thickness="50"
    underline-position="-150"
    unicode-range="U+000D-E133"
  />
<missing-glyph horiz-adv-x="880" 
d="M142 758q49 49 139 49h318q90 0 139 -49t49 -145v-536q0 -96 -49 -145t-139 -49h-318q-90 0 -139 49t-49 145v536q0 96 49 145zM201.5 -10.5q28.5 -32.5 89.5 -32.5h299q60 0 88.5 32.5t28.5 97.5v516q0 65 -28.5 97.5t-88.5 32.5h-299q-61 0 -89.5 -32.5t-28.5 -97.5
v-516q0 -65 28.5 -97.5zM320.5 556.5q48.5 39.5 123.5 39.5q71 0 119 -38t48 -98v-4q0 -51 -28 -81t-75 -50l-15 -7q-12 -4 -17 -13.5t-5 -25.5v-29h-73v32q0 33 12.5 54t44.5 35l14 6q37 16 53.5 33t16.5 46q0 34 -26.5 54t-68.5 20q-43 0 -71 -21.5t-28 -61.5v-22h-73v25
q0 67 48.5 106.5zM396.5 197.5q15.5 15.5 39.5 15.5t40 -15.5t16 -38.5q0 -24 -16 -39t-40 -15t-39.5 15t-15.5 39q0 23 15.5 38.5z" />
    <glyph glyph-name="f_f.liga" unicode="ff" horiz-adv-x="725" 
d="M701 491v-80h-146v-411h-93v411h-206v-411h-94v411h-143v80h143v122q0 39 23.5 63t61.5 24h129v-78h-92q-28 0 -28 -30v-101h206v122q0 39 23 63t61 24h129v-78h-92q-28 0 -28 -30v-101h146z" />
    <glyph glyph-name="f_f_i.liga" unicode="ffi" horiz-adv-x="922" 
d="M860.5 691.5q20.5 -20.5 20.5 -51.5t-20.5 -51t-52.5 -20q-31 0 -52 20t-21 51t21 51.5t52 20.5q32 0 52.5 -20.5zM855 491v-491h-94v411h-206v-411h-93v411h-206v-411h-94v411h-143v80h143v122q0 39 23.5 63t61.5 24h129v-78h-92q-28 0 -28 -30v-101h206v122q0 39 23 63
t61 24h119v-78h-82q-28 0 -28 -30v-101h300z" />
    <glyph glyph-name="f_f_j.liga" unicode="ffj" horiz-adv-x="922" 
d="M859.5 691.5q20.5 -20.5 20.5 -51.5t-20.5 -51t-52.5 -20q-31 0 -51.5 20t-20.5 51t20.5 51.5t51.5 20.5q32 0 52.5 -20.5zM855 491v-599q0 -43 -24.5 -67.5t-66.5 -24.5h-124v77h93q28 0 28 30v504h-206v-411h-93v411h-206v-411h-94v411h-143v80h143v122q0 39 23.5 63
t61.5 24h129v-78h-92q-28 0 -28 -30v-101h206v122q0 39 23 63t61 24h119v-78h-82q-28 0 -28 -30v-101h300z" />
    <glyph glyph-name="f_i.liga" unicode="fi" horiz-adv-x="622" 
d="M561 691.5q21 -20.5 21 -51.5t-21 -51t-52 -20q-32 0 -52.5 20t-20.5 51t20.5 51.5t52.5 20.5q31 0 52 -20.5zM555 491v-491h-93v411h-206v-411h-94v411h-143v80h143v122q0 39 23.5 63t61.5 24h119v-78h-82q-28 0 -28 -30v-101h299z" />
    <glyph glyph-name="f_j.liga" unicode="fj" horiz-adv-x="622" 
d="M560.5 691.5q20.5 -20.5 20.5 -51.5t-20.5 -51t-52.5 -20q-31 0 -52 20t-21 51t21 51.5t52 20.5q32 0 52.5 -20.5zM555 491v-599q0 -43 -24.5 -67.5t-65.5 -24.5h-124v77h93q28 0 28 30v504h-206v-411h-94v411h-143v80h143v122q0 39 23.5 63t61.5 24h119v-78h-82
q-28 0 -28 -30v-101h299z" />
    <glyph glyph-name="f_l.liga" unicode="fl" horiz-adv-x="622" 
d="M162 613q0 39 23.5 63t61.5 24h119v-81h-82q-28 0 -28 -30v-98h132v-81h-132v-410h-94v410h-143v81h143v122zM555 700v-700h-93v700h93z" />
    <glyph glyph-name="f_lcaron.liga" unicode="f&#x13e;" horiz-adv-x="695" 
d="M162 613q0 39 23.5 63t61.5 24h119v-81h-82q-28 0 -28 -30v-98h132v-81h-132v-410h-94v410h-143v81h143v122zM462 0v700h93v-700h-93zM720 700l-52 -179h-57l10 179h99z" />
    <glyph glyph-name="t_t.liga" unicode="tt" horiz-adv-x="728" 
d="M543 414v-307q0 -30 28 -30h105v-77h-136q-41 0 -66 25t-25 67v322h-205v-307q0 -30 28 -30h98v-77h-129q-41 0 -66 25t-25 67v322h-142v77h142v168h94v-168h205v168h94v-168h152v-77h-152z" />
    <glyph glyph-name=".notdef" horiz-adv-x="880" 
d="M142 758q49 49 139 49h318q90 0 139 -49t49 -145v-536q0 -96 -49 -145t-139 -49h-318q-90 0 -139 49t-49 145v536q0 96 49 145zM201.5 -10.5q28.5 -32.5 89.5 -32.5h299q60 0 88.5 32.5t28.5 97.5v516q0 65 -28.5 97.5t-88.5 32.5h-299q-61 0 -89.5 -32.5t-28.5 -97.5
v-516q0 -65 28.5 -97.5zM320.5 556.5q48.5 39.5 123.5 39.5q71 0 119 -38t48 -98v-4q0 -51 -28 -81t-75 -50l-15 -7q-12 -4 -17 -13.5t-5 -25.5v-29h-73v32q0 33 12.5 54t44.5 35l14 6q37 16 53.5 33t16.5 46q0 34 -26.5 54t-68.5 20q-43 0 -71 -21.5t-28 -61.5v-22h-73v25
q0 67 48.5 106.5zM396.5 197.5q15.5 15.5 39.5 15.5t40 -15.5t16 -38.5q0 -24 -16 -39t-40 -15t-39.5 15t-15.5 39q0 23 15.5 38.5z" />
    <glyph glyph-name=".null" horiz-adv-x="0" 
 />
    <glyph glyph-name="nonmarkingreturn" unicode="&#xd;" horiz-adv-x="600" 
 />
    <glyph glyph-name="space" unicode=" " horiz-adv-x="296" 
 />
    <glyph glyph-name="exclam" unicode="!" horiz-adv-x="257" 
d="M179 700l-11 -502h-80l-10 502h101zM72.5 120q22.5 22 55.5 22q34 0 56 -22t22 -56t-22 -56t-56 -22q-33 0 -55.5 22t-22.5 56t22.5 56z" />
    <glyph glyph-name="quotedbl" unicode="&#x22;" horiz-adv-x="434" 
d="M71.5 694q21.5 21 55.5 21t55.5 -21.5t21.5 -57.5v-70q0 -54 -29.5 -84.5t-85.5 -30.5h-26v56h29q48 0 48 48v11h-14q-33 0 -54.5 20.5t-21.5 52.5q0 34 21.5 55zM251.5 694q21.5 21 55.5 21t55.5 -21.5t21.5 -57.5v-70q0 -54 -29.5 -84.5t-85.5 -30.5h-26v56h29
q48 0 48 48v11h-14q-33 0 -54.5 20.5t-21.5 52.5q0 34 21.5 55z" />
    <glyph glyph-name="numbersign" unicode="#" 
d="M156 504v196h88v-196h132v196h88v-196h119v-83h-119v-142h119v-83h-119v-196h-88v196h-132v-196h-88v196h-119v83h119v142h-119v83h119zM244 279h132v142h-132v-142z" />
    <glyph glyph-name="dollar" unicode="$" horiz-adv-x="601" 
d="M510 329q52 -45 52 -127v-9q0 -85 -56.5 -139t-150.5 -65v-105h-90v104q-109 11 -170 77.5t-61 177.5v24h99v-19q0 -71 33.5 -113t98.5 -53v241q-102 24 -152.5 68t-50.5 126v6q0 77 57 128.5t146 60.5v104h90v-106q91 -13 146.5 -68t55.5 -143v-37h-99v30
q0 51 -27.5 82.5t-75.5 41.5v-218q103 -24 155 -69zM187.5 456q25.5 -22 77.5 -36v199q-46 -8 -74.5 -34t-28.5 -65q0 -42 25.5 -64zM434 122q28 30 28 72q0 41 -26.5 65.5t-80.5 40.5v-218q51 10 79 40z" />
    <glyph glyph-name="percent" unicode="%" horiz-adv-x="773" 
d="M89 670.5q43 42.5 120 42.5q74 0 118 -43t44 -116v-19q0 -74 -43 -116t-119 -42q-77 0 -120 42t-43 116v19q0 74 43 116.5zM602 713l77 -58l-200 -233l-50 38zM147.5 467.5q21.5 -23.5 61.5 -23.5t61 23.5t21 63.5v28q0 40 -21 63.5t-61 23.5t-61.5 -23.5t-21.5 -63.5
v-28q0 -40 21.5 -63.5zM445 280.5q43 42.5 119 42.5q75 0 119 -43t44 -116v-19q0 -74 -43.5 -116t-119.5 -42t-119 42t-43 116v19q0 74 43 116.5zM168 -12l-77 58l200 233l50 -38zM503 77.5q21 -23.5 61 -23.5t61 23.5t21 63.5v28q0 40 -21 63.5t-61 23.5t-61 -23.5
t-21 -63.5v-28q0 -40 21 -63.5z" />
    <glyph glyph-name="ampersand" unicode="&#x26;" horiz-adv-x="600" 
d="M263 621q-55 0 -89.5 -29.5t-34.5 -84.5q0 -56 35 -85t89 -29h126v103h93v-103h96v-79h-96v-314h-237q-91 0 -148.5 49.5t-57.5 136.5q0 62 33.5 104t85.5 59v12q-51 16 -82 54t-31 99q0 88 57.5 137t146.5 49h121v-79h-107zM169 284q-35 -30 -35 -87q0 -58 35.5 -88
t89.5 -30h130v235h-130q-55 0 -90 -30z" />
    <glyph glyph-name="quotesingle" unicode="'" horiz-adv-x="254" 
d="M71.5 694q21.5 21 55.5 21t55.5 -21.5t21.5 -57.5v-70q0 -54 -29.5 -84.5t-85.5 -30.5h-26v56h29q48 0 48 48v11h-14q-33 0 -54.5 20.5t-21.5 52.5q0 34 21.5 55z" />
    <glyph glyph-name="parenleft" unicode="(" horiz-adv-x="408" 
d="M196.5 740.5q69.5 67.5 191.5 67.5v-85q-84 -2 -125.5 -51.5t-41.5 -148.5v-486q0 -99 41.5 -148.5t125.5 -51.5v-85q-122 0 -191.5 67.5t-69.5 209.5v502q0 142 69.5 209.5z" />
    <glyph glyph-name="parenright" unicode=")" horiz-adv-x="408" 
d="M211.5 -180.5q-69.5 -67.5 -191.5 -67.5v85q85 2 126.5 51.5t41.5 148.5v486q0 99 -41.5 148.5t-126.5 51.5v85q122 0 191.5 -67.5t69.5 -209.5v-502q0 -142 -69.5 -209.5z" />
    <glyph glyph-name="asterisk" unicode="*" horiz-adv-x="513" 
d="M321 463q-1 -4 -5 -12l57 -43l59 -58l-43 -43l-59 59l-42 57q-8 -4 -12 -5l11 -71v-82h-61v82l10 71q-4 1 -12 5l-42 -57l-58 -59l-43 43l58 58l58 43q-4 8 -5 12l-71 -11h-82v61h82l71 -11q1 6 5 12l-58 43l-58 58l43 43l58 -59l42 -57q8 4 13 5l-11 71v82h61v-82
l-11 -71q4 -1 12 -5l42 57l59 59l43 -43l-59 -58l-57 -42q4 -8 5 -12l71 10h82v-61h-82z" />
    <glyph glyph-name="plus" unicode="+" 
d="M265 393v166h90v-166h164v-86h-164v-166h-90v166h-164v86h164z" />
    <glyph glyph-name="comma" unicode="," horiz-adv-x="254" 
d="M71.5 121q21.5 21 55.5 21t55.5 -21.5t21.5 -57.5v-70q0 -54 -29.5 -84.5t-85.5 -30.5h-26v56h29q48 0 48 48v11h-14q-33 0 -54.5 20.5t-21.5 52.5q0 34 21.5 55z" />
    <glyph glyph-name="hyphen" unicode="-" horiz-adv-x="460" 
d="M82 299h296v-86h-296v86z" />
    <glyph glyph-name="period" unicode="." horiz-adv-x="257" 
d="M72.5 120q22.5 22 55.5 22q34 0 56 -22t22 -56t-22 -56t-56 -22q-33 0 -55.5 22t-22.5 56t22.5 56z" />
    <glyph glyph-name="slash" unicode="/" horiz-adv-x="484" 
d="M434 700l-294 -900h-94l294 900h94z" />
    <glyph glyph-name="zero" unicode="0" horiz-adv-x="608" 
d="M113.5 640q69.5 74 190.5 74t190 -74t69 -210v-160q0 -137 -69 -210.5t-190 -73.5t-190.5 73.5t-69.5 210.5v160q0 136 69.5 210zM183.5 124q40.5 -50 120.5 -50t120.5 50.5t40.5 140.5v170q0 89 -42 140t-119 51t-119 -51t-42 -140v-170q0 -91 40.5 -141z" />
    <glyph glyph-name="one" unicode="1" horiz-adv-x="416" 
d="M348 700l-1 -700h-99v594h-12l-124 -201h-108l191 307h153z" />
    <glyph glyph-name="two" unicode="2" horiz-adv-x="576" 
d="M73 602q34 55 92 83.5t130 28.5q69 0 125.5 -28t89 -80t32.5 -120q0 -96 -57.5 -152t-170.5 -85q-65 -17 -100.5 -32t-55 -41t-19.5 -69v-18h402v-89h-502v97q0 97 58 149t170 81q88 22 132 59.5t44 101.5t-40 101t-107 37q-70 0 -114 -41t-44 -118v-21h-99v24
q0 77 34 132z" />
    <glyph glyph-name="three" unicode="3" horiz-adv-x="575" 
d="M533 612l-219 -183v-12h25q56 0 102.5 -24t73.5 -70t27 -109q0 -67 -32.5 -119t-90 -80.5t-129.5 -28.5q-79 0 -138 29.5t-90.5 83.5t-31.5 126v31h99v-30q0 -71 43 -111.5t118 -40.5q70 0 111.5 40t41.5 101q0 62 -40.5 95t-104.5 33h-106v91l208 176h-353v90h486v-88z
" />
    <glyph glyph-name="four" unicode="4" horiz-adv-x="600" 
d="M473 700v-470h119v-89h-119v-141h-99v141h-362v86l303 473h158zM117 230h257v382h-12z" />
    <glyph glyph-name="five" unicode="5" horiz-adv-x="573" 
d="M521 611h-365v-227h12q48 87 163 87q58 0 106 -28t76.5 -80t28.5 -121q0 -75 -31 -133t-88.5 -90.5t-132.5 -32.5q-76 0 -134 29.5t-90 84t-32 125.5v22h98v-16q0 -74 41.5 -115.5t113.5 -41.5q73 0 114 44t41 121q0 68 -37 108t-98 40q-80 0 -115 -67h-135v380h464v-89z
" />
    <glyph glyph-name="six" unicode="6" horiz-adv-x="580" 
d="M513.5 102q-33.5 -55 -91.5 -85t-131 -30q-70 0 -126.5 29.5t-88.5 83.5t-32 123v244q0 77 32.5 132.5t90.5 85t134 29.5q73 0 127 -27.5t83.5 -77.5t29.5 -114h-100q0 60 -36 95.5t-104 35.5q-75 0 -116.5 -40t-41.5 -112v-92h12q20 33 60 57t106 24q64 0 115.5 -30
t81 -83t29.5 -121q0 -72 -33.5 -127zM185.5 342q-42.5 -43 -42.5 -113t42.5 -112t110.5 -42q67 0 109.5 42t42.5 112t-42 113t-110 43t-110.5 -43z" />
    <glyph glyph-name="seven" unicode="7" horiz-adv-x="537" 
d="M526 700v-86l-291 -614h-110l288 610h-403v90h516z" />
    <glyph glyph-name="eight" unicode="8" horiz-adv-x="575" 
d="M73.5 622q30.5 43 86 67.5t127.5 24.5q73 0 128.5 -24.5t86 -67.5t30.5 -97q0 -62 -34 -100t-85 -57v-12q31 -7 60.5 -28.5t49.5 -57t20 -83.5q0 -59 -32.5 -105t-90.5 -71t-133 -25q-74 0 -132.5 25t-91 71t-32.5 105q0 48 20 83.5t50 57t61 28.5v12q-51 19 -85 57
t-34 100q0 54 30.5 97zM182.5 434q40.5 -30 104.5 -30q65 0 105.5 29.5t40.5 81.5t-40.5 81.5t-105.5 29.5t-105 -29.5t-40 -81.5q0 -51 40.5 -81zM172.5 106q42.5 -32 114.5 -32q73 0 115.5 32t42.5 89t-42.5 89t-115.5 32q-72 0 -114.5 -32t-42.5 -89t42.5 -89z" />
    <glyph glyph-name="nine" unicode="9" horiz-adv-x="581" 
d="M66.5 597q32.5 55 90 86t129.5 31q71 0 128 -29.5t89.5 -83.5t32.5 -123v-244q0 -77 -32 -132.5t-90 -85t-134 -29.5q-73 0 -127.5 27.5t-83.5 77t-29 113.5h100q0 -59 36 -94.5t104 -35.5q75 0 116 39.5t41 111.5v92h-12q-19 -33 -59.5 -57t-106.5 -24q-63 0 -114.5 30
t-81 83t-29.5 121q0 71 32.5 126zM395 358q42 43 42 113q0 71 -42 113t-110 42q-67 0 -109.5 -42.5t-42.5 -112.5t42 -113t110 -43t110 43z" />
    <glyph glyph-name="colon" unicode=":" horiz-adv-x="257" 
d="M72.5 120q22.5 22 55.5 22q34 0 56 -22t22 -56t-22 -56t-56 -22q-33 0 -55.5 22t-22.5 56t22.5 56zM72.5 488q22.5 22 55.5 22q34 0 56 -22t22 -56t-22 -56t-56 -22q-33 0 -55.5 22t-22.5 56t22.5 56z" />
    <glyph glyph-name="semicolon" unicode=";" horiz-adv-x="257" 
d="M72.5 488q22.5 22 55.5 22q34 0 56 -22t22 -56t-22 -56t-56 -22q-33 0 -55.5 22t-22.5 56t22.5 56zM71.5 121q21.5 21 55.5 21t55.5 -21.5t21.5 -57.5v-70q0 -54 -29.5 -84.5t-85.5 -30.5h-26v56h29q48 0 48 48v11h-14q-33 0 -54.5 20.5t-21.5 52.5q0 34 21.5 55z" />
    <glyph glyph-name="less" unicode="&#x3c;" 
d="M100 409l420 161v-96l-326 -117v-14l326 -117v-96l-420 161v118z" />
    <glyph glyph-name="equal" unicode="=" 
d="M101 470h418v-86h-418v86zM101 316h418v-86h-418v86z" />
    <glyph glyph-name="greater" unicode="&#x3e;" 
d="M100 130v96l326 117v14l-326 117v96l420 -161v-118z" />
    <glyph glyph-name="question" unicode="?" horiz-adv-x="604" 
d="M84.5 614q32.5 49 90 74.5t129.5 25.5q70 0 125.5 -26t87 -71.5t31.5 -103.5v-5q0 -77 -40 -122t-110 -75l-25 -10q-19 -9 -26.5 -21.5t-7.5 -36.5v-45h-99v50q0 49 17.5 78t62.5 49l25 10q54 24 79 50.5t25 72.5q0 53 -41 83.5t-104 30.5q-67 0 -110 -33t-43 -95v-32
h-99v36q0 67 32.5 116zM234 120q22 22 56 22q33 0 55.5 -22t22.5 -56t-22.5 -56t-55.5 -22q-34 0 -56 22t-22 56t22 56z" />
    <glyph glyph-name="at" unicode="@" horiz-adv-x="1032" 
d="M134 648q52 52 148 52h480q92 0 140 -47.5t48 -139.5v-423q0 -41 -24 -65.5t-67 -24.5h-140q-34 0 -53.5 18.5t-19.5 49.5v12h-14q-14 -40 -48 -67t-93 -27q-60 0 -106.5 32.5t-72.5 89t-26 126.5v17q0 70 25.5 126.5t71 89t102.5 32.5q59 0 91.5 -25t50.5 -63h14v74h91
v-375q0 -27 25 -27h65q18 0 26.5 9t8.5 28v396q0 48 -25.5 73.5t-73.5 25.5h-461q-122 0 -122 -122v-486q0 -122 122 -122h638v-85h-653q-96 0 -148 52t-52 147v502q0 95 52 147zM414.5 117q35.5 -45 94.5 -45t95 44.5t36 120.5v11q0 76 -36 120.5t-95 44.5t-94.5 -44.5
t-35.5 -119.5v-12q0 -75 35.5 -120z" />
    <glyph glyph-name="A" unicode="A" horiz-adv-x="605" 
d="M379 700l216 -700h-103l-52 170h-276l-52 -170h-102l216 700h153zM415 260l-108 354h-10l-108 -354h226z" />
    <glyph glyph-name="B" unicode="B" horiz-adv-x="617" 
d="M515.5 650q57.5 -50 57.5 -134q0 -68 -34.5 -106t-82.5 -52v-10q48 -14 84 -53t36 -107q0 -87 -58 -137.5t-150 -50.5h-300v700h299q91 0 148.5 -50zM358 397q55 0 87.5 29.5t32.5 78.5q0 47 -33 76.5t-88 29.5h-190v-214h191zM359 89q56 0 88.5 30.5t32.5 79.5
q0 51 -32.5 79.5t-90.5 28.5h-190v-218h192z" />
    <glyph glyph-name="C" unicode="C" horiz-adv-x="629" 
d="M119.5 638.5q75.5 75.5 205.5 75.5q126 0 196 -67.5t70 -183.5v-16h-99v17q0 73 -43.5 117.5t-123.5 44.5q-85 0 -133.5 -52.5t-48.5 -144.5v-158q0 -92 48.5 -144.5t133.5 -52.5q81 0 124 44t43 117v23h99v-22q0 -115 -71 -182.5t-195 -67.5q-131 0 -206 75.5t-75 211.5
v154q0 136 75.5 211.5z" />
    <glyph glyph-name="D" unicode="D" horiz-adv-x="621" 
d="M503 628.5q74 -71.5 74 -213.5v-130q0 -142 -74 -213.5t-215 -71.5h-220v700h220q141 0 215 -71.5zM289 89q189 0 189 193v136q0 193 -189 193h-122v-522h122z" />
    <glyph glyph-name="E" unicode="E" horiz-adv-x="556" 
d="M515 700v-89h-348v-214h320v-90h-320v-218h353v-89h-452v700h447z" />
    <glyph glyph-name="F" unicode="F" horiz-adv-x="530" 
d="M503 700v-89h-336v-215h316v-90h-316v-306h-99v700h435z" />
    <glyph glyph-name="G" unicode="G" horiz-adv-x="634" 
d="M120 638.5q76 75.5 206 75.5q125 0 192 -66.5t67 -180.5v-10h-99v11q0 72 -40.5 115t-119.5 43q-85 0 -134 -52.5t-49 -144.5v-158q0 -92 48.5 -144.5t133.5 -52.5q83 0 125 42.5t42 118.5v19h-197v85h294v-95q0 -121 -70 -189.5t-194 -68.5q-131 0 -206 75.5t-75 211.5
v154q0 136 76 211.5z" />
    <glyph glyph-name="H" unicode="H" horiz-adv-x="642" 
d="M167 700v-304h308v304h99v-700h-99v306h-308v-306h-99v700h99z" />
    <glyph glyph-name="I" unicode="I" horiz-adv-x="235" 
d="M167 700v-700h-99v700h99z" />
    <glyph glyph-name="J" unicode="J" horiz-adv-x="537" 
d="M417.5 44q-55.5 -58 -158.5 -58q-105 0 -165.5 58.5t-60.5 165.5v58h99v-58q0 -62 32 -98.5t93 -36.5q59 0 88 36t29 99v490h99v-490q0 -108 -55.5 -166z" />
    <glyph glyph-name="K" unicode="K" horiz-adv-x="635" 
d="M645 700l-306 -288l295 -412h-123l-242 346l-102 -96v-250h-99v700h99v-318h10l327 318h141z" />
    <glyph glyph-name="L" unicode="L" horiz-adv-x="532" 
d="M167 700v-611h349v-89h-448v700h99z" />
    <glyph glyph-name="M" unicode="M" horiz-adv-x="873" 
d="M239 700l193 -599h10l192 599h171v-700h-97v597h-10l-191 -597h-140l-192 597h-10v-597h-97v700h171z" />
    <glyph glyph-name="N" unicode="N" horiz-adv-x="652" 
d="M237 700l238 -597h10v597h99v-700h-169l-238 597h-10v-597h-99v700h169z" />
    <glyph glyph-name="O" unicode="O" horiz-adv-x="646" 
d="M118.5 640.5q74.5 73.5 204.5 73.5t204.5 -73.5t74.5 -209.5v-162q0 -136 -74.5 -209.5t-204.5 -73.5t-204.5 73.5t-74.5 209.5v162q0 136 74.5 209.5zM191 125q48 -51 132 -51t132 51t48 140v170q0 89 -48 140t-132 51t-132 -51t-48 -140v-170q0 -89 48 -140z" />
    <glyph glyph-name="P" unicode="P" horiz-adv-x="585" 
d="M456 674q50 -26 78.5 -74.5t28.5 -112.5q0 -65 -28.5 -113t-79 -74t-113.5 -26h-175v-274h-99v700h274q64 0 114 -26zM332 363q61 0 96.5 33t35.5 91t-35.5 91t-96.5 33h-165v-248h165z" />
    <glyph glyph-name="Q" unicode="Q" horiz-adv-x="646" 
d="M527.5 640.5q74.5 -73.5 74.5 -209.5v-162q0 -123 -61.5 -195t-169.5 -85v-47q0 -30 28 -30h64v-79h-98q-41 0 -65.5 24.5t-24.5 67.5v64q-108 13 -169.5 85t-61.5 195v162q0 136 74.5 209.5t204.5 73.5t204.5 -73.5zM503 435q0 89 -48 140t-132 51t-132 -51t-48 -140
v-170q0 -89 48 -140t132 -51t132 51t48 140v170z" />
    <glyph glyph-name="R" unicode="R" horiz-adv-x="615" 
d="M537.5 354.5q-45.5 -54.5 -120.5 -69.5l153 -285h-113l-143 280h-147v-280h-99v700h294q64 0 114 -25.5t78.5 -73t28.5 -111.5q0 -81 -45.5 -135.5zM167 368h185q62 0 97 32.5t35 89.5q0 56 -35.5 88.5t-96.5 32.5h-185v-243z" />
    <glyph glyph-name="S" unicode="S" horiz-adv-x="598" 
d="M480.5 657q70.5 -57 70.5 -163v-27h-98v27q0 68 -41.5 100.5t-113.5 32.5q-67 0 -105 -27.5t-38 -78.5q0 -48 32.5 -72.5t105.5 -41.5l43 -10q109 -25 166 -70.5t57 -132.5q0 -62 -31.5 -109t-89.5 -73t-135 -26q-121 0 -195 64t-74 182v9h98v-9q0 -79 45.5 -119
t125.5 -40q75 0 117 32.5t42 86.5q0 50 -36 74.5t-113 42.5l-43 10q-106 24 -159.5 69t-53.5 131q0 90 66 142.5t175 52.5q112 0 182.5 -57z" />
    <glyph glyph-name="T" unicode="T" horiz-adv-x="579" 
d="M565 700v-89h-226v-611h-99v611h-226v89h551z" />
    <glyph glyph-name="U" unicode="U" horiz-adv-x="654" 
d="M163 236q0 -79 42.5 -120.5t121.5 -41.5t121.5 41.5t42.5 120.5v464h99v-462q0 -120 -70.5 -186t-192.5 -66t-192.5 66t-70.5 186v462h99v-464z" />
    <glyph glyph-name="V" unicode="V" horiz-adv-x="605" 
d="M112 700l185 -614h10l185 614h103l-216 -700h-154l-215 700h102z" />
    <glyph glyph-name="W" unicode="W" horiz-adv-x="886" 
d="M122 700l101 -601h10l133 601h154l133 -601h10l100 601h100l-123 -700h-159l-133 602h-10l-133 -602h-160l-123 700h100z" />
    <glyph glyph-name="X" unicode="X" horiz-adv-x="622" 
d="M138 700l168 -281h10l168 281h115l-216 -347l219 -353h-115l-171 287h-10l-171 -287h-114l219 353l-217 347h115z" />
    <glyph glyph-name="Y" unicode="Y" horiz-adv-x="615" 
d="M121 700l182 -331h10l181 331h113l-250 -439v-261h-99v261l-250 439h113z" />
    <glyph glyph-name="Z" unicode="Z" horiz-adv-x="577" 
d="M537 700v-84l-377 -528h383v-88h-506v84l376 528h-366v88h490z" />
    <glyph glyph-name="bracketleft" unicode="[" horiz-adv-x="355" 
d="M151 782q24 24 61 24h114v-85h-78q-27 0 -27 -30v-822q0 -30 27 -30h78v-85h-114q-37 0 -61 24t-24 62v880q0 38 24 62z" />
    <glyph glyph-name="backslash" unicode="\" horiz-adv-x="486" 
d="M440 -200h-94l-294 900h94z" />
    <glyph glyph-name="bracketright" unicode="]" horiz-adv-x="355" 
d="M204 -222q-24 -24 -62 -24h-113v85h78q27 0 27 30v822q0 30 -27 30h-78v85h113q38 0 62 -24t24 -62v-880q0 -38 -24 -62z" />
    <glyph glyph-name="asciicircum" unicode="^" 
d="M547 424h-109l-121 213h-14l-121 -213h-109l165 276h144z" />
    <glyph glyph-name="underscore" unicode="_" 
d="M73 -48h474v-86h-474v86z" />
    <glyph glyph-name="grave" unicode="`" horiz-adv-x="268" 
d="M219 570h-85l-85 130h109z" />
    <glyph glyph-name="a" unicode="a" horiz-adv-x="534" 
d="M128.5 464.5q53.5 40.5 141.5 40.5q95 0 149 -49t54 -137v-319h-90v66h-12q-44 -80 -151 -80q-79 0 -130 41.5t-51 113.5q0 73 51.5 112.5t134.5 39.5h156v32q0 47 -28.5 75t-83.5 28q-53 0 -84.5 -26.5t-41.5 -70.5l-88 28q20 65 73.5 105.5zM160.5 85
q27.5 -22 75.5 -22q65 0 105 39t40 105v10h-151q-44 0 -70.5 -19.5t-26.5 -54.5q0 -36 27.5 -58z" />
    <glyph glyph-name="b" unicode="b" horiz-adv-x="611" 
d="M161 415h10q55 90 175 90q63 0 115 -32t83 -91.5t31 -136.5t-31 -136t-83 -91t-115 -32q-119 0 -177 92h-10v-78h-92v700h94v-285zM204.5 375q-44.5 -48 -44.5 -130q0 -81 44.5 -129t116.5 -48q71 0 115 47.5t44 129.5q0 83 -44 130.5t-115 47.5q-72 0 -116.5 -48z" />
    <glyph glyph-name="c" unicode="c" horiz-adv-x="563" 
d="M70 379.5q34 59.5 92 92.5t129 33q96 0 158.5 -53t77.5 -135l-92 -19q-6 55 -44 89.5t-99 34.5q-46 0 -82.5 -22t-57.5 -62.5t-21 -92.5t21 -92t58 -62t82 -22q63 0 100 33.5t47 91.5l91 -21q-19 -84 -80.5 -135.5t-158.5 -51.5q-71 0 -129 33t-92 92.5t-34 133.5
q0 75 34 134.5z" />
    <glyph glyph-name="d" unicode="d" horiz-adv-x="611" 
d="M452 0v78h-10q-57 -92 -178 -92q-62 0 -114.5 32t-83 91t-30.5 136t30.5 136.5t83 91.5t114.5 32q121 0 176 -90h10v285h94v-700h-92zM175 375.5q-44 -47.5 -44 -130.5q0 -82 44 -129.5t115 -47.5t116 48t45 129q0 82 -45 130t-116 48t-115 -47.5z" />
    <glyph glyph-name="e" unicode="e" horiz-adv-x="551" 
d="M67.5 381.5q31.5 58.5 87.5 91t127 32.5q70 0 123.5 -30t83.5 -86t30 -130v-46h-387q5 -64 48 -104.5t109 -40.5q55 0 89 25t55 66l78 -44q-32 -54 -82.5 -91.5t-139.5 -37.5q-75 0 -132.5 34t-89 94t-31.5 135q0 74 31.5 132.5zM381 387.5q-38 35.5 -99 35.5
q-63 0 -102 -36t-47 -98h290q-4 63 -42 98.5z" />
    <glyph glyph-name="f" unicode="f" horiz-adv-x="426" 
d="M162 608q0 43 25 67.5t66 24.5h129v-77h-98q-28 0 -28 -30v-102h146v-77h-146v-414h-94v414h-143v77h143v117z" />
    <glyph glyph-name="g" unicode="g" horiz-adv-x="611" 
d="M544 491v-465q0 -114 -68.5 -177t-183.5 -63q-102 0 -164 47t-83 111l85 35q15 -49 54.5 -81t105.5 -32q74 0 117 42t43 122v58h-10q-57 -89 -176 -89q-62 0 -114.5 31.5t-83 89t-30.5 132.5q0 74 30.5 132t83 89.5t114.5 31.5q121 0 178 -93h10v79h92zM406 127
q45 47 45 125t-45 124.5t-116 46.5t-115 -46.5t-44 -124.5q0 -79 44 -125.5t115 -46.5t116 47z" />
    <glyph glyph-name="h" unicode="h" horiz-adv-x="589" 
d="M161 416h10q45 84 164 84q55 0 99 -24.5t69 -70.5t25 -109v-296h-93v291q0 66 -33 98.5t-94 32.5q-67 0 -107 -45t-40 -127v-250h-94v700h94v-284z" />
    <glyph glyph-name="i" unicode="i" horiz-adv-x="228" 
d="M161 0h-94v491h94v-491zM62.5 691.5q20.5 20.5 51.5 20.5q32 0 52.5 -20.5t20.5 -51.5t-20.5 -51t-52.5 -20q-31 0 -51.5 20t-20.5 51t20.5 51.5z" />
    <glyph glyph-name="j" unicode="j" horiz-adv-x="234" 
d="M141.5 -175.5q-24.5 -24.5 -65.5 -24.5h-124v77h93q28 0 28 30v584h93v-599q0 -43 -24.5 -67.5zM67.5 691.5q20.5 20.5 51.5 20.5q32 0 52.5 -20.5t20.5 -51.5t-20.5 -51t-52.5 -20q-31 0 -51.5 20t-20.5 51t20.5 51.5z" />
    <glyph glyph-name="k" unicode="k" horiz-adv-x="564" 
d="M549 491l-230 -198l226 -293h-115l-178 235l-91 -79v-156h-94v700h94v-429l249 220h139z" />
    <glyph glyph-name="l" unicode="l" horiz-adv-x="228" 
d="M161 0h-94v700h94v-700z" />
    <glyph glyph-name="m" unicode="m" horiz-adv-x="833" 
d="M159 428h10q39 72 137 72q53 0 88 -23t53 -62h10q44 85 149 85q73 0 119 -45.5t46 -125.5v-329h-93v323q0 47 -26.5 73t-73.5 26q-51 0 -81.5 -33t-30.5 -93v-296h-94v323q0 47 -26 73t-73 26q-51 0 -81.5 -33t-30.5 -93v-296h-94v491h92v-63z" />
    <glyph glyph-name="n" unicode="n" horiz-adv-x="589" 
d="M159 412h10q19 38 59 63t107 25q55 0 99 -24.5t69 -70.5t25 -109v-296h-93v291q0 66 -33 98.5t-94 32.5q-67 0 -107 -45t-40 -127v-250h-94v491h92v-79z" />
    <glyph glyph-name="o" unicode="o" horiz-adv-x="579" 
d="M68 381q32 59 89.5 91.5t131.5 32.5t131.5 -32.5t90 -91.5t32.5 -136t-32.5 -135.5t-90 -91t-131.5 -32.5q-73 0 -131 32.5t-90 91t-32 135.5t32 136zM173.5 116.5q43.5 -47.5 115.5 -47.5t116 48t44 128t-44 128.5t-116 48.5q-71 0 -115 -49t-44 -128q0 -81 43.5 -128.5
z" />
    <glyph glyph-name="p" unicode="p" horiz-adv-x="611" 
d="M159 491v-79h10q57 93 177 93q63 0 115 -32t83 -91.5t31 -136.5t-31 -136t-83 -91t-115 -32q-120 0 -175 89h-10v-275h-94v691h92zM436 115.5q44 47.5 44 129.5q0 83 -44 130.5t-115 47.5q-72 0 -116.5 -48t-44.5 -130q0 -81 44.5 -129t116.5 -48q71 0 115 47.5z" />
    <glyph glyph-name="q" unicode="q" horiz-adv-x="611" 
d="M450 75h-10q-55 -89 -176 -89q-62 0 -114.5 32t-83 91t-30.5 136t30.5 136.5t83 91.5t114.5 32q121 0 178 -93h10v79h92v-691h-94v275zM406 116q45 48 45 129q0 82 -45 130t-116 48t-115 -47.5t-44 -130.5q0 -82 44 -129.5t115 -47.5t116 48z" />
    <glyph glyph-name="r" unicode="r" horiz-adv-x="368" 
d="M169 425q14 36 43.5 52t79.5 16h61v-81h-77q-54 0 -84.5 -29t-30.5 -87v-296h-94v491h92v-66h10z" />
    <glyph glyph-name="s" unicode="s" horiz-adv-x="502" 
d="M108 466.5q51 38.5 138 38.5q81 0 134 -37.5t69 -102.5l-86 -25q-19 91 -117 91q-45 0 -71 -17.5t-26 -48.5q0 -30 23.5 -46.5t69.5 -24.5l42 -6q90 -16 136.5 -47.5t46.5 -99.5q0 -73 -54.5 -114t-146.5 -41q-95 0 -156 43.5t-74 127.5l88 22q20 -119 142 -119
q51 0 80.5 20.5t29.5 54.5q0 31 -26 47.5t-80 25.5l-42 7q-80 14 -125.5 48t-45.5 97q0 68 51 106.5z" />
    <glyph glyph-name="t" unicode="t" horiz-adv-x="429" 
d="M150 491v168h94v-168h152v-77h-152v-307q0 -30 28 -30h105v-77h-136q-41 0 -66 25t-25 67v322h-142v77h142z" />
    <glyph glyph-name="u" unicode="u" horiz-adv-x="594" 
d="M435 79h-10q-19 -38 -59 -63t-107 -25q-55 0 -99 24.5t-69 70.5t-25 109v296h93v-291q0 -66 33 -98.5t94 -32.5q67 0 107 45t40 127v250h94v-491h-92v79z" />
    <glyph glyph-name="v" unicode="v" horiz-adv-x="529" 
d="M117 491l142 -408h10l143 408h102l-182 -491h-136l-181 491h102z" />
    <glyph glyph-name="w" unicode="w" horiz-adv-x="766" 
d="M123 491l81 -408h10l104 408h130l104 -408h10l81 408h95l-111 -491h-135l-104 408h-10l-104 -408h-135l-111 491h95z" />
    <glyph glyph-name="x" unicode="x" horiz-adv-x="572" 
d="M144 491l137 -185h10l138 185h111l-184 -242l189 -249h-114l-140 190h-10l-140 -190h-113l188 249l-184 242h112z" />
    <glyph glyph-name="y" unicode="y" horiz-adv-x="548" 
d="M431 491h102l-285 -691h-102l78 181l-209 510h102l152 -384h10z" />
    <glyph glyph-name="z" unicode="z" horiz-adv-x="529" 
d="M481 491v-70l-308 -344h316v-77h-442v70l309 344h-299v77h424z" />
    <glyph glyph-name="braceleft" unicode="{" horiz-adv-x="389" 
d="M162 364v356q0 38 24 62t61 24h114v-85h-79q-27 0 -27 -30v-328q0 -34 -19.5 -55.5t-54.5 -21.5h-11v-12h11q35 0 54.5 -21.5t19.5 -55.5v-328q0 -30 27 -30h79v-85h-114q-37 0 -61 24t-24 62v356q0 29 -27 29h-62v110h62q27 0 27 29z" />
    <glyph glyph-name="bar" unicode="|" horiz-adv-x="230" 
d="M162 -246h-94v1052h94v-1052z" />
    <glyph glyph-name="braceright" unicode="}" horiz-adv-x="389" 
d="M255 225q-27 0 -27 -29v-356q0 -38 -24 -62t-62 -24h-113v85h78q27 0 27 30v328q0 34 20 55.5t54 21.5h11v12h-11q-34 0 -54 21.5t-20 55.5v328q0 30 -27 30h-78v85h113q38 0 62 -24t24 -62v-356q0 -29 27 -29h61v-110h-61z" />
    <glyph glyph-name="asciitilde" unicode="~" 
d="M355.5 337.5q7.5 -7.5 19.5 -7.5q16 0 35 17l85 66l54 -68l-102 -80q-22 -17 -40.5 -26.5t-40.5 -9.5q-30 0 -49 13t-33 37q-12 20 -19.5 27.5t-20.5 7.5q-15 0 -34 -17l-85 -66l-54 68l102 80q21 17 39.5 26t40.5 9q31 0 50 -12.5t33 -36.5q12 -20 19.5 -27.5z" />
    <glyph glyph-name="uni00A0" unicode="&#xa0;" horiz-adv-x="296" 
 />
    <glyph glyph-name="exclamdown" unicode="&#xa1;" horiz-adv-x="257" 
d="M184 371q-22 -22 -56 -22q-33 0 -55.5 22t-22.5 56t22.5 56t55.5 22q34 0 56 -22t22 -56t-22 -56zM78 -200l10 493h80l11 -493h-101z" />
    <glyph glyph-name="cent" unicode="&#xa2;" horiz-adv-x="602" 
d="M465 444v14q0 65 -27.5 107t-80.5 55v-541q108 23 108 161v18h99v-21q0 -106 -53.5 -171t-153.5 -77v-105h-90v105q-106 13 -164.5 87t-58.5 201v146q0 123 59 198.5t164 89.5v105h90v-105q100 -13 153.5 -78t53.5 -171v-18h-99zM174.5 142q31.5 -50 92.5 -63v541
q-60 -14 -92 -64.5t-32 -126.5v-158q0 -79 31.5 -129z" />
    <glyph glyph-name="sterling" unicode="&#xa3;" horiz-adv-x="631" 
d="M130 495q0 106 57 162.5t157 56.5q104 0 163.5 -57.5t59.5 -161.5v-58h-96v60q0 60 -33 94t-91 34q-57 0 -89 -34t-32 -94v-114h117v-84h-117v-210h345v-89h-515v89h74v210h-70v84h70v112z" />
    <glyph glyph-name="currency" unicode="&#xa4;" 
d="M166 554q67 46 144 46q39 0 76 -12t68 -34l60 60l60 -60l-60 -60q22 -31 34 -68t12 -76q0 -77 -46 -144l60 -59l-60 -60l-60 59q-30 -22 -67 -34t-77 -12q-81 0 -144 46l-59 -59l-60 60l59 59q-46 63 -46 144q0 40 12 77t34 67l-59 60l60 60zM166 264.5q22 -38.5 60 -60
t84 -21.5t84 21.5t60 59.5t22 86q0 47 -22 85.5t-60 60.5t-84 22t-84 -22t-60 -60t-22 -86q0 -47 22 -85.5z" />
    <glyph glyph-name="yen" unicode="&#xa5;" 
d="M609 700l-197 -351h108v-78h-161v-55h161v-79h-161v-137h-98v137h-161v79h161v55h-161v78h108l-197 351h113l179 -323h14l179 323h113z" />
    <glyph glyph-name="brokenbar" unicode="&#xa6;" horiz-adv-x="230" 
d="M68 366v440h94v-440h-94zM162 194v-440h-94v440h94z" />
    <glyph glyph-name="section" unicode="&#xa7;" horiz-adv-x="490" 
d="M112.5 673q50.5 41 128.5 41q87 0 140.5 -43.5t53.5 -119.5v-29h-86v22q0 42 -29 66.5t-77 24.5q-42 0 -68.5 -19t-26.5 -54q0 -40 30 -59t92 -31q88 -18 130 -53.5t42 -97.5q0 -51 -23 -84q22 -34 22 -79v-7q0 -75 -50 -120t-140 -45q-98 0 -155 53.5t-57 144.5v18h85
v-15q0 -57 32.5 -89.5t94.5 -32.5q50 0 77 22t27 62q0 39 -26 58t-89 30q-90 16 -134 53t-44 103q0 49 25 82q-25 32 -25 82v5q0 70 50.5 111zM347 292q7 9 7 25q0 32 -26 50t-87 29q-40 7 -85 26q-7 -10 -7 -29q0 -33 28.5 -51t91.5 -28q48 -8 78 -22z" />
    <glyph glyph-name="dieresis" unicode="&#xa8;" horiz-adv-x="431" 
d="M69.5 691.5q20.5 20.5 51.5 20.5q32 0 52.5 -20.5t20.5 -51.5t-20.5 -51t-52.5 -20q-31 0 -51.5 20t-20.5 51t20.5 51.5zM257.5 691.5q20.5 20.5 51.5 20.5q32 0 52.5 -20.5t20.5 -51.5t-20.5 -51t-52.5 -20q-31 0 -51.5 20t-20.5 51t20.5 51.5z" />
    <glyph glyph-name="copyright" unicode="&#xa9;" horiz-adv-x="724" 
d="M117.5 651q49.5 49 139.5 49h210q91 0 140 -49t49 -145v-312q0 -95 -49 -144.5t-140 -49.5h-210q-90 0 -139.5 49.5t-49.5 144.5v312q0 96 49.5 145zM176.5 107.5q28.5 -32.5 89.5 -32.5h192q61 0 89.5 32.5t28.5 96.5v292q0 64 -28.5 96.5t-89.5 32.5h-192
q-61 0 -89.5 -32.5t-28.5 -96.5v-292q0 -64 28.5 -96.5zM260 521q39 41 105 41q68 0 104 -38.5t36 -104.5v-18h-77v24q0 30 -15.5 47.5t-46.5 17.5t-48.5 -18.5t-17.5 -52.5v-139q0 -32 18.5 -50t47.5 -18q62 0 62 67v21h77v-17q0 -66 -35.5 -104.5t-103.5 -38.5
q-67 0 -106 40t-39 115v109q0 76 39 117z" />
    <glyph glyph-name="ordfeminine" unicode="&#xaa;" horiz-adv-x="394" 
d="M73.5 528.5q36.5 27.5 96.5 27.5h105v24q0 33 -18.5 51.5t-55.5 18.5q-36 0 -57.5 -17t-28.5 -45l-69 19q14 45 54 74t102 29q66 0 106 -35t40 -98v-227h-69v45h-9q-8 -22 -34 -38.5t-71 -16.5q-56 0 -92 28.5t-36 80.5t36.5 79.5zM128 413.5q19 -13.5 51 -13.5
q45 0 70.5 24.5t25.5 68.5v7h-100q-30 0 -48 -12.5t-18 -36.5t19 -37.5z" />
    <glyph glyph-name="guillemotleft" unicode="&#xab;" horiz-adv-x="780" 
d="M379 477h6v-104l-226 -121v-13l226 -121v-104h-6l-314 180v103zM705 477h6v-104l-225 -121v-13l225 -121v-104h-6l-314 180v103z" />
    <glyph glyph-name="logicalnot" unicode="&#xac;" 
d="M101 393h418v-185h-86v99h-332v86z" />
    <glyph glyph-name="uni00AD" unicode="&#xad;" horiz-adv-x="460" 
d="M82 299h296v-86h-296v86z" />
    <glyph glyph-name="registered" unicode="&#xae;" 
d="M127.5 613.5q27.5 47.5 75.5 74t107 26.5t107 -26.5t75.5 -74t27.5 -107.5t-27.5 -107.5t-75.5 -74t-107 -26.5t-107 26.5t-75.5 74t-27.5 107.5t27.5 107.5zM188 384q46 -46 122 -46t122 46t46 122t-46 122t-122 46t-122 -46t-46 -122t46 -122zM378 601q20 -18 20 -44
q0 -42 -40 -56v-6q16 -1 24 -11t8 -23v-64h-40v61q0 10 -5.5 15.5t-15.5 5.5h-51v-82h-40v222h85q35 0 55 -18zM324 515q16 0 25 10t9 24q0 15 -9 24.5t-25 9.5h-46v-68h46z" />
    <glyph glyph-name="macron" unicode="&#xaf;" horiz-adv-x="383" 
d="M334 570h-285v77h285v-77z" />
    <glyph glyph-name="degree" unicode="&#xb0;" horiz-adv-x="387" 
d="M68 647q19 32 52 50.5t73 18.5q62 0 103.5 -39.5t41.5 -101.5q0 -40 -19.5 -72t-53 -50t-72.5 -18t-72 18.5t-52.5 50.5t-19.5 71q0 40 19 72zM146.5 528.5q18.5 -18.5 46.5 -18.5q29 0 47.5 18.5t18.5 46.5q0 29 -18.5 47t-47.5 18q-28 0 -46.5 -18t-18.5 -47
q0 -28 18.5 -46.5z" />
    <glyph glyph-name="plusminus" unicode="&#xb1;" 
d="M101 393h166v166h86v-166h166v-86h-166v-159h-86v159h-166v86zM101 86h418v-86h-418v86z" />
    <glyph glyph-name="uni00B2" unicode="&#xb2;" horiz-adv-x="354" 
d="M289.5 680q41.5 -33 41.5 -87q0 -52 -33.5 -79.5t-102.5 -42.5q-47 -11 -69 -23.5t-26 -33.5h229v-64h-308v35q0 56 33.5 90t103.5 50q52 13 74 27.5t22 40.5q0 25 -20.5 40.5t-52.5 15.5q-36 0 -58 -19t-23 -55h-76q1 65 44.5 101.5t113.5 36.5q66 0 107.5 -33z" />
    <glyph glyph-name="uni00B3" unicode="&#xb3;" horiz-adv-x="357" 
d="M333 646l-115 -74v-10q51 -2 84 -27.5t33 -74.5q0 -54 -44.5 -88.5t-111.5 -34.5q-71 0 -115 35.5t-46 98.5h77q1 -32 23.5 -50.5t58.5 -18.5t58 17t22 44q0 26 -20.5 40.5t-59.5 14.5h-62v51l102 67h-192v64h308v-54z" />
    <glyph glyph-name="acute" unicode="&#xb4;" horiz-adv-x="268" 
d="M218 700l-81 -130h-86l56 130h111z" />
    <glyph glyph-name="uni00B5" unicode="&#xb5;" horiz-adv-x="594" 
d="M161 496v-288q0 -68 33 -103t97 -35q71 0 109.5 43.5t38.5 123.5v259h94v-496h-92v83h-12q-37 -97 -142 -97q-73 0 -114 49h-12v-235h-94v696h94z" />
    <glyph glyph-name="paragraph" unicode="&#xb6;" horiz-adv-x="582" 
d="M52 605q28 44 77.5 68t113.5 24h271v-697h-85v618h-86v-618h-85v296h-18q-63 0 -112 24t-76.5 68.5t-27.5 102.5v11q0 59 28 103zM143 408q34 -33 94 -33h21v243h-21q-60 0 -94 -32.5t-34 -85.5v-6q0 -53 34 -86z" />
    <glyph glyph-name="periodcentered" unicode="&#xb7;" horiz-adv-x="257" 
d="M72.5 406q22.5 22 55.5 22q34 0 56 -22t22 -56t-22 -56t-56 -22q-33 0 -55.5 22t-22.5 56t22.5 56z" />
    <glyph glyph-name="cedilla" unicode="&#xb8;" horiz-adv-x="301" 
d="M115 -60h9q7 9 20 15t30 6q33 0 55.5 -21.5t22.5 -60.5q0 -42 -28.5 -67t-72.5 -25q-57 0 -87 39l34 48q7 -13 20 -20.5t29 -7.5q17 0 27.5 9.5t10.5 25.5q0 14 -8 22.5t-22 8.5q-17 0 -26 -13h-80v8l26 125h58z" />
    <glyph glyph-name="uni00B9" unicode="&#xb9;" horiz-adv-x="250" 
d="M208 700v-350h-78v260h-10l-38 -66h-72v10l86 146h112z" />
    <glyph glyph-name="ordmasculine" unicode="&#xba;" horiz-adv-x="417" 
d="M80 660.5q48 49.5 128 49.5t128.5 -50t48.5 -135t-48.5 -135t-128.5 -50t-128 49.5t-48 135.5t48 135.5zM132.5 434q28.5 -33 75.5 -33t75.5 33t28.5 91t-28.5 91t-75.5 33t-75.5 -33t-28.5 -91t28.5 -91z" />
    <glyph glyph-name="guillemotright" unicode="&#xbb;" horiz-adv-x="780" 
d="M385 194l-314 -180h-6v104l225 121v13l-225 121v104h6l314 -180v-103zM711 194l-314 -180h-6v104l226 121v13l-226 121v104h6l314 -180v-103z" />
    <glyph glyph-name="onequarter" unicode="&#xbc;" horiz-adv-x="741" 
d="M208 700v-350h-78v260h-10l-38 -66h-72v10l86 146h112zM530 713l78 -58l-200 -233l-51 37zM97 -13l-78 58l200 234l51 -38zM628 350v-209h72v-62h-72v-79h-78v79h-210v56l165 215h123zM425 141h125v146h-9z" />
    <glyph glyph-name="onehalf" unicode="&#xbd;" horiz-adv-x="730" 
d="M208 700v-350h-78v260h-10l-38 -66h-72v10l86 146h112zM530 713l78 -58l-200 -233l-51 37zM97 -13l-78 58l200 234l51 -38zM646.5 330q41.5 -33 41.5 -87q0 -52 -33.5 -79.5t-102.5 -42.5q-47 -11 -69 -23.5t-26 -33.5h229v-64h-308v35q0 56 33.5 90t103.5 50
q52 13 74 27.5t22 40.5q0 25 -20.5 40.5t-52.5 15.5q-36 0 -58 -19t-23 -55h-76q1 65 44.5 101.5t113.5 36.5q66 0 107.5 -33z" />
    <glyph glyph-name="threequarters" unicode="&#xbe;" horiz-adv-x="807" 
d="M333 646l-115 -74v-10q51 -2 84 -27.5t33 -74.5q0 -54 -44.5 -88.5t-111.5 -34.5q-71 0 -115 35.5t-46 98.5h77q1 -32 23.5 -50.5t58.5 -18.5t58 17t22 44q0 26 -20.5 40.5t-59.5 14.5h-62v51l102 67h-192v64h308v-54zM617 713l78 -58l-200 -233l-51 37zM184 -13l-78 58
l200 234l51 -38zM714 350v-209h72v-62h-72v-79h-78v79h-210v56l165 215h123zM511 141h125v146h-9z" />
    <glyph glyph-name="questiondown" unicode="&#xbf;" horiz-adv-x="604" 
d="M257.5 488q22.5 22 55.5 22q34 0 56 -22t22 -56t-22 -56t-56 -22q-33 0 -55.5 22t-22.5 56t22.5 56zM518.5 -115q-32.5 -49 -89.5 -74.5t-129 -25.5q-70 0 -126 25.5t-87.5 71.5t-31.5 104v5q0 77 40.5 122t109.5 74l25 11q19 8 26.5 21t7.5 37v42h99v-47
q0 -49 -17.5 -78t-62.5 -49l-24 -10q-56 -25 -80.5 -51t-24.5 -72q0 -53 41 -83.5t105 -30.5q66 0 109 33t43 95v32h99v-37q0 -66 -32.5 -115z" />
    <glyph glyph-name="Agrave" unicode="&#xc0;" horiz-adv-x="605" 
d="M379 700l216 -700h-103l-52 170h-276l-52 -170h-102l216 700h153zM415 260l-108 354h-10l-108 -354h226zM365 764h-86l-84 116h110z" />
    <glyph glyph-name="Aacute" unicode="&#xc1;" horiz-adv-x="605" 
d="M379 700l216 -700h-103l-52 170h-276l-52 -170h-102l216 700h153zM415 260l-108 354h-10l-108 -354h226zM408 880l-82 -116h-87l56 116h113z" />
    <glyph glyph-name="Acircumflex" unicode="&#xc2;" horiz-adv-x="605" 
d="M379 700l216 -700h-103l-52 170h-276l-52 -170h-102l216 700h153zM415 260l-108 354h-10l-108 -354h226zM306 829h-11l-52 -65h-98l97 116h117l98 -116h-98z" />
    <glyph glyph-name="Atilde" unicode="&#xc3;" horiz-adv-x="605" 
d="M379 700l216 -700h-103l-52 170h-276l-52 -170h-102l216 700h153zM415 260l-108 354h-10l-108 -354h226zM203.5 889.5q17.5 10.5 40.5 10.5q22 0 39.5 -10t34.5 -32q12 -15 18.5 -20.5t17.5 -5.5q12 0 18.5 5t15.5 17l28 38l60 -45l-43 -58q-15 -21 -32.5 -31.5
t-41.5 -10.5q-41 0 -74 42q-2 2 -9 11t-13 12.5t-14 3.5q-12 0 -18.5 -5.5t-15.5 -17.5l-28 -38l-59 46l42 57q16 21 33.5 31.5z" />
    <glyph glyph-name="Adieresis" unicode="&#xc4;" horiz-adv-x="605" 
d="M379 700l216 -700h-103l-52 170h-276l-52 -170h-102l216 700h153zM415 260l-108 354h-10l-108 -354h226zM151.5 870.5q20.5 20.5 51.5 20.5q32 0 52.5 -20.5t20.5 -51.5t-20.5 -51t-52.5 -20q-31 0 -51.5 20t-20.5 51t20.5 51.5zM345.5 870.5q20.5 20.5 51.5 20.5
q32 0 52.5 -20.5t20.5 -51.5t-20.5 -51t-52.5 -20q-31 0 -51.5 20t-20.5 51t20.5 51.5z" />
    <glyph glyph-name="Aring" unicode="&#xc5;" horiz-adv-x="605" 
d="M379 700l216 -700h-103l-52 170h-276l-52 -170h-102l216 700h153zM415 260l-108 354h-10l-108 -354h226zM228 910q29 28 73 28t73.5 -28t29.5 -71q0 -44 -30 -72t-73 -28t-72.5 28.5t-29.5 71.5t29 71zM273 811q11 -11 28 -11q18 0 28.5 11t10.5 28t-10.5 28t-28.5 11
q-17 0 -28 -11t-11 -28t11 -28z" />
    <glyph glyph-name="AE" unicode="&#xc6;" horiz-adv-x="607" 
d="M398 92h172v-92h-271v169h-137l-50 -169h-102l210 700h345v-92h-167v-211h142v-92h-142v-213zM299 260v348h-10l-105 -348h115z" />
    <glyph glyph-name="Ccedilla" unicode="&#xc7;" horiz-adv-x="629" 
d="M492 447v17q0 73 -43.5 117.5t-123.5 44.5q-85 0 -133.5 -52.5t-48.5 -144.5v-158q0 -92 48.5 -144.5t133.5 -52.5q81 0 124 44t43 117v23h99v-22q0 -110 -64.5 -176.5t-178.5 -72.5l-9 -47h9q7 9 20 15t30 6q33 0 55.5 -21.5t22.5 -60.5q0 -42 -28.5 -67t-72.5 -25
q-57 0 -87 39l34 48q7 -13 20 -20.5t29 -7.5q17 0 27.5 9.5t10.5 25.5q0 14 -8 22.5t-22 8.5q-17 0 -26 -13h-80v8l17 80q-116 11 -181 85.5t-65 200.5v154q0 136 75.5 211.5t205.5 75.5q126 0 196 -67.5t70 -183.5v-16h-99z" />
    <glyph glyph-name="Egrave" unicode="&#xc8;" horiz-adv-x="556" 
d="M515 700v-89h-348v-214h320v-90h-320v-218h353v-89h-452v700h447zM361 764h-86l-84 116h110z" />
    <glyph glyph-name="Eacute" unicode="&#xc9;" horiz-adv-x="556" 
d="M515 700v-89h-348v-214h320v-90h-320v-218h353v-89h-452v700h447zM404 880l-82 -116h-87l56 116h113z" />
    <glyph glyph-name="Ecircumflex" unicode="&#xca;" horiz-adv-x="556" 
d="M515 700v-89h-348v-214h320v-90h-320v-218h353v-89h-452v700h447zM302 829h-11l-52 -65h-98l97 116h117l98 -116h-98z" />
    <glyph glyph-name="Edieresis" unicode="&#xcb;" horiz-adv-x="556" 
d="M515 700v-89h-348v-214h320v-90h-320v-218h353v-89h-452v700h447zM148.5 870.5q20.5 20.5 51.5 20.5q32 0 52.5 -20.5t20.5 -51.5t-20.5 -51t-52.5 -20q-31 0 -51.5 20t-20.5 51t20.5 51.5zM342.5 870.5q20.5 20.5 51.5 20.5q32 0 52.5 -20.5t20.5 -51.5t-20.5 -51
t-52.5 -20q-31 0 -51.5 20t-20.5 51t20.5 51.5z" />
    <glyph glyph-name="Igrave" unicode="&#xcc;" horiz-adv-x="235" 
d="M167 700v-700h-99v700h99zM181 764h-86l-84 116h110z" />
    <glyph glyph-name="Iacute" unicode="&#xcd;" horiz-adv-x="235" 
d="M167 700v-700h-99v700h99zM224 880l-82 -116h-87l56 116h113z" />
    <glyph glyph-name="Icircumflex" unicode="&#xce;" horiz-adv-x="235" 
d="M167 700v-700h-99v700h99zM123 829h-11l-52 -65h-98l97 116h117l98 -116h-98z" />
    <glyph glyph-name="Idieresis" unicode="&#xcf;" horiz-adv-x="235" 
d="M167 700v-700h-99v700h99zM-31.5 870.5q20.5 20.5 51.5 20.5q32 0 52.5 -20.5t20.5 -51.5t-20.5 -51t-52.5 -20q-31 0 -51.5 20t-20.5 51t20.5 51.5zM162.5 870.5q20.5 20.5 51.5 20.5q32 0 52.5 -20.5t20.5 -51.5t-20.5 -51t-52.5 -20q-31 0 -51.5 20t-20.5 51
t20.5 51.5z" />
    <glyph glyph-name="Eth" unicode="&#xd0;" horiz-adv-x="621" 
d="M503 628.5q74 -71.5 74 -213.5v-130q0 -142 -74 -213.5t-215 -71.5h-220v311h-82v82h82v307h220q141 0 215 -71.5zM478 418q0 193 -189 193h-122v-218h139v-82h-139v-222h122q189 0 189 193v136z" />
    <glyph glyph-name="Ntilde" unicode="&#xd1;" horiz-adv-x="652" 
d="M237 700l238 -597h10v597h99v-700h-169l-238 597h-10v-597h-99v700h169zM230.5 889.5q17.5 10.5 40.5 10.5q22 0 39.5 -10t34.5 -32q12 -15 18.5 -20.5t17.5 -5.5q12 0 18.5 5t15.5 17l28 38l60 -45l-43 -58q-15 -21 -32.5 -31.5t-41.5 -10.5q-41 0 -74 42q-2 2 -9 11
t-13 12.5t-14 3.5q-12 0 -18.5 -5.5t-15.5 -17.5l-28 -38l-59 46l42 57q16 21 33.5 31.5z" />
    <glyph glyph-name="Ograve" unicode="&#xd2;" horiz-adv-x="646" 
d="M118.5 640.5q74.5 73.5 204.5 73.5t204.5 -73.5t74.5 -209.5v-162q0 -136 -74.5 -209.5t-204.5 -73.5t-204.5 73.5t-74.5 209.5v162q0 136 74.5 209.5zM191 125q48 -51 132 -51t132 51t48 140v170q0 89 -48 140t-132 51t-132 -51t-48 -140v-170q0 -89 48 -140zM387 764
h-86l-84 116h110z" />
    <glyph glyph-name="Oacute" unicode="&#xd3;" horiz-adv-x="646" 
d="M118.5 640.5q74.5 73.5 204.5 73.5t204.5 -73.5t74.5 -209.5v-162q0 -136 -74.5 -209.5t-204.5 -73.5t-204.5 73.5t-74.5 209.5v162q0 136 74.5 209.5zM191 125q48 -51 132 -51t132 51t48 140v170q0 89 -48 140t-132 51t-132 -51t-48 -140v-170q0 -89 48 -140zM430 880
l-82 -116h-87l56 116h113z" />
    <glyph glyph-name="Ocircumflex" unicode="&#xd4;" horiz-adv-x="646" 
d="M118.5 640.5q74.5 73.5 204.5 73.5t204.5 -73.5t74.5 -209.5v-162q0 -136 -74.5 -209.5t-204.5 -73.5t-204.5 73.5t-74.5 209.5v162q0 136 74.5 209.5zM191 125q48 -51 132 -51t132 51t48 140v170q0 89 -48 140t-132 51t-132 -51t-48 -140v-170q0 -89 48 -140zM328 829
h-11l-52 -65h-98l97 116h117l98 -116h-98z" />
    <glyph glyph-name="Otilde" unicode="&#xd5;" horiz-adv-x="646" 
d="M118.5 640.5q74.5 73.5 204.5 73.5t204.5 -73.5t74.5 -209.5v-162q0 -136 -74.5 -209.5t-204.5 -73.5t-204.5 73.5t-74.5 209.5v162q0 136 74.5 209.5zM191 125q48 -51 132 -51t132 51t48 140v170q0 89 -48 140t-132 51t-132 -51t-48 -140v-170q0 -89 48 -140z
M225.5 889.5q17.5 10.5 40.5 10.5q22 0 39.5 -10t34.5 -32q12 -15 18.5 -20.5t17.5 -5.5q12 0 18.5 5t15.5 17l28 38l60 -45l-43 -58q-15 -21 -32.5 -31.5t-41.5 -10.5q-41 0 -74 42q-2 2 -9 11t-13 12.5t-14 3.5q-12 0 -18.5 -5.5t-15.5 -17.5l-28 -38l-59 46l42 57
q16 21 33.5 31.5z" />
    <glyph glyph-name="Odieresis" unicode="&#xd6;" horiz-adv-x="646" 
d="M118.5 640.5q74.5 73.5 204.5 73.5t204.5 -73.5t74.5 -209.5v-162q0 -136 -74.5 -209.5t-204.5 -73.5t-204.5 73.5t-74.5 209.5v162q0 136 74.5 209.5zM191 125q48 -51 132 -51t132 51t48 140v170q0 89 -48 140t-132 51t-132 -51t-48 -140v-170q0 -89 48 -140z
M173.5 870.5q20.5 20.5 51.5 20.5q32 0 52.5 -20.5t20.5 -51.5t-20.5 -51t-52.5 -20q-31 0 -51.5 20t-20.5 51t20.5 51.5zM367.5 870.5q20.5 20.5 51.5 20.5q32 0 52.5 -20.5t20.5 -51.5t-20.5 -51t-52.5 -20q-31 0 -51.5 20t-20.5 51t20.5 51.5z" />
    <glyph glyph-name="multiply" unicode="&#xd7;" 
d="M168 553l142 -142l142 142l61 -61l-142 -142l142 -142l-61 -61l-142 142l-142 -142l-61 61l142 142l-142 142z" />
    <glyph glyph-name="Oslash" unicode="&#xd8;" horiz-adv-x="646" 
d="M570 581q32 -62 32 -150v-162q0 -136 -74.5 -209.5t-204.5 -73.5q-37 0 -70 6l-27 -80l-83 26l28 83q-61 34 -94 96.5t-33 151.5v162q0 136 74.5 209.5t204.5 73.5q43 0 75 -7l23 69l82 -26l-24 -73q59 -34 91 -96zM202 115l168 506q-25 5 -47 5q-84 0 -132 -51t-48 -140
v-170q0 -99 59 -150zM503 435q0 95 -55 147l-167 -504q17 -4 42 -4q84 0 132 51t48 140v170z" />
    <glyph glyph-name="Ugrave" unicode="&#xd9;" horiz-adv-x="654" 
d="M163 236q0 -79 42.5 -120.5t121.5 -41.5t121.5 41.5t42.5 120.5v464h99v-462q0 -120 -70.5 -186t-192.5 -66t-192.5 66t-70.5 186v462h99v-464zM391 764h-86l-84 116h110z" />
    <glyph glyph-name="Uacute" unicode="&#xda;" horiz-adv-x="654" 
d="M163 236q0 -79 42.5 -120.5t121.5 -41.5t121.5 41.5t42.5 120.5v464h99v-462q0 -120 -70.5 -186t-192.5 -66t-192.5 66t-70.5 186v462h99v-464zM434 880l-82 -116h-87l56 116h113z" />
    <glyph glyph-name="Ucircumflex" unicode="&#xdb;" horiz-adv-x="654" 
d="M163 236q0 -79 42.5 -120.5t121.5 -41.5t121.5 41.5t42.5 120.5v464h99v-462q0 -120 -70.5 -186t-192.5 -66t-192.5 66t-70.5 186v462h99v-464zM332 829h-11l-52 -65h-98l97 116h117l98 -116h-98z" />
    <glyph glyph-name="Udieresis" unicode="&#xdc;" horiz-adv-x="654" 
d="M163 236q0 -79 42.5 -120.5t121.5 -41.5t121.5 41.5t42.5 120.5v464h99v-462q0 -120 -70.5 -186t-192.5 -66t-192.5 66t-70.5 186v462h99v-464zM177.5 870.5q20.5 20.5 51.5 20.5q32 0 52.5 -20.5t20.5 -51.5t-20.5 -51t-52.5 -20q-31 0 -51.5 20t-20.5 51t20.5 51.5z
M371.5 870.5q20.5 20.5 51.5 20.5q32 0 52.5 -20.5t20.5 -51.5t-20.5 -51t-52.5 -20q-31 0 -51.5 20t-20.5 51t20.5 51.5z" />
    <glyph glyph-name="Yacute" unicode="&#xdd;" horiz-adv-x="615" 
d="M121 700l182 -331h10l181 331h113l-250 -439v-261h-99v261l-250 439h113zM414 880l-82 -116h-87l56 116h113z" />
    <glyph glyph-name="Thorn" unicode="&#xde;" horiz-adv-x="585" 
d="M167 573h175q64 0 114 -26t78.5 -74.5t28.5 -112.5t-28.5 -112.5t-79 -74.5t-113.5 -26h-175v-147h-99v700h99v-127zM332 239q62 0 97 32t35 89t-35 89t-97 32h-165v-242h165z" />
    <glyph glyph-name="germandbls" unicode="&#xdf;" horiz-adv-x="612" 
d="M93 585.5q32 62.5 90 95.5t133 33q58 0 104 -21t72 -57t26 -80q0 -59 -30.5 -95.5t-85.5 -69.5q-24 -13 -24 -30q0 -18 30 -30l34 -14q72 -30 110 -66.5t38 -101.5q0 -73 -52.5 -118t-140.5 -45q-86 0 -140 42.5t-68 108.5l86 26q9 -49 40.5 -74t81.5 -25q47 0 73.5 23.5
t26.5 62.5q0 35 -24 55.5t-74 41.5l-39 15q-77 31 -77 92q0 32 16 52.5t50 42.5q35 21 55.5 45.5t20.5 58.5q0 37 -31 59.5t-78 22.5q-41 0 -77.5 -20t-60 -63t-23.5 -110v-442h-94v438q0 85 32 147.5z" />
    <glyph glyph-name="agrave" unicode="&#xe0;" horiz-adv-x="534" 
d="M128.5 464.5q53.5 40.5 141.5 40.5q95 0 149 -49t54 -137v-319h-90v66h-12q-44 -80 -151 -80q-79 0 -130 41.5t-51 113.5q0 73 51.5 112.5t134.5 39.5h156v32q0 47 -28.5 75t-83.5 28q-53 0 -84.5 -26.5t-41.5 -70.5l-88 28q20 65 73.5 105.5zM160.5 85
q27.5 -22 75.5 -22q65 0 105 39t40 105v10h-151q-44 0 -70.5 -19.5t-26.5 -54.5q0 -36 27.5 -58zM331 570h-85l-85 130h109z" />
    <glyph glyph-name="aacute" unicode="&#xe1;" horiz-adv-x="534" 
d="M128.5 464.5q53.5 40.5 141.5 40.5q95 0 149 -49t54 -137v-319h-90v66h-12q-44 -80 -151 -80q-79 0 -130 41.5t-51 113.5q0 73 51.5 112.5t134.5 39.5h156v32q0 47 -28.5 75t-83.5 28q-53 0 -84.5 -26.5t-41.5 -70.5l-88 28q20 65 73.5 105.5zM160.5 85
q27.5 -22 75.5 -22q65 0 105 39t40 105v10h-151q-44 0 -70.5 -19.5t-26.5 -54.5q0 -36 27.5 -58zM374 700l-81 -130h-86l56 130h111z" />
    <glyph glyph-name="acircumflex" unicode="&#xe2;" horiz-adv-x="534" 
d="M128.5 464.5q53.5 40.5 141.5 40.5q95 0 149 -49t54 -137v-319h-90v66h-12q-44 -80 -151 -80q-79 0 -130 41.5t-51 113.5q0 73 51.5 112.5t134.5 39.5h156v32q0 47 -28.5 75t-83.5 28q-53 0 -84.5 -26.5t-41.5 -70.5l-88 28q20 65 73.5 105.5zM160.5 85
q27.5 -22 75.5 -22q65 0 105 39t40 105v10h-151q-44 0 -70.5 -19.5t-26.5 -54.5q0 -36 27.5 -58zM273 645h-11l-54 -75h-96l97 130h118l97 -130h-97z" />
    <glyph glyph-name="atilde" unicode="&#xe3;" horiz-adv-x="534" 
d="M128.5 464.5q53.5 40.5 141.5 40.5q95 0 149 -49t54 -137v-319h-90v66h-12q-44 -80 -151 -80q-79 0 -130 41.5t-51 113.5q0 73 51.5 112.5t134.5 39.5h156v32q0 47 -28.5 75t-83.5 28q-53 0 -84.5 -26.5t-41.5 -70.5l-88 28q20 65 73.5 105.5zM160.5 85
q27.5 -22 75.5 -22q65 0 105 39t40 105v10h-151q-44 0 -70.5 -19.5t-26.5 -54.5q0 -36 27.5 -58zM213 719q21 0 37.5 -10t34.5 -34q12 -16 18.5 -22t17.5 -6q12 0 18.5 5t15.5 17l32 42l59 -45l-46 -61q-16 -21 -34.5 -32t-43.5 -11q-21 0 -37 10t-34 34q-12 16 -18.5 22
t-18.5 6q-11 0 -17.5 -5t-16.5 -17l-31 -42l-59 45l45 61q32 43 78 43z" />
    <glyph glyph-name="adieresis" unicode="&#xe4;" horiz-adv-x="534" 
d="M128.5 464.5q53.5 40.5 141.5 40.5q95 0 149 -49t54 -137v-319h-90v66h-12q-44 -80 -151 -80q-79 0 -130 41.5t-51 113.5q0 73 51.5 112.5t134.5 39.5h156v32q0 47 -28.5 75t-83.5 28q-53 0 -84.5 -26.5t-41.5 -70.5l-88 28q20 65 73.5 105.5zM160.5 85
q27.5 -22 75.5 -22q65 0 105 39t40 105v10h-151q-44 0 -70.5 -19.5t-26.5 -54.5q0 -36 27.5 -58zM121.5 691.5q20.5 20.5 51.5 20.5q32 0 52.5 -20.5t20.5 -51.5t-20.5 -51t-52.5 -20q-31 0 -51.5 20t-20.5 51t20.5 51.5zM309.5 691.5q20.5 20.5 51.5 20.5q32 0 52.5 -20.5
t20.5 -51.5t-20.5 -51t-52.5 -20q-31 0 -51.5 20t-20.5 51t20.5 51.5z" />
    <glyph glyph-name="aring" unicode="&#xe5;" horiz-adv-x="534" 
d="M128.5 464.5q53.5 40.5 141.5 40.5q95 0 149 -49t54 -137v-319h-90v66h-12q-44 -80 -151 -80q-79 0 -130 41.5t-51 113.5q0 73 51.5 112.5t134.5 39.5h156v32q0 47 -28.5 75t-83.5 28q-53 0 -84.5 -26.5t-41.5 -70.5l-88 28q20 65 73.5 105.5zM160.5 85
q27.5 -22 75.5 -22q65 0 105 39t40 105v10h-151q-44 0 -70.5 -19.5t-26.5 -54.5q0 -36 27.5 -58zM195 710q29 28 73 28t73.5 -28t29.5 -71q0 -44 -29.5 -71.5t-73.5 -27.5q-43 0 -72.5 28.5t-29.5 70.5q0 43 29 71zM240 611q11 -11 28 -11q18 0 28.5 11t10.5 28t-10.5 28
t-28.5 11q-17 0 -28 -11t-11 -28t11 -28z" />
    <glyph glyph-name="ae" unicode="&#xe6;" horiz-adv-x="883" 
d="M851 215h-370q4 -67 44.5 -107t105.5 -40q93 0 135 86l73 -48q-33 -55 -80 -87.5t-124 -32.5q-64 0 -115 28.5t-82 79.5h-11q-19 -44 -66 -76t-126 -32q-88 0 -142 40.5t-54 113.5t52.5 112t139.5 39h157v34q0 47 -31.5 75t-86.5 28q-53 0 -86 -26t-46 -71l-85 29
q20 64 74.5 104.5t142.5 40.5q62 0 104.5 -22.5t65.5 -63.5h11q31 41 76 63.5t99 22.5q68 0 119 -30.5t78.5 -85t27.5 -124.5v-50zM758 291q-2 62 -38.5 97t-96.5 35t-98 -36t-43 -96h276zM388 215h-152q-48 0 -76.5 -18.5t-28.5 -53.5q0 -37 30.5 -58.5t81.5 -21.5
q65 0 105 39t40 105v8z" />
    <glyph glyph-name="ccedilla" unicode="&#xe7;" horiz-adv-x="563" 
d="M459 45.5q-54 -50.5 -139 -58.5l-9 -47h9q7 9 20 15t30 6q33 0 55.5 -21.5t22.5 -60.5q0 -42 -28.5 -67t-72.5 -25q-57 0 -87 39l34 48q7 -13 20 -20.5t29 -7.5q17 0 27.5 9.5t10.5 25.5q0 14 -8 22.5t-22 8.5q-17 0 -26 -13h-80v8l17 81q-64 6 -115.5 40.5t-81 91
t-29.5 125.5q0 75 34 134.5t92 92.5t129 33q96 0 158.5 -53t77.5 -135l-92 -19q-6 55 -44 89.5t-99 34.5q-46 0 -82.5 -22t-57.5 -62.5t-21 -92.5t21 -92t58 -62t82 -22q63 0 100 33.5t47 91.5l91 -21q-17 -77 -71 -127.5z" />
    <glyph glyph-name="egrave" unicode="&#xe8;" horiz-adv-x="551" 
d="M67.5 381.5q31.5 58.5 87.5 91t127 32.5q70 0 123.5 -30t83.5 -86t30 -130v-46h-387q5 -64 48 -104.5t109 -40.5q55 0 89 25t55 66l78 -44q-32 -54 -82.5 -91.5t-139.5 -37.5q-75 0 -132.5 34t-89 94t-31.5 135q0 74 31.5 132.5zM381 387.5q-38 35.5 -99 35.5
q-63 0 -102 -36t-47 -98h290q-4 63 -42 98.5zM345 570h-85l-85 130h109z" />
    <glyph glyph-name="eacute" unicode="&#xe9;" horiz-adv-x="551" 
d="M67.5 381.5q31.5 58.5 87.5 91t127 32.5q70 0 123.5 -30t83.5 -86t30 -130v-46h-387q5 -64 48 -104.5t109 -40.5q55 0 89 25t55 66l78 -44q-32 -54 -82.5 -91.5t-139.5 -37.5q-75 0 -132.5 34t-89 94t-31.5 135q0 74 31.5 132.5zM381 387.5q-38 35.5 -99 35.5
q-63 0 -102 -36t-47 -98h290q-4 63 -42 98.5zM388 700l-81 -130h-86l56 130h111z" />
    <glyph glyph-name="ecircumflex" unicode="&#xea;" horiz-adv-x="551" 
d="M67.5 381.5q31.5 58.5 87.5 91t127 32.5q70 0 123.5 -30t83.5 -86t30 -130v-46h-387q5 -64 48 -104.5t109 -40.5q55 0 89 25t55 66l78 -44q-32 -54 -82.5 -91.5t-139.5 -37.5q-75 0 -132.5 34t-89 94t-31.5 135q0 74 31.5 132.5zM381 387.5q-38 35.5 -99 35.5
q-63 0 -102 -36t-47 -98h290q-4 63 -42 98.5zM287 645h-11l-54 -75h-96l97 130h118l97 -130h-97z" />
    <glyph glyph-name="edieresis" unicode="&#xeb;" horiz-adv-x="551" 
d="M67.5 381.5q31.5 58.5 87.5 91t127 32.5q70 0 123.5 -30t83.5 -86t30 -130v-46h-387q5 -64 48 -104.5t109 -40.5q55 0 89 25t55 66l78 -44q-32 -54 -82.5 -91.5t-139.5 -37.5q-75 0 -132.5 34t-89 94t-31.5 135q0 74 31.5 132.5zM381 387.5q-38 35.5 -99 35.5
q-63 0 -102 -36t-47 -98h290q-4 63 -42 98.5zM135.5 691.5q20.5 20.5 51.5 20.5q32 0 52.5 -20.5t20.5 -51.5t-20.5 -51t-52.5 -20q-31 0 -51.5 20t-20.5 51t20.5 51.5zM323.5 691.5q20.5 20.5 51.5 20.5q32 0 52.5 -20.5t20.5 -51.5t-20.5 -51t-52.5 -20q-31 0 -51.5 20
t-20.5 51t20.5 51.5z" />
    <glyph glyph-name="igrave" unicode="&#xec;" horiz-adv-x="228" 
d="M161 0h-94v491h94v-491zM177 570h-85l-85 130h109z" />
    <glyph glyph-name="iacute" unicode="&#xed;" horiz-adv-x="228" 
d="M161 0h-94v491h94v-491zM220 700l-81 -130h-86l56 130h111z" />
    <glyph glyph-name="icircumflex" unicode="&#xee;" horiz-adv-x="228" 
d="M161 0h-94v491h94v-491zM119 645h-11l-54 -75h-96l97 130h118l97 -130h-97z" />
    <glyph glyph-name="idieresis" unicode="&#xef;" horiz-adv-x="228" 
d="M161 0h-94v491h94v-491zM-32.5 691.5q20.5 20.5 51.5 20.5q32 0 52.5 -20.5t20.5 -51.5t-20.5 -51t-52.5 -20q-31 0 -51.5 20t-20.5 51t20.5 51.5zM155.5 691.5q20.5 20.5 51.5 20.5q32 0 52.5 -20.5t20.5 -51.5t-20.5 -51t-52.5 -20q-31 0 -51.5 20t-20.5 51t20.5 51.5z
" />
    <glyph glyph-name="eth" unicode="&#xf0;" horiz-adv-x="584" 
d="M544 263q0 -85 -32 -147.5t-89.5 -96t-132.5 -33.5t-132.5 33t-89.5 91.5t-32 134.5q0 75 31 134t84 91.5t118 32.5q97 0 152 -65h11q-31 107 -138 163l-21 -57l-62 20l22 63q-45 15 -101 24l14 78q64 -11 114 -28l20 57l63 -19l-23 -64q224 -112 224 -412zM405 120
q44 48 44 125q0 78 -43.5 126t-116.5 48q-72 0 -115.5 -48.5t-43.5 -125.5q0 -78 43.5 -125.5t115.5 -47.5t116 48z" />
    <glyph glyph-name="ntilde" unicode="&#xf1;" horiz-adv-x="589" 
d="M159 412h10q19 38 59 63t107 25q55 0 99 -24.5t69 -70.5t25 -109v-296h-93v291q0 66 -33 98.5t-94 32.5q-67 0 -107 -45t-40 -127v-250h-94v491h92v-79zM239 719q21 0 37.5 -10t34.5 -34q12 -16 18.5 -22t17.5 -6q12 0 18.5 5t15.5 17l32 42l59 -45l-46 -61
q-16 -21 -34.5 -32t-43.5 -11q-21 0 -37 10t-34 34q-12 16 -18.5 22t-18.5 6q-11 0 -17.5 -5t-16.5 -17l-31 -42l-59 45l45 61q32 43 78 43z" />
    <glyph glyph-name="ograve" unicode="&#xf2;" horiz-adv-x="579" 
d="M68 381q32 59 89.5 91.5t131.5 32.5t131.5 -32.5t90 -91.5t32.5 -136t-32.5 -135.5t-90 -91t-131.5 -32.5q-73 0 -131 32.5t-90 91t-32 135.5t32 136zM173.5 116.5q43.5 -47.5 115.5 -47.5t116 48t44 128t-44 128.5t-116 48.5q-71 0 -115 -49t-44 -128q0 -81 43.5 -128.5
zM353 570h-85l-85 130h109z" />
    <glyph glyph-name="oacute" unicode="&#xf3;" horiz-adv-x="579" 
d="M68 381q32 59 89.5 91.5t131.5 32.5t131.5 -32.5t90 -91.5t32.5 -136t-32.5 -135.5t-90 -91t-131.5 -32.5q-73 0 -131 32.5t-90 91t-32 135.5t32 136zM173.5 116.5q43.5 -47.5 115.5 -47.5t116 48t44 128t-44 128.5t-116 48.5q-71 0 -115 -49t-44 -128q0 -81 43.5 -128.5
zM395 700l-81 -130h-86l56 130h111z" />
    <glyph glyph-name="ocircumflex" unicode="&#xf4;" horiz-adv-x="579" 
d="M68 381q32 59 89.5 91.5t131.5 32.5t131.5 -32.5t90 -91.5t32.5 -136t-32.5 -135.5t-90 -91t-131.5 -32.5q-73 0 -131 32.5t-90 91t-32 135.5t32 136zM173.5 116.5q43.5 -47.5 115.5 -47.5t116 48t44 128t-44 128.5t-116 48.5q-71 0 -115 -49t-44 -128q0 -81 43.5 -128.5
zM295 645h-11l-54 -75h-96l97 130h118l97 -130h-97z" />
    <glyph glyph-name="otilde" unicode="&#xf5;" horiz-adv-x="579" 
d="M68 381q32 59 89.5 91.5t131.5 32.5t131.5 -32.5t90 -91.5t32.5 -136t-32.5 -135.5t-90 -91t-131.5 -32.5q-73 0 -131 32.5t-90 91t-32 135.5t32 136zM173.5 116.5q43.5 -47.5 115.5 -47.5t116 48t44 128t-44 128.5t-116 48.5q-71 0 -115 -49t-44 -128q0 -81 43.5 -128.5
zM235 719q21 0 37.5 -10t34.5 -34q12 -16 18.5 -22t17.5 -6q12 0 18.5 5t15.5 17l32 42l59 -45l-46 -61q-16 -21 -34.5 -32t-43.5 -11q-21 0 -37 10t-34 34q-12 16 -18.5 22t-18.5 6q-11 0 -17.5 -5t-16.5 -17l-31 -42l-59 45l45 61q32 43 78 43z" />
    <glyph glyph-name="odieresis" unicode="&#xf6;" horiz-adv-x="579" 
d="M68 381q32 59 89.5 91.5t131.5 32.5t131.5 -32.5t90 -91.5t32.5 -136t-32.5 -135.5t-90 -91t-131.5 -32.5q-73 0 -131 32.5t-90 91t-32 135.5t32 136zM173.5 116.5q43.5 -47.5 115.5 -47.5t116 48t44 128t-44 128.5t-116 48.5q-71 0 -115 -49t-44 -128q0 -81 43.5 -128.5
zM143.5 691.5q20.5 20.5 51.5 20.5q32 0 52.5 -20.5t20.5 -51.5t-20.5 -51t-52.5 -20q-31 0 -51.5 20t-20.5 51t20.5 51.5zM331.5 691.5q20.5 20.5 51.5 20.5q32 0 52.5 -20.5t20.5 -51.5t-20.5 -51t-52.5 -20q-31 0 -51.5 20t-20.5 51t20.5 51.5z" />
    <glyph glyph-name="divide" unicode="&#xf7;" 
d="M257 577.5q22 21.5 53 21.5t53 -22t22 -53t-22 -53t-53 -22t-53 22t-22 53q0 32 22 53.5zM519 393v-86h-418v86h418zM257 229.5q22 21.5 53 21.5t53 -22t22 -53t-21.5 -53t-53.5 -22q-31 0 -53 21.5t-22 53.5t22 53.5z" />
    <glyph glyph-name="oslash" unicode="&#xf8;" horiz-adv-x="579" 
d="M520.5 361q22.5 -52 22.5 -116q0 -77 -32.5 -135.5t-90 -91t-131.5 -32.5q-54 0 -99 18l-38 -63l-66 39l37 62q-41 34 -64 86.5t-23 116.5q0 77 32 136t89.5 91.5t131.5 32.5q57 0 102 -19l35 58l65 -39l-34 -57q41 -35 63.5 -87zM170 120l177 292q-26 10 -58 10
q-71 0 -115 -49t-44 -128q0 -77 40 -125zM405 117q44 48 44 128q0 74 -40 124l-175 -292q27 -8 55 -8q72 0 116 48z" />
    <glyph glyph-name="ugrave" unicode="&#xf9;" horiz-adv-x="594" 
d="M435 79h-10q-19 -38 -59 -63t-107 -25q-55 0 -99 24.5t-69 70.5t-25 109v296h93v-291q0 -66 33 -98.5t94 -32.5q67 0 107 45t40 127v250h94v-491h-92v79zM360 570h-85l-85 130h109z" />
    <glyph glyph-name="uacute" unicode="&#xfa;" horiz-adv-x="594" 
d="M435 79h-10q-19 -38 -59 -63t-107 -25q-55 0 -99 24.5t-69 70.5t-25 109v296h93v-291q0 -66 33 -98.5t94 -32.5q67 0 107 45t40 127v250h94v-491h-92v79zM403 700l-81 -130h-86l56 130h111z" />
    <glyph glyph-name="ucircumflex" unicode="&#xfb;" horiz-adv-x="594" 
d="M435 79h-10q-19 -38 -59 -63t-107 -25q-55 0 -99 24.5t-69 70.5t-25 109v296h93v-291q0 -66 33 -98.5t94 -32.5q67 0 107 45t40 127v250h94v-491h-92v79zM302 645h-11l-54 -75h-96l97 130h118l97 -130h-97z" />
    <glyph glyph-name="udieresis" unicode="&#xfc;" horiz-adv-x="594" 
d="M435 79h-10q-19 -38 -59 -63t-107 -25q-55 0 -99 24.5t-69 70.5t-25 109v296h93v-291q0 -66 33 -98.5t94 -32.5q67 0 107 45t40 127v250h94v-491h-92v79zM150.5 691.5q20.5 20.5 51.5 20.5q32 0 52.5 -20.5t20.5 -51.5t-20.5 -51t-52.5 -20q-31 0 -51.5 20t-20.5 51
t20.5 51.5zM338.5 691.5q20.5 20.5 51.5 20.5q32 0 52.5 -20.5t20.5 -51.5t-20.5 -51t-52.5 -20q-31 0 -51.5 20t-20.5 51t20.5 51.5z" />
    <glyph glyph-name="yacute" unicode="&#xfd;" horiz-adv-x="548" 
d="M431 491h102l-285 -691h-102l78 181l-209 510h102l152 -384h10zM380 700l-81 -130h-86l56 130h111z" />
    <glyph glyph-name="thorn" unicode="&#xfe;" horiz-adv-x="612" 
d="M161 700v-288h11q55 93 173 93q64 0 116.5 -33t83.5 -92.5t31 -134.5t-31 -134t-83.5 -92t-116.5 -33q-118 0 -173 93h-11v-279h-94v900h94zM436.5 117q44.5 47 44.5 128t-44.5 128.5t-114.5 47.5q-71 0 -116 -48t-45 -128t45 -127.5t116 -47.5q70 0 114.5 47z" />
    <glyph glyph-name="ydieresis" unicode="&#xff;" horiz-adv-x="548" 
d="M431 491h102l-285 -691h-102l78 181l-209 510h102l152 -384h10zM127.5 691.5q20.5 20.5 51.5 20.5q32 0 52.5 -20.5t20.5 -51.5t-20.5 -51t-52.5 -20q-31 0 -51.5 20t-20.5 51t20.5 51.5zM315.5 691.5q20.5 20.5 51.5 20.5q32 0 52.5 -20.5t20.5 -51.5t-20.5 -51
t-52.5 -20q-31 0 -51.5 20t-20.5 51t20.5 51.5z" />
    <glyph glyph-name="Amacron" unicode="&#x100;" horiz-adv-x="605" 
d="M379 700l216 -700h-103l-52 170h-276l-52 -170h-102l216 700h153zM415 260l-108 354h-10l-108 -354h226zM444 764h-285v78h285v-78z" />
    <glyph glyph-name="amacron" unicode="&#x101;" horiz-adv-x="534" 
d="M128.5 464.5q53.5 40.5 141.5 40.5q95 0 149 -49t54 -137v-319h-90v66h-12q-44 -80 -151 -80q-79 0 -130 41.5t-51 113.5q0 73 51.5 112.5t134.5 39.5h156v32q0 47 -28.5 75t-83.5 28q-53 0 -84.5 -26.5t-41.5 -70.5l-88 28q20 65 73.5 105.5zM160.5 85
q27.5 -22 75.5 -22q65 0 105 39t40 105v10h-151q-44 0 -70.5 -19.5t-26.5 -54.5q0 -36 27.5 -58zM411 570h-285v77h285v-77z" />
    <glyph glyph-name="Abreve" unicode="&#x102;" horiz-adv-x="605" 
d="M379 700l216 -700h-103l-52 170h-276l-52 -170h-102l216 700h153zM415 260l-108 354h-10l-108 -354h226zM423 870q0 -53 -33.5 -83.5t-88.5 -30.5t-88.5 30.5t-33.5 83.5v10h72v-4q0 -22 13 -35.5t37 -13.5t37 13.5t13 35.5v4h72v-10z" />
    <glyph glyph-name="abreve" unicode="&#x103;" horiz-adv-x="534" 
d="M128.5 464.5q53.5 40.5 141.5 40.5q95 0 149 -49t54 -137v-319h-90v66h-12q-44 -80 -151 -80q-79 0 -130 41.5t-51 113.5q0 73 51.5 112.5t134.5 39.5h156v32q0 47 -28.5 75t-83.5 28q-53 0 -84.5 -26.5t-41.5 -70.5l-88 28q20 65 73.5 105.5zM160.5 85
q27.5 -22 75.5 -22q65 0 105 39t40 105v10h-151q-44 0 -70.5 -19.5t-26.5 -54.5q0 -36 27.5 -58zM390 677q0 -54 -33.5 -85t-88.5 -31t-88.5 31t-33.5 85v23h72v-17q0 -23 13 -37t37 -14t37 14t13 37v17h72v-23z" />
    <glyph glyph-name="Aogonek" unicode="&#x104;" horiz-adv-x="605" 
d="M632 -98v-68h-64q-32 0 -53 18.5t-21 51.5q0 14 5 37l13 59h-20l-52 170h-276l-52 -170h-102l216 700h153l216 -700h-14l-13 -62q-2 -14 -2 -16q0 -20 22 -20h44zM189 260h226l-108 354h-10z" />
    <glyph glyph-name="aogonek" unicode="&#x105;" horiz-adv-x="534" 
d="M512 -98v-68h-64q-32 0 -53 18.5t-21 51.5q0 14 5 37l13 59h-9v66h-12q-44 -80 -151 -80q-79 0 -130 41.5t-51 113.5q0 73 51.5 112.5t134.5 39.5h156v32q0 47 -28.5 75t-83.5 28q-53 0 -84.5 -26.5t-41.5 -70.5l-88 28q20 65 73.5 105.5t141.5 40.5q95 0 149 -49
t54 -137v-319h-12l-13 -62q-2 -14 -2 -16q0 -20 22 -20h44zM381 217h-151q-44 0 -70.5 -19.5t-26.5 -54.5q0 -36 27.5 -58t75.5 -22q65 0 105 39t40 105v10z" />
    <glyph glyph-name="Cacute" unicode="&#x106;" horiz-adv-x="629" 
d="M119.5 638.5q75.5 75.5 205.5 75.5q126 0 196 -67.5t70 -183.5v-16h-99v17q0 73 -43.5 117.5t-123.5 44.5q-85 0 -133.5 -52.5t-48.5 -144.5v-158q0 -92 48.5 -144.5t133.5 -52.5q81 0 124 44t43 117v23h99v-22q0 -115 -71 -182.5t-195 -67.5q-131 0 -206 75.5t-75 211.5
v154q0 136 75.5 211.5zM431 880l-82 -116h-87l56 116h113z" />
    <glyph glyph-name="cacute" unicode="&#x107;" horiz-adv-x="563" 
d="M70 379.5q34 59.5 92 92.5t129 33q96 0 158.5 -53t77.5 -135l-92 -19q-6 55 -44 89.5t-99 34.5q-46 0 -82.5 -22t-57.5 -62.5t-21 -92.5t21 -92t58 -62t82 -22q63 0 100 33.5t47 91.5l91 -21q-19 -84 -80.5 -135.5t-158.5 -51.5q-71 0 -129 33t-92 92.5t-34 133.5
q0 75 34 134.5zM399 700l-81 -130h-86l56 130h111z" />
    <glyph glyph-name="Cdotaccent" unicode="&#x10a;" horiz-adv-x="629" 
d="M119.5 638.5q75.5 75.5 205.5 75.5q126 0 196 -67.5t70 -183.5v-16h-99v17q0 73 -43.5 117.5t-123.5 44.5q-85 0 -133.5 -52.5t-48.5 -144.5v-158q0 -92 48.5 -144.5t133.5 -52.5q81 0 124 44t43 117v23h99v-22q0 -115 -71 -182.5t-195 -67.5q-131 0 -206 75.5t-75 211.5
v154q0 136 75.5 211.5zM272.5 870.5q20.5 20.5 51.5 20.5q32 0 52.5 -20.5t20.5 -51.5t-20.5 -51t-52.5 -20q-31 0 -51.5 20t-20.5 51t20.5 51.5z" />
    <glyph glyph-name="cdotaccent" unicode="&#x10b;" horiz-adv-x="563" 
d="M70 379.5q34 59.5 92 92.5t129 33q96 0 158.5 -53t77.5 -135l-92 -19q-6 55 -44 89.5t-99 34.5q-46 0 -82.5 -22t-57.5 -62.5t-21 -92.5t21 -92t58 -62t82 -22q63 0 100 33.5t47 91.5l91 -21q-19 -84 -80.5 -135.5t-158.5 -51.5q-71 0 -129 33t-92 92.5t-34 133.5
q0 75 34 134.5zM241.5 691.5q20.5 20.5 51.5 20.5q32 0 52.5 -20.5t20.5 -51.5t-20.5 -51t-52.5 -20q-31 0 -51.5 20t-20.5 51t20.5 51.5z" />
    <glyph glyph-name="Ccaron" unicode="&#x10c;" horiz-adv-x="629" 
d="M119.5 638.5q75.5 75.5 205.5 75.5q126 0 196 -67.5t70 -183.5v-16h-99v17q0 73 -43.5 117.5t-123.5 44.5q-85 0 -133.5 -52.5t-48.5 -144.5v-158q0 -92 48.5 -144.5t133.5 -52.5q81 0 124 44t43 117v23h99v-22q0 -115 -71 -182.5t-195 -67.5q-131 0 -206 75.5t-75 211.5
v154q0 136 75.5 211.5zM481 882l-98 -115h-117l-97 115h98l52 -65h11l53 65h98z" />
    <glyph glyph-name="ccaron" unicode="&#x10d;" horiz-adv-x="563" 
d="M70 379.5q34 59.5 92 92.5t129 33q96 0 158.5 -53t77.5 -135l-92 -19q-6 55 -44 89.5t-99 34.5q-46 0 -82.5 -22t-57.5 -62.5t-21 -92.5t21 -92t58 -62t82 -22q63 0 100 33.5t47 91.5l91 -21q-19 -84 -80.5 -135.5t-158.5 -51.5q-71 0 -129 33t-92 92.5t-34 133.5
q0 75 34 134.5zM449 700l-97 -130h-118l-97 130h96l54 -75h11l54 75h97z" />
    <glyph glyph-name="Dcaron" unicode="&#x10e;" horiz-adv-x="621" 
d="M503 628.5q74 -71.5 74 -213.5v-130q0 -142 -74 -213.5t-215 -71.5h-220v700h220q141 0 215 -71.5zM289 89q189 0 189 193v136q0 193 -189 193h-122v-522h122zM456 882l-98 -115h-117l-97 115h98l52 -65h11l53 65h98z" />
    <glyph glyph-name="dcaron" unicode="&#x10f;" horiz-adv-x="685" 
d="M452 78h-10q-57 -92 -178 -92q-62 0 -114.5 32t-83 91t-30.5 136t30.5 136.5t83 91.5t114.5 32q121 0 176 -90h10v285h94v-700h-92v78zM710 700l-52 -179h-57l11 179h98zM175 375.5q-44 -47.5 -44 -130.5q0 -82 44 -129.5t115 -47.5t116 48t45 129q0 82 -45 130t-116 48
t-115 -47.5z" />
    <glyph glyph-name="Dcroat" unicode="&#x110;" horiz-adv-x="621" 
d="M503 628.5q74 -71.5 74 -213.5v-130q0 -142 -74 -213.5t-215 -71.5h-220v311h-82v82h82v307h220q141 0 215 -71.5zM478 418q0 193 -189 193h-122v-218h139v-82h-139v-222h122q189 0 189 193v136z" />
    <glyph glyph-name="dcroat" unicode="&#x111;" horiz-adv-x="611" 
d="M612 564h-68v-564h-92v78h-10q-57 -92 -178 -92q-62 0 -114.5 32t-83 91t-30.5 136t30.5 136.5t83 91.5t114.5 32q121 0 176 -90h10v149h-125v66h125v70h94v-70h68v-66zM406 116q45 48 45 129q0 82 -45 130t-116 48t-115 -47.5t-44 -130.5q0 -82 44 -129.5t115 -47.5
t116 48z" />
    <glyph glyph-name="Emacron" unicode="&#x112;" horiz-adv-x="556" 
d="M515 700v-89h-348v-214h320v-90h-320v-218h353v-89h-452v700h447zM440 764h-285v78h285v-78z" />
    <glyph glyph-name="emacron" unicode="&#x113;" horiz-adv-x="551" 
d="M67.5 381.5q31.5 58.5 87.5 91t127 32.5q70 0 123.5 -30t83.5 -86t30 -130v-46h-387q5 -64 48 -104.5t109 -40.5q55 0 89 25t55 66l78 -44q-32 -54 -82.5 -91.5t-139.5 -37.5q-75 0 -132.5 34t-89 94t-31.5 135q0 74 31.5 132.5zM381 387.5q-38 35.5 -99 35.5
q-63 0 -102 -36t-47 -98h290q-4 63 -42 98.5zM425 570h-285v77h285v-77z" />
    <glyph glyph-name="Edotaccent" unicode="&#x116;" horiz-adv-x="556" 
d="M515 700v-89h-348v-214h320v-90h-320v-218h353v-89h-452v700h447zM245.5 870.5q20.5 20.5 51.5 20.5q32 0 52.5 -20.5t20.5 -51.5t-20.5 -51t-52.5 -20q-31 0 -51.5 20t-20.5 51t20.5 51.5z" />
    <glyph glyph-name="edotaccent" unicode="&#x117;" horiz-adv-x="551" 
d="M67.5 381.5q31.5 58.5 87.5 91t127 32.5q70 0 123.5 -30t83.5 -86t30 -130v-46h-387q5 -64 48 -104.5t109 -40.5q55 0 89 25t55 66l78 -44q-32 -54 -82.5 -91.5t-139.5 -37.5q-75 0 -132.5 34t-89 94t-31.5 135q0 74 31.5 132.5zM381 387.5q-38 35.5 -99 35.5
q-63 0 -102 -36t-47 -98h290q-4 63 -42 98.5zM230.5 691.5q20.5 20.5 51.5 20.5q32 0 52.5 -20.5t20.5 -51.5t-20.5 -51t-52.5 -20q-31 0 -51.5 20t-20.5 51t20.5 51.5z" />
    <glyph glyph-name="Eogonek" unicode="&#x118;" horiz-adv-x="556" 
d="M324 -62q-2 -14 -2 -16q0 -20 22 -20h44v-68h-64q-32 0 -53 18.5t-21 51.5q0 14 5 37l13 59h-200v700h447v-89h-348v-214h320v-90h-320v-218h353v-89h-183z" />
    <glyph glyph-name="eogonek" unicode="&#x119;" horiz-adv-x="551" 
d="M519 213h-387q5 -64 48 -104.5t109 -40.5q55 0 89 25t55 66l78 -44q-29 -50 -73.5 -85.5t-121.5 -42.5l-11 -49q-2 -14 -2 -16q0 -20 22 -20h44v-68h-64q-32 0 -53 18.5t-21 51.5q0 14 5 37l10 48q-63 9 -110.5 45t-73.5 91.5t-26 123.5q0 74 31.5 132.5t87.5 91
t127 32.5q70 0 123.5 -30t83.5 -86t30 -130v-46zM423 289q-4 63 -42 98.5t-99 35.5q-63 0 -102 -36t-47 -98h290z" />
    <glyph glyph-name="Ecaron" unicode="&#x11a;" horiz-adv-x="556" 
d="M515 700v-89h-348v-214h320v-90h-320v-218h353v-89h-452v700h447zM453 882l-98 -115h-117l-97 115h98l52 -65h11l53 65h98z" />
    <glyph glyph-name="ecaron" unicode="&#x11b;" horiz-adv-x="551" 
d="M67.5 381.5q31.5 58.5 87.5 91t127 32.5q70 0 123.5 -30t83.5 -86t30 -130v-46h-387q5 -64 48 -104.5t109 -40.5q55 0 89 25t55 66l78 -44q-32 -54 -82.5 -91.5t-139.5 -37.5q-75 0 -132.5 34t-89 94t-31.5 135q0 74 31.5 132.5zM381 387.5q-38 35.5 -99 35.5
q-63 0 -102 -36t-47 -98h290q-4 63 -42 98.5zM438 700l-97 -130h-118l-97 130h96l54 -75h11l54 75h97z" />
    <glyph glyph-name="Gbreve" unicode="&#x11e;" horiz-adv-x="634" 
d="M120 638.5q76 75.5 206 75.5q125 0 192 -66.5t67 -180.5v-10h-99v11q0 72 -40.5 115t-119.5 43q-85 0 -134 -52.5t-49 -144.5v-158q0 -92 48.5 -144.5t133.5 -52.5q83 0 125 42.5t42 118.5v19h-197v85h294v-95q0 -121 -70 -189.5t-194 -68.5q-131 0 -206 75.5t-75 211.5
v154q0 136 76 211.5zM446 870q0 -53 -33.5 -83.5t-88.5 -30.5t-88.5 30.5t-33.5 83.5v10h72v-4q0 -22 13 -35.5t37 -13.5t37 13.5t13 35.5v4h72v-10z" />
    <glyph glyph-name="gbreve" unicode="&#x11f;" horiz-adv-x="611" 
d="M544 491v-465q0 -114 -68.5 -177t-183.5 -63q-102 0 -164 47t-83 111l85 35q15 -49 54.5 -81t105.5 -32q74 0 117 42t43 122v58h-10q-57 -89 -176 -89q-62 0 -114.5 31.5t-83 89t-30.5 132.5q0 74 30.5 132t83 89.5t114.5 31.5q121 0 178 -93h10v79h92zM406 127
q45 47 45 125t-45 124.5t-116 46.5t-115 -46.5t-44 -124.5q0 -79 44 -125.5t115 -46.5t116 47zM425 677q0 -54 -33.5 -85t-88.5 -31t-88.5 31t-33.5 85v23h72v-17q0 -23 13 -37t37 -14t37 14t13 37v17h72v-23z" />
    <glyph glyph-name="Gdotaccent" unicode="&#x120;" horiz-adv-x="634" 
d="M120 638.5q76 75.5 206 75.5q125 0 192 -66.5t67 -180.5v-10h-99v11q0 72 -40.5 115t-119.5 43q-85 0 -134 -52.5t-49 -144.5v-158q0 -92 48.5 -144.5t133.5 -52.5q83 0 125 42.5t42 118.5v19h-197v85h294v-95q0 -121 -70 -189.5t-194 -68.5q-131 0 -206 75.5t-75 211.5
v154q0 136 76 211.5zM271.5 870.5q20.5 20.5 51.5 20.5q32 0 52.5 -20.5t20.5 -51.5t-20.5 -51t-52.5 -20q-31 0 -51.5 20t-20.5 51t20.5 51.5z" />
    <glyph glyph-name="gdotaccent" unicode="&#x121;" horiz-adv-x="611" 
d="M544 491v-465q0 -114 -68.5 -177t-183.5 -63q-102 0 -164 47t-83 111l85 35q15 -49 54.5 -81t105.5 -32q74 0 117 42t43 122v58h-10q-57 -89 -176 -89q-62 0 -114.5 31.5t-83 89t-30.5 132.5q0 74 30.5 132t83 89.5t114.5 31.5q121 0 178 -93h10v79h92zM406 127
q45 47 45 125t-45 124.5t-116 46.5t-115 -46.5t-44 -124.5q0 -79 44 -125.5t115 -46.5t116 47zM251.5 691.5q20.5 20.5 51.5 20.5q32 0 52.5 -20.5t20.5 -51.5t-20.5 -51t-52.5 -20q-31 0 -51.5 20t-20.5 51t20.5 51.5z" />
    <glyph glyph-name="uni0122" unicode="&#x122;" horiz-adv-x="634" 
d="M120 638.5q76 75.5 206 75.5q125 0 192 -66.5t67 -180.5v-10h-99v11q0 72 -40.5 115t-119.5 43q-85 0 -134 -52.5t-49 -144.5v-158q0 -92 48.5 -144.5t133.5 -52.5q83 0 125 42.5t42 118.5v19h-197v85h294v-95q0 -121 -70 -189.5t-194 -68.5q-131 0 -206 75.5t-75 211.5
v154q0 136 76 211.5zM269 -72q22 22 56 22q33 0 55.5 -22t22.5 -55v-99q0 -36 -22.5 -58t-58.5 -22h-71v55h62q28 0 28 27v23q-8 -2 -18 -2q-32 0 -54 21t-22 53q0 35 22 57z" />
    <glyph glyph-name="uni0123" unicode="&#x123;" horiz-adv-x="611" 
d="M544 491v-465q0 -114 -68.5 -177t-183.5 -63q-102 0 -164 47t-83 111l85 35q15 -49 54.5 -81t105.5 -32q74 0 117 42t43 122v58h-10q-57 -89 -176 -89q-62 0 -114.5 31.5t-83 89t-30.5 132.5q0 74 30.5 132t83 89.5t114.5 31.5q121 0 178 -93h10v79h92zM406 127
q45 47 45 125t-45 124.5t-116 46.5t-115 -46.5t-44 -124.5q0 -79 44 -125.5t115 -46.5t116 47zM359.5 584.5q-22.5 -22.5 -55.5 -22.5q-34 0 -56 22t-22 56v99q0 36 22.5 58t57.5 22h71v-55h-61q-15 0 -22 -6.5t-7 -20.5v-23q8 2 19 2q32 0 54 -21.5t22 -53.5
q0 -34 -22.5 -56.5z" />
    <glyph glyph-name="Hbar" unicode="&#x126;" horiz-adv-x="642" 
d="M633 589v-82h-59v-507h-99v306h-308v-306h-99v507h-58v82h58v111h99v-111h308v111h99v-111h59zM475 396v111h-308v-111h308z" />
    <glyph glyph-name="hbar" unicode="&#x127;" horiz-adv-x="589" 
d="M434 475.5q44 -24.5 69 -70.5t25 -109v-296h-93v291q0 66 -33 98.5t-94 32.5q-67 0 -107 -45t-40 -127v-250h-94v564h-68v66h68v70h94v-70h126v-66h-126v-148h10q45 84 164 84q55 0 99 -24.5z" />
    <glyph glyph-name="Imacron" unicode="&#x12a;" horiz-adv-x="235" 
d="M167 700v-700h-99v700h99zM260 764h-285v78h285v-78z" />
    <glyph glyph-name="imacron" unicode="&#x12b;" horiz-adv-x="228" 
d="M161 0h-94v491h94v-491zM257 570h-285v77h285v-77z" />
    <glyph glyph-name="Iogonek" unicode="&#x12e;" horiz-adv-x="235" 
d="M202 -98v-68h-64q-32 0 -53 18.5t-21 51.5q0 14 5 37l13 59h-14v700h99v-700h-16l-13 -62q-2 -14 -2 -16q0 -20 22 -20h44z" />
    <glyph glyph-name="iogonek" unicode="&#x12f;" horiz-adv-x="228" 
d="M62.5 589q-20.5 20 -20.5 51t20.5 51.5t51.5 20.5q32 0 52.5 -20.5t20.5 -51.5t-20.5 -51t-52.5 -20q-31 0 -51.5 20zM199 -98v-68h-64q-32 0 -53 18.5t-21 51.5q0 14 5 37l13 59h-12v491h94v-491h-13l-13 -62q-2 -14 -2 -16q0 -20 22 -20h44z" />
    <glyph glyph-name="Idotaccent" unicode="&#x130;" horiz-adv-x="235" 
d="M167 700v-700h-99v700h99zM65.5 870.5q20.5 20.5 51.5 20.5q32 0 52.5 -20.5t20.5 -51.5t-20.5 -51t-52.5 -20q-31 0 -51.5 20t-20.5 51t20.5 51.5z" />
    <glyph glyph-name="dotlessi" unicode="&#x131;" horiz-adv-x="228" 
d="M161 0h-94v491h94v-491z" />
    <glyph glyph-name="IJ" unicode="&#x132;" horiz-adv-x="571" 
d="M163 700v-344h-99v344h99zM506 210q0 -109 -55.5 -166.5t-159.5 -57.5q-106 0 -166.5 58.5t-60.5 165.5v28h99v-28q0 -61 32.5 -96.5t94.5 -35.5q60 0 89 35t29 97v490h98v-490z" />
    <glyph glyph-name="ij" unicode="&#x133;" horiz-adv-x="462" 
d="M161 0h-94v491h94v-491zM62.5 691.5q20.5 20.5 51.5 20.5q32 0 52.5 -20.5t20.5 -51.5t-20.5 -51t-52.5 -20q-31 0 -51.5 20t-20.5 51t20.5 51.5zM369.5 -175.5q-24.5 -24.5 -65.5 -24.5h-124v77h93q28 0 28 30v584h93v-599q0 -43 -24.5 -67.5zM295.5 691.5
q20.5 20.5 51.5 20.5q32 0 52.5 -20.5t20.5 -51.5t-20.5 -51t-52.5 -20q-31 0 -51.5 20t-20.5 51t20.5 51.5z" />
    <glyph glyph-name="uni0136" unicode="&#x136;" horiz-adv-x="635" 
d="M645 700l-306 -288l295 -412h-123l-242 346l-102 -96v-250h-99v700h99v-318h10l327 318h141zM270 -72q22 22 56 22q33 0 55.5 -22t22.5 -55v-99q0 -36 -22.5 -58t-58.5 -22h-71v55h62q28 0 28 27v23q-8 -2 -18 -2q-32 0 -54 21t-22 53q0 35 22 57z" />
    <glyph glyph-name="uni0137" unicode="&#x137;" horiz-adv-x="564" 
d="M549 491l-230 -198l226 -293h-115l-178 235l-91 -79v-156h-94v700h94v-429l249 220h139zM241 -72q22 22 56 22q33 0 55.5 -22t22.5 -55v-99q0 -36 -22.5 -58t-58.5 -22h-71v55h62q28 0 28 27v23q-8 -2 -18 -2q-32 0 -54 21t-22 53q0 35 22 57z" />
    <glyph glyph-name="Lacute" unicode="&#x139;" horiz-adv-x="532" 
d="M167 700v-611h349v-89h-448v700h99zM224 880l-82 -116h-87l56 116h113z" />
    <glyph glyph-name="lacute" unicode="&#x13a;" horiz-adv-x="228" 
d="M161 0h-94v700h94v-700zM220 880l-82 -116h-87l56 116h113z" />
    <glyph glyph-name="uni013B" unicode="&#x13b;" horiz-adv-x="532" 
d="M167 700v-611h349v-89h-448v700h99zM242 -72q22 22 56 22q33 0 55.5 -22t22.5 -55v-99q0 -36 -22.5 -58t-58.5 -22h-71v55h62q28 0 28 27v23q-8 -2 -18 -2q-32 0 -54 21t-22 53q0 35 22 57z" />
    <glyph glyph-name="uni013C" unicode="&#x13c;" horiz-adv-x="228" 
d="M161 0h-94v700h94v-700zM58 -72q22 22 56 22q33 0 55.5 -22t22.5 -55v-99q0 -36 -22.5 -58t-58.5 -22h-71v55h62q28 0 28 27v23q-8 -2 -18 -2q-32 0 -54 21t-22 53q0 35 22 57z" />
    <glyph glyph-name="Lcaron" unicode="&#x13d;" horiz-adv-x="532" 
d="M167 89h349v-89h-448v700h99v-611zM338 700l-52 -179h-58l11 179h99z" />
    <glyph glyph-name="lcaron" unicode="&#x13e;" horiz-adv-x="300" 
d="M67 0v700h94v-700h-94zM325 700l-52 -179h-57l10 179h99z" />
    <glyph glyph-name="Ldot" unicode="&#x13f;" horiz-adv-x="532" 
d="M167 700v-611h349v-89h-448v700h99zM329.5 406q22.5 22 55.5 22q34 0 56 -22t22 -56t-22 -56t-56 -22q-33 0 -55.5 22t-22.5 56t22.5 56z" />
    <glyph glyph-name="ldot" unicode="&#x140;" horiz-adv-x="388" 
d="M161 0h-94v700h94v-700zM254.5 318q22.5 22 55.5 22q34 0 56 -22t22 -56t-22 -56t-56 -22q-33 0 -55.5 22t-22.5 56t22.5 56z" />
    <glyph glyph-name="Lslash" unicode="&#x141;" 
d="M214 700v-287l59 29l40 -80l-99 -50v-218h338v-94h-437v261l-54 -27l-41 81l95 47v338h99z" />
    <glyph glyph-name="lslash" unicode="&#x142;" horiz-adv-x="324" 
d="M307 360l-98 -45v-315h-94v271l-66 -30l-32 65l98 45v349h94v-305l66 30z" />
    <glyph glyph-name="Nacute" unicode="&#x143;" horiz-adv-x="652" 
d="M237 700l238 -597h10v597h99v-700h-169l-238 597h-10v-597h-99v700h169zM434 880l-82 -116h-87l56 116h113z" />
    <glyph glyph-name="nacute" unicode="&#x144;" horiz-adv-x="589" 
d="M159 412h10q19 38 59 63t107 25q55 0 99 -24.5t69 -70.5t25 -109v-296h-93v291q0 66 -33 98.5t-94 32.5q-67 0 -107 -45t-40 -127v-250h-94v491h92v-79zM400 700l-81 -130h-86l56 130h111z" />
    <glyph glyph-name="uni0145" unicode="&#x145;" horiz-adv-x="652" 
d="M237 700l238 -597h10v597h99v-700h-169l-238 597h-10v-597h-99v700h169zM273 -72q22 22 56 22q33 0 55.5 -22t22.5 -55v-99q0 -36 -22.5 -58t-58.5 -22h-71v55h62q28 0 28 27v23q-8 -2 -18 -2q-32 0 -54 21t-22 53q0 35 22 57z" />
    <glyph glyph-name="uni0146" unicode="&#x146;" horiz-adv-x="589" 
d="M159 412h10q19 38 59 63t107 25q55 0 99 -24.5t69 -70.5t25 -109v-296h-93v291q0 66 -33 98.5t-94 32.5q-67 0 -107 -45t-40 -127v-250h-94v491h92v-79zM242 -72q22 22 56 22q33 0 55.5 -22t22.5 -55v-99q0 -36 -22.5 -58t-58.5 -22h-71v55h62q28 0 28 27v23
q-8 -2 -18 -2q-32 0 -54 21t-22 53q0 35 22 57z" />
    <glyph glyph-name="Ncaron" unicode="&#x147;" horiz-adv-x="652" 
d="M237 700l238 -597h10v597h99v-700h-169l-238 597h-10v-597h-99v700h169zM484 882l-98 -115h-117l-97 115h98l52 -65h11l53 65h98z" />
    <glyph glyph-name="ncaron" unicode="&#x148;" horiz-adv-x="589" 
d="M159 412h10q19 38 59 63t107 25q55 0 99 -24.5t69 -70.5t25 -109v-296h-93v291q0 66 -33 98.5t-94 32.5q-67 0 -107 -45t-40 -127v-250h-94v491h92v-79zM450 700l-97 -130h-118l-97 130h96l54 -75h11l54 75h97z" />
    <glyph glyph-name="Eng" unicode="&#x14a;" horiz-adv-x="652" 
d="M584 700v-786q0 -56 -28.5 -85t-83.5 -29h-167v84h135q24 0 34.5 11.5t10.5 35.5v69h-70l-238 597h-10v-597h-99v700h169l238 -597h10v597h99z" />
    <glyph glyph-name="eng" unicode="&#x14b;" horiz-adv-x="594" 
d="M478.5 450.5q54.5 -52.5 54.5 -146.5v-421q0 -37 -23 -60t-61 -23h-131v80h93q28 0 28 30v382q0 63 -34 95t-96 32q-69 0 -108.5 -44t-39.5 -123v-252h-94v491h92v-79h12q45 91 169 91q84 0 138.5 -52.5z" />
    <glyph glyph-name="Omacron" unicode="&#x14c;" horiz-adv-x="646" 
d="M118.5 640.5q74.5 73.5 204.5 73.5t204.5 -73.5t74.5 -209.5v-162q0 -136 -74.5 -209.5t-204.5 -73.5t-204.5 73.5t-74.5 209.5v162q0 136 74.5 209.5zM191 125q48 -51 132 -51t132 51t48 140v170q0 89 -48 140t-132 51t-132 -51t-48 -140v-170q0 -89 48 -140zM466 764
h-285v78h285v-78z" />
    <glyph glyph-name="omacron" unicode="&#x14d;" horiz-adv-x="579" 
d="M68 381q32 59 89.5 91.5t131.5 32.5t131.5 -32.5t90 -91.5t32.5 -136t-32.5 -135.5t-90 -91t-131.5 -32.5q-73 0 -131 32.5t-90 91t-32 135.5t32 136zM173.5 116.5q43.5 -47.5 115.5 -47.5t116 48t44 128t-44 128.5t-116 48.5q-71 0 -115 -49t-44 -128q0 -81 43.5 -128.5
zM432 570h-285v77h285v-77z" />
    <glyph glyph-name="Ohungarumlaut" unicode="&#x150;" horiz-adv-x="646" 
d="M118.5 640.5q74.5 73.5 204.5 73.5t204.5 -73.5t74.5 -209.5v-162q0 -136 -74.5 -209.5t-204.5 -73.5t-204.5 73.5t-74.5 209.5v162q0 136 74.5 209.5zM191 125q48 -51 132 -51t132 51t48 140v170q0 89 -48 140t-132 51t-132 -51t-48 -140v-170q0 -89 48 -140zM360 880
l-84 -116h-84l60 116h108zM502 880l-84 -116h-84l60 116h108z" />
    <glyph glyph-name="ohungarumlaut" unicode="&#x151;" horiz-adv-x="579" 
d="M68 381q32 59 89.5 91.5t131.5 32.5t131.5 -32.5t90 -91.5t32.5 -136t-32.5 -135.5t-90 -91t-131.5 -32.5q-73 0 -131 32.5t-90 91t-32 135.5t32 136zM173.5 116.5q43.5 -47.5 115.5 -47.5t116 48t44 128t-44 128.5t-116 48.5q-71 0 -115 -49t-44 -128q0 -81 43.5 -128.5
zM325 700l-85 -130h-83l61 130h107zM468 700l-85 -130h-84l62 130h107z" />
    <glyph glyph-name="OE" unicode="&#x152;" horiz-adv-x="595" 
d="M559 89v-89h-271q-115 0 -179.5 73.5t-64.5 212.5v128q0 137 64.5 211.5t179.5 74.5h266v-89h-167v-215h142v-90h-142v-217h172zM288 613q-72 0 -108.5 -51t-36.5 -140v-144q0 -92 35.5 -141.5t109.5 -49.5v526z" />
    <glyph glyph-name="oe" unicode="&#x153;" horiz-adv-x="972" 
d="M68.5 379.5q32.5 59.5 90 92.5t128.5 33t123.5 -30.5t81.5 -88.5h12q29 57 81.5 88t120.5 31t121 -30t83 -85.5t30 -128.5v-41h-386q5 -69 46.5 -110.5t108.5 -41.5q101 0 143 90l80 -43q-33 -57 -83 -93t-137 -36q-67 0 -121 31.5t-86 89.5h-12q-31 -60 -83 -90.5
t-123 -30.5t-128.5 33t-90 92t-32.5 134t32.5 134.5zM802.5 388q-38.5 35 -99.5 35q-62 0 -101.5 -36t-47.5 -97h291q-4 63 -42.5 98zM173.5 118q43.5 -48 115.5 -48t116 48.5t44 126.5q0 79 -44 127.5t-116 48.5q-71 0 -115 -49t-44 -127q0 -79 43.5 -127z" />
    <glyph glyph-name="Racute" unicode="&#x154;" horiz-adv-x="615" 
d="M537.5 354.5q-45.5 -54.5 -120.5 -69.5l153 -285h-113l-143 280h-147v-280h-99v700h294q64 0 114 -25.5t78.5 -73t28.5 -111.5q0 -81 -45.5 -135.5zM167 368h185q62 0 97 32.5t35 89.5q0 56 -35.5 88.5t-96.5 32.5h-185v-243zM411 880l-82 -116h-87l56 116h113z" />
    <glyph glyph-name="racute" unicode="&#x155;" horiz-adv-x="368" 
d="M169 425q14 36 43.5 52t79.5 16h61v-81h-77q-54 0 -84.5 -29t-30.5 -87v-296h-94v491h92v-66h10zM312 700l-81 -130h-86l56 130h111z" />
    <glyph glyph-name="uni0156" unicode="&#x156;" horiz-adv-x="615" 
d="M537.5 354.5q-45.5 -54.5 -120.5 -69.5l153 -285h-113l-143 280h-147v-280h-99v700h294q64 0 114 -25.5t78.5 -73t28.5 -111.5q0 -81 -45.5 -135.5zM167 368h185q62 0 97 32.5t35 89.5q0 56 -35.5 88.5t-96.5 32.5h-185v-243zM254 -72q22 22 56 22q33 0 55.5 -22
t22.5 -55v-99q0 -36 -22.5 -58t-58.5 -22h-71v55h62q28 0 28 27v23q-8 -2 -18 -2q-32 0 -54 21t-22 53q0 35 22 57z" />
    <glyph glyph-name="uni0157" unicode="&#x157;" horiz-adv-x="368" 
d="M169 425q14 36 43.5 52t79.5 16h61v-81h-77q-54 0 -84.5 -29t-30.5 -87v-296h-94v491h92v-66h10zM59 -72q22 22 56 22q33 0 55.5 -22t22.5 -55v-99q0 -36 -22.5 -58t-58.5 -22h-71v55h62q28 0 28 27v23q-8 -2 -18 -2q-32 0 -54 21t-22 53q0 35 22 57z" />
    <glyph glyph-name="Rcaron" unicode="&#x158;" horiz-adv-x="615" 
d="M537.5 354.5q-45.5 -54.5 -120.5 -69.5l153 -285h-113l-143 280h-147v-280h-99v700h294q64 0 114 -25.5t78.5 -73t28.5 -111.5q0 -81 -45.5 -135.5zM167 368h185q62 0 97 32.5t35 89.5q0 56 -35.5 88.5t-96.5 32.5h-185v-243zM460 882l-98 -115h-117l-97 115h98l52 -65
h11l53 65h98z" />
    <glyph glyph-name="rcaron" unicode="&#x159;" horiz-adv-x="368" 
d="M169 425q14 36 43.5 52t79.5 16h61v-81h-77q-54 0 -84.5 -29t-30.5 -87v-296h-94v491h92v-66h10zM362 700l-97 -130h-118l-97 130h96l54 -75h11l54 75h97z" />
    <glyph glyph-name="Sacute" unicode="&#x15a;" horiz-adv-x="598" 
d="M480.5 657q70.5 -57 70.5 -163v-27h-98v27q0 68 -41.5 100.5t-113.5 32.5q-67 0 -105 -27.5t-38 -78.5q0 -48 32.5 -72.5t105.5 -41.5l43 -10q109 -25 166 -70.5t57 -132.5q0 -62 -31.5 -109t-89.5 -73t-135 -26q-121 0 -195 64t-74 182v9h98v-9q0 -79 45.5 -119
t125.5 -40q75 0 117 32.5t42 86.5q0 50 -36 74.5t-113 42.5l-43 10q-106 24 -159.5 69t-53.5 131q0 90 66 142.5t175 52.5q112 0 182.5 -57zM405 880l-82 -116h-87l56 116h113z" />
    <glyph glyph-name="sacute" unicode="&#x15b;" horiz-adv-x="502" 
d="M108 466.5q51 38.5 138 38.5q81 0 134 -37.5t69 -102.5l-86 -25q-19 91 -117 91q-45 0 -71 -17.5t-26 -48.5q0 -30 23.5 -46.5t69.5 -24.5l42 -6q90 -16 136.5 -47.5t46.5 -99.5q0 -73 -54.5 -114t-146.5 -41q-95 0 -156 43.5t-74 127.5l88 22q20 -119 142 -119
q51 0 80.5 20.5t29.5 54.5q0 31 -26 47.5t-80 25.5l-42 7q-80 14 -125.5 48t-45.5 97q0 68 51 106.5zM355 700l-81 -130h-86l56 130h111z" />
    <glyph glyph-name="Scedilla" unicode="&#x15e;" horiz-adv-x="598" 
d="M499 51.5q-60 -56.5 -163 -64.5l-9 -47h9q7 9 20 15t30 6q33 0 55.5 -21.5t22.5 -60.5q0 -42 -28.5 -67t-72.5 -25q-57 0 -87 39l34 48q7 -13 20 -20.5t29 -7.5q17 0 27.5 9.5t10.5 25.5q0 14 -8 22.5t-22 8.5q-17 0 -26 -13h-80v8l17 80q-111 7 -177.5 70.5t-66.5 174.5
v9h98v-9q0 -79 45.5 -119t125.5 -40q75 0 117 32.5t42 86.5q0 50 -36 74.5t-113 42.5l-43 10q-106 24 -159.5 69t-53.5 131q0 90 66 142.5t175 52.5q112 0 182.5 -57t70.5 -163v-27h-98v27q0 68 -41.5 100.5t-113.5 32.5q-67 0 -105 -27.5t-38 -78.5q0 -48 32.5 -72.5
t105.5 -41.5l43 -10q109 -25 166 -70.5t57 -132.5q0 -86 -60 -142.5z" />
    <glyph glyph-name="scedilla" unicode="&#x15f;" horiz-adv-x="502" 
d="M415.5 30q-51.5 -41 -138.5 -44l-9 -46h9q7 9 20 15t30 6q33 0 55.5 -21.5t22.5 -60.5q0 -42 -28.5 -67t-72.5 -25q-57 0 -87 39l34 48q7 -13 20 -20.5t29 -7.5q17 0 27.5 9.5t10.5 25.5q0 14 -8 22.5t-22 8.5q-17 0 -26 -13h-80v8l17 82q-76 10 -123.5 52.5t-59.5 115.5
l88 22q20 -119 142 -119q51 0 80.5 20.5t29.5 54.5q0 31 -26 47.5t-80 25.5l-42 7q-80 14 -125.5 48t-45.5 97q0 68 51 106.5t138 38.5q81 0 134 -37.5t69 -102.5l-86 -25q-19 91 -117 91q-45 0 -71 -17.5t-26 -48.5q0 -30 23.5 -46.5t69.5 -24.5l42 -6q90 -16 136.5 -47.5
t46.5 -99.5q0 -70 -51.5 -111z" />
    <glyph glyph-name="Scaron" unicode="&#x160;" horiz-adv-x="598" 
d="M480.5 657q70.5 -57 70.5 -163v-27h-98v27q0 68 -41.5 100.5t-113.5 32.5q-67 0 -105 -27.5t-38 -78.5q0 -48 32.5 -72.5t105.5 -41.5l43 -10q109 -25 166 -70.5t57 -132.5q0 -62 -31.5 -109t-89.5 -73t-135 -26q-121 0 -195 64t-74 182v9h98v-9q0 -79 45.5 -119
t125.5 -40q75 0 117 32.5t42 86.5q0 50 -36 74.5t-113 42.5l-43 10q-106 24 -159.5 69t-53.5 131q0 90 66 142.5t175 52.5q112 0 182.5 -57zM454 882l-98 -115h-117l-97 115h98l52 -65h11l53 65h98z" />
    <glyph glyph-name="scaron" unicode="&#x161;" horiz-adv-x="502" 
d="M108 466.5q51 38.5 138 38.5q81 0 134 -37.5t69 -102.5l-86 -25q-19 91 -117 91q-45 0 -71 -17.5t-26 -48.5q0 -30 23.5 -46.5t69.5 -24.5l42 -6q90 -16 136.5 -47.5t46.5 -99.5q0 -73 -54.5 -114t-146.5 -41q-95 0 -156 43.5t-74 127.5l88 22q20 -119 142 -119
q51 0 80.5 20.5t29.5 54.5q0 31 -26 47.5t-80 25.5l-42 7q-80 14 -125.5 48t-45.5 97q0 68 51 106.5zM405 700l-97 -130h-118l-97 130h96l54 -75h11l54 75h97z" />
    <glyph glyph-name="uni0162" unicode="&#x162;" horiz-adv-x="579" 
d="M318 0l-12 -60h9q7 9 20 15t30 6q33 0 55.5 -21.5t22.5 -60.5q0 -42 -28.5 -67t-72.5 -25q-57 0 -87 39l34 48q7 -13 20 -20.5t29 -7.5q17 0 27.5 9.5t10.5 25.5q0 14 -8 22.5t-22 8.5q-17 0 -26 -13h-80v8l19 93h-19v611h-226v89h551v-89h-226v-611h-21z" />
    <glyph glyph-name="uni0163" unicode="&#x163;" horiz-adv-x="429" 
d="M244 414v-307q0 -30 28 -30h105v-77h-121l-12 -60h9q7 9 20 15t30 6q33 0 55.5 -21.5t22.5 -60.5q0 -42 -28.5 -67t-72.5 -25q-57 0 -87 39l34 48q7 -13 20 -20.5t29 -7.5q17 0 27.5 9.5t10.5 25.5q0 14 -8 22.5t-22 8.5q-17 0 -26 -13h-80v8l21 101q-23 11 -36 32.5
t-13 51.5v322h-142v77h142v168h94v-168h152v-77h-152z" />
    <glyph glyph-name="Tcaron" unicode="&#x164;" horiz-adv-x="579" 
d="M565 700v-89h-226v-611h-99v611h-226v89h551zM446 882l-98 -115h-117l-97 115h98l52 -65h11l53 65h98z" />
    <glyph glyph-name="tcaron" unicode="&#x165;" horiz-adv-x="429" 
d="M424 746l-52 -179h-58l11 179h99zM150 659h94v-168h152v-77h-152v-307q0 -30 28 -30h105v-77h-136q-41 0 -66 25t-25 67v322h-142v77h142v168z" />
    <glyph glyph-name="Tbar" unicode="&#x166;" horiz-adv-x="579" 
d="M565 611h-226v-218h110v-82h-110v-311h-99v311h-111v82h111v218h-226v89h551v-89z" />
    <glyph glyph-name="tbar" unicode="&#x167;" horiz-adv-x="430" 
d="M245 411v-113h152v-80h-152v-108q0 -30 28 -30h96v-80h-134q-37 0 -60.5 23t-23.5 60v135h-143v80h143v113h-143v80h143v180h94v-180h152v-80h-152z" />
    <glyph glyph-name="Umacron" unicode="&#x16a;" horiz-adv-x="654" 
d="M163 236q0 -79 42.5 -120.5t121.5 -41.5t121.5 41.5t42.5 120.5v464h99v-462q0 -120 -70.5 -186t-192.5 -66t-192.5 66t-70.5 186v462h99v-464zM470 764h-285v78h285v-78z" />
    <glyph glyph-name="umacron" unicode="&#x16b;" horiz-adv-x="594" 
d="M435 79h-10q-19 -38 -59 -63t-107 -25q-55 0 -99 24.5t-69 70.5t-25 109v296h93v-291q0 -66 33 -98.5t94 -32.5q67 0 107 45t40 127v250h94v-491h-92v79zM440 570h-285v77h285v-77z" />
    <glyph glyph-name="Ubreve" unicode="&#x16c;" horiz-adv-x="654" 
d="M163 236q0 -79 42.5 -120.5t121.5 -41.5t121.5 41.5t42.5 120.5v464h99v-462q0 -120 -70.5 -186t-192.5 -66t-192.5 66t-70.5 186v462h99v-464zM449 870q0 -53 -33.5 -83.5t-88.5 -30.5t-88.5 30.5t-33.5 83.5v10h72v-4q0 -22 13 -35.5t37 -13.5t37 13.5t13 35.5v4h72
v-10z" />
    <glyph glyph-name="ubreve" unicode="&#x16d;" horiz-adv-x="594" 
d="M435 79h-10q-19 -38 -59 -63t-107 -25q-55 0 -99 24.5t-69 70.5t-25 109v296h93v-291q0 -66 33 -98.5t94 -32.5q67 0 107 45t40 127v250h94v-491h-92v79zM419 677q0 -54 -33.5 -85t-88.5 -31t-88.5 31t-33.5 85v23h72v-17q0 -23 13 -37t37 -14t37 14t13 37v17h72v-23z
" />
    <glyph glyph-name="Uring" unicode="&#x16e;" horiz-adv-x="654" 
d="M163 236q0 -79 42.5 -120.5t121.5 -41.5t121.5 41.5t42.5 120.5v464h99v-462q0 -120 -70.5 -186t-192.5 -66t-192.5 66t-70.5 186v462h99v-464zM254 910q29 28 73 28t73.5 -28t29.5 -71q0 -44 -30 -72t-73 -28t-72.5 28.5t-29.5 71.5t29 71zM299 811q11 -11 28 -11
q18 0 28.5 11t10.5 28t-10.5 28t-28.5 11q-17 0 -28 -11t-11 -28t11 -28z" />
    <glyph glyph-name="uring" unicode="&#x16f;" horiz-adv-x="594" 
d="M435 79h-10q-19 -38 -59 -63t-107 -25q-55 0 -99 24.5t-69 70.5t-25 109v296h93v-291q0 -66 33 -98.5t94 -32.5q67 0 107 45t40 127v250h94v-491h-92v79zM224 710q29 28 73 28t73.5 -28t29.5 -71q0 -44 -29.5 -71.5t-73.5 -27.5q-43 0 -72.5 28.5t-29.5 70.5q0 43 29 71z
M269 611q11 -11 28 -11q18 0 28.5 11t10.5 28t-10.5 28t-28.5 11q-17 0 -28 -11t-11 -28t11 -28z" />
    <glyph glyph-name="Uhungarumlaut" unicode="&#x170;" horiz-adv-x="654" 
d="M163 236q0 -79 42.5 -120.5t121.5 -41.5t121.5 41.5t42.5 120.5v464h99v-462q0 -120 -70.5 -186t-192.5 -66t-192.5 66t-70.5 186v462h99v-464zM364 880l-84 -116h-84l60 116h108zM506 880l-84 -116h-84l60 116h108z" />
    <glyph glyph-name="uhungarumlaut" unicode="&#x171;" horiz-adv-x="594" 
d="M435 79h-10q-19 -38 -59 -63t-107 -25q-55 0 -99 24.5t-69 70.5t-25 109v296h93v-291q0 -66 33 -98.5t94 -32.5q67 0 107 45t40 127v250h94v-491h-92v79zM333 700l-85 -130h-83l61 130h107zM476 700l-85 -130h-84l62 130h107z" />
    <glyph glyph-name="Uogonek" unicode="&#x172;" horiz-adv-x="654" 
d="M590 700v-462q0 -112 -61 -177t-169 -74l-11 -49q-2 -14 -2 -16q0 -20 22 -20h44v-68h-64q-32 0 -53 18.5t-21 51.5q0 14 5 37l10 47q-106 10 -166 75t-60 175v462h99v-464q0 -79 42.5 -120.5t121.5 -41.5t121.5 41.5t42.5 120.5v464h99z" />
    <glyph glyph-name="uogonek" unicode="&#x173;" horiz-adv-x="594" 
d="M566 -98v-68h-64q-32 0 -53 18.5t-21 51.5q0 14 5 37l13 59h-11v79h-10q-19 -38 -59 -63t-107 -25q-55 0 -99 24.5t-69 70.5t-25 109v296h93v-291q0 -66 33 -98.5t94 -32.5q67 0 107 45t40 127v250h94v-491h-12l-13 -62q-2 -14 -2 -16q0 -20 22 -20h44z" />
    <glyph glyph-name="Wcircumflex" unicode="&#x174;" horiz-adv-x="886" 
d="M122 700l101 -601h10l133 601h154l133 -601h10l100 601h100l-123 -700h-159l-133 602h-10l-133 -602h-160l-123 700h100zM448 829h-11l-52 -65h-98l97 116h117l98 -116h-98z" />
    <glyph glyph-name="wcircumflex" unicode="&#x175;" horiz-adv-x="766" 
d="M123 491l81 -408h10l104 408h130l104 -408h10l81 408h95l-111 -491h-135l-104 408h-10l-104 -408h-135l-111 491h95zM388 645h-11l-54 -75h-96l97 130h118l97 -130h-97z" />
    <glyph glyph-name="Ycircumflex" unicode="&#x176;" horiz-adv-x="615" 
d="M121 700l182 -331h10l181 331h113l-250 -439v-261h-99v261l-250 439h113zM313 829h-11l-52 -65h-98l97 116h117l98 -116h-98z" />
    <glyph glyph-name="ycircumflex" unicode="&#x177;" horiz-adv-x="548" 
d="M431 491h102l-285 -691h-102l78 181l-209 510h102l152 -384h10zM279 645h-11l-54 -75h-96l97 130h118l97 -130h-97z" />
    <glyph glyph-name="Ydieresis" unicode="&#x178;" horiz-adv-x="615" 
d="M121 700l182 -331h10l181 331h113l-250 -439v-261h-99v261l-250 439h113zM158.5 870.5q20.5 20.5 51.5 20.5q32 0 52.5 -20.5t20.5 -51.5t-20.5 -51t-52.5 -20q-31 0 -51.5 20t-20.5 51t20.5 51.5zM352.5 870.5q20.5 20.5 51.5 20.5q32 0 52.5 -20.5t20.5 -51.5
t-20.5 -51t-52.5 -20q-31 0 -51.5 20t-20.5 51t20.5 51.5z" />
    <glyph glyph-name="Zacute" unicode="&#x179;" horiz-adv-x="577" 
d="M537 700v-84l-377 -528h383v-88h-506v84l376 528h-366v88h490zM398 880l-82 -116h-87l56 116h113z" />
    <glyph glyph-name="zacute" unicode="&#x17a;" horiz-adv-x="529" 
d="M481 491v-70l-308 -344h316v-77h-442v70l309 344h-299v77h424zM369 700l-81 -130h-86l56 130h111z" />
    <glyph glyph-name="Zdotaccent" unicode="&#x17b;" horiz-adv-x="577" 
d="M537 700v-84l-377 -528h383v-88h-506v84l376 528h-366v88h490zM239.5 870.5q20.5 20.5 51.5 20.5q32 0 52.5 -20.5t20.5 -51.5t-20.5 -51t-52.5 -20q-31 0 -51.5 20t-20.5 51t20.5 51.5z" />
    <glyph glyph-name="zdotaccent" unicode="&#x17c;" horiz-adv-x="529" 
d="M481 491v-70l-308 -344h316v-77h-442v70l309 344h-299v77h424zM211.5 691.5q20.5 20.5 51.5 20.5q32 0 52.5 -20.5t20.5 -51.5t-20.5 -51t-52.5 -20q-31 0 -51.5 20t-20.5 51t20.5 51.5z" />
    <glyph glyph-name="Zcaron" unicode="&#x17d;" horiz-adv-x="577" 
d="M537 700v-84l-377 -528h383v-88h-506v84l376 528h-366v88h490zM448 882l-98 -115h-117l-97 115h98l52 -65h11l53 65h98z" />
    <glyph glyph-name="zcaron" unicode="&#x17e;" horiz-adv-x="529" 
d="M481 491v-70l-308 -344h316v-77h-442v70l309 344h-299v77h424zM419 700l-97 -130h-118l-97 130h96l54 -75h11l54 75h97z" />
    <glyph glyph-name="florin" unicode="&#x192;" 
d="M261 614q0 37 24 61.5t61 24.5h192v-88h-156q-27 0 -27 -30v-136h142v-88h-142v-272q0 -37 -24 -61.5t-61 -24.5h-184v88h148q27 0 27 30v240h-137v88h137v168z" />
    <glyph glyph-name="Aringacute" unicode="&#x1fa;" horiz-adv-x="605" 
d="M228.5 767.5q-29.5 28.5 -29.5 71.5t29 71t73 28h2l30 62h112l-66 -94q25 -27 25 -67q0 -44 -30 -72t-73 -28t-72.5 28.5zM273 867q-11 -11 -11 -28t11 -28t28 -11q18 0 28.5 11t10.5 28t-10.5 28t-28.5 11q-17 0 -28 -11zM379 700l216 -700h-103l-52 170h-276l-52 -170
h-102l216 700h153zM189 260h226l-108 354h-10z" />
    <glyph glyph-name="aringacute" unicode="&#x1fb;" horiz-adv-x="534" 
d="M128.5 464.5q53.5 40.5 141.5 40.5q95 0 149 -49t54 -137v-319h-90v66h-12q-44 -80 -151 -80q-79 0 -130 41.5t-51 113.5q0 73 51.5 112.5t134.5 39.5h156v32q0 47 -28.5 75t-83.5 28q-53 0 -84.5 -26.5t-41.5 -70.5l-88 28q20 65 73.5 105.5zM160.5 85
q27.5 -22 75.5 -22q65 0 105 39t40 105v10h-151q-44 0 -70.5 -19.5t-26.5 -54.5q0 -36 27.5 -58zM371 639q0 -44 -29.5 -71.5t-73.5 -27.5q-43 0 -72.5 28.5t-29.5 70.5t28.5 70t71.5 29l40 92h111l-75 -120q29 -29 29 -71zM296.5 611q10.5 11 10.5 28t-10.5 28t-28.5 11
q-17 0 -28 -11t-11 -28t11 -28t28 -11q18 0 28.5 11z" />
    <glyph glyph-name="AEacute" unicode="&#x1fc;" horiz-adv-x="607" 
d="M398 92h172v-92h-271v169h-137l-50 -169h-102l210 700h345v-92h-167v-211h142v-92h-142v-213zM299 260v348h-10l-105 -348h115zM449 880l-82 -116h-87l56 116h113z" />
    <glyph glyph-name="aeacute" unicode="&#x1fd;" horiz-adv-x="883" 
d="M851 215h-370q4 -67 44.5 -107t105.5 -40q93 0 135 86l73 -48q-33 -55 -80 -87.5t-124 -32.5q-64 0 -115 28.5t-82 79.5h-11q-19 -44 -66 -76t-126 -32q-88 0 -142 40.5t-54 113.5t52.5 112t139.5 39h157v34q0 47 -31.5 75t-86.5 28q-53 0 -86 -26t-46 -71l-85 29
q20 64 74.5 104.5t142.5 40.5q62 0 104.5 -22.5t65.5 -63.5h11q31 41 76 63.5t99 22.5q68 0 119 -30.5t78.5 -85t27.5 -124.5v-50zM758 291q-2 62 -38.5 97t-96.5 35t-98 -36t-43 -96h276zM388 215h-152q-48 0 -76.5 -18.5t-28.5 -53.5q0 -37 30.5 -58.5t81.5 -21.5
q65 0 105 39t40 105v8zM560 700l-81 -130h-86l56 130h111z" />
    <glyph glyph-name="Oslashacute" unicode="&#x1fe;" horiz-adv-x="646" 
d="M570 581q32 -62 32 -150v-162q0 -136 -74.5 -209.5t-204.5 -73.5q-37 0 -70 6l-27 -80l-83 26l28 83q-61 34 -94 96.5t-33 151.5v162q0 136 74.5 209.5t204.5 73.5q43 0 75 -7l23 69l82 -26l-24 -73q59 -34 91 -96zM202 115l168 506q-25 5 -47 5q-84 0 -132 -51t-48 -140
v-170q0 -99 59 -150zM503 435q0 95 -55 147l-167 -504q17 -4 42 -4q84 0 132 51t48 140v170zM430 880l-82 -116h-87l56 116h113z" />
    <glyph glyph-name="oslashacute" unicode="&#x1ff;" horiz-adv-x="579" 
d="M520.5 361q22.5 -52 22.5 -116q0 -77 -32.5 -135.5t-90 -91t-131.5 -32.5q-54 0 -99 18l-38 -63l-66 39l37 62q-41 34 -64 86.5t-23 116.5q0 77 32 136t89.5 91.5t131.5 32.5q57 0 102 -19l35 58l65 -39l-34 -57q41 -35 63.5 -87zM170 120l177 292q-26 10 -58 10
q-71 0 -115 -49t-44 -128q0 -77 40 -125zM405 117q44 48 44 128q0 74 -40 124l-175 -292q27 -8 55 -8q72 0 116 48zM395 700l-81 -130h-86l56 130h111z" />
    <glyph glyph-name="uni0218" unicode="&#x218;" horiz-adv-x="598" 
d="M480.5 657q70.5 -57 70.5 -163v-27h-98v27q0 68 -41.5 100.5t-113.5 32.5q-67 0 -105 -27.5t-38 -78.5q0 -48 32.5 -72.5t105.5 -41.5l43 -10q109 -25 166 -70.5t57 -132.5q0 -62 -31.5 -109t-89.5 -73t-135 -26q-121 0 -195 64t-74 182v9h98v-9q0 -79 45.5 -119
t125.5 -40q75 0 117 32.5t42 86.5q0 50 -36 74.5t-113 42.5l-43 10q-106 24 -159.5 69t-53.5 131q0 90 66 142.5t175 52.5q112 0 182.5 -57zM256 -72q22 22 56 22q33 0 55.5 -22t22.5 -55v-99q0 -36 -22.5 -58t-58.5 -22h-71v55h62q28 0 28 27v23q-8 -2 -18 -2q-32 0 -54 21
t-22 53q0 35 22 57z" />
    <glyph glyph-name="uni0219" unicode="&#x219;" horiz-adv-x="502" 
d="M108 466.5q51 38.5 138 38.5q81 0 134 -37.5t69 -102.5l-86 -25q-19 91 -117 91q-45 0 -71 -17.5t-26 -48.5q0 -30 23.5 -46.5t69.5 -24.5l42 -6q90 -16 136.5 -47.5t46.5 -99.5q0 -73 -54.5 -114t-146.5 -41q-95 0 -156 43.5t-74 127.5l88 22q20 -119 142 -119
q51 0 80.5 20.5t29.5 54.5q0 31 -26 47.5t-80 25.5l-42 7q-80 14 -125.5 48t-45.5 97q0 68 51 106.5zM197 -72q22 22 56 22q33 0 55.5 -22t22.5 -55v-99q0 -36 -22.5 -58t-58.5 -22h-71v55h62q28 0 28 27v23q-8 -2 -18 -2q-32 0 -54 21t-22 53q0 35 22 57z" />
    <glyph glyph-name="uni021A" unicode="&#x21a;" horiz-adv-x="579" 
d="M565 700v-89h-226v-611h-99v611h-226v89h551zM234 -72q22 22 56 22q33 0 55.5 -22t22.5 -55v-99q0 -36 -22.5 -58t-58.5 -22h-71v55h62q28 0 28 27v23q-8 -2 -18 -2q-32 0 -54 21t-22 53q0 35 22 57z" />
    <glyph glyph-name="uni021B" unicode="&#x21b;" horiz-adv-x="429" 
d="M150 491v168h94v-168h152v-77h-152v-307q0 -30 28 -30h105v-77h-136q-41 0 -66 25t-25 67v322h-142v77h142zM173 -72q22 22 56 22q33 0 55.5 -22t22.5 -55v-99q0 -36 -22.5 -58t-58.5 -22h-71v55h62q28 0 28 27v23q-8 -2 -18 -2q-32 0 -54 21t-22 53q0 35 22 57z" />
    <glyph glyph-name="uni0237" unicode="&#x237;" horiz-adv-x="234" 
d="M141.5 -175.5q-24.5 -24.5 -65.5 -24.5h-124v77h93q28 0 28 30v584h93v-599q0 -43 -24.5 -67.5z" />
    <glyph glyph-name="circumflex" unicode="&#x2c6;" horiz-adv-x="410" 
d="M210 645h-11l-54 -75h-96l97 130h118l97 -130h-97z" />
    <glyph glyph-name="caron" unicode="&#x2c7;" horiz-adv-x="410" 
d="M361 700l-97 -130h-118l-97 130h96l54 -75h11l54 75h97z" />
    <glyph glyph-name="breve" unicode="&#x2d8;" horiz-adv-x="341" 
d="M293 677q0 -54 -33.5 -85t-88.5 -31t-88.5 31t-33.5 85v23h72v-17q0 -23 13 -37t37 -14t37 14t13 37v17h72v-23z" />
    <glyph glyph-name="dotaccent" unicode="&#x2d9;" horiz-adv-x="243" 
d="M69.5 691.5q20.5 20.5 51.5 20.5q32 0 52.5 -20.5t20.5 -51.5t-20.5 -51t-52.5 -20q-31 0 -51.5 20t-20.5 51t20.5 51.5z" />
    <glyph glyph-name="ring" unicode="&#x2da;" horiz-adv-x="303" 
d="M78 710q29 28 73 28t73.5 -28t29.5 -71q0 -44 -29.5 -71.5t-73.5 -27.5q-43 0 -72.5 28.5t-29.5 70.5q0 43 29 71zM123 611q11 -11 28 -11q18 0 28.5 11t10.5 28t-10.5 28t-28.5 11q-17 0 -28 -11t-11 -28t11 -28z" />
    <glyph glyph-name="ogonek" unicode="&#x2db;" horiz-adv-x="236" 
d="M123 -62q-2 -14 -2 -16q0 -20 22 -20h44v-68h-64q-32 0 -53 18.5t-21 51.5q0 14 5 37l18 83l68 -7z" />
    <glyph glyph-name="tilde" unicode="&#x2dc;" horiz-adv-x="454" 
d="M172 719q21 0 37.5 -10t34.5 -34q12 -16 18.5 -22t17.5 -6q12 0 18.5 5t15.5 17l32 42l59 -45l-46 -61q-16 -21 -34.5 -32t-43.5 -11q-21 0 -37 10t-34 34q-12 16 -18.5 22t-18.5 6q-11 0 -17.5 -5t-16.5 -17l-31 -42l-59 45l45 61q32 43 78 43z" />
    <glyph glyph-name="hungarumlaut" unicode="&#x2dd;" horiz-adv-x="408" 
d="M217 700l-85 -130h-83l61 130h107zM360 700l-85 -130h-84l62 130h107z" />
    <glyph glyph-name="gravecomb" unicode="&#x300;" horiz-adv-x="0" 
d="M-49 570h-85l-85 130h109z" />
    <glyph glyph-name="acutecomb" unicode="&#x301;" horiz-adv-x="0" 
d="M-50 700l-81 -130h-86l56 130h111z" />
    <glyph glyph-name="uni0302" unicode="&#x302;" horiz-adv-x="0" 
d="M-200 645h-11l-54 -75h-96l97 130h118l97 -130h-97z" />
    <glyph glyph-name="tildecomb" unicode="&#x303;" horiz-adv-x="0" 
d="M-282 719q21 0 37.5 -10t34.5 -34q12 -16 18.5 -22t17.5 -6q12 0 18.5 5t15.5 17l32 42l59 -45l-46 -61q-16 -21 -34.5 -32t-43.5 -11q-21 0 -37 10t-34 34q-12 16 -18.5 22t-18.5 6q-11 0 -17.5 -5t-16.5 -17l-31 -42l-59 45l45 61q32 43 78 43z" />
    <glyph glyph-name="uni0304" unicode="&#x304;" horiz-adv-x="0" 
d="M-49 570h-285v77h285v-77z" />
    <glyph glyph-name="uni0306" unicode="&#x306;" horiz-adv-x="0" 
d="M-48 677q0 -54 -33.5 -85t-88.5 -31t-88.5 31t-33.5 85v23h72v-17q0 -23 13 -37t37 -14t37 14t13 37v17h72v-23z" />
    <glyph glyph-name="uni0307" unicode="&#x307;" horiz-adv-x="0" 
d="M-173.5 691.5q20.5 20.5 51.5 20.5q32 0 52.5 -20.5t20.5 -51.5t-20.5 -51t-52.5 -20q-31 0 -51.5 20t-20.5 51t20.5 51.5z" />
    <glyph glyph-name="uni0308" unicode="&#x308;" horiz-adv-x="0" 
d="M-361.5 691.5q20.5 20.5 51.5 20.5q32 0 52.5 -20.5t20.5 -51.5t-20.5 -51t-52.5 -20q-31 0 -51.5 20t-20.5 51t20.5 51.5zM-173.5 691.5q20.5 20.5 51.5 20.5q32 0 52.5 -20.5t20.5 -51.5t-20.5 -51t-52.5 -20q-31 0 -51.5 20t-20.5 51t20.5 51.5z" />
    <glyph glyph-name="uni030A" unicode="&#x30a;" horiz-adv-x="0" 
d="M-225 710q29 28 73 28t73.5 -28t29.5 -71q0 -44 -29.5 -71.5t-73.5 -27.5q-43 0 -72.5 28.5t-29.5 70.5q0 43 29 71zM-180 611q11 -11 28 -11q18 0 28.5 11t10.5 28t-10.5 28t-28.5 11q-17 0 -28 -11t-11 -28t11 -28z" />
    <glyph glyph-name="uni030B" unicode="&#x30b;" horiz-adv-x="0" 
d="M-191 700l-85 -130h-83l61 130h107zM-48 700l-85 -130h-84l62 130h107z" />
    <glyph glyph-name="uni030C" unicode="&#x30c;" horiz-adv-x="0" 
d="M-49 700l-97 -130h-118l-97 130h96l54 -75h11l54 75h97z" />
    <glyph glyph-name="uni0312" unicode="&#x312;" horiz-adv-x="0" 
d="M-70.5 584.5q-22.5 -22.5 -55.5 -22.5q-34 0 -56 22t-22 56v99q0 36 22.5 58t57.5 22h71v-55h-61q-15 0 -22 -6.5t-7 -20.5v-23q8 2 19 2q32 0 54 -21.5t22 -53.5q0 -34 -22.5 -56.5z" />
    <glyph glyph-name="uni0326" unicode="&#x326;" horiz-adv-x="0" 
d="M-182 -72q22 22 56 22q33 0 55.5 -22t22.5 -55v-99q0 -36 -22.5 -58t-58.5 -22h-71v55h62q28 0 28 27v23q-8 -2 -18 -2q-32 0 -54 21t-22 53q0 35 22 57z" />
    <glyph glyph-name="uni0327" unicode="&#x327;" horiz-adv-x="0" 
d="M-186 -60h9q7 9 20 15t30 6q33 0 55.5 -21.5t22.5 -60.5q0 -42 -28.5 -67t-72.5 -25q-57 0 -87 39l34 48q7 -13 20 -20.5t29 -7.5q17 0 27.5 9.5t10.5 25.5q0 14 -8 22.5t-22 8.5q-17 0 -26 -13h-80v8l26 125h58z" />
    <glyph glyph-name="uni0328" unicode="&#x328;" horiz-adv-x="0" 
d="M-113 -62q-2 -14 -2 -16q0 -20 22 -20h44v-68h-64q-32 0 -53 18.5t-21 51.5q0 14 5 37l18 83l68 -7z" />
    <glyph glyph-name="uni0335" unicode="&#x335;" horiz-adv-x="0" 
d="M-49 630v-66h-287v66h287z" />
    <glyph glyph-name="uni0336" unicode="&#x336;" horiz-adv-x="0" 
d="M-48 502h-623v82h623v-82z" />
    <glyph glyph-name="uni0337" unicode="&#x337;" horiz-adv-x="0" 
d="M0 505l-339 -564l-66 39l340 564z" />
    <glyph glyph-name="uni0338" unicode="&#x338;" horiz-adv-x="0" 
d="M-49 750l-277 -838l-83 26l278 838z" />
    <glyph glyph-name="pi" unicode="&#x3c0;" 
d="M140 408h-74v88h490v-88h-74v-290q0 -30 27 -30h47v-88h-85q-36 0 -59.5 23.5t-23.5 60.5v324h-154v-408h-94v408z" />
    <glyph glyph-name="Wgrave" unicode="&#x1e80;" horiz-adv-x="886" 
d="M122 700l101 -601h10l133 601h154l133 -601h10l100 601h100l-123 -700h-159l-133 602h-10l-133 -602h-160l-123 700h100zM507 764h-86l-84 116h110z" />
    <glyph glyph-name="wgrave" unicode="&#x1e81;" horiz-adv-x="766" 
d="M123 491l81 -408h10l104 408h130l104 -408h10l81 408h95l-111 -491h-135l-104 408h-10l-104 -408h-135l-111 491h95zM446 570h-85l-85 130h109z" />
    <glyph glyph-name="Wacute" unicode="&#x1e82;" horiz-adv-x="886" 
d="M122 700l101 -601h10l133 601h154l133 -601h10l100 601h100l-123 -700h-159l-133 602h-10l-133 -602h-160l-123 700h100zM549 880l-82 -116h-87l56 116h113z" />
    <glyph glyph-name="wacute" unicode="&#x1e83;" horiz-adv-x="766" 
d="M123 491l81 -408h10l104 408h130l104 -408h10l81 408h95l-111 -491h-135l-104 408h-10l-104 -408h-135l-111 491h95zM489 700l-81 -130h-86l56 130h111z" />
    <glyph glyph-name="Wdieresis" unicode="&#x1e84;" horiz-adv-x="886" 
d="M122 700l101 -601h10l133 601h154l133 -601h10l100 601h100l-123 -700h-159l-133 602h-10l-133 -602h-160l-123 700h100zM293.5 870.5q20.5 20.5 51.5 20.5q32 0 52.5 -20.5t20.5 -51.5t-20.5 -51t-52.5 -20q-31 0 -51.5 20t-20.5 51t20.5 51.5zM487.5 870.5
q20.5 20.5 51.5 20.5q32 0 52.5 -20.5t20.5 -51.5t-20.5 -51t-52.5 -20q-31 0 -51.5 20t-20.5 51t20.5 51.5z" />
    <glyph glyph-name="wdieresis" unicode="&#x1e85;" horiz-adv-x="766" 
d="M123 491l81 -408h10l104 408h130l104 -408h10l81 408h95l-111 -491h-135l-104 408h-10l-104 -408h-135l-111 491h95zM236.5 691.5q20.5 20.5 51.5 20.5q32 0 52.5 -20.5t20.5 -51.5t-20.5 -51t-52.5 -20q-31 0 -51.5 20t-20.5 51t20.5 51.5zM424.5 691.5
q20.5 20.5 51.5 20.5q32 0 52.5 -20.5t20.5 -51.5t-20.5 -51t-52.5 -20q-31 0 -51.5 20t-20.5 51t20.5 51.5z" />
    <glyph glyph-name="uni1E9E" unicode="&#x1e9e;" horiz-adv-x="622" 
d="M134 630q70 70 187 70h250v-78l-164 -206q-9 -12 -13.5 -20.5t-4.5 -18.5q0 -12 9.5 -21t28.5 -17l41 -19q62 -27 95.5 -65t33.5 -101q0 -73 -49 -120.5t-136 -47.5q-92 0 -145.5 50.5t-53.5 131.5h100q0 -41 26 -67.5t73 -26.5q40 0 64.5 22.5t24.5 56.5q0 32 -20 50.5
t-60 35.5l-48 21q-81 36 -81 107q0 30 14.5 56.5t44.5 62.5l103 125h-133q-70 0 -114 -42t-44 -134v-435h-99v431q0 129 70 199z" />
    <glyph glyph-name="Ygrave" unicode="&#x1ef2;" horiz-adv-x="615" 
d="M121 700l182 -331h10l181 331h113l-250 -439v-261h-99v261l-250 439h113zM371 764h-86l-84 116h110z" />
    <glyph glyph-name="ygrave" unicode="&#x1ef3;" horiz-adv-x="548" 
d="M431 491h102l-285 -691h-102l78 181l-209 510h102l152 -384h10zM337 570h-85l-85 130h109z" />
    <glyph glyph-name="endash" unicode="&#x2013;" horiz-adv-x="612" 
d="M82 299h448v-86h-448v86z" />
    <glyph glyph-name="emdash" unicode="&#x2014;" horiz-adv-x="916" 
d="M82 299h752v-86h-752v86z" />
    <glyph glyph-name="quoteleft" unicode="&#x2018;" horiz-adv-x="254" 
d="M182.5 470q-21.5 -21 -55.5 -21t-55.5 21.5t-21.5 57.5v70q0 54 29.5 84.5t85.5 30.5h26v-56h-29q-47 0 -47 -48v-11h13q33 0 54.5 -20.5t21.5 -52.5q0 -34 -21.5 -55z" />
    <glyph glyph-name="quoteright" unicode="&#x2019;" horiz-adv-x="254" 
d="M71.5 694q21.5 21 55.5 21t55.5 -21.5t21.5 -57.5v-70q0 -54 -29.5 -84.5t-85.5 -30.5h-26v56h29q48 0 48 48v11h-14q-33 0 -54.5 20.5t-21.5 52.5q0 34 21.5 55z" />
    <glyph glyph-name="quotesinglbase" unicode="&#x201a;" horiz-adv-x="254" 
d="M71.5 121q21.5 21 55.5 21t55.5 -21.5t21.5 -57.5v-70q0 -54 -29.5 -84.5t-85.5 -30.5h-26v56h29q48 0 48 48v11h-14q-33 0 -54.5 20.5t-21.5 52.5q0 34 21.5 55z" />
    <glyph glyph-name="quotedblleft" unicode="&#x201c;" horiz-adv-x="434" 
d="M182.5 470q-21.5 -21 -55.5 -21t-55.5 21.5t-21.5 57.5v70q0 54 29.5 84.5t85.5 30.5h26v-56h-29q-47 0 -47 -48v-11h13q33 0 54.5 -20.5t21.5 -52.5q0 -34 -21.5 -55zM362.5 470q-21.5 -21 -55.5 -21q-33 0 -54.5 21.5t-21.5 57.5v70q0 54 29 84.5t85 30.5h26v-56h-28
q-48 0 -48 -48v-11h13q33 0 54.5 -20.5t21.5 -52.5q0 -34 -21.5 -55z" />
    <glyph glyph-name="quotedblright" unicode="&#x201d;" horiz-adv-x="434" 
d="M71.5 694q21.5 21 55.5 21t55.5 -21.5t21.5 -57.5v-70q0 -54 -29.5 -84.5t-85.5 -30.5h-26v56h29q48 0 48 48v11h-14q-33 0 -54.5 20.5t-21.5 52.5q0 34 21.5 55zM251.5 694q21.5 21 55.5 21t55.5 -21.5t21.5 -57.5v-70q0 -54 -29.5 -84.5t-85.5 -30.5h-26v56h29
q48 0 48 48v11h-14q-33 0 -54.5 20.5t-21.5 52.5q0 34 21.5 55z" />
    <glyph glyph-name="quotedblbase" unicode="&#x201e;" horiz-adv-x="434" 
d="M71.5 121q21.5 21 55.5 21t55.5 -21.5t21.5 -57.5v-70q0 -54 -29.5 -84.5t-85.5 -30.5h-26v56h29q48 0 48 48v11h-14q-33 0 -54.5 20.5t-21.5 52.5q0 34 21.5 55zM251.5 121q21.5 21 55.5 21t55.5 -21.5t21.5 -57.5v-70q0 -54 -29.5 -84.5t-85.5 -30.5h-26v56h29
q48 0 48 48v11h-14q-33 0 -54.5 20.5t-21.5 52.5q0 34 21.5 55z" />
    <glyph glyph-name="dagger" unicode="&#x2020;" 
d="M94 518h167v182h98v-182h167v-91h-167v-427h-98v427h-167v91z" />
    <glyph glyph-name="daggerdbl" unicode="&#x2021;" 
d="M94 276h167v151h-167v91h167v182h98v-182h167v-91h-167v-151h167v-94h-167v-182h-98v182h-167v94z" />
    <glyph glyph-name="bullet" unicode="&#x2022;" horiz-adv-x="310" 
d="M45.5 413q17.5 29 46.5 46.5t63 17.5t63 -17.5t46.5 -46.5t17.5 -63t-17.5 -63.5t-46.5 -46.5t-63 -17q-33 0 -62.5 17.5t-47 46.5t-17.5 63t17.5 63z" />
    <glyph glyph-name="ellipsis" unicode="&#x2026;" horiz-adv-x="623" 
d="M72.5 120q22.5 22 55.5 22q34 0 56 -22t22 -56t-22 -56t-56 -22q-33 0 -55.5 22t-22.5 56t22.5 56zM255.5 120q22.5 22 55.5 22q34 0 56 -22t22 -56t-22 -56t-56 -22q-33 0 -55.5 22t-22.5 56t22.5 56zM438.5 120q22.5 22 55.5 22q34 0 56 -22t22 -56t-22 -56t-56 -22
q-33 0 -55.5 22t-22.5 56t22.5 56z" />
    <glyph glyph-name="perthousand" unicode="&#x2030;" horiz-adv-x="1017" 
d="M327 670q44 -43 44 -116v-19q0 -74 -43 -116t-119 -42q-77 0 -120 42t-43 116v19q0 74 43 116.5t120 42.5q74 0 118 -43zM679 655l-200 -233l-50 38l173 253zM291 559q0 40 -21 63.5t-61 23.5t-61.5 -23.5t-21.5 -63.5v-28q0 -40 21.5 -63.5t61.5 -23.5t61 23.5t21 63.5
v28zM928 280q43 -43 43 -116v-19q0 -73 -42 -115.5t-116 -42.5q-42 0 -74.5 15t-51.5 43q-20 -28 -52.5 -43t-74.5 -15q-73 0 -115.5 42.5t-42.5 115.5v19q0 74 42.5 116.5t115.5 42.5q42 0 74 -15.5t52 -44.5q41 60 127 60q72 0 115 -43zM91 46l200 233l50 -38l-173 -253z
M646 169q0 40 -21 63.5t-61 23.5t-61.5 -23.5t-21.5 -63.5v-28q0 -40 21.5 -63.5t61.5 -23.5t61 23.5t21 63.5v28zM891 169q0 40 -21 63.5t-61 23.5t-61 -23.5t-21 -63.5v-28q0 -40 21 -63.5t61 -23.5t61 23.5t21 63.5v28z" />
    <glyph glyph-name="prime" unicode="&#x2032;" horiz-adv-x="310" 
d="M216 700l-53 -263h-64l10 263h107z" />
    <glyph glyph-name="primedbl" unicode="&#x2033;" horiz-adv-x="440" 
d="M208 700l-53 -263h-65l10 263h108zM355 700l-54 -263h-64l10 263h108z" />
    <glyph glyph-name="guilsinglleft" unicode="&#x2039;" horiz-adv-x="480" 
d="M405 477h6v-104l-255 -121v-13l255 -121v-104h-6l-340 177v109z" />
    <glyph glyph-name="guilsinglright" unicode="&#x203a;" horiz-adv-x="480" 
d="M415 191l-340 -177h-6v104l255 121v13l-255 121v104h6l340 -177v-109z" />
    <glyph glyph-name="fraction" unicode="&#x2044;" horiz-adv-x="627" 
d="M530 713l78 -58l-200 -233l-51 37zM97 -13l-78 58l200 234l51 -38z" />
    <glyph glyph-name="uni2074" unicode="&#x2074;" horiz-adv-x="376" 
d="M301 700v-209h72v-62h-72v-79h-78v79h-210v56l165 215h123zM98 491h125v146h-9z" />
    <glyph glyph-name="uni20A8" unicode="&#x20a8;" horiz-adv-x="645" 
d="M428 620v-10q23 -15 40 -38t25 -52h115v-80h-110q-9 -70 -57 -116t-122 -59l177 -265h-119l-165 260h-148v84h190q55 0 92 25t48 71h-330v80h330q-11 45 -48 70t-92 25h-190v85h544v-80h-180z" />
    <glyph glyph-name="Euro" unicode="&#x20ac;" horiz-adv-x="665" 
d="M529 444v14q0 78 -40 122.5t-115 44.5q-73 0 -115.5 -44.5t-49.5 -119.5h165v-79h-167v-55h167v-78h-166q5 -82 47.5 -128t118.5 -46q80 0 117.5 43t37.5 122v18h99v-21q0 -118 -66 -184.5t-188 -66.5q-118 0 -188 68.5t-77 194.5h-71v78h70v55h-70v79h72
q10 119 79.5 186t184.5 67q121 0 187.5 -67.5t66.5 -184.5v-18h-99z" />
    <glyph glyph-name="uni20BF" unicode="&#x20bf;" horiz-adv-x="617" 
d="M533.5 66q-42.5 -48 -114.5 -61v-121h-83v116h-68v-116h-84v116h-116v700h116v116h84v-116h68v116h83v-121q70 -13 112 -60.5t42 -118.5q0 -68 -34.5 -106t-82.5 -52v-10q48 -14 84 -53t36 -107q0 -74 -42.5 -122zM167 397h191q55 0 87.5 29.5t32.5 78.5q0 47 -33 76.5
t-88 29.5h-190v-214zM447.5 119.5q32.5 30.5 32.5 79.5q0 51 -32.5 79.5t-90.5 28.5h-190v-218h192q56 0 88.5 30.5z" />
    <glyph glyph-name="trademark" unicode="&#x2122;" 
d="M256 700v-36h-75v-186h-40v186h-75v36h190zM358 700l53 -186h4l53 186h72v-222h-40v186h-4l-53 -186h-60l-53 186h-4v-186h-40v222h72z" />
    <glyph glyph-name="oneeighth" unicode="&#x215b;" horiz-adv-x="739" 
d="M208 700v-350h-78v260h-10l-38 -66h-72v10l86 146h112zM530 713l78 -58l-200 -233l-51 37zM97 -13l-78 58l200 234l51 -38zM426 335.5q43 27.5 111 27.5t111 -27.5t43 -70.5v-3q0 -32 -19 -50.5t-42 -25.5v-10q25 -6 46 -27t21 -57v-2q0 -45 -43.5 -74t-116.5 -29
t-116.5 29t-43.5 74v2q0 37 21 57.5t47 26.5v10q-24 7 -43 25.5t-19 50.5v3q0 43 43 70.5zM481.5 222.5q20.5 -12.5 55.5 -12.5t55.5 12.5t20.5 33.5q0 20 -20.5 32t-55.5 12t-55.5 -12t-20.5 -32q0 -21 20.5 -33.5zM477 63q22 -13 60 -13t60 13t22 36q0 24 -21.5 37
t-60.5 13q-38 0 -60 -13t-22 -37q0 -23 22 -36z" />
    <glyph glyph-name="threeeighths" unicode="&#x215c;" horiz-adv-x="805" 
d="M333 646l-115 -74v-10q51 -2 84 -27.5t33 -74.5q0 -54 -44.5 -88.5t-111.5 -34.5q-71 0 -115 35.5t-46 98.5h77q1 -32 23.5 -50.5t58.5 -18.5t58 17t22 44q0 26 -20.5 40.5t-59.5 14.5h-62v51l102 67h-192v64h308v-54zM617 713l78 -58l-200 -233l-51 37zM184 -13l-78 58
l200 234l51 -38zM512 335.5q43 27.5 111 27.5t111 -27.5t43 -70.5v-3q0 -32 -19 -50.5t-42 -25.5v-10q25 -6 46 -27t21 -57v-2q0 -45 -43.5 -74t-116.5 -29t-116.5 29t-43.5 74v2q0 37 21 57.5t47 26.5v10q-24 7 -43 25.5t-19 50.5v3q0 43 43 70.5zM567.5 222.5
q20.5 -12.5 55.5 -12.5t55.5 12.5t20.5 33.5q0 20 -20.5 32t-55.5 12t-55.5 -12t-20.5 -32q0 -21 20.5 -33.5zM563 63q22 -13 60 -13t60 13t22 36q0 24 -21.5 37t-60.5 13q-38 0 -60 -13t-22 -37q0 -23 22 -36z" />
    <glyph glyph-name="fiveeighths" unicode="&#x215d;" horiz-adv-x="801" 
d="M327 636h-218v-81h10q19 13 38.5 21.5t54.5 8.5q54 0 90.5 -32t36.5 -84v-5q0 -55 -43 -91t-114 -36q-67 0 -109 34t-52 90h78q6 -26 27.5 -43t55.5 -17q36 0 57.5 18t21.5 46t-19.5 44t-49.5 16q-25 0 -39 -7.5t-28 -20.5h-92v203h294v-64zM616 713l78 -58l-200 -233
l-51 37zM183 -13l-78 58l200 234l51 -38zM512 335.5q43 27.5 111 27.5t111 -27.5t43 -70.5v-3q0 -32 -19 -50.5t-42 -25.5v-10q25 -6 46 -27t21 -57v-2q0 -45 -43.5 -74t-116.5 -29t-116.5 29t-43.5 74v2q0 37 21 57.5t47 26.5v10q-24 7 -43 25.5t-19 50.5v3q0 43 43 70.5z
M567.5 222.5q20.5 -12.5 55.5 -12.5t55.5 12.5t20.5 33.5q0 20 -20.5 32t-55.5 12t-55.5 -12t-20.5 -32q0 -21 20.5 -33.5zM563 63q22 -13 60 -13t60 13t22 36q0 24 -21.5 37t-60.5 13q-38 0 -60 -13t-22 -37q0 -23 22 -36z" />
    <glyph glyph-name="seveneighths" unicode="&#x215e;" horiz-adv-x="718" 
d="M310 700v-60l-148 -290h-86l148 286h-219v64h305zM546 713l78 -58l-200 -233l-51 37zM113 -13l-78 58l200 234l51 -38zM442 335.5q43 27.5 111 27.5t111 -27.5t43 -70.5v-3q0 -32 -19 -50.5t-42 -25.5v-10q25 -6 46 -27t21 -57v-2q0 -45 -43.5 -74t-116.5 -29t-116.5 29
t-43.5 74v2q0 37 21 57.5t47 26.5v10q-24 7 -43 25.5t-19 50.5v3q0 43 43 70.5zM497.5 222.5q20.5 -12.5 55.5 -12.5t55.5 12.5t20.5 33.5q0 20 -20.5 32t-55.5 12t-55.5 -12t-20.5 -32q0 -21 20.5 -33.5zM493 63q22 -13 60 -13t60 13t22 36q0 24 -21.5 37t-60.5 13
q-38 0 -60 -13t-22 -37q0 -23 22 -36z" />
    <glyph glyph-name="arrowleft" unicode="&#x2190;" horiz-adv-x="800" 
d="M348 462l-136 -136l-31 -22l3 -9l38 4h528v-91h-528l-38 3l-3 -9l31 -21l136 -136l-63 -64l-235 234v76l235 235z" />
    <glyph glyph-name="arrowup" unicode="&#x2191;" 
d="M273 706h76l234 -235l-63 -63l-135 134l-21 32l-9 -3l3 -39v-532h-94v532l3 39l-9 3l-21 -32l-135 -134l-63 63z" />
    <glyph glyph-name="arrowright" unicode="&#x2192;" horiz-adv-x="800" 
d="M750 291v-76l-235 -234l-63 64l136 136l31 21l-3 9l-38 -3h-528v91h528l38 -4l3 9l-31 22l-136 136l63 64z" />
    <glyph glyph-name="arrowdown" unicode="&#x2193;" 
d="M102 292l135 -134l21 -32l9 3l-3 39v532h94v-532l-3 -39l9 -3l21 32l135 134l63 -63l-234 -235h-76l-234 235z" />
    <glyph glyph-name="arrowboth" unicode="&#x2194;" horiz-adv-x="800" 
d="M521 517l229 -228v-76l-229 -229l-63 64l130 130l31 22l-3 9l-38 -4h-356l-38 4l-3 -9l31 -22l130 -130l-63 -64l-229 229v76l229 228l63 -63l-130 -131l-31 -21l3 -9l38 3h356l38 -3l3 9l-31 21l-130 131z" />
    <glyph glyph-name="arrowupdn" unicode="&#x2195;" 
d="M385 158l135 134l63 -63l-234 -235h-76l-234 235l63 63l135 -134l21 -32l9 3l-3 39v364l3 39l-9 3l-21 -32l-135 -134l-63 63l234 235h76l234 -235l-63 -63l-135 134l-21 32l-9 -3l3 -39v-364l-3 -39l9 -3z" />
    <glyph glyph-name="uni2196" unicode="&#x2196;" horiz-adv-x="615" 
d="M457 403h-189l-38 7l-4 -9l30 -24l322 -324l-67 -67l-323 323l-24 30l-9 -4l7 -38v-189l-88 -1v332l52 52h332z" />
    <glyph glyph-name="uni2197" unicode="&#x2197;" horiz-adv-x="615" 
d="M489 491l52 -52v-332l-88 1v189l6 38l-8 4l-24 -30l-323 -323l-67 67l322 324l30 24l-4 9l-38 -7h-190v88h332z" />
    <glyph glyph-name="uni2198" unicode="&#x2198;" horiz-adv-x="615" 
d="M157 88h190l38 -7l4 9l-30 24l-322 324l67 67l323 -324l24 -29l8 4l-6 37v190l88 1v-332l-52 -52h-332v88z" />
    <glyph glyph-name="uni2199" unicode="&#x2199;" horiz-adv-x="615" 
d="M126 0l-52 52v332l88 -1v-190l-7 -37l9 -4l24 29l323 324l67 -67l-322 -324l-30 -24l4 -9l38 7h189l1 -88h-332z" />
    <glyph glyph-name="partialdiff" unicode="&#x2202;" 
d="M88 384.5q30 58.5 82.5 92t118.5 33.5q94 0 136 -62h14q-23 78 -99 124.5t-180 58.5l18 88q187 -24 285.5 -137t98.5 -302q0 -88 -30 -154.5t-87 -103t-137 -36.5q-72 0 -129 33t-89 91.5t-32 131.5v12q0 72 30 130.5zM422.5 123.5q42.5 48.5 42.5 130.5q0 49 -20.5 87
t-56 59t-79.5 21q-45 0 -80.5 -21.5t-55.5 -60t-20 -86.5v-10q0 -75 43.5 -121.5t112.5 -46.5q71 0 113.5 48.5z" />
    <glyph glyph-name="emptyset" unicode="&#x2205;" horiz-adv-x="640" 
d="M554.5 381.5q32.5 -57.5 32.5 -129.5v-8q0 -75 -35 -134t-96 -91.5t-136 -32.5q-33 0 -63 6l-40 -93l-82 34l39 91q-56 33 -88.5 90.5t-32.5 129.5v8q0 75 35 134t96 91.5t136 32.5q33 0 63 -6l40 93l82 -34l-39 -91q56 -33 88.5 -90.5zM164 165.5q17 -34.5 47 -56.5
l135 310q-16 2 -26 2q-49 0 -88.5 -21.5t-62 -59.5t-22.5 -86v-12q0 -42 17 -76.5zM493 254q0 42 -17 76.5t-47 56.5l-135 -310q16 -2 26 -2q49 0 88.5 21.5t62 59.5t22.5 86v12z" />
    <glyph glyph-name="product" unicode="&#x220f;" 
d="M73 700h474v-700h-100v606h-274v-606h-100v700z" />
    <glyph glyph-name="summation" unicode="&#x2211;" 
d="M72 700h476v-92h-331v-13l183 -209v-72l-183 -208v-14h331v-92h-476v89l226 254v14l-226 254v89z" />
    <glyph glyph-name="minus" unicode="&#x2212;" 
d="M519 393v-86h-418v86h418z" />
    <glyph glyph-name="uni2215" unicode="&#x2215;" horiz-adv-x="504" 
d="M455 802l-312 -951h-93l311 951h94z" />
    <glyph glyph-name="radical" unicode="&#x221a;" 
d="M42 395h176l77 -309h14l180 770h96l-202 -856h-164l-77 309h-100v86z" />
    <glyph glyph-name="infinity" unicode="&#x221e;" 
d="M70 425q20 35 54 55.5t73 20.5q34 0 61 -14t43 -38h18q16 24 43 38t61 14q40 0 73.5 -20.5t53.5 -55t20 -75.5t-20.5 -76t-54.5 -55t-72 -20q-34 0 -61 14t-43 38h-18q-16 -24 -43 -38t-61 -14q-39 0 -73 21t-54 55.5t-20 74.5t20 75zM248.5 397.5q-19.5 19.5 -47.5 19.5
t-47.5 -19.5t-19.5 -47.5t19.5 -47.5t47.5 -19.5t47.5 19.5t19.5 47.5t-19.5 47.5zM371.5 302.5q19.5 -19.5 47.5 -19.5t47.5 19.5t19.5 47.5t-19.5 47.5t-47.5 19.5t-47.5 -19.5t-19.5 -47.5t19.5 -47.5z" />
    <glyph glyph-name="integral" unicode="&#x222b;" 
d="M333 -175.5q-24 -24.5 -61 -24.5h-127v88h91q27 0 27 30v696q0 37 24 61.5t61 24.5h127v-88h-91q-27 0 -27 -30v-696q0 -37 -24 -61.5z" />
    <glyph glyph-name="approxequal" unicode="&#x2248;" 
d="M356.5 448.5q7.5 -7.5 20.5 -7.5q16 0 35 17l75 59l54 -68l-92 -73q-20 -17 -39.5 -26.5t-41.5 -9.5q-31 0 -50 13t-33 37q-12 20 -19.5 27.5t-20.5 7.5q-9 0 -17 -4t-18 -13l-75 -59l-54 68l93 73q42 36 81 36q30 0 49 -13t33 -37q12 -20 19.5 -27.5zM356.5 254.5
q7.5 -7.5 20.5 -7.5q16 0 35 17l75 60l54 -69l-92 -73q-21 -16 -40 -25.5t-41 -9.5q-31 0 -50 12.5t-33 36.5q-12 20 -19.5 27.5t-20.5 7.5q-9 0 -17 -4t-18 -13l-76 -60l-54 68l94 74q42 36 81 36q30 0 49 -13t33 -37q12 -20 19.5 -27.5z" />
    <glyph glyph-name="notequal" unicode="&#x2260;" 
d="M101 470h202l34 103l84 -26l-25 -77h123v-86h-151l-23 -68h174v-86h-202l-36 -110l-85 26l28 84h-123v86h151l22 68h-173v86z" />
    <glyph glyph-name="lessequal" unicode="&#x2264;" 
d="M100 409l420 161v-96l-326 -117v-14l326 -117v-96l-420 161v118zM100 84h420v-84h-420v84z" />
    <glyph glyph-name="greaterequal" unicode="&#x2265;" 
d="M100 130v96l326 117v14l-326 117v96l420 -161v-118zM100 0v84h420v-84h-420z" />
    <glyph glyph-name="lozenge" unicode="&#x25ca;" 
d="M235 700h150l182 -350l-182 -350h-150l-182 350zM303 73h14l143 277l-143 278h-14l-143 -278z" />
    <glyph glyph-name="uniE132" unicode="&#xe132;" horiz-adv-x="462" 
d="M161 0h-94v491h94v-491zM220 700l-81 -130h-86l56 130h111zM369.5 -175.5q-24.5 -24.5 -65.5 -24.5h-124v77h93q28 0 28 30v584h93v-599q0 -43 -24.5 -67.5zM453 700l-81 -130h-86l56 130h111z" />
    <glyph glyph-name="uniE133" unicode="&#xe133;" horiz-adv-x="575" 
d="M224 880l-85 -116h-86l60 116h111zM567 880l-85 -116h-86l60 116h111zM166 700v-344h-99v344h99zM510 210q0 -109 -55.5 -166.5t-159.5 -57.5q-107 0 -167.5 58.5t-60.5 165.5v28h99v-28q0 -61 32.5 -96.5t94.5 -35.5q60 0 89 35t29 97v490h99v-490z" />
    <glyph glyph-name="NULL" horiz-adv-x="600" 
 />
    <glyph glyph-name="i.loclTRK" horiz-adv-x="228" 
d="M161 0h-94v491h94v-491zM62.5 691.5q20.5 20.5 51.5 20.5q32 0 52.5 -20.5t20.5 -51.5t-20.5 -51t-52.5 -20q-31 0 -51.5 20t-20.5 51t20.5 51.5z" />
    <glyph glyph-name="zero.lf" horiz-adv-x="608" 
d="M113.5 640q69.5 74 190.5 74t190 -74t69 -210v-160q0 -137 -69 -210.5t-190 -73.5t-190.5 73.5t-69.5 210.5v160q0 136 69.5 210zM183.5 124q40.5 -50 120.5 -50t120.5 50.5t40.5 140.5v170q0 89 -42 140t-119 51t-119 -51t-42 -140v-170q0 -91 40.5 -141z" />
    <glyph glyph-name="one.lf" horiz-adv-x="416" 
d="M348 700l-1 -700h-99v594h-12l-124 -201h-108l191 307h153z" />
    <glyph glyph-name="two.lf" horiz-adv-x="576" 
d="M73 602q34 55 92 83.5t130 28.5q69 0 125.5 -28t89 -80t32.5 -120q0 -96 -57.5 -152t-170.5 -85q-65 -17 -100.5 -32t-55 -41t-19.5 -69v-18h402v-89h-502v97q0 97 58 149t170 81q88 22 132 59.5t44 101.5t-40 101t-107 37q-70 0 -114 -41t-44 -118v-21h-99v24
q0 77 34 132z" />
    <glyph glyph-name="three.lf" horiz-adv-x="575" 
d="M533 612l-219 -183v-12h25q56 0 102.5 -24t73.5 -70t27 -109q0 -67 -32.5 -119t-90 -80.5t-129.5 -28.5q-79 0 -138 29.5t-90.5 83.5t-31.5 126v31h99v-30q0 -71 43 -111.5t118 -40.5q70 0 111.5 40t41.5 101q0 62 -40.5 95t-104.5 33h-106v91l208 176h-353v90h486v-88z
" />
    <glyph glyph-name="four.lf" horiz-adv-x="600" 
d="M473 700v-470h119v-89h-119v-141h-99v141h-362v86l303 473h158zM117 230h257v382h-12z" />
    <glyph glyph-name="five.lf" horiz-adv-x="573" 
d="M521 611h-365v-227h12q48 87 163 87q58 0 106 -28t76.5 -80t28.5 -121q0 -75 -31 -133t-88.5 -90.5t-132.5 -32.5q-76 0 -134 29.5t-90 84t-32 125.5v22h98v-16q0 -74 41.5 -115.5t113.5 -41.5q73 0 114 44t41 121q0 68 -37 108t-98 40q-80 0 -115 -67h-135v380h464v-89z
" />
    <glyph glyph-name="six.lf" horiz-adv-x="580" 
d="M513.5 102q-33.5 -55 -91.5 -85t-131 -30q-70 0 -126.5 29.5t-88.5 83.5t-32 123v244q0 77 32.5 132.5t90.5 85t134 29.5q73 0 127 -27.5t83.5 -77.5t29.5 -114h-100q0 60 -36 95.5t-104 35.5q-75 0 -116.5 -40t-41.5 -112v-92h12q20 33 60 57t106 24q64 0 115.5 -30
t81 -83t29.5 -121q0 -72 -33.5 -127zM185.5 342q-42.5 -43 -42.5 -113t42.5 -112t110.5 -42q67 0 109.5 42t42.5 112t-42 113t-110 43t-110.5 -43z" />
    <glyph glyph-name="seven.lf" horiz-adv-x="537" 
d="M526 700v-86l-291 -614h-110l288 610h-403v90h516z" />
    <glyph glyph-name="eight.lf" horiz-adv-x="575" 
d="M73.5 622q30.5 43 86 67.5t127.5 24.5q73 0 128.5 -24.5t86 -67.5t30.5 -97q0 -62 -34 -100t-85 -57v-12q31 -7 60.5 -28.5t49.5 -57t20 -83.5q0 -59 -32.5 -105t-90.5 -71t-133 -25q-74 0 -132.5 25t-91 71t-32.5 105q0 48 20 83.5t50 57t61 28.5v12q-51 19 -85 57
t-34 100q0 54 30.5 97zM182.5 434q40.5 -30 104.5 -30q65 0 105.5 29.5t40.5 81.5t-40.5 81.5t-105.5 29.5t-105 -29.5t-40 -81.5q0 -51 40.5 -81zM172.5 106q42.5 -32 114.5 -32q73 0 115.5 32t42.5 89t-42.5 89t-115.5 32q-72 0 -114.5 -32t-42.5 -89t42.5 -89z" />
    <glyph glyph-name="nine.lf" horiz-adv-x="581" 
d="M66.5 597q32.5 55 90 86t129.5 31q71 0 128 -29.5t89.5 -83.5t32.5 -123v-244q0 -77 -32 -132.5t-90 -85t-134 -29.5q-73 0 -127.5 27.5t-83.5 77t-29 113.5h100q0 -59 36 -94.5t104 -35.5q75 0 116 39.5t41 111.5v92h-12q-19 -33 -59.5 -57t-106.5 -24q-63 0 -114.5 30
t-81 83t-29.5 121q0 71 32.5 126zM395 358q42 43 42 113q0 71 -42 113t-110 42q-67 0 -109.5 -42.5t-42.5 -112.5t42 -113t110 -43t110 43z" />
    <glyph glyph-name="gravecomb.case" horiz-adv-x="0" 
d="M-49 764h-86l-84 116h110z" />
    <glyph glyph-name="acutecomb.case" horiz-adv-x="0" 
d="M-49 880l-82 -116h-87l56 116h113z" />
    <glyph glyph-name="uni0302.case" horiz-adv-x="0" 
d="M-200 829h-11l-52 -65h-98l97 116h117l98 -116h-98z" />
    <glyph glyph-name="tildecomb.case" horiz-adv-x="0" 
d="M-320.5 889.5q17.5 10.5 40.5 10.5q22 0 39.5 -10t34.5 -32q12 -15 18.5 -20.5t17.5 -5.5q12 0 18.5 5t15.5 17l28 38l60 -45l-43 -58q-15 -21 -32.5 -31.5t-41.5 -10.5q-41 0 -74 42q-2 2 -9 11t-13 12.5t-14 3.5q-12 0 -18.5 -5.5t-15.5 -17.5l-28 -38l-59 46l42 57
q16 21 33.5 31.5z" />
    <glyph glyph-name="uni0304.case" horiz-adv-x="0" 
d="M-49 764h-285v78h285v-78z" />
    <glyph glyph-name="uni0306.case" horiz-adv-x="0" 
d="M-48 870q0 -53 -33.5 -83.5t-88.5 -30.5t-88.5 30.5t-33.5 83.5v10h72v-4q0 -22 13 -35.5t37 -13.5t37 13.5t13 35.5v4h72v-10z" />
    <glyph glyph-name="uni0307.case" horiz-adv-x="0" 
d="M-173.5 870.5q20.5 20.5 51.5 20.5q32 0 52.5 -20.5t20.5 -51.5t-20.5 -51t-52.5 -20q-31 0 -51.5 20t-20.5 51t20.5 51.5z" />
    <glyph glyph-name="uni0308.case" horiz-adv-x="0" 
d="M-367.5 870.5q20.5 20.5 51.5 20.5q32 0 52.5 -20.5t20.5 -51.5t-20.5 -51t-52.5 -20q-31 0 -51.5 20t-20.5 51t20.5 51.5zM-173.5 870.5q20.5 20.5 51.5 20.5q32 0 52.5 -20.5t20.5 -51.5t-20.5 -51t-52.5 -20q-31 0 -51.5 20t-20.5 51t20.5 51.5z" />
    <glyph glyph-name="uni030A.case" horiz-adv-x="0" 
d="M-225 910q29 28 73 28t73.5 -28t29.5 -71q0 -44 -30 -72t-73 -28t-72.5 28.5t-29.5 71.5t29 71zM-180 811q11 -11 28 -11q18 0 28.5 11t10.5 28t-10.5 28t-28.5 11q-17 0 -28 -11t-11 -28t11 -28z" />
    <glyph glyph-name="uni030B.case" horiz-adv-x="0" 
d="M-191 880l-84 -116h-84l60 116h108zM-49 880l-84 -116h-84l60 116h108z" />
    <glyph glyph-name="uni030C.case" horiz-adv-x="0" 
d="M-49 882l-98 -115h-117l-97 115h98l52 -65h11l53 65h98z" />
    <glyph glyph-name="zero.zero" horiz-adv-x="608" 
d="M494 640q69 -74 69 -210v-160q0 -137 -69 -210.5t-190 -73.5t-190.5 73.5t-69.5 210.5v160q0 136 69.5 210t190.5 74t190 -74zM185 575q-42 -51 -42 -140v-155l315 221q-14 60 -53.5 92.5t-100.5 32.5q-77 0 -119 -51zM424.5 124.5q40.5 50.5 40.5 140.5v155l-315 -222
q13 -60 52 -92t102 -32q80 0 120.5 50.5z" />
    <glyph glyph-name="zero.dnom" horiz-adv-x="367" 
d="M65.5 320.5q42.5 42.5 117.5 42.5q74 0 117 -43t43 -116v-59q0 -74 -42.5 -116t-117.5 -42t-117.5 42t-42.5 116v59q0 74 42.5 116.5zM122 76q21 -23 61 -23t61.5 23.5t21.5 63.5v70q0 40 -21.5 63.5t-61.5 23.5t-61 -23t-21 -64v-70q0 -41 21 -64z" />
    <glyph glyph-name="one.dnom" horiz-adv-x="250" 
d="M208 350v-350h-78v260h-10l-38 -66h-72v10l86 146h112z" />
    <glyph glyph-name="two.dnom" horiz-adv-x="354" 
d="M289.5 330q41.5 -33 41.5 -87q0 -52 -33.5 -79.5t-102.5 -42.5q-47 -11 -69 -23.5t-26 -33.5h229v-64h-308v35q0 56 33.5 90t103.5 50q52 13 74 27.5t22 40.5q0 25 -20.5 40.5t-52.5 15.5q-36 0 -58 -19t-23 -55h-76q1 65 44.5 101.5t113.5 36.5q66 0 107.5 -33z" />
    <glyph glyph-name="three.dnom" horiz-adv-x="357" 
d="M333 296l-115 -74v-10q51 -2 84 -27.5t33 -74.5q0 -54 -44.5 -88.5t-111.5 -34.5q-71 0 -115 35.5t-46 98.5h77q1 -32 23.5 -50.5t58.5 -18.5t58 17t22 44q0 26 -20.5 40.5t-59.5 14.5h-62v51l102 67h-192v64h308v-54z" />
    <glyph glyph-name="four.dnom" horiz-adv-x="376" 
d="M301 350v-209h72v-62h-72v-79h-78v79h-210v56l165 215h123zM98 141h125v146h-9z" />
    <glyph glyph-name="five.dnom" horiz-adv-x="356" 
d="M327 286h-218v-81h10q19 13 38.5 21.5t54.5 8.5q54 0 90.5 -32t36.5 -84v-5q0 -55 -43 -91t-114 -36q-67 0 -109 34t-52 90h78q6 -26 27.5 -43t55.5 -17q36 0 57.5 18t21.5 46t-19.5 44t-49.5 16q-25 0 -39 -7.5t-28 -20.5h-92v203h294v-64z" />
    <glyph glyph-name="six.dnom" horiz-adv-x="361" 
d="M69.5 325q46.5 38 115.5 38q65 0 105.5 -31t44.5 -80h-77q-3 20 -21 33.5t-52 13.5q-38 0 -61 -19.5t-23 -50.5v-30h10q16 12 36.5 21t54.5 9q59 0 99 -30.5t40 -84.5q0 -57 -44.5 -92t-114.5 -35t-114.5 35t-44.5 92v114q0 59 46.5 97zM123 67.5q22 -17.5 59 -17.5
q38 0 60 17.5t22 45.5q0 27 -22 43.5t-60 16.5q-37 0 -59 -16.5t-22 -43.5q0 -28 22 -45.5z" />
    <glyph glyph-name="seven.dnom" horiz-adv-x="316" 
d="M310 350v-60l-148 -290h-86l148 286h-219v64h305z" />
    <glyph glyph-name="eight.dnom" horiz-adv-x="361" 
d="M69 335.5q43 27.5 111 27.5t111 -27.5t43 -70.5v-3q0 -32 -19 -50.5t-42 -25.5v-10q25 -6 46 -27t21 -57v-2q0 -45 -43.5 -74t-116.5 -29t-116.5 29t-43.5 74v2q0 37 21 57.5t47 26.5v10q-24 7 -43 25.5t-19 50.5v3q0 43 43 70.5zM124.5 222.5q20.5 -12.5 55.5 -12.5
t55.5 12.5t20.5 33.5q0 20 -20.5 32t-55.5 12t-55.5 -12t-20.5 -32q0 -21 20.5 -33.5zM120 63q22 -13 60 -13t60 13t22 36q0 24 -21.5 37t-60.5 13q-38 0 -60 -13t-22 -37q0 -23 22 -36z" />
    <glyph glyph-name="nine.dnom" horiz-adv-x="361" 
d="M292.5 25q-44.5 -38 -112.5 -38q-62 0 -103 29t-52 77h81q5 -18 23 -30t51 -12q36 0 58 19.5t22 50.5v30h-10q-16 -12 -37 -21t-55 -9q-59 0 -99 30.5t-40 84.5q0 57 44.5 92t114.5 35t114.5 -35t44.5 -92v-114q0 -59 -44.5 -97zM238 282.5q-22 17.5 -60 17.5
q-37 0 -59 -17.5t-22 -45.5q0 -27 22 -43.5t59 -16.5q38 0 60 16.5t22 43.5q0 28 -22 45.5z" />
    <glyph glyph-name="zero.numr" horiz-adv-x="367" 
d="M65.5 670.5q42.5 42.5 117.5 42.5q74 0 117 -43t43 -116v-59q0 -74 -42.5 -116t-117.5 -42t-117.5 42t-42.5 116v59q0 74 42.5 116.5zM122 426q21 -23 61 -23t61.5 23.5t21.5 63.5v70q0 40 -21.5 63.5t-61.5 23.5t-61 -23t-21 -64v-70q0 -41 21 -64z" />
    <glyph glyph-name="one.numr" horiz-adv-x="250" 
d="M208 700v-350h-78v260h-10l-38 -66h-72v10l86 146h112z" />
    <glyph glyph-name="two.numr" horiz-adv-x="354" 
d="M289.5 680q41.5 -33 41.5 -87q0 -52 -33.5 -79.5t-102.5 -42.5q-47 -11 -69 -23.5t-26 -33.5h229v-64h-308v35q0 56 33.5 90t103.5 50q52 13 74 27.5t22 40.5q0 25 -20.5 40.5t-52.5 15.5q-36 0 -58 -19t-23 -55h-76q1 65 44.5 101.5t113.5 36.5q66 0 107.5 -33z" />
    <glyph glyph-name="three.numr" horiz-adv-x="357" 
d="M333 646l-115 -74v-10q51 -2 84 -27.5t33 -74.5q0 -54 -44.5 -88.5t-111.5 -34.5q-71 0 -115 35.5t-46 98.5h77q1 -32 23.5 -50.5t58.5 -18.5t58 17t22 44q0 26 -20.5 40.5t-59.5 14.5h-62v51l102 67h-192v64h308v-54z" />
    <glyph glyph-name="four.numr" horiz-adv-x="376" 
d="M301 700v-209h72v-62h-72v-79h-78v79h-210v56l165 215h123zM98 491h125v146h-9z" />
    <glyph glyph-name="five.numr" horiz-adv-x="356" 
d="M327 636h-218v-81h10q19 13 38.5 21.5t54.5 8.5q54 0 90.5 -32t36.5 -84v-5q0 -55 -43 -91t-114 -36q-67 0 -109 34t-52 90h78q6 -26 27.5 -43t55.5 -17q36 0 57.5 18t21.5 46t-19.5 44t-49.5 16q-25 0 -39 -7.5t-28 -20.5h-92v203h294v-64z" />
    <glyph glyph-name="six.numr" horiz-adv-x="361" 
d="M69.5 675q46.5 38 115.5 38q65 0 105.5 -31t44.5 -80h-77q-3 20 -21 33.5t-52 13.5q-38 0 -61 -19.5t-23 -50.5v-30h10q16 12 36.5 21t54.5 9q59 0 99 -30.5t40 -84.5q0 -57 -44.5 -92t-114.5 -35t-114.5 35t-44.5 92v114q0 59 46.5 97zM123 417.5q22 -17.5 59 -17.5
q38 0 60 17.5t22 45.5q0 27 -22 43.5t-60 16.5q-37 0 -59 -16.5t-22 -43.5q0 -28 22 -45.5z" />
    <glyph glyph-name="seven.numr" horiz-adv-x="316" 
d="M310 700v-60l-148 -290h-86l148 286h-219v64h305z" />
    <glyph glyph-name="eight.numr" horiz-adv-x="361" 
d="M69 685.5q43 27.5 111 27.5t111 -27.5t43 -70.5v-3q0 -32 -19 -50.5t-42 -25.5v-10q25 -6 46 -27t21 -57v-2q0 -45 -43.5 -74t-116.5 -29t-116.5 29t-43.5 74v2q0 37 21 57.5t47 26.5v10q-24 7 -43 25.5t-19 50.5v3q0 43 43 70.5zM124.5 572.5q20.5 -12.5 55.5 -12.5
t55.5 12.5t20.5 33.5q0 20 -20.5 32t-55.5 12t-55.5 -12t-20.5 -32q0 -21 20.5 -33.5zM120 413q22 -13 60 -13t60 13t22 36q0 24 -21.5 37t-60.5 13q-38 0 -60 -13t-22 -37q0 -23 22 -36z" />
    <glyph glyph-name="nine.numr" horiz-adv-x="380" 
d="M304 375q-45 -38 -113 -38q-62 0 -103 29t-52 77h81q5 -18 23 -30t51 -12q36 0 58 19.5t22 50.5v30h-10q-16 -12 -36.5 -21t-54.5 -9q-59 0 -99 30.5t-40 84.5q0 57 44.5 92t114.5 35t114.5 -35t44.5 -92v-114q0 -59 -45 -97zM249 632.5q-22 17.5 -59 17.5
q-38 0 -60 -17.5t-22 -45.5q0 -27 22 -43.5t60 -16.5q37 0 59 16.5t22 43.5q0 28 -22 45.5z" />
    <glyph glyph-name="zero.subs" horiz-adv-x="367" 
d="M65.5 120.5q42.5 42.5 117.5 42.5q74 0 117 -43t43 -116v-59q0 -74 -42.5 -116t-117.5 -42t-117.5 42t-42.5 116v59q0 74 42.5 116.5zM122 -124q21 -23 61 -23t61.5 23.5t21.5 63.5v70q0 40 -21.5 63.5t-61.5 23.5t-61 -23t-21 -64v-70q0 -41 21 -64z" />
    <glyph glyph-name="one.subs" horiz-adv-x="250" 
d="M208 150v-350h-78v260h-10l-38 -66h-72v10l86 146h112z" />
    <glyph glyph-name="two.subs" horiz-adv-x="354" 
d="M289.5 130q41.5 -33 41.5 -87q0 -52 -33.5 -79.5t-102.5 -42.5q-47 -11 -69 -23.5t-26 -33.5h229v-64h-308v35q0 56 33.5 90t103.5 50q52 13 74 27.5t22 40.5q0 25 -20.5 40.5t-52.5 15.5q-36 0 -58 -19t-23 -55h-76q1 65 44.5 101.5t113.5 36.5q66 0 107.5 -33z" />
    <glyph glyph-name="three.subs" horiz-adv-x="357" 
d="M333 96l-115 -74v-10q51 -2 84 -27.5t33 -74.5q0 -54 -44.5 -88.5t-111.5 -34.5q-71 0 -115 35.5t-46 98.5h77q1 -32 23.5 -50.5t58.5 -18.5t58 17t22 44q0 26 -20.5 40.5t-59.5 14.5h-62v51l102 67h-192v64h308v-54z" />
    <glyph glyph-name="four.subs" horiz-adv-x="376" 
d="M301 150v-209h72v-62h-72v-79h-78v79h-210v56l165 215h123zM98 -59h125v146h-9z" />
    <glyph glyph-name="five.subs" horiz-adv-x="356" 
d="M327 86h-218v-81h10q19 13 38.5 21.5t54.5 8.5q54 0 90.5 -32t36.5 -84v-5q0 -55 -43 -91t-114 -36q-67 0 -109 34t-52 90h78q6 -26 27.5 -43t55.5 -17q36 0 57.5 18t21.5 46t-19.5 44t-49.5 16q-25 0 -39 -7.5t-28 -20.5h-92v203h294v-64z" />
    <glyph glyph-name="six.subs" horiz-adv-x="361" 
d="M69.5 125q46.5 38 115.5 38q65 0 105.5 -31t44.5 -80h-77q-3 20 -21 33.5t-52 13.5q-38 0 -61 -19.5t-23 -50.5v-30h10q16 12 36.5 21t54.5 9q59 0 99 -30.5t40 -84.5q0 -57 -44.5 -92t-114.5 -35t-114.5 35t-44.5 92v114q0 59 46.5 97zM123 -132.5q22 -17.5 59 -17.5
q38 0 60 17.5t22 45.5q0 27 -22 43.5t-60 16.5q-37 0 -59 -16.5t-22 -43.5q0 -28 22 -45.5z" />
    <glyph glyph-name="seven.subs" horiz-adv-x="316" 
d="M310 150v-60l-148 -290h-86l148 286h-219v64h305z" />
    <glyph glyph-name="eight.subs" horiz-adv-x="361" 
d="M69 135.5q43 27.5 111 27.5t111 -27.5t43 -70.5v-3q0 -32 -19 -50.5t-42 -25.5v-10q25 -6 46 -27t21 -57v-2q0 -45 -43.5 -74t-116.5 -29t-116.5 29t-43.5 74v2q0 37 21 57.5t47 26.5v10q-24 7 -43 25.5t-19 50.5v3q0 43 43 70.5zM124.5 22.5q20.5 -12.5 55.5 -12.5
t55.5 12.5t20.5 33.5q0 20 -20.5 32t-55.5 12t-55.5 -12t-20.5 -32q0 -21 20.5 -33.5zM120 -137q22 -13 60 -13t60 13t22 36q0 24 -21.5 37t-60.5 13q-38 0 -60 -13t-22 -37q0 -23 22 -36z" />
    <glyph glyph-name="nine.subs" horiz-adv-x="361" 
d="M292.5 -175q-44.5 -38 -112.5 -38q-62 0 -103 29t-52 77h81q5 -18 23 -30t51 -12q36 0 58 19.5t22 50.5v30h-10q-16 -12 -37 -21t-55 -9q-59 0 -99 30.5t-40 84.5q0 57 44.5 92t114.5 35t114.5 -35t44.5 -92v-114q0 -59 -44.5 -97zM238 82.5q-22 17.5 -60 17.5
q-37 0 -59 -17.5t-22 -45.5q0 -27 22 -43.5t59 -16.5q38 0 60 16.5t22 43.5q0 28 -22 45.5z" />
    <glyph glyph-name="at.case" horiz-adv-x="1012" 
d="M137 721q52 52 147 52h457q92 0 140 -47.5t48 -138.5v-384q0 -42 -24 -66t-67 -24h-130q-34 0 -53.5 18.5t-19.5 49.5v12h-15q-14 -40 -47.5 -67t-92.5 -27q-60 0 -107 32t-73 87.5t-26 122.5v17q0 67 25.5 123t71.5 88t103 32q100 0 141 -88h15v74h90v-364
q0 -14 6 -20.5t20 -6.5h55q18 0 26.5 9t8.5 28v356q0 49 -25 74t-74 25h-438q-122 0 -122 -122v-432q0 -122 122 -122h615v-85h-630q-95 0 -147 52t-52 147v448q0 95 52 147zM403.5 470.5q-35.5 -43.5 -35.5 -114.5v-12q0 -72 35.5 -115.5t94.5 -43.5t95 43.5t36 115.5v11
q0 73 -36 116t-95 43t-94.5 -43.5z" />
    <glyph glyph-name="hyphen.case" horiz-adv-x="460" 
d="M82 395h296v-86h-296v86z" />
    <glyph glyph-name="endash.case" horiz-adv-x="612" 
d="M82 395h448v-86h-448v86z" />
    <glyph glyph-name="emdash.case" horiz-adv-x="916" 
d="M82 395h752v-86h-752v86z" />
    <glyph glyph-name="slash.case" horiz-adv-x="452" 
d="M406 737l-260 -778h-100l260 778h100z" />
    <glyph glyph-name="backslash.case" horiz-adv-x="452" 
d="M406 -41h-100l-260 778h100z" />
    <glyph glyph-name="parenright.case" horiz-adv-x="408" 
d="M211.5 -91.5q-69.5 -67.5 -191.5 -67.5v89q84 2 124 49.5t40 146.5v441q0 98 -40.5 146t-123.5 50v89q122 0 191.5 -67.5t69.5 -209.5v-458q0 -141 -69.5 -208.5z" />
    <glyph glyph-name="bracketleft.case" horiz-adv-x="355" 
d="M151 826q24 24 61 24h114v-89h-74q-27 0 -27 -30v-769q0 -30 27 -30h74v-89h-114q-37 0 -61 24t-24 61v836q0 38 24 62z" />
    <glyph glyph-name="bracketright.case" horiz-adv-x="355" 
d="M203.5 -133q-24.5 -24 -61.5 -24h-113v89h74q27 0 27 30v769q0 30 -27 30h-74v89h113q38 0 62 -24t24 -62v-836q0 -37 -24.5 -61z" />
    <glyph glyph-name="braceleft.case" horiz-adv-x="389" 
d="M162 430v334q0 38 24 62t61 24h114v-89h-75q-27 0 -27 -30v-302q0 -34 -19.5 -55.5t-54.5 -21.5h-11v-12h11q35 0 54.5 -21.5t19.5 -55.5v-301q0 -30 27 -30h75v-89h-114q-37 0 -61 24t-24 61v334q0 29 -27 29h-62v110h62q27 0 27 29z" />
    <glyph glyph-name="braceright.case" horiz-adv-x="389" 
d="M255 291q-27 0 -27 -29v-334q0 -37 -24.5 -61t-61.5 -24h-113v89h74q27 0 27 30v301q0 34 20 55.5t54 21.5h11v12h-11q-34 0 -54 21.5t-20 55.5v302q0 30 -27 30h-74v89h113q38 0 62 -24t24 -62v-334q0 -29 27 -29h61v-110h-61z" />
    <glyph glyph-name="guilsinglleft.case" horiz-adv-x="480" 
d="M405 569h6v-103l-255 -121v-14l255 -121v-103h-6l-340 176v110z" />
    <glyph glyph-name="guilsinglright.case" horiz-adv-x="480" 
d="M415 283l-340 -176h-6v103l255 121v14l-255 121v103h6l340 -176v-110z" />
    <glyph glyph-name="zero.sups" horiz-adv-x="367" 
d="M65.5 670.5q42.5 42.5 117.5 42.5q74 0 117 -43t43 -116v-59q0 -74 -42.5 -116t-117.5 -42t-117.5 42t-42.5 116v59q0 74 42.5 116.5zM122 426q21 -23 61 -23t61.5 23.5t21.5 63.5v70q0 40 -21.5 63.5t-61.5 23.5t-61 -23t-21 -64v-70q0 -41 21 -64z" />
    <glyph glyph-name="one.sups" horiz-adv-x="250" 
d="M208 700v-350h-78v260h-10l-38 -66h-72v10l86 146h112z" />
    <glyph glyph-name="two.sups" horiz-adv-x="354" 
d="M289.5 680q41.5 -33 41.5 -87q0 -52 -33.5 -79.5t-102.5 -42.5q-47 -11 -69 -23.5t-26 -33.5h229v-64h-308v35q0 56 33.5 90t103.5 50q52 13 74 27.5t22 40.5q0 25 -20.5 40.5t-52.5 15.5q-36 0 -58 -19t-23 -55h-76q1 65 44.5 101.5t113.5 36.5q66 0 107.5 -33z" />
    <glyph glyph-name="three.sups" horiz-adv-x="357" 
d="M333 646l-115 -74v-10q51 -2 84 -27.5t33 -74.5q0 -54 -44.5 -88.5t-111.5 -34.5q-71 0 -115 35.5t-46 98.5h77q1 -32 23.5 -50.5t58.5 -18.5t58 17t22 44q0 26 -20.5 40.5t-59.5 14.5h-62v51l102 67h-192v64h308v-54z" />
    <glyph glyph-name="four.sups" horiz-adv-x="376" 
d="M301 700v-209h72v-62h-72v-79h-78v79h-210v56l165 215h123zM98 491h125v146h-9z" />
    <glyph glyph-name="five.sups" horiz-adv-x="356" 
d="M327 636h-218v-81h10q19 13 38.5 21.5t54.5 8.5q54 0 90.5 -32t36.5 -84v-5q0 -55 -43 -91t-114 -36q-67 0 -109 34t-52 90h78q6 -26 27.5 -43t55.5 -17q36 0 57.5 18t21.5 46t-19.5 44t-49.5 16q-25 0 -39 -7.5t-28 -20.5h-92v203h294v-64z" />
    <glyph glyph-name="six.sups" horiz-adv-x="361" 
d="M69.5 675q46.5 38 115.5 38q65 0 105.5 -31t44.5 -80h-77q-3 20 -21 33.5t-52 13.5q-38 0 -61 -19.5t-23 -50.5v-30h10q16 12 36.5 21t54.5 9q59 0 99 -30.5t40 -84.5q0 -57 -44.5 -92t-114.5 -35t-114.5 35t-44.5 92v114q0 59 46.5 97zM123 417.5q22 -17.5 59 -17.5
q38 0 60 17.5t22 45.5q0 27 -22 43.5t-60 16.5q-37 0 -59 -16.5t-22 -43.5q0 -28 22 -45.5z" />
    <glyph glyph-name="seven.sups" horiz-adv-x="316" 
d="M310 700v-60l-148 -290h-86l148 286h-219v64h305z" />
    <glyph glyph-name="eight.sups" horiz-adv-x="361" 
d="M69 685.5q43 27.5 111 27.5t111 -27.5t43 -70.5v-3q0 -32 -19 -50.5t-42 -25.5v-10q25 -6 46 -27t21 -57v-2q0 -45 -43.5 -74t-116.5 -29t-116.5 29t-43.5 74v2q0 37 21 57.5t47 26.5v10q-24 7 -43 25.5t-19 50.5v3q0 43 43 70.5zM124.5 572.5q20.5 -12.5 55.5 -12.5
t55.5 12.5t20.5 33.5q0 20 -20.5 32t-55.5 12t-55.5 -12t-20.5 -32q0 -21 20.5 -33.5zM120 413q22 -13 60 -13t60 13t22 36q0 24 -21.5 37t-60.5 13q-38 0 -60 -13t-22 -37q0 -23 22 -36z" />
    <glyph glyph-name="nine.sups" horiz-adv-x="380" 
d="M304 375q-45 -38 -113 -38q-62 0 -103 29t-52 77h81q5 -18 23 -30t51 -12q36 0 58 19.5t22 50.5v30h-10q-16 -12 -36.5 -21t-54.5 -9q-59 0 -99 30.5t-40 84.5q0 57 44.5 92t114.5 35t114.5 -35t44.5 -92v-114q0 -59 -45 -97zM249 632.5q-22 17.5 -59 17.5
q-38 0 -60 -17.5t-22 -45.5q0 -27 22 -43.5t60 -16.5q37 0 59 16.5t22 43.5q0 28 -22 45.5z" />
    <glyph glyph-name="A.ss03" horiz-adv-x="606" 
d="M394 700l201 -700h-103l-47 169h-284l-47 -169h-103l201 700h182zM421 260l-113 404h-11l-112 -404h236z" />
    <glyph glyph-name="Aacute.ss03" horiz-adv-x="606" 
d="M394 700l201 -700h-103l-47 169h-284l-47 -169h-103l201 700h182zM421 260l-113 404h-11l-112 -404h236zM409 880l-82 -116h-87l56 116h113z" />
    <glyph glyph-name="Abreve.ss03" horiz-adv-x="606" 
d="M394 700l201 -700h-103l-47 169h-284l-47 -169h-103l201 700h182zM421 260l-113 404h-11l-112 -404h236zM425 870q0 -53 -33.5 -83.5t-88.5 -30.5t-88.5 30.5t-33.5 83.5v10h72v-4q0 -22 13 -35.5t37 -13.5t37 13.5t13 35.5v4h72v-10z" />
    <glyph glyph-name="Acircumflex.ss03" horiz-adv-x="606" 
d="M394 700l201 -700h-103l-47 169h-284l-47 -169h-103l201 700h182zM421 260l-113 404h-11l-112 -404h236zM308 829h-11l-52 -65h-98l97 116h117l98 -116h-98z" />
    <glyph glyph-name="Adieresis.ss03" horiz-adv-x="606" 
d="M394 700l201 -700h-103l-47 169h-284l-47 -169h-103l201 700h182zM421 260l-113 404h-11l-112 -404h236zM153.5 870.5q20.5 20.5 51.5 20.5q32 0 52.5 -20.5t20.5 -51.5t-20.5 -51t-52.5 -20q-31 0 -51.5 20t-20.5 51t20.5 51.5zM347.5 870.5q20.5 20.5 51.5 20.5
q32 0 52.5 -20.5t20.5 -51.5t-20.5 -51t-52.5 -20q-31 0 -51.5 20t-20.5 51t20.5 51.5z" />
    <glyph glyph-name="Agrave.ss03" horiz-adv-x="606" 
d="M394 700l201 -700h-103l-47 169h-284l-47 -169h-103l201 700h182zM421 260l-113 404h-11l-112 -404h236zM367 764h-86l-84 116h110z" />
    <glyph glyph-name="Amacron.ss03" horiz-adv-x="606" 
d="M394 700l201 -700h-103l-47 169h-284l-47 -169h-103l201 700h182zM421 260l-113 404h-11l-112 -404h236zM446 764h-285v78h285v-78z" />
    <glyph glyph-name="Aogonek.ss03" horiz-adv-x="606" 
d="M634 -98v-68h-64q-32 0 -53 18.5t-21 51.5q0 14 5 37l13 59h-22l-47 169h-284l-47 -169h-103l201 700h182l201 -700h-12l-13 -62q-2 -14 -2 -16q0 -20 22 -20h44zM185 260h236l-113 404h-11z" />
    <glyph glyph-name="Aring.ss03" horiz-adv-x="606" 
d="M394 700l201 -700h-103l-47 169h-284l-47 -169h-103l201 700h182zM421 260l-113 404h-11l-112 -404h236zM229 910q29 28 73 28t73.5 -28t29.5 -71q0 -44 -30 -72t-73 -28t-72.5 28.5t-29.5 71.5t29 71zM274 811q11 -11 28 -11q18 0 28.5 11t10.5 28t-10.5 28t-28.5 11
q-17 0 -28 -11t-11 -28t11 -28z" />
    <glyph glyph-name="Aringacute.ss03" horiz-adv-x="606" 
d="M229.5 767.5q-29.5 28.5 -29.5 71.5t29 71t73 28h2l30 62h112l-66 -94q25 -27 25 -67q0 -44 -30 -72t-73 -28t-72.5 28.5zM274 867q-11 -11 -11 -28t11 -28t28 -11q18 0 28.5 11t10.5 28t-10.5 28t-28.5 11q-17 0 -28 -11zM394 700l201 -700h-103l-47 169h-284l-47 -169
h-103l201 700h182zM185 260h236l-113 404h-11z" />
    <glyph glyph-name="Atilde.ss03" horiz-adv-x="606" 
d="M394 700l201 -700h-103l-47 169h-284l-47 -169h-103l201 700h182zM421 260l-113 404h-11l-112 -404h236zM205.5 889.5q17.5 10.5 40.5 10.5q22 0 39.5 -10t34.5 -32q12 -15 18.5 -20.5t17.5 -5.5q12 0 18.5 5t15.5 17l28 38l60 -45l-43 -58q-15 -21 -32.5 -31.5
t-41.5 -10.5q-41 0 -74 42q-2 2 -9 11t-13 12.5t-14 3.5q-12 0 -18.5 -5.5t-15.5 -17.5l-28 -38l-59 46l42 57q16 21 33.5 31.5z" />
    <glyph glyph-name="AE.ss03" horiz-adv-x="608" 
d="M399 89h172v-89h-271v170h-141l-47 -170h-102l194 700h362v-89h-167v-215h142v-90h-142v-217zM300 260v404h-11l-110 -404h121z" />
    <glyph glyph-name="AEacute.ss03" horiz-adv-x="608" 
d="M399 89h172v-89h-271v170h-141l-47 -170h-102l194 700h362v-89h-167v-215h142v-90h-142v-217zM300 260v404h-11l-110 -404h121zM450 880l-82 -116h-87l56 116h113z" />
    <glyph glyph-name="M.ss03" horiz-adv-x="873" 
d="M259 700l172 -664h11l172 664h191v-700h-97v664h-11l-171 -664h-178l-172 664h-11v-664h-97v700h191z" />
    <glyph glyph-name="N.ss03" horiz-adv-x="652" 
d="M264 700l210 -664h11v664h99v-700h-195l-211 664h-11v-664h-99v700h196z" />
    <glyph glyph-name="Nacute.ss03" horiz-adv-x="652" 
d="M264 700l210 -664h11v664h99v-700h-195l-211 664h-11v-664h-99v700h196zM434 880l-82 -116h-87l56 116h113z" />
    <glyph glyph-name="Ncaron.ss03" horiz-adv-x="652" 
d="M264 700l210 -664h11v664h99v-700h-195l-211 664h-11v-664h-99v700h196zM484 882l-98 -115h-117l-97 115h98l52 -65h11l53 65h98z" />
    <glyph glyph-name="uni0145.ss03" horiz-adv-x="652" 
d="M264 700l210 -664h11v664h99v-700h-195l-211 664h-11v-664h-99v700h196zM273 -72q22 22 56 22q33 0 55.5 -22t22.5 -55v-99q0 -36 -22.5 -58t-58.5 -22h-71v55h62q28 0 28 27v23q-8 -2 -18 -2q-32 0 -54 21t-22 53q0 35 22 57z" />
    <glyph glyph-name="Eng.ss03" horiz-adv-x="652" 
d="M584 700v-786q0 -56 -29.5 -85t-84.5 -29h-165v87h133q25 0 35.5 11.5t10.5 35.5v66h-93l-213 653h-11v-653h-99v700h193l213 -653h11v653h99z" />
    <glyph glyph-name="Ntilde.ss03" horiz-adv-x="652" 
d="M264 700l210 -664h11v664h99v-700h-195l-211 664h-11v-664h-99v700h196zM230.5 889.5q17.5 10.5 40.5 10.5q22 0 39.5 -10t34.5 -32q12 -15 18.5 -20.5t17.5 -5.5q12 0 18.5 5t15.5 17l28 38l60 -45l-43 -58q-15 -21 -32.5 -31.5t-41.5 -10.5q-41 0 -74 42q-2 2 -9 11
t-13 12.5t-14 3.5q-12 0 -18.5 -5.5t-15.5 -17.5l-28 -38l-59 46l42 57q16 21 33.5 31.5z" />
    <glyph glyph-name="V.ss03" horiz-adv-x="603" 
d="M114 700l182 -664h11l182 664h104l-199 -700h-184l-199 700h103z" />
    <glyph glyph-name="W.ss03" horiz-adv-x="886" 
d="M125 700l94 -664h11l122 664h181l123 -664h11l94 664h100l-108 -700h-182l-123 664h-11l-122 -664h-182l-108 700h100z" />
    <glyph glyph-name="Wacute.ss03" horiz-adv-x="886" 
d="M125 700l94 -664h11l122 664h181l123 -664h11l94 664h100l-108 -700h-182l-123 664h-11l-122 -664h-182l-108 700h100zM549 880l-82 -116h-87l56 116h113z" />
    <glyph glyph-name="Wcircumflex.ss03" horiz-adv-x="886" 
d="M125 700l94 -664h11l122 664h181l123 -664h11l94 664h100l-108 -700h-182l-123 664h-11l-122 -664h-182l-108 700h100zM448 829h-11l-52 -65h-98l97 116h117l98 -116h-98z" />
    <glyph glyph-name="Wdieresis.ss03" horiz-adv-x="886" 
d="M125 700l94 -664h11l122 664h181l123 -664h11l94 664h100l-108 -700h-182l-123 664h-11l-122 -664h-182l-108 700h100zM293.5 870.5q20.5 20.5 51.5 20.5q32 0 52.5 -20.5t20.5 -51.5t-20.5 -51t-52.5 -20q-31 0 -51.5 20t-20.5 51t20.5 51.5zM487.5 870.5
q20.5 20.5 51.5 20.5q32 0 52.5 -20.5t20.5 -51.5t-20.5 -51t-52.5 -20q-31 0 -51.5 20t-20.5 51t20.5 51.5z" />
    <glyph glyph-name="Wgrave.ss03" horiz-adv-x="886" 
d="M125 700l94 -664h11l122 664h181l123 -664h11l94 664h100l-108 -700h-182l-123 664h-11l-122 -664h-182l-108 700h100zM507 764h-86l-84 116h110z" />
    <glyph glyph-name="I.ss04" horiz-adv-x="412" 
d="M376 700v-87h-120v-526h120v-87h-340v87h121v526h-121v87h340z" />
    <glyph glyph-name="IJ.ss04" horiz-adv-x="687" 
d="M304 700v-89h-85v-269h-98v269h-85v89h268zM665 611h-84v-401q0 -109 -58 -166.5t-166 -57.5q-111 0 -173.5 58.5t-62.5 165.5v36h98v-36q0 -61 35.5 -96.5t101.5 -35.5q64 0 95 35t31 97v401h-92v89h275v-89z" />
    <glyph glyph-name="Iacute.ss04" horiz-adv-x="412" 
d="M376 700v-87h-120v-526h120v-87h-340v87h121v526h-121v87h340zM313 880l-82 -116h-87l56 116h113z" />
    <glyph glyph-name="Icircumflex.ss04" horiz-adv-x="412" 
d="M376 700v-87h-120v-526h120v-87h-340v87h121v526h-121v87h340zM211 829h-11l-52 -65h-98l97 116h117l98 -116h-98z" />
    <glyph glyph-name="Idieresis.ss04" horiz-adv-x="412" 
d="M376 700v-87h-120v-526h120v-87h-340v87h121v526h-121v87h340zM56.5 870.5q20.5 20.5 51.5 20.5q32 0 52.5 -20.5t20.5 -51.5t-20.5 -51t-52.5 -20q-31 0 -51.5 20t-20.5 51t20.5 51.5zM250.5 870.5q20.5 20.5 51.5 20.5q32 0 52.5 -20.5t20.5 -51.5t-20.5 -51t-52.5 -20
q-31 0 -51.5 20t-20.5 51t20.5 51.5z" />
    <glyph glyph-name="Idotaccent.ss04" horiz-adv-x="412" 
d="M376 700v-87h-120v-526h120v-87h-340v87h121v526h-121v87h340zM154.5 870.5q20.5 20.5 51.5 20.5q32 0 52.5 -20.5t20.5 -51.5t-20.5 -51t-52.5 -20q-31 0 -51.5 20t-20.5 51t20.5 51.5z" />
    <glyph glyph-name="Igrave.ss04" horiz-adv-x="412" 
d="M376 700v-87h-120v-526h120v-87h-340v87h121v526h-121v87h340zM270 764h-86l-84 116h110z" />
    <glyph glyph-name="Imacron.ss04" horiz-adv-x="412" 
d="M376 700v-87h-120v-526h120v-87h-340v87h121v526h-121v87h340zM349 764h-285v78h285v-78z" />
    <glyph glyph-name="Iogonek.ss04" horiz-adv-x="412" 
d="M256 613v-526h120v-87h-136l-13 -62q-2 -14 -2 -16q0 -20 22 -20h44v-68h-64q-32 0 -53 18.5t-21 51.5q0 14 5 37l13 59h-135v87h121v526h-121v87h340v-87h-120z" />
    <glyph glyph-name="J.ss04" horiz-adv-x="570" 
d="M548 613h-75v-403q0 -108 -55.5 -166t-158.5 -58q-105 0 -165.5 58.5t-60.5 165.5v58h99v-58q0 -61 32 -96.5t93 -35.5q60 0 88.5 35t28.5 97v403h-126v87h300v-87z" />
    <glyph glyph-name="R.ss05" horiz-adv-x="619" 
d="M473.5 676q49.5 -24 77 -69t27.5 -104q0 -63 -31 -104.5t-81 -60.5v-11q39 -2 62.5 -25.5t23.5 -66.5v-235h-98v220q0 60 -62 60h-225v-280h-99v700h291q65 0 114.5 -24zM348 370q62 0 96.5 32t34.5 88t-34.5 88.5t-96.5 32.5h-181v-241h181z" />
    <glyph glyph-name="Racute.ss05" horiz-adv-x="619" 
d="M473.5 676q49.5 -24 77 -69t27.5 -104q0 -63 -31 -104.5t-81 -60.5v-11q39 -2 62.5 -25.5t23.5 -66.5v-235h-98v220q0 60 -62 60h-225v-280h-99v700h291q65 0 114.5 -24zM348 370q62 0 96.5 32t34.5 88t-34.5 88.5t-96.5 32.5h-181v-241h181zM409 880l-82 -116h-87
l56 116h113z" />
    <glyph glyph-name="Rcaron.ss05" horiz-adv-x="619" 
d="M473.5 676q49.5 -24 77 -69t27.5 -104q0 -63 -31 -104.5t-81 -60.5v-11q39 -2 62.5 -25.5t23.5 -66.5v-235h-98v220q0 60 -62 60h-225v-280h-99v700h291q65 0 114.5 -24zM348 370q62 0 96.5 32t34.5 88t-34.5 88.5t-96.5 32.5h-181v-241h181zM459 882l-98 -115h-117
l-97 115h98l52 -65h11l53 65h98z" />
    <glyph glyph-name="uni0156.ss05" horiz-adv-x="619" 
d="M473.5 676q49.5 -24 77 -69t27.5 -104q0 -63 -31 -104.5t-81 -60.5v-11q39 -2 62.5 -25.5t23.5 -66.5v-235h-98v220q0 60 -62 60h-225v-280h-99v700h291q65 0 114.5 -24zM348 370q62 0 96.5 32t34.5 88t-34.5 88.5t-96.5 32.5h-181v-241h181zM254 -72q22 22 56 22
q33 0 55.5 -22t22.5 -55v-99q0 -36 -22.5 -58t-58.5 -22h-71v55h62q28 0 28 27v23q-8 -2 -18 -2q-32 0 -54 21t-22 53q0 35 22 57z" />
    <glyph glyph-name="uni006A0301" horiz-adv-x="234" 
d="M141.5 -175.5q-24.5 -24.5 -65.5 -24.5h-124v77h93q28 0 28 30v584h93v-599q0 -43 -24.5 -67.5zM225 700l-81 -130h-86l56 130h111z" />
    <glyph glyph-name="a.ss01" horiz-adv-x="611" 
d="M452 78h-10q-57 -92 -178 -92q-62 0 -114.5 32t-83 91t-30.5 136t30.5 136.5t83 91.5t114.5 32q121 0 178 -93h10v79h92v-491h-92v78zM406 116q45 48 45 129q0 82 -45 130t-116 48t-115 -47.5t-44 -130.5q0 -82 44 -129.5t115 -47.5t116 48z" />
    <glyph glyph-name="aacute.ss01" horiz-adv-x="611" 
d="M452 78h-10q-57 -92 -178 -92q-62 0 -114.5 32t-83 91t-30.5 136t30.5 136.5t83 91.5t114.5 32q121 0 178 -93h10v79h92v-491h-92v78zM406 116q45 48 45 129q0 82 -45 130t-116 48t-115 -47.5t-44 -130.5q0 -82 44 -129.5t115 -47.5t116 48zM411 700l-81 -130h-86l56 130
h111z" />
    <glyph glyph-name="abreve.ss01" horiz-adv-x="611" 
d="M452 78h-10q-57 -92 -178 -92q-62 0 -114.5 32t-83 91t-30.5 136t30.5 136.5t83 91.5t114.5 32q121 0 178 -93h10v79h92v-491h-92v78zM406 116q45 48 45 129q0 82 -45 130t-116 48t-115 -47.5t-44 -130.5q0 -82 44 -129.5t115 -47.5t116 48zM427 677q0 -54 -33.5 -85
t-88.5 -31t-88.5 31t-33.5 85v23h72v-17q0 -23 13 -37t37 -14t37 14t13 37v17h72v-23z" />
    <glyph glyph-name="acircumflex.ss01" horiz-adv-x="611" 
d="M452 78h-10q-57 -92 -178 -92q-62 0 -114.5 32t-83 91t-30.5 136t30.5 136.5t83 91.5t114.5 32q121 0 178 -93h10v79h92v-491h-92v78zM406 116q45 48 45 129q0 82 -45 130t-116 48t-115 -47.5t-44 -130.5q0 -82 44 -129.5t115 -47.5t116 48zM310 645h-11l-54 -75h-96
l97 130h118l97 -130h-97z" />
    <glyph glyph-name="adieresis.ss01" horiz-adv-x="611" 
d="M452 78h-10q-57 -92 -178 -92q-62 0 -114.5 32t-83 91t-30.5 136t30.5 136.5t83 91.5t114.5 32q121 0 178 -93h10v79h92v-491h-92v78zM406 116q45 48 45 129q0 82 -45 130t-116 48t-115 -47.5t-44 -130.5q0 -82 44 -129.5t115 -47.5t116 48zM158.5 691.5
q20.5 20.5 51.5 20.5q32 0 52.5 -20.5t20.5 -51.5t-20.5 -51t-52.5 -20q-31 0 -51.5 20t-20.5 51t20.5 51.5zM346.5 691.5q20.5 20.5 51.5 20.5q32 0 52.5 -20.5t20.5 -51.5t-20.5 -51t-52.5 -20q-31 0 -51.5 20t-20.5 51t20.5 51.5z" />
    <glyph glyph-name="agrave.ss01" horiz-adv-x="611" 
d="M452 78h-10q-57 -92 -178 -92q-62 0 -114.5 32t-83 91t-30.5 136t30.5 136.5t83 91.5t114.5 32q121 0 178 -93h10v79h92v-491h-92v78zM406 116q45 48 45 129q0 82 -45 130t-116 48t-115 -47.5t-44 -130.5q0 -82 44 -129.5t115 -47.5t116 48zM368 570h-85l-85 130h109z
" />
    <glyph glyph-name="amacron.ss01" horiz-adv-x="611" 
d="M452 78h-10q-57 -92 -178 -92q-62 0 -114.5 32t-83 91t-30.5 136t30.5 136.5t83 91.5t114.5 32q121 0 178 -93h10v79h92v-491h-92v78zM406 116q45 48 45 129q0 82 -45 130t-116 48t-115 -47.5t-44 -130.5q0 -82 44 -129.5t115 -47.5t116 48zM448 570h-285v77h285v-77z
" />
    <glyph glyph-name="aogonek.ss01" horiz-adv-x="611" 
d="M583 -98v-68h-64q-32 0 -53 18.5t-21 51.5q0 14 5 37l13 59h-11v78h-10q-57 -92 -178 -92q-62 0 -114.5 32t-83 91t-30.5 136t30.5 136.5t83 91.5t114.5 32q121 0 178 -93h10v79h92v-491h-12l-13 -62q-2 -14 -2 -16q0 -20 22 -20h44zM406 116q45 48 45 129q0 82 -45 130
t-116 48t-115 -47.5t-44 -130.5q0 -82 44 -129.5t115 -47.5t116 48z" />
    <glyph glyph-name="aring.ss01" horiz-adv-x="611" 
d="M452 78h-10q-57 -92 -178 -92q-62 0 -114.5 32t-83 91t-30.5 136t30.5 136.5t83 91.5t114.5 32q121 0 178 -93h10v79h92v-491h-92v78zM406 116q45 48 45 129q0 82 -45 130t-116 48t-115 -47.5t-44 -130.5q0 -82 44 -129.5t115 -47.5t116 48zM232 710q29 28 73 28
t73.5 -28t29.5 -71q0 -44 -29.5 -71.5t-73.5 -27.5q-43 0 -72.5 28.5t-29.5 70.5q0 43 29 71zM277 611q11 -11 28 -11q18 0 28.5 11t10.5 28t-10.5 28t-28.5 11q-17 0 -28 -11t-11 -28t11 -28z" />
    <glyph glyph-name="aringacute.ss01" horiz-adv-x="611" 
d="M452 78h-10q-57 -92 -178 -92q-62 0 -114.5 32t-83 91t-30.5 136t30.5 136.5t83 91.5t114.5 32q121 0 178 -93h10v79h92v-491h-92v78zM406 116q45 48 45 129q0 82 -45 130t-116 48t-115 -47.5t-44 -130.5q0 -82 44 -129.5t115 -47.5t116 48zM408 639q0 -44 -29.5 -71.5
t-73.5 -27.5q-43 0 -72.5 28.5t-29.5 70.5t28.5 70t71.5 29l40 92h111l-75 -120q29 -29 29 -71zM333.5 611q10.5 11 10.5 28t-10.5 28t-28.5 11q-17 0 -28 -11t-11 -28t11 -28t28 -11q18 0 28.5 11z" />
    <glyph glyph-name="atilde.ss01" horiz-adv-x="611" 
d="M452 78h-10q-57 -92 -178 -92q-62 0 -114.5 32t-83 91t-30.5 136t30.5 136.5t83 91.5t114.5 32q121 0 178 -93h10v79h92v-491h-92v78zM406 116q45 48 45 129q0 82 -45 130t-116 48t-115 -47.5t-44 -130.5q0 -82 44 -129.5t115 -47.5t116 48zM250 719q21 0 37.5 -10
t34.5 -34q12 -16 18.5 -22t17.5 -6q12 0 18.5 5t15.5 17l32 42l59 -45l-46 -61q-16 -21 -34.5 -32t-43.5 -11q-21 0 -37 10t-34 34q-12 16 -18.5 22t-18.5 6q-11 0 -17.5 -5t-16.5 -17l-31 -42l-59 45l45 61q32 43 78 43z" />
    <glyph glyph-name="g.ss02" horiz-adv-x="611" 
d="M544 491v-599q0 -43 -24.5 -67.5t-66.5 -24.5h-368v82h337q28 0 28 30v176h-10q-57 -89 -176 -89q-62 0 -114.5 31.5t-83 89t-30.5 132.5q0 74 30.5 132t83 89.5t114.5 31.5q121 0 178 -93h10v79h92zM406 127q45 47 45 125t-45 124.5t-116 46.5t-115 -46.5t-44 -124.5
q0 -79 44 -125.5t115 -46.5t116 47z" />
    <glyph glyph-name="gbreve.ss02" horiz-adv-x="611" 
d="M544 491v-599q0 -43 -24.5 -67.5t-66.5 -24.5h-368v82h337q28 0 28 30v176h-10q-57 -89 -176 -89q-62 0 -114.5 31.5t-83 89t-30.5 132.5q0 74 30.5 132t83 89.5t114.5 31.5q121 0 178 -93h10v79h92zM406 127q45 47 45 125t-45 124.5t-116 46.5t-115 -46.5t-44 -124.5
q0 -79 44 -125.5t115 -46.5t116 47zM430 677q0 -54 -33.5 -85t-88.5 -31t-88.5 31t-33.5 85v23h72v-17q0 -23 13 -37t37 -14t37 14t13 37v17h72v-23z" />
    <glyph glyph-name="uni0123.ss02" horiz-adv-x="611" 
d="M544 491v-599q0 -43 -24.5 -67.5t-66.5 -24.5h-368v82h337q28 0 28 30v176h-10q-57 -89 -176 -89q-62 0 -114.5 31.5t-83 89t-30.5 132.5q0 74 30.5 132t83 89.5t114.5 31.5q121 0 178 -93h10v79h92zM406 127q45 47 45 125t-45 124.5t-116 46.5t-115 -46.5t-44 -124.5
q0 -79 44 -125.5t115 -46.5t116 47zM363.5 584.5q-22.5 -22.5 -55.5 -22.5q-34 0 -56 22t-22 56v99q0 36 22.5 58t57.5 22h71v-55h-61q-15 0 -22 -6.5t-7 -20.5v-23q8 2 19 2q32 0 54 -21.5t22 -53.5q0 -34 -22.5 -56.5z" />
    <glyph glyph-name="gdotaccent.ss02" horiz-adv-x="611" 
d="M544 491v-599q0 -43 -24.5 -67.5t-66.5 -24.5h-368v82h337q28 0 28 30v176h-10q-57 -89 -176 -89q-62 0 -114.5 31.5t-83 89t-30.5 132.5q0 74 30.5 132t83 89.5t114.5 31.5q121 0 178 -93h10v79h92zM406 127q45 47 45 125t-45 124.5t-116 46.5t-115 -46.5t-44 -124.5
q0 -79 44 -125.5t115 -46.5t116 47zM255.5 691.5q20.5 20.5 51.5 20.5q32 0 52.5 -20.5t20.5 -51.5t-20.5 -51t-52.5 -20q-31 0 -51.5 20t-20.5 51t20.5 51.5z" />
    <glyph glyph-name="v.ss03" horiz-adv-x="531" 
d="M118 491l142 -455h11l142 455h101l-165 -491h-167l-165 491h101z" />
    <glyph glyph-name="w.ss03" horiz-adv-x="771" 
d="M127 491l71 -455h12l93 455h165l92 -455h12l71 455h95l-86 -491h-168l-93 455h-12l-92 -455h-168l-87 491h95z" />
    <glyph glyph-name="wacute.ss03" horiz-adv-x="771" 
d="M127 491l71 -455h12l93 455h165l92 -455h12l71 455h95l-86 -491h-168l-93 455h-12l-92 -455h-168l-87 491h95zM491 700l-81 -130h-86l56 130h111z" />
    <glyph glyph-name="wcircumflex.ss03" horiz-adv-x="771" 
d="M127 491l71 -455h12l93 455h165l92 -455h12l71 455h95l-86 -491h-168l-93 455h-12l-92 -455h-168l-87 491h95zM391 645h-11l-54 -75h-96l97 130h118l97 -130h-97z" />
    <glyph glyph-name="wdieresis.ss03" horiz-adv-x="771" 
d="M127 491l71 -455h12l93 455h165l92 -455h12l71 455h95l-86 -491h-168l-93 455h-12l-92 -455h-168l-87 491h95zM239.5 691.5q20.5 20.5 51.5 20.5q32 0 52.5 -20.5t20.5 -51.5t-20.5 -51t-52.5 -20q-31 0 -51.5 20t-20.5 51t20.5 51.5zM427.5 691.5q20.5 20.5 51.5 20.5
q32 0 52.5 -20.5t20.5 -51.5t-20.5 -51t-52.5 -20q-31 0 -51.5 20t-20.5 51t20.5 51.5z" />
    <glyph glyph-name="wgrave.ss03" horiz-adv-x="771" 
d="M127 491l71 -455h12l93 455h165l92 -455h12l71 455h95l-86 -491h-168l-93 455h-12l-92 -455h-168l-87 491h95zM449 570h-85l-85 130h109z" />
    <glyph glyph-name="y.ss03" horiz-adv-x="548" 
d="M429 491h102l-240 -691h-102l77 200h-78l-171 491h102l149 -455h12z" />
    <glyph glyph-name="yacute.ss03" horiz-adv-x="548" 
d="M429 491h102l-240 -691h-102l77 200h-78l-171 491h102l149 -455h12zM380 700l-81 -130h-86l56 130h111z" />
    <glyph glyph-name="ycircumflex.ss03" horiz-adv-x="548" 
d="M429 491h102l-240 -691h-102l77 200h-78l-171 491h102l149 -455h12zM279 645h-11l-54 -75h-96l97 130h118l97 -130h-97z" />
    <glyph glyph-name="ydieresis.ss03" horiz-adv-x="548" 
d="M429 491h102l-240 -691h-102l77 200h-78l-171 491h102l149 -455h12zM127.5 691.5q20.5 20.5 51.5 20.5q32 0 52.5 -20.5t20.5 -51.5t-20.5 -51t-52.5 -20q-31 0 -51.5 20t-20.5 51t20.5 51.5zM315.5 691.5q20.5 20.5 51.5 20.5q32 0 52.5 -20.5t20.5 -51.5t-20.5 -51
t-52.5 -20q-31 0 -51.5 20t-20.5 51t20.5 51.5z" />
    <glyph glyph-name="ygrave.ss03" horiz-adv-x="548" 
d="M429 491h102l-240 -691h-102l77 200h-78l-171 491h102l149 -455h12zM337 570h-85l-85 130h109z" />
    <glyph glyph-name="one.lf.ss03" horiz-adv-x="416" 
d="M348 700l-1 -700h-99v653h-12l-124 -260h-108l155 307h189z" />
    <glyph glyph-name="zero.lf.zero" horiz-adv-x="608" 
d="M494 640q69 -74 69 -210v-160q0 -137 -69 -210.5t-190 -73.5t-190.5 73.5t-69.5 210.5v160q0 136 69.5 210t190.5 74t190 -74zM185 575q-42 -51 -42 -140v-155l315 221q-14 60 -53.5 92.5t-100.5 32.5q-77 0 -119 -51zM424.5 124.5q40.5 50.5 40.5 140.5v155l-315 -222
q13 -60 52 -92t102 -32q80 0 120.5 50.5z" />
    <glyph glyph-name="zero.osf" horiz-adv-x="591" 
d="M69.5 384q33.5 60 92.5 93t133 33q75 0 134 -33t92.5 -93t33.5 -136t-33.5 -136t-92.5 -93t-134 -33q-74 0 -133 33t-92.5 93t-33.5 136t33.5 136zM155 158.5q20 -39.5 56.5 -62t83.5 -22.5t83.5 23t57 62.5t20.5 88.5t-20.5 89t-57 62.5t-83.5 22.5q-46 0 -82.5 -23
t-57 -63t-20.5 -88q0 -50 20 -89.5z" />
    <glyph glyph-name="one.osf" horiz-adv-x="405" 
d="M338 491v-491h-100v418h-12l-102 -145h-103v8l144 210h173z" />
    <glyph glyph-name="two.osf" horiz-adv-x="572" 
d="M167 469q70 36 159 36q97 0 151.5 -44.5t54.5 -116.5q0 -81 -57 -117.5t-174 -51.5q-62 -7 -95 -16t-49.5 -25.5t-18.5 -44.5h394v-89h-495v43q0 97 55.5 144.5t178.5 62.5q87 11 124.5 29.5t37.5 59.5q0 37 -31.5 57t-86.5 20q-60 0 -114 -30t-90 -82l-76 57
q62 72 132 108z" />
    <glyph glyph-name="three.osf" horiz-adv-x="577" 
d="M171 -82.5q43 -38.5 117 -38.5q69 0 110.5 39t41.5 98q0 61 -40 94t-104 33h-108v85l205 173h-348v90h486v-85l-212 -176v-12h16q56 0 102.5 -24t74 -69.5t27.5 -107.5q0 -66 -32 -117.5t-89.5 -80t-129.5 -28.5q-115 0 -184.5 59t-76.5 161l99 14q2 -69 45 -107.5z" />
    <glyph glyph-name="four.osf" horiz-adv-x="597" 
d="M471 491v-402h118v-89h-118v-200h-99v200h-351v84l287 407h163zM128 89h244v323h-12z" />
    <glyph glyph-name="five.osf" horiz-adv-x="580" 
d="M179 -87q42 -39 112 -39q72 0 113.5 44t41.5 119q0 68 -37.5 108t-98.5 40q-80 0 -115 -68h-135v374h464v-89h-365v-220h12q50 87 163 87q58 0 106 -28t76.5 -79.5t28.5 -120.5q0 -75 -31 -132.5t-88.5 -90t-132.5 -32.5q-73 0 -130 28t-89.5 79t-35.5 119l97 11
q2 -71 44 -110z" />
    <glyph glyph-name="six.osf" horiz-adv-x="585" 
d="M469 662.5q-64 51.5 -166 51.5q-76 0 -134.5 -29.5t-91 -85t-32.5 -132.5v-244q0 -69 32 -123t88 -83.5t126 -29.5q73 0 131 30t91.5 85t33.5 127q0 68 -29.5 121t-81 83t-114.5 30q-67 0 -106.5 -24t-60.5 -57h-12v92q0 72 42.5 112t117.5 40q63 0 99.5 -30.5
t41.5 -82.5l99 12q-10 86 -74 137.5zM406 342q42 -43 42 -113t-42.5 -112t-109.5 -42q-68 0 -110.5 42t-42.5 112t42.5 113t110.5 43t110 -43z" />
    <glyph glyph-name="seven.osf" horiz-adv-x="551" 
d="M533 491v-86l-290 -605h-111l289 601h-403v90h515z" />
    <glyph glyph-name="eight.osf" horiz-adv-x="585" 
d="M78.5 622q30.5 43 86 67.5t128.5 24.5q72 0 127.5 -24.5t86 -67.5t30.5 -97q0 -62 -34 -100t-85 -57v-12q31 -7 61 -28.5t50 -57t20 -83.5q0 -59 -32.5 -105t-91 -71t-132.5 -25q-75 0 -133 25t-90.5 71t-32.5 105q0 48 20 83.5t49.5 57t60.5 28.5v12q-51 19 -85 57
t-34 100q0 54 30.5 97zM187.5 433.5q40.5 -29.5 105.5 -29.5q64 0 104.5 30t40.5 81q0 52 -40 81.5t-105 29.5t-105.5 -29.5t-40.5 -81.5t40.5 -81.5zM177.5 106q42.5 -32 115.5 -32q72 0 114.5 32t42.5 89t-42.5 89t-114.5 32q-73 0 -115.5 -32t-42.5 -89t42.5 -89z" />
    <glyph glyph-name="nine.osf" horiz-adv-x="585" 
d="M188.5 -97.5q35.5 -28.5 96.5 -28.5q74 0 115.5 40t41.5 112v83h-12q-19 -33 -59.5 -57t-106.5 -24q-63 0 -114.5 30t-81 83t-29.5 121q0 71 32.5 126t90 86t129.5 31q71 0 128 -29.5t89.5 -83.5t32.5 -123v-236q0 -77 -32 -132.5t-90 -85t-134 -29.5q-100 0 -163.5 50
t-74.5 133l99 12q7 -50 42.5 -78.5zM400 149q42 43 42 113q0 71 -42 113t-110 42t-110.5 -42.5t-42.5 -112.5t42.5 -113t110.5 -43t110 43z" />
    <glyph glyph-name="one.osf.ss03" horiz-adv-x="405" 
d="M338 491v-491h-100v444h-12l-102 -171h-103l130 218h187z" />
    <glyph glyph-name="zero.osf.zero" horiz-adv-x="591" 
d="M429 472q59 -33 92.5 -92t33.5 -135q0 -75 -33.5 -134t-92.5 -92t-134 -33q-74 0 -133 33t-92.5 92t-33.5 134q0 76 33.5 135t92.5 92t133 33q75 0 134 -33zM212.5 394q-36.5 -23 -57 -62t-20.5 -87q0 -32 9 -61l266 184q-21 24 -50.5 36.5t-64.5 12.5q-46 0 -82.5 -23z
M378.5 96.5q36.5 22.5 57 61.5t20.5 87q0 35 -10 62l-266 -185q21 -23 50.5 -35.5t64.5 -12.5q47 0 83.5 22.5z" />
    <glyph glyph-name="one.ss03" horiz-adv-x="416" 
d="M348 700l-1 -700h-99v653h-12l-124 -260h-108l155 307h189z" />
    <glyph glyph-name="zero.tf" 
d="M127 640q66 74 183 74t183 -74t66 -210v-160q0 -138 -66 -211t-183 -73t-183 73t-66 211v160q0 136 66 210zM197.5 125q37.5 -50 112.5 -50q76 0 113 50t37 141v168q0 90 -38.5 140.5t-111.5 50.5t-111.5 -51t-38.5 -140v-168q0 -91 37.5 -141z" />
    <glyph glyph-name="one.tf" 
d="M398 89h180v-89h-513v89h234v505h-12l-97 -201h-105l153 307h161z" />
    <glyph glyph-name="two.tf" 
d="M99 602q34 55 92 83.5t130 28.5q69 0 125 -28t88.5 -80t32.5 -120q0 -96 -57 -152t-170 -85q-65 -17 -100.5 -32t-55 -41t-19.5 -69v-18h402v-89h-501v97q0 97 58 149t169 81q88 22 132 59.5t44 101.5q0 63 -40 99t-107 36q-71 0 -114.5 -40t-43.5 -116v-21h-99v24
q0 77 34 132z" />
    <glyph glyph-name="three.tf" 
d="M554 610l-219 -181v-12h25q56 0 102.5 -24t73.5 -70t27 -109q0 -67 -32 -119t-89.5 -80.5t-130.5 -28.5q-79 0 -138 29.5t-90.5 83.5t-31.5 126v31h99v-29q0 -71 42.5 -110.5t118.5 -39.5q70 0 111.5 39t41.5 99q0 62 -40 95t-104 33h-107v91l207 173h-351v93h485v-90z
" />
    <glyph glyph-name="four.tf" 
d="M483 700v-470h118v-89h-118v-141h-99v141h-349v86l290 473h158zM139 230h245v382h-12z" />
    <glyph glyph-name="five.tf" 
d="M543 608h-365v-224h12q48 87 163 87q58 0 106 -28t76.5 -80t28.5 -121q0 -75 -31 -133t-88.5 -90.5t-132.5 -32.5q-76 0 -134 29.5t-90 84t-32 125.5v22h98v-16q0 -73 41.5 -113.5t113.5 -40.5q73 0 114 43t41 119q0 68 -37 108t-98 40q-80 0 -115 -67h-135v380h464v-92z
" />
    <glyph glyph-name="six.tf" 
d="M531 102q-33 -55 -91.5 -85t-131.5 -30q-70 0 -126 29.5t-88 83.5t-32 123v244q0 77 32 132.5t90 85t134 29.5q73 0 127.5 -27.5t83.5 -77.5t29 -114h-100q0 60 -35.5 95t-104.5 35q-75 0 -116 -40t-41 -111v-92h12q19 33 59.5 57t106.5 24q63 0 114.5 -30t81 -83
t29.5 -121q0 -72 -33 -127zM203 341q-42 -42 -42 -112t42 -111t110 -41t110.5 41.5t42.5 110.5q0 70 -42 112t-111 42q-68 0 -110 -42z" />
    <glyph glyph-name="seven.tf" 
d="M581 700v-87l-307 -613h-110l305 609h-432v91h544z" />
    <glyph glyph-name="eight.tf" 
d="M96.5 622q30.5 43 86 67.5t127.5 24.5t127.5 -24.5t86 -67.5t30.5 -97q0 -62 -34 -100t-84 -57v-12q31 -7 60.5 -28.5t49.5 -57t20 -83.5q0 -59 -32.5 -105t-91 -71t-132.5 -25t-132.5 25t-91 71t-32.5 105q0 48 20 83.5t49.5 57t60.5 28.5v12q-50 19 -84 57t-34 100
q0 54 30.5 97zM205 435q40 -29 105 -29t105.5 29t40.5 80t-40.5 79.5t-105.5 28.5t-105 -28.5t-40 -79.5t40 -80zM195 108.5q42 -31.5 115 -31.5t115 31.5t42 87.5t-42 87.5t-115 31.5t-115 -31.5t-42 -87.5t42 -87.5z" />
    <glyph glyph-name="nine.tf" 
d="M91.5 597q32.5 55 90 86t129.5 31q71 0 128 -29.5t89.5 -83.5t32.5 -123v-244q0 -77 -32 -132.5t-90 -85t-134 -29.5q-73 0 -127.5 27.5t-83.5 77t-29 113.5h100q0 -59 36 -94t104 -35q75 0 116.5 39.5t41.5 110.5v92h-12q-21 -33 -60.5 -57t-106.5 -24q-63 0 -114.5 30
t-81 83t-29.5 121q0 71 32.5 126zM420.5 360q42.5 42 42.5 111q0 70 -42.5 111t-110.5 41q-67 0 -109.5 -41.5t-42.5 -110.5t42 -111t110 -42t110.5 42z" />
    <glyph glyph-name="one.tf.ss03" 
d="M398 89h180v-89h-513v89h234v564h-12l-97 -260h-105l125 307h189z" />
    <glyph glyph-name="zero.tf.zero" 
d="M493 640q66 -74 66 -210v-160q0 -138 -66 -211t-183 -73t-183 73t-66 211v160q0 136 66 210t183 74t183 -74zM198.5 574q-38.5 -51 -38.5 -140v-146l295 207q-12 62 -49 96t-96 34q-73 0 -111.5 -51zM423 125q37 50 37 141v146l-295 -207q11 -63 47.5 -96.5t97.5 -33.5
q76 0 113 50z" />
    <glyph glyph-name="zero.tosf" 
d="M84 386q33 59 92 91.5t134 32.5t134 -32.5t92 -91.5t33 -134v-8q0 -75 -33 -134t-92 -91.5t-134 -32.5t-134 32.5t-92 91.5t-33 134v8q0 75 33 134zM194.5 121.5q44.5 -46.5 115.5 -46.5t115.5 47t44.5 120v12q0 74 -44.5 120.5t-115.5 46.5q-47 0 -83.5 -22t-56.5 -60
t-20 -85v-12q0 -74 44.5 -120.5z" />
    <glyph glyph-name="one.tosf" 
d="M406 491v-402h174v-89h-528v89h254v331h-14l-91 -147h-103v8l133 210h175z" />
    <glyph glyph-name="two.tosf" 
d="M192 469q70 36 159 36q97 0 151.5 -44.5t54.5 -116.5q0 -81 -57 -117.5t-174 -51.5q-62 -7 -95 -16t-49.5 -25.5t-18.5 -44.5h394v-89h-495v43q0 97 55.5 144.5t178.5 62.5q87 11 124.5 29.5t37.5 59.5q0 37 -31.5 57t-86.5 20q-59 0 -113.5 -30t-90.5 -82l-76 57
q62 72 132 108z" />
    <glyph glyph-name="three.tosf" 
d="M189.5 -82.5q42.5 -38.5 116.5 -38.5q69 0 111 39t42 98q0 61 -40 94t-104 33h-108v85l204 173h-347v90h485v-85l-212 -176v-12h16q57 0 103.5 -24t74 -69.5t27.5 -107.5q0 -67 -32 -118t-89.5 -79.5t-130.5 -28.5q-115 0 -184 59t-76 161l99 14q2 -69 44.5 -107.5z" />
    <glyph glyph-name="four.tosf" 
d="M478 491v-402h118v-89h-118v-200h-99v200h-351v84l287 407h163zM134 89h245v323h-12z" />
    <glyph glyph-name="five.tosf" 
d="M201 -87q42 -39 112 -39q72 0 113.5 44t41.5 119q0 68 -37.5 108t-98.5 40q-80 0 -115 -68h-135v374h464v-89h-365v-220h12q50 87 163 87q58 0 106 -28t76.5 -79.5t28.5 -120.5q0 -75 -31 -132.5t-88.5 -90t-132.5 -32.5q-73 0 -130 28t-89.5 79t-35.5 119l97 11
q2 -71 44 -110z" />
    <glyph glyph-name="six.tosf" 
d="M485 662.5q-64 51.5 -166 51.5q-76 0 -134.5 -29.5t-91 -85t-32.5 -132.5v-244q0 -69 32 -123t88 -83.5t126 -29.5q73 0 131.5 30t92 85t33.5 127q0 68 -29.5 121t-81 83t-115.5 30q-66 0 -106.5 -24t-59.5 -57h-12v92q0 72 42 112t117 40q64 0 100.5 -30.5t41.5 -82.5
l99 12q-11 86 -75 137.5zM422.5 342q42.5 -43 42.5 -113t-42.5 -112t-110.5 -42t-110 42t-42 112t42 113t110 43t110.5 -43z" />
    <glyph glyph-name="seven.tosf" 
d="M577 491v-86l-308 -605h-110l305 601h-432v90h545z" />
    <glyph glyph-name="eight.tosf" 
d="M96.5 622q30.5 43 86 67.5t127.5 24.5t127.5 -24.5t86 -67.5t30.5 -97q0 -62 -34 -100t-84 -57v-12q31 -7 60.5 -28.5t49.5 -57t20 -83.5q0 -59 -32.5 -105t-91 -71t-132.5 -25t-132.5 25t-91 71t-32.5 105q0 48 20 83.5t49.5 57t60.5 28.5v12q-50 19 -84 57t-34 100
q0 54 30.5 97zM205.5 434q40.5 -30 104.5 -30t105 30t41 81q0 52 -40.5 81.5t-105.5 29.5t-105 -29.5t-40 -81.5q0 -51 40.5 -81zM195.5 106q42.5 -32 114.5 -32t114.5 32t42.5 89t-42 89t-115 32t-115 -32t-42 -89t42.5 -89z" />
    <glyph glyph-name="nine.tosf" 
d="M206.5 -97.5q35.5 -28.5 96.5 -28.5q75 0 116 40t41 112v83h-12q-19 -33 -59.5 -57t-106.5 -24q-63 0 -114.5 30t-81 83t-29.5 121q0 71 32.5 126t90 86t129.5 31q71 0 128 -29.5t89.5 -83.5t32.5 -123v-236q0 -77 -32 -132.5t-90 -85t-134 -29.5q-100 0 -163 50t-75 133
l99 12q7 -50 42.5 -78.5zM418 149q42 43 42 113q0 71 -42 113t-110 42t-110 -42.5t-42 -112.5t42 -113t110 -43t110 43z" />
    <glyph glyph-name="one.tosf.ss03" 
d="M406 491v-402h174v-89h-528v89h254v355h-12l-93 -171h-103l123 218h185z" />
    <glyph glyph-name="zero.tosf.zero" 
d="M444 472q59 -33 92 -92t33 -135q0 -75 -33 -134t-92 -92t-134 -33t-134 33t-92 92t-33 134q0 76 33 135t92 92t134 33t134 -33zM227.5 394q-36.5 -23 -57 -62t-20.5 -87q0 -32 9 -61l266 185q-21 23 -50.5 35.5t-64.5 12.5q-46 0 -82.5 -23zM393 96.5q36 22.5 56.5 61.5
t20.5 87q0 34 -9 61l-266 -184q21 -23 50.5 -35.5t64.5 -12.5q47 0 83 22.5z" />
    <glyph glyph-name="zero.subs.zero" horiz-adv-x="367" 
d="M300 120q43 -43 43 -116v-59q0 -74 -42.5 -116t-117.5 -42t-117.5 42t-42.5 116v59q0 74 42.5 116.5t117.5 42.5q74 0 117 -43zM122 74q-21 -23 -21 -64v-57l157 101q-21 43 -75 43q-40 0 -61 -23zM244.5 -123.5q21.5 23.5 21.5 63.5v62l-158 -103q17 -46 75 -46
q40 0 61.5 23.5z" />
    <glyph glyph-name="zero.dnom.zero" horiz-adv-x="367" 
d="M300 320q43 -43 43 -116v-59q0 -74 -42.5 -116t-117.5 -42t-117.5 42t-42.5 116v59q0 74 42.5 116.5t117.5 42.5q74 0 117 -43zM122 274q-21 -23 -21 -64v-57l157 101q-21 43 -75 43q-40 0 -61 -23zM244.5 76.5q21.5 23.5 21.5 63.5v62l-158 -103q17 -46 75 -46
q40 0 61.5 23.5z" />
    <glyph glyph-name="zero.numr.zero" horiz-adv-x="367" 
d="M300 670q43 -43 43 -116v-59q0 -74 -42.5 -116t-117.5 -42t-117.5 42t-42.5 116v59q0 74 42.5 116.5t117.5 42.5q74 0 117 -43zM122 624q-21 -23 -21 -64v-57l157 101q-21 43 -75 43q-40 0 -61 -23zM244.5 426.5q21.5 23.5 21.5 63.5v62l-158 -103q17 -46 75 -46
q40 0 61.5 23.5z" />
    <glyph glyph-name="zero.sups.zero" horiz-adv-x="367" 
d="M300 670q43 -43 43 -116v-59q0 -74 -42.5 -116t-117.5 -42t-117.5 42t-42.5 116v59q0 74 42.5 116.5t117.5 42.5q74 0 117 -43zM122 624q-21 -23 -21 -64v-57l157 101q-21 43 -75 43q-40 0 -61 -23zM244.5 426.5q21.5 23.5 21.5 63.5v62l-158 -103q17 -46 75 -46
q40 0 61.5 23.5z" />
    <glyph glyph-name="exclamdown.case" horiz-adv-x="257" 
d="M72.5 692q22.5 22 55.5 22q34 0 56 -22t22 -56t-22 -56t-56 -22q-33 0 -55.5 22t-22.5 56t22.5 56zM78 0l10 502h80l11 -502h-101z" />
    <glyph glyph-name="questiondown.case" horiz-adv-x="604" 
d="M372.5 580q-22.5 -22 -55.5 -22q-34 0 -56 22t-22 56t22 56t56 22q33 0 55.5 -22t22.5 -56t-22.5 -56zM522.5 86q-32.5 -49 -90 -74.5t-129.5 -25.5q-70 0 -125.5 26t-87 71.5t-31.5 103.5v5q0 77 40.5 122.5t108.5 74.5l25 10q19 9 26.5 21.5t7.5 36.5v45h99v-50
q0 -49 -17 -78t-62 -49l-25 -10q-54 -24 -79 -50.5t-25 -72.5q0 -53 40.5 -83.5t104.5 -30.5q67 0 110 33t43 95v32h99v-36q0 -67 -32.5 -116z" />
    <glyph glyph-name="parenleft.case" horiz-adv-x="408" 
d="M196.5 784.5q69.5 67.5 191.5 67.5v-89q-83 -2 -123 -50t-40 -146v-441q0 -98 40 -146t123 -50v-89q-122 0 -191.5 67.5t-69.5 208.5v458q0 142 69.5 209.5z" />
    <glyph glyph-name="guillemotleft.case" horiz-adv-x="780" 
d="M379 569h6v-103l-226 -121v-14l226 -121v-103h-6l-314 180v102zM705 569h6v-103l-225 -121v-14l225 -121v-103h-6l-314 180v102z" />
    <glyph glyph-name="guillemotright.case" horiz-adv-x="780" 
d="M385 287l-314 -180h-6v103l225 121v14l-225 121v103h6l314 -180v-102zM711 287l-314 -180h-6v103l226 121v14l-226 121v103h6l314 -180v-102z" />
    <glyph glyph-name="uni2197.case" horiz-adv-x="609" 
d="M494 700l52 -52v-332l-88 1v190l7 37l-9 4l-24 -29l-328 -329l-67 67l327 329l30 24l-4 9l-38 -7h-189l-1 88h332z" />
    <glyph glyph-name="arrowright.case" horiz-adv-x="800" 
d="M750 389v-75l-235 -235l-63 64l136 136l31 21l-3 9l-38 -3h-528v91h528l38 -3l3 9l-31 21l-136 136l63 64z" />
    <glyph glyph-name="arrowleft.case" horiz-adv-x="800" 
d="M348 560l-136 -136l-31 -21l3 -9l38 3h528v-91h-528l-38 3l-3 -9l31 -21l136 -136l-63 -64l-235 235v75l235 235z" />
    <glyph glyph-name="uni2196.case" horiz-adv-x="612" 
d="M457 612h-189l-38 7l-4 -9l30 -24l327 -329l-66 -67l-329 329l-24 29l-9 -4l7 -37v-190l-88 -1v332l52 52h332z" />
    <glyph glyph-name="arrowboth.case" horiz-adv-x="800" 
d="M521 618l229 -229v-75l-229 -229l-63 64l130 130l31 21l-3 9l-38 -3h-356l-38 3l-3 -9l31 -21l130 -130l-63 -64l-229 229v75l229 229l63 -63l-130 -131l-31 -21l3 -9l38 3h356l38 -3l3 9l-31 21l-130 131z" />
    <glyph glyph-name="bar.case" horiz-adv-x="230" 
d="M162 -156h-94v1012h94v-1012z" />
    <glyph glyph-name="brokenbar.case" horiz-adv-x="230" 
d="M68 436v420h94v-420h-94zM162 264v-420h-94v420h94z" />
    <glyph glyph-name="ringacutecomb" horiz-adv-x="303" 
d="M254 639q0 -44 -29.5 -71.5t-73.5 -27.5q-43 0 -72.5 28.5t-29.5 70.5t28.5 70t71.5 29l40 92h111l-75 -120q29 -29 29 -71zM179.5 611q10.5 11 10.5 28t-10.5 28t-28.5 11q-17 0 -28 -11t-11 -28t11 -28t28 -11q18 0 28.5 11z" />
    <glyph glyph-name="Omega" 
d="M90 580.5q30 63.5 86.5 98.5t133.5 35q78 0 134.5 -35t86 -98t29.5 -147v-136q0 -74 -23.5 -121.5t-64.5 -68.5v-14h100v-94h-222v102q64 21 87 69t23 137v118q0 92 -38.5 143t-111.5 51t-111.5 -52t-38.5 -142v-118q0 -89 23 -137t87 -69v-102h-222v94h100v14
q-42 21 -65 70t-23 120v136q0 83 30 146.5z" />
    <glyph glyph-name="Delta" 
d="M223 700h174l205 -700h-584zM471 94l-154 534h-14l-154 -534h322z" />
    </font>
</defs>
</svg>
