<svg width="120" height="120" viewBox="0 0 120 120" fill="none" xmlns="http://www.w3.org/2000/svg">
<mask id="mask0" mask-type="alpha" maskUnits="userSpaceOnUse" x="0" y="0" width="120" height="120">
<path d="M120 60C120 26.8941 93.1059 0 60 0C26.8941 0 0 26.8941 0 60C0 93.1059 26.8941 120 60 120C93.1059 120 120 93.1059 120 60Z" fill="#FA5430"/>
</mask>
<g mask="url(#mask0)">
<path d="M120 60.0004C120 26.8945 93.1059 0.000427246 60 0.000427246C26.8941 0.000427246 0 26.8945 0 60.0004C0 93.1063 26.8941 120 60 120C93.1059 120 120 93.1063 120 60.0004Z" fill="#FA5430"/>
<path d="M120 60.1428C120 27.0369 93.1059 0.142822 60 0.142822C26.8941 0.142822 0 27.0369 0 60.1428C0 93.2487 26.8941 120.143 60 120.143C93.1059 120.143 120 93.3193 120 60.1428Z" fill="#FA5430"/>
<path opacity="0.05" d="M120 60C120 26.8941 93.1056 0 59.9997 0V120C93.1056 120 120 93.1059 120 60Z" fill="black"/>
<path d="M68.7533 96.28L59.8591 121.198L51.2474 96.28V77.0094H68.7533V96.28Z" fill="#EAC8AD"/>
<path d="M60 23.5751C51.4589 23.5751 37.9765 28.4457 37.9765 51.1751C37.9765 64.3045 43.0589 70.5163 44.9647 72.8457C46.6589 75.034 55.4824 82.0928 60 82.0928C60 59.1516 60 23.5751 60 23.5751Z" fill="#F2D7BC"/>
<path d="M33.7411 56.6106C33.3881 53.0106 35.0823 49.7636 37.6234 49.4106C40.1646 49.0577 42.494 51.74 42.847 55.34C43.1999 58.94 41.5058 62.1871 38.9646 62.54C36.4234 62.893 34.094 60.2106 33.7411 56.6106Z" fill="#F2D7BC"/>
<path d="M59.9291 23.5751C68.4703 23.5751 81.9526 28.4457 81.9526 51.1751C81.9526 64.3045 76.8702 70.5163 74.9644 72.8457C73.2702 75.034 64.4467 82.0928 59.9291 82.0928C59.9291 59.1516 59.9291 23.5751 59.9291 23.5751Z" fill="#EAC0A7"/>
<path d="M86.2585 56.6114C86.6114 53.0114 84.9173 49.7643 82.3761 49.4114C79.8349 49.0585 77.5055 51.7408 77.1526 55.3408C76.7996 58.9408 78.4938 62.1879 81.0349 62.5408C83.5761 62.8938 85.9055 60.2114 86.2585 56.6114Z" fill="#EAC0A7"/>
<path d="M59.9998 74.1162C63.3174 74.1162 65.9998 72.0692 65.9998 69.528H53.9998C53.9998 72.0692 56.6821 74.1162 59.9998 74.1162Z" fill="white"/>
<path d="M60.0002 121.201V97.2009C60.0002 97.2009 53.4355 95.5773 52.0237 90.2832C51.3178 87.7421 51.3178 85.695 51.3178 85.695C51.3178 85.695 36.9884 90.5656 33.8119 95.5068C31.1296 103.413 30.4237 121.201 30.4237 121.201H60.0002Z" fill="#F2D7BC"/>
<path d="M59.9999 121.201V97.2011C59.9999 97.2011 66.5646 95.5775 67.9764 90.2834C68.6822 87.7422 68.6822 85.6952 68.6822 85.6952C68.6822 85.6952 83.0116 90.5658 86.1881 95.507C88.8705 103.413 89.5763 121.201 89.5763 121.201H59.9999Z" fill="#EAC0A7"/>
<path d="M60.0002 103.199C52.659 103.199 46.7296 96.2104 46.5178 87.4574C43.6237 88.6574 42.4237 89.081 40.3061 90.4221C40.0237 92.1868 38.1178 97.0574 37.2002 104.328C36.2825 111.528 38.4002 121.199 38.4002 121.199H60.0002V103.199Z" fill="#47A5FA"/>
<path d="M59.9997 103.199C67.3409 103.199 73.2703 96.2104 73.482 87.4574C76.3762 88.6574 77.5762 89.081 79.6938 90.4221C79.9762 92.1868 81.882 97.0574 82.7997 104.328C83.7173 111.528 81.5997 121.199 81.5997 121.199H59.9997V103.199Z" fill="#4790FA"/>
<path d="M68.682 15.1756C68.7526 14.6815 68.8232 14.1874 68.8232 13.6933C68.7526 8.89328 64.8703 4.94034 59.9997 4.94034C55.1291 4.94034 51.2468 8.89328 51.2468 13.6933C51.2468 14.1874 51.3173 14.6815 51.3879 15.1756C41.1526 18.7756 33.8115 28.5168 33.8115 39.9521C33.8115 43.5521 34.5173 47.0109 35.8585 50.1874C36.4232 49.7639 36.9879 49.4109 37.6938 49.3403C37.835 49.3403 37.9762 49.3403 38.1173 49.3403C39.3879 51.2462 41.0821 52.8698 42.635 53.858C42.9173 53.9992 43.1291 54.2109 43.4115 54.2815C43.4115 52.7992 43.4115 52.305 43.4115 50.3992C43.4115 45.3168 48.2115 40.5874 55.482 41.3639C57.1762 41.5756 58.6585 41.4345 59.9997 41.0815H60.0703C64.0232 40.0227 66.9879 36.7756 69.5291 32.1874C69.5291 32.1168 69.5997 32.1168 69.5997 32.0462C71.082 36.3521 74.8232 45.2462 82.0232 49.058C82.1644 49.1286 82.3762 49.2697 82.5173 49.3403C83.1526 49.4109 83.7879 49.6933 84.3526 50.1874C85.6938 47.0815 86.3997 43.6227 86.3997 39.9521C86.2585 28.5168 78.9173 18.7756 68.682 15.1756Z" fill="#845830"/>
</g>
</svg>
