<svg width="119" height="120" viewBox="0 0 119 120" fill="none" xmlns="http://www.w3.org/2000/svg">
<mask id="mask0" mask-type="alpha" maskUnits="userSpaceOnUse" x="0" y="0" width="119" height="120">
<path d="M118.84 60C118.84 26.8941 92.2057 0 59.4199 0C26.6341 0 0 26.8941 0 60C0 93.1059 26.6341 120 59.4199 120C92.2057 120 118.84 93.1059 118.84 60Z" fill="#AF4AFA"/>
</mask>
<g mask="url(#mask0)">
<path d="M118.84 59.2937C118.84 26.1878 92.2056 -0.706268 59.4198 -0.706268C26.634 -0.706268 -6.10352e-05 26.1878 -6.10352e-05 59.2937C-6.10352e-05 92.3996 26.634 119.294 59.4198 119.294C92.2056 119.294 118.84 92.3996 118.84 59.2937Z" fill="#AF4AFA"/>
<path d="M118.84 59.433C118.84 26.3271 92.2055 -0.566986 59.4197 -0.566986C26.634 -0.566986 -0.00012207 26.3271 -0.00012207 59.433C-0.00012207 92.5389 26.634 119.433 59.4197 119.433C92.2055 119.433 118.84 92.6095 118.84 59.433Z" fill="#AF4AFA"/>
<path d="M59.6303 120L59.7007 119.858H59.5599L59.6303 120Z" fill="#AF4AFA"/>
<path opacity="0.05" d="M118.84 59.2947C118.84 26.1888 92.2058 -0.705292 59.42 -0.705292V119.295C92.2058 119.295 118.84 92.4006 118.84 59.2947Z" fill="black"/>
<path d="M68.0887 99.2465L59.6301 120.07L50.7521 99.2465V79.9759H68.0887V99.2465Z" fill="#895434"/>
<path d="M59.42 24.8464C67.8786 24.8464 81.2306 29.717 81.2306 52.4464C81.2306 65.5758 76.9663 74.1876 75.1488 76.517C73.471 78.7052 63.8939 83.364 59.42 83.364C59.42 60.4229 59.42 24.8464 59.42 24.8464Z" fill="#845132"/>
<path d="M85.4246 57.8795C85.7741 54.2795 84.0964 51.0325 81.5798 50.6795C79.0632 50.3266 76.7563 53.0089 76.4068 56.6089C76.0572 60.2089 77.735 63.456 80.2516 63.8089C82.7682 64.1619 85.0751 61.4795 85.4246 57.8795Z" fill="#845132"/>
<path d="M59.4199 24.8464C50.9613 24.8464 37.6093 29.717 37.6093 52.4464C37.6093 65.5758 41.8736 74.1876 43.6911 76.517C45.3688 78.7052 54.9459 83.364 59.4199 83.364C59.4199 60.4229 59.4199 24.8464 59.4199 24.8464Z" fill="#935A38"/>
<path d="M33.4149 57.8818C33.0654 54.2818 34.7432 51.0348 37.2598 50.6818C39.7764 50.3289 42.0833 53.0113 42.4328 56.6113C42.7823 60.2113 41.1046 63.4583 38.588 63.8113C36.0714 64.1642 33.7645 61.4818 33.4149 57.8818Z" fill="#935A38"/>
<path d="M59.4199 73.6218C63.3347 73.6218 66.5503 72.2806 66.5503 70.657H52.2896C52.2896 72.2806 55.5052 73.6218 59.4199 73.6218Z" fill="white"/>
<path d="M68.0883 85.4808H71.0243C76.5469 86.8926 82.6287 87.9514 86.6133 92.6808C89.1299 95.6455 94.1631 122.257 94.1631 122.257H82.9083H59.42V97.6926V92.3985C64.2435 92.3279 68.0883 89.222 68.0883 85.4808Z" fill="#845132"/>
<path d="M50.7517 85.4818H47.8156C42.2931 86.8935 36.2113 87.9524 32.2266 92.6818C29.71 95.6465 24.6768 122.258 24.6768 122.258H35.9316H59.42V97.6935V92.3994C54.5965 92.3288 50.7517 89.2229 50.7517 85.4818Z" fill="#935A38"/>
<path d="M67.2493 21.6707H66.5503C65.5716 21.6707 64.8026 22.4472 64.8026 23.4354V21.2472C64.8026 20.2589 64.0337 19.4825 63.055 19.4825H62.3559C61.3772 19.4825 60.6083 20.2589 60.6083 21.2472C60.6083 20.2589 59.8393 19.4825 58.8606 19.4825H58.1616C57.1829 19.4825 56.4139 20.2589 56.4139 21.2472V23.4354C56.4139 22.4472 55.645 21.6707 54.6663 21.6707H53.9672C52.9886 21.6707 52.2196 22.4472 52.2196 23.4354V24.353C51.94 23.7177 51.3108 23.2942 50.5419 23.2942H49.9826C49.0039 23.2942 48.1651 24.1413 48.1651 25.1295V27.6707C47.9553 26.8236 47.1864 26.1177 46.2776 26.1177H45.7184C44.7397 26.1177 43.9008 26.9648 43.9008 27.953V31.4119C43.6212 30.706 42.992 30.2119 42.2231 30.2119H41.6638C40.6851 30.2119 39.8463 31.0589 39.8463 32.0472V38.1883C39.7764 38.1883 39.6366 38.1883 39.5667 38.1883H38.3783C37.5394 38.1883 36.8403 38.8942 36.8403 39.7413V47.7178C36.8403 48.5648 37.5394 49.2707 38.3783 49.2707H39.5667C40.4055 49.2707 41.1046 48.5648 41.1046 47.7178V46.0236C41.3143 46.0942 41.4541 46.0942 41.6638 46.0942H42.2231C43.2018 46.0942 44.0406 45.2472 44.0406 44.2589V40.8001C44.3202 41.506 44.9494 42.0001 45.7184 42.0001H46.2776C47.2563 42.0001 48.0952 41.153 48.0952 40.1648V37.6236C48.235 38.5413 49.0039 39.1766 49.9127 39.1766H50.4719C51.4506 39.1766 52.2895 38.3295 52.2895 37.3413V35.506C52.5691 36.0707 53.1983 36.4942 53.8973 36.4942H54.5964C55.5751 36.4942 56.344 35.7177 56.344 34.7295V32.4707C56.344 33.4589 57.113 34.2354 58.0917 34.2354H58.7907C59.7694 34.2354 60.5384 33.4589 60.5384 32.4707C60.5384 33.4589 61.3073 34.2354 62.286 34.2354H62.9851C63.9638 34.2354 64.7327 33.4589 64.7327 32.4707V34.7295C64.7327 35.7177 65.5017 36.4942 66.4804 36.4942H67.1794C68.1581 36.4942 68.9271 35.7177 68.9271 34.7295V23.4354C68.997 22.4472 68.228 21.6707 67.2493 21.6707Z" fill="#461811"/>
<path d="M81.9292 39.2469H81.3001V32.1174C81.3001 31.1292 80.4612 30.2822 79.4825 30.2822H78.9233C78.1543 30.2822 77.4552 30.7763 77.2455 31.4821V28.0233C77.2455 27.0351 76.4066 26.188 75.428 26.188H74.7988C73.89 26.188 73.1211 26.8939 72.9813 27.741V25.1998C72.9813 24.2116 72.1424 23.3645 71.1637 23.3645H70.6045C69.6258 23.3645 68.7869 24.2116 68.7869 25.1998V37.4116C68.7869 38.3998 69.6258 39.2469 70.6045 39.2469H71.1637C72.0725 39.2469 72.8415 38.541 72.9813 37.6939V40.2351C72.9813 41.2233 73.8201 42.0704 74.7988 42.0704H75.3581C76.127 42.0704 76.8261 41.5763 77.0358 40.8704V44.3292C77.0358 45.3174 77.8747 46.1645 78.8534 46.1645H79.133V47.788C79.133 48.6351 79.7621 49.2704 80.601 49.2704H81.9292C82.7681 49.2704 83.3972 48.6351 83.3972 47.788V40.7292C83.3972 39.8822 82.6982 39.2469 81.9292 39.2469Z" fill="#461811"/>
<path d="M68.0879 85.4811H71.0239C76.5465 86.8929 82.6283 87.9517 86.6129 92.6811C89.1295 95.6458 93.4636 120.14 93.4636 120.14H82.9079H59.4196V97.6929V92.3988C64.2431 92.3282 68.0879 89.2223 68.0879 85.4811Z" fill="#C6C6C6"/>
<path d="M50.7514 85.4847H47.8154C42.2928 86.8964 36.211 87.9553 32.2264 92.6847C29.7098 95.6494 25.3756 120.144 25.3756 120.144H35.9314H59.4197V97.6964V92.4023C54.5962 92.3317 50.7514 89.2259 50.7514 85.4847Z" fill="#C6C6C6"/>
<path d="M59.4192 94.5185C65.8506 94.5185 71.0935 90.4244 71.0935 85.4126H68.0876C68.0876 89.2244 64.1728 92.2597 59.4192 92.2597C54.5958 92.2597 50.7509 89.1538 50.7509 85.4126H47.745C47.745 90.495 52.9879 94.5185 59.4192 94.5185Z" fill="#C6C6C6"/>
<path d="M67.1792 69.1768L59.4196 65.6473L51.6601 69.1768H52.9883L59.4196 67.765L65.851 69.1768H67.1792Z" fill="#461811"/>
</g>
</svg>
