<svg width="120" height="25" viewBox="0 0 120 25" fill="none" xmlns="http://www.w3.org/2000/svg">
<path d="M3.39823 6.25179V8.26269H3.82301C4.46018 6.78096 5.84071 5.93429 7.4336 6.04013C9.02653 6.04013 10.4071 6.88683 11.0443 8.36849H11.3628C12 6.88683 13.5929 5.93429 15.1859 6.04013C17.6283 6.04013 19.646 8.05103 19.646 10.4852C19.646 10.5911 19.646 10.5911 19.646 10.6969V19.693H16.2478V10.9086C16.2478 9.63856 15.3982 9.00356 14.0177 9.00356C12.7433 8.89769 11.6814 9.85023 11.5752 11.1203C11.5752 11.2261 11.5752 11.332 11.5752 11.5436V19.693H8.177V10.9086C8.177 9.63856 7.3274 9.00356 5.9469 9.00356C4.67257 8.89769 3.61062 9.85023 3.50443 11.1203C3.50443 11.2261 3.50443 11.332 3.50443 11.5436V19.693H0V6.25179H3.39823Z" fill="white"/>
<path d="M42.4779 6.25147V8.47404H42.9026C43.4336 7.20397 44.708 6.03979 47.1505 6.03979C50.1239 6.03979 52.4602 8.15651 52.4602 11.6491V19.6927H49.062V11.9666C49.1682 10.4849 48.1063 9.10904 46.6195 9.00324C46.4071 9.00324 46.1947 9.00324 45.9823 9.00324C43.7523 9.00324 42.5841 10.3791 42.5841 12.7075V19.6927H39.1859V6.25147H42.4779Z" fill="white"/>
<path d="M56.4955 0.00730813C57.7699 -0.0985279 58.8318 0.959835 58.938 2.22987V2.33571C58.938 3.71158 57.8761 4.76994 56.4955 4.76994C55.115 4.76994 54.0531 3.71158 54.0531 2.33571C54.0531 1.06567 55.115 0.00730813 56.4955 0.00730813ZM58.3009 19.6929H54.9026V6.25166H58.3009V19.6929Z" fill="white"/>
<path d="M66.2654 5.82812C68.92 5.82812 71.3627 6.88649 73.168 8.89736L70.832 10.9083C69.77 9.53242 68.1767 8.68569 66.4778 8.68569C65.0973 8.68569 64.4601 9.21489 64.4601 9.95576C64.4601 10.6966 65.0973 11.12 66.3716 11.3316L67.9647 11.6491C70.938 12.1783 73.274 13.1308 73.274 15.7768C73.274 18.4226 70.832 20.2219 67.54 20.2219C64.5663 20.2219 61.6991 18.846 60.1061 16.3059L62.761 14.6126C63.6105 16.4118 65.4159 17.4701 67.4333 17.3643C69.0267 17.3643 69.876 16.7293 69.876 15.8826C69.876 15.0359 69.1327 14.7184 67.858 14.5067L66.2654 14.1892C63.0796 13.66 61.1681 12.4958 61.1681 9.95576C61.1681 7.41569 63.1858 5.82812 66.2654 5.82812Z" fill="white"/>
<path d="M78.478 6.25147V8.47404H78.9027C79.4333 7.20397 80.708 6.03979 83.1507 6.03979C86.124 6.03979 88.46 8.15651 88.46 11.6491V19.6927H85.062V11.9666C85.168 10.4849 84.106 9.10904 82.6193 9.00324C82.4073 9.00324 82.1947 9.00324 81.982 9.00324C79.752 9.00324 78.584 10.3791 78.584 12.7075V19.6927H75.0793V6.25147H78.478Z" fill="white"/>
<path d="M97.274 5.82812C100.885 5.82812 103.433 7.94482 103.433 11.2258V19.6927H100.035V17.7876H99.6107C99.186 18.6343 98.23 20.116 95.3627 20.116C92.2833 20.116 90.2653 18.5285 90.2653 15.8826C90.2653 13.7658 92.1767 12.2842 94.7253 11.9666L99.9293 11.4374V11.0141C99.9293 9.74409 98.9733 8.68569 97.062 8.68569C95.3627 8.68569 93.876 9.74409 93.3453 11.3316L90.584 9.63823C91.9647 7.30982 94.5133 5.82812 97.274 5.82812ZM96.2127 17.2584C98.6547 17.2584 99.9293 15.8826 99.9293 13.9775V13.66L95.7873 14.1892C94.5133 14.4009 93.876 14.93 93.876 15.6709C93.876 16.6234 94.6193 17.2584 96.2127 17.2584Z" fill="white"/>
<path d="M105.664 6.25166H109.062V8.1567H109.487C110.336 6.67503 112.035 5.72248 113.841 5.82832C117.239 5.82832 120 8.79176 120 12.9194C120 17.047 117.133 20.0104 113.841 20.0104C112.035 20.1162 110.336 19.1637 109.487 17.682H109.168V24.9847H105.77L105.664 6.25166ZM116.495 13.0252C116.495 10.3793 114.903 9.00343 112.779 9.00343C110.655 9.00343 109.062 10.4851 109.062 13.0252C109.062 15.5652 110.655 17.047 112.779 17.047C114.903 17.047 116.495 15.5652 116.495 13.0252Z" fill="white"/>
<path opacity="0.7" d="M29.4159 20.8566C33.8732 20.8566 37.4867 17.2554 37.4867 12.8131C37.4867 8.37077 33.8732 4.76953 29.4159 4.76953C24.9585 4.76953 21.3451 8.37077 21.3451 12.8131C21.3451 17.2554 24.9585 20.8566 29.4159 20.8566Z" fill="white"/>
<path d="M32.4956 5.4043C36.6372 7.0977 38.5487 11.8603 36.7434 15.9879C34.938 20.1156 30.2655 22.0206 26.1239 20.2214L32.4956 5.4043Z" fill="white"/>
</svg>
