<svg width="120" height="26" viewBox="0 0 120 26" fill="none" xmlns="http://www.w3.org/2000/svg">
<path d="M3.34414 6.22601V8.28668H3.76216C4.38919 6.76829 5.74775 5.90064 7.31532 6.00909C8.88288 6.00909 10.2414 6.87675 10.8685 8.39514H11.182C11.809 6.87675 13.3766 5.90064 14.9441 6.00909C17.3477 6.00909 19.3333 8.06977 19.3333 10.5643C19.3333 10.6727 19.3333 10.6727 19.3333 10.7812V20H15.9892V10.9981C15.9892 9.69662 15.1532 9.04588 13.7946 9.04588C12.5405 8.93742 11.4955 9.91353 11.391 11.215C11.391 11.3235 11.391 11.4319 11.391 11.6488V20H8.04685V10.9981C8.04685 9.69662 7.21081 9.04588 5.85225 9.04588C4.5982 8.93742 3.55315 9.91353 3.44865 11.215C3.44865 11.3235 3.44865 11.4319 3.44865 11.6488V20H0V6.22601H3.34414Z" fill="#6666FF"/>
<path d="M42.64 6.21705V8.49612H43.0667C43.6 7.1938 44.88 6 47.3334 6C50.32 6 52.6667 8.17054 52.6667 11.7519V20H49.2534V12.0775C49.36 10.5581 48.2934 9.14729 46.8 9.03876C46.5867 9.03876 46.3734 9.03876 46.16 9.03876C43.92 9.03876 42.7467 10.4496 42.7467 12.8372V20H39.3334V6.21705H42.64Z" fill="#6666FF"/>
<path d="M56.3333 0.00742214C57.5507 -0.100065 58.5652 0.974805 58.6667 2.26465V2.37214C58.6667 3.76947 57.6522 4.84434 56.3333 4.84434C55.0145 4.84434 54 3.76947 54 2.37214C54 1.08229 55.0145 0.00742214 56.3333 0.00742214ZM58.058 20H54.8116V6.34915H58.058V20Z" fill="#6666FF"/>
<path d="M66.2366 6C68.9248 6 71.3979 7.02941 73.2259 8.98529L70.8603 10.9412C69.785 9.60294 68.1721 8.77941 66.4517 8.77941C65.0538 8.77941 64.4087 9.29412 64.4087 10.0147C64.4087 10.7353 65.0538 11.1471 66.3441 11.3529L67.9571 11.6618C70.9678 12.1765 73.3334 13.1029 73.3334 15.6765C73.3334 18.25 70.8603 20 67.5269 20C64.5162 20 61.613 18.6618 60.0001 16.1912L62.6882 14.5441C63.5484 16.2941 65.3764 17.3235 67.4194 17.2206C69.0323 17.2206 69.8925 16.6029 69.8925 15.7794C69.8925 14.9559 69.1398 14.6471 67.8495 14.4412L66.2366 14.1324C63.0108 13.6176 61.0753 12.4853 61.0753 10.0147C61.0753 7.54412 63.1183 6 66.2366 6Z" fill="#6666FF"/>
<path d="M78.7195 6.21705V8.49612H79.1428C79.6719 7.1938 80.9418 6 83.3756 6C86.3386 6 88.6666 8.17054 88.6666 11.7519V20H85.2804V12.0775C85.3862 10.5581 84.328 9.14729 82.8465 9.03876C82.6349 9.03876 82.4232 9.03876 82.2116 9.03876C79.9894 9.03876 78.8253 10.4496 78.8253 12.8372V20H75.3333V6.21705H78.7195Z" fill="#6666FF"/>
<path d="M97.0968 6C100.753 6 103.333 8.07407 103.333 11.2889V19.5852H99.8925V17.7185H99.4624C99.0323 18.5481 98.0645 20 95.1613 20C92.043 20 90 18.4444 90 15.8519C90 13.7778 91.9355 12.3259 94.5161 12.0148L99.7849 11.4963V11.0815C99.7849 9.83704 98.8172 8.8 96.8817 8.8C95.1613 8.8 93.6559 9.83704 93.1183 11.3926L90.3226 9.73333C91.7204 7.45185 94.3011 6 97.0968 6ZM96.0215 17.2C98.4946 17.2 99.7849 15.8519 99.7849 13.9852V13.6741L95.5914 14.1926C94.3011 14.4 93.6559 14.9185 93.6559 15.6444C93.6559 16.5778 94.4086 17.2 96.0215 17.2Z" fill="#6666FF"/>
<path d="M105.333 6.43515H108.81V8.357H109.244C110.114 6.86223 111.852 5.90131 113.699 6.00808C117.175 6.00808 120 8.99762 120 13.1616C120 17.3256 117.067 20.3152 113.699 20.3152C111.852 20.4219 110.114 19.461 109.244 17.9662H108.919V25.3333H105.442L105.333 6.43515ZM116.415 13.2684C116.415 10.5992 114.785 9.21116 112.612 9.21116C110.439 9.21116 108.81 10.7059 108.81 13.2684C108.81 15.8309 110.439 17.3256 112.612 17.3256C114.785 17.3256 116.415 15.8309 116.415 13.2684Z" fill="#6666FF"/>
<path d="M29.4134 20.926C33.8703 20.926 37.4834 17.313 37.4834 12.8561C37.4834 8.39914 33.8703 4.7861 29.4134 4.7861C24.9565 4.7861 21.3434 8.39914 21.3434 12.8561C21.3434 17.313 24.9565 20.926 29.4134 20.926Z" fill="#6666FF"/>
<path d="M26.2274 20.2884C22.0862 18.5895 20.1749 13.8112 21.98 9.67003C23.679 5.52887 28.4572 3.61757 32.5984 5.42269L26.2274 20.2884Z" fill="#7196FF"/>
</svg>
